<svg width="164" height="164" viewBox="0 0 164 164" fill="none" xmlns="http://www.w3.org/2000/svg">
<mask id="mask0_6102_5250" style="mask-type:alpha" maskUnits="userSpaceOnUse" x="0" y="0" width="164" height="164">
<circle cx="82" cy="82" r="82" fill="#D9D9D9"/>
</mask>
<g mask="url(#mask0_6102_5250)">
<rect x="-83.1895" y="-118.841" width="308.985" height="358.899" rx="7.22772" fill="#D9ABA1"/>
<path d="M125.518 225.362C139.692 219.517 181.142 195.84 176.813 145.897C172.483 95.953 158.513 76.5054 163.753 63.0454C152.242 79.4276 149.382 115.22 147.939 158.151C145.104 133.799 145.942 91.6301 152.745 67.8272C159.549 44.0244 109.881 11.1571 99.573 -0.000488281C105.414 16.2931 106.13 40.756 92.1103 58.3956C90.531 60.3827 89.1059 62.3212 87.8194 64.2264C87.0092 62.1936 85.795 60.2486 84.0878 58.3956C72.2932 45.5942 70.6548 36.1824 70.6548 27.2386C68.1637 41.2299 23.5288 62.9366 10.9527 82.2765C-4.76744 106.451 -19.2423 141.56 -1.01605 179.138C30.6819 244.489 111.344 231.206 125.518 225.362Z" fill="#CA3E1F"/>
<path d="M11.7607 162.303C7.89542 205.524 42.3611 215.41 55.0153 220.468C67.6696 225.526 131.909 235.245 160.208 178.689C176.481 146.169 161.183 111.225 147.149 90.3039C135.921 73.5669 152.932 61.9454 112.995 21.833C112.995 29.5731 123.118 51.3051 112.995 56.0871C102.871 60.8691 86.8537 59.6123 86.7003 84.1353C77.5584 69.4082 86.4872 75.1691 70.8419 56.0871C61.8782 45.1543 62.2597 45.5275 68.0434 34.7065C58.8403 44.3624 28.9245 73.9957 34.9986 94.5951C41.0726 115.194 37.5294 141.228 34.9986 162.303C33.7101 125.15 12.8344 87.5072 2.55762 73.3298C7.23586 84.9783 15.626 119.081 11.7607 162.303Z" fill="#F2812F"/>
<path d="M27.93 165.066C24.7957 200.141 52.7437 208.164 63.005 212.268C73.2663 216.373 121.028 223.276 143.976 177.38C157.171 150.99 148.454 118.611 137.073 101.633C127.968 88.0507 122.085 65.0032 120.282 55.1772C120.282 61.4584 118.229 74.9909 110.02 78.8715C101.811 82.7521 99.5104 123.524 99.386 143.424C98.8263 121.782 100.692 101.073 88.0053 85.588C77.8559 73.1998 71.6494 62.7022 75.8783 51.2593C68.4155 59.0952 41.8481 76.1476 46.7735 92.8642C51.6989 109.581 48.8258 147.964 46.7735 165.066C45.7287 134.917 28.8007 104.369 20.4673 92.8642C24.2609 102.317 31.0644 129.991 27.93 165.066Z" fill="#F6BC4B"/>
<path d="M36.1368 169.443L116.338 166.033L116.338 94.7797L36.1368 98.1897L36.1368 169.443Z" fill="#36271C"/>
<path d="M39.2308 106.094C49.1035 105.773 56.4203 116.066 59.0633 122.626C60.5578 140.942 58.2304 173.224 36.9648 155.821C15.6993 138.418 11.7696 128.68 15.7948 116.935C18.3676 109.428 31.9539 106.33 39.2308 106.094Z" fill="#816551"/>
<path d="M122.324 111.288C116.022 119.187 118.314 130.941 117.727 137.89C128.775 136.531 134.896 121.337 134.896 116.126C134.896 113.061 133.302 110.407 131.948 109.623C129.685 108.26 125.525 107.276 122.324 111.288Z" fill="#A3856C"/>
<path d="M55.0029 172.755C30.0005 162.726 45.8309 104.998 55.0028 85.2476H101.644C129.985 123.088 127.072 158.892 116.157 168.262C105.242 177.633 80.0053 182.784 55.0029 172.755Z" fill="#B3937A"/>
<path d="M40.6973 147.392C40.6971 134.491 52.1016 123.278 55.2437 123.789C58.3857 124.299 55.0326 148.868 54.1883 151.818C53.3441 154.768 50.0842 155.014 48.5598 154.768C45.98 154.4 40.6973 152.533 40.6973 147.392Z" fill="#A3856C"/>
<path d="M97.399 89.8028C94.313 88.5167 93.9205 85.1035 95.3462 80.5223C97.032 75.1056 101.383 74.6132 104.469 75.8993C107.555 77.1854 109.892 80.6906 106.521 85.1798C103.47 89.2441 100.485 91.0889 97.399 89.8028Z" fill="#C2A28A"/>
<path d="M44.6088 112.05C44.3259 105.949 49.2049 89.4419 52.1306 80.876L101.077 74.8258C105.643 82.0639 113.761 95.3572 117.513 105.861C99.3926 102.679 62.8391 108.351 44.6088 112.05Z" fill="#AA4245"/>
<ellipse cx="76.4664" cy="78.1227" rx="24.9961" ry="2.0405" transform="rotate(-7.04092 76.4664 78.1227)" fill="#962F32"/>
<path d="M89.0263 120.076C89.0324 120.067 89.0426 120.061 89.0537 120.061L91.2657 120.021C91.2788 120.02 91.2908 120.028 91.2965 120.039L92.8424 123.163C92.8447 123.167 92.8458 123.172 92.8459 123.177L92.8949 125.859C92.8952 125.878 92.8804 125.893 92.8618 125.893L87.3016 125.995C87.283 125.995 87.2676 125.981 87.2673 125.962L87.2101 122.829C87.21 122.822 87.2119 122.816 87.2157 122.81L89.0263 120.076Z" fill="white"/>
<path d="M92.0649 117.925C92.1152 118.731 91.3301 119.096 89.9334 119.889C88.6799 119.584 87.197 118.994 87.1468 118.188C87.0965 117.382 88.1752 117.042 89.5923 116.954C91.0094 116.865 92.0147 117.119 92.0649 117.925Z" fill="#3F3D3B"/>
<path d="M89.2278 119.19C88.4789 121.876 86.9804 122.811 83.2807 123.947" stroke="#3F3D3B" stroke-width="1.5" stroke-linecap="round"/>
<path d="M90.1522 119.45C91.8479 121.925 92.3571 121.894 94.9347 122.244" stroke="#3F3D3B" stroke-width="1.5" stroke-linecap="round"/>
<path d="M94.014 183.702C93.3231 176.635 94.4507 170.53 97.6473 166.429C100.844 162.329 111.824 161.975 115.698 166.43C119.572 170.885 119.923 177.224 118.772 183.702C117.62 190.18 110.999 191.554 107.832 191.431C103.514 191.799 94.7049 190.768 94.014 183.702Z" fill="#816551"/>
<path d="M56.9306 96.0821C54.1131 97.5728 50.9812 95.9944 47.8655 92.49C44.1817 88.3463 46.1861 84.9902 49.0036 83.4994C51.8211 82.0087 56.1154 82.2566 58.0686 87.0915C59.837 91.4688 59.7481 94.5913 56.9306 96.0821Z" fill="#C2A28A"/>
<path d="M171.717 75.6681C159.794 81.1577 139.734 65.0173 131.293 59.5537V96.1103C156.524 95.2816 184.517 69.7748 171.717 75.6681Z" fill="white"/>
<path d="M171.717 75.6662C159.794 81.1557 139.734 78.091 131.293 72.6274V96.1084C156.524 95.2797 184.517 69.7729 171.717 75.6662Z" fill="#EDE7D8"/>
<path d="M128.809 59.2778H131.939V136.074C131.939 136.074 131.387 136.535 130.374 136.535C129.361 136.535 128.809 136.074 128.809 136.074V59.2778Z" fill="#809CAA"/>
<path d="M131.381 59.2778H131.934V136.074L131.381 136.351V59.2778Z" fill="#6E8997"/>
<ellipse cx="130.467" cy="57.6205" rx="2.94664" ry="2.94663" fill="#E1ECEB"/>
<path d="M129.811 56.9664C128.661 58.1171 129.465 60.7867 128.314 59.636C127.163 58.4853 127.163 56.6196 128.314 55.4688C129.465 54.3181 131.33 54.3181 132.481 55.4688C133.632 56.6196 130.962 55.8157 129.811 56.9664Z" fill="white"/>
<ellipse cx="9.18509" cy="9.0113" rx="9.18509" ry="9.0113" transform="matrix(-0.992819 0.110903 0.0945128 0.996572 111.949 99.0342)" fill="white"/>
<ellipse cx="9.18509" cy="9.0113" rx="9.18509" ry="9.0113" transform="matrix(-0.992819 0.110903 0.0945128 0.996572 79.8174 102.439)" fill="white"/>
<ellipse cx="2.34515" cy="2.37542" rx="2.34515" ry="2.37542" transform="matrix(-0.983251 0.182254 0.168456 0.985709 108.161 110.078)" fill="#3F3D3B"/>
<ellipse cx="2.34515" cy="2.37542" rx="2.34515" ry="2.37542" transform="matrix(-0.983251 0.182254 0.168456 0.985709 76.4502 112.688)" fill="#3F3D3B"/>
</g>
</svg>
