<svg width="160" height="160" viewBox="0 0 160 160" fill="none" xmlns="http://www.w3.org/2000/svg">
<mask id="mask0_6143_3823" style="mask-type:alpha" maskUnits="userSpaceOnUse" x="0" y="0" width="160" height="160">
<circle cx="80" cy="80" r="80" fill="#D9D9D9"/>
</mask>
<g mask="url(#mask0_6143_3823)">
<rect x="-52" y="-13" width="252.821" height="293.662" rx="15.8416" fill="#EFCF69"/>
<path d="M125.359 53.407C114.11 52.8885 105.395 65.8598 102.145 74.1499C99.7808 97.3619 101.273 138.328 126.153 116.498C151.033 94.6674 155.865 82.3624 151.697 67.4213C149.033 57.8712 133.65 53.7891 125.359 53.407Z" fill="#6F5440"/>
<path d="M39.3421 165.704C38.605 156.715 39.4414 141.713 39.9517 135.335L71.2107 139.702C72.2477 145.176 73.8982 158.171 72.2046 166.363C70.5111 174.555 61.6872 176.123 57.487 175.883C51.7458 176.235 40.0791 174.692 39.3421 165.704Z" fill="#A3856C"/>
<path d="M81.261 167.072C80.524 158.084 81.3603 143.081 81.8706 136.704L113.13 141.071C114.167 146.544 115.817 159.54 114.124 167.732C112.43 175.924 103.606 177.492 99.4059 177.252C93.6647 177.604 81.998 176.061 81.261 167.072Z" fill="#A3856C"/>
<path d="M44.9169 154.025C13.4348 140.658 31.506 66.8759 43.6519 42.0386L102.858 43.2271C137.868 91.9839 133.258 137.358 119.164 148.975C105.07 160.591 76.399 167.393 44.9169 154.025Z" fill="#C2A28A"/>
<path d="M104.438 63.056C100.391 60.9892 100.37 56.627 103.027 51.0531C106.169 44.4626 112.226 44.4679 116.274 46.5347C120.321 48.6015 123.001 53.3599 117.684 58.5376C112.87 63.2253 108.485 65.1228 104.438 63.056Z" fill="#C2A28A"/>
<path d="M46.9325 61.3609C42.9976 63.175 38.706 61.0845 34.486 56.5495C29.4965 51.1873 32.3543 46.9827 36.2891 45.1686C40.224 43.3545 46.1573 43.7885 48.7356 49.9801C51.0699 55.5856 50.8674 59.5468 46.9325 61.3609Z" fill="#C2A28A"/>
<path d="M81.162 87.3141C81.1415 88.3391 80.11 88.719 78.2599 89.5766C76.7056 89.06 74.8909 88.1588 74.9115 87.1338C74.932 86.1088 76.3324 85.7912 78.1347 85.8273C79.9371 85.8635 81.1826 86.2891 81.162 87.3141Z" fill="#3F3D3B"/>
<path opacity="0.4" d="M76.1079 43.064L75.8454 56.1412" stroke="#C2A28A" stroke-width="0.408745"/>
<path d="M31.7788 72.1675C32.2608 65.265 39.7672 44.9669 44.5331 35.7022L105.479 36.9256C110.112 45.659 118.292 61.6638 121.48 73.9683C99.6154 68.0571 54.7149 70.3479 31.7788 72.1675Z" fill="#28365B"/>
<ellipse cx="74.9991" cy="36.6741" rx="30.9082" ry="3.23947" transform="rotate(1.15003 74.9991 36.6741)" fill="#28365B"/>
<path d="M78.2745 77.6536C12.4718 76.3327 20.3529 67.6905 34.6127 63.349C30.63 68.2762 34.5397 66.9891 78.4343 69.691C113.55 71.8525 119.975 67.4903 118.797 65.039C131.301 66.7314 143.252 78.958 78.2745 77.6536Z" fill="#172240"/>
<ellipse cx="2.01183" cy="2.63512" rx="2.01183" ry="2.63512" transform="matrix(0.995302 0.0968241 -0.0899433 0.995947 61.7769 82.8848)" fill="#3F3D3B"/>
<ellipse cx="1.81053" cy="2.37164" rx="1.81053" ry="2.37164" transform="matrix(0.995301 0.09683 -0.0899379 0.995947 89.9429 83.2026)" fill="#3F3D3B"/>
<path d="M132.086 125.923C133.236 119.508 136.45 102.124 128.032 93.7785C119.614 85.433 123.15 121.869 122.689 125.734C122.228 129.599 119 130.853 120.929 131.334C124.168 132.203 130.935 132.337 132.086 125.923Z" fill="#A3856C"/>
<path d="M92.9651 149.977L82.5708 110.872C105.155 114.02 121.056 108.199 126.306 104.878L125.829 145.473C116.192 153.037 99.9042 151.627 92.9651 149.977Z" fill="white"/>
<path d="M85.2295 121.081C94.3678 121.728 115.365 121.509 126.247 115.459" stroke="#CA1E21" stroke-width="0.997616"/>
<path d="M91.2085 142.666C98.9556 143.504 116.72 143.729 125.802 137.925" stroke="#CA1E21" stroke-width="0.997616"/>
<path d="M91.7261 144.609C99.4731 145.447 117.238 145.672 126.319 139.868" stroke="#D7B269" stroke-width="0.997616"/>
<path d="M85.7476 123.023C94.6719 123.7 115.172 123.55 125.777 117.537" stroke="#D7B269" stroke-width="0.997616"/>
<path d="M86.5122 124.933C95.3295 125.624 115.581 125.508 126.047 119.515" stroke="#CA1E21" stroke-width="0.997616"/>
<path d="M92.2446 146.552C99.7777 147.419 117.045 147.712 125.849 141.946" stroke="#CA1E21" stroke-width="0.997616"/>
<ellipse cx="104.35" cy="108.139" rx="21.9476" ry="3.24225" transform="rotate(-7.8041 104.35 108.139)" fill="#D9D9D9"/>
<path d="M108.986 128.289L111.196 127.986L111.282 128.617L109.072 128.92L108.986 128.289Z" fill="#CA1E21"/>
<path d="M108.986 128.289L111.196 127.986L111.282 128.617L109.072 128.92L108.986 128.289Z" stroke="#CA1E21"/>
<path d="M110.277 126.962L110.591 129.252L109.992 130.01L109.682 127.754L110.277 126.962Z" fill="#CA1E21"/>
<path d="M110.277 126.962L110.591 129.252L109.992 130.01L109.682 127.754L110.277 126.962Z" stroke="#CA1E21"/>
<path d="M109.777 131.02L110.981 129.503L111.748 135.102L110.267 134.595L109.777 131.02Z" fill="#CA1E21"/>
<path d="M109.777 131.02L110.981 129.503L111.748 135.102L110.267 134.595L109.777 131.02Z" stroke="#CA1E21"/>
<path d="M102.866 129.871L102.611 128.013L111.677 134.615L111.932 136.474L102.866 129.871Z" fill="#CA1E21"/>
<path d="M102.866 129.871L102.611 128.013L111.677 134.615L111.932 136.474L102.866 129.871Z" stroke="#CA1E21"/>
<path d="M102.611 128.013L104.174 129.151L105.121 136.054L103.921 137.571L102.611 128.013Z" fill="#CA1E21"/>
<path d="M102.611 128.013L104.174 129.151L105.121 136.054L103.921 137.571L102.611 128.013Z" stroke="#CA1E21"/>
<path d="M103.921 137.571L106.868 133.921L105.774 133.125L103.677 135.629L103.921 137.571Z" fill="#CA1E21"/>
<path d="M103.921 137.571L106.868 133.921L105.774 133.125L103.677 135.629L103.921 137.571Z" stroke="#CA1E21"/>
<path d="M79.1035 50.98L82.0781 51.0397L82.0611 51.8886L79.0865 51.8288L79.1035 50.98Z" fill="white"/>
<path d="M79.1035 50.98L82.0781 51.0397L82.0611 51.8886L79.0865 51.8288L79.1035 50.98Z" stroke="white"/>
<path d="M81.0801 49.5005L81.0182 52.5832L80.0707 53.4581L80.1317 50.4201L81.0801 49.5005Z" fill="white"/>
<path d="M81.0801 49.5005L81.0182 52.5832L80.0707 53.4581L80.1317 50.4201L81.0801 49.5005Z" stroke="white"/>
<path d="M79.5774 54.7441L81.4783 52.9945L81.327 60.5319L79.4808 59.5562L79.5774 54.7441Z" fill="white"/>
<path d="M79.5774 54.7441L81.4783 52.9945L81.327 60.5319L79.4808 59.5562L79.5774 54.7441Z" stroke="white"/>
<path d="M70.7091 51.7954L70.7593 49.2935L81.3341 59.8751L81.2839 62.377L70.7091 51.7954Z" fill="white"/>
<path d="M70.7091 51.7954L70.7593 49.2935L81.3341 59.8751L81.2839 62.377L70.7091 51.7954Z" stroke="white"/>
<path d="M70.7593 49.2935L72.5825 51.1179L72.396 60.4107L70.501 62.1605L70.7593 49.2935Z" fill="white"/>
<path d="M70.7593 49.2935L72.5825 51.1179L72.396 60.4107L70.501 62.1605L70.7593 49.2935Z" stroke="white"/>
<path d="M70.5019 62.1601L75.1428 57.9625L73.8666 56.6855L70.5832 59.5507L70.5019 62.1601Z" fill="white"/>
<path d="M70.5019 62.1601L75.1428 57.9625L73.8666 56.6855L70.5832 59.5507L70.5019 62.1601Z" stroke="white"/>
<path d="M78.4571 99.1213C81.0472 99.1733 83.4261 98.8486 85.1842 98.263C86.0605 97.9711 86.8159 97.6035 87.3669 97.1588C87.9148 96.7167 88.3289 96.1389 88.343 95.4359C88.3571 94.733 87.9665 94.139 87.4368 93.6753C86.9041 93.2089 86.1641 92.8112 85.3002 92.4844C83.567 91.8286 81.2031 91.4087 78.613 91.3567C76.0229 91.3048 73.644 91.6294 71.8859 92.2151C71.0096 92.507 70.2543 92.8746 69.7032 93.3193C69.1553 93.7614 68.7412 94.3392 68.7271 95.0422C68.713 95.7451 69.1036 96.3391 69.6333 96.8028C70.166 97.2692 70.906 97.6669 71.7699 97.9937C73.5031 98.6494 75.867 99.0693 78.4571 99.1213Z" fill="#F0A7A7" stroke="#3F3D3B" stroke-width="1.22624"/>
<path d="M86.0585 97.2285C83.5004 95.6781 76.9357 93.4476 71.1423 96.929C73.5043 98.0666 79.7943 99.7192 86.0585 97.2285Z" fill="#C57C7D"/>
<path d="M79.6237 99.7527C72.8247 100.441 72.9026 98.128 73.7914 96.8853L82.2797 96.54C82.267 97.1701 83.4663 98.4547 88.3647 98.553C94.4877 98.6759 88.0499 102.5 89.9339 102.538C91.8179 102.576 100.521 103.266 100.23 106.011C99.9396 108.755 97.7601 111.462 102.931 112.081L96.3416 111.949C94.7716 111.917 92.1566 111.521 94.2566 110.188C96.8816 108.522 96.4727 105.42 91.7661 105.153C87.0596 104.887 83.9946 104.997 84.9608 103.813C85.9269 102.63 88.1224 98.8919 79.6237 99.7527Z" fill="#FBDB9E" stroke="#E0AD4A" stroke-width="0.408745"/>
<path d="M77.9224 95.2261C77.906 96.0434 77.6974 98.2878 80.3129 98.3403C83.5822 98.4059 89.0745 99.7427 87.5991 101.962C86.1236 104.181 89.626 102.82 93.4837 104.124C97.3414 105.428 97.1042 107.058 96.2336 109.698C95.537 111.81 99.2588 111.735 100.896 111.632" stroke="#BE8151" stroke-width="0.613118"/>
<path d="M75.0568 95.3734C74.7735 95.9128 72.0647 98.7883 74.6802 98.8408C77.9495 98.9065 83.4418 100.243 81.9664 102.462C80.491 104.681 83.9933 103.32 87.851 104.624C91.7087 105.928 91.4715 107.559 90.6009 110.199C89.9044 112.311 95.9804 112.078 97.6178 111.975" stroke="#BE8151" stroke-width="0.613118"/>
<path d="M81.6936 95.7101C81.4102 96.2495 81.4973 97.3414 84.1128 97.3939C87.3821 97.4596 92.8744 98.7963 91.399 101.015C89.9235 103.234 93.4259 101.874 97.2836 103.178C101.141 104.481 100.904 106.112 100.033 108.752C99.3369 110.864 99.4628 111.738 101.1 111.635" stroke="#BE8C51" stroke-width="0.613118"/>
<path d="M80.3698 95.4794C80.0865 96.0188 82.7233 97.3664 85.3387 97.4189C88.608 97.4845 94.1003 98.8212 92.6249 101.04C91.1495 103.259 94.6518 101.899 98.5095 103.202C102.367 104.506 102.13 106.137 101.259 108.777C100.563 110.889 100.689 111.763 102.326 111.66" stroke="#CF9D61" stroke-width="0.613118"/>
<path d="M75.8784 95.1855C76.5817 95.8129 75.3588 97.6281 77.9743 97.6806C81.2436 97.7462 86.7359 99.083 85.2605 101.302C83.785 103.521 87.2874 102.16 91.1451 103.464C95.0028 104.768 94.7656 106.399 93.895 109.039C93.1984 111.15 93.3243 112.025 94.9617 111.922" stroke="#CF9D61" stroke-width="0.613118"/>
<path d="M75.9443 91.9159L80.8483 92.0144L81.1994 93.678C81.2142 93.7477 81.2209 93.8189 81.2194 93.8902L81.2101 94.3556C81.1997 94.8727 80.7721 95.2835 80.255 95.2731L76.4063 95.1958C75.8892 95.1854 75.4784 94.7578 75.4888 94.2407L75.5029 93.5412C75.5045 93.4585 75.5171 93.3764 75.5403 93.2971L75.9443 91.9159Z" fill="white"/>
<path d="M57.0301 97.2602L89.6411 102.003L89.6247 102.82L56.9945 99.0311L57.0301 97.2602Z" fill="#3F3D3B"/>
<path d="M56.973 100.121L89.584 104.864L89.5676 105.681L56.9374 101.892L56.973 100.121Z" fill="#3F3D3B"/>
<path d="M52.1921 108.468C46.1071 109.175 20.3998 118.002 20.6931 103.395C20.9863 88.788 49.1083 93.9644 52.7552 93.7467C56.4022 93.529 57.8895 96.982 58.1772 98.7357C58.7176 101.685 58.2771 107.761 52.1921 108.468Z" fill="#A3856C"/>
<path d="M131.86 127.175C130.963 132.404 127.788 136.701 125.024 136.646C122.261 136.59 120.107 132.246 120.213 126.942C120.319 121.638 122.646 117.383 125.41 117.438C130.659 115.704 133.712 116.379 131.86 127.175Z" fill="#A3856C"/>
<ellipse cx="53.5293" cy="88.3996" rx="5.72244" ry="2.65685" transform="rotate(1.15003 53.5293 88.3996)" fill="#DF7B7B"/>
<ellipse cx="100.513" cy="89.9555" rx="5.72244" ry="2.86122" transform="rotate(1.15003 100.513 89.9555)" fill="#DF7B7B"/>
<path d="M78.2003 91.5526L78.2495 89.1006" stroke="#3F3D3B" stroke-width="0.817491"/>
</g>
</svg>
