<svg width="160" height="160" viewBox="0 0 160 160" fill="none" xmlns="http://www.w3.org/2000/svg">
<mask id="mask0_6143_2469" style="mask-type:alpha" maskUnits="userSpaceOnUse" x="0" y="0" width="160" height="160">
<circle cx="80" cy="80" r="80" fill="#D9D9D9"/>
</mask>
<g mask="url(#mask0_6143_2469)">
<rect x="-46.377" y="-15.8418" width="301.449" height="350.145" rx="15.8416" fill="#E4D1FF"/>
<path d="M125 62.1355C114.24 61.8558 106.16 74.4198 103.212 82.4051C101.398 104.634 103.611 143.758 126.969 122.417C150.328 101.076 154.711 89.2232 150.441 75.0238C147.711 65.9478 132.931 62.3417 125 62.1355Z" fill="#876B57"/>
<path d="M32.3814 102.766C36.0381 107.821 41.2412 125.41 43.3857 133.573C36.007 127.052 20.7486 113.225 18.744 110.086C16.7393 106.947 19.1357 103.785 20.5845 102.596C22.9932 100.547 28.7248 97.7112 32.3814 102.766Z" fill="#BFD29A"/>
<path d="M132.232 101.54C128.27 106.347 122.022 123.638 119.392 131.683C127.17 125.681 143.274 112.925 145.468 109.92C147.661 106.915 145.446 103.557 144.064 102.253C141.771 100.012 136.194 96.7326 132.232 101.54Z" fill="#BFD29A"/>
<path d="M50.0507 159.841C19.7067 147.669 35.5619 76.8087 46.6932 52.8384H103.299C137.694 98.764 134.159 142.217 120.912 153.589C107.666 164.962 80.3947 172.012 50.0507 159.841Z" fill="#C2A28A"/>
<ellipse cx="2.00778" cy="2.62985" rx="2.00778" ry="2.62985" transform="matrix(0.997044 0.076829 -0.0699354 0.997552 62.4302 84.188)" fill="#3F3D3B"/>
<ellipse cx="2.00778" cy="2.62985" rx="2.00778" ry="2.62985" transform="matrix(0.997044 0.076829 -0.0699354 0.997552 93.1704 84.4209)" fill="#3F3D3B"/>
<path d="M78.7347 91.4853C78.745 91.4704 78.762 91.4614 78.7801 91.4614H81.4486C81.47 91.4614 81.4894 91.4737 81.4985 91.493L83.2999 95.3065C83.3034 95.3139 83.3052 95.3219 83.3052 95.3301V98.5679C83.3052 98.5984 83.2805 98.6231 83.25 98.6231H76.5293C76.4988 98.6231 76.4741 98.5984 76.4741 98.5679V94.784C76.4741 94.7728 76.4775 94.7619 76.4839 94.7527L78.7347 91.4853Z" fill="white"/>
<path d="M83.3029 89.2437C83.3029 90.2237 82.3244 90.6065 80.5727 91.4617C79.0774 90.9977 77.3257 90.1712 77.3257 89.1913C77.3257 88.2113 78.6579 87.8809 80.3811 87.8809C82.1043 87.8809 83.3029 88.2637 83.3029 89.2437Z" fill="#3F3D3B"/>
<path d="M79.7656 90.5673C78.6556 93.7643 76.7698 94.7839 72.2026 95.8805" stroke="#3F3D3B" stroke-width="1.5" stroke-linecap="round"/>
<path d="M80.8607 90.9441C81.8516 94.5959 83.8288 95.4307 88.7087 95.7817" stroke="#3F3D3B" stroke-width="1.5" stroke-linecap="round"/>
<path d="M50.479 30.5364C41.0097 50.4293 39.307 58.913 40.2318 70.8757C40.2381 70.9568 40.3472 70.98 40.3878 70.9096C47.0811 59.2969 52.6713 54.6324 65.6573 49.6835C65.701 49.6669 65.723 49.6158 65.7049 49.5727C62.0993 41.0207 58.9132 36.7519 50.6053 30.505C50.5635 30.4735 50.5015 30.4892 50.479 30.5364Z" fill="#3A8328"/>
<path d="M52.228 35.5226C47.6622 45.9706 46.546 51.5524 47.3311 60.7302C47.3364 60.7928 47.4071 60.8282 47.4594 60.7933L60.9827 51.7778C61.0145 51.7566 61.0274 51.7157 61.0142 51.6798C58.782 45.6131 56.9078 42.0452 52.3736 35.5083C52.3367 35.4551 52.2539 35.4634 52.228 35.5226Z" fill="#885127" stroke="#EAEAEA" stroke-width="0.124119"/>
<path d="M106.103 30.9128C115.572 50.8058 117.275 59.2895 116.35 71.2522C116.344 71.3333 116.235 71.3563 116.194 71.2859C109.496 59.6834 103.532 55.7664 90.5444 50.8207C90.5006 50.8041 90.4785 50.7532 90.4967 50.7101C94.1047 42.1533 97.6663 37.1333 105.977 30.8813C106.019 30.8499 106.081 30.8656 106.103 30.9128Z" fill="#3A8328"/>
<path d="M104.217 37.0466C108.783 47.4945 109.899 53.0764 109.114 62.2541C109.108 62.3167 109.038 62.3521 108.985 62.3173L95.4622 53.3017C95.4303 53.2805 95.4174 53.2396 95.4306 53.2037C97.6628 47.137 99.537 43.5692 104.071 37.0322C104.108 36.979 104.191 36.9873 104.217 37.0466Z" fill="#885127" stroke="#EAEAEA" stroke-width="0.124119"/>
<path d="M56.0905 100.415C56.924 103.897 56.2817 105.69 53.9982 108.62C53.9771 108.647 53.9955 108.688 54.0298 108.688L109.027 109.18C109.059 109.18 109.079 109.144 109.062 109.116C107.42 106.384 107.275 103.56 107.554 99.5269C107.557 99.4861 107.504 99.4664 107.479 99.499C105.494 102.099 104.856 103.792 104.676 107.029C104.674 107.067 104.626 107.083 104.602 107.053C102.693 104.663 102.61 102.871 102.364 99.7976C102.361 99.7612 102.315 99.7459 102.291 99.7736C100.912 101.369 100.471 102.571 100.428 105.198C100.428 105.232 100.389 105.251 100.362 105.232C98.0322 103.55 97.6927 101.8 97.3502 98.5435C97.3466 98.5095 97.305 98.4938 97.2802 98.5175C95.7752 99.9533 95.2431 101.041 94.8445 103.357C94.8396 103.386 94.8065 103.401 94.7817 103.386C93.1951 102.383 92.5933 100.811 91.4549 98.0626C91.4371 98.0196 91.3725 98.0338 91.3747 98.0802C91.4868 100.42 91.3275 101.538 90.228 102.469C90.2146 102.481 90.1949 102.482 90.1799 102.473C88.866 101.672 88.3252 100.485 87.521 97.8909C87.513 97.8651 87.4823 97.8534 87.4593 97.8674C85.9336 98.8 85.2923 99.5115 85.5688 101.808C85.5723 101.837 85.545 101.861 85.5168 101.853C83.7462 101.39 83.3667 100.556 84.0056 97.9517C84.0148 97.9141 83.9718 97.8845 83.9407 97.9076C82.317 99.1126 82.0037 100.044 81.914 101.825C81.9128 101.848 81.8917 101.867 81.8682 101.864C80.7442 101.719 80.2151 100.382 79.6531 97.7425C79.6481 97.7189 79.6133 97.7204 79.6117 97.7445C79.5132 99.2428 79.3673 100.909 78.839 102.451C78.8317 102.472 78.8101 102.484 78.7895 102.475C77.9066 102.112 76.6952 98.373 76.0931 96.1819C76.0802 96.135 76.0111 96.1448 76.0118 96.1934C76.0414 98.2647 76.1466 101.866 74.7879 102.483C74.78 102.487 74.7709 102.488 74.7624 102.486C73.1651 102.137 72.8122 101.089 72.6595 98.5501C72.6573 98.5149 72.6142 98.4979 72.5889 98.5225C70.9557 100.111 70.6124 101.231 70.5349 103.353C70.5338 103.383 70.5012 103.403 70.4743 103.389C68.8573 102.568 68.1983 101.859 68.4022 99.4869C68.4053 99.4506 68.3638 99.4269 68.3356 99.45C67.4592 100.171 66.9187 101.133 65.9633 103.867C65.9488 103.909 65.8869 103.902 65.8811 103.859C65.5536 101.401 64.7215 100.808 62.8727 100.333C62.8457 100.326 62.8192 100.348 62.8206 100.376C62.9395 102.881 62.5065 104.222 61.1236 106.451C61.1061 106.479 61.0633 106.476 61.0498 106.446C59.4778 102.919 58.3568 101.664 56.1519 100.368C56.1205 100.35 56.082 100.379 56.0905 100.415Z" fill="#D78249"/>
<path d="M80.1925 105.947C73.3059 107.034 63.2441 109.199 54.3351 108.419C54.8883 109.698 55.4684 110.901 56.0726 112.033C56.6869 113.184 57.326 114.26 57.9872 115.266C58.4698 116.001 58.9641 116.698 59.469 117.358C65.5169 125.274 73.0803 128.009 80.1925 128.009C88.9375 128.009 102.516 122.974 107.541 110.892C107.871 110.098 108.164 109.274 108.417 108.419C97.8166 109.026 85.6722 106.573 80.1925 105.947Z" fill="#FDFFF7"/>
<path d="M37.5899 81.2223C50.6661 68.2811 67.8301 75.5167 69.9222 81.2223C72.0143 86.9279 86.659 85.9769 88.7511 81.2223C90.8432 76.4676 105.923 65.7477 120.133 81.4124C113.095 41.0919 44.8171 33.4844 37.5899 81.2223Z" fill="url(#paint0_linear_6143_2469)"/>
<path d="M32.431 115.076C41.6039 116.164 46.607 117.639 55.3252 121.543L55.3139 119.409L55.301 116.978C47.0549 113.176 42.1041 111.902 32.79 110.892C32.7015 111.89 32.5014 114.171 32.431 115.076Z" fill="#326825"/>
<path d="M130.049 131.623C124.315 130.971 118.494 143.7 114.251 152.977C111.579 158.819 109.534 163.293 108.531 162.19C90.8432 167.188 74.677 167.569 54.4493 162.944C54.3671 163.034 54.2782 163.001 54.1828 162.86C53.7369 162.203 53.1488 159.208 52.4402 155.598C51.2811 149.695 50.3326 144.936 48.0892 140.502C45.8457 136.068 38.6188 131.389 33.2155 132.003C34.9886 148.16 39.4272 158.166 54.1828 162.86C60.9465 165.012 69.8779 166.047 81.7141 166.047C113.476 166.047 128.407 155.295 130.049 131.623Z" fill="#BED1AF"/>
<path d="M32.0677 121.733C41.228 122.819 46.8045 124.102 55.502 127.993C55.514 127.998 55.526 128.004 55.538 128.009L55.4064 123.635C55.4038 123.633 55.4012 123.632 55.3986 123.631C47.1568 119.832 41.5663 118.558 32.2551 117.549C32.1667 118.546 32.0743 120.782 32.0677 121.733Z" fill="#326825"/>
<path d="M54.3351 108.419C63.2441 109.199 73.3059 107.034 80.1925 105.947C85.6722 106.573 97.8166 109.026 108.417 108.419C86.4531 102.327 74.6748 102.782 54.3351 108.419Z" fill="#FDFFF7"/>
<path d="M80.1925 128.009C73.0803 128.009 65.5169 125.274 59.469 117.358C59.6149 119.346 59.3119 120.154 57.9872 120.972C59.3307 121.869 60.0195 121.643 61.1735 120.401C61.7529 121.877 61.8203 122.682 60.7931 124.015C62.0841 124.205 62.7474 123.751 63.8266 123.011L63.9348 122.936L64.0263 122.874C64.4131 124.562 64.2197 125.439 63.0754 126.868C64.4956 127.036 65.2857 126.712 66.689 125.727C66.9551 127.766 66.1537 128.687 65.0336 129.975L65.0331 129.975C64.8923 130.137 64.7464 130.305 64.5969 130.481C66.7499 131.301 68.7106 129.893 69.1615 128.009C70.2949 129.527 70.6755 130.398 70.683 132.003C72.384 131.204 72.855 129.825 73.3033 128.513L73.3457 128.389C75.0482 129.906 75.5775 130.832 76.0083 132.574C77.4456 132.04 77.9874 131.076 78.5618 130.054C78.6591 129.88 78.7574 129.705 78.8612 129.531C79.9277 131.26 80.1647 132.215 80.1925 133.905C81.479 132.413 81.7135 131.454 81.3337 129.531C83.5157 130.321 84.2003 130.991 84.9473 132.383C85.6471 131.075 85.5076 130.191 85.1375 128.58C87.0886 129.646 87.8945 130.334 89.1315 131.623C88.7284 129.989 88.7015 129.072 89.1315 127.438C90.8229 127.981 91.2691 128.382 91.7941 129.15C92.7865 128.368 92.8225 127.535 92.8461 126.99C92.8558 126.765 92.8634 126.59 92.9353 126.487C95.0318 125.489 95.4466 126.076 95.598 128.009C97.2347 126.421 97.5017 125.55 97.1195 124.015C98.7441 123.859 99.1267 124.315 99.7821 125.156C100.862 123.837 101.055 123.086 100.923 121.733C102.096 121.675 102.621 121.963 103.396 122.874C103.398 122.865 103.401 122.857 103.403 122.848C103.885 121.148 104.325 119.598 103.776 118.69C104.719 117.746 105.42 118.414 106.153 119.113C106.429 119.376 106.709 119.643 107.009 119.831C107.627 118.123 107.081 116.213 106.439 114.505C107.163 114.736 107.57 115.098 108.095 115.782C108.134 114.824 108.171 113.938 108.205 113.137L108.211 113C108.075 112.364 107.864 111.696 107.541 110.892C102.516 122.974 88.9375 128.009 80.1925 128.009Z" fill="#E2A47B"/>
<path d="M57.9872 115.266C57.7329 116.396 57.4662 116.951 56.0726 117.358C57.3171 118.062 58.0145 117.833 59.0598 117.49C59.1902 117.448 59.326 117.403 59.469 117.358C58.9641 116.698 58.4698 116.001 57.9872 115.266Z" fill="#E2A47B"/>
<path d="M57.9872 115.266C57.326 114.26 56.6869 113.184 56.0726 112.033C55.6132 112.633 55.3457 113.132 55.0992 113.762C55.1242 114.075 55.1488 114.406 55.1726 114.754C56.1736 114.486 56.8608 114.448 57.9872 115.266Z" fill="#E2A47B"/>
<path d="M54.3351 108.419C54.5205 110.193 54.3665 110.997 53.5658 112.033L54.9393 112.033C54.6416 109.24 54.3351 108.419 54.3351 108.419Z" fill="#E2A47B"/>
<path d="M56.0726 112.033C55.4684 110.901 54.8883 109.698 54.3351 108.419C54.3351 108.419 54.6416 109.24 54.9393 112.033L56.0726 112.033Z" fill="#E2A47B"/>
<path d="M108.211 113L108.205 113.137C108.171 113.938 108.134 114.824 108.095 115.782C108.197 115.914 108.303 116.059 108.417 116.217C108.449 114.942 108.426 114.01 108.211 113Z" fill="#E2A47B"/>
<path fill-rule="evenodd" clip-rule="evenodd" d="M127.956 102.714C127.218 104.282 118.4 107.848 108.417 108.419C109.635 110.648 109.793 111.897 109.672 114.125C109.659 114.102 109.647 114.079 109.634 114.057C109.237 113.337 109.003 112.913 108.211 113C108.426 114.01 108.449 114.942 108.417 116.217C108.303 116.059 108.197 115.914 108.095 115.782C107.521 129.996 106.555 160.018 108.531 162.19C109.534 163.293 111.579 158.819 114.251 152.977C118.494 143.7 124.315 130.971 130.049 131.623C130.809 120.782 130.757 114.342 127.956 102.714Z" fill="#87A15E"/>
<path d="M108.417 108.419C108.417 108.419 108.332 110.154 108.211 113C109.003 112.913 109.237 113.337 109.634 114.057L109.672 114.125C109.793 111.897 109.635 110.648 108.417 108.419Z" fill="#E2A47B"/>
<path fill-rule="evenodd" clip-rule="evenodd" d="M108.095 115.782C107.57 115.098 107.163 114.736 106.439 114.505C107.081 116.213 107.627 118.123 107.009 119.831C106.709 119.643 106.429 119.376 106.153 119.113C105.42 118.414 104.719 117.746 103.776 118.69C104.325 119.598 103.885 121.148 103.403 122.848L103.396 122.874C102.621 121.963 102.096 121.675 100.923 121.733C101.055 123.086 100.862 123.837 99.7821 125.156C99.1267 124.315 98.7441 123.859 97.1195 124.015C97.5017 125.55 97.2347 126.421 95.598 128.009C95.4466 126.076 95.0318 125.489 92.9353 126.487C92.8634 126.59 92.8558 126.765 92.8461 126.99C92.8225 127.535 92.7865 128.368 91.7941 129.15C91.2691 128.382 90.8229 127.981 89.1315 127.438C88.7015 129.072 88.7284 129.989 89.1315 131.623C87.8945 130.334 87.0886 129.646 85.1375 128.58C85.5076 130.191 85.6471 131.075 84.9473 132.383C84.2003 130.991 83.5157 130.321 81.3337 129.531C81.7135 131.454 81.479 132.413 80.1925 133.905C80.1647 132.215 79.9277 131.26 78.8612 129.531C78.7574 129.705 78.6591 129.88 78.5618 130.054C77.9874 131.076 77.4456 132.04 76.0083 132.574C75.5775 130.832 75.0482 129.906 73.3457 128.389L73.3033 128.513C72.855 129.825 72.384 131.204 70.683 132.003C70.6755 130.398 70.2949 129.527 69.1615 128.009C68.7106 129.893 66.7499 131.301 64.5969 130.481C64.7464 130.305 64.8923 130.137 65.0331 129.975L65.0336 129.975C66.1537 128.687 66.9551 127.766 66.689 125.727C65.2857 126.712 64.4956 127.036 63.0754 126.868C64.2197 125.439 64.4131 124.562 64.0263 122.874L63.9348 122.936L63.8266 123.011C62.7474 123.751 62.0841 124.205 60.7931 124.015C61.8203 122.682 61.7529 121.877 61.1735 120.401C60.0195 121.643 59.3307 121.869 57.9872 120.972C59.3119 120.154 59.6149 119.346 59.469 117.358C59.326 117.403 59.1902 117.448 59.0598 117.49C58.0145 117.833 57.3171 118.062 56.0726 117.358C57.4662 116.951 57.7329 116.396 57.9872 115.266C56.8608 114.448 56.1736 114.486 55.1726 114.754C55.2187 115.427 55.262 116.166 55.301 116.978C55.3268 117.515 55.3207 118.408 55.3146 119.299L55.3139 119.409C55.3084 120.225 55.304 121.028 55.3252 121.543C55.3509 122.165 55.3755 122.865 55.3986 123.631C55.4375 124.917 55.4725 126.39 55.502 127.993C55.7362 140.71 55.6293 161.647 54.4493 162.944C74.677 167.569 90.8432 167.188 108.531 162.19C106.555 160.018 107.521 129.996 108.095 115.782ZM55.0992 113.762C55.0474 113.116 54.9935 112.542 54.9393 112.033L56.0726 112.033C55.6132 112.633 55.3457 113.132 55.0992 113.762Z" fill="#CADFB9"/>
<path d="M108.417 108.419C108.164 109.274 107.871 110.098 107.541 110.892C107.864 111.696 108.075 112.364 108.211 113C108.332 110.154 108.417 108.419 108.417 108.419Z" fill="#E2A47B"/>
<path fill-rule="evenodd" clip-rule="evenodd" d="M33.5959 102.714C34.4209 103.436 43.7825 107.496 54.3351 108.419C54.5205 110.193 54.3665 110.997 53.5658 112.033L54.9393 112.033C54.9935 112.542 55.0474 113.116 55.0992 113.762C55.1242 114.075 55.1488 114.406 55.1726 114.754C55.2187 115.427 55.262 116.166 55.301 116.978C47.0549 113.176 42.1041 111.902 32.79 110.892C33.001 108.51 33.1726 106.839 33.4511 104.126L33.4512 104.124C33.4964 103.684 33.5444 103.216 33.5959 102.714ZM55.3139 119.409L55.301 116.978C55.3268 117.515 55.3207 118.408 55.3146 119.299L55.3139 119.409ZM55.3252 121.543L55.3139 119.409C55.3084 120.225 55.304 121.028 55.3252 121.543Z" fill="#8AA360"/>
<path d="M32.0677 121.733C31.9744 126.121 32.3129 129.19 33.2155 132.003C38.6188 131.389 45.8457 136.068 48.0892 140.502C50.3326 144.936 51.2811 149.695 52.4402 155.598C53.1488 159.208 53.7369 162.203 54.1828 162.86C54.2713 162.888 54.3601 162.916 54.4493 162.944C55.6293 161.647 55.7362 140.71 55.502 127.993C46.8045 124.102 41.228 122.819 32.0677 121.733Z" fill="#8AA360"/>
<path d="M32.431 115.076C32.3638 115.939 32.305 116.762 32.2551 117.549C41.5663 118.558 47.1568 119.832 55.3986 123.631C55.3755 122.865 55.3509 122.165 55.3252 121.543C46.607 117.639 41.6039 116.164 32.431 115.076Z" fill="#8AA360"/>
<path d="M129.921 114.887C120.748 115.975 116.387 117.451 107.669 121.354L107.859 116.599C116.105 112.797 120.036 111.713 129.35 110.703C129.642 111.654 129.85 113.982 129.921 114.887Z" fill="#26581A"/>
<path d="M107.581 128.2L107.773 123.358C115.251 119.873 121.013 118.577 130.404 117.549V122.494C121.041 123.549 116.074 124.88 107.581 128.2Z" fill="#26581A"/>
<path d="M137.587 93.6386C134.406 88.4884 128.854 90.189 128.475 96.1822C128.475 96.1822 128.685 98.3985 128.022 100.191C127.359 101.984 124.336 105.202 126.705 108.372C132.934 113.136 144.689 114.031 146.312 113.078C147.936 112.124 148.742 109.779 148.595 105.811C148.448 101.842 148.916 101.692 149.567 100.561C152.155 95.1422 148.299 92.4941 144.213 95.3617C144.625 90.7527 139.792 89.6923 137.587 93.6386Z" fill="#BFD29A"/>
<path d="M137.3 95.7076C135.64 90.756 128.974 91.6816 129.219 96.5541C129.464 101.427 126.502 104.39 127.443 105.421C128.384 106.452 146.71 110.038 147.193 109.574C147.677 109.11 146.822 104.958 148.506 100.98C150.19 97.0017 148.3 93.4586 143.654 96.9668C143.794 91.8938 139.649 91.2089 137.3 95.7076Z" fill="white"/>
<path d="M136.376 110.365C138.821 111.001 141.14 111.185 142.913 110.967C143.799 110.857 144.552 110.647 145.118 110.34C145.683 110.033 146.065 109.626 146.196 109.121C146.328 108.616 146.192 108.074 145.848 107.53C145.504 106.986 144.949 106.436 144.228 105.909C142.786 104.855 140.671 103.886 138.226 103.25C135.781 102.614 133.462 102.43 131.689 102.648C130.803 102.757 130.049 102.968 129.484 103.275C128.919 103.582 128.537 103.989 128.406 104.494C128.274 104.999 128.41 105.541 128.753 106.085C129.097 106.629 129.653 107.179 130.374 107.706C131.816 108.76 133.93 109.729 136.376 110.365Z" fill="#D78249" stroke="white" stroke-width="0.124119"/>
<path d="M133.667 99.655C134.069 99.6124 134.381 99.2516 134.572 98.7401C134.765 98.2247 134.843 97.537 134.765 96.7983C134.686 96.0597 134.465 95.4038 134.169 94.9404C133.874 94.4805 133.493 94.1934 133.091 94.2361C132.69 94.2788 132.377 94.6395 132.186 95.151C131.993 95.6665 131.915 96.3541 131.994 97.0928C132.072 97.8315 132.293 98.4873 132.59 98.9507C132.884 99.4106 133.266 99.6977 133.667 99.655Z" fill="#D78249" stroke="white" stroke-width="0.124119"/>
<path d="M139.143 100.472C139.534 100.574 139.954 100.347 140.313 99.9353C140.675 99.5209 140.99 98.9049 141.177 98.186C141.364 97.4671 141.389 96.7754 141.274 96.2372C141.161 95.703 140.905 95.3 140.515 95.1983C140.124 95.0967 139.704 95.3242 139.345 95.7354C138.983 96.1498 138.667 96.7658 138.48 97.4847C138.293 98.2036 138.269 98.8953 138.383 99.4335C138.497 99.9677 138.752 100.371 139.143 100.472Z" fill="#D78249" stroke="white" stroke-width="0.124119"/>
<path d="M143.755 101.481C144.082 101.717 144.556 101.658 145.04 101.406C145.528 101.151 146.046 100.692 146.481 100.091C146.917 99.4888 147.191 98.8534 147.28 98.3104C147.369 97.7715 147.277 97.3031 146.95 97.0663C146.623 96.8295 146.15 96.8888 145.665 97.1413C145.177 97.3957 144.659 97.8547 144.224 98.4564C143.788 99.0581 143.514 99.6936 143.425 100.237C143.336 100.775 143.428 101.244 143.755 101.481Z" fill="#D78249" stroke="white" stroke-width="0.124119"/>
<path d="M17.045 94.78C11.3722 92.6682 8.03475 97.4194 11.4155 102.383C11.4155 102.383 12.942 104.003 13.5199 105.825C14.0977 107.647 13.6876 112.043 17.5043 113.09C25.3457 113.026 35.1729 106.514 35.8688 104.764C36.5647 103.015 35.7611 100.669 33.208 97.6272C30.655 94.5853 30.9323 94.1793 30.7517 92.8869C29.4669 87.0206 24.7976 87.2983 23.3332 92.0709C20.8285 88.1799 16.3623 90.3111 17.045 94.78Z" fill="#BFD29A"/>
<path d="M18.0884 96.5889C13.7376 93.7003 9.04524 98.5236 12.2304 102.219C15.4155 105.914 14.8973 110.072 16.273 110.308C17.6486 110.544 34.3147 102.121 34.4117 101.458C34.5087 100.795 31.2836 98.0427 30.1703 93.8688C29.057 89.6949 25.3894 88.0591 23.8767 93.681C20.8721 89.5911 17.1799 91.5959 18.0884 96.5889Z" fill="white"/>
<path d="M26.3586 108.723C28.6792 107.723 30.6223 106.445 31.8876 105.184C32.5201 104.553 32.9856 103.925 33.243 103.336C33.5004 102.746 33.5519 102.19 33.3454 101.711C33.139 101.231 32.6993 100.887 32.0941 100.669C31.4889 100.451 30.7125 100.358 29.8199 100.384C28.0343 100.438 25.7705 100.972 23.4499 101.972C21.1294 102.971 19.1863 104.25 17.921 105.511C17.2884 106.141 16.823 106.769 16.5656 107.359C16.3081 107.948 16.2567 108.505 16.4631 108.984C16.6696 109.463 17.1092 109.808 17.7145 110.026C18.3196 110.243 19.096 110.337 19.9886 110.31C21.7742 110.257 24.0381 109.723 26.3586 108.723Z" fill="#D78249" stroke="white" stroke-width="0.124119"/>
<path d="M17.6462 101.933C17.9369 101.652 17.962 101.176 17.7989 100.655C17.6345 100.13 17.2739 99.5388 16.7584 99.004C16.2428 98.4692 15.6657 98.0872 15.1469 97.9037C14.6321 97.7215 14.1549 97.7291 13.8642 98.0094C13.5734 98.2896 13.5483 98.7663 13.7115 99.2874C13.8759 99.8125 14.2365 100.403 14.752 100.938C15.2675 101.473 15.8447 101.855 16.3634 102.038C16.8782 102.221 17.3555 102.213 17.6462 101.933Z" fill="#D78249" stroke="white" stroke-width="0.124119"/>
<path d="M22.4695 99.2145C22.8404 99.0547 23.0319 98.6175 23.0629 98.0723C23.0942 97.5229 22.965 96.843 22.6711 96.1608C22.3772 95.4786 21.9718 94.9176 21.5511 94.563C21.1335 94.211 20.6842 94.0499 20.3134 94.2097C19.9425 94.3695 19.751 94.8067 19.72 95.3519C19.6887 95.9012 19.8179 96.5812 20.1118 97.2634C20.4057 97.9456 20.8111 98.5065 21.2318 98.8612C21.6494 99.2131 22.0987 99.3742 22.4695 99.2145Z" fill="#D78249" stroke="white" stroke-width="0.124119"/>
<path d="M26.7275 97.1789C27.131 97.1649 27.4684 96.8273 27.6956 96.3307C27.9245 95.8303 28.0514 95.15 28.0257 94.4076C28 93.6652 27.8263 92.9952 27.5633 92.5119C27.3023 92.0322 26.9424 91.7187 26.5388 91.7327C26.1353 91.7467 25.7979 92.0843 25.5707 92.5809C25.3418 93.0813 25.2149 93.7617 25.2406 94.504C25.2663 95.2464 25.44 95.9164 25.703 96.3997C25.964 96.8794 26.3239 97.1929 26.7275 97.1789Z" fill="#D78249" stroke="white" stroke-width="0.124119"/>
<path d="M50.4317 172.251C49.7169 166.323 48.0499 158.433 55.6107 155.963C63.1715 153.493 70.2615 154.072 73.7649 157.448C77.2684 160.824 77.2346 166.817 76.0434 172.251C74.8521 177.685 68.0025 178.838 64.7266 178.735C60.2594 179.044 51.1464 178.179 50.4317 172.251Z" fill="#D8EAB4"/>
<path d="M86.5684 172.25C85.8537 166.322 84.1867 158.432 91.7474 155.962C99.3082 153.492 106.398 154.071 109.902 157.447C113.405 160.823 113.371 166.816 112.18 172.25C110.989 177.684 104.139 178.837 100.863 178.734C96.3961 179.043 87.2831 178.178 86.5684 172.25Z" fill="#D8EAB4"/>
<ellipse cx="56.7993" cy="162.814" rx="1.33133" ry="2.66267" transform="rotate(-20.6418 56.7993 162.814)" fill="#D78249"/>
<ellipse cx="63.2659" cy="162.052" rx="1.33133" ry="2.66267" fill="#D78249"/>
<ellipse cx="68.9717" cy="162.052" rx="1.33133" ry="2.66267" transform="rotate(21.3237 68.9717 162.052)" fill="#D78249"/>
<ellipse cx="92.9353" cy="162.815" rx="1.33133" ry="2.66267" transform="rotate(-13.05 92.9353 162.815)" fill="#D78249"/>
<ellipse cx="99.4016" cy="162.054" rx="1.33133" ry="2.66267" fill="#D78249"/>
<ellipse cx="105.487" cy="162.814" rx="1.33133" ry="2.66267" transform="rotate(12.0807 105.487 162.814)" fill="#D78249"/>
<path d="M100.278 83.0677C97.8011 81.8353 94.1945 81.9995 91.8192 84.2854C91.8197 85.7276 91.8712 87.0914 92.0393 88.2984C92.0817 88.6031 92.1316 88.8978 92.1899 89.1812C95.0615 85.5696 98.7534 86.2116 100.392 89.0207C100.511 88.5612 100.6 88.0773 100.657 87.576C100.816 86.1576 100.712 84.6008 100.278 83.0677Z" fill="url(#paint1_linear_6143_2469)"/>
<path d="M96.1851 93.1942C98.1723 93.3361 99.7359 91.5481 100.392 89.0207C98.7534 86.2116 95.0615 85.5696 92.1899 89.1812C92.6873 91.5964 93.8011 93.1942 96.1851 93.1942Z" fill="#93FDA4"/>
<path d="M101.964 90.2246L108.224 86.5327C106.705 85.752 105.869 85.2604 104.719 84.2854C104.658 84.2333 104.595 84.1799 104.532 84.1249C104.258 83.932 103.989 83.7446 103.725 83.5631C103.086 83.1234 102.475 82.7187 101.884 82.3562C101.612 82.19 101.345 82.0327 101.081 81.8849C100.284 81.4388 99.5158 81.08 98.7534 80.8279C98.3785 80.7038 98.0049 80.6056 97.6298 80.5354C96.2047 80.2686 94.7582 80.4069 93.1353 81.0751C90.6877 82.6439 90.3557 83.7992 90.4867 86.0511C90.6242 85.7963 90.7725 85.5556 90.9304 85.3288C91.2004 84.9412 91.4986 84.594 91.8192 84.2854C94.1945 81.9995 97.8011 81.8353 100.278 83.0677C102.445 84.1455 103.748 86.2916 102.607 89.0207C102.444 89.4106 102.231 89.8123 101.964 90.2246Z" fill="black"/>
<path d="M103.725 83.5631C103.989 83.7446 104.258 83.932 104.532 84.1249C104.595 84.1799 104.658 84.2333 104.719 84.2854C105.364 83.7837 105.55 83.5534 105.816 83.1618C105.028 83.4467 104.578 83.5691 103.725 83.5631Z" fill="black"/>
<path d="M103.408 80.754C102.664 81.346 102.048 81.6855 101.081 81.8849C101.345 82.0327 101.612 82.19 101.884 82.3562C102.612 81.926 103.002 81.4581 103.408 80.754Z" fill="black"/>
<path d="M99.1547 78.7476C98.6557 79.5706 98.3312 79.9744 97.6298 80.5354C98.0049 80.6056 98.3785 80.7038 98.7534 80.8279C99.1042 80.0971 99.1756 79.6349 99.1547 78.7476Z" fill="black"/>
<ellipse cx="93.5169" cy="84.5212" rx="2.24725" ry="1.33359" transform="rotate(-32.331 93.5169 84.5212)" fill="white"/>
<ellipse cx="96.3665" cy="87.6406" rx="1.80999" ry="1.19619" transform="rotate(89.0718 96.3665 87.6406)" fill="white"/>
<circle cx="99.397" cy="91.0288" r="0.563981" fill="white"/>
<path d="M59.2295 83.0677C61.7067 81.8353 65.3133 81.9995 67.6886 84.2854C67.6881 85.7276 67.6367 87.0914 67.4685 88.2984C67.4261 88.6031 67.3762 88.8978 67.3179 89.1812C64.4463 85.5696 60.7544 86.2116 59.116 89.0207C58.9968 88.5612 58.9075 88.0773 58.8512 87.576C58.6917 86.1576 58.7959 84.6008 59.2295 83.0677Z" fill="url(#paint2_linear_6143_2469)"/>
<path d="M63.3227 93.1942C61.3355 93.3361 59.7719 91.5481 59.116 89.0207C60.7544 86.2116 64.4463 85.5696 67.3179 89.1812C66.8205 91.5964 65.7068 93.1942 63.3227 93.1942Z" fill="#93FDA4"/>
<path d="M57.5441 90.2246L51.2839 86.5327C52.8025 85.752 53.6389 85.2604 54.7887 84.2854C54.8501 84.2333 54.9124 84.1799 54.9758 84.1249C55.2499 83.932 55.5186 83.7446 55.7824 83.5631C56.4217 83.1234 57.0327 82.7187 57.6243 82.3562C57.8956 82.19 58.1629 82.0327 58.4269 81.8849C59.2241 81.4388 59.992 81.08 60.7544 80.8279C61.1293 80.7038 61.5029 80.6056 61.878 80.5354C63.3031 80.2686 64.7496 80.4069 66.3725 81.0751C68.8201 82.6439 69.1521 83.7992 69.0211 86.0511C68.8836 85.7963 68.7353 85.5556 68.5774 85.3288C68.3074 84.9412 68.0093 84.594 67.6886 84.2854C65.3133 81.9995 61.7067 81.8353 59.2295 83.0677C57.0629 84.1455 55.7603 86.2916 56.901 89.0207C57.064 89.4106 57.2768 89.8123 57.5441 90.2246Z" fill="black"/>
<path d="M55.7824 83.5631C55.5186 83.7446 55.2499 83.932 54.9758 84.1249C54.9124 84.1799 54.8501 84.2333 54.7887 84.2854C54.1441 83.7837 53.9579 83.5534 53.6916 83.1618C54.4794 83.4467 54.9294 83.5691 55.7824 83.5631Z" fill="black"/>
<path d="M56.0994 80.754C56.8437 81.346 57.4593 81.6855 58.4269 81.8849C58.1629 82.0327 57.8956 82.19 57.6243 82.3562C56.8953 81.926 56.506 81.4581 56.0994 80.754Z" fill="black"/>
<path d="M60.3531 78.7476C60.8521 79.5706 61.1767 79.9744 61.878 80.5354C61.5029 80.6056 61.1293 80.7038 60.7544 80.8279C60.4036 80.0971 60.3322 79.6349 60.3531 78.7476Z" fill="black"/>
<ellipse cx="2.24725" cy="1.33359" rx="2.24725" ry="1.33359" transform="matrix(-0.844973 -0.534809 -0.534809 0.844973 68.6021 84.5962)" fill="white"/>
<ellipse cx="1.80999" cy="1.19619" rx="1.80999" ry="1.19619" transform="matrix(-0.0161988 0.999869 0.999869 0.0161988 61.9741 85.8115)" fill="white"/>
<circle cx="0.563981" cy="0.563981" r="0.563981" transform="matrix(-1 0 0 1 60.6743 90.4648)" fill="white"/>
</g>
<defs>
<linearGradient id="paint0_linear_6143_2469" x1="81.2597" y1="48.231" x2="81.1056" y2="124.836" gradientUnits="userSpaceOnUse">
<stop stop-color="#CADE93"/>
<stop offset="0.880022" stop-color="#345C29"/>
</linearGradient>
<linearGradient id="paint1_linear_6143_2469" x1="95.6233" y1="86.8537" x2="99.7165" y2="81.3961" gradientUnits="userSpaceOnUse">
<stop offset="0.272637" stop-color="#56E86D"/>
<stop offset="1" stop-color="#4AA859"/>
</linearGradient>
<linearGradient id="paint2_linear_6143_2469" x1="63.8845" y1="86.8537" x2="59.7913" y2="81.3961" gradientUnits="userSpaceOnUse">
<stop offset="0.272637" stop-color="#56E86D"/>
<stop offset="1" stop-color="#4AA859"/>
</linearGradient>
</defs>
</svg>
