<svg width="160" height="160" viewBox="0 0 160 160" fill="none" xmlns="http://www.w3.org/2000/svg">
<mask id="mask0_6143_3508" style="mask-type:alpha" maskUnits="userSpaceOnUse" x="0" y="0" width="160" height="160">
<circle cx="80" cy="80" r="80" fill="#D9D9D9"/>
</mask>
<g mask="url(#mask0_6143_3508)">
<rect x="-48.6953" y="-11.5942" width="252.821" height="293.662" rx="15.8416" fill="#E4D1FF"/>
<path d="M51.4145 50.9281C45.4429 69.3092 54.8787 80.0274 63.7271 86.1644C79.0735 115.708 108.421 92.0659 143.403 149.521C143.403 169.02 30.9409 180.458 7.22846 156.125C-16.8301 131.438 -20.2411 61.3467 2.6684 28.7565C21.7677 1.58664 61.4782 19.9508 51.4145 50.9281Z" fill="#65DDEB"/>
<mask id="mask1_6143_3508" style="mask-type:alpha" maskUnits="userSpaceOnUse" x="-13" y="15" width="157" height="155">
<path d="M51.4145 50.9281C45.4429 69.3092 54.8787 80.0274 63.7271 86.1644C79.0735 115.708 108.421 92.0659 143.403 149.521C143.403 169.02 30.9409 180.458 7.22846 156.125C-16.8301 131.438 -20.2411 61.3467 2.6684 28.7565C21.7677 1.58664 61.4782 19.9508 51.4145 50.9281Z" fill="#65DDEB"/>
</mask>
<g mask="url(#mask1_6143_3508)">
<path d="M3.61138 54.0727C0.718061 43.5058 -11.327 60.2577 -16.9878 69.9545L-13.5284 17.9062L74.2147 20.2649C71.1222 32.5825 64.9372 59.765 64.9372 69.9545C64.9372 82.6914 47.9546 73.5712 42.6083 64.451C37.2619 55.3307 30.8149 69.9545 19.8077 80.49C8.80048 91.0255 7.22803 67.2814 3.61138 54.0727Z" fill="#58D4E2"/>
<path d="M32.3874 49.1982C37.7338 57.375 50.5755 53.3914 55.6598 49.1982C51.3103 24.4997 17.7636 -8.98263 -10.5406 38.82C-12.8782 42.0285 7.38536 28.7563 9.58679 33.9454C12.7317 37.4048 6.25349 48.6954 2.03899 63.6649C-24.6299 158.39 77.0976 173.475 131.295 169.177C123.485 167.866 100.003 164.176 68.5539 159.899C29.2425 154.553 -2.12452 121.653 11.3165 67.7532C26.8838 5.3267 27.5195 41.7533 32.3874 49.1982Z" fill="#43BBD3"/>
<path d="M8.3292 133.797C22.9435 159.06 78.9325 171.693 102.086 170.082C96.9856 171.494 71.5419 170.308 42.9232 160.528C-0.0966857 145.828 -7.64848 106.176 8.3292 133.797Z" fill="#B0E4EF"/>
<path d="M1.09585 121.846C1.09585 122.541 0.442056 123.104 0.00316966 123.104C-0.435716 123.104 -0.791504 122.541 -0.791504 121.846C-0.791504 121.151 -0.435716 120.588 0.00316966 120.588C0.442056 120.588 1.09585 121.151 1.09585 121.846Z" fill="#B0E4EF"/>
<path d="M11.6311 149.678C-8.49633 131.312 -11.1695 113.984 -13.2137 71.999L-14.6289 177.511L75.4728 172.007C62.5787 172.217 31.7585 168.045 11.6311 149.678Z" fill="#43BBD3"/>
<path d="M20.4366 68.2252C10.4987 101.435 24.5775 118.963 32.8591 123.576C39.2537 128.136 47.8288 133.073 30.9721 116.342C9.9012 95.4287 32.0591 29.3856 20.4366 68.2252Z" fill="#43BBD3"/>
</g>
<path d="M52.2735 8.00515C16.1859 7.6711 1.27972 23.8157 -2.36426 37.5621C0.420285 33.0287 9.92065 23.7653 19.2767 24.2899C30.9718 24.9457 30.1364 33.0587 34.3132 42.2449C38.4901 51.4312 39.3254 49.761 49.3498 43.9152C59.3741 38.0694 57.2857 51.4312 69.8162 49.761C82.3466 48.0908 76.9167 44.3327 84.8527 40.5747C92.7886 36.8167 109.078 48.9259 111.584 40.5747C114.09 32.2235 97.3831 8.42271 52.2735 8.00515Z" fill="#F7FCFA"/>
<mask id="mask2_6143_3508" style="mask-type:alpha" maskUnits="userSpaceOnUse" x="-3" y="8" width="115" height="42">
<path d="M52.2735 8.00515C16.1859 7.6711 1.27972 23.8157 -2.36426 37.5621C0.420285 33.0287 9.92065 23.7653 19.2767 24.2899C30.9718 24.9457 30.1364 33.0587 34.3132 42.2449C38.4901 51.4312 39.3254 49.761 49.3498 43.9152C59.3741 38.0694 57.2857 51.4312 69.8162 49.761C82.3466 48.0908 76.9167 44.3327 84.8527 40.5747C92.7886 36.8167 109.078 48.9259 111.584 40.5747C114.09 32.2235 97.3831 8.42271 52.2735 8.00515Z" fill="#F7FCFA"/>
</mask>
<g mask="url(#mask2_6143_3508)">
<path d="M36.6329 20.4224C30.9721 11.3651 12.0502 17.8016 3.29688 22.1521C17.3441 12.4553 52.1374 -4.57965 78.932 4.85509C112.425 16.6485 108.337 17.2775 97.8015 30.0144C87.266 42.7513 74.5291 24.1963 61.006 32.5303C47.4829 40.8643 43.709 31.7441 36.6329 20.4224Z" fill="#EDF8FA"/>
</g>
<path d="M141.312 161.067C138.686 163.868 128.973 169.342 111.122 168.825C88.8079 168.178 79.8843 168.656 78.7278 166.343C78.6678 166.223 78.6133 166.144 78.5717 166.094C78.4504 166.023 78.4785 165.983 78.5717 166.094C78.9635 166.324 80.9134 166.883 87.2596 163.757C96.4478 159.232 67.7198 168.669 52.625 152.506C37.5302 136.343 29.8104 142.547 22.5911 138.668C15.3719 134.789 27.8415 138.668 31.123 136.729C34.4044 134.789 20.5957 124.148 16.6579 115.097C12.7202 106.046 24.491 120.983 33.6791 121.629C41.0296 122.147 108.497 148.136 141.312 161.067Z" fill="#FBFEFF"/>
<mask id="mask3_6143_3508" style="mask-type:alpha" maskUnits="userSpaceOnUse" x="15" y="112" width="127" height="57">
<path d="M141.312 161.067C138.686 163.868 128.973 169.342 111.122 168.825C88.8079 168.178 79.8843 168.656 78.7278 166.343C78.6678 166.223 78.6133 166.144 78.5717 166.094C78.4504 166.023 78.4785 165.983 78.5717 166.094C78.9635 166.324 80.9134 166.883 87.2596 163.757C96.4478 159.232 67.7198 168.669 52.625 152.506C37.5302 136.343 29.8104 142.547 22.5911 138.668C15.3719 134.789 27.8415 138.668 31.123 136.729C34.4044 134.789 20.5957 124.148 16.6579 115.097C12.7202 106.046 24.491 120.983 33.6791 121.629C41.0296 122.147 108.497 148.136 141.312 161.067Z" fill="#FBFEFF"/>
</mask>
<g mask="url(#mask3_6143_3508)">
<path d="M33.9605 138.357C27.1675 138.609 22.1146 136.575 20.4373 135.527C18.498 134.635 14.462 133.388 13.833 135.527C13.0468 138.2 71.6992 169.334 76.4165 169.649C80.1904 169.9 86.4805 163.411 94.1855 161.944C91.6696 161.262 79.09 160.308 69.6552 159.428C57.8618 158.327 42.4517 138.042 33.9605 138.357Z" fill="#EDF8FA"/>
</g>
<path d="M141.647 137.826C139.836 143.676 142.119 147.929 143.487 149.324C138.281 144.434 126.558 133.081 121.305 126.792C114.74 118.931 123.269 108.821 127.021 117.633C130.772 126.444 129.502 122.408 134.674 125.467C139.847 128.525 134.955 135.025 136.063 136.097C137.171 137.168 143.911 130.512 141.647 137.826Z" fill="#FBFEFF"/>
<mask id="mask4_6143_3508" style="mask-type:alpha" maskUnits="userSpaceOnUse" x="118" y="114" width="26" height="36">
<path d="M141.647 137.826C139.835 143.676 142.118 147.929 143.486 149.324C138.281 144.434 126.557 133.081 121.305 126.792C114.74 118.931 123.269 108.821 127.02 117.633C130.772 126.444 129.501 122.408 134.674 125.467C139.846 128.525 134.954 135.025 136.062 136.097C137.171 137.168 143.911 130.512 141.647 137.826Z" fill="#FBFEFF"/>
</mask>
<g mask="url(#mask4_6143_3508)">
<path d="M126.106 114.612C124.638 115.451 122.3 118.166 124.69 122.318C127.678 127.507 133.182 123.418 133.182 130.809C133.182 136.94 133.398 143.07 135.267 145.072C136.69 145.579 137.335 145.782 136.641 145.747C136.105 145.72 135.651 145.483 135.267 145.072C130.242 143.28 115.517 137.683 115.885 125.305C116.262 112.6 119.711 109.214 121.388 109.109L126.106 114.612Z" fill="#EDF8FA"/>
</g>
<path d="M147.932 157.533C128.43 109.276 36.5764 90.626 30.3899 93.706C20.5599 98.6001 17.9996 102.917 16.4773 112.107C15.6813 116.913 70.2401 170.507 146.222 160.385C147.585 160.203 148.447 158.808 147.932 157.533Z" fill="url(#paint0_linear_6143_3508)"/>
<mask id="mask5_6143_3508" style="mask-type:alpha" maskUnits="userSpaceOnUse" x="16" y="93" width="133" height="69">
<path d="M147.932 157.533C128.43 109.276 36.5764 90.626 30.3899 93.706C20.5599 98.6001 17.9996 102.917 16.4773 112.107C15.6813 116.913 70.2401 170.507 146.222 160.385C147.585 160.203 148.447 158.808 147.932 157.533Z" fill="#492F80"/>
</mask>
<g mask="url(#mask5_6143_3508)">
<path d="M90.5684 153.924C60.6918 147.653 33.2262 126.668 17.292 114.927C23.0052 127.716 43.7722 155.213 81.1337 162.887C118.495 170.56 142.722 163.411 150.479 159.427C138.79 159.532 125.477 161.25 90.5684 153.924Z" fill="#433078"/>
<path d="M12.8415 114.138C38.504 128.73 72.4376 142.442 104.83 138.039V124.201C46.0204 100.143 -12.8209 99.5453 12.8415 114.138Z" fill="#1F1536" fill-opacity="0.6"/>
<path d="M18.5498 96.057C48.4894 89.6414 114.155 118.386 149.85 152.036C144.556 142.182 120.382 107.379 100.003 87.8803C74.5293 63.5072 -18.8746 104.077 18.5498 96.057Z" fill="#FFEFEF" fill-opacity="0.3"/>
</g>
<path d="M63.8034 130.773C63.1944 124.817 64.1882 119.671 67.0054 116.215C69.8227 112.759 79.4995 112.46 82.9138 116.215C86.3281 119.97 86.6379 125.313 85.623 130.773C84.6081 136.232 78.7726 137.39 75.9818 137.287C72.176 137.597 64.4123 136.729 63.8034 130.773Z" fill="#816551"/>
<path d="M91.1191 133.743C89.7706 127.909 90.1135 122.68 92.4767 118.899C94.8399 115.118 104.404 113.612 108.26 116.911C112.117 120.21 113.092 125.472 112.768 131.016C112.443 136.559 106.798 138.438 104.016 138.684C100.279 139.467 92.4676 139.576 91.1191 133.743Z" fill="#816551"/>
<path d="M49.2537 65.0473C57.5747 64.7769 63.7415 73.4522 65.9692 78.9815C67.2287 94.4187 65.2671 121.626 47.3439 106.959C29.4207 92.2908 26.1087 84.0837 29.5012 74.1846C31.6697 67.8572 43.1206 65.2465 49.2537 65.0473Z" fill="#816551"/>
<path d="M123.848 70.4616C115.571 72.4687 111.235 82.4062 107.343 87.124C115.58 92.713 127.398 85.2775 130.015 81.4773C131.555 79.2416 131.798 76.3573 131.265 74.9787C130.402 72.6367 128.052 69.4421 123.848 70.4616Z" fill="#A3856C"/>
<path d="M62.5478 121.227C41.475 112.775 54.8173 64.1195 62.5476 47.4731H101.858C125.744 79.3664 123.289 109.543 114.09 117.44C104.891 125.338 83.6205 129.68 62.5478 121.227Z" fill="#B3937A"/>
<path d="M39.7697 97.6131C44.1963 87.6816 56.8232 82.9629 59.0669 84.4339C61.3105 85.9049 54.6682 103.017 50.2654 105.989C48.1217 107.437 44.3806 106.702 43.2914 105.989C41.432 104.82 38.0059 101.57 39.7697 97.6131Z" fill="#A3856C"/>
<path d="M99.595 52.0772C96.994 50.9932 96.6632 48.1165 97.8648 44.2553C99.2856 39.6899 102.953 39.2749 105.553 40.3589C108.154 41.4429 110.124 44.3972 107.284 48.1808C104.712 51.6062 102.196 53.1611 99.595 52.0772Z" fill="#C2A28A"/>
<path d="M54.0761 65.5768C57.2301 59.7421 58.037 47.2324 59.8906 43.8113C61.7441 40.3901 70.5627 38.1995 78.7267 37.2452C86.6294 36.3215 95.8664 34.572 99.9242 38.8242C103.982 43.0763 107.887 51.7078 113.712 60.5275C98.8782 57.8047 68.9835 62.5015 54.0761 65.5768Z" fill="#4FA6CC"/>
<path d="M97.1601 63.7816C107.853 65.1653 118.23 62.7195 119.332 60.0076C120.967 55.9821 114.736 56.3244 109.111 56.0766C94.9233 55.4515 57.4662 60.5615 55.2974 62.405C52.1525 65.0782 48.5712 65.1968 47.9422 67.87C47.3132 70.5432 55.1402 74.6703 64.2604 69.4812C73.3807 64.2921 83.7942 62.0519 97.1601 63.7816Z" fill="#83C0DB"/>
<path d="M84.6782 74.2138C84.6076 75.2201 84.1205 73.5589 82.83 73.4594C81.8661 73.3851 81.1171 74.9512 81.1877 73.9448C81.2582 72.9384 82.0968 72.1828 83.0607 72.257C84.0246 72.3313 84.7487 73.2074 84.6782 74.2138Z" fill="#3F3D3B"/>
<ellipse cx="1.25508" cy="1.64405" rx="1.25508" ry="1.64405" transform="matrix(0.997044 0.0768343 -0.0699306 0.997552 95.8726 70.6914)" fill="#3F3D3B"/>
<path d="M91.0124 77.1475C91.1495 76.9405 91.3797 76.8141 91.628 76.8096L92.6505 76.7909C92.9424 76.7856 93.2113 76.9491 93.3408 77.2109L94.3673 79.2849C94.4168 79.3848 94.4435 79.4945 94.4455 79.6059L94.4705 80.9769C94.4781 81.3938 94.1464 81.7379 93.7295 81.7455L90.496 81.8045C90.0791 81.8121 89.735 81.4804 89.7274 81.0635L89.6966 79.3756C89.6938 79.2226 89.7375 79.0725 89.822 78.9449L91.0124 77.1475Z" fill="white"/>
<path d="M93.7871 75.019C93.8295 75.6983 93.1677 76.0061 91.9903 76.6746C90.9336 76.4176 89.6835 75.9203 89.6411 75.241C89.5988 74.5616 90.508 74.2749 91.7027 74.2005C92.8973 74.126 93.7448 74.3396 93.7871 75.019Z" fill="#3F3D3B"/>
<path d="M91.3919 76.0887C90.7607 78.3526 89.4976 79.1408 86.3794 80.0982" stroke="#3F3D3B" stroke-width="1.50984" stroke-linecap="round"/>
<path d="M92.1664 76.3044C93.5956 78.3903 94.0247 78.3638 96.1972 78.6589" stroke="#3F3D3B" stroke-width="1.50984" stroke-linecap="round"/>
<path d="M64.1687 56.6061C61.794 57.8625 59.1543 56.5322 56.5284 53.5786C53.4235 50.0862 55.1129 47.2575 57.4875 46.0011C59.8622 44.7447 63.4816 44.9536 65.1278 49.0286C66.6182 52.7179 66.5433 55.3496 64.1687 56.6061Z" fill="#C2A28A"/>
<path d="M30.1371 57.9858C36.7094 60.9721 35.8351 49.7192 32.9203 45.7208C32.7464 45.4822 32.4057 45.6395 32.4153 45.9345C32.6114 51.9687 27.3494 56.7192 30.1371 57.9858Z" fill="#F7FCFA"/>
<path d="M119.973 47.7829C123.76 45.9467 119.198 41.6153 115.742 39.1583C115.335 38.869 114.789 39.1662 114.812 39.665C115.001 43.7089 116.203 49.6108 119.973 47.7829Z" fill="#F7FCFA"/>
<path d="M27.6696 43.3801C29.3543 43.8294 29.2424 40.5514 28.9006 38.3142C28.8581 38.0365 28.5071 37.9666 28.3626 38.2074C27.2523 40.0575 25.9944 42.9334 27.6696 43.3801Z" fill="#F7FCFA"/>
<path d="M37.634 162.791C43.2547 169.226 49.999 166.189 57.075 169.963C47.027 169.334 37.4333 168.797 24.586 164.936C8.52699 160.11 -29.6133 138.126 -7.03022 132.227C15.5528 126.329 0.999306 149.922 18.5639 149.922C36.1285 149.922 30.6082 154.748 37.634 162.791Z" fill="#FBFEFF"/>
<mask id="mask6_6143_3508" style="mask-type:alpha" maskUnits="userSpaceOnUse" x="-14" y="131" width="72" height="39">
<path d="M37.634 162.791C43.2547 169.226 49.999 166.189 57.075 169.963C47.027 169.334 37.4333 168.797 24.586 164.936C8.52699 160.11 -29.6133 138.126 -7.03022 132.227C15.5528 126.329 0.999306 149.922 18.5639 149.922C36.1285 149.922 30.6082 154.748 37.634 162.791Z" fill="#FBFEFF"/>
</mask>
<g mask="url(#mask6_6143_3508)">
<path d="M-10.0687 132.067C-7.44795 131.647 0.617123 128.962 2.66818 136.627C5.65584 147.791 13.3609 154.396 25.3116 154.71C35.4494 154.977 33.932 167.578 41.1097 171.683C46.5674 172.656 49.0217 173.064 45.9107 172.951C43.9547 172.879 42.3932 172.417 41.1097 171.683C23.9464 168.62 -22.9199 159.961 -19.8179 144.332C-16.5472 127.853 -11.9557 129.289 -10.0687 132.067Z" fill="#EDF8FA"/>
</g>
<path d="M8.01631 106.566C11.9146 105.769 10.9724 116.029 16.72 120.219C16.9561 120.391 16.881 120.77 16.5898 120.795C13.4024 121.069 8.18618 120.196 6.29551 118.519C3.70902 116.225 8.00589 117.271 7.98732 115.759C7.96876 114.248 -0.74937 113.497 2.15022 109.743C4.87075 106.222 6.85489 111.217 7.85731 110.846C8.59465 110.573 4.47112 107.292 8.01631 106.566Z" fill="#FBFEFF"/>
<path d="M52.0263 81.6266C49.8652 83.5913 51.617 84.7373 52.763 85.0648C51.5351 85.2285 49.1776 86.1944 49.5705 88.7485C49.9634 91.3025 52.5175 90.3038 53.7454 89.4852C53.1723 90.5494 52.7139 92.6287 55.4645 92.4322C58.215 92.2357 57.5928 90.3857 56.9379 89.4852C58.1659 89.9764 60.769 90.5167 61.3584 88.7485C61.9478 86.9803 59.3119 86.5382 57.9203 86.5382C59.0663 86.0471 60.8673 84.5736 58.9026 82.6089C56.9379 80.6442 55.7919 82.9364 55.4645 84.328C55.2189 82.6089 54.1874 79.662 52.0263 81.6266Z" fill="url(#paint1_radial_6143_3508)"/>
<path d="M57.2153 84.4219C54.4419 85.3377 55.5762 87.0972 56.49 87.8625C55.3016 87.5126 52.755 87.4361 52.0752 89.9292C51.3953 92.4223 54.1348 92.5487 55.5895 92.3003C54.6331 93.0394 53.3686 94.7525 55.9613 95.6917C58.554 96.631 58.7381 94.6878 58.506 93.5988C59.428 94.547 61.5864 96.0993 62.844 94.7237C64.1016 93.3481 61.8734 91.8722 60.6021 91.3062C61.8488 91.3236 64.0934 90.71 63.0976 88.1161C62.1019 85.5222 60.1227 87.15 59.2575 88.2882C59.7324 86.6178 59.9887 83.5061 57.2153 84.4219Z" fill="url(#paint2_linear_6143_3508)"/>
<path d="M56.9692 90.9546C56.3133 93.8006 58.4059 93.7438 59.5342 93.3596C58.6186 94.194 57.232 96.3314 59.0107 98.206C60.7893 100.081 62.3186 97.8043 62.8609 96.4318C62.9966 97.6328 63.8051 99.6026 65.9531 97.8734C68.1012 96.1442 66.5355 94.9787 65.4841 94.6121C66.773 94.3158 69.2199 93.276 68.6963 91.4872C68.1728 89.6984 65.755 90.8376 64.6116 91.6308C65.2733 90.574 65.9132 88.3368 63.1791 87.8423C60.445 87.3478 60.8098 89.8844 61.3339 91.2145C60.1523 89.942 57.6251 88.1085 56.9692 90.9546Z" fill="url(#paint3_radial_6143_3508)"/>
<path d="M63.7802 90.3452C61.4298 92.0789 63.0554 93.3979 64.162 93.8406C62.9238 93.8781 60.48 94.5983 60.61 97.1791C60.7401 99.7599 63.3828 99.0272 64.6879 98.3383C64.0092 99.3384 63.3408 101.36 66.097 101.445C68.8533 101.531 68.4233 99.6269 67.8638 98.6643C69.0351 99.2783 71.5695 100.082 72.3364 98.3828C73.1032 96.684 70.5262 95.9751 69.1419 95.833C70.3321 95.4615 72.2741 94.1796 70.5203 92.0246C68.7665 89.8696 67.3924 92.0327 66.9246 93.3836C66.8558 91.6484 66.1307 88.6115 63.7802 90.3452Z" fill="url(#paint4_linear_6143_3508)"/>
<path d="M66.0378 95.5426C65.4597 98.4055 67.55 98.2916 68.6674 97.8768C67.7749 98.7358 66.4472 100.91 68.2762 102.736C70.1053 104.561 71.572 102.244 72.0767 100.857C72.2451 102.054 73.107 104.001 75.2071 102.214C77.3072 100.427 75.7103 99.3043 74.6493 98.9665C75.9296 98.6352 78.3472 97.529 77.7751 95.7552C77.203 93.9813 74.8171 95.186 73.6957 96.0101C74.3284 94.9357 74.907 92.6819 72.1605 92.2621C69.4139 91.8424 69.8477 94.3681 70.408 95.6834C69.1921 94.4436 66.6158 92.6797 66.0378 95.5426Z" fill="url(#paint5_radial_6143_3508)"/>
<path d="M71.864 95.2222C70.1715 97.6025 72.1274 98.3487 73.3169 98.4242C72.1521 98.846 70.0548 100.292 70.9833 102.704C71.9118 105.115 74.1941 103.595 75.2192 102.534C74.8863 103.695 74.8818 105.825 77.5272 105.046C80.1726 104.268 79.1702 102.593 78.3384 101.853C79.6428 102.071 82.3013 102.044 82.5001 100.19C82.6989 98.3372 80.0293 98.4674 78.6697 98.7641C79.6847 98.0399 81.13 96.2163 78.7916 94.7157C76.4532 93.2151 75.8223 95.6989 75.7991 97.1284C75.1926 95.5012 73.5565 92.842 71.864 95.2222Z" fill="url(#paint6_linear_6143_3508)"/>
<path d="M75.1009 101.696C76.2577 104.378 77.9103 103.093 78.592 102.115C78.3483 103.33 78.4967 105.873 81.04 106.331C83.5834 106.788 83.4677 104.048 83.092 102.621C83.9126 103.508 85.7305 104.617 86.4374 101.952C87.1443 99.2861 85.1925 99.2741 84.1282 99.6013C84.9913 98.5993 86.3473 96.3124 84.8661 95.181C83.385 94.0496 82.1113 96.3993 81.6596 97.7156C81.567 96.4722 80.7579 94.2905 78.2619 95.5111C75.7659 96.7317 77.5619 98.5597 78.772 99.3211C77.0663 98.9954 73.944 99.0145 75.1009 101.696Z" fill="url(#paint7_radial_6143_3508)"/>
<path d="M81.49 97.9117C80.6226 100.701 82.7136 100.801 83.8675 100.502C82.892 101.266 81.3491 103.293 82.9822 105.296C84.6154 107.298 86.311 105.143 86.9547 103.815C87 105.023 87.6585 107.048 89.9301 105.484C92.2017 103.921 90.7278 102.642 89.7069 102.197C91.0143 101.998 93.5322 101.145 93.1442 99.3218C92.7562 97.4988 90.2599 98.4536 89.0602 99.1588C89.7992 98.1546 90.605 95.9717 87.9157 95.2737C85.2263 94.5757 85.4 97.1324 85.823 98.4981C84.74 97.1406 82.3573 95.1228 81.49 97.9117Z" fill="url(#paint8_linear_6143_3508)"/>
<path d="M87.0056 102.022C88.1765 104.698 89.8223 103.404 90.4988 102.423C90.2615 103.639 90.4233 106.182 92.969 106.626C95.5147 107.069 95.3846 104.33 95.0014 102.905C95.8266 103.788 97.6503 104.887 98.3433 102.218C99.0362 99.549 97.0843 99.5472 96.0218 99.88C96.8796 98.8734 98.2236 96.5795 96.7365 95.4559C95.2494 94.3323 93.9881 96.6886 93.5433 98.0073C93.4442 96.7644 92.6236 94.5869 90.1341 95.8206C87.6445 97.0543 89.4501 98.8728 90.6641 99.6279C88.9567 99.3112 85.8346 99.3467 87.0056 102.022Z" fill="url(#paint9_radial_6143_3508)"/>
<path d="M92.4185 98.4019C92.4611 101.256 94.4412 100.798 95.4259 100.212C94.7494 101.188 93.9299 103.504 96.0637 104.957C98.1976 106.41 99.1206 103.933 99.3153 102.513C99.7263 103.638 100.958 105.37 102.599 103.298C104.24 101.226 102.475 100.412 101.387 100.263C102.546 99.7304 104.633 98.2615 103.714 96.6484C102.796 95.0352 100.76 96.5937 99.857 97.5746C100.239 96.4341 100.324 94.1666 97.604 94.2206C94.8836 94.2745 95.8259 96.6349 96.6372 97.8084C95.2132 96.8171 92.3758 95.5479 92.4185 98.4019Z" fill="url(#paint10_linear_6143_3508)"/>
<path d="M101.057 102.432C103.545 103.963 104.16 101.962 104.156 100.77C104.654 101.904 106.236 103.901 108.581 102.815C110.926 101.729 109.258 99.5521 108.13 98.5996C109.312 98.8548 111.437 98.7183 110.485 96.1303C109.533 93.5423 107.928 94.6533 107.245 95.5324C107.376 94.2164 107.172 91.5655 105.31 91.4899C103.448 91.4143 103.755 94.0694 104.141 95.4063C103.351 94.4416 101.436 93.1202 100.093 95.5529C98.7508 97.9855 101.271 98.4506 102.699 98.379C101.115 99.092 98.5703 100.901 101.057 102.432Z" fill="url(#paint11_radial_6143_3508)"/>
<path d="M102.896 96.0869C103.787 98.8682 105.556 97.7493 106.33 96.8423C105.969 98.0275 105.871 100.573 108.358 101.275C110.845 101.977 110.995 99.2383 110.759 97.7815C111.49 98.7442 113.192 100.024 114.154 97.4393C115.116 94.8549 113.174 94.6539 112.083 94.8764C113.04 93.9627 114.611 91.818 113.246 90.5484C111.882 89.2788 110.386 91.4941 109.809 92.7604C109.837 91.5139 109.243 89.264 106.641 90.2371C104.038 91.2101 105.649 93.2035 106.779 94.0785C105.113 93.5891 102.004 93.3056 102.896 96.0869Z" fill="url(#paint12_linear_6143_3508)"/>
<path d="M108.319 95.1675C110.611 96.9778 111.455 95.062 111.591 93.8778C111.953 95.0623 113.292 97.2299 115.747 96.4242C118.203 95.6184 116.799 93.2623 115.791 92.185C116.934 92.5761 119.061 92.6879 118.416 90.0067C117.772 87.3254 116.049 88.242 115.268 89.0355C115.551 87.7437 115.658 85.0872 113.817 84.7953C111.977 84.5033 111.972 87.176 112.2 88.5489C111.528 87.4987 109.779 85.9633 108.163 88.2231C106.546 90.4829 108.995 91.2382 110.422 91.3334C108.766 91.8571 106.028 93.3571 108.319 95.1675Z" fill="url(#paint13_radial_6143_3508)"/>
<path d="M109.566 86.1287C109.547 89.0493 111.577 88.5369 112.594 87.9156C111.883 88.9298 110.997 91.3184 113.142 92.7594C115.287 94.2004 116.282 91.645 116.512 90.1872C116.906 91.3296 118.125 93.0753 119.844 90.9188C121.563 88.7623 119.78 87.9669 118.674 87.8387C119.867 87.2681 122.028 85.719 121.126 84.0877C120.225 82.4564 118.114 84.0961 117.172 85.1198C117.587 83.944 117.723 81.6211 114.946 81.7356C112.17 81.85 113.08 84.2457 113.882 85.4293C112.451 84.4455 109.585 83.2081 109.566 86.1287Z" fill="url(#paint14_linear_6143_3508)"/>
<path d="M113.148 88.608C115.635 90.1391 116.25 88.1381 116.246 86.9462C116.744 88.0805 118.327 90.0774 120.671 88.9912C123.016 87.9051 121.348 85.7284 120.221 84.7759C121.402 85.0311 123.527 84.8946 122.575 82.3066C121.623 79.7185 120.018 80.8296 119.335 81.7086C119.466 80.3927 119.263 77.7418 117.401 77.6662C115.538 77.5906 115.845 80.2456 116.231 81.5826C115.441 80.6178 113.526 79.2965 112.183 81.7291C110.841 84.1618 113.361 84.6268 114.789 84.5553C113.206 85.2682 110.661 87.0769 113.148 88.608Z" fill="url(#paint15_radial_6143_3508)"/>
</g>
<defs>
<linearGradient id="paint0_linear_6143_3508" x1="140.573" y1="161.786" x2="53.3012" y2="57.3749" gradientUnits="userSpaceOnUse">
<stop stop-color="#5C56AF"/>
<stop offset="1" stop-color="#42266D"/>
</linearGradient>
<radialGradient id="paint1_radial_6143_3508" cx="0" cy="0" r="1" gradientUnits="userSpaceOnUse" gradientTransform="translate(55.4849 86.7104) rotate(90) scale(5.73481 5.95807)">
<stop stop-color="#FDFDFB"/>
<stop offset="0.0001" stop-color="#FFF5D8"/>
<stop offset="1" stop-color="#FCA51A"/>
<stop offset="1" stop-color="#FCA51A"/>
</radialGradient>
<linearGradient id="paint2_linear_6143_3508" x1="60.6398" y1="85.2339" x2="55.9747" y2="95.7119" gradientUnits="userSpaceOnUse">
<stop stop-color="#FD2F30"/>
<stop offset="1" stop-color="#971A1C"/>
</linearGradient>
<radialGradient id="paint3_radial_6143_3508" cx="0" cy="0" r="1" gradientUnits="userSpaceOnUse" gradientTransform="translate(62.7087 93.1603) rotate(55.2514) scale(5.73481 5.95807)">
<stop stop-color="#DCDCDC"/>
<stop offset="1" stop-color="#A8B8D8"/>
</radialGradient>
<linearGradient id="paint4_linear_6143_3508" x1="67.2873" y1="90.0508" x2="66.1161" y2="101.46" gradientUnits="userSpaceOnUse">
<stop stop-color="#FDAEE5"/>
<stop offset="1" stop-color="#FD5D9F"/>
</linearGradient>
<radialGradient id="paint5_radial_6143_3508" cx="0" cy="0" r="1" gradientUnits="userSpaceOnUse" gradientTransform="translate(71.8353 97.591) rotate(53.6886) scale(5.73481 5.95807)">
<stop stop-color="#FDFDFB"/>
<stop offset="0.0001" stop-color="#FFF5D8"/>
<stop offset="1" stop-color="#FCA51A"/>
<stop offset="1" stop-color="#FCA51A"/>
</radialGradient>
<linearGradient id="paint6_linear_6143_3508" x1="75.1042" y1="93.8487" x2="77.5499" y2="105.055" gradientUnits="userSpaceOnUse">
<stop stop-color="#FD2F30"/>
<stop offset="1" stop-color="#971A1C"/>
</linearGradient>
<radialGradient id="paint7_radial_6143_3508" cx="0" cy="0" r="1" gradientUnits="userSpaceOnUse" gradientTransform="translate(81.032 100.075) rotate(18.94) scale(5.73481 5.95807)">
<stop stop-color="#DCDCDC"/>
<stop offset="1" stop-color="#A8B8D8"/>
</radialGradient>
<linearGradient id="paint8_linear_6143_3508" x1="84.1416" y1="95.5977" x2="89.9544" y2="105.485" gradientUnits="userSpaceOnUse">
<stop stop-color="#FDAEE5"/>
<stop offset="1" stop-color="#FD5D9F"/>
</linearGradient>
<radialGradient id="paint9_radial_6143_3508" cx="0" cy="0" r="1" gradientUnits="userSpaceOnUse" gradientTransform="translate(92.9281 100.37) rotate(18.639) scale(5.73481 5.95807)">
<stop stop-color="#FDFDFB"/>
<stop offset="0.0001" stop-color="#FFF5D8"/>
<stop offset="1" stop-color="#FCA51A"/>
<stop offset="1" stop-color="#FCA51A"/>
</radialGradient>
<linearGradient id="paint10_linear_6143_3508" x1="94.1843" y1="95.5231" x2="102.622" y2="103.292" gradientUnits="userSpaceOnUse">
<stop stop-color="#FD2F30"/>
<stop offset="1" stop-color="#971A1C"/>
</linearGradient>
<radialGradient id="paint11_radial_6143_3508" cx="0" cy="0" r="1" gradientUnits="userSpaceOnUse" gradientTransform="translate(104.982 97.6983) rotate(-16.1096) scale(5.73481 5.95807)">
<stop stop-color="#DCDCDC"/>
<stop offset="1" stop-color="#A8B8D8"/>
</radialGradient>
<linearGradient id="paint12_linear_6143_3508" x1="103.737" y1="92.6697" x2="114.174" y2="97.4261" gradientUnits="userSpaceOnUse">
<stop stop-color="#FDAEE5"/>
<stop offset="1" stop-color="#FD5D9F"/>
</linearGradient>
<radialGradient id="paint13_radial_6143_3508" cx="0" cy="0" r="1" gradientUnits="userSpaceOnUse" gradientTransform="translate(112.768 90.9232) rotate(-9.4225) scale(5.73481 5.95807)">
<stop stop-color="#FDFDFB"/>
<stop offset="0.0001" stop-color="#FFF5D8"/>
<stop offset="1" stop-color="#FCA51A"/>
<stop offset="1" stop-color="#FCA51A"/>
</radialGradient>
<linearGradient id="paint14_linear_6143_3508" x1="111.43" y1="83.1434" x2="119.867" y2="90.9126" gradientUnits="userSpaceOnUse">
<stop stop-color="#FD2F30"/>
<stop offset="1" stop-color="#971A1C"/>
</linearGradient>
<radialGradient id="paint15_radial_6143_3508" cx="0" cy="0" r="1" gradientUnits="userSpaceOnUse" gradientTransform="translate(117.072 83.8746) rotate(-16.1096) scale(5.73481 5.95807)">
<stop stop-color="#DCDCDC"/>
<stop offset="1" stop-color="#A8B8D8"/>
</radialGradient>
</defs>
</svg>
