<svg width="160" height="160" viewBox="0 0 160 160" fill="none" xmlns="http://www.w3.org/2000/svg">
<mask id="mask0_6143_4696" style="mask-type:alpha" maskUnits="userSpaceOnUse" x="0" y="0" width="160" height="160">
<circle cx="80" cy="80" r="80" fill="#D9D9D9"/>
</mask>
<g mask="url(#mask0_6143_4696)">
<rect x="-55" y="-17" width="261.759" height="304.043" rx="16.4016" fill="#B6BC63"/>
<path d="M126.124 61.8117C115.119 61.5256 106.854 74.3762 103.839 82.5436C101.984 105.28 104.247 145.296 128.139 123.468C152.031 101.64 156.513 89.5172 152.145 74.9939C149.354 65.711 134.236 62.0225 126.124 61.8117Z" fill="#876B57"/>
<path d="M144.201 130.456C142.138 122.872 128.964 103.847 122.635 95.2824C123.174 107.673 124.627 133.565 126.12 138.014C127.614 142.463 132.638 142.62 134.964 142.143C138.902 141.407 146.264 138.04 144.201 130.456Z" fill="#A3856C"/>
<path d="M13.642 128.452C15.4079 121.96 26.6851 105.675 32.1029 98.3439C31.6409 108.95 30.3975 131.114 29.1193 134.922C27.841 138.731 23.54 138.865 21.5493 138.457C18.1777 137.827 11.876 134.944 13.642 128.452Z" fill="#A3856C"/>
<path d="M44.5528 172.87C43.656 164.098 44.1791 149.417 44.5528 143.173L75.1945 146.828C76.3155 152.158 78.1839 164.829 76.6892 172.87C75.1945 180.911 66.5999 182.617 62.4894 182.465C56.8842 182.921 45.4496 181.642 44.5528 172.87Z" fill="#A3856C"/>
<path d="M80.3604 173.786C79.4636 165.014 79.9867 150.333 80.3604 144.089L111.002 147.744C112.123 153.074 113.992 165.745 112.497 173.786C111.002 181.827 102.407 183.533 98.297 183.381C92.6918 183.837 81.2573 182.558 80.3604 173.786Z" fill="#A3856C"/>
<path d="M49.4675 161.746C18.4312 149.297 32.6867 69.4763 47.2719 54.1497C51.1206 45.8617 83.9987 32.9277 103.931 52.3025C133.298 80.8479 129.543 144.86 115.994 156.491C102.445 168.123 80.5039 174.195 49.4675 161.746Z" fill="#C2A28A"/>
<path d="M107.062 62.7367C102.432 60.2869 102.31 54.9053 105.192 47.9624C108.6 39.7531 115.459 39.6096 120.089 42.0594C124.719 44.5092 127.862 50.3137 121.959 56.8338C116.614 62.7367 111.692 65.1865 107.062 62.7367Z" fill="#242323"/>
<path d="M50.0244 60.2116C45.6099 62.5473 40.8611 60.3256 36.2317 55.2352C30.7581 49.2162 34.0109 44.1361 38.4253 41.8004C42.8398 39.4647 49.4449 39.6574 52.218 46.7768C54.7286 53.2224 54.4389 57.8759 50.0244 60.2116Z" fill="#242323"/>
<ellipse cx="2.05359" cy="2.68983" rx="2.05359" ry="2.68983" transform="matrix(0.997044 0.0768285 -0.0699359 0.997552 59.7607 73.874)" fill="#272626"/>
<ellipse cx="2.05359" cy="2.68983" rx="2.05359" ry="2.68983" transform="matrix(0.997044 0.0768285 -0.0699359 0.997552 91.2017 74.1123)" fill="#272626"/>
<path d="M76.2875 83.9997C76.4584 83.7517 76.7403 83.6035 77.0415 83.6035H78.7751C79.1293 83.6035 79.4517 83.8078 79.603 84.1281L81.1306 87.362C81.1884 87.4843 81.2184 87.6179 81.2184 87.7531V90.0129C81.2184 90.5186 80.8084 90.9285 80.3027 90.9285H75.1471C74.6414 90.9285 74.2314 90.5186 74.2314 90.0129V87.2691C74.2314 87.0836 74.2878 86.9025 74.393 86.7497L76.2875 83.9997Z" fill="white"/>
<path d="M81.2185 81.3344C81.2185 82.3367 80.2177 82.7283 78.4261 83.6029C76.8966 83.1284 75.105 82.2831 75.105 81.2807C75.105 80.2784 76.4676 79.9404 78.2301 79.9404C79.9927 79.9404 81.2185 80.332 81.2185 81.3344Z" fill="#272626"/>
<path d="M77.6001 82.6875C76.4648 85.9574 74.5359 87.0003 69.8645 88.1219" stroke="#272626" stroke-width="1.83125" stroke-linecap="round"/>
<path d="M78.7199 83.0753C79.7334 86.8104 81.7558 87.6642 86.747 88.0233" stroke="#272626" stroke-width="1.83125" stroke-linecap="round"/>
<path d="M144.023 128.78C143.071 124.39 131.777 106.246 125.32 98.4834L123.462 140.202C130.712 138.224 144.974 133.171 144.023 128.78Z" fill="#242323"/>
<path d="M15.7417 123.499C16.5685 119.695 26.3814 103.976 31.9917 97.25L33.606 133.395C27.3067 131.682 14.9149 127.303 15.7417 123.499Z" fill="#242323"/>
<path d="M125.489 95.8993C91.0518 112 48.123 102.27 32.5926 95.5615C27.1905 111.876 24.7985 141.726 32.7329 154.229C42.1861 173.135 104.645 179.082 118.666 157.431C132.299 136.379 129.034 107.589 125.489 95.8993Z" fill="#1A1A1A"/>
<path fill-rule="evenodd" clip-rule="evenodd" d="M72.2188 29.2418C55.779 38.7004 23.4398 62.2791 25.6017 80.9259C27.7637 99.5727 42.9424 105.248 50.2615 105.755C73.0853 108.363 84.4656 108.184 102.959 105.755C112.755 105.417 132.247 99.9781 131.841 80.9259C131.436 61.8737 98.2298 38.5315 81.6774 29.2418C81.5899 29.2043 81.5024 29.1666 81.4148 29.1288C79.1345 28.1456 76.7731 27.1273 72.2188 29.2418ZM75.4799 50.2951C52.1161 50.2951 38.2827 72.991 39.7995 86.4383C41.3164 99.8857 61.5757 103.472 66.7108 103.837H91.7083C98.5814 103.594 114.621 100.178 114.337 86.4383C114.016 70.9304 102.488 51.7052 75.4799 50.2951Z" fill="#242323"/>
<path d="M77.822 106.372C75.7565 108.303 72.2767 112.689 74.8824 114.787C77.4881 116.885 77.9279 110.051 77.822 106.372Z" stroke="#434343" stroke-width="1.35122"/>
<path d="M79.1462 106.483C81.2598 108.412 84.7371 115.574 82.1908 117.845C79.6445 120.116 79.1379 110.304 79.1462 106.483Z" stroke="#434343" stroke-width="1.35122"/>
<path d="M78.3189 106.709C76.8607 111.537 75.4569 122.344 75.8314 129.173" stroke="#434343" stroke-width="1.35122"/>
<path d="M78.1963 106.709C78.6436 110.322 79.7478 118.884 79.8394 124.275" stroke="#434343" stroke-width="1.35122"/>
<path d="M94.1046 117.589L96.1341 116.133L96.1288 116.085L93.8361 115.094L93.7804 114.576L96.5612 115.81L96.6136 116.297L94.159 118.095L94.1046 117.589ZM101.549 117.398L101.211 114.257L101.698 114.205L101.753 114.716L101.777 114.713C101.802 114.633 101.834 114.555 101.876 114.481C101.916 114.403 101.968 114.334 102.032 114.274C102.099 114.213 102.18 114.161 102.274 114.118C102.368 114.075 102.48 114.047 102.609 114.033C102.938 113.997 103.213 114.075 103.435 114.264C103.656 114.45 103.787 114.733 103.828 115.115L104.045 117.13L103.558 117.182L103.35 115.252C103.319 114.964 103.233 114.758 103.093 114.634C102.952 114.505 102.759 114.454 102.516 114.48C102.418 114.491 102.324 114.513 102.234 114.547C102.143 114.582 102.064 114.627 101.996 114.684C101.928 114.74 101.876 114.81 101.84 114.892C101.803 114.973 101.791 115.065 101.801 115.167L102.036 117.346L101.549 117.398ZM104.447 113.909L104.879 113.862L105.531 116.539L105.585 116.533L105.829 113.76L106.365 113.703L107.193 116.36L107.247 116.354L107.314 113.601L107.735 113.555L107.592 116.748L106.958 116.816L106.176 114.24L106.128 114.245L105.899 116.93L105.266 116.998L104.447 113.909ZM108.493 113.474L108.98 113.421L109.035 113.933L109.059 113.93C109.22 113.519 109.522 113.289 109.965 113.242C110.35 113.2 110.666 113.312 110.912 113.577C111.162 113.841 111.315 114.233 111.371 114.753C111.427 115.272 111.361 115.688 111.173 116C110.989 116.311 110.704 116.487 110.318 116.529C109.876 116.576 109.532 116.416 109.287 116.049L109.263 116.051L109.449 117.78L108.962 117.832L108.493 113.474ZM110.083 116.117C110.367 116.086 110.577 115.978 110.713 115.791C110.852 115.599 110.907 115.361 110.876 115.077L110.819 114.541C110.788 114.257 110.685 114.039 110.508 113.885C110.335 113.727 110.106 113.664 109.822 113.694C109.713 113.706 109.611 113.731 109.516 113.77C109.422 113.809 109.341 113.861 109.274 113.925C109.207 113.986 109.155 114.059 109.12 114.145C109.087 114.227 109.077 114.32 109.088 114.426L109.21 115.558C109.221 115.664 109.252 115.755 109.301 115.832C109.354 115.904 109.42 115.965 109.499 116.013C109.578 116.058 109.667 116.09 109.768 116.108C109.868 116.126 109.973 116.129 110.083 116.117ZM112.345 115.818L113.441 115.7L113.046 112.023L111.95 112.141L111.905 111.727L113.488 111.557L113.928 115.648L115.024 115.53L115.068 115.944L112.39 116.232L112.345 115.818ZM118.067 115.104L118.043 115.107C118.018 115.187 117.986 115.267 117.945 115.345C117.904 115.419 117.85 115.487 117.782 115.547C117.719 115.608 117.64 115.659 117.546 115.702C117.452 115.745 117.34 115.773 117.211 115.787C116.882 115.823 116.607 115.748 116.386 115.562C116.164 115.372 116.033 115.087 115.992 114.705L115.775 112.69L116.262 112.638L116.47 114.568C116.501 114.856 116.587 115.064 116.728 115.193C116.869 115.317 117.061 115.366 117.304 115.34C117.402 115.33 117.496 115.307 117.586 115.273C117.677 115.238 117.756 115.193 117.824 115.136C117.892 115.08 117.944 115.013 117.981 114.935C118.017 114.853 118.03 114.759 118.019 114.654L117.784 112.474L118.271 112.422L118.609 115.563L118.122 115.615L118.067 115.104ZM121.074 115.372C120.745 115.407 120.455 115.383 120.204 115.299C119.956 115.211 119.739 115.082 119.553 114.914L119.851 114.592C120.018 114.734 120.195 114.838 120.383 114.904C120.571 114.97 120.791 114.99 121.042 114.963C121.286 114.936 121.48 114.872 121.625 114.771C121.774 114.664 121.838 114.518 121.818 114.331C121.809 114.25 121.786 114.185 121.748 114.135C121.713 114.082 121.668 114.041 121.611 114.015C121.555 113.988 121.494 113.97 121.427 113.961C121.36 113.947 121.289 113.938 121.215 113.934L120.714 113.914C120.603 113.91 120.48 113.9 120.347 113.886C120.219 113.871 120.098 113.839 119.986 113.789C119.874 113.736 119.775 113.66 119.691 113.562C119.61 113.464 119.561 113.33 119.543 113.16C119.526 113.001 119.541 112.862 119.59 112.742C119.642 112.617 119.721 112.51 119.827 112.421C119.931 112.327 120.059 112.254 120.209 112.201C120.359 112.144 120.525 112.105 120.708 112.086C120.992 112.055 121.242 112.074 121.459 112.141C121.68 112.207 121.874 112.311 122.041 112.454L121.756 112.786C121.715 112.745 121.664 112.706 121.602 112.667C121.544 112.624 121.472 112.589 121.387 112.561C121.306 112.529 121.211 112.506 121.103 112.493C120.995 112.48 120.872 112.481 120.734 112.496C120.486 112.522 120.3 112.585 120.175 112.685C120.054 112.784 120.003 112.915 120.02 113.077C120.029 113.159 120.051 113.226 120.085 113.28C120.123 113.329 120.171 113.367 120.227 113.394C120.283 113.421 120.345 113.441 120.412 113.454C120.483 113.463 120.553 113.47 120.623 113.474L121.124 113.494C121.24 113.498 121.362 113.508 121.491 113.523C121.62 113.538 121.74 113.572 121.853 113.625C121.965 113.675 122.061 113.749 122.141 113.847C122.226 113.944 122.277 114.079 122.296 114.249C122.329 114.561 122.233 114.816 122.008 115.013C121.787 115.209 121.476 115.329 121.074 115.372Z" fill="white"/>
</g>
</svg>
