<svg width="160" height="160" viewBox="0 0 160 160" fill="none" xmlns="http://www.w3.org/2000/svg">
<mask id="mask0_6143_4472" style="mask-type:alpha" maskUnits="userSpaceOnUse" x="0" y="0" width="160" height="160">
<circle cx="80" cy="80" r="80" fill="#D9D9D9"/>
</mask>
<g mask="url(#mask0_6143_4472)">
<rect x="-55" y="-17" width="261.759" height="304.043" rx="16.4016" fill="#E4D1FF"/>
<path d="M3.32293 110.967L16.9993 109.819L19.7852 109.585L39.2793 113.934L76.355 124.352C76.355 124.352 74.0465 127.164 68.8364 132.01C62.6855 137.732 57.6357 141.379 55.015 143.58C51.0459 146.915 45.6285 149.285 40.868 151.274C34.5206 153.927 25.5577 154.226 23.5394 154.291C16.9991 154.502 13.1865 154.475 6.83837 152.831C1.67071 151.493 -1.19131 150.321 -5.83922 147.65C-9.70957 145.425 -12.3098 144.423 -15.0796 140.879C-17.3357 137.992 -18.9926 136.053 -19.1099 132.369C-19.2251 128.748 -17.6829 126.793 -15.752 123.759C-13.4088 120.078 -11.2845 118.528 -7.72685 116.059C-3.81327 113.343 3.32293 110.967 3.32293 110.967Z" fill="url(#paint0_linear_6143_4472)"/>
<path d="M3.06951 107.949L16.7459 106.8L19.5318 106.566L39.0259 110.915L76.1016 121.334C76.1016 121.334 73.7931 124.146 68.583 128.992C62.4321 134.713 57.3823 138.36 54.7616 140.562C50.7925 143.897 45.3751 146.267 40.6146 148.256C34.2672 150.908 25.3043 151.207 23.286 151.272C16.7457 151.483 12.933 151.456 6.58495 149.812C1.41729 148.474 -1.44473 147.303 -6.09264 144.631C-9.96299 142.407 -12.5633 141.404 -15.333 137.86C-17.5891 134.973 -19.246 133.035 -19.3633 129.351C-19.4785 125.729 -17.9363 123.775 -16.0054 120.741C-13.6622 117.059 -11.538 115.51 -7.98027 113.041C-4.06669 110.324 3.06951 107.949 3.06951 107.949Z" fill="url(#paint1_radial_6143_4472)"/>
<mask id="mask1_6143_4472" style="mask-type:alpha" maskUnits="userSpaceOnUse" x="-20" y="106" width="97" height="49">
<path d="M3.06946 107.949L16.7459 106.8L19.5318 106.566L39.0259 110.915L76.1016 121.334C76.1016 121.334 73.495 127.552 68.2849 132.398C62.134 138.12 57.4488 141.461 54.8282 143.663C50.8591 146.998 46.287 148.872 41.5265 150.861C35.1791 153.513 26.9462 154.217 24.9279 154.282C18.3876 154.493 12.7754 154.439 6.42731 152.795C1.25965 151.457 -1.26809 150.422 -5.916 147.751C-9.78635 145.526 -12.1639 144.451 -14.9337 140.907C-17.1898 138.02 -19.1259 136.809 -19.3633 129.35C-19.4786 125.729 -17.9364 123.775 -16.0055 120.741C-13.6623 117.059 -11.538 115.51 -7.98033 113.041C-4.06675 110.324 3.06946 107.949 3.06946 107.949Z" fill="#4E4E4E" fill-opacity="0.6"/>
</mask>
<g mask="url(#mask1_6143_4472)">
<path d="M6.44289 105.667C6.44289 105.667 -0.475658 118.196 -2.47675 123.645C-10.1566 144.56 -5.29564 149.219 -5.29564 149.219" stroke="url(#paint2_linear_6143_4472)" stroke-width="0.471522"/>
<path d="M14.8258 104.963C14.8258 104.963 7.50238 120.222 4.93351 129.104C-1.22485 150.398 1.41015 152.204 1.41015 152.204" stroke="url(#paint3_linear_6143_4472)" stroke-width="0.471522"/>
<path d="M23.0122 107.823C23.0122 107.823 16.8043 121.48 14.4725 130.33C11.9925 139.744 8.93434 153.092 11.0339 154.436" stroke="url(#paint4_linear_6143_4472)" stroke-width="0.471522"/>
<path d="M29.4796 113.867C29.4796 113.867 30.6631 110.221 24.4629 131.011C18.2627 151.802 21.0237 155.117 21.0237 155.117" stroke="url(#paint5_linear_6143_4472)" stroke-width="0.471522"/>
<path d="M39.5123 115.052C39.5123 115.052 37.7199 121.333 34.4956 132.196C31.2713 143.059 28.915 154.455 31.2965 153.241" stroke="url(#paint6_linear_6143_4472)" stroke-width="0.471522"/>
<path d="M49.5445 116.237C49.5445 116.237 44.882 132.778 42.738 141.639C40.594 150.5 41.0044 156.48 41.0044 156.48" stroke="url(#paint7_linear_6143_4472)" stroke-width="0.471522"/>
<path d="M59.5768 117.421C59.5768 117.421 56.704 125.704 54.56 134.565C52.416 143.426 51.0366 157.664 51.0366 157.664" stroke="url(#paint8_linear_6143_4472)" stroke-width="0.471522"/>
<path d="M69.6095 118.606C69.6095 118.606 66.7367 126.888 64.5927 135.75C62.4487 144.611 61.0694 158.849 61.0694 158.849" stroke="url(#paint9_linear_6143_4472)" stroke-width="0.471522"/>
<path d="M2.1568 85.9249C2.1568 85.9249 11.452 88.9607 17.2042 91.46C22.3145 93.6803 62.0241 120.804 62.0241 120.804" stroke="url(#paint10_linear_6143_4472)" stroke-width="0.471522"/>
<path d="M1.57717 100.947C1.57717 100.947 17.7292 105.414 26.6348 109.545C43.9185 117.562 62.6916 130.84 65.3374 135.431" stroke="url(#paint11_linear_6143_4472)" stroke-width="0.471522"/>
<path d="M-5.82983 107.369C-5.82983 107.369 6.54815 110.882 14.1084 114.144C31.9521 121.842 57.9031 141.822 56.3084 143.539" stroke="url(#paint12_linear_6143_4472)" stroke-width="0.471522"/>
<path d="M-10.2687 113.657C-10.2687 113.657 1.79227 118.192 8.54609 121.53C24.6321 129.481 49.6463 147.637 46.8251 148.896" stroke="url(#paint13_linear_6143_4472)" stroke-width="0.471522"/>
<path d="M-17.7111 121.961C-17.7111 121.961 -11.9385 123.585 0.0725326 129.383C12.0836 135.182 37.7778 152.797 34.341 153.998" stroke="url(#paint14_linear_6143_4472)" stroke-width="0.471522"/>
<path d="M-23.4228 131.371C-23.4228 131.371 -13.6311 135.163 -5.63922 138.793C2.35263 142.423 15.8348 151.296 24.5308 158.496" stroke="url(#paint15_linear_6143_4472)" stroke-width="0.471522"/>
<path d="M-29.1342 140.78C-29.1342 140.78 -20.2421 143.982 -11.3506 148.203C-2.45913 152.424 13.8603 162.364 13.8603 162.364" stroke="url(#paint16_linear_6143_4472)" stroke-width="0.471522"/>
<path d="M-34.8459 150.192C-34.8459 150.192 -25.9537 153.393 -17.0623 157.614C-8.17079 161.835 4.7351 170.389 4.7351 170.389" stroke="url(#paint17_linear_6143_4472)" stroke-width="0.471522"/>
</g>
<path d="M133.801 107.604C136.97 105.702 138.881 103.13 140.577 99.8261C141.957 97.1386 142.43 95.517 142.408 92.5113C142.396 90.7956 142.629 88.2341 140.987 87.8201C140.337 87.6561 139.837 88.3344 139.712 88.5219C139.859 88.2861 140.488 87.2129 140.269 86.5148C139.968 85.5592 138.59 85.3197 137.748 85.8739C137.476 86.0523 137.382 86.2866 137.35 86.4224C137.392 86.1006 137.458 85.1624 136.871 84.777C136.089 84.2629 135.825 84.3956 135.033 84.9227C134.094 85.5473 132.75 87.899 132.75 87.899C132.75 87.899 130.961 89.9974 129.406 90.1714C127.218 90.4164 125.067 90.085 125.067 90.085L119.844 89.4949C119.844 89.4949 117.317 92.5851 116.376 95.5772C115.439 98.5568 114.483 100.663 115.649 103.521C116.942 106.692 119.398 107.681 122.641 108.703C126.905 110.047 131.576 108.94 133.801 107.604Z" fill="url(#paint18_linear_6143_4472)"/>
<path d="M96.8452 47.2178C91.4409 44.024 87.7457 43.2232 81.54 42.5475C75.6208 41.903 72.1039 42.1261 66.3132 43.6224C59.4401 45.3984 55.53 47.2743 49.9903 51.8686C46.21 55.0038 44.4876 57.2974 41.5804 61.3074C37.7013 66.6581 35.9357 70.0637 33.5275 76.2635C31.8219 80.6544 31.1159 83.2392 30.1487 87.859C29.03 93.2022 28.8154 96.2943 28.5134 101.746C28.1804 107.756 27.6471 113.354 28.5134 119.297C29.419 125.51 29.2757 127.255 31.5881 133.053C35.4468 142.728 39.2779 148.38 46.8741 155.271C53.4918 161.274 58.5267 164.281 66.8531 167.271C71.9237 169.091 81.0729 170.301 90.1865 170.018C98.6199 169.757 102.899 168.013 110.893 165.156C118.527 162.428 124.889 157.575 124.889 157.575L133.262 149.201L138.046 137.838C138.046 137.838 138.282 136.646 138.046 131.259C137.742 124.337 137.918 121.591 136.253 115.709C134.175 108.371 130.819 105.12 127.281 98.3645C124.579 93.2047 123.457 91.5925 120.31 85.1791C117.189 78.8168 116.328 74.8097 113.221 68.44C110.554 62.972 109.688 59.37 105.769 54.7868C102.783 51.2949 100.76 49.5312 96.8452 47.2178Z" fill="url(#paint19_linear_6143_4472)"/>
<path d="M145.98 132.009L137.771 129.102C137.482 129 137.162 129.045 136.923 129.237C136.045 129.94 133.838 131.874 132 134.873C131.037 136.444 130.073 141.009 129.613 143.409C129.445 144.291 129.939 145.157 130.776 145.479L139.714 148.919C139.714 148.919 142.963 144.447 144.229 140.71C145.404 137.24 145.98 132.009 145.98 132.009Z" fill="url(#paint20_linear_6143_4472)"/>
<path d="M140.054 135.947C140.711 133.631 142.104 130.133 142.104 130.133L146.949 131.321C146.949 131.321 147.358 130.268 149.083 127.597C150.754 125.009 151.839 124.156 154.879 123.659C156.378 123.414 158.518 123.705 158.518 123.705C160.069 123.835 161.893 124.431 163.815 125.711L165.193 127.893C165.193 127.893 165.539 132.03 164.542 135.645C164.041 137.464 163.151 139.457 162.816 140.705C161.778 144.575 159.021 148.714 159.021 148.714C158.347 150.303 157.02 152.05 156.044 153.164C155.982 154.046 145.973 151.963 138.194 148.802C138.194 148.802 138.671 140.827 140.054 135.947Z" fill="#D9AE6F"/>
<mask id="mask2_6143_4472" style="mask-type:alpha" maskUnits="userSpaceOnUse" x="138" y="123" width="28" height="31">
<path d="M140.544 135.988C141.192 133.671 142.563 130.172 142.563 130.172L147.31 131.351C147.31 131.351 147.713 130.298 149.408 127.624C151.051 125.034 152.116 124.18 155.096 123.677C156.566 123.43 158.663 123.717 158.663 123.717C160.183 123.844 161.97 124.437 163.852 125.714L165.199 127.893C165.199 127.893 165.531 132.03 164.548 135.646C164.054 137.465 163.178 139.46 162.848 140.708C161.824 144.579 159.114 148.722 159.114 148.722C158.452 150.312 157.148 152.061 156.189 153.176C156.127 154.058 146.32 151.993 138.7 148.845C138.7 148.845 139.18 140.87 140.544 135.988Z" fill="#C4C4C4"/>
</mask>
<g mask="url(#mask2_6143_4472)">
<path d="M161.72 126.338C162.759 125.98 164.458 126.308 164.458 126.308L165.085 126.36L166.166 128.53L165.603 135.24L162.329 146.66L158.399 153.347L157.729 153.81C157.729 153.81 156.251 153.666 155.473 153.101C154.734 152.564 154.477 151.741 154.414 150.673C154.156 146.233 154.649 146.426 155.043 143.189C155.275 141.282 155.894 138.063 155.894 138.063C155.894 138.063 156.561 132.611 158.26 129.945C159.352 128.231 160.029 126.92 161.72 126.338Z" fill="url(#paint21_linear_6143_4472)"/>
</g>
<path d="M85.3473 168.134C86.3342 169.32 88.3214 170.823 88.3214 170.823L93.9022 168.852L93.812 158.201L92.8222 149.469C92.8222 149.469 88.1007 147.336 86.09 148.34C85.1421 148.813 84.191 149.66 84.191 149.66C84.191 149.66 82.6178 150.948 81.8812 152.424C80.7101 154.771 81.4476 157.505 81.8393 160.078C82.0747 161.624 82.3833 162.478 82.9915 163.945C83.7032 165.661 84.1248 166.665 85.3473 168.134Z" fill="url(#paint22_linear_6143_4472)"/>
<path d="M87.9678 172.978C88.9546 174.164 90.1028 174.676 90.1028 174.676L95.6835 172.706L95.5934 162.054L94.6036 153.322C94.6036 153.322 90.8037 151.165 88.7929 152.169C87.845 152.642 86.4408 153.798 86.4408 153.798C86.4408 153.798 84.912 155.849 84.1754 157.325C83.0043 159.672 83.229 161.359 83.6207 163.931C83.856 165.477 84.5994 165.962 85.2077 167.429C85.9194 169.145 86.7453 171.509 87.9678 172.978Z" fill="url(#paint23_linear_6143_4472)"/>
<path d="M104.64 145.873L104.67 145.892C105.981 146.732 106.748 147.673 107.767 149.284C108.979 151.199 109.333 151.907 109.85 154.124C110.206 155.651 110.111 158.049 110.111 158.049L106.203 164.175L89.7493 175.407C89.1273 175.261 88.3617 173.407 88.0524 171.973C88.0524 171.973 87.8881 170.729 87.8129 168.914C87.7159 166.569 88.1253 163.729 88.1375 161.39C88.1509 158.819 87.9683 157.331 88.4393 154.816C88.9509 152.083 90.3484 149.815 91.9953 147.72C93.4941 145.813 95.0945 144.885 97.3362 144.465C98.9198 144.168 100.823 144.324 101.852 144.572C103.068 144.865 103.657 145.242 104.64 145.873Z" fill="#D9AE6F"/>
<path d="M108.725 153.057C107.64 151.548 106.418 150.929 104.586 150.462C101.971 149.796 98.67 151.134 97.5484 151.849C96.1942 152.713 94.8159 153.945 93.3477 156.084C91.8287 158.297 91.427 159.601 90.752 162.223C90.2577 164.144 90.0097 165.222 90.0097 165.222C90.0097 165.222 89.1416 168.336 89.0335 171.006C88.9408 173.296 88.771 174.82 90.2914 176.468C91.649 177.94 93.7526 179.054 93.7526 179.054C93.7526 179.054 96.6563 179.381 98.4216 178.936C100.659 178.373 101.923 177.027 103.145 175.252C104.432 173.383 105.317 169.823 105.317 169.823C105.317 169.823 108.708 165.899 109.587 162.785C110.675 158.927 110.791 155.93 108.725 153.057Z" fill="url(#paint24_linear_6143_4472)"/>
<path d="M104.573 51.5585C104.573 51.5585 109.419 59.2003 111.382 64.6218C113.808 71.3208 114.961 75.4523 114.719 82.5982C114.318 94.4402 102.939 110.495 102.939 110.495M102.939 110.495C102.939 110.495 94.8512 110.381 89.7946 109.392C81.2557 107.72 76.1627 105.535 69.0627 101.145C61.5099 96.4742 58.4316 92.9004 54.8287 85.3761C52.3789 80.2602 51.8943 76.9261 51.1667 71.276C50.6458 67.2306 50.7684 60.833 50.7684 60.833M102.939 110.495C102.939 110.495 107.153 118.827 108.902 124.529C110.42 129.476 110.205 136.349 110.205 136.349M102.939 110.495C102.939 110.495 104.009 120.049 103.917 126.192C103.834 131.659 100.487 139.696 100.487 139.696" stroke="url(#paint25_linear_6143_4472)" stroke-width="0.726451" stroke-linecap="round"/>
<path d="M110.556 132.475C110.895 134.271 111.184 135.034 111.771 136.22" stroke="#6A2E2E" stroke-width="0.363225" stroke-linecap="round"/>
<path d="M110.049 132.432C109.518 134.143 109.191 134.981 108.479 135.943" stroke="#6A2E2E" stroke-width="0.363225" stroke-linecap="round"/>
<path d="M101.576 136.145C100.466 137.346 99.807 137.975 98.4918 138.927" stroke="#6A2E2E" stroke-width="0.363225" stroke-linecap="round"/>
<path d="M102.189 136.456L101.882 140.111" stroke="#6A2E2E" stroke-width="0.363225" stroke-linecap="round"/>
<path d="M108.639 131.012C108.567 131.868 109.189 132.62 110.028 132.69C110.867 132.761 111.606 132.124 111.678 131.267C111.75 130.411 111.128 129.66 110.289 129.589C109.449 129.519 108.711 130.156 108.639 131.012Z" fill="#D9AE6F"/>
<ellipse cx="1.52495" cy="1.55595" rx="1.52495" ry="1.55595" transform="matrix(-0.996493 -0.0836796 -0.0836796 0.996493 103.819 133.731)" fill="#D9AE6F"/>
<path d="M71.6369 115.452C69.4088 111.989 69.0154 106.857 65.5557 105.468C63.1264 104.493 61.5596 103.625 58.9716 104.11C55.8098 104.703 54.129 106.439 52.5318 109.188C50.894 112.007 50.9069 113.98 51.1244 117.206C51.176 117.972 51.8029 120.382 52.5655 122.109C53.4273 124.06 55.7446 126.428 55.7446 126.428C55.7446 126.428 57.6243 128.167 58.8993 129.201C60.9339 130.851 62.0379 131.882 64.3728 133.093C67.1282 134.522 71.9545 135.559 71.9545 135.559L74.6901 136.083C74.6901 136.083 75.9721 136.42 76.6144 136.5C77.5391 136.615 78.3073 136.739 78.6073 135.87C78.8026 135.304 78.073 134.418 78.073 134.418C78.073 134.418 78.7371 134.502 79.1859 134.728C79.7535 135.014 80.155 134.896 80.762 134.693C81.5765 134.42 81.5231 133.748 81.5955 133.503C81.7573 132.956 81.1544 132.551 81.1544 132.551C81.1544 132.551 82.6065 132.722 83.1939 132.171C83.5609 131.827 83.5175 131.077 83.5175 131.077C83.4762 130.669 83.3955 130.194 83.0297 129.875C83.0297 129.875 80.13 127.055 78.0195 125.638C75.6393 124.041 71.6369 115.452 71.6369 115.452Z" fill="url(#paint26_linear_6143_4472)"/>
<path d="M104.22 79.5829C104.22 79.5829 102.683 78.4691 102.445 79.1356C102.082 80.1478 101.373 80.5521 100.38 80.9205C99.1623 81.3724 97.0805 80.6126 97.0805 80.6126C97.0805 80.6126 96.4183 81.6947 95.7826 82.1495C94.9327 82.7574 94.2638 82.8785 93.2274 82.8899C92.0956 82.9023 91.201 82.4711 90.9491 82.3377C89.9415 81.8042 89.6357 83.4027 89.6357 83.4027" stroke="url(#paint27_linear_6143_4472)" stroke-width="0.484301" stroke-linecap="round"/>
<path d="M96.8527 75.7149L95.8669 76.5903C95.7756 76.6714 95.6573 76.7153 95.5356 76.7133L93.8224 76.6847C93.289 76.6758 92.8141 77.027 92.6652 77.5405C92.4706 78.212 92.8982 78.901 93.5847 79.0217L94.3657 79.1591L96.2385 79.6421C96.5195 79.7146 96.8177 79.6122 96.9965 79.3819L98.5846 77.3359C98.9725 76.8361 98.9073 76.1232 98.4355 75.7075C97.9842 75.3098 97.3052 75.3129 96.8527 75.7149Z" fill="#783B3B"/>
<path d="M76.5956 68.8227C77.493 67.9536 79.1853 67.0395 79.4496 66.8992C79.4738 66.8864 79.4978 66.8766 79.5239 66.8683L80.7185 66.49C80.9283 66.4235 81.1563 66.511 81.2678 66.7008L82.0786 68.082C82.2219 68.3261 82.1199 68.6408 81.8618 68.7571C81.2236 69.0446 80.093 69.5691 79.3111 70.0166C77.7058 70.9353 75.742 72.5756 74.6266 73.5527C74.3747 73.7734 74.0033 73.5322 74.1185 73.2179C74.5828 71.9513 75.4512 69.9311 76.5956 68.8227Z" fill="#9B6A5B"/>
<path d="M106.902 64.2923C105.982 63.6257 103.521 62.7334 103.177 62.6105C103.149 62.6006 103.122 62.594 103.093 62.5895L102.541 62.504C102.319 62.4696 102.105 62.5964 102.028 62.8072L101.471 64.3487C101.383 64.5936 101.511 64.8653 101.756 64.9547L103.682 65.6557L108.496 67.3137C108.674 67.3752 108.841 67.2156 108.776 67.0382C108.531 66.3665 107.945 65.0485 106.902 64.2923Z" fill="#9B6A5B"/>
<path d="M103.429 43.9341C100.262 43.5314 95.2701 43.4238 95.2701 43.4238L81.0949 43.203L42.2699 52.7657C42.2699 52.7657 40.0812 53.7477 36.9739 55.2558C34.0524 56.6737 30.2768 59.062 30.2768 59.062C29.0672 59.5113 25.547 62.2981 26.8005 64.0115C27.4385 64.8836 29.6608 65.2559 31.5289 65.4128C33.7331 65.5979 35.5356 65.3555 39.7261 65.0968C43.7776 64.8468 46.195 64.8195 50.2343 64.3811C54.4819 63.92 56.9171 63.6126 61.1572 63.0772L61.1591 63.077C65.8192 62.4887 67.6545 62.2397 72.3086 61.5949C76.5672 61.0049 78.8281 60.4769 83.0328 59.5314C88.4584 58.3115 91.383 57.7261 96.3139 56.2796C101.779 54.6763 106.534 53.2247 110.398 51.9387C112.879 51.1128 114.125 50.0398 114.125 50.0398C114.125 50.0398 115.229 49.3702 115.088 48.3169C114.883 46.7803 112.863 46.1885 111.457 45.4824C110.168 44.8349 106.595 44.3368 103.429 43.9341Z" fill="url(#paint28_linear_6143_4472)"/>
<path d="M98.3408 45.3761L96.4455 46.1906L94.0545 44.831L84.4702 43.6122C84.4702 43.6122 84.2116 42.2163 84.793 41.0391C85.3658 39.8795 86.2197 38.7416 87.2298 37.9508C89.1779 36.4256 90.1849 35.9846 92.6276 35.7618C94.8125 35.5624 96.561 35.9551 98.3299 37.2711C100.765 39.0829 101.274 44.4521 98.3408 45.3761Z" fill="#B4836E"/>
<path d="M89.0315 34.9601L82.726 24.3624C82.4977 23.9789 82.0806 23.7509 81.6362 23.7729C80.108 23.8488 76.441 24.0592 73.5569 24.4506C67.5971 25.2596 60.3801 27.6154 53.2647 31.0192C49.3494 32.8922 44.7382 36.0682 43.3885 37.0181C43.1376 37.1946 42.9669 37.462 42.9087 37.7639C42.6609 39.0494 41.9596 42.6966 41.4943 45.2065C40.8105 48.8955 39.7957 54.6625 39.7957 54.6625C39.7957 54.6625 44.6671 55.9336 48.0516 56.2353C51.5804 56.5499 53.7697 56.5264 57.29 56.103C61.0969 55.6452 66.9741 54.4593 66.9741 54.4593C66.9741 54.4593 74.2872 52.6604 78.0803 51.6892C82.1457 50.6482 89.0635 47.8579 89.0635 47.8579L94.5259 45.1543L89.0315 34.9601Z" fill="url(#paint29_linear_6143_4472)"/>
<path d="M89.7606 40.89L92.3572 46.1755" stroke="#AA7C6D" stroke-width="0.42437" stroke-linecap="round"/>
<path d="M69.4591 53.606L68.135 47.868" stroke="#AA7C6D" stroke-width="0.42437" stroke-linecap="round"/>
<path d="M87.6381 42.0297L90.2347 47.3152" stroke="#AA7C6D" stroke-width="0.42437" stroke-linecap="round"/>
<path d="M66.9264 54.2437L65.6023 48.5056" stroke="#AA7C6D" stroke-width="0.42437" stroke-linecap="round"/>
<path d="M88.0823 42.7763C80.6361 45.7107 76.319 47.1309 68.2848 49.2217M65.6843 50.0168C63.0838 50.812 59.9801 51.5648 57.4219 51.8567M92.2769 41.1016C92.2769 41.1016 91.2282 41.5202 90.1796 41.9389" stroke="#AA7C6D" stroke-width="0.42437"/>
<path d="M89.3381 45.9218C81.8919 48.8562 77.5748 50.2764 69.5406 52.3672M66.9401 53.1624C64.3396 53.9575 59.7263 54.5836 57.1681 54.8755M94.0781 43.7861C94.0781 43.7861 92.484 44.6658 91.4354 45.0844" stroke="#AA7C6D" stroke-width="0.42437"/>
<path d="M39.4415 52.1124C38.9948 55.0908 42.0586 58.4176 42.0586 58.4176L49.8443 58.0548L57.5997 56.2271C57.5997 56.2271 58.327 54.8348 58.094 53.3961C57.8645 51.9788 57.3301 50.4915 56.5177 49.32C54.9507 47.0607 54.0278 46.2606 51.514 45.2164C49.2655 44.2825 47.2867 44.1197 44.9862 44.9278C41.8189 46.0402 39.9478 48.7366 39.4415 52.1124Z" fill="#B4836E"/>
<path d="M77.2803 75.9488L75.9519 77.788C75.3983 78.5546 75.3163 79.5653 75.7392 80.411C76.0746 81.0817 76.6891 81.57 77.4183 81.745L80.0411 82.3744C81.518 82.7289 83.0756 82.4665 84.3549 81.6478L86.6868 80.1554C87.7774 79.4574 88.4372 78.2518 88.4372 76.957C88.4372 76.4021 88.3156 75.854 88.0809 75.3512L87.7558 74.6546C87.1322 73.3181 85.7908 72.4639 84.316 72.4639C83.8231 72.4639 83.3349 72.5599 82.8787 72.7465L79.6931 74.0497C78.7272 74.4448 77.8913 75.1027 77.2803 75.9488Z" fill="white"/>
<path d="M84.8975 79.9547L87.0385 77.0397C87.4364 76.498 87.5601 75.8022 87.3733 75.1566C87.2367 74.6843 86.9434 74.2727 86.5417 73.9893L86.3488 73.8531C85.6557 73.3641 84.7778 73.2167 83.963 73.4524L82.0959 73.9925L79.3583 74.7845C78.8555 74.93 78.4038 75.2138 78.0546 75.6035L77.3235 76.4196C76.681 77.1366 76.4532 78.1341 76.7208 79.0589L76.7842 79.2782C77.1479 80.5354 78.3361 81.3713 79.6422 81.289L82.8227 81.0885C83.6481 81.0365 84.408 80.6212 84.8975 79.9547Z" fill="#3E2121"/>
<circle opacity="0.8" cx="81.3702" cy="75.4771" r="1.35352" transform="rotate(15 81.3702 75.4771)" fill="white"/>
<circle opacity="0.8" cx="85.3902" cy="77.9419" r="1.35352" transform="rotate(15 85.3902 77.9419)" fill="white"/>
<circle opacity="0.8" cx="80.7629" cy="79.8347" r="0.777175" transform="rotate(15 80.7629 79.8347)" fill="white"/>
<path d="M79.1267 82.3254L77.9015 83.1573C77.5293 83.4099 77.5553 83.9666 77.9494 84.1835C78.0456 84.2365 78.1545 84.2621 78.2643 84.2577L81.9566 84.108C82.4867 84.0865 83.01 83.9809 83.507 83.7951L86.7535 82.5814C87.0305 82.4778 87.1997 82.1971 87.162 81.9038C87.137 81.7096 87.0241 81.5378 86.8558 81.4378L86.2909 81.1019C85.9093 80.8751 85.4628 80.7826 85.0225 80.8393L83.7174 81.0073C83.4433 81.0425 83.1722 81.0981 82.9063 81.1735L79.5628 82.122C79.4075 82.166 79.2603 82.2347 79.1267 82.3254Z" fill="#C7F1FF"/>
<path d="M107.747 68.8137L109.372 69.896C110.088 70.3728 110.466 71.2181 110.345 72.0694C110.252 72.7163 109.881 73.2903 109.329 73.64L107.254 74.9554C106.016 75.7402 104.518 76.0066 103.085 75.6971L100.662 75.1736C99.5457 74.9325 98.6347 74.1293 98.2556 73.0521C98.0904 72.5827 98.034 72.0819 98.0906 71.5874L98.1591 70.989C98.3153 69.6238 99.2373 68.4677 100.534 68.0116C100.957 67.8625 101.405 67.7942 101.854 67.8104L104.984 67.923C105.97 67.9585 106.926 68.2668 107.747 68.8137Z" fill="white"/>
<path d="M102.082 68.8188L99.1905 70.9172C98.6868 71.2828 98.3887 71.8675 98.3887 72.4898C98.3887 72.9501 98.5521 73.3955 98.8497 73.7465L99.0272 73.9558C99.5385 74.5588 100.289 74.9064 101.08 74.9064H103.084H105.933C106.432 74.9064 106.922 74.7728 107.351 74.5194L108.251 73.9889C109.077 73.5018 109.584 72.6141 109.584 71.655C109.584 70.3729 108.686 69.2663 107.431 69.0032L104.295 68.3458C103.524 68.184 102.72 68.3559 102.082 68.8188Z" fill="#3E2121"/>
<ellipse opacity="0.8" cx="102.311" cy="70.0326" rx="1.21539" ry="1.38902" fill="white"/>
<circle opacity="0.8" cx="106.998" cy="73.1584" r="0.694508" fill="white"/>
<ellipse opacity="0.8" cx="103.526" cy="74.025" rx="1.38902" ry="1.21539" fill="white"/>
<path d="M106.561 74.9352L105.93 75.5369C105.744 75.715 105.818 76.028 106.064 76.1035C106.121 76.1209 106.182 76.123 106.239 76.1095L108.387 75.6098C108.677 75.5424 108.955 75.4314 109.211 75.2806L110.997 74.23C111.139 74.1464 111.204 73.9756 111.154 73.8189C111.12 73.7133 111.038 73.63 110.933 73.5941L110.556 73.465C110.321 73.3848 110.068 73.3826 109.832 73.4586L109.079 73.7014C108.921 73.7526 108.766 73.8149 108.616 73.888L106.774 74.7865C106.696 74.8248 106.624 74.8749 106.561 74.9352Z" fill="#C7F1FF"/>
<path d="M131.931 75.6869L129.725 72.5141C136.542 72.6588 135.61 76.6482 134.013 79.963L146.773 98.3135L145.487 99.2079L130.819 78.1134L131.931 75.6869Z" fill="#ACACAC"/>
<path d="M128.157 78.311L125.951 75.1382C123.713 81.5792 127.778 82.0945 131.441 81.7524L144.2 100.103L145.486 99.2085L130.819 78.114L128.157 78.311Z" fill="#ACACAC"/>
<path d="M144.494 101.807L146.7 104.98C139.883 104.835 140.815 100.846 142.411 97.5311L129.652 79.1806L130.938 78.2863L145.606 99.3808L144.494 101.807Z" fill="#ACACAC"/>
<path d="M148.267 99.1832L150.473 102.356C152.711 95.915 148.647 95.3996 144.984 95.7418L132.224 77.3913L130.938 78.2856L145.605 99.3801L148.267 99.1832Z" fill="#ACACAC"/>
</g>
<defs>
<linearGradient id="paint0_linear_6143_4472" x1="51.3906" y1="132.296" x2="-20.5313" y2="139.309" gradientUnits="userSpaceOnUse">
<stop stop-color="#503030"/>
<stop offset="1" stop-color="#352020"/>
</linearGradient>
<radialGradient id="paint1_radial_6143_4472" cx="0" cy="0" r="1" gradientUnits="userSpaceOnUse" gradientTransform="translate(-6.32387 131.062) rotate(7.78197) scale(48.6798 32.2248)">
<stop stop-color="#784242"/>
<stop offset="1" stop-color="#523535"/>
</radialGradient>
<linearGradient id="paint2_linear_6143_4472" x1="-4.15307" y1="109.597" x2="-1.11069" y2="145.827" gradientUnits="userSpaceOnUse">
<stop stop-color="#303030"/>
<stop offset="1"/>
</linearGradient>
<linearGradient id="paint3_linear_6143_4472" x1="5.45546" y1="105.75" x2="9.17394" y2="150.031" gradientUnits="userSpaceOnUse">
<stop stop-color="#303030"/>
<stop offset="1"/>
</linearGradient>
<linearGradient id="paint4_linear_6143_4472" x1="14.6705" y1="109.03" x2="18.3045" y2="152.305" gradientUnits="userSpaceOnUse">
<stop stop-color="#303030"/>
<stop offset="1"/>
</linearGradient>
<linearGradient id="paint5_linear_6143_4472" x1="23.5613" y1="114.364" x2="26.8572" y2="153.614" gradientUnits="userSpaceOnUse">
<stop stop-color="#303030"/>
<stop offset="1"/>
</linearGradient>
<linearGradient id="paint6_linear_6143_4472" x1="33.5942" y1="115.549" x2="36.8902" y2="154.799" gradientUnits="userSpaceOnUse">
<stop stop-color="#303030"/>
<stop offset="1"/>
</linearGradient>
<linearGradient id="paint7_linear_6143_4472" x1="43.6265" y1="116.734" x2="46.9224" y2="155.983" gradientUnits="userSpaceOnUse">
<stop stop-color="#303030"/>
<stop offset="1"/>
</linearGradient>
<linearGradient id="paint8_linear_6143_4472" x1="53.6587" y1="117.918" x2="56.9547" y2="157.167" gradientUnits="userSpaceOnUse">
<stop stop-color="#303030"/>
<stop offset="1"/>
</linearGradient>
<linearGradient id="paint9_linear_6143_4472" x1="63.6915" y1="119.103" x2="66.9874" y2="158.352" gradientUnits="userSpaceOnUse">
<stop stop-color="#303030"/>
<stop offset="1"/>
</linearGradient>
<linearGradient id="paint10_linear_6143_4472" x1="7.71585" y1="79.9112" x2="57.3838" y2="125.824" gradientUnits="userSpaceOnUse">
<stop stop-color="#303030"/>
<stop offset="1"/>
</linearGradient>
<linearGradient id="paint11_linear_6143_4472" x1="8.14918" y1="93.8377" x2="59.7191" y2="141.508" gradientUnits="userSpaceOnUse">
<stop stop-color="#303030"/>
<stop offset="1"/>
</linearGradient>
<linearGradient id="paint12_linear_6143_4472" x1="0.107685" y1="100.946" x2="50.4879" y2="147.517" gradientUnits="userSpaceOnUse">
<stop stop-color="#303030"/>
<stop offset="1"/>
</linearGradient>
<linearGradient id="paint13_linear_6143_4472" x1="-4.38629" y1="108.86" x2="42.4285" y2="152.135" gradientUnits="userSpaceOnUse">
<stop stop-color="#303030"/>
<stop offset="1"/>
</linearGradient>
<linearGradient id="paint14_linear_6143_4472" x1="-13.0787" y1="116.95" x2="30.0816" y2="156.847" gradientUnits="userSpaceOnUse">
<stop stop-color="#303030"/>
<stop offset="1"/>
</linearGradient>
<linearGradient id="paint15_linear_6143_4472" x1="-18.7712" y1="126.339" x2="20.6077" y2="162.74" gradientUnits="userSpaceOnUse">
<stop stop-color="#303030"/>
<stop offset="1"/>
</linearGradient>
<linearGradient id="paint16_linear_6143_4472" x1="-24.2941" y1="135.545" x2="9.64816" y2="166.92" gradientUnits="userSpaceOnUse">
<stop stop-color="#303030"/>
<stop offset="1"/>
</linearGradient>
<linearGradient id="paint17_linear_6143_4472" x1="-30.4703" y1="145.458" x2="0.940576" y2="174.494" gradientUnits="userSpaceOnUse">
<stop stop-color="#303030"/>
<stop offset="1"/>
</linearGradient>
<linearGradient id="paint18_linear_6143_4472" x1="136.242" y1="83.821" x2="121.919" y2="108.936" gradientUnits="userSpaceOnUse">
<stop stop-color="#C18C76"/>
<stop offset="1" stop-color="#612824"/>
</linearGradient>
<linearGradient id="paint19_linear_6143_4472" x1="108.425" y1="54.8983" x2="61.789" y2="168.921" gradientUnits="userSpaceOnUse">
<stop stop-color="#CD9F84"/>
<stop offset="0.723876" stop-color="#8A5448"/>
</linearGradient>
<linearGradient id="paint20_linear_6143_4472" x1="130.803" y1="137.306" x2="141.453" y2="149.114" gradientUnits="userSpaceOnUse">
<stop stop-color="#A36959"/>
<stop offset="1" stop-color="#925C4F"/>
</linearGradient>
<linearGradient id="paint21_linear_6143_4472" x1="151.904" y1="153.321" x2="180.358" y2="128.072" gradientUnits="userSpaceOnUse">
<stop stop-color="#BA5F70"/>
<stop offset="1" stop-color="#F0C83B" stop-opacity="0"/>
</linearGradient>
<linearGradient id="paint22_linear_6143_4472" x1="78.1245" y1="155.787" x2="111.1" y2="139.279" gradientUnits="userSpaceOnUse">
<stop stop-color="#8B5448"/>
<stop offset="1" stop-color="#BF8174"/>
</linearGradient>
<linearGradient id="paint23_linear_6143_4472" x1="71.9359" y1="159.984" x2="93.5912" y2="151.939" gradientUnits="userSpaceOnUse">
<stop stop-color="#9F4E20"/>
<stop offset="1" stop-color="#D9AE6F"/>
</linearGradient>
<linearGradient id="paint24_linear_6143_4472" x1="98.7341" y1="175.422" x2="119.179" y2="166.902" gradientUnits="userSpaceOnUse">
<stop stop-color="#C9856B"/>
<stop offset="1" stop-color="#D9AE6F"/>
</linearGradient>
<linearGradient id="paint25_linear_6143_4472" x1="100.78" y1="133.475" x2="117.647" y2="52.7045" gradientUnits="userSpaceOnUse">
<stop stop-color="#6B2C2C"/>
<stop offset="1" stop-color="#533636"/>
</linearGradient>
<linearGradient id="paint26_linear_6143_4472" x1="53.6756" y1="116.99" x2="102.939" y2="134.72" gradientUnits="userSpaceOnUse">
<stop stop-color="#8F594C"/>
<stop offset="1" stop-color="#E1AC90"/>
</linearGradient>
<linearGradient id="paint27_linear_6143_4472" x1="96.9287" y1="82.3931" x2="95.5601" y2="73.4491" gradientUnits="userSpaceOnUse">
<stop stop-color="#874E4E"/>
<stop offset="1" stop-color="#482222" stop-opacity="0"/>
</linearGradient>
<linearGradient id="paint28_linear_6143_4472" x1="47.2869" y1="48.0434" x2="104.618" y2="39.3851" gradientUnits="userSpaceOnUse">
<stop stop-color="#C1958F"/>
<stop offset="1" stop-color="#DBBFBB"/>
</linearGradient>
<linearGradient id="paint29_linear_6143_4472" x1="42.1574" y1="33.7978" x2="53.6481" y2="14.2248" gradientUnits="userSpaceOnUse">
<stop stop-color="#D6B3AE"/>
<stop offset="1" stop-color="#E4D1C2"/>
</linearGradient>
</defs>
</svg>
