<svg width="160" height="160" viewBox="0 0 160 160" fill="none" xmlns="http://www.w3.org/2000/svg">
<mask id="mask0_6102_5484" style="mask-type:alpha" maskUnits="userSpaceOnUse" x="0" y="0" width="160" height="160">
<circle cx="80" cy="80" r="80" fill="#D9D9D9"/>
</mask>
<g mask="url(#mask0_6102_5484)">
<rect x="-2.96533" y="-24.0244" width="219.399" height="279.703" rx="15.8416" fill="#A8CD97"/>
<path d="M128.916 86.2225C116.799 85.8873 107.7 100.941 104.38 110.509C102.338 137.143 104.829 184.019 131.134 158.449C157.44 132.879 162.375 118.678 157.566 101.665C154.492 90.7902 137.848 86.4695 128.916 86.2225Z" fill="#694931"/>
<path d="M44.5161 203.286C10.3446 188.703 29.0522 107.74 41.5876 79.0193L104.481 75.0806C143.215 130.107 139.233 182.17 124.316 195.796C109.398 209.422 78.6875 217.87 44.5161 203.286Z" fill="#C2A28A"/>
<path d="M26.8483 118.581C24.7815 108.963 27.5084 94.2377 40.6929 77.7354C53.8774 61.233 80.9685 42.889 109.478 70.6995C137.988 98.51 143.229 129.817 105.168 137.775C117.713 127.455 116.169 113.15 106.551 103.768C96.9339 94.3872 30.0615 92.98 45.5016 131.678C46.0745 133.114 46.6484 134.732 48.1884 137.307C46.0047 137.307 28.9152 128.2 26.8483 118.581Z" fill="#457D2A"/>
<path d="M117.048 117.645C117.048 131.219 117.048 140.116 78.1076 142.223C39.1675 142.223 39.1675 131.219 39.1675 117.645C39.1675 104.072 56.6015 93.0679 78.1076 93.0679C99.6136 93.0679 117.048 104.072 117.048 117.645Z" fill="#457D2A"/>
<path d="M113.086 121.535C113.086 134.673 107.585 142.22 79.8655 142.22C52.1455 142.22 44.6655 134.673 44.6655 121.535C44.6655 108.397 60.0654 100.087 79.8655 95.1719C95.7056 100.321 113.086 108.397 113.086 121.535Z" fill="#C2A28A"/>
<path d="M107.366 136.603C98.3896 141.472 69.0855 145.03 48.1855 136.838C47.5255 136.135 47.5964 136.892 47.9654 137.072C73.7055 150.882 100.718 142.047 108.686 136.603C109.142 136.292 108.686 136.135 107.366 136.603Z" fill="#457D2A"/>
<ellipse cx="2.27765" cy="3.13017" rx="2.27765" ry="3.13017" transform="matrix(0.996119 0.0894085 -0.0615481 0.998172 58.4268 112.64)" fill="#3F3D3B"/>
<ellipse cx="2.27765" cy="3.13016" rx="2.27765" ry="3.13016" transform="matrix(0.996119 0.0894084 -0.0615483 0.998172 93.0459 112.92)" fill="#3F3D3B"/>
<path d="M76.9227 124.085C76.94 124.058 76.9697 124.042 77.0016 124.042H79.9664C80.0036 124.042 80.0373 124.064 80.0523 124.098L82.0708 128.644C82.0762 128.656 82.0789 128.669 82.0789 128.682V132.529C82.0789 132.581 82.0368 132.623 81.9849 132.623H74.4802C74.4283 132.623 74.3862 132.581 74.3862 132.529V128.03C74.3862 128.012 74.3915 127.994 74.4013 127.979L76.9227 124.085Z" fill="white"/>
<path d="M82.0831 121.38C82.0831 122.555 80.9812 123.013 79.0086 124.038C77.3247 123.482 75.3521 122.492 75.3521 121.318C75.3521 120.144 76.8523 119.748 78.7929 119.748C80.7335 119.748 82.0831 120.206 82.0831 121.38Z" fill="#3F3D3B"/>
<path d="M78.0991 122.968C76.8491 126.798 73.9274 128.644 69.3073 127.474" stroke="#3F3D3B" stroke-width="1.5" stroke-linecap="round"/>
<path d="M79.3309 123.419C80.4468 127.794 82.9463 129.577 88.4462 127.938" stroke="#3F3D3B" stroke-width="1.5" stroke-linecap="round"/>
<ellipse cx="52.8089" cy="122.558" rx="6.16001" ry="3.04295" fill="#DF7B7B"/>
<ellipse cx="103.409" cy="123.263" rx="6.16001" ry="3.27701" fill="#DF7B7B"/>
<path d="M34.9864 198.159C18.4424 179.059 23.9864 139.953 28.8264 122.788C34.9864 129.81 47.3066 141.046 77.6666 142.918C101.955 144.416 122.547 130.122 129.807 122.788C144.239 160.614 133.18 188.797 125.847 198.159C98.3907 188.422 53.8332 194.102 34.9864 198.159Z" fill="#33671B"/>
<path d="M18.5431 134.996L28.9462 123.561C28.9803 123.524 29.0373 123.523 29.0689 123.562C34.3778 130.208 51.8227 144.078 79.8644 142.824C107.937 141.568 123.348 129.45 128.654 124.028C128.679 124.002 128.716 123.998 128.748 124.014L141.113 130.224C141.183 130.26 141.167 130.365 141.089 130.378L124.458 133.182C124.381 133.195 124.364 133.298 124.433 133.335L134.592 138.733C134.666 138.772 134.639 138.886 134.554 138.887L111.237 139.309C111.179 139.31 111.14 139.37 111.163 139.424L116.292 151.437C116.321 151.505 116.253 151.574 116.185 151.545L98.3038 144.034C98.2549 144.013 98.1995 144.044 98.1909 144.096L96.4221 154.913C96.4129 154.969 96.3505 154.999 96.3008 154.971L79.9232 145.76C79.889 145.741 79.8459 145.749 79.8205 145.778L71.6046 155.411C71.5734 155.448 71.5177 155.45 71.4839 155.416L60.4124 144.257C60.3852 144.23 60.3424 144.225 60.3098 144.246L46.9582 152.821C46.9108 152.851 46.8478 152.826 46.8343 152.771L43.8282 140.625C43.816 140.576 43.7619 140.549 43.7153 140.57L28.6585 147.296C28.5972 147.324 28.5309 147.27 28.5449 147.204L31.1518 135.007C31.1629 134.955 31.123 134.907 31.0703 134.908L18.6051 135.134C18.5332 135.135 18.4947 135.05 18.5431 134.996Z" fill="#5D9D3E"/>
<path d="M60.6703 71.3781C57.0153 75.9858 48.6361 81.566 36.6077 81.5915C36.5624 81.5916 36.5249 81.5508 36.525 81.5055C36.5719 46.5417 65.2459 65.6099 60.6703 71.3781Z" fill="#D9D9D9"/>
<path d="M94.6597 71.3781C98.3148 75.9858 106.694 81.566 118.722 81.5915C118.768 81.5916 118.805 81.5508 118.805 81.5055C118.758 46.5417 90.0842 65.6099 94.6597 71.3781Z" fill="#D9D9D9"/>
<ellipse cx="47.3054" cy="71.5326" rx="3.30001" ry="3.51109" fill="#3F3D3B"/>
<ellipse cx="108.466" cy="71.5326" rx="3.30001" ry="3.51109" fill="#3F3D3B"/>
<path d="M42.6851 75.0411C44.5184 73.1685 49.0211 69.4233 52.3651 69.4233" stroke="#3F3D3B" stroke-width="0.0820527"/>
<path d="M113.524 75.0411C111.691 73.1685 107.188 69.4233 103.844 69.4233" stroke="#3F3D3B" stroke-width="0.0820527"/>
<path d="M25.4455 67.001C26.5874 71.1837 33.5696 71.7432 36.9179 71.5001C37.1086 67.0451 38.542 59.9538 34.5842 59.2454C31.9675 58.7771 31.4961 62.8829 31.4125 64.9875C29.2065 64.2611 24.544 63.6989 25.4455 67.001Z" fill="#E15B8B"/>
<path d="M39.3032 50.9338C39.8036 56.3333 48.2335 58.7155 52.3859 59.2316C53.576 53.8225 56.8538 45.4871 52.1593 43.6577C49.0555 42.4482 47.5968 47.3615 47.0425 49.9184C44.4971 48.4928 38.9082 46.671 39.3032 50.9338Z" fill="#E15B8B"/>
<path d="M66.6484 38.7703C64.6629 45.5601 73.6968 53.0123 78.462 55.8897C82.4926 50.0061 90.447 41.7234 85.6573 36.9664C82.4906 33.8213 78.3733 38.9605 76.4779 41.7462C74.0889 38.6433 68.216 33.41 66.6484 38.7703Z" fill="#E15B8B"/>
<path d="M99.6818 41.9409C95.5178 45.0731 97.7392 54.0472 99.3704 58.1427C104.378 56.5692 112.808 55.4798 111.982 50.2337C111.436 46.7652 106.7 47.8451 104.337 48.5966C104.244 45.5376 102.969 39.4682 99.6818 41.9409Z" fill="#E15B8B"/>
<path d="M120.626 57.1345C117 58.7148 117.207 65.8424 117.764 69.2086C121.768 68.9503 128.258 69.6833 128.49 65.6034C128.644 62.906 124.923 62.8447 123.032 62.9733C123.458 60.6656 123.489 55.8869 120.626 57.1345Z" fill="#E15B8B"/>
<path d="M116.395 130.786C117.955 138.062 131.702 151.39 137.065 159.772C140.355 147.259 134.143 128.646 132.972 124.365C131.802 120.085 127.284 119.728 125.171 120.085C121.596 120.62 114.835 123.509 116.395 130.786Z" fill="#AE8A6C"/>
<path d="M41.554 132.682C40.0155 139.976 28.8334 153.008 23.5447 161.41C20.9047 143.854 24.0531 130.537 25.207 126.247C26.3609 121.956 30.8163 121.599 32.8997 121.956C36.4256 122.493 43.0925 125.389 41.554 132.682Z" fill="#AE8A6C"/>
<path d="M79.8667 94.7064C80.452 92.7558 81.2714 86.982 79.8667 79.4917" stroke="#5D9D3E" stroke-width="0.0410263"/>
</g>
</svg>
