<svg width="160" height="160" viewBox="0 0 160 160" fill="none" xmlns="http://www.w3.org/2000/svg">
<mask id="mask0_6102_5438" style="mask-type:alpha" maskUnits="userSpaceOnUse" x="0" y="0" width="160" height="160">
<circle cx="80" cy="80" r="80" fill="#D9D9D9"/>
</mask>
<g mask="url(#mask0_6102_5438)">
<rect x="-46.377" y="-15.8418" width="301.449" height="350.145" rx="15.8416" fill="#F6BACF"/>
<g filter="url(#filter0_d_6102_5438)">
<path d="M204.174 174.428C205.087 170.314 200.83 166.281 198.626 163.293C195.985 161.321 192.077 159.61 188.775 158.975C186.74 158.584 184.597 158.696 182.569 158.313C180.702 157.96 178.957 157.598 177.041 157.65C174.73 157.712 172.48 157.174 170.178 157.152C167.695 157.128 165.094 157.027 162.633 156.671C157.853 155.98 153.132 156.107 148.325 155.857C143.599 155.61 138.848 155.786 134.128 155.761C129.863 155.738 124.696 155.184 121.112 157.589C117.845 159.782 119.19 165.517 120.446 168.363C122.519 173.061 126.01 176.991 129.325 180.982C139.875 193.685 155.463 205.161 173.468 204.386C178.187 204.183 183.177 203.334 186.735 200.292C190.471 197.096 194.51 194.206 197.733 190.532C200.363 187.535 202.111 183.722 202.953 179.931L204.174 174.428Z" fill="#543A3A"/>
<path d="M153.651 71.343C148.118 76.8074 145.533 81.1471 141.97 86.7949C139.568 90.6019 138.179 91.3242 135.559 95.6694C130.631 108.245 129.483 118.351 133.798 120.759C137.106 122.605 162.946 110.778 166.709 110.389C170.166 110.033 174.406 109.392 176.837 106.619C179.821 103.214 177.322 98.0457 174.903 95.0568C174.704 94.8111 172.505 92.7642 173.476 92.4837C175.093 92.0167 177.479 92.3048 179.139 92.2712C183.203 92.1888 193.105 93.5151 196.213 89.7651C198.034 87.5696 193.109 82.4588 191.735 81.3409C188.304 78.5487 184.968 77.7022 180.81 77.4335C178.555 77.2878 185.214 76.3734 187.321 75.5566C190.852 74.1875 197.376 70.731 195.901 66.0229C194.787 62.4668 190.55 60.0073 187.4 58.5839C182.188 56.2292 175.085 58.1432 169.975 60.6082C164.138 63.4244 158.751 66.3061 153.651 71.343Z" fill="#FEF4EA"/>
<path d="M72.8657 65.8796C76.843 72.562 78.2506 77.4131 80.2755 83.7766C81.6405 88.066 82.8028 89.1152 84.2425 93.9803C85.8427 107.392 84.4065 117.461 79.6243 118.704C75.9576 119.657 53.9325 101.699 50.3889 100.375C47.1327 99.1582 43.191 97.4694 41.538 94.174C39.5079 90.1267 43.2286 85.7547 46.323 83.472C46.5774 83.2844 49.2214 81.8578 48.3521 81.3415C46.9052 80.4821 44.5235 80.1596 42.9257 79.7088C39.0132 78.6047 29.0973 77.3929 27.034 72.9805C25.826 70.3972 31.88 66.6925 33.4909 65.9568C37.5148 64.1194 40.9565 64.141 45.0484 64.929C47.267 65.3562 41.053 62.793 39.2204 61.4717C36.1488 59.257 30.7064 54.2679 33.3201 50.0834C35.2943 46.9229 40.014 45.6104 43.4212 45.0269C49.0581 44.0616 55.4503 47.7041 59.7735 51.3772C64.7128 55.5737 69.1995 59.72 72.8657 65.8796Z" fill="#FEF4EA"/>
<path d="M37.0837 99.9817C41.4487 101.752 44.3999 103.667 48.2382 106.486C51.2704 109.18 51.9991 113.113 52.0444 117.183C52.0998 122.156 49.6241 125.729 45.1251 126.672C42.0272 127.321 37.5246 126.063 34.7149 124.512C30.8134 122.36 25.5613 121.042 22.6885 117.266C21.3713 115.535 19.7086 113.942 19.4493 111.595C19.1935 109.278 19.2078 106.66 19.4942 104.351C20.0316 100.017 21.0856 96.5325 25.3819 96.0636C29.4344 95.6213 33.396 98.486 37.0837 99.9817Z" fill="url(#paint0_linear_6102_5438)"/>
<path d="M144.658 104.014C141.89 102.307 140.554 99.9864 137.269 98.8547C128.124 100.035 129.621 112.094 132.072 117.497C133.045 119.64 135.441 121.132 137.052 122.91C138.888 124.938 140.816 126.641 142.883 128.459C145.494 130.756 150.195 133.098 154.047 132.451C157.799 131.822 163.95 131.757 164.973 127.35C165.972 123.045 164.244 118.709 160.92 115.515C157.589 112.314 153.74 110.367 150.053 107.621C148.305 106.319 146.531 105.168 144.658 104.014Z" fill="url(#paint1_linear_6102_5438)"/>
<path d="M66.9552 47.0579C80.8184 37.5446 96.181 35.9238 113.06 45.2287C124.953 48.7406 127.502 64.2277 129.551 69.2214C131.283 73.4462 133.585 77.366 135.112 81.7387C137.227 87.7962 139.383 93.7238 141.103 99.967C144.376 111.846 147.487 123.795 148.569 136.297C149.363 145.467 149.432 154.708 149.057 163.944C148.845 169.191 147.91 174.918 144.637 178.669C141.239 182.563 138.157 185.653 134.074 188.455C126.531 193.631 118.317 197.229 109.739 198.954C101.771 200.556 93.5764 202.013 85.5059 201.865C81.8676 201.798 78.2552 201.348 74.6614 200.854C71.4785 200.416 68.8097 198.812 65.7697 197.949C61.1731 196.643 57.5589 192.655 54.3932 188.746C51.0049 184.563 48.1568 180.449 46.4404 174.891C44.1925 167.611 42.5586 160.306 42.7033 152.427C42.7832 148.078 42.532 143.678 42.6127 139.286C42.6964 134.728 43.1107 130.247 43.1947 125.675C43.3806 115.554 43.8451 104.787 45.9173 94.9283C46.7156 91.1306 46.9184 86.6993 48.292 83.1271C48.9008 81.5438 49.3708 79.3263 49.721 77.6257C50.2175 75.2144 51.2691 72.9349 51.9894 70.6043C53.5514 65.5499 56.1128 60.8007 58.741 56.4706C60.7871 53.0996 63.8793 49.1686 66.9552 47.0579Z" fill="url(#paint2_linear_6102_5438)"/>
<path d="M138.229 137.296C142.073 137.252 145.811 136.269 149.634 136.182C150.79 137.088 154.33 140.006 154.297 141.762C160.589 175.854 143.581 185.929 129.349 195.499C125.539 198.388 121.679 199.378 117.25 200.771C111.803 202.485 106.976 204.179 101.304 204.075L80.856 203.699C72.5002 203.546 62.5245 198.022 55.0477 193.305C51.1979 190.876 39.6381 175.192 38.7928 171.958C37.2648 166.112 36.4261 159.067 36.5374 153.01C36.6202 148.498 37.9393 142.984 41.2109 140.009C44.147 137.34 48.6175 136.899 52.1937 136.665C64.4513 135.863 76.8118 136.706 89.0839 136.643C101.543 136.579 113.995 136.876 126.451 137.105C130.374 137.177 134.305 137.341 138.229 137.296Z" fill="#FEF4EA"/>
<path d="M124.146 60.0939C129.778 61.447 132.181 56.9093 134.522 52.1578C136.033 47.5451 132.813 44.1335 129.156 42.9547C124.834 41.5612 119.892 44.9021 118.957 49.7475C118.626 51.4651 118.032 53.7607 119.073 55.2798C120.209 56.9375 122.195 59.625 124.146 60.0939Z" fill="#AE8873"/>
<path d="M54.3953 42.3578C58.8818 42.9822 64.5222 48.717 64.5403 53.7562C64.4496 58.6899 61.197 62.6513 56.2869 61.2591C53.7971 60.5532 51.4527 59.1568 49.6466 57.1244C48.2587 55.5628 46.2772 53.4611 46.134 51.142C45.8116 45.9183 49.684 41.7021 54.3953 42.3578Z" fill="#AE8873"/>
<path d="M71.1197 66.0611C69.0047 64.105 65.1066 62.451 62.4878 63.3573C59.7983 65.8331 61.762 68.5359 63.9834 69.8637C66.2154 71.1977 68.5726 72.0305 71.1102 72.0771C72.1407 72.096 74.1177 71.1921 73.7583 69.5804C73.4267 68.0935 72.103 66.9705 71.1197 66.0611Z" fill="#372831"/>
<path d="M96.56 66.5289C98.7454 64.6518 102.702 63.1421 105.285 64.1439C107.882 66.7168 105.82 69.3458 103.552 70.591C101.272 71.8422 98.8862 72.5878 96.3486 72.5412C95.3181 72.5223 93.3756 71.5463 93.794 69.949C94.18 68.4753 95.544 67.4016 96.56 66.5289Z" fill="#372831"/>
<path d="M86.7671 76.031C85.485 75.0463 83.3431 75.2113 81.7817 75.4293C79.367 77.3636 82.4792 80.2287 85.1322 78.8208C86.1087 78.3026 88.2423 77.1641 86.7671 76.031Z" fill="#372831" stroke="#372831" stroke-width="0.086115" stroke-linecap="round"/>
<path d="M87.0314 89.1489C87.0874 87.8002 87.081 86.4455 87.1058 85.096C86.0181 84.3544 84.6131 83.4608 83.7118 82.5418C82.67 81.4796 81.7864 82.7125 80.8021 83.2003C79.6461 83.7733 79.1541 84.1853 79.1296 85.523C79.1082 86.6884 79.0445 87.9607 79.0254 89.0019C78.7368 90.4454 80.0827 90.8012 81.3396 90.8243L84.786 90.8876C85.7807 90.7066 86.9848 90.2716 87.0314 89.1489Z" fill="#FEF4EA"/>
<path d="M95.7643 84.8759C91.516 87.6428 83.9203 85.5432 83.178 79.9321C81.9004 84.8723 76.6111 87.9152 70.6754 83.4595" stroke="#372831" stroke-width="1.5" stroke-linecap="round"/>
<path d="M98.6617 54.889C96.5351 54.8499 95.1778 55.7127 93.2382 56.8935C92.2568 57.4911 95.5632 58.8877 96.772 58.785C98.4248 58.6445 100.199 58.1668 101.616 56.989C103.656 55.2931 99.3154 54.901 98.6617 54.889Z" fill="#372831"/>
<path d="M72.517 55.3093C70.4972 54.4962 69.5064 54.9165 67.2921 55.3242C65.6221 55.7112 68.3338 57.9562 69.5201 58.3004C71.1421 58.771 72.9829 58.9671 74.6971 58.3716C77.1652 57.5142 73.1379 55.5593 72.517 55.3093Z" fill="#372831"/>
<path d="M102.132 33.5143C101.98 33.039 101.901 32.5266 101.911 31.9936C101.955 29.5768 103.798 27.6507 106.026 27.6916C108.254 27.7326 110.024 29.725 109.979 32.1418C109.968 32.749 109.844 33.3253 109.628 33.8472C110.339 33.2287 111.245 32.8654 112.226 32.8835C114.454 32.9244 116.224 34.9168 116.179 37.3336C116.137 39.6241 114.481 41.4738 112.411 41.6261C113.27 42.4449 113.803 43.6542 113.779 44.994C113.734 47.4108 111.892 49.3368 109.664 49.2959C107.83 49.2622 106.306 47.9055 105.849 46.0781C105.326 47.8875 103.753 49.1873 101.919 49.1536C99.6906 49.1127 97.9205 47.1203 97.9649 44.7035C97.9894 43.3697 98.5614 42.1854 99.4437 41.3986C97.3087 41.2485 95.6427 39.3027 95.6858 36.9572C95.7302 34.5404 97.5724 32.6143 99.8004 32.6552C100.676 32.6713 101.48 32.9885 102.132 33.5143Z" fill="#D4678E"/>
<path d="M58.0301 40.6137C57.7298 40.2305 57.4861 39.7838 57.3179 39.2835C56.5553 37.0147 57.6345 34.4997 59.7285 33.6661C61.8224 32.8325 64.1382 33.996 64.9008 36.2648C65.0924 36.8349 65.1678 37.4205 65.14 37.9911C65.5979 37.1368 66.3231 36.4439 67.245 36.0769C69.3389 35.2433 71.6546 36.4068 72.4173 38.6756C73.1401 40.8259 72.2085 43.1972 70.3266 44.1488C71.4016 44.5753 72.3017 45.4933 72.7244 46.751C73.4871 49.0199 72.4078 51.5348 70.3139 52.3684C68.5897 53.0548 66.7152 52.3872 65.6811 50.8634C65.7947 52.7536 64.7584 54.58 63.0343 55.2663C60.9403 56.0999 58.6246 54.9364 57.862 52.6676C57.4411 51.4155 57.5812 50.0884 58.1432 49.0103C56.0998 49.7057 53.8969 48.5449 53.1567 46.343C52.3941 44.0742 53.4733 41.5592 55.5673 40.7256C56.3899 40.3982 57.2467 40.3789 58.0301 40.6137Z" fill="#FFB8D0"/>
<path d="M111.587 40.0988C111.435 39.6234 111.357 39.1111 111.367 38.5781C111.411 36.1612 113.253 34.2352 115.481 34.2761C117.709 34.317 119.479 36.3094 119.435 38.7263C119.424 39.3335 119.299 39.9098 119.083 40.4317C119.794 39.8131 120.7 39.4499 121.681 39.4679C123.909 39.5089 125.679 41.5013 125.635 43.9181C125.593 46.2086 123.936 48.0583 121.866 48.2105C122.726 49.0293 123.259 50.2387 123.234 51.5784C123.19 53.9953 121.348 55.9213 119.12 55.8804C117.285 55.8467 115.761 54.4899 115.305 52.6626C114.782 54.4719 113.209 55.7718 111.374 55.7381C109.146 55.6972 107.376 53.7048 107.42 51.288C107.445 49.9542 108.017 48.7698 108.899 47.9831C106.764 47.833 105.098 45.8872 105.141 43.5417C105.186 41.1248 107.028 39.1988 109.256 39.2397C110.131 39.2558 110.936 39.573 111.587 40.0988Z" fill="#FFB8D0"/>
<path d="M73.832 32.126C73.7664 31.6276 73.7797 31.1081 73.8832 30.5866C74.3524 28.2221 76.4988 26.712 78.6773 27.2137C80.8559 27.7153 82.2415 30.0388 81.7723 32.4034C81.6544 32.9974 81.4306 33.5377 81.127 34.0055C81.9333 33.5453 82.8862 33.3762 83.8453 33.597C86.0238 34.0987 87.4094 36.4222 86.9402 38.7867C86.4955 41.0277 84.5443 42.5012 82.4871 42.222C83.1861 43.2043 83.496 44.5024 83.2359 45.8132C82.7666 48.1777 80.6202 49.6878 78.4417 49.1862C76.6479 48.7731 75.3917 47.1248 75.2659 45.2356C74.434 46.9043 72.6619 47.8552 70.8682 47.4421C68.6897 46.9405 67.304 44.6169 67.7733 42.2524C68.0322 40.9475 68.802 39.9028 69.8061 39.3128C67.7381 38.7232 66.4465 36.4671 66.9019 34.1723C67.3711 31.8078 69.5175 30.2976 71.6961 30.7993C72.5518 30.9964 73.2853 31.4746 73.832 32.126Z" fill="#D4678E"/>
<path d="M85.4504 30.182C85.1898 29.7659 84.9917 29.2934 84.8739 28.7763C84.34 26.4312 85.6611 24.0552 87.8247 23.4694C89.9883 22.8836 92.175 24.3097 92.7089 26.6548C92.8431 27.244 92.8602 27.8352 92.7762 28.3994C93.3157 27.6029 94.1049 26.9981 95.0574 26.7402C97.221 26.1543 99.4078 27.5805 99.9417 29.9255C100.448 32.148 99.2875 34.3983 97.3231 35.1261C98.3494 35.6751 99.1534 36.6927 99.4493 37.9927C99.9833 40.3378 98.6622 42.7138 96.4986 43.2996C94.7171 43.782 92.9199 42.9003 92.0426 41.2646C91.9687 43.1578 90.7584 44.8539 88.977 45.3362C86.8134 45.9221 84.6266 44.4959 84.0927 42.1508C83.798 40.8566 84.0684 39.553 84.7335 38.5461C82.6338 39.0004 80.5589 37.59 80.0407 35.3141C79.5068 32.969 80.8279 30.5931 82.9915 30.0072C83.8414 29.7771 84.6949 29.8575 85.4504 30.182Z" fill="#FFB8D0"/>
<rect width="41.4616" height="30.0445" transform="matrix(-0.908412 -0.418076 -0.366266 0.93051 203.123 116.985)" fill="url(#paint3_linear_6102_5438)"/>
<path d="M180.745 117.329L154.455 127.608L192.12 144.942L180.745 117.329Z" fill="url(#paint4_linear_6102_5438)"/>
<path d="M176.835 127.268L203.124 116.989L165.46 99.6547L176.835 127.268Z" fill="url(#paint5_linear_6102_5438)"/>
<rect width="3.86579" height="42.8511" rx="0.129173" transform="matrix(-0.965242 0.261358 0.221995 0.975048 21.5996 84.0171)" fill="#FEF4EA"/>
<path fill-rule="evenodd" clip-rule="evenodd" d="M21.2615 89.9285L29.421 75.2581L29.4122 75.2524C31.1135 71.8023 30.0448 67.4814 26.9251 65.4474C23.8054 63.4133 19.7782 64.4118 17.7575 67.6537L17.7504 67.649L17.6252 67.8741C17.6046 67.9098 17.5842 67.9458 17.564 67.9821C17.5438 68.0183 17.524 68.0547 17.5045 68.0911L16.6114 69.6969L14.7436 68.4791L14.7383 68.4887C11.5618 66.654 7.5741 67.8258 5.68909 71.2149C3.80407 74.6041 4.71279 78.9683 7.69632 81.1499L7.69203 81.1576L7.8992 81.2927C7.93209 81.3149 7.96522 81.3369 7.99858 81.3587C8.03194 81.3804 8.06541 81.4019 8.09898 81.4229L21.1962 89.9622L21.2273 89.9063L21.2615 89.9285Z" fill="#D4678E"/>
</g>
</g>
<defs>
<filter id="filter0_d_6102_5438" x="4.53334" y="23.3379" width="199.939" height="197.323" filterUnits="userSpaceOnUse" color-interpolation-filters="sRGB">
<feFlood flood-opacity="0" result="BackgroundImageFix"/>
<feColorMatrix in="SourceAlpha" type="matrix" values="0 0 0 0 0 0 0 0 0 0 0 0 0 0 0 0 0 0 127 0" result="hardAlpha"/>
<feOffset dy="0.17223"/>
<feGaussianBlur stdDeviation="0.086115"/>
<feComposite in2="hardAlpha" operator="out"/>
<feColorMatrix type="matrix" values="0 0 0 0 0 0 0 0 0 0 0 0 0 0 0 0 0 0 0.25 0"/>
<feBlend mode="normal" in2="BackgroundImageFix" result="effect1_dropShadow_6102_5438"/>
<feBlend mode="normal" in="SourceGraphic" in2="effect1_dropShadow_6102_5438" result="shape"/>
</filter>
<linearGradient id="paint0_linear_6102_5438" x1="47.5602" y1="116.867" x2="14.0888" y2="104.761" gradientUnits="userSpaceOnUse">
<stop stop-color="#AD806B"/>
<stop offset="0.674683" stop-color="#C99A81"/>
</linearGradient>
<linearGradient id="paint1_linear_6102_5438" x1="134.251" y1="111.484" x2="150.23" y2="117.042" gradientUnits="userSpaceOnUse">
<stop stop-color="#B0826D"/>
<stop offset="0.901042" stop-color="#C89980"/>
</linearGradient>
<linearGradient id="paint2_linear_6102_5438" x1="97.9348" y1="39.1488" x2="94.9427" y2="202.038" gradientUnits="userSpaceOnUse">
<stop stop-color="#AD806B"/>
<stop offset="1" stop-color="#C99A81"/>
</linearGradient>
<linearGradient id="paint3_linear_6102_5438" x1="20.7308" y1="0" x2="20.7308" y2="30.0445" gradientUnits="userSpaceOnUse">
<stop stop-color="#F2F2F2"/>
<stop offset="0.29325" stop-color="#F0F0F0"/>
<stop offset="0.853303" stop-color="#EDEDED"/>
<stop offset="1" stop-color="#EAEAEA"/>
</linearGradient>
<linearGradient id="paint4_linear_6102_5438" x1="180.745" y1="117.329" x2="172.246" y2="135.796" gradientUnits="userSpaceOnUse">
<stop stop-color="#FFFDFD"/>
<stop offset="1" stop-color="#EFEFEF"/>
</linearGradient>
<linearGradient id="paint5_linear_6102_5438" x1="176.835" y1="127.268" x2="185.333" y2="108.801" gradientUnits="userSpaceOnUse">
<stop stop-color="#E8E8E8"/>
<stop offset="0.463542" stop-color="white"/>
</linearGradient>
</defs>
</svg>
