<svg width="160" height="160" viewBox="0 0 160 160" fill="none" xmlns="http://www.w3.org/2000/svg">
<mask id="mask0_6143_3622" style="mask-type:alpha" maskUnits="userSpaceOnUse" x="0" y="0" width="160" height="160">
<circle cx="80" cy="80" r="80" fill="#D9D9D9"/>
</mask>
<g mask="url(#mask0_6143_3622)">
<rect x="-50" y="-10" width="252.821" height="293.662" rx="15.8416" fill="#A9CEFF"/>
<path d="M36.4811 179.301C36.6461 172.026 38.6215 165.97 42.541 162.228C46.4605 158.485 58.1759 159.586 61.7265 164.63C65.2772 169.674 64.844 176.164 62.7956 182.595C60.7473 189.026 53.5348 189.542 50.1846 188.996C45.548 188.795 36.3161 186.575 36.4811 179.301Z" fill="#816551"/>
<path d="M70.6738 174.042C70.8358 166.9 72.7752 160.955 76.6231 157.28C80.4711 153.606 91.9726 154.687 95.4584 159.639C98.9443 164.591 98.519 170.963 96.508 177.276C94.497 183.59 87.4162 184.096 84.1272 183.56C79.5752 183.363 70.5118 181.184 70.6738 174.042Z" fill="#816551"/>
<path d="M23.0697 95.1371C32.9986 94.8145 40.3571 105.166 43.0152 111.764C44.5181 130.184 42.1774 162.649 20.7909 145.147C-0.595646 127.645 -4.54773 117.852 -0.499598 106.04C2.08788 98.49 15.7514 95.3748 23.0697 95.1371Z" fill="#816551"/>
<path d="M119.827 110.117C111.138 104.848 99.709 108.647 92.7026 108.955C95.4794 119.8 111.422 123.95 116.62 123.28C119.677 122.885 122.119 120.954 122.726 119.502C123.795 117.069 124.241 112.794 119.827 110.117Z" fill="#A3856C"/>
<path d="M38.9322 162.173C13.7875 152.087 25.0896 96.1155 37.0896 77.6929C37.0896 77.6929 51.0741 66.5201 61.0896 66.369C76.977 66.1294 85.8389 74.1668 85.8389 74.1668C114.341 112.223 111.411 148.23 100.434 157.654C89.4571 167.078 64.0769 172.258 38.9322 162.173Z" fill="#B3937A"/>
<path d="M83.7871 81.2302C80.6835 79.9367 80.2888 76.5041 81.7226 71.8969C83.418 66.4493 87.7934 65.9541 90.8969 67.2475C94.0004 68.541 96.3511 72.0661 92.9614 76.5808C89.8925 80.6682 86.8906 82.5236 83.7871 81.2302Z" fill="#B3937A"/>
<ellipse cx="1.66376" cy="2.17922" rx="1.66376" ry="2.17922" transform="matrix(0.997044 0.0768284 -0.069936 0.997552 62.1294 103.181)" fill="#3F3D3B"/>
<ellipse cx="1.49729" cy="1.96132" rx="1.49729" ry="1.96132" transform="matrix(0.997044 0.0768343 -0.0699306 0.997552 78.6978 101.873)" fill="#3F3D3B"/>
<path d="M72.8972 109.575C73.0608 109.328 73.3355 109.178 73.6317 109.172L74.8518 109.15C75.2001 109.144 75.521 109.339 75.6755 109.651L76.9003 112.126C76.9594 112.245 76.9912 112.376 76.9937 112.509L77.0235 114.145C77.0326 114.642 76.6367 115.053 76.1393 115.062L72.281 115.132C71.7836 115.141 71.373 114.746 71.3639 114.248L71.3271 112.234C71.3238 112.052 71.3759 111.872 71.4767 111.72L72.8972 109.575Z" fill="white"/>
<path d="M76.207 107.035C76.2576 107.846 75.4681 108.213 74.0634 109.01C72.8028 108.704 71.3115 108.111 71.2609 107.3C71.2104 106.49 72.2952 106.148 73.7204 106.059C75.1455 105.97 76.1565 106.225 76.207 107.035Z" fill="#3F3D3B"/>
<path d="M73.35 108.311C72.5968 111.013 71.0897 111.953 67.369 113.096" stroke="#3F3D3B" stroke-width="1.80159" stroke-linecap="round"/>
<path d="M74.2742 108.569C75.9796 111.058 76.4917 111.027 79.084 111.379" stroke="#3F3D3B" stroke-width="1.80159" stroke-linecap="round"/>
<path d="M40.8663 85.0645C38.0328 86.5637 34.883 84.9763 31.7497 81.4519C28.0449 77.2847 30.0606 73.9094 32.8942 72.4102C35.7277 70.911 40.0465 71.1604 42.0108 76.0227C43.7893 80.4249 43.6999 83.5652 40.8663 85.0645Z" fill="#B3937A"/>
<path d="M19.0847 106.839C28.3253 111.068 35.8482 121.478 32.6589 130.028C21.8708 134.409 11.8324 122.775 9.57452 117.854C8.24616 114.958 8.56784 111.635 9.47875 110.2C10.977 107.752 14.3909 104.691 19.0847 106.839Z" fill="#A3856C"/>
<path d="M90.6672 79.2142C88.7468 77.2939 52.33 80.9091 33.9679 83.0398C32.1737 86.212 28.8092 92.794 30.1601 93.4114C31.8488 94.1832 93.0031 90.3231 94.7083 87.7102C96.4134 85.0973 92.3529 80.8998 90.6672 79.2142Z" fill="#83C0DB"/>
<path d="M61.242 5.10645L39.1001 62.8491" stroke="black" stroke-width="0.86831"/>
<path d="M68.4056 9.23096L47.7832 62.849" stroke="black" stroke-width="0.86831"/>
<path d="M72.7466 20.085L56.4658 62.8491" stroke="black" stroke-width="0.86831"/>
<path d="M52.1246 5.10645L31.2852 58.2906" stroke="black" stroke-width="0.86831"/>
<path d="M41.271 7.92871L25.4243 49.3904" stroke="black" stroke-width="0.86831"/>
<path d="M27.1608 25.9459L72.313 42.6609" stroke="black" stroke-width="0.86831"/>
<path d="M31.0683 18.7825L75.2936 34.8444" stroke="black" stroke-width="0.86831"/>
<path d="M36.2782 12.0525L75.1886 26.1613" stroke="black" stroke-width="0.86831"/>
<path d="M44.093 6.84332L72.7472 16.6119" stroke="black" stroke-width="0.86831"/>
<path d="M24.5555 33.9775L68.8393 50.6924" stroke="black" stroke-width="0.86831"/>
<path d="M23.4705 42.8774L62.0993 57.4426" stroke="black" stroke-width="0.86831"/>
<path d="M25.8584 52.4293L55.1639 63.5002" stroke="black" stroke-width="0.86831"/>
<path d="M11.7375 123.382C11.2892 124.494 11.8271 125.759 12.9389 126.207C14.0508 126.656 15.3157 126.118 15.764 125.006L11.7375 123.382ZM15.764 125.006L40.932 62.5941L36.9055 60.9704L11.7375 123.382L15.764 125.006Z" fill="#433078"/>
<path fill-rule="evenodd" clip-rule="evenodd" d="M39.5297 65.2397C52.5585 69.4457 68.1071 60.6471 73.6695 43.4166C79.2319 26.1861 74.4199 6.76495 61.3911 2.55894C48.3622 -1.64707 32.5665 7.03259 24.3824 27.3696C16.1982 47.7065 26.5008 61.0337 39.5297 65.2397ZM40.7247 61.5246C51.9108 65.1357 65.3547 57.2891 70.2603 42.093C75.166 26.8969 71.1566 9.84447 59.9706 6.23335C48.7845 2.62223 35.1287 10.3659 27.9451 28.3127C20.7616 46.2596 29.5387 57.9135 40.7247 61.5246Z" fill="#433078"/>
<rect x="19.1426" y="95.7871" width="10.7037" height="38.4431" rx="2.60493" transform="rotate(21.9982 19.1426 95.7871)" fill="#1C1236"/>
<path d="M71.1392 29.1874C73.4107 29.1362 74.4917 29.6221 75.0319 30.3679C75.3055 30.7457 75.4533 31.2064 75.5349 31.738C75.6168 32.271 75.6303 32.8614 75.6447 33.496C75.6479 33.6394 75.652 33.7801 75.656 33.9183C75.67 34.3971 75.683 34.8453 75.6558 35.2635C75.6209 35.7995 75.5205 36.2639 75.2831 36.6505C74.8157 37.4122 73.765 37.9486 71.3379 38.0033C68.9045 38.0581 66.8873 36.1292 66.8324 33.6947C66.7775 31.2602 68.7058 29.2423 71.1392 29.1874Z" fill="#E4E4E4" stroke="#A8CCDF" stroke-width="0.338028"/>
<path d="M85.3119 25.0954L72.8654 29.0937L72.917 31.3804L85.6385 29.5922C86.0386 29.5832 86.8296 29.1507 86.7922 27.4929C86.7549 25.835 85.7898 25.2038 85.3119 25.0954Z" fill="#F1F3F2" stroke="#A8CCDF" stroke-width="0.338028"/>
<path d="M85.9536 37.6929L73.0172 35.8457L72.9673 33.6316L85.8555 33.3411C86.22 33.7148 86.9538 34.676 86.973 35.5311C86.9923 36.3862 86.3014 37.3286 85.9536 37.6929Z" fill="#E8E8E8" stroke="#A8CCDF" stroke-width="0.338028"/>
<path d="M85.7709 29.5894L72.9154 31.3251L72.9674 33.6314L85.8555 33.3409C86.2024 32.9353 86.901 32.3318 86.8809 31.4411C86.8608 30.5504 86.1352 29.9525 85.7709 29.5894Z" fill="#F9FBFA" stroke="#A8CCDF" stroke-width="0.338028"/>
<path d="M85.6835 41.6022L73.0654 37.983L73.0112 35.582L85.802 36.8702C86.2022 36.8611 87.0123 37.2783 87.0516 39.019C87.0908 40.7597 86.1559 41.4664 85.6835 41.6022Z" fill="#F0F2F1" stroke="#A8CCDF" stroke-width="0.338028"/>
<rect x="72.6847" y="28.9934" width="0.981634" height="9.05625" rx="0.206247" transform="rotate(-1.88841 72.6847 28.9934)" fill="#433078" stroke="#A8CCDF" stroke-width="0.338028"/>
<path d="M159.376 63.1965C154.485 31.8773 111.949 30.2535 91.0192 33.4158C127.603 19.5316 165.588 35.4392 168.382 59.3585C170.825 80.2735 152.99 94.249 143.147 97.1748C147.639 93.8949 162.717 84.5901 159.376 63.1965Z" fill="#F9FBFA" stroke="#80ADC4" stroke-width="0.676056"/>
<path d="M136.853 25.265C115.859 20.5076 101.168 27.3198 90.2145 30.1474C101.409 23.434 121.762 17.414 140.704 21.2149C196.79 32.4693 169.243 76.9864 171.161 71.0264C181.59 38.616 157.846 30.0224 136.853 25.265Z" fill="#F9FBFA" stroke="#80ADC4" stroke-width="0.676056"/>
<path d="M168.306 94.2438C182.133 80.3874 182.322 58.8342 181.558 47.1703C184.67 56.5051 187.699 78.8683 174.918 93.6423C162.136 108.416 145.2 109.287 138.329 107.876C143.141 107.359 157.062 105.513 168.306 94.2438Z" fill="#F9FBFA" stroke="#80ADC4" stroke-width="0.676056"/>
</g>
</svg>
