<svg width="164" height="164" viewBox="0 0 164 164" fill="none" xmlns="http://www.w3.org/2000/svg">
<mask id="mask0_6102_5330" style="mask-type:alpha" maskUnits="userSpaceOnUse" x="0" y="0" width="164" height="164">
<circle cx="82" cy="82" r="82" fill="#D9D9D9"/>
</mask>
<g mask="url(#mask0_6102_5330)">
<rect x="-46.9668" y="-17.5405" width="308.986" height="358.899" rx="16.2376" fill="#B6BC64"/>
<path d="M126.513 69.568C115.856 69.291 107.852 81.7352 104.933 89.6443C103.136 111.662 105.328 150.412 128.464 129.275C151.6 108.137 155.941 96.3974 151.712 82.3334C149.008 73.344 134.369 69.7722 126.513 69.568Z" fill="#876B57"/>
<path d="M15.7532 113.43C20.5381 109.52 28.372 106.574 36.9899 99.6322C40.5807 113.43 32.1323 127.256 26.1566 128.279C22.5204 128.901 18.617 128.277 16.1458 125.697C13.9788 123.435 10.9683 117.34 15.7532 113.43Z" fill="#A2856C"/>
<path d="M144.019 136.044C142.021 128.7 129.264 110.277 123.135 101.983C123.657 113.981 125.064 139.055 126.51 143.363C127.956 147.672 132.822 147.824 135.074 147.362C138.888 146.649 146.017 143.388 144.019 136.044Z" fill="#A3856C"/>
<path d="M47.521 177.116C46.6526 168.621 47.1592 154.404 47.521 148.357L77.1938 151.897C78.2794 157.059 80.0887 169.329 78.6412 177.116C77.1938 184.902 68.8709 186.554 64.8905 186.407C59.4625 186.849 48.3895 185.61 47.521 177.116Z" fill="#A3856C"/>
<path d="M82.1973 178.002C81.3288 169.507 81.8354 155.29 82.1973 149.244L111.87 152.783C112.956 157.945 114.765 170.215 113.318 178.002C111.87 185.789 103.547 187.44 99.5667 187.293C94.1388 187.735 83.0658 186.497 82.1973 178.002Z" fill="#A3856C"/>
<path d="M52.2812 166.341C22.2262 154.286 36.031 76.9897 50.155 62.1478C53.882 54.1218 85.7204 41.5968 105.023 60.3589C133.461 88.0017 129.824 149.989 116.704 161.253C103.583 172.517 82.3361 178.397 52.2812 166.341Z" fill="#C2A28A"/>
<path d="M106.21 66.796C102.658 64.9165 102.564 60.7876 104.775 55.4608C107.39 49.1626 112.652 49.0525 116.204 50.932C119.756 52.8115 122.168 57.2648 117.639 62.2671C113.539 66.796 109.762 68.6755 106.21 66.796Z" fill="#C2A28A"/>
<path d="M51.8799 66.6387C48.493 68.4307 44.7281 66.5333 40.9829 62.3207C36.5546 57.3396 38.964 53.3053 42.3509 51.5133C45.7378 49.7213 50.8999 50.0194 53.2479 55.8313C55.3736 61.0931 55.2667 64.8467 51.8799 66.6387Z" fill="#C2A28A"/>
<ellipse cx="1.98866" cy="2.60478" rx="1.98866" ry="2.60478" transform="matrix(0.997044 0.0768285 -0.0699359 0.997552 62.248 81.2476)" fill="#3F3D3B"/>
<ellipse cx="1.98866" cy="2.60478" rx="1.98866" ry="2.60478" transform="matrix(0.997044 0.0768285 -0.0699359 0.997552 92.6938 81.4805)" fill="#3F3D3B"/>
<path d="M78.4901 90.7097C78.5067 90.6857 78.534 90.6714 78.5631 90.6714H81.1668C81.2011 90.6714 81.2323 90.6912 81.2469 90.7222L83.0187 94.4729C83.0243 94.4848 83.0272 94.4977 83.0272 94.5108V97.6761C83.0272 97.7251 82.9875 97.7648 82.9386 97.7648H76.3499C76.3009 97.7648 76.2612 97.7251 76.2612 97.6761V93.9728C76.2612 93.9549 76.2667 93.9373 76.2769 93.9225L78.4901 90.7097Z" fill="white"/>
<path d="M83.0277 88.4739C83.0277 89.4445 82.0585 89.8237 80.3235 90.6707C78.8424 90.2112 77.1074 89.3926 77.1074 88.422C77.1074 87.4513 78.4269 87.124 80.1337 87.124C81.8406 87.124 83.0277 87.5033 83.0277 88.4739Z" fill="#3F3D3B"/>
<path d="M79.5238 89.7826C78.4244 92.9491 76.1758 95.5315 71.4325 93.4052" stroke="#3F3D3B" stroke-width="1.5" stroke-linecap="round"/>
<path d="M80.6071 90.1583C81.5885 93.7753 84.3529 95.3676 89.0962 93.2413" stroke="#3F3D3B" stroke-width="1.5" stroke-linecap="round"/>
<path d="M17.8365 128.598C14.1978 126.683 12.8092 120.22 13.2881 119.023C14.4849 113.756 21.6662 113.756 24.5391 114.474C27.5671 115.231 31.4812 115.193 31.7208 121.895C31.8994 126.89 30.7632 127.64 30.2845 127.88C29.8057 128.119 22.3848 130.992 17.8365 128.598Z" fill="#937B67"/>
<path d="M124.346 98.3745C90.899 115.158 51.549 105.368 36.4649 98.3745C31.218 115.381 29.5787 143.512 37.285 156.545C46.4666 176.253 107.131 182.452 120.749 159.883C133.99 137.938 127.789 110.56 124.346 98.3745Z" fill="#E4D8CE"/>
<path d="M143.845 134.42C142.924 130.168 131.987 112.598 125.734 105.081L123.935 145.481C130.955 143.565 144.767 138.672 143.845 134.42Z" fill="#211E1B"/>
<path d="M13.0394 115.551C13.976 111.213 28.7413 101.812 36.4287 98.7041L31.849 128.963C24.7131 127.009 12.1029 119.889 13.0394 115.551Z" fill="#211E1B"/>
<path d="M125.79 104.591C92.4035 120.434 50.6676 110.702 35.6109 104.101C30.3736 120.154 28.2745 147.2 35.9667 159.502C45.1316 178.106 105.685 183.957 119.279 162.653C132.496 141.938 129.227 116.094 125.79 104.591Z" fill="#F0E5DC"/>
<path d="M36.4296 97.4971C31.1922 113.55 27.2652 150.456 34.9575 162.758C42.6776 169.17 49.8416 170.991 52.4586 171.1C44.7385 158.146 51.3682 124.539 54.5849 109.437L36.4296 97.4971Z" fill="#211E1B"/>
<path d="M124.262 97.6592C129.499 113.712 133.426 150.618 125.734 162.92C118.014 169.332 110.85 171.153 108.233 171.262C115.953 158.308 109.323 124.701 106.107 109.599L124.262 97.6592Z" fill="#211E1B"/>
<path fill-rule="evenodd" clip-rule="evenodd" d="M111.186 120.936H113.72V121.659H111.186V120.936Z" fill="#202020"/>
<path fill-rule="evenodd" clip-rule="evenodd" d="M112.849 119.638V122.264L112.057 123.026V120.437L112.849 119.638Z" fill="#202020"/>
<path fill-rule="evenodd" clip-rule="evenodd" d="M111.661 124.132L113.25 122.609V129.031L111.661 128.231V124.132Z" fill="#202020"/>
<path fill-rule="evenodd" clip-rule="evenodd" d="M104.058 121.77V119.638L113.244 128.468V130.6L104.058 121.77Z" fill="#202020"/>
<path fill-rule="evenodd" clip-rule="evenodd" d="M104.058 119.638L105.641 121.161V129.077L104.058 130.6V119.638Z" fill="#202020"/>
<path fill-rule="evenodd" clip-rule="evenodd" d="M104.058 130.602L107.938 126.948L106.83 125.882L104.083 128.378L104.058 130.602Z" fill="#202020"/>
<ellipse cx="61.4547" cy="89.1541" rx="4.57972" ry="2.1263" fill="#DF7B7B"/>
<ellipse cx="99.0724" cy="89.6463" rx="4.57972" ry="2.28986" fill="#DF7B7B"/>
<ellipse cx="15.5977" cy="116.949" rx="23.7164" ry="9.323" fill="#EEEEEE"/>
<path d="M38.4858 115.64C38.4858 116.697 37.8426 117.706 36.6765 118.625C35.5105 119.544 33.8228 120.372 31.7366 121.068C27.5642 122.458 21.7996 123.319 15.4318 123.319C9.06398 123.319 3.29935 122.458 -0.873038 121.068C-2.95928 120.372 -4.64699 119.544 -5.81297 118.625C-6.97905 117.706 -7.62219 116.697 -7.62219 115.64C-7.62219 114.582 -6.97905 113.573 -5.81297 112.654C-4.64699 111.735 -2.95928 110.907 -0.873038 110.211C3.29935 108.821 9.06398 107.96 15.4318 107.96C21.7996 107.96 27.5642 108.821 31.7366 110.211C33.8228 110.907 35.5105 111.735 36.6765 112.654C37.8426 113.573 38.4858 114.582 38.4858 115.64Z" stroke="#969696" stroke-width="0.0163548"/>
<path d="M36.5164 114.332C36.5164 115.251 35.9217 116.129 34.8392 116.93C33.757 117.73 32.19 118.452 30.2522 119.059C26.3767 120.272 21.0218 121.022 15.1062 121.022C9.19064 121.022 3.83573 120.272 -0.0397396 119.059C-1.97757 118.452 -3.54458 117.73 -4.62678 116.93C-5.7093 116.129 -6.30396 115.251 -6.30396 114.332C-6.30396 113.414 -5.7093 112.536 -4.62678 111.735C-3.54458 110.935 -1.97757 110.213 -0.0397396 109.606C3.83573 108.393 9.19064 107.643 15.1062 107.643C21.0218 107.643 26.3767 108.393 30.2522 109.606C32.19 110.213 33.757 110.935 34.8392 111.735C35.9217 112.536 36.5164 113.414 36.5164 114.332Z" fill="white" stroke="#969696" stroke-width="0.0327096"/>
<path fill-rule="evenodd" clip-rule="evenodd" d="M18.9458 111.563L21.4738 111.732L21.0952 112.017L18.5673 111.848L18.9458 111.563Z" fill="#C29030"/>
<path fill-rule="evenodd" clip-rule="evenodd" d="M21.2881 111.163L19.9119 112.196L18.723 112.443L20.0792 111.424L21.2881 111.163Z" fill="#C29030"/>
<path fill-rule="evenodd" clip-rule="evenodd" d="M17.7405 112.85L20.1238 112.356L16.7578 114.883L15.5916 114.463L17.7405 112.85Z" fill="#C29030"/>
<path fill-rule="evenodd" clip-rule="evenodd" d="M11.3893 111.414L12.5049 110.576L17.0662 114.662L15.9506 115.5L11.3893 111.414Z" fill="#C29030"/>
<path fill-rule="evenodd" clip-rule="evenodd" d="M12.5127 110.576L13.2946 111.28L9.14345 114.396L6.76493 114.89L12.5127 110.576Z" fill="#C29030"/>
<path fill-rule="evenodd" clip-rule="evenodd" d="M6.76326 114.89L12.5486 113.711L12.0006 113.218L7.95247 114.017L6.76326 114.89Z" fill="#C29030"/>
<path d="M101.958 65.1002C90.6721 59.3756 61.0673 63.3011 54.0344 65.1002C49.2594 66.3218 40.2951 84.0734 40.2951 98.7939C38.6595 98.7939 37.0237 97.4854 35.8789 96.504C35.0938 87.868 36.3696 74.4232 44.5478 66.4087C35.0612 57.0857 36.3697 54.6323 41.6037 49.0712C45.7909 44.6224 51.6355 50.9249 54.0344 54.6323C79.4191 43.3793 97.3236 50.9249 103.103 56.1044C103.266 51.6882 105.981 44.099 115.533 49.0712C125.085 54.0435 116.896 62.7013 111.608 66.4087C124.366 77.858 124.366 88.6531 124.366 96.3405L122.239 97.3218C117.169 80.8021 113.244 70.8249 101.958 65.1002Z" fill="#211E1B"/>
<path d="M54.8518 64.7739C47.4333 71.6435 40.2948 87.6725 40.2948 98.7947C39.6405 92.2522 45.2998 66.7367 54.8518 64.7739Z" fill="#767676"/>
<path d="M103.102 65.7544C110.654 71.4789 120.68 87.1324 122.215 98.1481C121.96 91.578 113.734 69.189 103.102 65.7544Z" fill="#767676"/>
<path d="M114.02 73.2769C113.804 75.1851 113.718 79.0015 115.097 79.0015C116.821 79.0015 114.02 75.4032 114.02 73.2769Z" fill="#80ADC4"/>
<path d="M121.746 79.8203C121.53 81.7285 121.023 84.0729 122.402 84.0729C124.126 84.0729 121.746 81.9466 121.746 79.8203Z" fill="#80ADC4"/>
<path d="M56.1409 60.52C56.461 62.3737 56.5891 66.0811 54.5402 66.0811C51.9792 66.0811 56.1409 62.5856 56.1409 60.52Z" fill="#80ADC4"/>
<path d="M49.9265 57.5771C50.2467 59.4308 50.3747 63.1382 48.3259 63.1382C45.7648 63.1382 49.9265 59.6427 49.9265 57.5771Z" fill="#80ADC4"/>
<path d="M47.4268 111.223C47.5904 113.131 47.6558 116.948 46.609 116.948C45.3006 116.948 47.4268 113.349 47.4268 111.223Z" fill="#80ADC4"/>
<path d="M41.5406 120.712C41.7042 122.621 41.7696 126.437 40.7228 126.437C39.4143 126.437 41.5406 122.839 41.5406 120.712Z" fill="#80ADC4"/>
<path d="M44.9499 133.14C45.3901 134.994 45.4216 139.592 42.749 138.701C40.2951 137.883 44.9499 135.206 44.9499 133.14Z" fill="#80ADC4"/>
<path d="M112.03 127.252C111.867 129.16 111.801 132.977 112.848 132.977C114.156 132.977 112.03 129.378 112.03 127.252Z" fill="#80ADC4"/>
<path d="M114.758 118.095C114.398 119.948 114.506 124.705 116.559 123.656C118.477 122.674 114.758 120.16 114.758 118.095Z" fill="#80ADC4"/>
<path d="M121.188 138.704C121.024 140.612 120.959 144.428 122.006 144.428C123.314 144.428 121.188 140.83 121.188 138.704Z" fill="#80ADC4"/>
<path d="M47.1002 68.0454C47.2638 69.9536 47.3292 73.7701 46.2824 73.7701C44.9739 73.7701 47.1002 70.1717 47.1002 68.0454Z" fill="#80ADC4"/>
<path d="M103.103 65.5918C97.3243 61.0666 79.1581 54.7314 52.7266 65.5918C63.5761 62.9203 88.8409 59.1802 103.103 65.5918Z" fill="#393939"/>
</g>
</svg>
