<svg width="160" height="160" viewBox="0 0 160 160" fill="none" xmlns="http://www.w3.org/2000/svg">
<mask id="mask0_6102_5853" style="mask-type:alpha" maskUnits="userSpaceOnUse" x="0" y="0" width="160" height="160">
<circle cx="80" cy="80" r="80" fill="#D9D9D9"/>
</mask>
<g mask="url(#mask0_6102_5853)">
<rect x="-48.6953" y="-11.5942" width="252.821" height="293.662" rx="15.8416" fill="#E7C864"/>
<path d="M134.48 55.0764C122.038 54.753 112.694 69.2813 109.285 78.5151C107.188 104.22 109.746 149.46 136.757 124.782C163.768 100.105 168.836 86.3992 163.898 69.9797C160.742 59.4848 143.651 55.3148 134.48 55.0764Z" fill="#876B57"/>
<path d="M5.16635 106.287C10.7527 101.722 19.8985 98.2824 29.9597 90.1775C34.1518 106.287 24.2886 122.428 17.3121 123.622C13.0669 124.349 8.50974 123.62 5.62466 120.608C3.0948 117.966 -0.419957 110.851 5.16635 106.287Z" fill="#A2856C"/>
<path d="M154.918 132.686C152.585 124.112 137.691 102.604 130.536 92.921C131.146 106.929 132.788 136.202 134.476 141.232C136.165 146.262 141.845 146.439 144.474 145.9C148.927 145.068 157.25 141.261 154.918 132.686Z" fill="#A3856C"/>
<path d="M42.2615 180.635C41.2476 170.717 41.839 154.119 42.2615 147.06L76.9038 151.192C78.1712 157.218 80.2835 171.544 78.5936 180.635C76.9038 189.726 67.187 191.654 62.5399 191.482C56.2029 191.998 43.2754 190.552 42.2615 180.635Z" fill="#A3856C"/>
<path d="M82.741 181.67C81.7271 171.753 82.3185 155.155 82.741 148.096L117.383 152.228C118.651 158.254 120.763 172.579 119.073 181.67C117.383 190.761 107.667 192.69 103.019 192.517C96.6824 193.034 83.7549 191.588 82.741 181.67Z" fill="#A3856C"/>
<path d="M47.8126 168.057C12.7242 153.983 28.8409 63.7414 45.3303 46.4138C49.6815 37.0437 86.8522 22.4211 109.387 44.3254C142.588 76.5976 138.343 148.967 123.025 162.117C107.707 175.268 82.9011 182.132 47.8126 168.057Z" fill="#C2A28A"/>
<path d="M110.777 51.8416C106.63 49.6473 106.521 44.8269 109.102 38.6081C112.155 31.255 118.298 31.1265 122.445 33.3208C126.593 35.515 129.408 40.7142 124.121 46.5543C119.333 51.8416 114.925 54.0358 110.777 51.8416Z" fill="#C2A28A"/>
<path d="M47.3481 51.6548C43.394 53.7469 38.9986 51.5317 34.6261 46.6136C29.4562 40.7983 32.2691 36.0884 36.2232 33.9962C40.1773 31.9041 46.204 32.2521 48.9452 39.0374C51.4269 45.1805 51.3022 49.5626 47.3481 51.6548Z" fill="#C2A28A"/>
<ellipse cx="2.32171" cy="3.04102" rx="2.32171" ry="3.04102" transform="matrix(0.997044 0.0768285 -0.0699359 0.997552 59.4482 68.7119)" fill="#3F3D3B"/>
<ellipse cx="2.32171" cy="3.04102" rx="2.32171" ry="3.04102" transform="matrix(0.997044 0.0768285 -0.0699359 0.997552 94.9956 68.9829)" fill="#3F3D3B"/>
<path d="M78.4173 79.7508C78.4335 79.7274 78.4601 79.7134 78.4885 79.7134H81.5479C81.5814 79.7134 81.6119 79.7327 81.6262 79.7629L83.7009 84.155C83.7064 84.1666 83.7092 84.1792 83.7092 84.192V87.9082C83.7092 87.956 83.6705 87.9947 83.6227 87.9947H75.8966C75.8488 87.9947 75.8101 87.956 75.8101 87.9082V83.5624C75.8101 83.5449 75.8154 83.5278 75.8253 83.5134L78.4173 79.7508Z" fill="white"/>
<path d="M83.7125 77.1482C83.7125 78.2814 82.581 78.7241 80.5555 79.7129C78.8263 79.1764 76.8008 78.2208 76.8008 77.0876C76.8008 75.9544 78.3413 75.5723 80.3339 75.5723C82.3266 75.5723 83.7125 76.015 83.7125 77.1482Z" fill="#3F3D3B"/>
<path d="M79.6215 78.6763C78.3379 82.3731 76.1572 83.5522 70.876 84.8203" stroke="#3F3D3B" stroke-width="1.5" stroke-linecap="round"/>
<path d="M80.8883 79.115C82.0341 83.3377 84.3205 84.303 89.9634 84.709" stroke="#3F3D3B" stroke-width="1.5" stroke-linecap="round"/>
<path d="M7.6028 123.991C3.35475 121.755 1.73358 114.21 2.29262 112.812C3.68986 106.664 12.0739 106.664 15.4279 107.502C18.9631 108.386 23.5327 108.341 23.8125 116.166C24.0209 121.998 22.6944 122.873 22.1356 123.153C21.5766 123.432 12.9129 126.786 7.6028 123.991Z" fill="#937B67"/>
<path d="M40.0023 50.9C62.1335 45.7879 114.087 45.4796 118.747 51.6014C120.051 53.3148 122.003 59.6944 122.654 61.9023C122.668 61.9266 122.679 61.9509 122.685 61.9754C122.968 63.0024 122.916 62.7879 122.654 61.9023C120.616 58.4031 41.946 56.5832 36.7561 61.2115C35.2755 62.532 37.2236 50.6888 40.0023 50.9Z" fill="#4A4AA0"/>
<path d="M131.951 88.7085C92.9018 108.303 46.9615 96.8729 29.3512 88.7085C23.2256 108.563 21.3117 141.406 30.3086 156.621C41.0279 179.63 111.852 186.867 127.751 160.518C143.21 134.898 135.97 102.934 131.951 88.7085Z" fill="#E4D8CE"/>
<path d="M154.713 130.79C153.637 125.826 140.868 105.313 133.568 96.5371L131.468 143.703C139.664 141.467 155.789 135.754 154.713 130.79Z" fill="#C5B7AC"/>
<path d="M2.00167 108.757C3.09512 103.693 20.3333 92.717 29.3081 89.0889L23.9614 124.415C15.6304 122.134 0.908228 113.822 2.00167 108.757Z" fill="#C5B7AC"/>
<path d="M133.636 95.9654C94.6579 114.462 45.9321 103.099 28.3539 95.3926C22.2394 114.134 19.7887 145.71 28.7692 160.073C39.469 181.792 110.164 188.624 126.034 163.751C141.465 139.567 137.648 109.394 133.636 95.9654Z" fill="#F0E5DC"/>
<path fill-rule="evenodd" clip-rule="evenodd" d="M116.586 115.044H119.544V115.889H116.586V115.044Z" fill="#202020"/>
<path fill-rule="evenodd" clip-rule="evenodd" d="M118.529 113.533V116.599L117.604 117.488V114.466L118.529 113.533Z" fill="#202020"/>
<path fill-rule="evenodd" clip-rule="evenodd" d="M117.14 118.776L118.995 116.999V124.495L117.14 123.562V118.776Z" fill="#202020"/>
<path fill-rule="evenodd" clip-rule="evenodd" d="M108.27 116.019V113.53L118.994 123.839V126.328L108.27 116.019Z" fill="#202020"/>
<path fill-rule="evenodd" clip-rule="evenodd" d="M108.27 113.53L110.119 115.308V124.55L108.27 126.328V113.53Z" fill="#202020"/>
<path fill-rule="evenodd" clip-rule="evenodd" d="M108.264 126.331L112.794 122.065L111.5 120.821L108.292 123.735L108.264 126.331Z" fill="#202020"/>
<circle cx="9.44786" cy="87.7525" r="21.1959" fill="#E6B61B"/>
<mask id="mask1_6102_5853" style="mask-type:alpha" maskUnits="userSpaceOnUse" x="-12" y="66" width="43" height="43">
<circle cx="9.44786" cy="87.7525" r="21.1959" fill="#E6B61B"/>
</mask>
<g mask="url(#mask1_6102_5853)">
<path d="M6.0117 74.5758C4.86597 70.1839 6.90269 66.9377 8.30302 64.8372L17.278 63.5005C16.8324 65.5373 11.6639 70.1457 14.4137 75.3396C17.1634 80.5336 15.5594 86.0331 15.5594 88.7064C15.5594 88.7064 17.6599 91.1888 19.1875 92.1436C24.8451 95.6796 30.7543 89.4702 35.4186 88.7064C37.4555 89.9795 33.3181 98.7228 28.5443 99.5908C18.4619 101.424 13.2043 96.4719 12.3132 93.6712C11.4221 93.7985 7.80676 96.1918 5.05692 97.8722C2.30709 99.5526 0.919507 105.956 0.0921197 108.757L-6.78223 102.646C-5.70015 102.01 -4.27573 99.1348 -2.96315 95.9627C-0.671697 90.425 6.52095 89.4702 9.25791 88.7064C11.3584 81.6411 7.06884 78.6282 6.0117 74.5758Z" fill="#4A4AA0"/>
</g>
<path fill-rule="evenodd" clip-rule="evenodd" d="M10.959 79.4868L10.785 78.7575L11.0115 78.6969L11.1855 79.4262L10.959 79.4868Z" fill="white"/>
<path fill-rule="evenodd" clip-rule="evenodd" d="M10.4673 79.1104L11.2399 78.9039L11.5151 79.0604L10.7537 79.2639L10.4673 79.1104Z" fill="white"/>
<path fill-rule="evenodd" clip-rule="evenodd" d="M11.8619 79.1038L11.306 78.7768L13.1946 78.2795L13.0676 78.7863L11.8619 79.1038Z" fill="white"/>
<path fill-rule="evenodd" clip-rule="evenodd" d="M11.7035 81.4929L11.0708 81.6616L13.0566 78.3262L13.6892 78.1574L11.7035 81.4929Z" fill="white"/>
<path fill-rule="evenodd" clip-rule="evenodd" d="M11.1108 81.6616L11.4495 81.1035L13.7713 80.4972L14.3257 80.8222L11.1108 81.6616Z" fill="white"/>
<path fill-rule="evenodd" clip-rule="evenodd" d="M14.3345 80.8271L12.9761 80.0014L12.7354 80.4046L13.67 80.9963L14.3345 80.8271Z" fill="white"/>
<path d="M-0.665353 94.9271C-0.641786 94.9128 -0.620119 94.9199 -0.603291 94.9476L-0.562612 95.0146L-0.581378 95.026L-0.619275 94.9636C-0.63014 94.9457 -0.642844 94.9361 -0.660301 94.9467C-0.681905 94.9598 -0.677703 94.9845 -0.661537 95.0111L-0.633314 95.0576L-0.65208 95.0689L-0.717405 94.9614L-0.698638 94.95L-0.689761 94.9646C-0.68892 94.9497 -0.679973 94.936 -0.665353 94.9271ZM-0.510583 94.983L-0.607985 94.8949L-0.58791 94.8827L-0.51834 94.9486L-0.540775 94.8541L-0.523973 94.8439L-0.450475 94.9074L-0.476838 94.8153L-0.456762 94.8031L-0.423515 94.9302L-0.440754 94.9406L-0.516364 94.8751L-0.493344 94.9726L-0.510583 94.983ZM-0.364074 94.8941L-0.456429 94.742L-0.410822 94.7143C-0.377872 94.6943 -0.351054 94.6986 -0.334093 94.7265C-0.316868 94.7549 -0.325572 94.7814 -0.358086 94.8011L-0.384271 94.817L-0.344653 94.8823L-0.364074 94.8941ZM-0.395137 94.7991L-0.370915 94.7844C-0.348657 94.7709 -0.342914 94.7558 -0.353382 94.7385C-0.363717 94.7215 -0.379663 94.7198 -0.401921 94.7334L-0.426143 94.7481L-0.395137 94.7991ZM-0.220141 94.8094C-0.233234 94.8173 -0.247349 94.8142 -0.258082 94.7966L-0.335729 94.6687L-0.316963 94.6573L-0.239978 94.7841C-0.236002 94.7906 -0.230999 94.7929 -0.224671 94.7891C-0.221616 94.7873 -0.218654 94.7843 -0.216129 94.7815L-0.206503 94.7969C-0.210462 94.8017 -0.215341 94.8064 -0.220141 94.8094ZM-0.180927 94.6356L-0.16216 94.6242L-0.0968353 94.7318L-0.115602 94.7432L-0.12448 94.7286C-0.125227 94.7446 -0.135358 94.7579 -0.148887 94.7661C-0.1742 94.7815 -0.195976 94.7702 -0.211347 94.7449L-0.251628 94.6785L-0.232862 94.6671L-0.195363 94.7289C-0.186883 94.7429 -0.174451 94.7589 -0.154157 94.7466C-0.131681 94.7329 -0.137465 94.7072 -0.152571 94.6823L-0.180927 94.6356ZM-0.0259435 94.6914C-0.0475468 94.7046 -0.0720736 94.703 -0.08795 94.6897L-0.0766969 94.6733C-0.0671102 94.6812 -0.0523332 94.6854 -0.0364035 94.6757C-0.0224377 94.6672 -0.0189546 94.6552 -0.0246523 94.6458C-0.0398904 94.6208 -0.0900085 94.673 -0.113594 94.6341C-0.125387 94.6147 -0.115693 94.5933 -0.0945262 94.5805C-0.0768508 94.5697 -0.0578966 94.569 -0.0411163 94.5794L-0.0510523 94.5965C-0.0611532 94.5907 -0.0726333 94.589 -0.0852898 94.5967C-0.0970734 94.6038 -0.101445 94.6133 -0.096675 94.6212C-0.083027 94.6437 -0.0312799 94.5931 -0.00676659 94.6335C0.00714639 94.6564 -0.00543131 94.679 -0.0259435 94.6914Z" fill="white"/>
</g>
</svg>
