<svg width="160" height="160" viewBox="0 0 160 160" fill="none" xmlns="http://www.w3.org/2000/svg">
<mask id="mask0_6102_5782" style="mask-type:alpha" maskUnits="userSpaceOnUse" x="0" y="0" width="160" height="160">
<circle cx="80" cy="80" r="80" fill="#D9D9D9"/>
</mask>
<g mask="url(#mask0_6102_5782)">
<rect x="-81.1602" y="-115.942" width="301.449" height="350.145" rx="15.8416" fill="#EFCF69"/>
<path d="M125.908 99.522C124.753 94.4544 116.519 81.511 112.547 75.6727C112.545 83.8698 112.758 101.009 113.624 103.99C114.49 106.971 117.838 107.22 119.403 106.972C122.053 106.6 127.063 104.59 125.908 99.522Z" fill="#A3856C"/>
<path d="M50.2383 142.905C49.5083 135.748 49.9378 123.772 50.2438 118.679L75.2393 121.666C76.1528 126.015 77.6746 136.351 76.4538 142.911C75.233 149.47 68.2215 150.86 64.8684 150.735C60.2959 151.106 50.9682 150.061 50.2383 142.905Z" fill="#A3856C"/>
<path d="M79.4492 143.661C78.7192 136.505 79.1487 124.529 79.4547 119.436L104.45 122.423C105.364 126.771 106.886 137.108 105.665 143.667C104.444 150.227 97.4325 151.617 94.0794 151.492C89.5068 151.863 80.1792 150.818 79.4492 143.661Z" fill="#A3856C"/>
<path d="M51.4003 133.834C26.0844 123.673 39.327 64.5519 48.6192 44.554L95.8497 44.5647C124.539 82.89 121.581 119.145 110.526 128.631C99.4715 138.118 76.7161 143.995 51.4003 133.834Z" fill="#C2A28A"/>
<path d="M82.4406 78.5893C82.453 78.5713 82.4735 78.5605 82.4954 78.5605L84.6981 78.561C84.7239 78.561 84.7473 78.5759 84.7583 78.5991L86.2531 81.7654C86.2573 81.7743 86.2594 81.784 86.2594 81.7938L86.2588 84.4702C86.2588 84.507 86.229 84.5368 86.1923 84.5368L80.6257 84.5355C80.589 84.5355 80.5592 84.5057 80.5592 84.4689L80.5599 81.3386C80.5599 81.3252 80.564 81.312 80.5717 81.3009L82.4406 78.5893Z" fill="white"/>
<path d="M86.2589 76.7134C86.2587 77.5311 85.4422 77.8504 83.9805 78.5635C82.7329 78.1761 81.2715 77.4862 81.2717 76.6686C81.2719 75.8509 82.3835 75.5754 83.8213 75.5758C85.2591 75.5761 86.2591 75.8958 86.2589 76.7134Z" fill="#3F3D3B"/>
<path d="M83.3105 77.8152C82.3837 80.4825 80.81 81.3329 76.9991 82.247" stroke="#3F3D3B" stroke-width="1.58416" stroke-linecap="round"/>
<path d="M84.2222 78.1323C85.0482 81.1795 86.6978 81.8764 90.7694 82.1702" stroke="#3F3D3B" stroke-width="1.58416" stroke-linecap="round"/>
<path d="M67.2517 72.5994C68.532 73.7138 71.6934 75.3035 74.0962 72.7466" stroke="#3F3D3B" stroke-width="1.58416" stroke-linecap="round"/>
<path d="M91.5368 72.9856C92.8172 74.1001 95.9786 75.6897 98.3813 73.1328" stroke="#3F3D3B" stroke-width="1.58416" stroke-linecap="round"/>
<path d="M40.8191 194.681C30.0792 186.135 27.2622 178.085 31.363 164.345C29.2679 162.311 22.8135 144.923 31.9973 134.849C26.5652 129.678 28.0371 121.884 30.9768 113.632C24.5885 100.288 28.575 89.2872 32.9751 89.3818C34.873 89.4226 38.3641 87.4966 43.0789 89.5991C49.2944 92.3708 57.1001 99.1109 60.8647 96.5031C64.8388 93.7503 92.1789 91.4705 100.166 95.3373C109.294 89.3818 130.102 91.4705 130.102 91.4705C130.102 91.4705 135.408 102.508 127.859 115.715C131.735 121.668 131.525 131.446 126.631 139.166C137.568 146.086 130.225 166.208 128.458 167.901C135.921 177.192 129.969 188.639 125.478 192.782C93.5842 217.628 55.5119 206.372 40.8191 194.681Z" fill="#A63336"/>
<path d="M47.2315 40.0834C29.3994 54.0441 31.8369 76.5895 33.1307 89.7149L47.2315 93.605C48.5036 79.937 52.8858 52.5101 81.9642 52.8746C86.3173 52.9292 90.016 53.5428 93.1566 54.5935C110.995 60.5618 110.829 80.6318 110.297 92.4504L130.094 91.8001C133.861 83.4573 134.814 61.7625 121.356 44.6474C104.534 23.2535 61.8247 28.6583 47.2315 40.0834Z" fill="#A63336"/>
<path d="M64.3796 57.1903C62.1255 53.6549 57.4352 51.9687 55.3717 51.5676C61.5185 52.6868 63.9288 54.9349 64.3656 55.919L67.3287 54.1911C67.3231 53.6826 65.7443 52.16 64.9557 51.4623C65.4668 51.4567 67.0331 53.1348 67.7523 53.9746L69.6598 53.106C69.3134 52.6012 69.7669 49.9261 70.0369 48.6516C69.8888 50.6876 70.8674 53.1633 71.3752 54.1467C68.8214 54.3443 65.6474 56.2581 64.3796 57.1903Z" fill="#781E21"/>
<path d="M49.2073 80.8618C45.0964 80.0373 40.6306 82.2507 38.9116 83.4605C43.9777 79.8041 47.2687 79.6239 48.281 79.9909L49.0883 76.6572C48.7178 76.3089 41.7458 76.3916 40.6962 76.4768C41.0464 76.1043 48.0056 75.6123 49.1094 75.6756L49.9211 74.2245C49.3172 74.1245 46.6577 72.199 46.2143 70.07C48.325 73.1783 50.4654 72.9319 51.5263 73.2472C50.328 75.8993 49.4136 79.3017 49.2073 80.8618Z" fill="#781E21"/>
<path d="M106.568 65.6269C111.935 62.3924 115.064 54.8695 115.957 51.5124C113.403 61.5236 109.836 65.1964 108.372 65.7815L110.356 70.9242C111.078 70.986 113.485 68.5874 114.598 67.3803C114.526 68.2266 111.9 70.5829 110.596 71.6552L111.528 74.9318C112.298 74.4295 116.019 75.5533 117.784 76.178C114.92 75.6486 111.256 76.9214 109.782 77.624C109.904 73.3719 107.69 67.8543 106.568 65.6269Z" fill="#781E21"/>
<path d="M31.9414 112.12C45.118 105.917 50.8658 103.988 76.5936 113.08C66.2378 109.42 46.6003 105.219 31.9414 112.12Z" fill="#862629"/>
<path d="M77.9896 93.7111C81.8405 102.663 80.5603 158.656 79.4389 185.534L85.3056 185.66C87.2051 164.049 85.0316 115.003 83.7074 93.1819L77.9896 93.7111Z" fill="#D9D9D9"/>
<path d="M80.5992 93.6046C82.31 112.608 85.1282 157.451 82.7142 184.789" stroke="black" stroke-width="0.0726013"/>
<path d="M31.1372 164.8C41.9073 161.833 65.9158 157.87 75.7894 165.76C62.5145 161.372 46.9622 162.814 31.1372 164.8Z" fill="#862629"/>
<path d="M88.7549 138.976C103.308 129.404 119.97 133.185 128.844 139.838C119.652 135.114 103.922 131.201 88.7549 138.976Z" fill="#862629"/>
<path d="M88.6187 114.97C100.124 110.687 114.039 108.051 128.708 115.832C120.135 112.676 104.397 109.096 88.6187 114.97Z" fill="#862629"/>
<path d="M110.621 91.6387C115.501 90.0211 126.374 87.8435 130.828 92.0732C127.078 91.4706 117.787 90.5401 110.621 91.6387Z" fill="#862629"/>
<path d="M33.5781 89.1216C37.2129 88.1015 45.0493 87.2305 47.3167 91.9073C44.8632 90.8774 38.6806 88.8783 33.5781 89.1216Z" fill="#862629"/>
<path d="M31.7686 135.271C44.0715 131.785 63.8392 129.928 76.4208 136.231C55.0356 129.901 47.5715 134.306 31.7686 135.271Z" fill="#862629"/>
<path d="M79.3083 114.875C78.6818 113.16 78.0395 110.186 77.7967 108.914L84.1334 108.088C84.6297 109.101 85.6497 111.549 85.759 113.239C85.8682 114.929 84.2299 115.709 83.397 115.888C82.2952 116.265 79.9348 116.59 79.3083 114.875Z" fill="#271507"/>
<path d="M86.5451 113.237C85.9186 111.521 85.2763 108.548 85.0335 107.276L91.3702 106.45C91.8665 107.462 92.8865 109.911 92.9958 111.601C93.105 113.291 91.4667 114.071 90.6338 114.25C89.532 114.627 87.1716 114.952 86.5451 113.237Z" fill="#271507"/>
<path d="M89.3292 88.6083C87.1055 89.111 86.1006 92.1112 85.9112 93.9041C86.6961 98.5623 89.1872 106.479 92.8719 100.882C96.5566 95.2843 96.8392 92.6227 95.2233 89.9298C94.1905 88.2085 90.9682 88.2377 89.3292 88.6083Z" fill="#271507"/>
<path d="M79.1047 88.1826C70.2952 89.9384 70.5807 96.0359 71.8246 98.8651L72.5913 100.037C71.5839 101.9 69.8473 105.949 70.9596 107.238C72.0719 108.527 73.4372 107.862 73.9808 107.368C74.3039 109.933 77.154 114.495 85.9698 112.225C94.7856 109.956 94.8987 104.397 93.8533 101.902C94.8053 101.504 96.6506 100.51 96.4151 99.7156C96.1795 98.9216 92.5174 95.6241 90.7158 94.0746C90.5161 91.379 87.9142 86.4268 79.1047 88.1826Z" fill="#3C2412"/>
<path d="M84.9751 89.1027C84.14 88.8998 83.9036 88.0489 84.0819 86.8286C84.2929 85.3856 85.3778 85.0862 86.2129 85.2891C87.048 85.4919 87.782 86.2883 87.1061 87.5632C86.4942 88.7175 85.8103 89.3056 84.9751 89.1027Z" fill="#3C2412"/>
<path d="M73.7062 91.9293C73.0984 92.4787 72.2182 92.2833 71.2205 91.607C70.0408 90.8073 70.3281 89.8444 70.936 89.2949C71.5438 88.7454 72.6295 88.5359 73.4217 89.6172C74.1389 90.5961 74.3141 91.3798 73.7062 91.9293Z" fill="#3C2412"/>
<ellipse cx="81.4445" cy="96.5515" rx="6.70327" ry="4.30334" transform="rotate(-14.2292 81.4445 96.5515)" fill="#C2A28A"/>
<ellipse cx="0.424201" cy="0.555626" rx="0.424201" ry="0.555626" transform="matrix(0.98534 -0.170603 0.177409 0.984137 77.6338 96.3945)" fill="#3F3D3B"/>
<ellipse cx="0.424201" cy="0.555626" rx="0.424201" ry="0.555626" transform="matrix(0.98534 -0.170603 0.177409 0.984137 83.958 94.8389)" fill="#3F3D3B"/>
<path d="M81.4976 97.5021C81.4995 97.4969 81.5039 97.4929 81.5093 97.4916L82.0513 97.3541C82.0576 97.3525 82.0643 97.3547 82.0685 97.3598L82.634 98.0455C82.6356 98.0474 82.6368 98.0496 82.6374 98.0521L82.8044 98.7106C82.8067 98.7197 82.8012 98.7289 82.7921 98.7311L81.4224 99.0785C81.4134 99.0808 81.4042 99.0753 81.4019 99.0663L81.2066 98.296C81.2057 98.2927 81.2059 98.2892 81.2071 98.286L81.4976 97.5021Z" fill="white"/>
<path d="M82.3275 96.7961C82.3788 96.9981 82.1971 97.1282 81.8808 97.3959C81.5483 97.3785 81.1441 97.2997 81.0929 97.0977C81.0417 96.8957 81.299 96.758 81.6541 96.6679C82.0093 96.5779 82.2763 96.5942 82.3275 96.7961Z" fill="#3F3D3B"/>
<path d="M81.6665 97.2521C81.605 97.9662 81.0932 98.6888 80.1978 98.0194" stroke="#3F3D3B" stroke-width="0.0337808" stroke-linecap="round"/>
<path d="M81.9097 97.2767C82.3032 97.9749 83.2081 98.284 83.6362 97.279" stroke="#3F3D3B" stroke-width="0.0337808" stroke-linecap="round"/>
<ellipse cx="77.8761" cy="98.4805" rx="1.11721" ry="0.413782" transform="rotate(-14.2292 77.8761 98.4805)" fill="#ED8585"/>
<ellipse cx="85.8775" cy="96.3672" rx="1.11721" ry="0.413782" transform="rotate(-14.2292 85.8775 96.3672)" fill="#ED8585"/>
<path d="M82.8688 101.783C81.9235 101.197 80.0677 100.265 80.2074 101.219C80.382 102.413 80.6691 104.219 82.8688 101.783Z" fill="#E9ABAB" stroke="#ED8585" stroke-width="0.0147439"/>
<path d="M82.733 101.814C83.2851 100.848 84.4723 99.1444 84.8045 100.051C85.2198 101.183 85.8277 102.907 82.733 101.814Z" fill="#E9ABAB" stroke="#ED8585" stroke-width="0.0147439"/>
<path d="M82.8018 101.755C83.2751 102.218 84.34 103.141 84.8136 103.123C85.2872 103.105 84.6992 103.906 84.3459 104.309L82.8018 101.755C83.009 102.684 83.3031 104.573 82.8218 104.695C82.2202 104.848 81.4965 104.519 81.897 104.247C82.2174 104.029 82.6337 102.495 82.8018 101.755Z" fill="#E9ABAB"/>
<path d="M82.8018 101.755C83.2751 102.218 84.34 103.141 84.8136 103.123C85.2872 103.105 84.6992 103.906 84.3459 104.309L82.8018 101.755ZM82.8018 101.755C83.009 102.684 83.3031 104.573 82.8218 104.695C82.2202 104.848 81.4965 104.519 81.897 104.247C82.2174 104.029 82.6337 102.495 82.8018 101.755Z" stroke="#ED8585" stroke-width="0.00737197"/>
<path d="M78.249 106.591C76.6926 108.718 72.6803 112.155 69.0828 108.892C66.083 106.172 52.7948 102.242 52.3447 95.5167C52.255 94.177 52.3177 94.2925 57.0443 92.2817C61.7709 90.2708 63.585 91.5146 65.536 91.6491C72.1475 92.1047 76.9769 98.6507 78.5427 100.258C80.5705 102.339 79.1918 105.347 78.249 106.591Z" fill="#A3856C"/>
<path d="M89.4857 114.111C91.8772 115.218 97.0522 116.282 98.6198 111.686C99.927 107.853 109.65 97.9796 106.788 91.8777C106.217 90.6622 106.218 90.7936 101.109 91.323C96 91.8525 95.0151 93.8192 93.3733 94.8815C87.8093 98.4818 86.7536 106.548 86.1618 108.712C85.3954 111.515 88.0584 113.479 89.4857 114.111Z" fill="#A3856C"/>
<path d="M99.3793 52.3339V52.4511L98.9477 52.9918H99.3793V53.1426H98.7226V53.03L99.16 52.4836H98.7493V52.3339H99.3793Z" fill="white"/>
<path d="M109.133 38.6702V38.7829L108.718 39.3027H109.133V39.4478H108.502V39.3395L108.923 38.8141H108.528V38.6702H109.133Z" fill="white"/>
<path d="M108.255 51.9727V52.047L107.981 52.3901H108.255V52.4858H107.838V52.4144L108.116 52.0676H107.855V51.9727H108.255Z" fill="white"/>
</g>
</svg>
