<svg width="160" height="160" viewBox="0 0 160 160" fill="none" xmlns="http://www.w3.org/2000/svg">
<mask id="mask0_6102_5666" style="mask-type:alpha" maskUnits="userSpaceOnUse" x="0" y="0" width="160" height="160">
<circle cx="80" cy="80" r="80" fill="#D9D9D9"/>
</mask>
<g mask="url(#mask0_6102_5666)">
<rect x="-81.1602" y="-115.942" width="301.449" height="350.145" rx="15.8416" fill="#A9CEFF"/>
<path d="M130.477 50.4276C119.1 50.1319 110.556 63.4164 107.439 71.8596C105.521 95.3637 107.86 136.731 132.559 114.166C157.258 91.6011 161.891 79.0687 157.376 64.055C154.491 54.4586 138.862 50.6456 130.477 50.4276Z" fill="#694931"/>
<path d="M20.8081 113.148C22.2527 106.712 32.5453 90.2735 37.511 82.8589C37.511 93.2709 37.2401 115.041 36.1567 118.828C35.0733 122.614 30.89 122.929 28.9338 122.614C25.6234 122.14 19.3635 119.585 20.8081 113.148Z" fill="#A3856C"/>
<path d="M145.639 110.234C144.174 103.812 133.736 87.412 128.701 80.0146C128.701 90.4025 128.975 112.122 130.074 115.9C131.173 119.677 135.415 119.992 137.399 119.677C140.756 119.205 147.104 116.655 145.639 110.234Z" fill="#A3856C"/>
<path d="M49.7585 165.24C48.8314 156.172 49.3722 140.995 49.7585 134.54L81.4349 138.319C82.5938 143.829 84.5253 156.927 82.9801 165.24C81.4349 173.553 72.55 175.316 68.3008 175.159C62.5063 175.631 50.6856 174.308 49.7585 165.24Z" fill="#A3856C"/>
<path d="M86.7756 166.185C85.8485 157.117 86.3893 141.94 86.7756 135.485L118.452 139.263C119.611 144.774 121.542 157.872 119.997 166.185C118.452 174.498 109.567 176.261 105.318 176.103C99.5234 176.576 87.7027 175.253 86.7756 166.185Z" fill="#A3856C"/>
<path d="M51.232 153.739C19.1476 140.87 35.9122 65.9456 47.682 40.6006H107.535C143.903 89.16 140.164 135.105 126.158 147.129C112.151 159.154 83.3164 166.609 51.232 153.739Z" fill="#C2A28A"/>
<path d="M105.717 52.3384C101.925 50.332 101.825 45.9243 104.185 40.2379C106.976 33.5143 112.594 33.3968 116.386 35.4032C120.178 37.4096 122.753 42.1637 117.918 47.5037C113.54 52.3384 109.509 54.3448 105.717 52.3384Z" fill="#C2A28A"/>
<path d="M52.3537 51.7969C48.7382 53.7099 44.7191 51.6845 40.7209 47.1874C35.9937 41.87 38.5658 37.5632 42.1813 35.6503C45.7969 33.7372 51.3076 34.0554 53.8141 40.2598C56.0833 45.8769 55.9693 49.8839 52.3537 51.7969Z" fill="#C2A28A"/>
<path d="M81.6618 83.839C81.6778 83.8157 81.7043 83.8018 81.7326 83.8018H84.5221C84.5553 83.8018 84.5856 83.8209 84.5998 83.851L86.4944 87.8617C86.4998 87.8732 86.5026 87.8858 86.5026 87.8985V91.2881C86.5026 91.3356 86.4641 91.3741 86.4166 91.3741H79.3658C79.3183 91.3741 79.2798 91.3356 79.2798 91.2881V87.3234C79.2798 87.306 79.2851 87.289 79.295 87.2747L81.6618 83.839Z" fill="white"/>
<path d="M86.5036 81.4556C86.5036 82.4918 85.469 82.8966 83.6168 83.8008C82.0357 83.3103 80.1836 82.4364 80.1836 81.4002C80.1836 80.3641 81.5922 80.0146 83.4143 80.0146C85.2363 80.0146 86.5036 80.4195 86.5036 81.4556Z" fill="#3F3D3B"/>
<path d="M82.7661 82.8579C81.5924 86.2382 79.5984 87.3163 74.7693 88.4759" stroke="#3F3D3B" stroke-width="1.5" stroke-linecap="round"/>
<path d="M83.9236 83.2597C84.9713 87.1209 87.0619 88.0035 92.2217 88.3747" stroke="#3F3D3B" stroke-width="1.5" stroke-linecap="round"/>
<path d="M59.3642 125.15L87.3548 140.357C87.3778 140.369 87.4041 140.374 87.43 140.371L150.57 131.478C150.675 131.463 150.712 131.33 150.63 131.263L134.127 117.841C134.102 117.82 134.071 117.811 134.039 117.814L59.4108 124.921C59.2911 124.933 59.2586 125.092 59.3642 125.15Z" fill="#BFBFBF"/>
<path d="M70.1351 126.979L91.5254 137.455C91.5468 137.465 91.5707 137.469 91.5943 137.466L140.044 131.315C140.153 131.301 140.189 131.161 140.1 131.096L127.499 121.857C127.476 121.84 127.446 121.831 127.417 121.834L70.1783 126.748C70.0553 126.759 70.0242 126.924 70.1351 126.979Z" fill="#A8A8A8"/>
<path d="M85.8271 96.4158C85.8271 96.2723 85.9342 96.1513 86.0767 96.1338L152.986 87.9064C153.156 87.8856 153.305 88.0178 153.305 88.1885V131.181C153.305 131.323 153.201 131.443 153.061 131.463L86.1514 140.999C85.9803 141.023 85.8271 140.89 85.8271 140.718V96.4158Z" fill="url(#paint0_linear_6102_5666)"/>
<path d="M126.819 110.345H130.965V111.528H126.819V110.345Z" fill="#9A9A9A"/>
<path d="M126.819 110.345H130.965V111.528H126.819V110.345Z" stroke="#979797"/>
<path d="M129.533 108.213V112.54L128.237 113.794V109.53L129.533 108.213Z" fill="#9A9A9A"/>
<path d="M129.533 108.213V112.54L128.237 113.794V109.53L129.533 108.213Z" stroke="#979797"/>
<path d="M127.586 115.597L130.185 113.092V123.657L127.586 122.342V115.597Z" fill="#9A9A9A"/>
<path d="M127.586 115.597L130.185 113.092V123.657L127.586 122.342V115.597Z" stroke="#979797"/>
<path d="M115.147 111.716V108.212L130.177 122.727V126.231L115.147 111.716Z" fill="#9A9A9A"/>
<path d="M115.147 111.716V108.212L130.177 122.727V126.231L115.147 111.716Z" stroke="#979797"/>
<path d="M115.147 108.212L117.739 110.715V123.729L115.147 126.231L115.147 108.212Z" fill="#9A9A9A"/>
<path d="M115.147 108.212L117.739 110.715V123.729L115.147 126.231L115.147 108.212Z" stroke="#979797"/>
<path d="M115.147 126.244L121.496 120.225L119.682 118.47L115.188 122.582L115.147 126.244Z" fill="#9A9A9A"/>
<path d="M115.147 126.244L121.496 120.225L119.682 118.47L115.188 122.582L115.147 126.244Z" stroke="#979797"/>
<path d="M80.5639 40.8934C86.02 34.0247 96.208 25.8293 109.21 39.3248C122.265 52.8754 125.804 47.4497 125.941 43.043C126.079 48.6891 123.876 68.8635 106.318 60.1878C90.5898 52.4163 87.314 49.0334 80.4974 53.9909C77.7432 51.2368 71.5738 51.099 64.7985 57.7091C53.2309 68.9945 44.3487 65.1454 40.0108 60.1878C36.5406 56.2218 38.5649 49.1022 40.0108 48.0005C41.2502 49.653 42.9854 48.8681 46.6209 44.902C51.1653 39.9445 53.6794 34.1607 67.0707 34.1607C74.1594 34.1607 81.5129 39.4094 80.5639 40.8934Z" fill="#1E1E1E"/>
<path opacity="0.4" d="M80.4985 40.9746V54.1947" stroke="#C2A28A" stroke-width="0.0375328"/>
<ellipse cx="10.1695" cy="9.97706" rx="10.1695" ry="9.97706" transform="matrix(-0.998957 0.00866347 -0.00802445 1.00101 112.052 66.9453)" fill="white"/>
<ellipse cx="10.1695" cy="9.97706" rx="10.1695" ry="9.97706" transform="matrix(-0.998957 0.00866347 -0.00802445 1.00101 76.2754 67.0522)" fill="white"/>
<ellipse cx="2.59648" cy="2.63" rx="2.59648" ry="2.63" transform="matrix(-0.996745 0.0806199 0.066642 0.997777 107.953 75.9551)" fill="#3F3D3B"/>
<ellipse cx="2.59648" cy="2.63" rx="2.59648" ry="2.63" transform="matrix(-0.996745 0.0806199 0.066642 0.997777 72.1758 76.062)" fill="#3F3D3B"/>
</g>
<defs>
<linearGradient id="paint0_linear_6102_5666" x1="99.9037" y1="89.8781" x2="142.58" y2="139.481" gradientUnits="userSpaceOnUse">
<stop stop-color="#D9D9D9"/>
<stop offset="1" stop-color="#ACACAC"/>
</linearGradient>
</defs>
</svg>
