<svg width="160" height="160" viewBox="0 0 160 160" fill="none" xmlns="http://www.w3.org/2000/svg">
<mask id="mask0_6102_5707" style="mask-type:alpha" maskUnits="userSpaceOnUse" x="0" y="0" width="160" height="160">
<circle cx="80" cy="80" r="80" fill="#D9D9D9"/>
</mask>
<g mask="url(#mask0_6102_5707)">
<rect x="-45.8237" y="-17.1128" width="301.449" height="350.145" rx="15.8416" fill="#F6BACF"/>
<path d="M132.602 60.4871C119.693 60.1516 109.998 75.225 106.462 84.8052C104.286 111.474 106.94 158.412 134.965 132.809C162.989 107.205 168.247 92.9851 163.124 75.9496C159.849 65.0609 142.117 60.7344 132.602 60.4871Z" fill="#694931"/>
<path d="M8.16492 131.653C9.80402 124.35 21.4826 105.698 27.117 97.2852C27.117 109.099 26.8097 133.801 25.5804 138.097C24.3511 142.393 19.6045 142.751 17.3849 142.393C13.6286 141.856 6.52582 138.957 8.16492 131.653Z" fill="#A3856C"/>
<path d="M149.804 128.348C148.142 121.061 136.298 102.453 130.585 94.0591C130.585 105.846 130.896 130.491 132.143 134.777C133.389 139.063 138.203 139.42 140.454 139.063C144.263 138.527 151.466 135.634 149.804 128.348Z" fill="#A3856C"/>
<path d="M10.5005 121.716L24.0945 100.622C22.5945 113.56 22.0633 131.17 21.9851 138.357C13.9224 132.357 10.9692 124.763 10.5005 121.716Z" fill="#D1A5A6"/>
<path d="M136.599 137.657C144.662 131.657 147.615 124.063 148.084 121.016C148.084 121.016 143.396 112.109 141.521 109.765C139.646 107.422 131.912 95.4683 131.912 95.4683C133.412 108.406 136.521 130.469 136.599 137.657Z" fill="#D1A5A6"/>
<path d="M42.6819 177.704C6.27694 163.101 25.299 78.0876 38.6538 49.3296H106.566C147.832 104.428 143.59 156.56 127.698 170.204C111.805 183.848 79.0869 192.307 42.6819 177.704Z" fill="#C2A28A"/>
<path d="M25.0677 83.5455C25.4716 74.6621 28.7825 60.7768 42.1422 45.0733C55.5019 29.3698 85.9713 22.3382 107.534 41.089C129.097 59.8398 153.707 103.668 107.534 111.638C121.597 101.324 121.597 87.496 110.816 78.1208C100.034 68.7455 25.0677 67.3393 42.3766 106.012C43.0189 107.447 43.3141 108.59 45.4235 111.403C45.2608 111.403 45.0381 111.279 44.7636 111.047C42.1073 109.586 32.1564 103.812 28.3136 97.3403C23.8603 89.8405 25.0677 83.5455 25.0677 83.5455Z" fill="#A63336"/>
<path d="M119.956 91.9478C119.956 105.54 119.956 114.448 78.4702 116.558C36.9849 116.558 36.9849 105.54 36.9849 91.9478C36.9849 78.3561 55.5585 67.3379 78.4702 67.3379C101.382 67.3379 119.956 78.3561 119.956 91.9478Z" fill="#A63336"/>
<path d="M115.738 95.844C115.738 108.999 111.646 116.557 80.3465 116.557C47.8191 116.557 44.9551 108.999 44.9551 95.844C44.9551 82.6888 60.8004 72.0244 80.3465 72.0244C99.8927 72.0244 115.738 82.6888 115.738 95.844Z" fill="#C2A28A"/>
<path d="M109.642 110.929C100.08 115.805 68.8601 119.367 46.594 111.164C45.8908 110.461 45.9664 111.218 46.3596 111.398C73.7821 125.227 102.561 116.381 111.049 110.929C111.534 110.618 111.049 110.461 109.642 110.929Z" fill="#A63336"/>
<ellipse cx="2.40882" cy="3.15512" rx="2.40882" ry="3.15512" transform="matrix(0.997044 0.0768285 -0.0699359 0.997552 57.5371 86.9365)" fill="#3F3D3B"/>
<ellipse cx="2.40882" cy="3.15512" rx="2.40882" ry="3.15512" transform="matrix(0.997044 0.0768285 -0.0699359 0.997552 94.418 87.2163)" fill="#3F3D3B"/>
<path d="M77.2174 98.3903C77.2329 98.3679 77.2584 98.3545 77.2856 98.3545H80.4678C80.4999 98.3545 80.529 98.373 80.5427 98.4019L82.6978 102.964C82.703 102.975 82.7058 102.987 82.7058 103V106.864C82.7058 106.909 82.6687 106.947 82.6229 106.947H74.5931C74.5473 106.947 74.5103 106.909 74.5103 106.864V102.346C74.5103 102.329 74.5154 102.313 74.5249 102.299L77.2174 98.3903Z" fill="white"/>
<path d="M82.7062 95.6917C82.7062 96.8674 81.5323 97.3267 79.4307 98.3527C77.6367 97.796 75.5352 96.8045 75.5352 95.6288C75.5352 94.4531 77.1335 94.0566 79.2009 94.0566C81.2683 94.0566 82.7062 94.516 82.7062 95.6917Z" fill="#3F3D3B"/>
<path d="M78.463 97.2807C77.1313 101.116 74.8688 102.339 69.3894 103.655" stroke="#3F3D3B" stroke-width="1.5" stroke-linecap="round"/>
<path d="M79.7761 97.7374C80.9649 102.119 83.337 103.12 89.1917 103.541" stroke="#3F3D3B" stroke-width="1.5" stroke-linecap="round"/>
<path d="M77.7687 121.48C48.518 121.105 29.3301 107.417 23.3924 100.62C18.1423 119.558 19.6423 145.386 27.3769 164.371C59.487 151.949 111.519 152.418 134.254 162.027C142.223 146.324 140.817 113.511 132.848 99.2134C129.801 105.542 114.332 121.948 77.7687 121.48Z" fill="#F2DEDF"/>
<path d="M40.2306 53.7451C38.043 55.8545 34.3242 60.3078 36.9493 61.2453C39.5743 62.1828 40.2306 56.6358 40.2306 53.7451Z" fill="#D7B269"/>
<path d="M54.0232 43.8464C51.0381 44.4157 45.489 46.1093 47.1736 48.3301C48.8583 50.5508 52.4419 46.2663 54.0232 43.8464Z" fill="#D7B269"/>
<path d="M38.8229 69.2148C36.6353 71.3243 32.9165 75.7775 35.5415 76.715C38.1666 77.6525 38.8229 72.1055 38.8229 69.2148Z" fill="#D7B269"/>
<path d="M28.8975 77.6527C27.1717 80.154 24.4097 85.2563 27.1686 85.6546C29.9274 86.053 29.4707 80.486 28.8975 77.6527Z" fill="#D7B269"/>
<path d="M51.9479 59.3706C49.7603 61.48 46.0415 65.9333 48.6665 66.8708C51.2916 67.8083 51.9479 62.2613 51.9479 59.3706Z" fill="#D7B269"/>
<path d="M79.2078 54.6833C78.1259 57.5231 76.6556 63.1355 79.4301 62.8668C82.2046 62.5982 80.4379 57.2992 79.2078 54.6833Z" fill="#D7B269"/>
<path d="M33.741 90.7761C32.6591 93.6159 31.1888 99.2283 33.9633 98.9596C36.7378 98.6909 34.9711 93.392 33.741 90.7761Z" fill="#D7B269"/>
<path d="M126.912 94.0605C125.035 96.4506 121.964 101.373 124.693 101.941C127.422 102.508 127.309 96.9237 126.912 94.0605Z" fill="#D7B269"/>
<path d="M64.6056 49.9961C62.418 52.1055 58.6992 56.5587 61.3243 57.4963C63.9493 58.4338 64.6056 52.8868 64.6056 49.9961Z" fill="#D7B269"/>
<path d="M124.169 78.59C124.266 81.6274 125.074 87.3727 127.53 86.055C129.986 84.7372 126.313 80.5293 124.169 78.59Z" fill="#D7B269"/>
<path d="M124.169 63.587C124.266 66.6244 125.074 72.3698 127.53 71.052C129.986 69.7343 126.313 65.5263 124.169 63.587Z" fill="#D7B269"/>
<path d="M112.88 48.1325C113.728 51.0505 115.939 56.4146 117.991 54.5275C120.042 52.6405 115.438 49.4779 112.88 48.1325Z" fill="#D7B269"/>
<path d="M92.9408 52.4118C93.0376 55.4491 93.8451 61.1945 96.3014 59.8767C98.7578 58.559 95.0845 54.351 92.9408 52.4118Z" fill="#D7B269"/>
<path d="M100.327 41.5035C101.094 44.4439 103.155 49.8673 105.258 48.0379C107.362 46.2086 102.847 42.9194 100.327 41.5035Z" fill="#D7B269"/>
<path d="M111.834 59.6372C112.399 62.6231 114.085 68.1745 116.308 66.4929C118.531 64.8113 114.251 61.2218 111.834 59.6372Z" fill="#D7B269"/>
<path d="M47.2314 36.0696C38.5657 35.4326 60.1082 30.3828 71.8908 29.1865C82.0471 28.07 101.234 29.1866 110.462 38.1157C112.505 40.0923 107.55 38.2718 101.234 35.6346C101.234 35.6361 101.234 35.6375 101.234 35.639C101.348 39.1893 93.2421 36.5221 87.1286 33.8621C89.9605 35.5474 92.8899 38.3457 92.7435 42.161C92.5335 47.6313 83.6731 37.7548 79.2692 32.1328C83.7575 39.2203 82.7805 43.9143 79.2692 43.9143C72.2553 43.9143 75.5516 34.6531 75.903 32.0036C73.173 34.8155 64.9728 43.5718 59.9328 42.161C54.8927 40.7501 59.9328 34.7642 71.7887 31.8456C67.2616 32.6864 55.897 36.7066 47.2314 36.0696Z" fill="#589165"/>
<path d="M85.0348 14.6016C79.4097 16.2891 77.5347 25.4612 77.3003 29.8363H78.941C78.1909 24.5862 82.691 18.7423 85.0348 16.4766V14.6016Z" fill="#3D774B"/>
<path d="M78.128 130.799C71.2937 130.909 72.9318 139.42 74.6052 143.662C76.6133 148.752 86.5286 140.942 87.6642 138.57C88.7998 136.198 86.6709 130.662 78.128 130.799Z" fill="#91181B"/>
<path d="M80.0409 141.143C79.4951 141.483 78.5492 142.232 79.1319 142.508C79.7145 142.784 79.9807 141.713 80.0409 141.143Z" fill="#D7B269"/>
<path d="M76.7548 143.012C76.209 143.352 75.2631 144.101 75.8457 144.377C76.4284 144.653 76.6945 143.582 76.7548 143.012Z" fill="#D7B269"/>
<path d="M83.998 139.631C83.4522 139.971 82.5062 140.72 83.0889 140.996C83.6716 141.272 83.9377 140.201 83.998 139.631Z" fill="#D7B269"/>
<path d="M77.1542 134.455C76.6084 134.795 75.6625 135.544 76.2451 135.82C76.8278 136.096 77.094 135.025 77.1542 134.455Z" fill="#D7B269"/>
<path d="M76.3432 139.186C75.7974 139.526 74.8515 140.275 75.4341 140.551C76.0168 140.827 76.2829 139.756 76.3432 139.186Z" fill="#D7B269"/>
<path d="M84.8397 136.56C84.294 136.9 83.348 137.649 83.9307 137.925C84.5133 138.201 84.7795 137.13 84.8397 136.56Z" fill="#D7B269"/>
<path d="M80.5575 136.214C80.0117 136.554 79.0658 137.303 79.6485 137.579C80.2311 137.855 80.4973 136.784 80.5575 136.214Z" fill="#D7B269"/>
<path d="M74.4219 129.801C72.2619 128.859 78.2013 129.773 81.3154 130.61C84.007 131.313 88.8151 133.335 90.4069 136.114C90.7592 136.729 89.6492 135.877 88.2614 134.723C88.2613 134.723 88.2612 134.723 88.261 134.724C87.9851 135.498 86.1425 134.171 84.8084 133.031C85.3875 133.657 85.8959 134.531 85.5309 135.338C85.0076 136.496 83.591 133.548 82.9482 131.929C83.4868 133.871 82.834 134.79 81.9366 134.464C80.144 133.813 81.7816 132.126 82.099 131.589C81.1598 131.94 78.3121 133.062 77.1451 132.291C75.9781 131.519 77.7803 130.699 81.061 131.173C79.8318 130.933 76.582 130.743 74.4219 129.801Z" fill="#589165"/>
<path d="M85.925 128.692C84.3425 128.533 83.0757 130.332 82.6401 131.252L83.0595 131.404C83.3186 130.205 84.9705 129.366 85.764 129.096L85.925 128.692Z" fill="#3D774B"/>
</g>
</svg>
