<svg width="76" height="76" viewBox="0 0 76 76" fill="none" xmlns="http://www.w3.org/2000/svg">
<path d="M48.9375 31.75C51.5263 31.75 53.625 29.6513 53.625 27.0625C53.625 24.4737 51.5263 22.375 48.9375 22.375C46.3487 22.375 44.25 24.4737 44.25 27.0625C44.25 29.6513 46.3487 31.75 48.9375 31.75Z" fill="white"/>
<path d="M9.875 16.125C9.875 12.6732 12.6732 9.875 16.125 9.875H59.875C63.3268 9.875 66.125 12.6732 66.125 16.125V59.875C66.125 63.3268 63.3268 66.125 59.875 66.125H16.125C12.6732 66.125 9.875 63.3268 9.875 59.875V16.125ZM59.875 16.125H16.125V40.8731L26.6729 32.4348C27.8143 31.5217 29.436 31.5217 30.5773 32.4348L44.0182 43.1875L48.2904 38.9153C49.5108 37.6949 51.4894 37.6949 52.7098 38.9153L59.875 46.0805V16.125ZM16.125 59.875H59.875V54.9193L50.5001 45.5444L46.4598 49.5847C45.3339 50.7107 43.5414 50.8099 42.2979 49.8152L28.6251 38.8769L16.125 48.877V59.875Z" fill="white"/>
</svg>
