<svg width="160" height="160" fill="none" xmlns="http://www.w3.org/2000/svg"><mask id="mask0_6143_6579" style="mask-type:alpha" maskUnits="userSpaceOnUse" x="0" y="0" width="160" height="160"><circle cx="80" cy="80" r="80" fill="#D9D9D9"/></mask><g mask="url(#mask0_6143_6579)"><rect x="-48.695" y="-11.594" width="252.821" height="293.662" rx="15.842" fill="#E7C864"/><path d="M134.48 55.076c-12.442-.323-21.786 14.205-25.195 23.44-2.097 25.704.461 70.944 27.472 46.266 27.011-24.677 32.079-38.383 27.141-54.802-3.156-10.495-20.247-14.665-29.418-14.904Z" fill="#876B57"/><path d="M5.166 106.288c5.586-4.565 14.732-8.005 24.793-16.11 4.192 16.11-5.67 32.251-12.647 33.445-4.246.727-8.803-.002-11.688-3.015-2.53-2.641-6.044-9.756-.458-14.32Z" fill="#A2856C"/><path d="M154.918 132.687c-2.332-8.574-17.226-30.083-24.382-39.765.61 14.008 2.253 43.281 3.941 48.311 1.688 5.03 7.369 5.207 9.998 4.668 4.453-.832 12.776-4.639 10.443-13.214ZM42.262 180.635c-1.014-9.917-.422-26.515 0-33.574l34.642 4.132c1.268 6.026 3.38 20.351 1.69 29.442-1.69 9.091-11.406 11.019-16.054 10.847-6.337.517-19.264-.93-20.278-10.847ZM82.742 181.67c-1.014-9.917-.423-26.515 0-33.574l34.642 4.132c1.267 6.026 3.379 20.351 1.69 29.442-1.69 9.091-11.407 11.02-16.054 10.847-6.337.517-19.265-.929-20.278-10.847Z" fill="#A3856C"/><path d="M47.813 168.058C12.724 153.983 28.84 63.742 45.33 46.414c4.352-9.37 41.522-23.992 64.057-2.088 33.201 32.272 28.956 104.641 13.638 117.792-15.318 13.15-40.124 20.014-75.212 5.94Z" fill="#C2A28A"/><path d="M110.777 51.842c-4.147-2.194-4.256-7.015-1.675-13.233 3.053-7.354 9.196-7.482 13.343-5.288 4.148 2.195 6.963 7.394 1.676 13.234-4.788 5.287-9.196 7.481-13.344 5.287ZM47.348 51.655c-3.954 2.092-8.35-.123-12.722-5.04-5.17-5.816-2.357-10.526 1.597-12.618 3.954-2.092 9.981-1.744 12.722 5.04 2.482 6.144 2.357 10.526-1.597 12.618Z" fill="#C2A28A"/><ellipse cx="2.322" cy="3.041" rx="2.322" ry="3.041" transform="matrix(0.997044 0.0768285 -0.0699359 0.997552 59.4482 68.7129)" fill="#3F3D3B"/><ellipse cx="2.322" cy="3.041" rx="2.322" ry="3.041" transform="matrix(0.997044 0.0768285 -0.0699359 0.997552 94.9961 68.9834)" fill="#3F3D3B"/><path d="M78.418 79.751a.087.087 0 0 1 .071-.037h3.06c.033 0 .063.02.078.05l2.074 4.392a.088.088 0 0 1 .009.036v3.717a.087.087 0 0 1-.087.086h-7.726a.087.087 0 0 1-.087-.086v-4.346c0-.018.006-.035.016-.05l2.592-3.762Z" fill="white"/><path d="M83.713 77.15c0 1.132-1.132 1.575-3.157 2.564-1.73-.537-3.755-1.492-3.755-2.626 0-1.133 1.54-1.515 3.533-1.515 1.993 0 3.379.443 3.379 1.576Z" fill="#3F3D3B"/><path d="M79.621 78.677c-1.283 3.697-3.464 4.876-8.745 6.144M80.888 79.116c1.146 4.223 3.432 5.188 9.075 5.594" stroke="#3F3D3B" stroke-width="1.5" stroke-linecap="round"/><path d="M7.602 123.992c-4.248-2.236-5.869-9.782-5.31-11.179 1.397-6.149 9.781-6.149 13.135-5.31 3.536.883 8.105.838 8.385 8.663.208 5.832-1.118 6.708-1.677 6.987-.559.279-9.223 3.633-14.533.839Z" fill="#937B67"/><path d="M40.003 50.9c22.131-5.112 74.084-5.42 78.745.702 1.304 1.713 3.255 8.093 3.907 10.3a.324.324 0 0 1 .031.074c.282 1.027.23.812-.031-.073-2.039-3.5-80.709-5.32-85.898-.691-1.481 1.32.467-10.523 3.246-10.312Z" fill="#4A4AA0"/><path d="M131.951 88.709c-39.05 19.595-84.99 8.164-102.6 0-6.125 19.854-8.04 52.697.958 67.913 10.719 23.009 81.543 30.245 97.442 3.897 15.459-25.62 8.219-57.584 4.2-71.81Z" fill="#E4D8CE"/><path d="M154.713 130.791c-1.076-4.964-13.845-25.477-21.145-34.253l-2.1 47.166c8.196-2.236 24.321-7.949 23.245-12.913ZM2.001 108.757c1.094-5.064 18.332-16.04 27.307-19.668l-5.347 35.326C15.63 122.134.908 113.822 2 108.757Z" fill="#C5B7AC"/><path d="M133.635 95.965c-38.978 18.497-87.703 7.134-105.282-.572-6.114 18.741-8.565 50.317.416 64.68 10.7 21.719 81.395 28.551 97.264 3.678 15.431-24.184 11.615-54.357 7.602-67.786Z" fill="#F0E5DC"/><path fill-rule="evenodd" clip-rule="evenodd" d="M116.586 115.045h2.958v.844h-2.958v-.844Z" fill="#202020"/><path fill-rule="evenodd" clip-rule="evenodd" d="M118.529 113.533v3.066l-.924.889v-3.022l.924-.933ZM117.141 118.777l1.855-1.777v7.497l-1.855-.933v-4.787Z" fill="#202020"/><path fill-rule="evenodd" clip-rule="evenodd" d="M108.271 116.02v-2.489l10.724 10.309v2.489l-10.724-10.309Z" fill="#202020"/><path fill-rule="evenodd" clip-rule="evenodd" d="m108.271 113.531 1.849 1.778v9.242l-1.849 1.778v-12.798Z" fill="#202020"/><path fill-rule="evenodd" clip-rule="evenodd" d="m108.264 126.332 4.53-4.266-1.294-1.244-3.208 2.914-.028 2.596Z" fill="#202020"/><circle cx="9.448" cy="87.754" r="21.196" fill="#E6B61B"/><mask id="mask1_6143_6579" style="mask-type:alpha" maskUnits="userSpaceOnUse" x="-12" y="66" width="43" height="43"><circle cx="9.448" cy="87.754" r="21.196" fill="#E6B61B"/></mask><g mask="url(#mask1_6143_6579)"><path d="M6.012 74.576c-1.146-4.392.89-7.638 2.291-9.738l8.975-1.337c-.446 2.037-5.614 6.645-2.864 11.84 2.75 5.193 1.145 10.693 1.145 13.366 0 0 2.1 2.482 3.629 3.437 5.657 3.536 11.566-2.673 16.23-3.437 2.038 1.273-2.1 10.016-6.874 10.884-10.082 1.833-15.34-3.119-16.23-5.92-.892.128-4.507 2.521-7.257 4.202-2.75 1.68-4.137 8.083-4.965 10.884l-6.874-6.11c1.082-.637 2.506-3.512 3.819-6.684 2.291-5.537 9.484-6.492 12.22-7.256 2.101-7.065-2.188-10.078-3.245-14.13Z" fill="#4A4AA0"/></g><path fill-rule="evenodd" clip-rule="evenodd" d="m10.959 79.487-.174-.729.226-.06.175.729-.227.06Z" fill="white"/><path fill-rule="evenodd" clip-rule="evenodd" d="m10.467 79.111.772-.206.276.156-.762.204-.286-.154ZM11.862 79.104l-.556-.327 1.889-.498-.127.507-1.206.318Z" fill="white"/><path fill-rule="evenodd" clip-rule="evenodd" d="m11.703 81.493-.633.17 1.986-3.336.633-.17-1.986 3.336Z" fill="white"/><path fill-rule="evenodd" clip-rule="evenodd" d="m11.111 81.662.339-.558 2.322-.606.554.325-3.215.84Z" fill="white"/><path fill-rule="evenodd" clip-rule="evenodd" d="m14.335 80.828-1.359-.826-.24.403.934.592.665-.17Z" fill="white"/><path d="M-.665 94.928c.024-.014.045-.007.062.02l.04.068-.018.011-.038-.062c-.01-.018-.023-.028-.04-.017-.022.013-.018.037-.002.064l.028.046-.019.012-.065-.108.019-.011.009.015c0-.015.01-.03.024-.038Zm.155.056-.097-.088.02-.012.07.066-.023-.095.017-.01.073.063-.026-.092.02-.012.033.127-.017.01-.076-.065.023.097-.017.011Zm.146-.089-.092-.152.046-.028c.033-.02.06-.015.076.013.018.028.009.054-.024.074l-.026.016.04.065-.02.012Zm-.03-.095.024-.015c.022-.013.028-.028.017-.045-.01-.017-.026-.02-.048-.006l-.025.015.031.051Zm.174.01c-.013.008-.027.005-.038-.013l-.077-.127.019-.012.077.127c.003.007.008.009.015.005a.046.046 0 0 0 .008-.008l.01.016a.058.058 0 0 1-.014.012Zm.04-.173.018-.012.066.108-.02.011-.008-.014c0 .016-.01.029-.024.037-.026.015-.047.004-.063-.021l-.04-.066.019-.012.037.062c.009.014.021.03.041.018.023-.014.017-.04.002-.065l-.028-.046Zm.155.055c-.022.014-.047.012-.062-.001l.01-.017c.01.008.025.012.041.003.014-.009.018-.02.012-.03-.015-.025-.066.027-.09-.012-.01-.02-.001-.04.02-.054a.049.049 0 0 1 .053 0l-.01.016a.031.031 0 0 0-.034 0c-.012.008-.016.017-.011.025.013.023.065-.028.09.013.014.022.001.045-.02.057Z" fill="white"/></g></svg>