<svg xmlns="http://www.w3.org/2000/svg" fill="none" viewBox="0 45 389.6470588235294 271.076" style="max-height: 500px" width="389.6470588235294" height="271.076">
<ellipse fill="#402775" transform="matrix(-0.554031 0.832496 0.832496 0.554031 155.801 0.00195312)" ry="130.498" rx="130.499" cy="130.498" cx="130.499"/>
<ellipse style="mix-blend-mode:hard-light" fill-opacity="0.8" fill="url(#paint0_linear_3767_36)" transform="matrix(-0.554031 0.832496 0.832496 0.554031 155.805 0.00195312)" ry="130.498" rx="130.499" cy="130.498" cx="130.499"/>
<ellipse style="mix-blend-mode:overlay" fill-opacity="0.4" fill="url(#paint1_linear_3767_36)" transform="matrix(-0.554031 0.832496 0.832496 0.554031 155.805 0.00195312)" ry="130.498" rx="130.499" cy="130.498" cx="130.499"/>
<g opacity="0.7">
<path style="mix-blend-mode:color-dodge" fill="url(#paint2_linear_3767_36)" d="M15.2031 77.799C1.94454 92.6827 63.07 156.522 151.731 220.387C240.391 284.253 323.013 323.961 336.272 309.077C343.295 301.193 329.446 279.572 301.689 251.487L297.495 258.148C317.405 278.592 327.151 293.672 322.357 299.054C312.02 310.658 237.996 272.78 157.02 214.45C76.0447 156.12 18.7808 99.4268 29.1179 87.8226C34.2849 82.0223 56.5942 89.1994 86.5 104.5L91.0078 98.4972C51.5091 78.1605 22.5902 69.5066 15.2031 77.799Z"/>
</g>
<defs>
<linearGradient gradientUnits="userSpaceOnUse" y2="241.084" x2="205.738" y1="23.794" x1="42.459" id="paint0_linear_3767_36">
<stop stop-color="#A2099B"/>
<stop stop-color="#3EC1CA" offset="1"/>
</linearGradient>
<linearGradient gradientUnits="userSpaceOnUse" y2="241.084" x2="205.738" y1="23.794" x1="42.459" id="paint1_linear_3767_36">
<stop stop-color="white"/>
<stop stop-opacity="0" stop-color="white" offset="1"/>
</linearGradient>
<linearGradient gradientUnits="userSpaceOnUse" y2="225.319" x2="159.708" y1="160" x1="221.5" id="paint2_linear_3767_36">
<stop stop-color="#B081EF" offset="0.638686"/>
<stop stop-color="#36FEF2" offset="1"/>
</linearGradient>
</defs>
</svg>