<svg width="323" height="235" viewBox="0 0 323 235" fill="none" xmlns="http://www.w3.org/2000/svg">
<path fill-rule="evenodd" clip-rule="evenodd" d="M1.89614 230.789C13.722 247.461 94.6674 210.362 182.693 147.925C270.718 85.4887 332.49 21.3581 320.664 4.68556C314.574 -3.89977 290.157 1.7731 255.882 17.8217L260.744 24.1135C285.616 12.6666 302.689 8.61943 306.849 14.4846C316.069 27.4835 258.37 84.249 177.975 141.274C97.5794 198.299 24.9316 233.989 15.7114 220.99C11.4389 214.966 21.5354 199.545 41.6007 179.056L37.5638 172.109C9.8627 200.05 -4.33409 222.005 1.89614 230.789Z" fill="url(#paint0_linear_3507_2778)" style="mix-blend-mode:color-dodge"/>
<defs>
<linearGradient id="paint0_linear_3507_2778" x1="170.46" y1="132.335" x2="184.091" y2="163.181" gradientUnits="userSpaceOnUse">
<stop stop-color="#2D2937"/>
<stop offset="0.927083" stop-color="#36FEF2"/>
</linearGradient>
</defs>
</svg>
