<svg width="323" height="235" viewBox="0 0 323 235" fill="none" xmlns="http://www.w3.org/2000/svg">
<path fill-rule="evenodd" clip-rule="evenodd" d="M1.89615 230.789C13.722 247.461 94.6674 210.362 182.693 147.925C270.718 85.4887 332.49 21.3581 320.664 4.68555C314.583 -3.88742 290.227 1.75682 256.03 17.7525L260.916 24.0343C285.694 12.648 302.698 8.63297 306.849 14.4846C316.069 27.4835 258.37 84.249 177.975 141.274C97.5794 198.299 24.9316 233.989 15.7114 220.99C11.1027 214.492 23.2137 197.06 46.5217 174.125L42.4801 167.226C11.5647 197.478 -4.69271 221.5 1.89615 230.789Z" fill="url(#paint0_linear_3507_2778)" style="mix-blend-mode:color-dodge"/>
<defs>
<linearGradient id="paint0_linear_3507_2778" x1="170.46" y1="132.335" x2="184.091" y2="163.181" gradientUnits="userSpaceOnUse">
<stop stop-color="#2D2937"/>
<stop offset="0.927083" stop-color="#36FEF2"/>
</linearGradient>
</defs>
</svg>
