<svg xmlns="http://www.w3.org/2000/svg" fill="none" viewBox="0 10.816 389.6470588235294 271.076" style="max-height: 500px" width="389.6470588235294" height="271.076">
<mask height="262" width="262" y="15" x="72" maskUnits="userSpaceOnUse" style="mask-type:alpha" id="mask0_3765_30">
<circle fill="url(#paint0_linear_3765_30)" r="130.5" cy="145.727" cx="203.47"/>
</mask>
<g mask="url(#mask0_3765_30)">
<circle fill="url(#paint1_linear_3765_30)" r="130.5" cy="145.727" cx="203.47"/>
<g opacity="0.5" style="mix-blend-mode:hard-light">
<rect fill="url(#paint2_radial_3765_30)" transform="rotate(-11.3998 -282.03 27.5806)" height="392.641" width="1130.03" y="27.5806" x="-282.03"/>
</g>
<circle style="mix-blend-mode:hard-light" fill-opacity="0.55" fill="url(#paint3_linear_3765_30)" transform="matrix(-0.771754 0.635922 0.635922 0.771754 228.969 -136.057)" r="175.241" cy="175.241" cx="175.241"/>
<circle style="mix-blend-mode:overlay" fill-opacity="0.4" fill="url(#paint4_linear_3765_30)" transform="matrix(-0.771754 0.635922 0.635922 0.771754 229.118 -137.621)" r="176.338" cy="176.338" cx="176.338"/>
<circle style="mix-blend-mode:hard-light" fill-opacity="0.55" fill="url(#paint5_linear_3765_30)" transform="matrix(-0.771754 0.635922 0.635922 0.771754 224.172 -54.0576)" r="139.159" cy="139.159" cx="139.159"/>
<path style="mix-blend-mode:overlay" fill-opacity="0.4" fill="url(#paint6_linear_3765_30)" d="M93.5096 228.97C142.961 288.984 231.7 297.547 291.714 248.095C351.728 198.644 360.29 109.905 310.839 49.8913C261.388 -10.1226 172.649 -18.6853 112.635 30.7659C52.6211 80.2171 44.0584 168.956 93.5096 228.97Z"/>
</g>
<g opacity="0.7">
<path style="mix-blend-mode:color-dodge" fill="url(#paint7_linear_3765_30)" d="M2.92756 142.792C-1.24129 162.091 81.59 189.287 187.936 203.537C294.283 217.787 383.873 213.695 388.042 194.397C390.206 184.379 368.928 172.234 333.087 160.875L332.97 162.226L331.836 168.429C357.819 176.839 372.834 185.3 371.352 192.161C368.102 207.207 286.729 208.853 189.6 195.838C92.4714 182.823 16.368 160.075 19.6182 145.029C21.2152 137.637 41.6709 133.479 73.5882 132.705L74.5645 125.301C32.7645 126.291 5.19633 132.29 2.92756 142.792Z"/>
</g>
<defs>
<linearGradient gradientUnits="userSpaceOnUse" y2="276.227" x2="203.47" y1="15.2266" x1="203.47" id="paint0_linear_3765_30">
<stop stop-color="#2A1B54"/>
<stop stop-color="#432879" offset="0.426"/>
<stop stop-color="#6441AE" offset="1"/>
</linearGradient>
<linearGradient gradientUnits="userSpaceOnUse" y2="276.227" x2="203.47" y1="15.2266" x1="203.47" id="paint1_linear_3765_30">
<stop stop-color="#2A1B54"/>
<stop stop-color="#432879" offset="0.426"/>
<stop stop-color="#6441AE" offset="1"/>
</linearGradient>
<radialGradient gradientTransform="translate(282.983 223.901) rotate(90) scale(196.321 565.013)" gradientUnits="userSpaceOnUse" r="1" cy="0" cx="0" id="paint2_radial_3765_30">
<stop stop-color="#6F00FC"/>
<stop stop-opacity="0" stop-color="#FFBADB" offset="1"/>
</radialGradient>
<linearGradient gradientUnits="userSpaceOnUse" y2="323.741" x2="276.277" y1="31.9519" x1="57.0162" id="paint3_linear_3765_30">
<stop stop-color="#FAFE36"/>
<stop stop-opacity="0" stop-color="#E0B2F0" offset="1"/>
</linearGradient>
<linearGradient gradientUnits="userSpaceOnUse" y2="325.768" x2="278.007" y1="32.152" x1="57.3732" id="paint4_linear_3765_30">
<stop stop-color="white"/>
<stop stop-opacity="0" stop-color="white" offset="1"/>
</linearGradient>
<linearGradient gradientUnits="userSpaceOnUse" y2="257.083" x2="219.392" y1="25.3731" x1="45.2767" id="paint5_linear_3765_30">
<stop stop-color="#F378EE"/>
<stop stop-opacity="0" stop-color="#E0B2F0" offset="1"/>
</linearGradient>
<linearGradient gradientUnits="userSpaceOnUse" y2="283.914" x2="220.88" y1="-16.2909" x1="204.566" id="paint6_linear_3765_30">
<stop stop-color="white"/>
<stop stop-opacity="0" stop-color="white" offset="1"/>
</linearGradient>
<linearGradient gradientUnits="userSpaceOnUse" y2="212" x2="163" y1="107" x1="299" id="paint7_linear_3765_30">
<stop stop-color="#7CE7EE"/>
<stop stop-color="#CE87FA" offset="0.238484"/>
<stop stop-color="#BB64FE" offset="0.520229"/>
<stop stop-color="#CBFFFF" offset="0.870599"/>
</linearGradient>
</defs>
</svg>