<svg width="261" height="261" viewBox="0 0 261 261" fill="none" xmlns="http://www.w3.org/2000/svg">
<mask id="mask0_3489_90" style="mask-type:alpha" maskUnits="userSpaceOnUse" x="0" y="0" width="261" height="261">
<circle cx="130.5" cy="130.5" r="130.5" fill="url(#paint0_linear_3489_90)"/>
</mask>
<g mask="url(#mask0_3489_90)">
<circle cx="130.5" cy="130.5" r="130.5" fill="url(#paint1_linear_3489_90)"/>
<g style="mix-blend-mode:hard-light" opacity="0.5">
<rect x="-355" y="12.354" width="1130.03" height="392.641" transform="rotate(-11.3998 -355 12.354)" fill="url(#paint2_radial_3489_90)"/>
</g>
<circle cx="175.241" cy="175.241" r="175.241" transform="matrix(-0.771754 0.635922 0.635922 0.771754 155.999 -151.283)" fill="url(#paint3_linear_3489_90)" fill-opacity="0.55" style="mix-blend-mode:hard-light"/>
<circle cx="176.338" cy="176.338" r="176.338" transform="matrix(-0.771754 0.635922 0.635922 0.771754 156.148 -152.848)" fill="url(#paint4_linear_3489_90)" fill-opacity="0.4" style="mix-blend-mode:overlay"/>
<circle cx="139.159" cy="139.159" r="139.159" transform="matrix(-0.771754 0.635922 0.635922 0.771754 151.202 -69.2842)" fill="url(#paint5_linear_3489_90)" fill-opacity="0.55" style="mix-blend-mode:hard-light"/>
<path d="M20.5394 213.743C69.9906 273.757 158.73 282.32 218.743 232.869C278.757 183.418 287.32 94.6787 237.869 34.6648C188.418 -25.3491 99.6787 -33.9119 39.6648 15.5393C-20.3491 64.9905 -28.9118 153.73 20.5394 213.743Z" fill="url(#paint6_linear_3489_90)" fill-opacity="0.4" style="mix-blend-mode:overlay"/>
</g>
<defs>
<linearGradient id="paint0_linear_3489_90" x1="130.5" y1="0" x2="130.5" y2="261" gradientUnits="userSpaceOnUse">
<stop stop-color="#2A1B54"/>
<stop offset="0.426" stop-color="#432879"/>
<stop offset="1" stop-color="#6441AE"/>
</linearGradient>
<linearGradient id="paint1_linear_3489_90" x1="130.5" y1="0" x2="130.5" y2="261" gradientUnits="userSpaceOnUse">
<stop stop-color="#2A1B54"/>
<stop offset="0.426" stop-color="#432879"/>
<stop offset="1" stop-color="#6441AE"/>
</linearGradient>
<radialGradient id="paint2_radial_3489_90" cx="0" cy="0" r="1" gradientUnits="userSpaceOnUse" gradientTransform="translate(210.013 208.675) rotate(90) scale(196.321 565.013)">
<stop stop-color="#6F00FC"/>
<stop offset="1" stop-color="#FFBADB" stop-opacity="0"/>
</radialGradient>
<linearGradient id="paint3_linear_3489_90" x1="57.0162" y1="31.9519" x2="276.277" y2="323.741" gradientUnits="userSpaceOnUse">
<stop stop-color="#FAFE36"/>
<stop offset="1" stop-color="#E0B2F0" stop-opacity="0"/>
</linearGradient>
<linearGradient id="paint4_linear_3489_90" x1="57.3732" y1="32.152" x2="278.007" y2="325.768" gradientUnits="userSpaceOnUse">
<stop stop-color="white"/>
<stop offset="1" stop-color="white" stop-opacity="0"/>
</linearGradient>
<linearGradient id="paint5_linear_3489_90" x1="45.2767" y1="25.3731" x2="219.392" y2="257.083" gradientUnits="userSpaceOnUse">
<stop stop-color="#F378EE"/>
<stop offset="1" stop-color="#E0B2F0" stop-opacity="0"/>
</linearGradient>
<linearGradient id="paint6_linear_3489_90" x1="131.596" y1="-31.5174" x2="147.91" y2="268.688" gradientUnits="userSpaceOnUse">
<stop stop-color="white"/>
<stop offset="1" stop-color="white" stop-opacity="0"/>
</linearGradient>
</defs>
</svg>
