<svg width="387" height="87" viewBox="0 0 387 87" fill="none" xmlns="http://www.w3.org/2000/svg">
<path fill-rule="evenodd" clip-rule="evenodd" d="M0.957678 17.566C-3.21117 36.8642 79.6202 64.0606 185.967 78.3107C292.313 92.5608 381.903 88.4685 386.072 69.1702C388.236 59.1528 366.958 47.0072 331.117 35.649L331 36.9998L329.866 43.2022C355.849 51.6122 370.864 60.0737 369.382 66.9341C366.132 81.9802 284.759 83.6267 187.63 70.6118C90.5015 57.5968 14.398 34.8489 17.6483 19.8027C19.2452 12.4103 39.7009 8.25241 71.6182 7.47883L72.5945 0.0749251C30.7946 1.06469 3.22642 7.06356 0.957678 17.566Z" fill="url(#paint0_linear_3489_138)" style="mix-blend-mode:color-dodge"/>
<defs>
<linearGradient id="paint0_linear_3489_138" x1="189.06" y1="59.4972" x2="178.336" y2="90.7158" gradientUnits="userSpaceOnUse">
<stop stop-color="#2D2937"/>
<stop offset="0.927083" stop-color="#36FEF2"/>
</linearGradient>
</defs>
</svg>
