<svg xmlns="http://www.w3.org/2000/svg" fill="none" viewBox="47.83 19.25 193.65 157.78">
<g filter="url(#filter0_d_3507_2841)">
<path d="M87.0495 154.386C88.4592 161.715 90.5042 168.057 96.5897 166.887C102.675 165.716 100.427 158.726 99.0169 151.397C97.6072 144.067 100.844 139.631 89.99 141.718C83.9045 142.889 85.6398 147.057 87.0495 154.386Z" fill="#D6E3E3"/>
<path d="M121.734 144.185C125.074 150.86 127.309 157.138 121.767 159.911C116.225 162.684 113.757 155.768 110.417 149.093C107.077 142.419 101.809 140.867 111.694 135.92C117.236 133.147 118.394 137.511 121.734 144.185Z" fill="#D6E3E3"/>
<path d="M61.7513 108.541C63.8373 107.669 66.318 109.331 68.0754 110.099C69.3358 111.185 70.5663 112.917 71.1792 114.464C71.5569 115.418 71.6798 116.477 72.0528 117.428C72.3962 118.303 72.7341 119.118 72.8691 120.06C73.0317 121.195 73.5049 122.238 73.7114 123.361C73.9341 124.571 74.2069 125.832 74.6024 126.997C75.3706 129.261 75.7029 131.581 76.2413 133.903C76.7706 136.187 77.08 138.526 77.4927 140.829C77.8657 142.911 78.594 145.377 77.6324 147.377C76.7558 149.201 73.6264 149.138 72.0242 148.819C69.3781 148.292 67.0167 146.994 64.6373 145.788C57.0657 141.949 49.7126 135.522 48.5969 126.645C48.3044 124.318 48.3285 121.793 49.6272 119.74C50.9914 117.583 52.1694 115.311 53.8286 113.355C55.1819 111.761 57.0386 110.511 58.961 109.708L61.7513 108.541Z" fill="#3E2C2C"/>
<path d="M128.303 113.94C130.567 112.869 132.068 111.791 134.007 110.227C135.52 108.761 135.752 106.788 135.612 104.778C135.442 102.322 133.974 100.672 131.53 100.41C129.847 100.23 127.49 101.054 126.049 101.946C124.049 103.185 121.294 104.072 119.909 106.065C119.274 106.978 118.449 107.839 118.405 109.009C118.361 110.163 118.481 111.049 118.727 112.174C119.189 114.288 120.694 115.237 123.01 115.274C125.195 115.309 126.391 114.845 128.303 113.94Z" fill="#D6E3E3"/>
<path d="M67.7057 116.258C68.8654 115 69.2009 113.686 70.7106 112.614C75.5616 111.674 76.6004 117.608 76.1558 120.558C75.9794 121.729 74.9775 122.825 74.4205 123.928C73.7852 125.186 73.0548 126.304 72.2702 127.501C71.2793 129.012 69.2266 130.887 67.1614 131.213C65.1491 131.53 61.9954 132.507 60.8135 130.595C59.6589 128.728 59.8934 126.399 61.1143 124.348C62.3378 122.292 64.0138 120.743 65.4878 118.844C66.1867 117.943 66.921 117.11 67.7057 116.258Z" fill="#D6E3E3"/>
<path d="M98.8992 76.6627C90.3901 74.4446 84.7571 74.8741 77.5217 82.0283C71.9683 85.6328 70.5206 94.6786 70.2208 97.37C69.9672 99.647 69.3773 101.873 69.251 104.186C69.076 107.391 68.8611 110.54 68.9158 113.767C69.0199 119.908 69.2177 126.055 70.5349 132.13C71.5011 136.587 72.8486 140.958 74.4217 145.254C75.3154 147.695 76.65 150.244 78.8839 151.477C81.2036 152.758 83.2412 153.711 85.7473 154.365C90.3772 155.571 95.1135 155.924 99.7564 155.333C104.068 154.784 108.475 154.129 112.578 152.738C114.428 152.11 116.207 151.307 117.97 150.485C119.531 149.757 120.655 148.563 122.08 147.658C124.234 146.289 125.485 143.816 126.518 141.453C127.624 138.925 128.464 136.518 128.51 133.614C128.57 129.811 128.312 126.097 127.059 122.404C126.368 120.365 125.838 118.248 125.14 116.189C124.415 114.052 123.533 112.006 122.806 109.863C121.196 105.118 119.348 100.114 116.814 95.8025C115.838 94.1415 115.071 92.084 113.835 90.6236C113.287 89.9763 112.715 89.0071 112.281 88.2621C111.667 87.2058 110.788 86.3025 110.071 85.3209C108.517 83.1921 106.497 81.3709 104.506 79.7584C102.956 78.503 100.787 77.1548 98.8992 76.6627Z" fill="url(#paint0_linear_3507_2841)"/>
<path d="M91.4709 101.367C91.978 100.694 93.0956 100.421 93.9249 100.268C95.4459 100.785 94.2858 102.643 92.7218 102.414C92.1461 102.329 90.8873 102.142 91.4709 101.367Z" fill="#221A1E" stroke="#221A1E" stroke-width="1.5" stroke-linecap="round"/>
<path d="M93.2982 107.595C93.0682 106.969 92.8691 106.33 92.6549 105.698C93.0991 105.171 93.6826 104.521 94.0052 103.941C94.3781 103.27 95.0132 103.706 95.5883 103.775C96.2637 103.856 96.5763 103.97 96.7887 104.596C96.9736 105.141 97.1961 105.73 97.3614 106.217C97.7243 106.85 97.0906 107.237 96.4527 107.454L94.7036 108.047C94.169 108.124 93.4896 108.116 93.2982 107.595Z" fill="#D3BEAA"/>
<path d="M88.1963 107.015C90.7817 107.625 94.35 105.39 93.8899 102.621C95.282 104.743 98.4408 105.312 100.808 102.238" stroke="#221A1E" stroke-width="1.5" stroke-linecap="round"/>
</g>
<path d="M85.6573 97.65C86.2515 99.4019 85.5804 101.213 84.3542 101.629C83.1279 102.045 81.6011 101.333 81.0069 99.581C80.4127 97.8292 80.9762 95.7008 82.2025 95.2849C83.4287 94.869 85.0631 95.8982 85.6573 97.65Z" fill="#221A1E"/>
<path d="M101.2 92.3781C101.794 94.1299 101.123 95.941 99.8966 96.3569C98.6704 96.7729 97.1436 96.0609 96.5494 94.309C95.9552 92.5572 96.5187 90.4289 97.7449 90.0129C98.9712 89.597 100.606 90.6262 101.2 92.3781Z" fill="#221A1E"/>
<ellipse cx="0.727825" cy="1.3458" rx="0.727825" ry="1.3458" transform="matrix(0.976583 -0.227255 0.265665 0.960808 82.5673 96.5698)" fill="#EDEDED"/>
<ellipse cx="0.727825" cy="1.3458" rx="0.727825" ry="1.3458" transform="matrix(0.976583 -0.227255 0.265665 0.960808 98.1854 90.8389)" fill="#EDEDED"/>
<path d="M75.5034 88.1676C72.8272 89.7283 69.8825 87.4724 67.975 85.6141C66.5126 83.6853 67.6482 81.5483 69.3407 80.3934C71.3415 79.0281 75.7606 80.4325 76.9634 82.5654C77.3898 83.3215 76.6432 83.6699 76.3385 84.5571C76.0059 85.5252 76.4307 87.6268 75.5034 88.1676Z" fill="#9E765F"/>
<path d="M102.798 71.4461C100.599 72.4754 98.5736 76.1047 99.3183 78.4852C100.103 80.798 102.358 82.1343 104.659 80.6734C105.826 79.9326 106.816 78.8899 107.435 77.6353C107.91 76.6712 108.609 75.3551 108.335 74.2375C107.718 71.7203 105.108 70.3652 102.798 71.4461Z" fill="#9E765F"/>
<path fill-rule="evenodd" clip-rule="evenodd" d="M118.711 99.3962C113.865 104.527 107.357 108.771 99.6837 111.374C88.7586 115.079 77.6848 114.706 68.9227 111.113C68.9034 111.992 68.8981 112.874 68.9131 113.762C69.0172 119.902 69.215 126.049 70.5322 132.124C71.4984 136.581 72.8459 140.952 74.419 145.248C75.3127 147.689 76.6473 150.238 78.8813 151.471C81.201 152.752 83.2385 153.705 85.7446 154.359C90.3746 155.565 95.1109 155.918 99.7537 155.327C104.066 154.778 108.472 154.123 112.575 152.732C114.425 152.104 116.204 151.301 117.967 150.479C118.914 150.037 119.701 149.424 120.491 148.808C121.003 148.409 121.517 148.008 122.077 147.652C124.231 146.283 125.482 143.81 126.515 141.447C127.621 138.919 128.462 136.512 128.507 133.608C128.567 129.805 128.309 126.091 127.057 122.398C126.712 121.381 126.407 120.345 126.102 119.306C125.795 118.262 125.487 117.215 125.137 116.183C124.775 115.116 124.373 114.071 123.972 113.025C123.569 111.978 123.167 110.929 122.803 109.857C121.625 106.384 120.32 102.773 118.711 99.3962Z" fill="#E2F4F4"/>
<g opacity="0.5" filter="url(#filter1_i_3507_2841)">
<ellipse cx="34.3319" cy="30.4803" rx="34.3319" ry="30.4803" transform="matrix(0.947011 -0.321198 0.321197 0.947013 47.8328 74.6411)" fill="#EEFFFE" fill-opacity="0.5"/>
</g>
<path opacity="0.65" d="M61.8914 98.6509C62.5587 93.2307 65.0287 84.8779 72.6217 74.6101C72.6974 74.5085 72.751 74.3916 72.7789 74.267C72.8068 74.1423 72.8085 74.0129 72.7838 73.8869C72.7591 73.761 72.7085 73.6415 72.6354 73.5361C72.5623 73.4308 72.4684 73.3419 72.3597 73.2754L69.9235 71.7913C69.7405 71.6793 69.5249 71.6368 69.3154 71.6713C69.1059 71.7059 68.9165 71.8152 68.7809 71.9796C66.6323 74.5872 58.3105 85.6442 60.1115 98.6304C60.1376 98.8515 60.2425 99.0561 60.4066 99.2056C60.5706 99.3551 60.7824 99.4389 61.0017 99.4415C61.221 99.444 61.4325 99.365 61.5965 99.2193C61.7605 99.0736 61.8654 98.8713 61.8914 98.6509V98.6509Z" fill="#D5FFF3"/>
<path opacity="0.65" d="M60.9457 100.844C59.2641 101.532 60.2302 103.818 61.9128 103.133C63.5955 102.448 62.6439 100.151 60.9457 100.844Z" fill="#D5FFF3"/>
<path d="M100.483 116.761C98.2832 116.168 97.6274 116.261 96.5553 115.702C96.6938 116.246 96.5516 115.649 96.7162 116.295L99.3663 118.126L100.483 116.761Z" fill="#D7E2E2"/>
<path d="M104.948 150.344L103.162 150.808M104.948 150.344L106.734 149.88M104.948 150.344C100.461 132.615 99.1559 125.881 96.7162 116.295M96.7162 116.295C96.5516 115.649 96.6938 116.246 96.5553 115.702C97.6274 116.261 98.2832 116.168 100.483 116.761L99.3663 118.126L96.7162 116.295Z" stroke="#D7E2E2" stroke-width="1.07651"/>
<ellipse cx="4.49742" cy="4.28329" rx="4.49742" ry="4.28329" transform="matrix(0.986249 -0.165262 0.165264 0.986251 75.5981 117.504)" fill="#C4CDCD"/>
<ellipse cx="4.49742" cy="4.28329" rx="4.49742" ry="4.28329" transform="matrix(0.986249 -0.165262 0.165264 0.986251 109.255 110.158)" fill="#C4CDCD"/>
<ellipse cx="4.49742" cy="4.28329" rx="4.49742" ry="4.28329" transform="matrix(0.986249 -0.165262 0.165264 0.986251 114.904 134.576)" fill="#C4CDCD"/>
<ellipse cx="4.49742" cy="4.28329" rx="4.49742" ry="4.28329" transform="matrix(0.986249 -0.165262 0.165264 0.986251 79.7737 142.804)" fill="#C4CDCD"/>
<path d="M78.7078 154.218C79.2885 154.826 81.9912 155.546 82.4033 155.604C84.9958 150.94 88.1984 145.92 87.233 144.222C86.4608 142.864 85.4488 143.037 85.0191 143.13C81.4383 143.901 78.3967 153.892 78.7078 154.218Z" fill="#D0DCDC"/>
<path d="M129.749 141.149C129.463 142.025 128.291 143.766 127.848 144.404C120.972 141.134 117.43 140.019 117.011 138.073C116.868 137.411 117.211 135.079 119.44 135.142C121.669 135.205 129.793 141.016 129.749 141.149Z" fill="#D0DCDC"/>
<path d="M75.4614 119.522C72.9434 117.366 71.5379 116.562 67.0369 109.422C67.8062 105.467 69.4127 107.811 69.9102 108.237C71.6773 109.751 73.2187 111.06 75.9532 113.185C79.1983 115.707 82.4864 117.373 83.5878 119.977C84.6892 122.582 81.3588 124.975 79.7917 123.685C77.6023 121.883 76.5832 120.482 75.4614 119.522Z" fill="#D0DCDC"/>
<path d="M118.673 110.122C120.713 104.155 120.611 100.188 120.79 98.6233C119.06 96.7191 119.482 97.3109 118.882 97.2516C118.023 99.051 116.573 101.815 116.143 102.665C113.952 106.995 111.256 111.228 111.523 114.127C111.738 116.451 114.345 116.932 115.243 116.552C116.801 115.892 116.633 116.09 118.673 110.122Z" fill="#D0DCDC"/>
<rect x="83.4636" y="124.698" width="29.3545" height="18.4089" rx="9.20446" transform="rotate(-13.422 83.4636 124.698)" fill="#D3E6E5"/>
<path fill-rule="evenodd" clip-rule="evenodd" d="M95.5083 127.147L97.7905 126.603L97.9459 127.254L95.6637 127.799L95.5083 127.147Z" fill="url(#paint1_linear_3507_2841)"/>
<path fill-rule="evenodd" clip-rule="evenodd" d="M96.7296 125.625L97.294 127.99L96.7445 128.845L96.1882 126.515L96.7296 125.625Z" fill="url(#paint2_linear_3507_2841)"/>
<path fill-rule="evenodd" clip-rule="evenodd" d="M96.6251 129.925L97.7287 128.212L99.1088 133.995L97.5061 133.617L96.6251 129.925Z" fill="url(#paint3_linear_3507_2841)"/>
<path fill-rule="evenodd" clip-rule="evenodd" d="M89.271 129.433L88.8129 127.514L98.9836 133.492L99.4417 135.411L89.271 129.433Z" fill="url(#paint4_linear_3507_2841)"/>
<path fill-rule="evenodd" clip-rule="evenodd" d="M88.8129 127.514L90.5664 128.544L92.2679 135.674L91.1687 137.386L88.8129 127.514Z" fill="url(#paint5_linear_3507_2841)"/>
<path fill-rule="evenodd" clip-rule="evenodd" d="M91.1689 137.385L93.8782 133.26L92.6507 132.539L90.7132 135.377L91.1689 137.385Z" fill="url(#paint6_linear_3507_2841)"/>
<ellipse cx="106.742" cy="125.793" rx="2.48767" ry="2.48769" transform="matrix(0.972687 -0.232121 0.232122 0.972687 -26.2838 28.2128)" fill="#E49D9D"/>
<ellipse cx="108.127" cy="131.599" rx="2.48767" ry="2.48769" transform="matrix(0.972687 -0.232121 0.232122 0.972687 -27.5937 28.693)" fill="#90A7D4"/>
<path d="M117.166 28.3196C118.081 27.3512 118.691 27.1908 119.977 27.7476L139.14 121.915C138.221 122.824 137.603 122.941 136.329 122.487L117.166 28.3196Z" fill="#A39E91"/>
<path d="M117.175 28.364C117.739 28.7371 119.091 29.1452 119.986 27.792C119.422 27.4188 118.071 27.0108 117.175 28.364Z" fill="#D9D9D9"/>
<path d="M174.989 31.6509C143.223 23.7225 125.343 29.6049 120.374 33.5371L126.48 65.831C130.047 62.6708 145.063 57.7394 176.59 63.2961C215.999 70.242 223.232 68.8244 241.487 52.4759L228.912 42.5951L236.526 19.2477C228.973 26.1153 214.697 41.5614 174.989 31.6509Z" fill="#D56263"/>
<path d="M138.412 51.8084C134.877 52.3788 132.777 50.9146 132.204 47.3606L130.786 38.5743L133.57 38.125L134.937 46.5954C135.278 48.7081 135.974 49.5074 137.988 49.1824C140.002 48.8573 140.428 47.8567 140.093 45.7835L138.723 37.2934L141.507 36.8441L142.909 45.5317C143.492 49.1449 141.946 51.238 138.412 51.8084Z" fill="white"/>
<path d="M147.02 50.4395L147.338 36.5032L152.057 36.611C155.236 36.6837 156.825 38.0604 156.763 40.7797C156.7 43.5189 155.008 44.9206 151.869 44.8489L149.949 44.805L149.819 50.5035L147.02 50.4395ZM150.008 42.2257L151.648 42.2632C153.167 42.2979 153.916 41.9349 153.943 40.7552C153.969 39.5955 153.298 39.2201 151.718 39.184L150.078 39.1465L150.008 42.2257Z" fill="white"/>
<path d="M175.623 39.4708L178.389 40.02L175.674 53.6931L172.829 53.1282L169.168 43.1234L167.395 52.0492L164.629 51.4999L167.344 37.8269L170.169 38.3878L173.862 48.3376L175.623 39.4708Z" fill="white"/>
<path d="M180.597 55.0052L182.9 41.2567L192.092 42.7962L191.666 45.3408L185.255 44.2671L184.782 47.0878L190.799 48.0954L190.369 50.6597L184.353 49.6521L183.808 52.9067L190.219 53.9804L189.789 56.5447L180.597 55.0052Z" fill="white"/>
<path d="M193.243 57.175L197.906 50.2767L193.369 43.2356L196.749 43.266L199.883 48.3344L203.108 43.3233L206.468 43.3535L201.806 50.3118L206.363 57.2931L202.983 57.2627L199.827 52.3141L196.623 57.2054L193.243 57.175Z" fill="white"/>
<path d="M213.964 56.2077L211.488 45.1208L207.369 46.0407L206.807 43.5227L217.816 41.0639L218.378 43.5819L214.26 44.5018L216.736 55.5886L213.964 56.2077Z" fill="white"/>
<defs>
<filter id="filter0_d_3507_2841" x="43.2074" y="75.478" width="97.6772" height="102.024" filterUnits="userSpaceOnUse" color-interpolation-filters="sRGB">
<feFlood flood-opacity="0" result="BackgroundImageFix"/>
<feColorMatrix in="SourceAlpha" type="matrix" values="0 0 0 0 0 0 0 0 0 0 0 0 0 0 0 0 0 0 127 0" result="hardAlpha"/>
<feOffset dy="5.23734"/>
<feGaussianBlur stdDeviation="2.61867"/>
<feComposite in2="hardAlpha" operator="out"/>
<feColorMatrix type="matrix" values="0 0 0 0 0 0 0 0 0 0 0 0 0 0 0 0 0 0 0.25 0"/>
<feBlend mode="normal" in2="BackgroundImageFix" result="effect1_dropShadow_3507_2841"/>
<feBlend mode="normal" in="SourceGraphic" in2="effect1_dropShadow_3507_2841" result="shape"/>
</filter>
<filter id="filter1_i_3507_2841" x="47.438" y="61.5708" width="76.6612" height="64.7277" filterUnits="userSpaceOnUse" color-interpolation-filters="sRGB">
<feFlood flood-opacity="0" result="BackgroundImageFix"/>
<feBlend mode="normal" in="SourceGraphic" in2="BackgroundImageFix" result="shape"/>
<feColorMatrix in="SourceAlpha" type="matrix" values="0 0 0 0 0 0 0 0 0 0 0 0 0 0 0 0 0 0 127 0" result="hardAlpha"/>
<feOffset dx="-8.73398" dy="2.91133"/>
<feGaussianBlur stdDeviation="21.8349"/>
<feComposite in2="hardAlpha" operator="arithmetic" k2="-1" k3="1"/>
<feColorMatrix type="matrix" values="0 0 0 0 0.416519 0 0 0 0 0.946234 0 0 0 0 0.980046 0 0 0 0.75 0"/>
<feBlend mode="normal" in2="shape" result="effect1_innerShadow_3507_2841"/>
</filter>
<linearGradient id="paint0_linear_3507_2841" x1="81.8816" y1="78.0048" x2="107.781" y2="154.365" gradientUnits="userSpaceOnUse">
<stop stop-color="#9B6E59"/>
<stop offset="1" stop-color="#BC876A"/>
</linearGradient>
<linearGradient id="paint1_linear_3507_2841" x1="95.7643" y1="127.471" x2="97.997" y2="126.938" gradientUnits="userSpaceOnUse">
<stop stop-color="#03F8A0"/>
<stop offset="1" stop-color="#03B5AA"/>
</linearGradient>
<linearGradient id="paint2_linear_3507_2841" x1="96.7902" y1="126.039" x2="96.1104" y2="126.201" gradientUnits="userSpaceOnUse">
<stop stop-color="#03F8A0"/>
<stop offset="1" stop-color="#03B5AA"/>
</linearGradient>
<linearGradient id="paint3_linear_3507_2841" x1="96.558" y1="128.802" x2="97.8734" y2="134.314" gradientUnits="userSpaceOnUse">
<stop stop-color="#03F8A0"/>
<stop offset="1" stop-color="#03B5AA"/>
</linearGradient>
<linearGradient id="paint4_linear_3507_2841" x1="90.032" y1="127.752" x2="92.2774" y2="137.161" gradientUnits="userSpaceOnUse">
<stop stop-color="#03F8A0"/>
<stop offset="1" stop-color="#03B5AA"/>
</linearGradient>
<linearGradient id="paint5_linear_3507_2841" x1="89.1219" y1="127.969" x2="91.3674" y2="137.378" gradientUnits="userSpaceOnUse">
<stop stop-color="#03F8A0"/>
<stop offset="1" stop-color="#03B5AA"/>
</linearGradient>
<linearGradient id="paint6_linear_3507_2841" x1="90.761" y1="133.136" x2="91.5712" y2="137.325" gradientUnits="userSpaceOnUse">
<stop stop-color="#03F8A0"/>
<stop offset="1" stop-color="#03B5AA"/>
</linearGradient>
</defs>
</svg>