<svg width="23" height="24" viewBox="0 0 23 24" fill="none" xmlns="http://www.w3.org/2000/svg">
<g clip-path="url(#clip0)">
<path fill-rule="evenodd" clip-rule="evenodd" d="M11.8104 0.770752C5.77614 0.770752 0.888672 5.8281 0.888672 12.0721C0.888672 17.0729 4.01501 21.2968 8.35639 22.7942C8.90248 22.8931 9.10726 22.5541 9.10726 22.2574C9.10726 21.989 9.09361 21.099 9.09361 20.1526C6.34953 20.6752 5.63962 19.4603 5.42118 18.8246C5.29831 18.4997 4.76588 17.4967 4.30171 17.2283C3.91945 17.0164 3.37336 16.4937 4.28805 16.4796C5.14814 16.4655 5.76249 17.299 5.96727 17.638C6.95022 19.3473 8.52022 18.867 9.14822 18.5704C9.24378 17.8358 9.53048 17.3413 9.84448 17.0588C7.4144 16.7763 4.8751 15.8015 4.8751 11.4788C4.8751 10.2498 5.29831 9.23263 5.99457 8.44154C5.88536 8.159 5.5031 7.00062 6.10379 5.44668C6.10379 5.44668 7.01848 5.15002 9.10726 6.60507C9.981 6.35079 10.9093 6.22365 11.8377 6.22365C12.766 6.22365 13.6944 6.35079 14.5681 6.60507C16.6569 5.1359 17.5716 5.44668 17.5716 5.44668C18.1723 7.00062 17.79 8.159 17.6808 8.44154C18.3771 9.23263 18.8003 10.2356 18.8003 11.4788C18.8003 15.8157 16.2473 16.7763 13.8173 17.0588C14.2132 17.412 14.5545 18.0901 14.5545 19.1496C14.5545 20.6611 14.5408 21.876 14.5408 22.2574C14.5408 22.5541 14.7456 22.9073 15.2917 22.7942C17.4598 22.0369 19.3439 20.595 20.6786 18.6715C22.0133 16.7481 22.7315 14.44 22.7321 12.0721C22.7321 5.8281 17.8446 0.770752 11.8104 0.770752Z" fill="white"/>
</g>
<defs>
<clipPath id="clip0">
<rect width="21.8434" height="22.6027" fill="white" transform="translate(0.888672 0.770752)"/>
</clipPath>
</defs>
</svg>
