<svg width="22" height="24" viewBox="0 0 22 24" fill="none" xmlns="http://www.w3.org/2000/svg">
<path fill-rule="evenodd" clip-rule="evenodd" d="M21.349 12.3566C21.349 11.5552 21.2807 10.7846 21.1537 10.0449H11.0352V14.4165H16.8172C16.5681 15.8292 15.8112 17.0261 14.6733 17.8274V20.663H18.1455C20.177 18.6956 21.349 15.7983 21.349 12.3566Z" fill="#4285F4"/>
<path fill-rule="evenodd" clip-rule="evenodd" d="M11.0355 23.4009C13.9363 23.4009 16.3682 22.3889 18.1458 20.6629L14.6737 17.8273C13.7116 18.5054 12.481 18.9061 11.0355 18.9061C8.23725 18.9061 5.86876 16.9181 5.02392 14.2468H1.43457V17.1749C3.20239 20.8684 6.83569 23.4009 11.0355 23.4009Z" fill="#34A853"/>
<path fill-rule="evenodd" clip-rule="evenodd" d="M5.02359 14.2468C4.80872 13.5687 4.68663 12.8444 4.68663 12.0995C4.68663 11.3546 4.80872 10.6303 5.02359 9.95225V7.02417H1.43424C0.706599 8.54985 0.291504 10.2759 0.291504 12.0995C0.291504 13.9231 0.706599 15.6492 1.43424 17.1748L5.02359 14.2468Z" fill="#FBBC05"/>
<path fill-rule="evenodd" clip-rule="evenodd" d="M11.0355 5.2927C12.6128 5.2927 14.029 5.86291 15.1425 6.98277L18.2239 3.74134C16.3633 1.91771 13.9314 0.797852 11.0355 0.797852C6.83569 0.797852 3.20239 3.33038 1.43457 7.02387L5.02392 9.95194C5.86876 7.28071 8.23725 5.2927 11.0355 5.2927Z" fill="#EA4335"/>
</svg>
