<svg width="33" height="33" viewBox="0 0 33 33" fill="none" xmlns="http://www.w3.org/2000/svg">
<g id="insta_icon">
<g id="Group">
<g id="Group_2">
<path id="Vector" d="M23.9419 0H8.8641C3.97645 0 0 3.99996 0 8.91651V24.0835C0 29 3.97645 33 8.8641 33H23.9419C28.8296 33 32.806 29 32.806 24.0835V8.91651C32.806 3.99996 28.8296 0 23.9419 0ZM30.1557 24.0835C30.1557 27.53 27.3682 30.334 23.9419 30.334H8.8641C5.43786 30.334 2.65037 27.5301 2.65037 24.0835V8.91651C2.65037 5.47001 5.43779 2.66604 8.8641 2.66604H23.9419C27.3682 2.66604 30.1557 5.46994 30.1557 8.91651V24.0835Z" fill="#18CDCD"/>
</g>
</g>
<g id="Group_3">
<g id="Group_4">
<path id="Vector_2" d="M23.7457 15.3489C23.5125 13.7667 22.7949 12.3328 21.6706 11.2018C20.5463 10.0709 19.1208 9.34907 17.548 9.11452C16.8319 9.00772 16.1059 9.00772 15.3899 9.11452C13.4461 9.4045 11.731 10.4385 10.5605 12.026C9.3899 13.6135 8.9039 15.5647 9.19217 17.5198C9.48044 19.475 10.5083 21.2002 12.0865 22.3778C13.3678 23.3337 14.887 23.8356 16.4534 23.8356C16.8165 23.8356 17.1822 23.8087 17.548 23.7541C19.4917 23.4641 21.2068 22.4302 22.3774 20.8426C23.548 19.2551 24.034 17.3041 23.7457 15.3489ZM17.1592 21.1169C15.9159 21.3026 14.6751 20.9897 13.6654 20.2364C12.6558 19.4832 11.9983 18.3795 11.814 17.1288C11.6296 15.878 11.9404 14.6299 12.6892 13.6143C13.4381 12.5987 14.5353 11.9373 15.7787 11.7518C16.0077 11.7177 16.2383 11.7006 16.4689 11.7006C16.6995 11.7006 16.9302 11.7177 17.1592 11.7519C19.2243 12.0599 20.8177 13.6626 21.124 15.74C21.5046 18.3219 19.726 20.734 17.1592 21.1169Z" fill="#18CDCD"/>
</g>
</g>
<g id="Group_5">
<g id="Group_6">
<path id="Vector_3" d="M25.6332 7.21565C25.3864 6.96744 25.0448 6.8252 24.6961 6.8252C24.3474 6.8252 24.0058 6.96738 23.759 7.21565C23.5123 7.46393 23.3708 7.80695 23.3708 8.15828C23.3708 8.50961 23.5123 8.85263 23.759 9.10091C24.0058 9.34912 24.3474 9.49136 24.6961 9.49136C25.0448 9.49136 25.3864 9.34918 25.6332 9.10091C25.8799 8.85263 26.0213 8.50903 26.0213 8.15828C26.0213 7.80746 25.8799 7.46386 25.6332 7.21565Z" fill="#18CDCD"/>
</g>
</g>
</g>
</svg>
