<svg width="1152" height="1137" viewBox="0 0 1152 1137" fill="none" xmlns="http://www.w3.org/2000/svg">
<mask id="mask0_142_1218" style="mask-type:alpha" maskUnits="userSpaceOnUse" x="4" y="0" width="1144" height="1130">
<rect x="4.5" y="0.5" width="1143" height="1129" fill="#D9D9D9" stroke="black"/>
</mask>
<g mask="url(#mask0_142_1218)">
<g filter="url(#filter0_d_142_1218)">
<g filter="url(#filter1_d_142_1218)">
<path d="M172.589 102.043L149.519 21.7692L153.819 12.0999L157.677 26.1976C157.911 27.052 158.489 27.7709 159.274 28.1821L175.821 36.8553L187.28 41.2448L198.738 45.6343L215.44 54.456C215.583 54.5314 215.72 54.6176 215.85 54.7137L223.898 60.6768C224.896 61.4162 224.358 63.0009 223.116 62.9792L219.166 62.9104L209.574 63.0231L201.336 63.1198C200.438 63.1304 199.542 63.0145 198.677 62.7756L190.155 60.4242C188.903 60.079 187.712 59.5449 186.622 58.8404L178.938 53.8759C178.614 53.6662 178.309 53.4274 178.027 53.1625L162.578 38.6203C162.1 38.1709 161.337 38.6471 161.53 39.2736L167.571 58.8206C167.785 59.5103 168.225 60.1073 168.821 60.5143L175.023 64.7478L203.699 81.4547L217.45 91.9227C218.442 92.6775 217.875 94.2601 216.63 94.2145L205.737 93.8163C205.531 93.8088 205.327 93.7813 205.126 93.7342L197.379 91.9187C195.603 91.5025 193.937 90.7105 192.493 89.5962L187.772 85.9534L172.763 72.2433C172.274 71.7963 171.511 72.2987 171.729 72.9246L175.025 82.386C175.068 82.5083 175.146 82.6147 175.251 82.6912L192.796 95.5322L210.785 107.861C211.308 108.22 211.774 108.654 212.169 109.15L215.786 113.691C216.553 114.653 215.649 116.037 214.46 115.72L200.164 111.921C198.516 111.483 196.972 110.719 195.624 109.674L186.984 102.98C186.69 102.752 186.416 102.499 186.166 102.223L176.141 91.1708C175.739 90.7273 175.003 91.0316 175.031 91.6296L175.489 101.395L186.079 121.075L191.228 133.844C191.311 134.05 191.372 134.265 191.411 134.484L193.586 146.839C193.826 148.201 192.031 148.919 191.266 147.767L181.778 133.497C181.291 132.764 180.881 131.984 180.554 131.167L174.747 116.641C174.551 116.152 174.417 115.641 174.347 115.119L172.608 102.134C172.604 102.103 172.598 102.073 172.589 102.043Z" fill="#699E6D"/>
<path d="M144.936 57.0128L153.849 36.9707L157.057 47.1542L149.893 70.8034L143.728 84.6669C143.157 85.9498 142.379 87.1299 141.424 88.1595L120.011 111.255C119.06 112.282 117.389 111.25 117.88 109.939L128.804 80.7776C129.196 79.7314 129.724 78.7411 130.374 77.8322L143.657 59.2495C144.157 58.549 144.586 57.7996 144.936 57.0128Z" fill="#699E6D"/>
<path d="M158.28 76.8798L163.032 66.1948L166.826 81.4408L164.307 92.6917C164.07 93.7501 163.699 94.7741 163.203 95.7388L155.358 111.004C154.71 112.266 153.856 113.411 152.831 114.391L141.964 124.793C141.031 125.686 139.513 124.787 139.848 123.539L148.275 92.1785C148.688 90.6417 149.385 89.1956 150.329 87.9148L157.585 78.0744C157.859 77.7025 158.092 77.302 158.28 76.8798Z" fill="#699E6D"/>
<path d="M155.794 148.001L168.267 86.3188L170.917 94.2769L169.731 104.483L166.64 117.233L155.794 148.001Z" fill="#699E6D"/>
</g>
<g filter="url(#filter2_d_142_1218)">
<path d="M369.024 67.2421L421.087 19.3773L429.699 19.3773L420.414 27.6955C419.903 28.1528 419.594 28.7934 419.554 29.4777L418.566 46.2636L419.091 57.1862L419.617 68.1088L418.566 85.1227L416.753 94.0402C416.546 95.0571 415.14 95.176 414.765 94.2082L413.525 91.0041L410.269 83.2323L407.408 76.4013C407.146 75.7767 406.967 75.1208 406.875 74.4499L405.741 66.1897C405.61 65.2332 405.613 64.2631 405.749 63.3074L406.952 54.8871C406.993 54.5999 407.058 54.3167 407.146 54.0403L412.903 36.0271C413.067 35.514 412.438 35.1212 412.049 35.4936L399.446 47.5567C399.041 47.9445 398.772 48.453 398.68 49.0062L397.561 55.7159L394.621 85.1227L391.387 100.102C391.167 101.12 389.754 101.218 389.395 100.24L386.089 91.2233C386.036 91.0775 385.995 90.9271 385.969 90.7741L384.681 83.3683C384.448 82.0303 384.48 80.6597 384.775 79.334L386.009 73.7801L391.267 56.5031C391.426 55.982 390.777 55.5992 390.398 55.9895L384.436 62.117C384.366 62.189 384.318 62.2799 384.298 62.3785L380.547 81.3419L377.307 100.583C377.227 101.057 377.082 101.516 376.876 101.95L374.667 106.601C374.226 107.53 372.849 107.323 372.7 106.306L370.743 92.9044C370.559 91.6482 370.607 90.369 370.885 89.1301L373.103 79.2343C373.165 78.9594 373.249 78.69 373.354 78.4287L378.322 66.0997C378.505 65.6466 378.018 65.2149 377.59 65.4503L370.465 69.3691L359.332 85.1227L351.533 93.9483C351.412 94.0856 351.276 94.2097 351.129 94.3185L342.559 100.64C341.652 101.309 340.478 100.258 341.044 99.2831L348.724 86.0311C349.074 85.4271 349.484 84.8599 349.948 84.3381L358.897 74.2703C359.186 73.9448 359.515 73.6569 359.876 73.4136L368.962 67.2904C368.984 67.2759 369.004 67.2597 369.024 67.2421Z" fill="#207349"/>
<path d="M393.462 28.4094L411.215 28.4094L404.703 34.7109L384.748 37.4415L372.555 37.4415C371.312 37.4415 370.079 37.2184 368.914 36.7827L344.322 27.5816C343.274 27.1895 343.502 25.6452 344.618 25.5717L370.23 23.8867C371.222 23.8215 372.218 23.8989 373.188 24.1166L391.186 28.1571C391.933 28.3248 392.696 28.4094 393.462 28.4094Z" fill="#207349"/>
<path d="M383.056 46.4737L392.52 46.4737L382.438 55.0857L373.356 57.0837C372.414 57.291 371.447 57.3661 370.483 57.3066L356.809 56.4625C355.561 56.3855 354.337 56.0837 353.196 55.5716L341.644 50.3884C340.709 49.9684 340.883 48.5905 341.894 48.4164L368.14 43.8972C369.535 43.6569 370.965 43.7043 372.341 44.0365L381.837 46.3286C382.236 46.425 382.645 46.4737 383.056 46.4737Z" fill="#207349"/>
<path d="M335.926 68.5934L379.287 58.0264L374.246 63.0675L366.264 65.7982L355.762 67.8987L336.094 69.6157C335.455 69.6715 335.302 68.7454 335.926 68.5934Z" fill="#207349"/>
<path d="M463.963 67.9571L461.837 58.2364L456.375 38.9119L450.914 19.5873L466.668 19.5873L469.064 34.9659C469.147 35.4953 469.188 36.0302 469.188 36.5659L469.188 56.5753C469.188 57.6757 469.014 58.7691 468.67 59.8147L465.965 68.059C465.635 69.0644 464.189 68.9908 463.963 67.9571Z" fill="#207349"/>
</g>
<g filter="url(#filter3_d_142_1218)">
<path d="M784.321 77.2282L721.396 19.3775L710.987 19.3775L722.209 29.431C722.826 29.9838 723.2 30.7581 723.249 31.5851L724.442 51.8731L723.807 65.0744L723.173 78.2757L724.442 98.8394L726.634 109.617C726.884 110.846 728.583 110.99 729.036 109.82L730.535 105.948L734.47 96.5545L737.929 88.2983C738.245 87.5435 738.461 86.7507 738.573 85.9399L739.943 75.9563C740.102 74.8003 740.098 73.6278 739.933 72.4726L738.48 62.2957C738.43 61.9486 738.351 61.6062 738.245 61.2722L731.287 39.5009C731.089 38.8808 731.849 38.406 732.319 38.8561L747.552 53.436C748.041 53.9047 748.366 54.5192 748.478 55.1879L749.829 63.2973L753.383 98.8394L757.292 116.944C757.558 118.174 759.266 118.292 759.699 117.111L763.695 106.213C763.76 106.036 763.808 105.855 763.841 105.67L765.397 96.7189C765.678 95.1018 765.64 93.4452 765.284 91.8429L763.792 85.1303L757.437 64.2488C757.245 63.619 758.029 63.1563 758.488 63.6281L765.693 71.0339C765.778 71.121 765.836 71.2308 765.859 71.35L770.393 94.2697L774.31 117.526C774.406 118.097 774.581 118.653 774.83 119.177L777.5 124.799C778.033 125.921 779.698 125.671 779.877 124.442L782.243 108.245C782.465 106.726 782.407 105.18 782.071 103.683L779.39 91.7224C779.316 91.3902 779.214 91.0645 779.087 90.7487L773.082 75.8475C772.862 75.3 773.45 74.7781 773.967 75.0627L782.579 79.799L796.034 98.8394L805.46 109.506C805.607 109.672 805.771 109.822 805.949 109.954L816.306 117.594C817.403 118.403 818.821 117.132 818.138 115.954L808.856 99.9372C808.433 99.2072 807.937 98.5216 807.377 97.891L796.561 85.7227C796.211 85.3293 795.813 84.9815 795.377 84.6873L784.395 77.2867C784.369 77.2691 784.344 77.2496 784.321 77.2282Z" fill="#82B185"/>
<path d="M754.784 30.294L733.328 30.294L741.198 37.9102L765.316 41.2105L780.053 41.2105C781.555 41.2105 783.046 40.9408 784.453 40.4142L814.176 29.2935C815.443 28.8196 815.168 26.9531 813.818 26.8643L782.863 24.8278C781.665 24.7489 780.461 24.8425 779.288 25.1056L757.535 29.989C756.632 30.1917 755.709 30.294 754.784 30.294Z" fill="#82B185"/>
<path d="M767.361 52.1268L755.922 52.1268L768.108 62.5355L779.084 64.9504C780.224 65.201 781.392 65.2917 782.556 65.2198L799.083 64.1996C800.592 64.1065 802.072 63.7417 803.451 63.1229L817.412 56.8582C818.543 56.3507 818.333 54.6852 817.111 54.4749L785.389 49.0127C783.702 48.7224 781.975 48.7797 780.311 49.1812L768.834 51.9515C768.352 52.068 767.857 52.1268 767.361 52.1268Z" fill="#82B185"/>
<path d="M824.324 78.8615L771.916 66.0898L778.009 72.1828L787.656 75.4831L800.35 78.0218L824.121 80.097C824.894 80.1645 825.078 79.0452 824.324 78.8615Z" fill="#82B185"/>
<path d="M669.575 78.0925L672.145 66.3438L678.745 42.9876L685.346 19.6314L666.306 19.6314L663.409 38.2184C663.309 38.8582 663.259 39.5047 663.259 40.1522L663.259 64.3362C663.259 65.6661 663.47 66.9877 663.885 68.2514L667.155 78.2157C667.553 79.4309 669.301 79.3419 669.575 78.0925Z" fill="#82B185"/>
</g>
<mask id="mask1_142_1218" style="mask-type:alpha" maskUnits="userSpaceOnUse" x="17" y="19" width="138" height="89">
<path d="M33.3698 19.3777C38.8198 19.3777 56.8885 19.9094 73.6997 19.3777L120.978 19.3777C120.978 19.3777 132.696 36.4182 139.781 39.0265C146.866 41.6347 151.681 51.0903 154.632 65.6307C154.632 65.6307 147.683 63.8918 142.778 62.3269C137.873 60.7619 128.608 56.4148 128.608 56.4148C128.608 56.4148 139.099 62.153 142.097 69.9777C145.094 77.8025 149.591 94.8431 149.591 94.8431C149.591 94.8431 140.734 87.54 128.608 84.5839C116.482 81.6279 110.215 69.9777 110.215 69.9777C110.215 69.9777 110.896 82.1496 108.852 89.4527C106.808 96.7558 102.04 107.537 102.04 107.537C102.04 107.537 89.6408 89.6266 89.6408 77.2808C89.6408 64.9351 94.0008 51.72 94.0008 51.72C94.0008 51.72 85.8258 66.1523 81.3296 71.7166C76.8334 77.2808 69.3397 78.6719 62.7997 77.2808C56.2597 75.8898 48.221 78.6719 48.221 78.6719C48.221 78.6719 52.3085 69.2822 55.306 64.9351C58.3035 60.588 68.1134 52.9372 70.9747 49.2856C73.8359 45.6341 82.9646 27.3763 82.9646 27.3763C82.9646 27.3763 70.9747 43.3736 63.6172 44.7646C56.2597 46.1557 43.316 42.678 34.051 35.2011C24.7861 27.7241 17.9736 23.0292 17.9736 23.0292C17.9736 23.0292 27.9198 19.3777 33.3698 19.3777Z" fill="#D9D9D9"/>
</mask>
<g mask="url(#mask1_142_1218)">
<path d="M33.3698 19.3777C38.8198 19.3777 56.8885 19.9094 73.6997 19.3777L120.978 19.3777C120.978 19.3777 132.696 36.4182 139.781 39.0265C146.866 41.6347 151.681 51.0903 154.632 65.6307C154.632 65.6307 147.683 63.8918 142.778 62.3269C137.873 60.7619 128.608 56.4148 128.608 56.4148C128.608 56.4148 139.099 62.153 142.097 69.9777C145.094 77.8025 149.591 94.8431 149.591 94.8431C149.591 94.8431 140.734 87.54 128.608 84.5839C116.482 81.6279 110.215 69.9777 110.215 69.9777C110.215 69.9777 110.896 82.1496 108.852 89.4527C106.808 96.7558 102.04 107.537 102.04 107.537C102.04 107.537 89.6408 89.6266 89.6408 77.2808C89.6408 64.9351 94.0008 51.72 94.0008 51.72C94.0008 51.72 85.8258 66.1523 81.3296 71.7166C76.8334 77.2808 69.3397 78.6719 62.7997 77.2808C56.2597 75.8898 48.221 78.6719 48.221 78.6719C48.221 78.6719 52.3085 69.2822 55.306 64.9351C58.3035 60.588 68.1134 52.9372 70.9747 49.2856C73.8359 45.6341 82.9646 27.3763 82.9646 27.3763C82.9646 27.3763 70.9747 43.3736 63.6172 44.7646C56.2597 46.1557 43.316 42.678 34.051 35.2011C24.7861 27.7241 17.9736 23.0292 17.9736 23.0292C17.9736 23.0292 27.9198 19.3777 33.3698 19.3777Z" fill="#B4D3B2"/>
<path d="M127.382 44.417C132.077 51.9017 136.685 56.0847 145.095 63.5441C179.24 78.2719 154.281 42.1583 145.095 13.2918L18.5188 13.2918L18.5188 28.7675C31.9272 36.1534 40.8207 38.133 58.5762 38.6788C50.391 35.5966 47.5878 33.3375 44.4062 28.7675C71.2474 42.3304 78.7411 32.2451 95.0911 16.074C90.6563 33.3474 87.8414 42.4677 77.5149 49.6335C83.0951 47.9964 86.3004 46.0889 92.2298 39.896C86.9161 56.4149 81.6234 74.9079 65.5249 72.0644C71.4236 70.3382 72.156 65.1281 73.9724 58.8493C68.3862 67.0218 59.3801 73.1406 48.4937 78.3242C65.1867 82.3534 74.1305 80.1226 89.6411 71.3689C94.0313 56.545 96.879 49.7813 102.857 41.2871C99.1849 61.2815 97.3704 59.4254 98.4973 76.5854C100.082 64.7588 101.387 57.829 105.174 44.417C108.9 73.8648 108.198 87.6463 102.176 107.537L118.935 83.0191C111.417 67.7709 109.776 57.6929 112.395 36.4183C123.022 62.8486 135.83 61.4596 140.462 76.5854C135.715 72.7872 132.792 71.9308 127.382 71.3689C137.669 77.4625 141.532 84.6048 150.136 96.0603C143.846 59.5413 138.555 62.6747 128.608 56.4149C123.265 51.2199 116.293 40.3167 107.762 17.8128L115.256 17.8128C122.56 31.4904 125.719 39.8759 138.146 49.6335C135.159 49.8631 132.773 48.6607 127.382 44.417Z" fill="#82B185"/>
</g>
<mask id="mask2_142_1218" style="mask-type:alpha" maskUnits="userSpaceOnUse" x="900" y="14" width="193" height="125">
<path d="M1071.05 14.5255C1063.41 14.5255 1038.07 15.2713 1014.49 14.5255L948.191 14.5255C948.191 14.5255 931.758 38.4227 921.823 42.0804C911.887 45.7381 905.133 58.9983 900.996 79.3892C900.996 79.3892 910.741 76.9507 917.619 74.7561C924.498 72.5614 937.491 66.4652 937.491 66.4652C937.491 66.4652 922.778 74.5122 918.574 85.4854C914.371 96.4586 908.066 120.356 908.066 120.356C908.066 120.356 920.485 110.114 937.491 105.969C954.496 101.823 963.285 85.4854 963.285 85.4854C963.285 85.4854 962.33 102.555 965.196 112.796C968.062 123.038 974.75 138.157 974.75 138.157C974.75 138.157 992.137 113.04 992.137 95.727C992.137 78.4138 986.023 59.8813 986.023 59.8813C986.023 59.8813 997.487 80.1207 1003.79 87.9239C1010.1 95.727 1020.61 97.6778 1029.78 95.727C1038.95 93.7762 1050.22 97.6778 1050.22 97.6778C1050.22 97.6778 1044.49 84.51 1040.29 78.4138C1036.08 72.3176 1022.33 61.5883 1018.31 56.4675C1014.3 51.3466 1001.5 25.7426 1001.5 25.7426C1001.5 25.7426 1018.31 48.1766 1028.63 50.1274C1038.95 52.0782 1057.1 47.2012 1070.09 36.7157C1083.09 26.2302 1092.64 19.6463 1092.64 19.6463C1092.64 19.6463 1078.69 14.5255 1071.05 14.5255Z" fill="#D9D9D9"/>
</mask>
<g mask="url(#mask2_142_1218)">
<path d="M1071.05 14.5255C1063.41 14.5255 1038.07 15.2713 1014.49 14.5255L948.191 14.5255C948.191 14.5255 931.758 38.4227 921.823 42.0804C911.887 45.7381 905.133 58.9983 900.996 79.3892C900.996 79.3892 910.741 76.9507 917.619 74.7561C924.498 72.5614 937.491 66.4652 937.491 66.4652C937.491 66.4652 922.778 74.5122 918.574 85.4854C914.371 96.4586 908.066 120.356 908.066 120.356C908.066 120.356 920.485 110.114 937.491 105.969C954.496 101.823 963.285 85.4854 963.285 85.4854C963.285 85.4854 962.33 102.555 965.196 112.796C968.062 123.038 974.75 138.157 974.75 138.157C974.75 138.157 992.137 113.04 992.137 95.727C992.137 78.4138 986.023 59.8813 986.023 59.8813C986.023 59.8813 997.487 80.1207 1003.79 87.9239C1010.1 95.727 1020.61 97.6778 1029.78 95.727C1038.95 93.7762 1050.22 97.6778 1050.22 97.6778C1050.22 97.6778 1044.49 84.51 1040.29 78.4138C1036.08 72.3176 1022.33 61.5883 1018.31 56.4675C1014.3 51.3466 1001.5 25.7426 1001.5 25.7426C1001.5 25.7426 1018.31 48.1766 1028.63 50.1274C1038.95 52.0782 1057.1 47.2012 1070.09 36.7157C1083.09 26.2302 1092.64 19.6463 1092.64 19.6463C1092.64 19.6463 1078.69 14.5255 1071.05 14.5255Z" fill="#B4D3B2"/>
<path d="M939.21 49.6397C932.627 60.1361 926.164 66.0021 914.371 76.463C866.487 97.1167 901.489 46.4722 914.371 5.99083L1091.88 5.99081L1091.88 27.6933C1073.07 38.0511 1060.6 40.8272 1035.7 41.5927C1047.18 37.2703 1051.11 34.1022 1055.57 27.6933C1017.93 46.7135 1007.42 32.5703 984.494 9.8924C990.713 34.1161 994.661 46.9061 1009.14 56.9551C1001.32 54.6594 996.822 51.9844 988.507 43.2996C995.959 66.4652 1003.38 92.3991 1025.96 88.4115C1017.68 85.9908 1016.66 78.6842 1014.11 69.8791C1021.94 81.34 1034.57 89.9208 1049.84 97.1901C1026.43 102.84 1013.89 99.712 992.137 87.4362C985.98 66.6476 981.987 57.1624 973.603 45.2504C978.753 73.29 981.298 70.6869 979.717 94.7516C977.495 78.1664 975.665 68.4482 970.355 49.6397C965.13 90.9363 966.114 110.263 974.559 138.157L951.057 103.774C961.6 82.3904 963.9 68.2575 960.228 38.4227C945.325 75.4876 927.364 73.5397 920.867 94.7516C927.525 89.4251 931.624 88.2242 939.21 87.4362C924.784 95.9816 919.367 105.998 907.301 122.063C916.122 70.8496 923.542 75.2437 937.491 66.4652C944.983 59.1799 954.761 43.8897 966.725 12.3309L956.216 12.3309C945.972 31.5119 941.543 43.2715 924.116 56.9551C928.304 57.2772 931.65 55.5909 939.21 49.6397Z" fill="#82B185"/>
</g>
<path d="M47.3946 59.7845C41.1764 62.9343 32.4353 64.8079 28.842 65.351C26.7283 61.9951 26.8605 62.2049 31.4271 56.6304C35.9938 51.056 70.8642 20.5907 50.7006 13.2409C30.537 5.89107 23.4833 21.8215 16.3795 14.9824C9.2756 8.14325 -8.81387 13.4584 -18.703 17.9815C-28.5922 22.5045 -29.5114 13.153 -32.8961 30.4693C-36.2807 47.7857 -23.6569 56.9762 -22.5388 65.657C-21.4208 74.3378 -40.7444 94.9577 -37.2824 108.839C-33.8205 122.721 -51.052 130.385 -40.4397 131.943C-29.8274 133.5 -35.0178 132.659 -14.0588 137.325C6.90017 141.992 22.2849 127.45 26.684 125.062C31.0832 122.675 38.8107 135.93 57.6601 131.328C76.5096 126.726 69.2271 138.841 79.4187 127.399C89.6103 115.957 82.6878 86.2225 81.1039 81.7348C79.52 77.2471 90.9931 77.2117 85.7457 63.4547C80.4982 49.6977 55.1673 55.8473 47.3946 59.7845Z" fill="#207349"/>
<path d="M23.4295 75.2977C26.5508 72.1897 26.9312 66.6112 26.7313 64.2103C25.6042 63.6086 23.6436 62.947 24.8183 65.1142C25.9929 67.2813 23.5009 71.1808 22.108 72.8597C20.8831 65.6123 14.7163 54.2348 8.79684 53.2886C4.06127 52.5316 -7.66087 37.5357 -9.86615 36.4226C-8.82576 37.9726 1.22108 53.9415 8.57447 55.095C15.9279 56.2484 19.6175 68.8189 20.5432 74.96C19.0059 82.7638 14.7452 87.9072 12.807 89.5035C2.79553 83.8895 -4.68569 84.3843 -7.17487 85.3335C0.769237 84.0302 9.50391 89.1359 12.8782 91.8517C9.44477 98.3736 2.88364 103.152 0.0322543 104.726C-10.392 100.124 -21.2879 102.89 -25.4328 104.848C-17.5457 101.666 -5.77114 104.179 -0.869737 105.833C-6.19943 111.073 -19.2674 117.701 -25.1352 120.36C-12.5746 117.488 -8.87433 112.677 -5.76564 111.208C-3.2787 110.033 5.0599 118.978 13.249 117.831C7.66099 116.388 4.00091 107.615 -1.4613 109.175C9.07722 102.018 13.6166 95.2457 14.5689 92.7542C21.7814 87.4411 35.9516 101.386 40.9145 102.784C34.6822 98.3787 20.6898 88.161 15.6933 89.8412C19.167 87.3834 21.2045 81.9065 21.7891 79.4753C35.1804 73.1485 60.2319 88.8719 66.4687 91.1426C60.7096 84.064 32.2996 73.3753 23.4295 75.2977Z" fill="#699E6D"/>
<path d="M1105.21 68.0091C1102.04 16.5753 1162.71 70.8937 1160.75 140.287C1158.78 209.706 1198.15 272.908 1207.83 282.759" stroke="#699E6D" stroke-width="6.01671"/>
<path d="M1097.81 42.0681C1098.15 50.1546 1101.31 59.8571 1102.84 63.6976C1107.57 63.561 1107.28 63.5695 1110.42 55.5049C1113.57 47.4403 1124.97 -6.25204 1144.42 8.52119C1163.87 23.2944 1151.37 40.5226 1162.65 42.9573C1173.94 45.3919 1178.96 66.4082 1180.02 78.9518C1181.08 91.4953 1191.37 86.2914 1175.29 100.863C1159.2 115.435 1142.24 109.177 1132.54 113.751C1122.83 118.324 1112.61 150.514 1096.11 156.204C1079.61 161.894 1081.68 183.609 1073.86 174.327C1066.03 165.046 1069.94 169.533 1052.83 152.239C1035.72 134.945 1041.9 110.539 1041.82 104.714C1041.74 98.8892 1023.4 100.032 1017.19 78.743C1010.98 57.4542 1002.6 72.4169 1008.58 55.07C1014.56 37.723 1049.61 25.0575 1055.22 23.669C1060.83 22.2805 1054.16 11.1255 1071.57 7.24947C1088.99 3.37348 1097.37 31.96 1097.81 42.0681Z" fill="#699E6D"/>
<path d="M1095.89 75.4332C1097.3 70.3845 1102.87 66.3889 1105.49 65.0222C1106.77 65.7245 1108.6 67.1965 1105.66 67.4657C1102.73 67.7349 1100.13 72.6876 1099.2 75.1303C1107.44 71.6073 1122.86 70.194 1127.3 75.3218C1130.85 79.4241 1153.27 81.0481 1155.72 82.464C1153.5 82.4623 1131.04 83.0962 1125.55 76.7118C1120.06 70.3275 1104.85 74.9198 1097.93 78.0139C1090.71 84.5784 1087.85 92.0558 1087.33 94.9739C1099 101.037 1102.85 108.617 1103.32 111.649C1100.04 103.095 1089.64 97.9395 1084.85 96.4313C1080.07 104.002 1078.93 113.474 1078.96 117.264C1089.83 124.385 1093.31 136.754 1093.7 142.049C1092.4 132.328 1082.92 122.538 1078.34 118.858C1076 127.435 1076.74 144.422 1077.4 151.844C1073.06 137.791 1075.9 131.073 1075.61 127.103C1075.38 123.926 1061.22 121.651 1057.63 112.96C1062.39 117.444 1073.64 115.291 1075.21 121.605C1076.5 106.728 1080.89 97.9214 1082.92 95.3777C1084.23 84.9263 1061.47 80.2439 1057.12 76.3378C1065.34 79.5206 1084.12 86.4534 1085.29 92.3932C1085.82 87.4253 1090.32 81.8881 1092.51 79.7405C1091.27 62.6356 1060.31 48.5525 1054.31 43.9778C1065.03 44.9635 1092.71 65.5778 1095.89 75.4332Z" fill="#B4D3B2"/>
<path d="M-4.74062 124.934C-2.30545 130.061 -1.05465 137.063 -0.733647 139.923C-3.67076 141.308 -3.48717 141.221 -8.04934 137.192C-12.6115 133.162 -37.1558 103.372 -44.1976 118.579C-51.2394 133.786 -37.9667 140.602 -44.0621 145.616C-50.1575 150.629 -46.3462 165.235 -42.8869 173.35C-39.4276 181.466 -47.4174 181.43 -32.8221 185.483C-18.2268 189.535 -9.91503 180.386 -2.48797 180.212C4.93908 180.038 21.7192 196.848 33.6618 195.258C45.6044 193.668 51.447 207.791 53.1879 199.601C54.9288 191.41 54.0095 195.41 58.8003 179.363C63.5911 163.316 51.8261 150.083 49.9678 146.443C48.1095 142.802 59.6864 137.819 56.5115 122.675C53.3366 107.532 63.3547 114.218 54.0227 105.306C44.6908 96.3944 19.1294 99.4144 15.2504 100.293C11.3713 101.171 11.7911 92.1773 -0.115336 95.1769C-12.0218 98.1764 -7.78459 118.524 -4.74062 124.934Z" fill="#699E6D"/>
<path d="M7.32975 145.053C4.81828 142.356 0.105878 141.608 -1.93639 141.571C-2.49039 142.405 -3.1278 143.888 -1.24538 143.143C0.637045 142.397 3.8439 144.665 5.21202 145.891C-0.97732 146.266 -10.86 150.179 -11.8936 154.741C-12.7204 158.39 -25.8869 166.363 -26.9165 168.001C-25.5622 167.311 -11.6369 160.729 -10.3716 155.061C-9.10627 149.392 1.69043 147.516 6.93062 147.287C13.4833 149.122 17.6751 152.875 18.9519 154.523C13.8026 161.913 13.9291 167.815 14.636 169.842C13.8425 163.512 18.511 157.081 20.9445 154.656C26.3368 157.873 30.1292 163.399 31.3514 165.761C27.0432 173.556 28.9606 182.317 30.4577 185.722C28.0702 179.286 30.6603 170.263 32.2538 166.557C36.4857 171.156 41.5904 181.929 43.6138 186.742C41.6719 176.668 37.7402 173.381 36.6173 170.827C35.719 168.783 43.6253 162.972 42.974 156.463C41.5324 160.725 33.9546 162.884 35.0626 167.29C29.4106 158.455 23.8495 154.352 21.7755 153.405C17.5556 147.325 29.927 137.348 31.306 133.572C27.3291 138.1 18.1229 148.238 19.351 152.288C17.4042 149.368 12.843 147.33 10.8057 146.675C5.96859 135.672 20.2733 117.314 22.4416 112.611C16.2177 116.552 6.04802 137.948 7.32975 145.053Z" fill="#B4D3B2"/>
<path d="M1126.13 165.881C1130.01 165.83 1140.79 169.601 1152.86 185.097C1164.94 200.593 1176.5 206.535 1180.78 207.569" stroke="#207349" stroke-width="6.01671"/>
<path d="M1115.39 152.358C1117.58 157.061 1121.81 162.04 1123.65 163.942C1126.41 162.713 1126.24 162.79 1126.12 157.253C1126 151.716 1119.58 117.166 1134.66 121.197C1149.74 125.228 1146.59 138.457 1153.84 137.162C1161.09 135.868 1169.19 147.092 1172.89 154.261C1176.58 161.43 1181.38 155.854 1175.46 168.38C1169.54 180.905 1158.01 181.313 1153.41 186.374C1148.81 191.435 1150.66 212.968 1142.33 220.337C1133.99 227.706 1140.53 240.059 1133.64 236.461C1126.76 232.863 1130.16 234.572 1115.84 228.482C1101.52 222.393 1099.19 206.446 1097.72 203.017C1096.25 199.588 1085.71 204.711 1076.84 193.614C1067.97 182.517 1066.69 193.407 1065.97 181.688C1065.25 169.969 1082.82 153.971 1085.78 151.79C1088.75 149.609 1082.09 144.621 1091.41 138.105C1100.72 131.589 1112.66 146.479 1115.39 152.358Z" fill="#207349"/>
<path d="M1122.43 172.556C1122.03 169.228 1124.34 165.512 1125.54 164.071C1126.47 164.176 1127.91 164.603 1126.25 165.474C1124.58 166.345 1124.26 169.905 1124.31 171.576C1128.31 167.493 1137.05 162.92 1140.92 164.879C1144.02 166.446 1157.64 161.972 1159.43 162.218C1158.12 162.754 1145.03 168.572 1140.23 166.124C1135.44 163.677 1127.59 170.082 1124.27 173.59C1121.62 179.222 1121.77 184.339 1122.17 186.194C1130.54 186.952 1134.66 190.504 1135.68 192.185C1131.65 187.918 1124.26 187.389 1121.06 187.658C1120.1 193.294 1121.75 199.175 1122.69 201.41C1130.84 202.991 1135.92 209.465 1137.45 212.505C1134.3 207.067 1126.32 203.572 1122.72 202.505C1123.44 208.146 1128.03 218.018 1130.24 222.249C1124.24 214.987 1124.27 210.324 1123.13 208.044C1122.21 206.22 1113.31 208.306 1109.07 204.033C1112.97 205.532 1119.08 201.532 1121.55 204.888C1118.66 195.773 1119.09 189.499 1119.67 187.501C1117.89 180.999 1103.32 183.744 1099.8 182.486C1105.42 182.379 1118.19 181.929 1120.34 185.16C1119.43 182.093 1120.73 177.725 1121.49 175.925C1116.58 166.105 1094.88 165.274 1090.22 164.021C1096.78 162.007 1118.15 167.495 1122.43 172.556Z" fill="#699E6D"/>
</g>
<g filter="url(#filter4_d_142_1218)">
<g filter="url(#filter5_d_142_1218)">
<path d="M263.254 91.792C263.254 91.792 271.18 98.3394 268.423 110.056C265.666 121.772 274.97 128.32 271.869 133.834C268.767 139.347 254.639 126.252 254.639 121.428C254.639 116.603 264.632 114.88 264.632 119.36C264.632 123.84 263.943 136.246 251.882 132.111C239.821 127.975 259.463 110.056 256.706 91.792" stroke="#EDB447" stroke-width="0.847781" shape-rendering="crispEdges"/>
</g>
<g filter="url(#filter6_f_142_1218)">
<path d="M263.254 91.792C263.254 91.792 271.18 98.3394 268.423 110.056C265.666 121.772 274.97 128.32 271.869 133.834C268.767 139.347 254.639 126.252 254.639 121.428C254.639 116.603 264.632 114.88 264.632 119.36C264.632 123.84 263.943 136.246 251.882 132.111C239.821 127.975 259.463 110.056 256.706 91.792" stroke="#EDB447" stroke-width="0.847781"/>
</g>
<g style="mix-blend-mode:hard-light" opacity="0.5" filter="url(#filter7_f_142_1218)">
<path d="M271.844 88.1852H249.879V99.194C237.577 103.678 228.793 115.48 228.793 129.333C228.793 147.044 243.151 161.402 260.862 161.402C278.573 161.402 292.931 147.044 292.931 129.333C292.931 115.48 284.147 103.678 271.844 99.194V88.1852Z" fill="url(#paint0_radial_142_1218)"/>
</g>
<path d="M270.673 72.9562V49.2341C270.673 47.6166 269.362 46.3054 267.744 46.3054H253.98C252.362 46.3054 251.051 47.6166 251.051 49.2341V72.9562H250.172C248.555 72.9562 247.244 74.2674 247.244 75.8849V90.8211C247.244 92.4386 248.555 93.7497 250.172 93.7497H271.552C273.169 93.7497 274.48 92.4386 274.48 90.8211V75.8849C274.48 74.2674 273.169 72.9562 271.552 72.9562H270.673Z" fill="#4D4B4F"/>
<rect x="256.51" y="21.9997" width="8.96739" height="39.9457" fill="#4D4B4F"/>
</g>
<g style="mix-blend-mode:overlay" opacity="0.25" filter="url(#filter8_f_142_1218)">
<path d="M227.571 126.348H292.788L623.359 1130.29H-103L227.571 126.348Z" fill="url(#paint1_linear_142_1218)"/>
</g>
<g filter="url(#filter9_d_142_1218)">
<g filter="url(#filter10_d_142_1218)">
<path d="M886.895 91.7921C886.895 91.7921 894.821 98.3396 892.064 110.056C889.307 121.773 898.612 128.32 895.51 133.834C892.409 139.347 878.28 126.252 878.28 121.428C878.28 116.604 888.273 114.881 888.273 119.36C888.273 123.84 887.584 136.246 875.523 132.111C863.462 127.975 883.104 110.056 880.348 91.7921" stroke="#EDB447" stroke-width="0.847781" shape-rendering="crispEdges"/>
</g>
<g filter="url(#filter11_f_142_1218)">
<path d="M886.895 91.7921C886.895 91.7921 894.821 98.3396 892.064 110.056C889.307 121.773 898.612 128.32 895.51 133.834C892.409 139.347 878.28 126.252 878.28 121.428C878.28 116.604 888.273 114.881 888.273 119.36C888.273 123.84 887.584 136.246 875.523 132.111C863.462 127.975 883.104 110.056 880.348 91.7921" stroke="#EDB447" stroke-width="0.847781"/>
</g>
<g style="mix-blend-mode:hard-light" opacity="0.5" filter="url(#filter12_f_142_1218)">
<path d="M895.486 88.1853H873.521V99.1941C861.219 103.678 852.435 115.48 852.435 129.333C852.435 147.044 866.793 161.402 884.504 161.402C902.215 161.402 916.573 147.044 916.573 129.333C916.573 115.48 907.788 103.678 895.486 99.1941V88.1853Z" fill="url(#paint2_radial_142_1218)"/>
</g>
<path d="M894.315 72.9564V49.2342C894.315 47.6167 893.004 46.3055 891.386 46.3055H877.621C876.004 46.3055 874.693 47.6167 874.693 49.2342V72.9564H873.814C872.197 72.9564 870.885 74.2676 870.885 75.885V90.8212C870.885 92.4387 872.197 93.7499 873.814 93.7499H895.193C896.811 93.7499 898.122 92.4387 898.122 90.8212V75.885C898.122 74.2676 896.811 72.9564 895.193 72.9564H894.315Z" fill="#4D4B4F"/>
<rect x="880.152" y="21.9998" width="8.96739" height="39.9457" fill="#4D4B4F"/>
</g>
<g style="mix-blend-mode:overlay" opacity="0.25" filter="url(#filter13_f_142_1218)">
<path d="M851.212 126.348H916.429L1247 1130.29H520.641L851.212 126.348Z" fill="url(#paint3_linear_142_1218)"/>
</g>
<g filter="url(#filter14_d_142_1218)">
<rect x="-24" width="1200" height="21.6667" fill="#B79684"/>
<rect x="4.3335" y="21.6666" width="35.0975" height="42.117" fill="#C09F8D"/>
<rect x="162.653" y="21.6666" width="35.0975" height="42.117" fill="#C09F8D"/>
<rect x="320.972" y="21.6666" width="35.0975" height="42.117" fill="#C09F8D"/>
<rect x="479.292" y="21.6666" width="35.0975" height="42.117" fill="#C09F8D"/>
<rect x="637.611" y="21.6666" width="35.0975" height="42.117" fill="#C09F8D"/>
<rect x="795.931" y="21.6666" width="35.0975" height="42.117" fill="#C09F8D"/>
<rect x="954.25" y="21.6666" width="35.0975" height="42.117" fill="#C09F8D"/>
<rect x="1112.57" y="21.6666" width="35.0975" height="42.117" fill="#C09F8D"/>
</g>
<g filter="url(#filter15_d_142_1218)">
<path d="M858.148 256.675L856.361 248.512C856.191 247.735 856.952 247.081 857.694 247.364L887.281 258.647C887.434 258.705 887.59 258.726 887.753 258.707C889.8 258.464 904.553 256.801 914.135 258.036C920.842 258.9 924.587 259.814 931.002 261.956C940.016 264.965 945.494 266.64 952.869 272.634C957.903 276.724 960.108 279.774 963.987 284.972C967.353 289.482 969.149 292.133 971.657 297.171C979.623 313.177 977.59 341.489 977.169 346.366C977.131 346.804 976.808 347.149 976.373 347.209C975.496 347.329 974.012 347.465 972.972 347.2C969.427 346.296 969.017 342.983 967.265 339.771C965.077 335.761 966.286 332.416 963.757 328.611C962.012 325.987 958.15 322.974 957.675 322.609C957.643 322.584 957.613 322.558 957.584 322.53C957.145 322.098 953.426 318.393 951.926 315.373C950.421 312.341 950.105 307.891 950.123 304.523C950.104 304.584 950.048 304.627 949.981 304.628L857.611 305.224C857.54 305.224 857.469 305.217 857.4 305.201C856.769 305.052 853.458 304.191 852.836 302.362C852.149 300.344 853.298 298.801 854.768 297.259C856.122 295.839 857.533 295.946 859.305 295.104C859.305 295.104 857.933 295.338 852.51 289.969C848.449 285.949 841.567 277.495 838.366 273.502C837.78 272.771 838.437 271.718 839.353 271.917L846.749 273.523C847.369 273.658 847.962 273.191 848.001 272.558C848.123 270.54 848.546 266.503 849.992 264.085C851.692 261.244 855.958 258.714 857.628 257.799C858.03 257.579 858.246 257.122 858.148 256.675Z" fill="#D8B998"/>
<path d="M971.423 270.286C965.405 270.172 958.114 279.393 958.114 279.393L961.707 285.045C961.707 285.045 969.233 278.15 974.422 279.511C980.563 281.122 980.353 288.875 984.463 294.572C988.124 299.648 989.362 303.803 994.21 307.178C997.749 309.642 1000.1 311.021 1004.19 311.02C1009.77 311.02 1015.79 310.292 1017.09 303.84C1017.52 301.663 1017.72 300.145 1016.94 298.097C1014.96 292.933 1009.82 301.166 1005.07 301.145C1001.89 301.131 999.832 301.479 996.999 299.716C993.884 297.777 991.046 291.662 991.046 291.662C991.046 291.662 987.677 282.895 984.046 278.711C979.982 274.028 977.051 270.393 971.423 270.286Z" fill="#D8B998"/>
<g filter="url(#filter16_f_142_1218)">
<path d="M858.924 280.615L858.561 284.299" stroke="#463F3F" stroke-width="2" stroke-linecap="round"/>
</g>
<g filter="url(#filter17_f_142_1218)">
<path d="M874.672 267.346L870.985 267.678" stroke="#463F3F" stroke-width="2" stroke-linecap="round"/>
</g>
<g filter="url(#filter18_f_142_1218)">
<path d="M872.18 279.569C872.18 279.569 875.555 280.915 877.235 279.666C878.297 278.876 878.545 277.105 878.545 277.105" stroke="#463F3F" stroke-width="2" stroke-linecap="round"/>
<path d="M872.18 279.569C872.18 279.569 873.815 282.422 872.766 284.376C871.987 285.826 869.83 286.29 869.83 286.29" stroke="#463F3F" stroke-width="2" stroke-linecap="round"/>
<ellipse cx="871.385" cy="279.15" rx="1.13456" ry="1.75871" transform="rotate(36.0184 871.385 279.15)" fill="#463F3F"/>
</g>
<mask id="mask3_142_1218" style="mask-type:alpha" maskUnits="userSpaceOnUse" x="838" y="247" width="140" height="101">
<path d="M858.148 256.675L856.361 248.512C856.191 247.735 856.952 247.081 857.694 247.364L887.281 258.647C887.434 258.705 887.59 258.726 887.753 258.707C889.8 258.464 904.553 256.801 914.135 258.036C920.842 258.9 924.587 259.814 931.002 261.956C940.016 264.965 945.494 266.64 952.869 272.634C957.903 276.724 960.108 279.774 963.987 284.972C967.353 289.482 969.149 292.133 971.657 297.171C979.623 313.177 977.59 341.489 977.169 346.366C977.131 346.804 976.808 347.149 976.373 347.209C975.496 347.329 974.012 347.465 972.972 347.2C969.427 346.296 969.017 342.983 967.265 339.771C965.077 335.761 966.286 332.416 963.757 328.611C962.012 325.987 958.15 322.974 957.675 322.609C957.643 322.584 957.613 322.558 957.584 322.53C957.145 322.098 953.426 318.393 951.926 315.373C950.421 312.341 950.105 307.891 950.123 304.523C950.104 304.584 950.048 304.627 949.981 304.628L857.611 305.224C857.54 305.224 857.469 305.217 857.4 305.201C856.769 305.052 853.458 304.191 852.836 302.362C852.149 300.344 853.298 298.801 854.768 297.259C856.122 295.839 857.533 295.946 859.305 295.104C859.305 295.104 857.933 295.338 852.51 289.969C848.449 285.949 841.567 277.495 838.366 273.502C837.78 272.771 838.437 271.718 839.353 271.917L846.749 273.523C847.369 273.658 847.962 273.191 848.001 272.558C848.123 270.54 848.546 266.503 849.992 264.085C851.692 261.244 855.958 258.714 857.628 257.799C858.03 257.579 858.246 257.122 858.148 256.675Z" fill="#D8B998"/>
</mask>
<g mask="url(#mask3_142_1218)">
<g filter="url(#filter19_f_142_1218)">
<path d="M939.444 275.777C939.863 279.554 943.911 266.867 943.911 266.867L940.214 265.617C940.214 265.617 939.025 272 939.444 275.777Z" fill="#8F6C55"/>
<path d="M959.448 305.968C962.732 304.056 949.493 305.49 949.493 305.49L949.846 309.376C949.846 309.376 956.164 307.88 959.448 305.968Z" fill="#8F6C55"/>
<path d="M960.125 315.745C963.201 315.651 953.886 320.624 953.886 320.624L952.205 317.616C952.205 317.616 957.05 315.838 960.125 315.745Z" fill="#8F6C55"/>
<path d="M923.623 267.651C924.631 270.506 925.615 260.01 925.615 260.01L922.43 259.654C922.43 259.654 922.614 264.795 923.623 267.651Z" fill="#8F6C55"/>
<path d="M857.985 267.245C861.071 268.053 853.575 260.64 853.575 260.64L850.682 263.436C850.682 263.436 854.899 266.437 857.985 267.245Z" fill="#8F6C55"/>
<path d="M855.658 270.822C857.736 273.242 847.789 269.748 847.789 269.748L849.037 265.923C849.037 265.923 853.58 268.401 855.658 270.822Z" fill="#8F6C55"/>
<path d="M897.4 267.891C895.884 271.375 895.763 258.059 895.763 258.059L899.665 257.956C899.665 257.956 898.916 264.406 897.4 267.891Z" fill="#8F6C55"/>
<path d="M908.197 267.607C906.681 271.092 906.561 257.775 906.561 257.775L910.462 257.673C910.462 257.673 909.713 264.122 908.197 267.607Z" fill="#8F6C55"/>
</g>
<g filter="url(#filter20_f_142_1218)">
<path d="M888.812 294.25C885.76 298.115 884.21 302.092 883.577 304.036C883.376 304.652 883.844 305.252 884.491 305.249L943.035 304.974C944.003 304.969 944.406 303.731 943.624 303.161C940.507 300.888 935.101 296.923 931.333 294.037C922.816 287.513 912.402 284.889 901.709 285.767C894.249 286.38 891.001 291.478 888.812 294.25Z" fill="#F0DFCC"/>
</g>
</g>
<g filter="url(#filter21_f_142_1218)">
<path d="M859.316 251.278L860.6 256.242C860.641 256.403 860.806 256.5 860.966 256.457L867.458 254.749C867.735 254.676 867.762 254.293 867.497 254.182L859.722 250.926C859.493 250.83 859.254 251.037 859.316 251.278Z" fill="#C6B29E"/>
</g>
<g filter="url(#filter22_f_142_1218)">
<path d="M847.343 275.379L842.033 274.386C841.759 274.335 841.57 274.653 841.745 274.87L846.816 281.152C846.99 281.367 847.337 281.253 847.349 280.977L847.588 275.687C847.594 275.538 847.49 275.406 847.343 275.379Z" fill="#C6B29E"/>
</g>
<g filter="url(#filter23_f_142_1218)">
<path d="M854.969 300.463C857.189 297.687 863.109 297.297 863.109 297.297L873.511 303.176C873.511 303.176 850.398 306.178 854.969 300.463Z" fill="#C6B29E"/>
</g>
<g filter="url(#filter24_f_142_1218)">
<path d="M862.658 294.583C862.658 294.583 866.543 297.549 873.512 295.94C879.391 294.583 879.451 293.287 883.462 288.704C886.628 285.086 887.984 278.302 887.984 278.302" stroke="#D8B998" stroke-width="2"/>
<path d="M862.658 294.583C862.658 294.583 866.543 297.549 873.512 295.94C879.391 294.583 879.451 293.287 883.462 288.704C886.628 285.086 887.984 278.302 887.984 278.302" stroke="black" stroke-opacity="0.2" stroke-width="2"/>
</g>
<g filter="url(#filter25_f_142_1218)">
<path d="M847.281 277.398L847.733 281.92L845.924 280.111" stroke="#D8B998"/>
<path d="M847.281 277.398L847.733 281.92L845.924 280.111" stroke="black" stroke-opacity="0.2"/>
</g>
</g>
<g filter="url(#filter26_d_142_1218)">
<path d="M76.3909 301.2C87.6667 295.694 120.586 296.989 120.586 296.989C120.586 296.989 120.375 290.228 121.905 286.302C125.011 278.331 130.731 274.828 139.056 272.375C148.95 269.46 151.98 270.108 158.185 270.108C170.119 270.108 176.92 269.653 188.528 272.375C196.293 274.196 206.008 274.966 206.008 274.966C206.008 274.966 209.112 267.641 210.028 263.955C210.836 260.7 213.104 256.575 214.741 253.865C215.415 252.749 217.045 253.038 217.345 254.306L218.211 257.963L219.86 264.926H232.455L237.533 256.712C238.327 255.427 240.309 255.99 240.309 257.501V270.108C240.309 270.108 245.961 279.696 243.277 285.006C241.226 289.062 234.905 290.096 233.712 291.807C229.425 297.961 232.502 305.755 226.456 311.239C219.255 317.772 211.37 313.747 201.72 315.45C187.399 317.977 179.659 321.985 165.111 322.251C153.706 322.459 146.592 323.378 136.087 319.012C128.255 315.757 118.277 306.705 118.277 306.705C118.277 306.705 95.6431 303.996 82.6574 308.972C78.432 310.592 75.7935 311.239 76.3909 319.012C76.7916 324.226 89.9949 320.914 90.2431 326.137C90.3908 329.245 89.7832 333.262 86.6152 333.262C77.4426 333.262 69.2358 328.961 64.9098 320.632C63.0045 316.963 64.3515 313.445 66.5587 309.944C70.8462 303.143 72.4953 303.102 76.3909 301.2Z" fill="#4D4B4F"/>
<g filter="url(#filter27_f_142_1218)">
<path d="M146.262 317.38C142.049 315.264 136.692 312.529 132.589 310.427C131.559 309.898 132.101 308.341 133.237 308.565L154.881 312.833C155.102 312.877 155.325 312.848 155.526 312.748C157.227 311.91 165.722 307.867 172.733 307.199C181.285 306.385 188.12 308.868 197.982 308.421C206.452 308.037 218.272 305.756 223.807 304.605C224.764 304.406 225.387 305.525 224.684 306.204C223.326 307.516 221.55 309.093 219.973 310.05C211.669 315.088 204.816 310.533 195.131 311.271C177.39 312.624 162.163 325.365 146.262 317.38Z" fill="#4D4B4F"/>
<path d="M146.262 317.38C142.049 315.264 136.692 312.529 132.589 310.427C131.559 309.898 132.101 308.341 133.237 308.565L154.881 312.833C155.102 312.877 155.325 312.848 155.526 312.748C157.227 311.91 165.722 307.867 172.733 307.199C181.285 306.385 188.12 308.868 197.982 308.421C206.452 308.037 218.272 305.756 223.807 304.605C224.764 304.406 225.387 305.525 224.684 306.204C223.326 307.516 221.55 309.093 219.973 310.05C211.669 315.088 204.816 310.533 195.131 311.271C177.39 312.624 162.163 325.365 146.262 317.38Z" fill="black" fill-opacity="0.2"/>
</g>
<g filter="url(#filter28_f_142_1218)">
<path d="M171.846 282.349C173.89 286.41 173.543 270.682 173.543 270.682L168.613 270.7C168.613 270.7 169.801 278.289 171.846 282.349Z" fill="#F0DFCC"/>
</g>
<g filter="url(#filter29_f_142_1218)">
<path d="M157.639 282.215C159.684 286.275 159.336 270.548 159.336 270.548L154.407 270.566C154.407 270.566 155.594 278.155 157.639 282.215Z" fill="#F0DFCC"/>
</g>
<g filter="url(#filter30_f_142_1218)">
<path d="M182.795 280.489C183.77 283.769 185.331 271.88 185.331 271.88L181.855 271.362C181.855 271.362 181.821 277.209 182.795 280.489Z" fill="#F0DFCC"/>
</g>
<g filter="url(#filter31_f_142_1218)">
<path d="M145.448 278.285C144.576 280.861 143.013 271.806 143.013 271.806L145.996 271.362C145.996 271.362 146.32 275.709 145.448 278.285Z" fill="#F0DFCC"/>
</g>
<g filter="url(#filter32_f_142_1218)">
<path d="M135.951 283.569C136.075 286.988 130.797 276.221 130.797 276.221L133.925 274.62C133.925 274.62 135.826 280.149 135.951 283.569Z" fill="#F0DFCC"/>
</g>
<g filter="url(#filter33_f_142_1218)">
<path d="M241.371 282.43L240.083 277.279C239.83 276.269 238.395 276.269 238.142 277.279L237.128 281.338C237.094 281.473 237.032 281.6 236.947 281.71L234.409 284.972C233.74 285.833 234.736 286.991 235.687 286.458L240.889 283.545C241.283 283.325 241.48 282.868 241.371 282.43Z" fill="#4D4B4F"/>
<path d="M241.371 282.43L240.083 277.279C239.83 276.269 238.395 276.269 238.142 277.279L237.128 281.338C237.094 281.473 237.032 281.6 236.947 281.71L234.409 284.972C233.74 285.833 234.736 286.991 235.687 286.458L240.889 283.545C241.283 283.325 241.48 282.868 241.371 282.43Z" fill="black" fill-opacity="0.2"/>
</g>
</g>
</g>
<defs>
<filter id="filter0_d_142_1218" x="-47.2827" y="-15.0366" width="1265.26" height="299.905" filterUnits="userSpaceOnUse" color-interpolation-filters="sRGB">
<feFlood flood-opacity="0" result="BackgroundImageFix"/>
<feColorMatrix in="SourceAlpha" type="matrix" values="0 0 0 0 0 0 0 0 0 0 0 0 0 0 0 0 0 0 127 0" result="hardAlpha"/>
<feOffset dx="4" dy="-17"/>
<feGaussianBlur stdDeviation="2"/>
<feComposite in2="hardAlpha" operator="out"/>
<feColorMatrix type="matrix" values="0 0 0 0 0 0 0 0 0 0 0 0 0 0 0 0 0 0 0.25 0"/>
<feBlend mode="normal" in2="BackgroundImageFix" result="effect1_dropShadow_142_1218"/>
<feBlend mode="normal" in="SourceGraphic" in2="effect1_dropShadow_142_1218" result="shape"/>
</filter>
<filter id="filter1_d_142_1218" x="115.238" y="12.0999" width="111.733" height="141.349" filterUnits="userSpaceOnUse" color-interpolation-filters="sRGB">
<feFlood flood-opacity="0" result="BackgroundImageFix"/>
<feColorMatrix in="SourceAlpha" type="matrix" values="0 0 0 0 0 0 0 0 0 0 0 0 0 0 0 0 0 0 127 0" result="hardAlpha"/>
<feOffset dy="2.5535"/>
<feGaussianBlur stdDeviation="1.27675"/>
<feComposite in2="hardAlpha" operator="out"/>
<feColorMatrix type="matrix" values="0 0 0 0 0 0 0 0 0 0 0 0 0 0 0 0 0 0 0.25 0"/>
<feBlend mode="normal" in2="BackgroundImageFix" result="effect1_dropShadow_142_1218"/>
<feBlend mode="normal" in="SourceGraphic" in2="effect1_dropShadow_142_1218" result="shape"/>
</filter>
<filter id="filter2_d_142_1218" x="333.451" y="19.3773" width="137.816" height="91.974" filterUnits="userSpaceOnUse" color-interpolation-filters="sRGB">
<feFlood flood-opacity="0" result="BackgroundImageFix"/>
<feColorMatrix in="SourceAlpha" type="matrix" values="0 0 0 0 0 0 0 0 0 0 0 0 0 0 0 0 0 0 127 0" result="hardAlpha"/>
<feOffset dy="2.07808"/>
<feGaussianBlur stdDeviation="1.03904"/>
<feComposite in2="hardAlpha" operator="out"/>
<feColorMatrix type="matrix" values="0 0 0 0 0 0 0 0 0 0 0 0 0 0 0 0 0 0 0.25 0"/>
<feBlend mode="normal" in2="BackgroundImageFix" result="effect1_dropShadow_142_1218"/>
<feBlend mode="normal" in="SourceGraphic" in2="effect1_dropShadow_142_1218" result="shape"/>
</filter>
<filter id="filter3_d_142_1218" x="660.747" y="19.3775" width="166.568" height="111.163" filterUnits="userSpaceOnUse" color-interpolation-filters="sRGB">
<feFlood flood-opacity="0" result="BackgroundImageFix"/>
<feColorMatrix in="SourceAlpha" type="matrix" values="0 0 0 0 0 0 0 0 0 0 0 0 0 0 0 0 0 0 127 0" result="hardAlpha"/>
<feOffset dy="2.51163"/>
<feGaussianBlur stdDeviation="1.25581"/>
<feComposite in2="hardAlpha" operator="out"/>
<feColorMatrix type="matrix" values="0 0 0 0 0 0 0 0 0 0 0 0 0 0 0 0 0 0 0.25 0"/>
<feBlend mode="normal" in2="BackgroundImageFix" result="effect1_dropShadow_142_1218"/>
<feBlend mode="normal" in="SourceGraphic" in2="effect1_dropShadow_142_1218" result="shape"/>
</filter>
<filter id="filter4_d_142_1218" x="228.793" y="-7.08111" width="105.252" height="168.483" filterUnits="userSpaceOnUse" color-interpolation-filters="sRGB">
<feFlood flood-opacity="0" result="BackgroundImageFix"/>
<feColorMatrix in="SourceAlpha" type="matrix" values="0 0 0 0 0 0 0 0 0 0 0 0 0 0 0 0 0 0 127 0" result="hardAlpha"/>
<feOffset dx="37.1031" dy="-25.0696"/>
<feGaussianBlur stdDeviation="2.00557"/>
<feComposite in2="hardAlpha" operator="out"/>
<feColorMatrix type="matrix" values="0 0 0 0 0 0 0 0 0 0 0 0 0 0 0 0 0 0 0.15 0"/>
<feBlend mode="normal" in2="BackgroundImageFix" result="effect1_dropShadow_142_1218"/>
<feBlend mode="normal" in="SourceGraphic" in2="effect1_dropShadow_142_1218" result="shape"/>
</filter>
<filter id="filter5_d_142_1218" x="244.113" y="91.4655" width="32.2119" height="50.9049" filterUnits="userSpaceOnUse" color-interpolation-filters="sRGB">
<feFlood flood-opacity="0" result="BackgroundImageFix"/>
<feColorMatrix in="SourceAlpha" type="matrix" values="0 0 0 0 0 0 0 0 0 0 0 0 0 0 0 0 0 0 127 0" result="hardAlpha"/>
<feOffset dy="3.39112"/>
<feGaussianBlur stdDeviation="1.69556"/>
<feComposite in2="hardAlpha" operator="out"/>
<feColorMatrix type="matrix" values="0 0 0 0 0 0 0 0 0 0 0 0 0 0 0 0 0 0 0.25 0"/>
<feBlend mode="normal" in2="BackgroundImageFix" result="effect1_dropShadow_142_1218"/>
<feBlend mode="normal" in="SourceGraphic" in2="effect1_dropShadow_142_1218" result="shape"/>
</filter>
<filter id="filter6_f_142_1218" x="244.113" y="88.0744" width="32.2119" height="50.9049" filterUnits="userSpaceOnUse" color-interpolation-filters="sRGB">
<feFlood flood-opacity="0" result="BackgroundImageFix"/>
<feBlend mode="normal" in="SourceGraphic" in2="BackgroundImageFix" result="shape"/>
<feGaussianBlur stdDeviation="1.69556" result="effect1_foregroundBlur_142_1218"/>
</filter>
<filter id="filter7_f_142_1218" x="224.782" y="84.174" width="72.16" height="81.2389" filterUnits="userSpaceOnUse" color-interpolation-filters="sRGB">
<feFlood flood-opacity="0" result="BackgroundImageFix"/>
<feBlend mode="normal" in="SourceGraphic" in2="BackgroundImageFix" result="shape"/>
<feGaussianBlur stdDeviation="2.00557" result="effect1_foregroundBlur_142_1218"/>
</filter>
<filter id="filter8_f_142_1218" x="-109.017" y="120.331" width="738.392" height="1015.97" filterUnits="userSpaceOnUse" color-interpolation-filters="sRGB">
<feFlood flood-opacity="0" result="BackgroundImageFix"/>
<feBlend mode="normal" in="SourceGraphic" in2="BackgroundImageFix" result="shape"/>
<feGaussianBlur stdDeviation="3.00836" result="effect1_foregroundBlur_142_1218"/>
</filter>
<filter id="filter9_d_142_1218" x="852.435" y="-7.08096" width="105.252" height="168.483" filterUnits="userSpaceOnUse" color-interpolation-filters="sRGB">
<feFlood flood-opacity="0" result="BackgroundImageFix"/>
<feColorMatrix in="SourceAlpha" type="matrix" values="0 0 0 0 0 0 0 0 0 0 0 0 0 0 0 0 0 0 127 0" result="hardAlpha"/>
<feOffset dx="37.1031" dy="-25.0696"/>
<feGaussianBlur stdDeviation="2.00557"/>
<feComposite in2="hardAlpha" operator="out"/>
<feColorMatrix type="matrix" values="0 0 0 0 0 0 0 0 0 0 0 0 0 0 0 0 0 0 0.15 0"/>
<feBlend mode="normal" in2="BackgroundImageFix" result="effect1_dropShadow_142_1218"/>
<feBlend mode="normal" in="SourceGraphic" in2="effect1_dropShadow_142_1218" result="shape"/>
</filter>
<filter id="filter10_d_142_1218" x="867.755" y="91.4657" width="32.2117" height="50.9049" filterUnits="userSpaceOnUse" color-interpolation-filters="sRGB">
<feFlood flood-opacity="0" result="BackgroundImageFix"/>
<feColorMatrix in="SourceAlpha" type="matrix" values="0 0 0 0 0 0 0 0 0 0 0 0 0 0 0 0 0 0 127 0" result="hardAlpha"/>
<feOffset dy="3.39112"/>
<feGaussianBlur stdDeviation="1.69556"/>
<feComposite in2="hardAlpha" operator="out"/>
<feColorMatrix type="matrix" values="0 0 0 0 0 0 0 0 0 0 0 0 0 0 0 0 0 0 0.25 0"/>
<feBlend mode="normal" in2="BackgroundImageFix" result="effect1_dropShadow_142_1218"/>
<feBlend mode="normal" in="SourceGraphic" in2="effect1_dropShadow_142_1218" result="shape"/>
</filter>
<filter id="filter11_f_142_1218" x="867.755" y="88.0745" width="32.2117" height="50.9049" filterUnits="userSpaceOnUse" color-interpolation-filters="sRGB">
<feFlood flood-opacity="0" result="BackgroundImageFix"/>
<feBlend mode="normal" in="SourceGraphic" in2="BackgroundImageFix" result="shape"/>
<feGaussianBlur stdDeviation="1.69556" result="effect1_foregroundBlur_142_1218"/>
</filter>
<filter id="filter12_f_142_1218" x="848.424" y="84.1742" width="72.16" height="81.2389" filterUnits="userSpaceOnUse" color-interpolation-filters="sRGB">
<feFlood flood-opacity="0" result="BackgroundImageFix"/>
<feBlend mode="normal" in="SourceGraphic" in2="BackgroundImageFix" result="shape"/>
<feGaussianBlur stdDeviation="2.00557" result="effect1_foregroundBlur_142_1218"/>
</filter>
<filter id="filter13_f_142_1218" x="514.624" y="120.331" width="738.392" height="1015.97" filterUnits="userSpaceOnUse" color-interpolation-filters="sRGB">
<feFlood flood-opacity="0" result="BackgroundImageFix"/>
<feBlend mode="normal" in="SourceGraphic" in2="BackgroundImageFix" result="shape"/>
<feGaussianBlur stdDeviation="3.00836" result="effect1_foregroundBlur_142_1218"/>
</filter>
<filter id="filter14_d_142_1218" x="-24" y="-12.0334" width="1216.04" height="75.817" filterUnits="userSpaceOnUse" color-interpolation-filters="sRGB">
<feFlood flood-opacity="0" result="BackgroundImageFix"/>
<feColorMatrix in="SourceAlpha" type="matrix" values="0 0 0 0 0 0 0 0 0 0 0 0 0 0 0 0 0 0 127 0" result="hardAlpha"/>
<feOffset dx="12.0334" dy="-8.02228"/>
<feGaussianBlur stdDeviation="2.00557"/>
<feComposite in2="hardAlpha" operator="out"/>
<feColorMatrix type="matrix" values="0 0 0 0 0 0 0 0 0 0 0 0 0 0 0 0 0 0 0.25 0"/>
<feBlend mode="normal" in2="BackgroundImageFix" result="effect1_dropShadow_142_1218"/>
<feBlend mode="normal" in="SourceGraphic" in2="effect1_dropShadow_142_1218" result="shape"/>
</filter>
<filter id="filter15_d_142_1218" x="837.144" y="247.297" width="183.326" height="105.056" filterUnits="userSpaceOnUse" color-interpolation-filters="sRGB">
<feFlood flood-opacity="0" result="BackgroundImageFix"/>
<feColorMatrix in="SourceAlpha" type="matrix" values="0 0 0 0 0 0 0 0 0 0 0 0 0 0 0 0 0 0 127 0" result="hardAlpha"/>
<feOffset dx="1" dy="3"/>
<feGaussianBlur stdDeviation="1"/>
<feComposite in2="hardAlpha" operator="out"/>
<feColorMatrix type="matrix" values="0 0 0 0 0 0 0 0 0 0 0 0 0 0 0 0 0 0 0.25 0"/>
<feBlend mode="normal" in2="BackgroundImageFix" result="effect1_dropShadow_142_1218"/>
<feBlend mode="normal" in="SourceGraphic" in2="effect1_dropShadow_142_1218" result="shape"/>
</filter>
<filter id="filter16_f_142_1218" x="857.161" y="279.215" width="3.16255" height="6.48403" filterUnits="userSpaceOnUse" color-interpolation-filters="sRGB">
<feFlood flood-opacity="0" result="BackgroundImageFix"/>
<feBlend mode="normal" in="SourceGraphic" in2="BackgroundImageFix" result="shape"/>
<feGaussianBlur stdDeviation="0.2" result="effect1_foregroundBlur_142_1218"/>
</filter>
<filter id="filter17_f_142_1218" x="869.585" y="265.946" width="6.48677" height="3.13233" filterUnits="userSpaceOnUse" color-interpolation-filters="sRGB">
<feFlood flood-opacity="0" result="BackgroundImageFix"/>
<feBlend mode="normal" in="SourceGraphic" in2="BackgroundImageFix" result="shape"/>
<feGaussianBlur stdDeviation="0.2" result="effect1_foregroundBlur_142_1218"/>
</filter>
<filter id="filter18_f_142_1218" x="868.43" y="275.705" width="11.5151" height="11.9855" filterUnits="userSpaceOnUse" color-interpolation-filters="sRGB">
<feFlood flood-opacity="0" result="BackgroundImageFix"/>
<feBlend mode="normal" in="SourceGraphic" in2="BackgroundImageFix" result="shape"/>
<feGaussianBlur stdDeviation="0.2" result="effect1_foregroundBlur_142_1218"/>
</filter>
<filter id="filter19_f_142_1218" x="846.789" y="256.673" width="114.959" height="64.9517" filterUnits="userSpaceOnUse" color-interpolation-filters="sRGB">
<feFlood flood-opacity="0" result="BackgroundImageFix"/>
<feBlend mode="normal" in="SourceGraphic" in2="BackgroundImageFix" result="shape"/>
<feGaussianBlur stdDeviation="0.5" result="effect1_foregroundBlur_142_1218"/>
</filter>
<filter id="filter20_f_142_1218" x="882.53" y="284.603" width="62.5066" height="21.6462" filterUnits="userSpaceOnUse" color-interpolation-filters="sRGB">
<feFlood flood-opacity="0" result="BackgroundImageFix"/>
<feBlend mode="normal" in="SourceGraphic" in2="BackgroundImageFix" result="shape"/>
<feGaussianBlur stdDeviation="0.5" result="effect1_foregroundBlur_142_1218"/>
</filter>
<filter id="filter21_f_142_1218" x="858.306" y="249.902" width="10.376" height="7.56532" filterUnits="userSpaceOnUse" color-interpolation-filters="sRGB">
<feFlood flood-opacity="0" result="BackgroundImageFix"/>
<feBlend mode="normal" in="SourceGraphic" in2="BackgroundImageFix" result="shape"/>
<feGaussianBlur stdDeviation="0.5" result="effect1_foregroundBlur_142_1218"/>
</filter>
<filter id="filter22_f_142_1218" x="840.677" y="273.381" width="7.91064" height="8.8831" filterUnits="userSpaceOnUse" color-interpolation-filters="sRGB">
<feFlood flood-opacity="0" result="BackgroundImageFix"/>
<feBlend mode="normal" in="SourceGraphic" in2="BackgroundImageFix" result="shape"/>
<feGaussianBlur stdDeviation="0.5" result="effect1_foregroundBlur_142_1218"/>
</filter>
<filter id="filter23_f_142_1218" x="853.37" y="296.297" width="21.1411" height="8.6673" filterUnits="userSpaceOnUse" color-interpolation-filters="sRGB">
<feFlood flood-opacity="0" result="BackgroundImageFix"/>
<feBlend mode="normal" in="SourceGraphic" in2="BackgroundImageFix" result="shape"/>
<feGaussianBlur stdDeviation="0.5" result="effect1_foregroundBlur_142_1218"/>
</filter>
<filter id="filter24_f_142_1218" x="861.052" y="277.106" width="28.9128" height="21.3127" filterUnits="userSpaceOnUse" color-interpolation-filters="sRGB">
<feFlood flood-opacity="0" result="BackgroundImageFix"/>
<feBlend mode="normal" in="SourceGraphic" in2="BackgroundImageFix" result="shape"/>
<feGaussianBlur stdDeviation="0.5" result="effect1_foregroundBlur_142_1218"/>
</filter>
<filter id="filter25_f_142_1218" x="844.571" y="276.348" width="4.79956" height="7.91636" filterUnits="userSpaceOnUse" color-interpolation-filters="sRGB">
<feFlood flood-opacity="0" result="BackgroundImageFix"/>
<feBlend mode="normal" in="SourceGraphic" in2="BackgroundImageFix" result="shape"/>
<feGaussianBlur stdDeviation="0.5" result="effect1_foregroundBlur_142_1218"/>
</filter>
<filter id="filter26_d_142_1218" x="62" y="253.171" width="184" height="85.0915" filterUnits="userSpaceOnUse" color-interpolation-filters="sRGB">
<feFlood flood-opacity="0" result="BackgroundImageFix"/>
<feColorMatrix in="SourceAlpha" type="matrix" values="0 0 0 0 0 0 0 0 0 0 0 0 0 0 0 0 0 0 127 0" result="hardAlpha"/>
<feOffset dy="3"/>
<feGaussianBlur stdDeviation="1"/>
<feComposite in2="hardAlpha" operator="out"/>
<feColorMatrix type="matrix" values="0 0 0 0 0 0 0 0 0 0 0 0 0 0 0 0 0 0 0.25 0"/>
<feBlend mode="normal" in2="BackgroundImageFix" result="effect1_dropShadow_142_1218"/>
<feBlend mode="normal" in="SourceGraphic" in2="effect1_dropShadow_142_1218" result="shape"/>
</filter>
<filter id="filter27_f_142_1218" x="131.042" y="303.582" width="94.9434" height="17.4107" filterUnits="userSpaceOnUse" color-interpolation-filters="sRGB">
<feFlood flood-opacity="0" result="BackgroundImageFix"/>
<feBlend mode="normal" in="SourceGraphic" in2="BackgroundImageFix" result="shape"/>
<feGaussianBlur stdDeviation="0.5" result="effect1_foregroundBlur_142_1218"/>
</filter>
<filter id="filter28_f_142_1218" x="167.613" y="269.682" width="6.95166" height="14.3371" filterUnits="userSpaceOnUse" color-interpolation-filters="sRGB">
<feFlood flood-opacity="0" result="BackgroundImageFix"/>
<feBlend mode="normal" in="SourceGraphic" in2="BackgroundImageFix" result="shape"/>
<feGaussianBlur stdDeviation="0.5" result="effect1_foregroundBlur_142_1218"/>
</filter>
<filter id="filter29_f_142_1218" x="153.407" y="269.548" width="6.95166" height="14.3371" filterUnits="userSpaceOnUse" color-interpolation-filters="sRGB">
<feFlood flood-opacity="0" result="BackgroundImageFix"/>
<feBlend mode="normal" in="SourceGraphic" in2="BackgroundImageFix" result="shape"/>
<feGaussianBlur stdDeviation="0.5" result="effect1_foregroundBlur_142_1218"/>
</filter>
<filter id="filter30_f_142_1218" x="180.855" y="270.362" width="5.47607" height="11.6991" filterUnits="userSpaceOnUse" color-interpolation-filters="sRGB">
<feFlood flood-opacity="0" result="BackgroundImageFix"/>
<feBlend mode="normal" in="SourceGraphic" in2="BackgroundImageFix" result="shape"/>
<feGaussianBlur stdDeviation="0.5" result="effect1_foregroundBlur_142_1218"/>
</filter>
<filter id="filter31_f_142_1218" x="142.013" y="270.362" width="5.04199" height="9.38475" filterUnits="userSpaceOnUse" color-interpolation-filters="sRGB">
<feFlood flood-opacity="0" result="BackgroundImageFix"/>
<feBlend mode="normal" in="SourceGraphic" in2="BackgroundImageFix" result="shape"/>
<feGaussianBlur stdDeviation="0.5" result="effect1_foregroundBlur_142_1218"/>
</filter>
<filter id="filter32_f_142_1218" x="129.797" y="273.62" width="7.15576" height="11.6194" filterUnits="userSpaceOnUse" color-interpolation-filters="sRGB">
<feFlood flood-opacity="0" result="BackgroundImageFix"/>
<feBlend mode="normal" in="SourceGraphic" in2="BackgroundImageFix" result="shape"/>
<feGaussianBlur stdDeviation="0.5" result="effect1_foregroundBlur_142_1218"/>
</filter>
<filter id="filter33_f_142_1218" x="233.191" y="275.521" width="9.20947" height="12.0721" filterUnits="userSpaceOnUse" color-interpolation-filters="sRGB">
<feFlood flood-opacity="0" result="BackgroundImageFix"/>
<feBlend mode="normal" in="SourceGraphic" in2="BackgroundImageFix" result="shape"/>
<feGaussianBlur stdDeviation="0.5" result="effect1_foregroundBlur_142_1218"/>
</filter>
<radialGradient id="paint0_radial_142_1218" cx="0" cy="0" r="1" gradientUnits="userSpaceOnUse" gradientTransform="translate(260.862 124.793) rotate(90) scale(36.6083 32.0689)">
<stop offset="0.267519" stop-color="white"/>
<stop offset="1" stop-color="#FFEFCC"/>
</radialGradient>
<linearGradient id="paint1_linear_142_1218" x1="260.179" y1="126.348" x2="260.179" y2="1130.29" gradientUnits="userSpaceOnUse">
<stop stop-color="#EFD19F"/>
<stop offset="1" stop-color="#EFD19F" stop-opacity="0"/>
</linearGradient>
<radialGradient id="paint2_radial_142_1218" cx="0" cy="0" r="1" gradientUnits="userSpaceOnUse" gradientTransform="translate(884.504 124.794) rotate(90) scale(36.6083 32.0689)">
<stop offset="0.267519" stop-color="white"/>
<stop offset="1" stop-color="#FFEFCC"/>
</radialGradient>
<linearGradient id="paint3_linear_142_1218" x1="883.82" y1="126.348" x2="883.82" y2="1130.29" gradientUnits="userSpaceOnUse">
<stop stop-color="#EFD19F"/>
<stop offset="1" stop-color="#EFD19F" stop-opacity="0"/>
</linearGradient>
</defs>
</svg>
