<svg width="1165" height="284" viewBox="0 0 1165 284" fill="none" xmlns="http://www.w3.org/2000/svg">
<g clip-path="url(#clip0_1603_414)">
<path d="M108.276 160.667C80.8729 185.378 51.0675 219.424 0.423155 242.747C-2.25812 243.982 -12.4439 243.361 -18.0906 234.352C-23.7373 225.342 -30.9622 219.426 -27.8102 197.7C-24.6583 175.974 -11.6638 146.262 -2.33101 125.721C7.00181 105.179 6.87528 107.935 18.8539 94.9936C30.8325 82.0527 46.4565 73.2571 57.562 61.0161C68.6675 48.775 64.1683 42.0966 74.3813 33.7884C84.5943 25.4802 98.5836 21.3797 108.627 19.4752C118.67 17.5707 116.586 18.9758 124.598 24.266C132.611 29.5562 143.268 39.3443 148.69 45.9262C154.111 52.508 151.767 47.2567 151.706 57.1752C151.645 67.0938 150.9 83.195 148.386 95.5188C145.871 107.843 147.156 105.765 139.134 118.794C131.112 131.824 135.678 135.957 108.276 160.667Z" fill="#2C3933"/>
<path d="M-5.27912 243.194C-10.7748 242.102 -14.9895 240.55 -5.0687 225.377C4.85209 210.203 23.4776 186.911 39.8719 168.72C56.2661 150.529 61.7027 152.975 76.9023 134.423C92.102 115.871 108.026 99.1089 115.87 75.9608C123.714 52.8128 116.071 30.1381 116.122 18.6824M116.207 72.1968C112.673 68.7971 102.725 65.2397 98.537 55.1983C94.3493 45.1568 96.5435 31.0311 95.8898 24.3894M119.19 72.2321C125.773 69.6638 144.084 61.7938 150.667 59.2255M98.0173 107.154C94.4006 101.419 82.9642 89.4256 78.3498 75.9927C73.7354 62.5599 74.3591 45.1999 73.3614 37.5016M88.5645 120.397C84.7097 112.81 72.9765 92.546 68.0533 80.0014C63.1301 67.4568 63.7796 60.1713 62.7112 55.2138M64.055 147.63C62.8997 143.036 63.775 135.721 58.8117 125.916C53.8483 116.112 43.4736 109.958 39.7715 99.8615C36.0694 89.7646 35.4647 85.0494 35.5706 80.1635M52.5869 154.688C51.4388 150.158 53.877 141.719 48.9452 132.049C44.0135 122.379 33.706 116.309 30.0272 106.351C26.3484 96.3925 24.9197 93.7763 25.0245 88.9576M79.6949 132.711C85.6756 131.952 100.781 133.456 112.532 129.35C124.282 125.243 138.335 113.035 144.104 109.688M125.822 142.175C121.879 143.746 114.382 147.132 102.045 149.219C89.7086 151.307 66.9181 151.422 58.5249 151.939M106.206 161.268C91.0633 166.725 55.6112 162.164 46.8707 161.51M26.9178 181.142C27.1392 162.398 3.81206 152.75 2.33691 115.447M-3.40087 222.406C-6.38104 211.999 -21.3971 191.352 -18.9294 165.736M11.7245 204.643C19.4321 203.961 36.417 208.076 68.4829 197.984M0.423158 242.747C51.0675 219.424 80.8729 185.378 108.276 160.667C135.678 135.957 131.112 131.824 139.134 118.794C147.156 105.765 145.871 107.843 148.386 95.5188C150.9 83.195 151.645 67.0938 151.706 57.1752C151.767 47.2567 154.111 52.508 148.69 45.9262C143.268 39.3443 132.611 29.5562 124.598 24.266C116.586 18.9758 118.67 17.5707 108.627 19.4752C98.5836 21.3797 84.5943 25.4802 74.3813 33.7884C64.1683 42.0966 68.6675 48.775 57.562 61.0161C46.4565 73.2571 30.8325 82.0527 18.8539 94.9936C6.87528 107.935 7.00181 105.179 -2.33101 125.721C-11.6638 146.262 -24.6583 175.974 -27.8102 197.7C-30.9622 219.426 -23.7373 225.342 -18.0906 234.352C-12.4439 243.361 -2.25812 243.982 0.423158 242.747Z" stroke="#FEE487" stroke-width="5" stroke-linecap="round"/>
<path d="M27.6436 281.114L-30.7151 274.327L-33.2286 237.888L-17.0817 227.315L51.8528 182.177L92.1887 168.168L134.422 170.268L169.527 205.053L109.415 268.289L27.6436 281.114Z" fill="url(#paint0_linear_1603_414)"/>
<path d="M27.6436 281.114L-30.7151 274.327M27.6436 281.114L109.415 268.289M27.6436 281.114L-18.8204 250.454M-30.7151 274.327L-33.2286 237.888L51.8528 182.177M-30.7151 274.327L-18.8204 250.454M109.415 268.289L112.58 240.527M109.415 268.289L169.527 205.053M112.58 240.527L86.1414 193.844M112.58 240.527L169.527 205.053M86.1414 193.844L51.8528 182.177M86.1414 193.844L-18.8204 250.454M86.1414 193.844L169.527 205.053M86.1414 193.844L134.422 170.268M51.8528 182.177L92.1887 168.168L134.422 170.268M-18.8207 250.453L-17.0817 227.315M169.527 205.053L134.422 170.268" stroke="#2C3933" stroke-width="5"/>
<path d="M1081.49 35.8109C1084.29 29.9659 1087.61 24.8604 1091.41 19.7145C1098.03 19.3358 1104.82 22.9022 1111.88 25.6882C1113.62 26.3714 1115.18 27.4592 1116.82 28.449C1121.18 31.0667 1125.86 32.3528 1130.17 35.0676C1136.81 39.2432 1143.23 45.6858 1148.12 51.8406C1154.45 59.8154 1159.41 68.6508 1165.81 76.5612C1174.24 86.9659 1180.71 97.9406 1185.32 109.656C1187.52 115.253 1189.96 121.078 1191.76 126.703C1193.06 130.76 1193.9 134.808 1194.44 138.814C1196.05 150.751 1197.48 162.691 1198.72 174.565C1199.27 179.866 1199.18 185.062 1198.57 190.027C1198.26 192.539 1197.08 194.475 1195.93 196.494C1192.84 201.923 1189.4 207.093 1186.13 212.384L1186.13 212.388C1182.39 218.432 1178.82 224.192 1173.73 229.052C1169.27 233.3 1164.85 237.58 1160.5 241.934C1160.16 242.272 1153.67 249.799 1153.05 248.116C1150.19 240.381 1149.07 234.036 1144.01 226.656C1140.23 221.127 1136.36 215.713 1133.31 209.868C1129.16 201.927 1127.12 193.702 1123.59 185.65C1120.16 177.807 1116.51 171.328 1111.48 164.006C1107.78 158.634 1104.11 153.263 1100.47 147.863C1094.06 138.344 1090.47 128.408 1087.58 118.124C1085.36 110.243 1084.18 102.289 1083.62 94.5881C1083.11 87.6543 1081.08 80.8634 1078.67 73.7761C1077.42 70.0702 1075.79 66.0989 1075.02 62.3801C1074.38 59.2967 1074.73 55.7299 1074.81 52.8031C1074.98 46.353 1078.99 41.0165 1081.49 35.8109Z" fill="url(#paint1_linear_1603_414)" stroke="#2C3933" stroke-width="5" stroke-linecap="round"/>
<path d="M1092.29 21.1815C1101.63 35.1638 1108.57 49.1151 1115.22 63.9459C1118.42 71.0963 1121.66 77.7107 1125.61 84.615C1132.77 97.1257 1136.08 110.874 1140.45 123.81C1143.66 133.318 1146.67 142.754 1149.05 152.277C1151.16 160.752 1152.77 168.781 1155.71 177.283C1157.91 183.64 1160.2 190.034 1161.15 196.381C1161.64 199.63 1161.31 202.776 1161.1 205.827C1160.66 212.377 1160.62 219.354 1159.38 225.602C1158.09 232.133 1154.41 237.816 1154.42 244.871" stroke="#2C3933" stroke-width="5" stroke-linecap="round"/>
<path d="M1138.81 218.156C1147.1 208.232 1149.86 195.455 1156.37 184.19" stroke="#2C3933" stroke-width="5" stroke-linecap="round"/>
<path d="M1159.2 187.523C1161.72 190.034 1183.04 212.868 1184.08 215.996" stroke="#2C3933" stroke-width="5" stroke-linecap="round"/>
<path d="M1147.01 140.297C1150.83 143.48 1170.22 157.726 1174.49 161.993C1179.35 166.851 1192.89 181.665 1197.74 186.523" stroke="#2C3933" stroke-width="5" stroke-linecap="round"/>
<path d="M1150.42 157.054C1154.23 160.237 1168.33 169.863 1172.6 174.129C1177.46 178.987 1189.5 193.586 1194.36 198.444" stroke="#2C3933" stroke-width="5" stroke-linecap="round"/>
<path d="M1147.23 148.703C1143.31 151.838 1139.26 155.185 1136.12 159.119C1132.65 162.857 1126.86 180.105 1124.49 184.697" stroke="#2C3933" stroke-width="5" stroke-linecap="round"/>
<path d="M1139.76 124.845C1136.8 126.511 1134.21 127.269 1131.79 129.685C1126.75 134.723 1121.15 139.433 1116.66 144.991C1113.18 149.293 1110.2 153.479 1108.16 158.799" stroke="#2C3933" stroke-width="5" stroke-linecap="round"/>
<path d="M1124.55 86.8064C1118.47 88.8442 1114.13 91.7476 1109.69 96.1789C1104.55 101.32 1097.98 106.118 1094.59 112.847C1092.67 116.664 1092.24 122.981 1091.38 127.352" stroke="#2C3933" stroke-width="5" stroke-linecap="round"/>
<path d="M1119.26 75.6577C1115.79 78.7377 1110.66 79.9509 1107.17 83.0858C1103.45 86.4304 1099.36 89.1723 1095.54 92.366C1092.2 95.1607 1087.88 102.384 1084.8 105.462" stroke="#2C3933" stroke-width="5" stroke-linecap="round"/>
<path d="M1133.5 100.589C1138.99 105.61 1147.29 112.299 1153.69 115.618C1163.01 120.452 1172.2 125.171 1181.18 131.017C1185.2 133.63 1190.04 136.489 1193.53 139.985" stroke="#2C3933" stroke-width="5" stroke-linecap="round"/>
<path d="M1115.03 60.3086C1124.47 65.6018 1133.91 70.751 1143.27 76.2629C1147.73 78.883 1151.96 80.9329 1155.76 84.6553C1161.68 90.4446 1168.41 94.9555 1174.23 100.778C1179.28 105.832 1181.14 107.692 1186.2 112.746" stroke="#2C3933" stroke-width="5" stroke-linecap="round"/>
<path d="M1106.6 43.6809C1115.31 44.5352 1123.83 44.1417 1132.64 45.7877C1136.34 46.4792 1143.98 50.7375 1147.69 52.269" stroke="#2C3933" stroke-width="5" stroke-linecap="round"/>
<path d="M1099.44 35.9488C1095.66 43.2152 1091.81 50.3883 1089.02 58.2985C1087.73 61.9425 1086.52 65.5851 1084.95 69.0626C1082.92 73.5681 1082.07 76.3006 1081.08 81.3338" stroke="#2C3933" stroke-width="5" stroke-linecap="round"/>
<path d="M1156.18 270.212C1162.74 268.472 1168.64 266.05 1174.68 263.152C1176.36 256.407 1174.02 248.732 1172.53 240.915C1172.17 238.998 1171.35 237.181 1170.66 235.293C1168.81 230.3 1168.4 225.232 1166.45 220.263C1163.45 212.621 1158.08 204.757 1152.7 198.523C1145.74 190.445 1137.61 183.623 1130.72 175.484C1121.67 164.778 1111.64 155.978 1100.48 148.95C1095.15 145.593 1089.64 141.941 1084.2 138.987C1080.28 136.857 1076.28 135.2 1072.27 133.862C1060.3 129.874 1048.29 126.073 1036.31 122.479C1030.97 120.875 1025.6 119.953 1020.38 119.61C1017.73 119.436 1015.51 120.273 1013.21 121.061C1007.02 123.18 1001.03 125.705 994.943 128.039L994.938 128.041C987.989 130.707 981.366 133.248 975.369 137.545C970.126 141.301 964.86 145.011 959.529 148.641C959.115 148.922 950.104 154.122 951.713 155.091C959.113 159.547 965.423 161.94 972.028 168.584C976.977 173.562 981.791 178.602 987.209 182.881C994.57 188.695 1002.63 192.41 1010.23 197.61C1017.63 202.674 1023.58 207.69 1030.13 214.305C1034.94 219.159 1039.75 223.987 1044.59 228.783C1053.13 237.238 1062.66 242.873 1072.67 247.862C1080.35 251.685 1088.3 254.448 1096.11 256.535C1103.15 258.414 1109.74 261.833 1116.56 265.688C1120.13 267.703 1123.9 270.161 1127.57 271.677C1130.62 272.935 1134.36 273.275 1137.39 273.766C1144.06 274.848 1150.33 271.762 1156.18 270.212Z" fill="#2C3933" stroke="#FEE487" stroke-width="5" stroke-linecap="round"/>
<path d="M1173.34 261.958C1160.78 249.609 1147.78 239.747 1133.82 230.01C1127.09 225.316 1120.91 220.691 1114.58 215.277C1103.11 205.467 1089.61 199.374 1077.15 192.351C1068 187.188 1058.88 182.242 1049.54 177.94C1041.24 174.113 1033.29 170.888 1025.12 166.196C1019.01 162.688 1012.87 159.09 1006.53 156.867C1003.28 155.729 999.98 155.458 996.8 155.072C989.974 154.244 982.788 152.923 976.117 152.978C969.144 153.035 962.579 155.703 955.321 154.312" stroke="#FEE487" stroke-width="5" stroke-linecap="round"/>
<path d="M979.755 175.601C991.588 169.002 1005.27 168.661 1018.14 164.165" stroke="#FEE487" stroke-width="5" stroke-linecap="round"/>
<path d="M1015.26 160.603C1013.17 157.528 993.84 131.128 990.827 129.439" stroke="#FEE487" stroke-width="5" stroke-linecap="round"/>
<path d="M1061.47 182.37C1058.94 177.825 1048.07 155.084 1044.52 149.86C1040.47 143.912 1027.87 127.087 1023.82 121.139" stroke="#FEE487" stroke-width="5" stroke-linecap="round"/>
<path d="M1044.9 175.594C1042.37 171.049 1035.22 154.662 1031.66 149.438C1027.61 143.49 1014.94 128.241 1010.9 122.294" stroke="#FEE487" stroke-width="5" stroke-linecap="round"/>
<path d="M1052.87 180.511C1048.87 183.934 1044.64 187.442 1039.98 189.908C1035.45 192.749 1016.58 195.333 1011.39 196.877" stroke="#FEE487" stroke-width="5" stroke-linecap="round"/>
<path d="M1075.95 192.855C1073.66 195.577 1072.38 198.098 1069.42 200.112C1063.25 204.311 1057.31 209.154 1050.71 212.691C1045.61 215.428 1040.71 217.681 1034.84 218.739" stroke="#FEE487" stroke-width="5" stroke-linecap="round"/>
<path d="M1112.12 215.94C1108.84 221.795 1105 225.699 1099.57 229.392C1093.28 233.677 1087.06 239.498 1079.47 241.674C1075.17 242.909 1068.59 242.11 1063.92 242.148" stroke="#FEE487" stroke-width="5" stroke-linecap="round"/>
<path d="M1122.56 223.567C1118.71 226.535 1116.46 231.57 1112.56 234.548C1108.39 237.725 1104.77 241.395 1100.74 244.7C1097.21 247.593 1088.93 250.632 1085.16 253.197" stroke="#FEE487" stroke-width="5" stroke-linecap="round"/>
<path d="M1099.69 204.036C1095.6 197.403 1090.34 187.563 1088.17 180.33C1085.02 169.793 1081.96 159.417 1077.7 149.029C1075.8 144.385 1073.8 138.85 1070.89 134.57" stroke="#FEE487" stroke-width="5" stroke-linecap="round"/>
<path d="M1137.52 230.918C1133.92 220.171 1130.46 209.45 1126.62 198.736C1124.8 193.644 1123.52 188.887 1120.43 184.245C1115.63 177.026 1112.3 169.225 1107.45 162.097C1103.24 155.909 1101.68 153.631 1097.47 147.443" stroke="#FEE487" stroke-width="5" stroke-linecap="round"/>
<path d="M1152.98 242.842C1153.81 233.71 1155.88 225.024 1155.91 215.636C1155.92 211.692 1153.03 202.994 1152.18 198.881" stroke="#FEE487" stroke-width="5" stroke-linecap="round"/>
<path d="M1159.55 251.706C1151.33 254.186 1143.2 256.74 1134.51 258.07C1130.51 258.683 1126.53 259.214 1122.64 260.149C1117.61 261.359 1114.63 261.694 1109.26 261.738" stroke="#FEE487" stroke-width="5" stroke-linecap="round"/>
</g>
<defs>
<linearGradient id="paint0_linear_1603_414" x1="113.423" y1="223.322" x2="-125.702" y2="228.547" gradientUnits="userSpaceOnUse">
<stop stop-color="#EB8E21"/>
<stop offset="1" stop-color="#EB8E21" stop-opacity="0"/>
</linearGradient>
<linearGradient id="paint1_linear_1603_414" x1="1056.06" y1="55.0608" x2="1201.9" y2="200.897" gradientUnits="userSpaceOnUse">
<stop stop-color="#FEE487"/>
<stop offset="1" stop-color="#FEE487" stop-opacity="0.54"/>
</linearGradient>
<clipPath id="clip0_1603_414">
<rect width="1165" height="284" fill="white"/>
</clipPath>
</defs>
</svg>
