<svg width="84" height="70" viewBox="0 0 84 70" fill="none" xmlns="http://www.w3.org/2000/svg">
<g clip-path="url(#clip0)">
<path d="M3.75771 15.4427L1.15728 19.0824V27.5752L0.920898 37.7664L1.63004 45.5312L2.75339 49.6423L6.35426 53.6744L12.083 59.2186L18.3383 66.4414L21.4233 68.6185L25.6682 68.1228L37.7805 65.6026L50.22 62.0746L62.3321 60.0586L71.8254 56.8664L77.2269 55.3544L81.1551 51.4904L81.9735 44.9382L81.4824 33.8499L81.9735 21.2496L81.3188 16.5455L75.9175 12.5134L69.3703 7.47322L63.4778 3.10517L59.386 1.08902L55.1303 0.921143L49.2379 2.93717L39.0899 4.78519L29.5966 7.13722L22.2311 9.15324L16.0113 11.0014L8.01293 13.2588L3.75771 15.4427Z" fill="white"/>
<path d="M80.0095 16.8724C80.3383 17.258 80.7422 17.7482 80.9849 18.5841C81.1028 19.294 81.1433 21.0057 81.1069 23.7192L82.5479 23.8414C82.5741 21.4894 82.5741 20.1275 82.5479 19.7558C82.4793 18.7733 82.3641 17.3576 81.8732 16.3992C81.5453 15.7602 81.1106 15.2184 80.5676 14.7737C80.2839 14.3028 64.341 2.87188 63.9532 2.4766C63.2772 1.79131 61.4553 0.910262 60.5582 0.547874C59.6547 0.185364 58.6885 -0.00206138 57.7113 1.71e-05C57.7113 1.71e-05 57.7113 1.71e-05 57.709 1.71e-05H57.6776C56.9869 0.00209558 56.3002 0.0854916 55.6306 0.247857L8.33893 11.5786C8.31783 11.5828 8.29895 11.5869 8.27786 11.5932C7.10292 11.8827 5.99098 12.3785 4.99279 13.0532C4.00938 13.7177 3.13558 14.528 2.40271 15.4548C1.66362 16.3795 1.07608 17.4127 0.659109 18.5166C0.229579 19.635 0.00633992 20.8203 0 22.0178C0 22.0199 0 22.022 0 22.0241V22.047L0.00219524 22.1386L0.265304 45.45C0.269571 46.4602 0.461226 47.4618 0.82553 48.4054C1.18142 49.3094 1.7141 50.1324 2.39637 50.8301C3.07242 51.5131 3.62034 52.0961 4.26006 52.6473C4.31066 52.6676 5.27445 53.6292 6.29101 54.6598C9.11362 57.5215 14.6515 63.4278 16.7638 65.6102C17.264 66.1269 18.5877 67.3473 18.6221 67.3565C19.1958 67.8585 20.6495 68.7832 22.1037 68.9568C23.1457 69.0789 22.836 69.0328 23.8038 69.0789V67.4086C21.8104 67.5417 19.8426 66.3968 17.8967 63.9703L12.384 58.1515C11.7313 57.4967 4.78284 50.3608 4.43038 50.0044C3.94818 49.5111 3.04292 48.2972 2.79225 47.6557C2.51646 46.9474 2.37539 46.1954 2.37113 45.4374C2.37113 45.4353 2.37113 45.4332 2.37113 45.4291L2.1079 22.1012L2.10583 22.022C2.11217 21.0743 2.28908 20.137 2.63021 19.2498C2.97135 18.3458 3.45355 17.4981 4.05791 16.7421C4.65799 15.9818 5.37406 15.3173 6.18058 14.7737C6.9428 14.2571 7.78933 13.8739 8.68216 13.6406L56.1298 2.2724C56.1298 2.2724 56.1317 2.27242 56.134 2.27034C56.6392 2.14746 57.1596 2.08496 57.6818 2.08289H57.7131C58.4168 2.08289 59.1136 2.21618 59.7666 2.4766C60.2575 2.67601 62.6136 3.97958 63.0138 4.32449L73.1513 11.7224L75.78 13.6406L79.5255 16.3992L80.0095 16.8724Z" fill="#2E2E2E"/>
<path fill-rule="evenodd" clip-rule="evenodd" d="M79.2523 19.1542C78.2429 18.0185 76.6062 17.4523 74.6471 17.9302L25.1852 29.9929C21.7951 30.8197 19.0146 34.4122 19.054 37.9371L19.3308 62.7413C19.35 64.4604 20.0328 65.7637 21.0317 66.5457C22.0298 67.3272 23.4472 67.6703 25.0997 67.2673L74.5619 55.2043C77.9518 54.3777 80.732 50.7851 80.6929 47.2602L80.4161 22.4562C80.4004 21.0614 79.9473 19.9419 79.2523 19.1542ZM74.1216 15.7757C76.7977 15.123 79.303 15.8717 80.9116 17.6828L80.9135 17.6852C81.9948 18.9101 82.6128 20.5573 82.6335 22.4313L82.9103 47.2358C82.961 51.7821 79.4886 56.2856 75.0873 57.3591L25.6251 69.4217C23.3818 69.9688 21.2515 69.5345 19.6646 68.292C18.0787 67.0499 17.1391 65.0826 17.1133 62.7661L16.8365 37.9618C16.7857 33.4151 20.2581 28.9119 24.6598 27.8385L58.3468 19.6229L74.1216 15.7757Z" fill="#2E2E2E"/>
<path fill-rule="evenodd" clip-rule="evenodd" d="M80.0823 18.4188C80.9706 19.4251 81.5067 20.8087 81.5246 22.4435L81.8019 47.2476C81.8465 51.2836 78.7205 55.3316 74.8244 56.2817L50.0933 62.3128L25.3624 68.3443C21.4667 69.2943 18.2671 66.7891 18.2221 62.7535L17.9453 37.9492C17.9003 33.9134 21.0266 29.8656 24.9225 28.9155L58.6093 20.6999L74.3846 16.8527C76.7025 16.2874 78.7735 16.9451 80.0823 18.4188ZM23.5395 37.1962C23.5395 35.7985 24.6994 34.3345 26.1076 33.9549C27.5158 33.5755 28.6758 34.4143 28.6758 35.8122V36.6618L30.3877 36.2005V35.3508C30.3877 33.9529 31.5478 32.489 32.9559 32.1095C34.3642 31.73 35.5241 32.5688 35.5241 33.9666C35.5241 35.3644 34.3642 36.8284 32.9559 37.2078L32.0998 37.4386V39.138L32.9559 38.9074C34.3642 38.5278 35.5241 39.3666 35.5241 40.7645C35.5241 42.1623 34.3642 43.6262 32.9559 44.0056C31.5478 44.3851 30.3877 43.5463 30.3877 42.1486V41.2989L28.6758 41.7601V42.61C28.6758 44.0077 27.5158 45.4717 26.1076 45.8512C24.6994 46.2307 23.5395 45.3917 23.5395 43.994C23.5395 42.5963 24.6994 41.1323 26.1076 40.7528L26.9637 40.5221V38.8226L26.1076 39.0534C24.6994 39.4328 23.5395 38.594 23.5395 37.1962ZM26.9637 36.2734C26.9637 35.7933 26.5913 35.5241 26.1077 35.6545C25.624 35.7848 25.2516 36.2547 25.2516 36.7348C25.2516 37.2149 25.624 37.4842 26.1077 37.3539L26.9637 37.1232V36.2734ZM32.9557 33.8089C33.4394 33.6786 33.8118 33.9479 33.8118 34.428C33.8118 34.9081 33.4394 35.3781 32.9557 35.5084L32.0997 35.739V34.8894C32.0997 34.4093 32.4721 33.9393 32.9557 33.8089ZM30.3878 37.9L28.6759 38.3613V40.0607L30.3878 39.5993V37.9ZM26.1077 42.4523L26.9637 42.2215V43.0712C26.9637 43.5513 26.5913 44.0214 26.1077 44.1517C25.624 44.282 25.2516 44.0127 25.2516 43.5326C25.2516 43.0525 25.624 42.5826 26.1077 42.4523ZM32.9557 40.6067L32.0997 40.8375V41.6871C32.0997 42.1672 32.4721 42.4365 32.9557 42.3062C33.4394 42.1759 33.8118 41.7059 33.8118 41.2258C33.8118 40.7457 33.4394 40.4764 32.9557 40.6067ZM39.2126 55.4366L37.6146 55.4965C37.4134 56.7496 36.8157 57.4887 35.8215 57.7139C34.4602 58.022 33.7796 57.3124 33.7796 55.584C33.7796 53.8087 34.4425 52.7707 35.7682 52.4704C36.2535 52.3608 36.7151 52.3626 37.153 52.4764L37.4193 53.7299L38.9463 53.2243L38.6266 51.0598C38.165 50.8922 37.6975 50.8028 37.224 50.7913C36.7506 50.7803 36.2771 50.8286 35.8036 50.9355C34.6082 51.2062 33.6406 51.816 32.9008 52.7651C32.1611 53.7138 31.7912 54.8333 31.7912 56.1233C31.7912 57.4372 32.1492 58.3564 32.8653 58.8805C33.5814 59.405 34.5076 59.5385 35.6439 59.2811C36.8512 59.0076 37.7271 58.4807 38.2716 57.7006C38.816 56.92 39.1297 56.1657 39.2126 55.4366ZM54.8722 54.7482V53.2924L53.7001 53.5577V49.7404C53.7001 48.7581 53.4279 48.0977 52.8836 47.7592C52.3388 47.4212 51.7056 47.3337 50.9839 47.4972C50.3328 47.6445 49.7824 47.9319 49.3325 48.3593C48.883 48.7866 48.5395 49.2997 48.3028 49.8974C48.1135 49.325 47.7819 48.9474 47.3085 48.7645C46.8351 48.5822 46.3027 48.5578 45.7107 48.6918C45.1189 48.8258 44.6158 49.0759 44.2016 49.442C43.7873 49.8081 43.4559 50.2382 43.2073 50.7324V49.4185L40.1357 50.1143V51.588L41.3076 51.3223V56.3646L40.118 56.634V58.0902L44.6987 57.0526V55.5964L43.2073 55.9345V52.8098C43.2191 52.2622 43.373 51.7451 43.6689 51.2578C43.9648 50.7706 44.4205 50.4574 45.036 50.3179C45.5095 50.2111 45.8794 50.2838 46.1457 50.5371C46.4118 50.7904 46.5449 51.2961 46.5449 52.0536V55.1783L46.1189 55.275V56.7307L49.6346 55.9345V54.4787L48.4451 54.7482V51.641C48.4566 51.0939 48.6076 50.5744 48.8978 50.0826C49.1874 49.5907 49.6461 49.2739 50.2738 49.1316C50.7587 49.0215 51.1345 49.0934 51.4012 49.3471C51.6674 49.6004 51.8005 50.1056 51.8005 50.8632V53.9878L51.3565 54.0882V55.5444L54.8722 54.7482ZM64.797 52.4999V51.0441L63.6249 51.3094V40.5504L60.0029 41.3708V42.8267L61.7252 42.4365V46.467C61.4885 46.0944 61.1542 45.8297 60.7222 45.6731C60.2902 45.5165 59.7606 45.5093 59.1329 45.6514C57.902 45.9302 56.9998 46.5697 56.4255 47.5695C55.8512 48.5697 55.5643 49.6377 55.5643 50.7738C55.5643 52.0168 55.8692 52.9245 56.4789 53.4964C57.0882 54.0684 57.9139 54.2365 58.9556 54.0007C59.6777 53.8372 60.2608 53.5365 60.7043 53.0986C61.1482 52.6606 61.4885 52.1839 61.7252 51.6691V53.1957L64.797 52.4999ZM61.7252 48.7572V49.3609C61.7133 49.9555 61.512 50.5629 61.1215 51.1841C60.731 51.8054 60.2101 52.1895 59.5594 52.3373C59.0031 52.463 58.5264 52.352 58.1299 52.0039C57.7334 51.6557 57.5354 51.0616 57.5354 50.2212C57.5354 49.3927 57.7334 48.6936 58.1299 48.1244C58.5264 47.5552 59.0445 47.1983 59.6833 47.0537C60.2516 46.9247 60.731 47.0118 61.1215 47.3139C61.512 47.616 61.7133 48.0968 61.7252 48.7572ZM65.6844 47.3632V48.9612L69.8747 48.012V46.414L65.6844 47.3632ZM76.2839 37.6386C75.9053 37.6357 75.5323 37.6757 75.1657 37.7588C74.2304 37.9707 73.4908 38.4401 72.946 39.167C72.4016 39.8939 72.1294 40.6895 72.1294 41.5536V42.8674L71.0817 43.1046V44.5072L72.1294 44.27V49.3835L70.9399 49.6529V51.1086L75.5208 50.0711V48.6153L74.0116 48.957V43.8437L76.0177 43.3892V41.9866L74.0116 42.4411V40.8609C74.0116 39.9377 74.3782 39.3929 75.1123 39.2267C75.3605 39.1704 75.6032 39.1569 75.8404 39.1861L76.2129 40.3978L77.7041 39.8824L77.367 37.9171C77.0239 37.7344 76.6629 37.6416 76.2839 37.6386Z" fill="#2E2E2E"/>
</g>
<defs>
<clipPath id="clip0">
<rect width="83.3552" height="69.9999" fill="white"/>
</clipPath>
</defs>
</svg>
