<svg width="105" height="87" viewBox="0 0 105 87" fill="none" xmlns="http://www.w3.org/2000/svg">
<path d="M5.31326 19.6552L2.0346 24.1167V34.5271L1.73657 47.0195L2.63067 56.5375L4.04699 61.5769L8.58701 66.5194L15.8099 73.3154L23.6966 82.1692L27.5862 84.8378L32.9383 84.2302L48.2096 81.141L63.8934 76.8163L79.1646 74.3451L91.1339 70.4322L97.944 68.5788L102.897 63.8422L103.929 55.8106L103.31 42.2186L103.929 26.7733L103.103 21.0069L96.2931 16.0645L88.0384 9.88624L80.6091 4.5319L75.45 2.06052L70.0844 1.85474L62.6553 4.32597L49.8605 6.59126L37.8912 9.47437L28.6047 11.9456L20.7627 14.211L10.6783 16.9782L5.31326 19.6552Z" fill="white"/>
<path fill-rule="evenodd" clip-rule="evenodd" d="M102.818 23.3296C103.945 24.5953 104.625 26.3356 104.648 28.3919L105 59.5911C105.057 64.6673 101.089 69.7589 96.145 70.9539L33.3727 86.1268C28.4284 87.3219 24.368 84.1707 24.3108 79.0945L23.9596 47.8953C23.9024 42.819 27.8701 37.7275 32.8143 36.5324L67.2976 28.1974L77.6589 25.6929L95.5865 21.3597C98.5281 20.6486 101.157 21.4759 102.818 23.3296ZM33.5921 42.1669C31.8302 42.6408 30.3789 44.4685 30.3789 46.2139C30.3789 47.9591 31.8302 49.0064 33.5921 48.5325L34.6631 48.2445V50.3664L33.5921 50.6545C31.8302 51.1283 30.3789 52.9561 30.3789 54.7013C30.3789 56.4466 31.8302 57.4938 33.5921 57.0201C35.354 56.5462 36.8052 54.7185 36.8052 52.9731V51.9122L38.9473 51.3362V52.3971C38.9473 54.1423 40.3985 55.1897 42.1604 54.7158C43.9223 54.2421 45.3735 52.4142 45.3735 50.669C45.3735 48.9238 43.9223 47.8765 42.1604 48.3503L41.0894 48.6382V46.5165L42.1604 46.2284C43.9223 45.7546 45.3735 43.9268 45.3735 42.1814C45.3735 40.4362 43.9223 39.3889 42.1604 39.8628C40.3985 40.3366 38.9473 42.1644 38.9473 43.9097V44.9705L36.8052 45.5467V44.4857C36.8052 42.7404 35.354 41.6932 33.5921 42.1669ZM49.9877 68.9878L47.9884 69.0628C47.7366 70.6271 46.9888 71.5499 45.7448 71.831C44.0417 72.216 43.1902 71.3297 43.1902 69.1721C43.1902 66.9552 44.0195 65.6594 45.6781 65.2845C46.2854 65.1473 46.863 65.1498 47.4109 65.2919L47.744 66.8569L49.6545 66.2256L49.2547 63.5228C48.677 63.3135 48.0921 63.2019 47.4998 63.188C46.9074 63.1741 46.315 63.2341 45.7226 63.368C44.2268 63.7061 43.0162 64.4674 42.0907 65.652C41.1652 66.8366 40.7024 68.2343 40.7024 69.8452C40.7024 71.4856 41.1503 72.6332 42.0463 73.2878C42.9422 73.9424 44.101 74.1091 45.5227 73.7877C47.0333 73.4463 48.1292 72.7884 48.8103 71.8142C49.4915 70.84 49.884 69.8979 49.9877 68.9878ZM69.5802 68.1281V66.3103L68.1141 66.6418V61.8758C68.1141 60.6492 67.7734 59.8246 67.0922 59.4022C66.4111 58.9798 65.6188 58.8708 64.7154 59.075C63.9009 59.2591 63.2123 59.618 62.6495 60.1515C62.0867 60.6851 61.6572 61.3253 61.3611 62.0721C61.1242 61.3572 60.7095 60.8856 60.1171 60.6575C59.5248 60.4293 58.8584 60.3988 58.1179 60.5662C57.3775 60.7336 56.7481 61.0459 56.2298 61.5029C55.7114 61.9599 55.2968 62.497 54.9858 63.1141V61.4737L51.1427 62.3424V64.1823L52.609 63.8509V70.1464L51.1206 70.483V72.3007L56.8517 71.0052V69.1875L54.9858 69.6093V65.7078C55.0005 65.0246 55.193 64.3788 55.5633 63.7706C55.9335 63.1622 56.5037 62.771 57.2738 62.5969C57.8662 62.4631 58.329 62.5543 58.6622 62.8706C58.9954 63.1869 59.162 63.818 59.162 64.7638V68.6653L58.6289 68.7858V70.6035L63.0272 69.6093V67.7916L61.5388 68.128V64.2487C61.5536 63.5655 61.7425 62.9169 62.1053 62.3029C62.4681 61.6888 63.0419 61.2931 63.8268 61.1158C64.434 60.9785 64.9043 61.068 65.2375 61.3843C65.5706 61.7006 65.7372 62.3316 65.7372 63.2775V67.179L65.1819 67.3045V69.1222L69.5802 68.1281ZM81.9977 65.3212V63.5036L80.5316 63.8349V50.4013L76 51.4257V53.2434L78.1548 52.7563V57.7883C77.8585 57.3233 77.4401 56.993 76.8996 56.7975C76.3591 56.6019 75.6964 56.5928 74.9115 56.7702C73.3713 57.1184 72.2421 57.9167 71.5239 59.1653C70.8056 60.4138 70.4465 61.7475 70.4465 63.1663C70.4465 64.718 70.8278 65.851 71.5905 66.5653C72.3532 67.2796 73.3862 67.4895 74.6894 67.195C75.5928 66.9908 76.3221 66.6153 76.8774 66.0686C77.4327 65.5218 77.8585 64.9268 78.1548 64.2836V66.1899L81.9977 65.3212ZM78.1548 60.648V61.4018C78.1399 62.144 77.8881 62.9028 77.3994 63.6784C76.9107 64.4539 76.2592 64.9337 75.4447 65.1178C74.7486 65.2751 74.1525 65.1364 73.6563 64.7018C73.1603 64.2671 72.9123 63.5252 72.9123 62.4759C72.9123 61.4414 73.1603 60.5688 73.6563 59.8581C74.1525 59.1474 74.8004 58.7017 75.6001 58.5211C76.311 58.3603 76.9107 58.4686 77.3994 58.8459C77.8881 59.2231 78.1399 59.8238 78.1548 60.648ZM83.3749 58.8474V60.8424L88.6174 59.6575V57.6623L83.3749 58.8474ZM96.9476 46.6353C96.4737 46.6316 96.0072 46.6816 95.5481 46.7854C94.3781 47.0499 93.4526 47.636 92.7714 48.5436C92.0902 49.4513 91.7496 50.4445 91.7496 51.5234V53.1638L90.4389 53.46V55.2113L91.7496 54.915V61.2992L90.2612 61.6356V63.4534L95.9923 62.1579V60.3402L94.1041 60.7671V54.3828L96.6144 53.8154V52.0641L94.1041 52.6315V50.6586C94.1041 49.5059 94.5632 48.8258 95.4814 48.6182C95.7924 48.5479 96.096 48.531 96.3923 48.5675L96.8586 50.0804L98.7247 49.4369L98.3026 46.983C97.8731 46.755 97.4215 46.6391 96.9476 46.6353Z" fill="#2E2E2E"/>
<path d="M33.5913 44.6317C34.1964 44.469 34.6624 44.8051 34.6624 45.4046V46.4655L33.5913 46.7536C32.9862 46.9163 32.5203 46.5802 32.5203 45.9807C32.5203 45.3813 32.9862 44.7945 33.5913 44.6317Z" fill="#2E2E2E"/>
<path d="M42.1599 42.2113C42.765 42.0486 43.231 42.3849 43.231 42.9843C43.231 43.5837 42.765 44.1706 42.1599 44.3332L41.0889 44.6213V43.5603C41.0889 42.9609 41.5548 42.3741 42.1599 42.2113Z" fill="#2E2E2E"/>
<path d="M36.821 47.7967L38.9631 47.2207V49.3426L36.821 49.9186V47.7967Z" fill="#2E2E2E"/>
<path d="M33.5913 52.7759L34.6624 52.4878V53.5488C34.6624 54.1482 34.1964 54.7349 33.5913 54.8977C32.9862 55.0604 32.5203 54.7242 32.5203 54.1248C32.5203 53.5253 32.9862 52.9385 33.5913 52.7759Z" fill="#2E2E2E"/>
<path d="M41.0889 50.7596L42.1599 50.4715C42.765 50.3089 43.231 50.645 43.231 51.2444C43.231 51.8438 42.765 52.4307 42.1599 52.5935C41.5548 52.7561 41.0889 52.42 41.0889 51.8206V50.7596Z" fill="#2E2E2E"/>
<path fill-rule="evenodd" clip-rule="evenodd" d="M72.7175 0.0131273C72.4516 0.026356 71.8287 0.0990644 71.4703 0.158693C71.1749 0.207829 67.9262 0.976637 54.8195 4.09914C53.9071 4.31652 43.6865 6.74994 32.107 9.50679C20.5275 12.2636 10.8794 14.5702 10.6668 14.6325C9.51571 14.9697 8.26429 15.538 7.33661 16.1448C5.0292 17.654 3.23186 19.689 2.1007 22.0728C1.35038 23.6541 0.960118 25.1104 0.838087 26.7845C0.817233 27.0704 0.847391 30.4006 0.973289 41.7165C1.06242 49.7268 1.14728 56.5995 1.16187 56.9893C1.17647 57.3791 1.20455 57.8242 1.22431 57.9783C1.47159 59.9095 2.18809 61.5953 3.35235 62.9854C3.66463 63.3582 5.25044 64.9459 5.87733 65.5134C6.483 66.0616 7.87555 67.4338 9.41538 68.9998C10.7964 70.4042 11.9601 71.6099 14.7189 74.4944C15.1176 74.9112 15.6851 75.5043 15.9801 75.8123C16.275 76.1204 16.9316 76.8088 17.439 77.3422C17.9465 77.8756 18.4909 78.4463 18.6489 78.6104C18.8068 78.7746 19.256 79.2444 19.647 79.6544C20.8841 80.9517 22.0899 82.198 22.2268 82.321C22.2996 82.3863 22.5826 82.6523 22.8558 82.9122C23.5489 83.5715 24.0527 84.0254 24.3741 84.2799C25.293 85.0077 26.5909 85.6768 27.63 85.9585C28.3336 86.1491 28.9187 86.2202 30.4045 86.2953L30.7226 86.3114V85.2686V84.2259L30.5292 84.237C30.2473 84.2533 29.6318 84.2026 29.2439 84.1312C28.1958 83.9382 27.0804 83.4212 26.0619 82.6562C25.1876 81.9994 24.3236 81.1586 23.5016 80.1645C23.2831 79.9003 17.2541 73.5599 16.242 72.53C15.8853 72.167 14.1853 70.4325 12.4644 68.6755C10.7434 66.9186 9.04787 65.1901 8.69657 64.8345C6.27236 62.3808 5.89527 61.9734 5.33657 61.2041C4.54691 60.1169 4.25832 59.5438 4.02174 58.5932C3.86477 57.9624 3.81138 57.4957 3.79275 56.5914C3.78499 56.2153 3.70629 49.4579 3.61784 41.5749C3.4514 26.743 3.45275 27.0285 3.54604 26.2921C3.76162 24.5905 4.55215 22.7107 5.67932 21.2195C6.07522 20.6957 6.31579 20.4206 6.81217 19.924C7.88937 18.8463 8.92419 18.1305 10.2331 17.5575C10.6301 17.3837 11.4206 17.115 11.8142 17.0201C12.1217 16.946 70.5527 3.02958 71.2333 2.8684C72.0226 2.68148 72.3677 2.6354 73.1296 2.61521C73.7014 2.60007 74.0561 2.62103 74.5135 2.69695C75.1185 2.79738 75.767 3.00357 76.3088 3.26772C77.1629 3.68423 78.8672 4.63891 79.5932 5.10751C79.7253 5.1928 82.599 7.26877 85.9791 9.72077C94.6869 16.0376 95.6 16.7011 98.3236 18.6909C100.598 20.3526 100.777 20.489 101.088 20.7939C101.646 21.3423 102.007 21.8247 102.28 22.3882C102.593 23.0339 102.652 23.2966 102.715 24.3277C102.758 25.0443 102.788 27.2264 102.772 28.4617L102.756 29.6366L102.816 29.637C102.849 29.6373 103.252 29.6703 103.711 29.7104C104.17 29.7504 104.552 29.7773 104.559 29.77C104.566 29.7628 104.576 28.664 104.58 27.3282C104.586 25.2905 104.581 24.8176 104.547 24.3899C104.39 22.3643 104.129 21.2109 103.624 20.3058C103.27 19.6707 102.808 19.0922 102.301 18.6457C102.169 18.5295 102.025 18.4024 101.982 18.3632C101.625 18.0404 99.7847 16.6466 97.7249 15.1399C97.526 14.9944 97.0601 14.6533 96.6897 14.3818C95.5988 13.5825 91.5871 10.6669 90.2913 9.73156C89.1153 8.88275 86.9866 7.34128 86.7366 7.15752C86.6131 7.06676 86.3101 6.84722 86.0631 6.66967C85.8161 6.49213 85.1146 5.98302 84.504 5.53832C83.8935 5.09364 83.1807 4.57473 82.92 4.3852C82.0917 3.7829 81.2798 3.16605 81.0866 2.99208C80.5496 2.50869 79.6287 1.9452 78.3854 1.33916C76.8027 0.567715 75.9291 0.272406 74.7131 0.0977465C74.1051 0.010392 73.3853 -0.0201187 72.7175 0.0131273Z" fill="#2E2E2E"/>
</svg>
