<svg width="62" height="19" viewBox="0 0 62 19" fill="none" xmlns="http://www.w3.org/2000/svg">
<path d="M48.1296 7.84443C48.7478 11.7527 51.5417 14.777 53.1383 15.6697C54.2478 13.916 56.5307 12.8507 57.8974 11.4905C58.831 10.5612 59.8803 9.83959 59.8803 8.35604C59.8803 6.81906 59.2558 5.23893 57.4014 5.8903C53.6927 7.19306 53.0746 11.1664 53.0746 7.19306C53.0746 5.0016 53.1857 2.04713 50.6021 3.28467C48.58 4.25324 48.1296 5.23893 48.1296 7.84443Z" fill="#4A9D63" stroke="#4A5759" stroke-width="2.47248" stroke-linecap="round" stroke-linejoin="round"/>
<path d="M32.7038 1.33032C32.6553 1.39658 32.6066 1.46276 32.5578 1.52885C31.5826 3.22568 33.5796 9.11422 34.1501 10.3166C34.5582 11.1767 36.2883 13.0322 34.6867 13.0322C33.2168 13.0322 31.9952 14.0419 31.3157 15.3308C30.5415 16.7994 30.5691 18.8534 29.7294 16.3756C29.3654 15.3017 29.6093 13.9744 29.2051 12.2708C28.6528 9.94262 24.9499 8.57105 24.1678 8.56437C24.0756 8.60796 24.0229 8.62919 24.0229 8.62078C24.0229 8.58215 24.0747 8.56357 24.1678 8.56437C24.7978 8.26649 27.2714 6.92433 27.3719 6.85621C29.4203 5.46857 31.0714 3.53993 32.5578 1.52885C32.6006 1.45434 32.6491 1.38792 32.7038 1.33032Z" fill="#F8CD5E" stroke="#4A5759" stroke-width="2.47248" stroke-linecap="round" stroke-linejoin="round"/>
<path d="M5.47922 3.93623C8.24507 2.62561 9.80606 3.93701 11.0423 4.58779C13.3978 5.82779 13.8422 9.36419 14.1329 11.1016C14.309 12.1535 12.9826 16.7764 10.2971 16.7764C6.47228 16.7764 1.77051 15.7826 1.77051 10.7165C1.77051 9.15944 2.71338 5.24684 5.47922 3.93623Z" fill="#9E483E" stroke="#4A5759" stroke-width="2.47248" stroke-linecap="round" stroke-linejoin="round"/>
</svg>
