<svg width="1293" height="402" viewBox="0 0 1293 402" fill="none" xmlns="http://www.w3.org/2000/svg">
<path d="M174.694 189.846C177.514 194.534 185.251 199.278 188.679 194.52C188.863 192.175 189.098 192.034 188.442 193.066C187.411 194.006 180.702 192.935 177.506 188.154L174.694 189.846Z" fill="#1B1B1B"/>
<ellipse cx="1.64115" cy="0.547052" rx="1.64115" ry="0.547052" transform="matrix(-0.856869 0.515534 0.515534 0.856869 177.225 187.685)" fill="#393939"/>
<path d="M189.853 195.41C192.81 191.305 190.408 186.018 188.336 182.277L185.523 183.97C187.216 186.782 188.974 190.149 188.161 192.598C186.704 196.986 182.019 195.654 179.998 191.763L177.185 193.455C180.005 198.143 186.425 200.168 189.853 195.41Z" fill="url(#paint0_linear_4343_6877)"/>
<path d="M194.059 183.303C196.879 187.99 195.661 194.611 189.852 195.41C187.693 194.475 189.004 192.409 190.224 192.314C191.536 191.843 193.974 190.058 191.247 184.995L194.059 183.303Z" fill="#1B1B1B"/>
<ellipse cx="192.653" cy="184.148" rx="1.64115" ry="0.547052" transform="rotate(-31.0331 192.653 184.148)" fill="#393939"/>
<ellipse cx="186.929" cy="183.124" rx="1.64115" ry="0.547052" transform="rotate(-31.0331 186.929 183.124)" fill="#393939"/>
<g filter="url(#filter0_ii_4343_6877)">
<path d="M161.778 153.685C161.43 153.264 162.694 152.218 163.043 152.64L187.097 181.729L187.669 182.679C187.837 182.959 186.419 183.75 186.278 183.516L185.832 182.775L161.778 153.685Z" fill="#DEDEDE"/>
</g>
<g filter="url(#filter1_iii_4343_6877)">
<path d="M193.124 182.968L175.218 157.291C171.506 152.182 170.942 151.244 167.706 152.233C167.437 152.316 166.751 152.587 166.159 152.845L166.949 154.158C167.44 153.945 168.196 153.658 168.787 153.499C170.71 152.98 172.308 156.168 173.389 157.434L191.777 183.906L192.117 184.471C192.258 184.706 193.633 183.815 193.52 183.627L193.124 182.968Z" fill="#808080"/>
</g>
<g filter="url(#filter2_iii_4343_6877)">
<path d="M174.882 189.096C169.476 179.58 163.899 169.208 161.577 164.86C158.63 159.339 156.549 157.032 159.69 156.099L161.192 156.473L162.208 158.161L161.381 157.636C159.805 158.518 159.459 157.507 162.702 163.545C168.014 173.436 168.578 174.374 176.342 188.346L176.682 188.911C176.823 189.145 175.392 189.943 175.279 189.755L174.882 189.096Z" fill="#808080"/>
</g>
<path d="M161.822 145.635C158.641 146.15 157.223 147.045 155.259 149.584L161.548 160.037C162.135 161.012 168.698 157.064 168.111 156.089L161.822 145.635Z" fill="url(#paint1_linear_4343_6877)"/>
<ellipse cx="3.82936" cy="0.820577" rx="3.82936" ry="0.820577" transform="matrix(-0.856869 0.515534 0.515534 0.856869 161.365 144.876)" fill="#A3A3A3"/>
<g filter="url(#filter3_ii_4343_6877)">
<path d="M145.106 122.098L142.294 123.79L157.1 148.4C157.241 148.634 160.054 146.942 159.913 146.708L145.106 122.098Z" fill="#D9D9D9"/>
</g>
<circle cx="1.36763" cy="1.36763" r="1.36763" transform="matrix(-0.856869 0.515534 0.515534 0.856869 164.098 154.724)" fill="#656565"/>
<ellipse cx="1.64115" cy="0.547052" rx="1.64115" ry="0.547052" transform="matrix(-0.856869 0.515534 0.515534 0.856869 179.716 191.294)" fill="#393939"/>
<g filter="url(#filter4_ii_4343_6877)">
<path d="M164.476 156.532C164.267 156.027 162.75 156.654 162.959 157.159L177.391 192.038L177.963 192.988C178.131 193.268 179.494 192.386 179.353 192.151L178.908 191.41L164.476 156.532Z" fill="#8A8A8A"/>
</g>
<path d="M187.04 189.441C189.861 194.129 190.428 203.187 184.619 203.986C182.46 203.05 182.225 203.191 183.445 203.096C184.758 202.625 186.955 196.196 184.228 191.133L187.04 189.441Z" fill="#1B1B1B"/>
<ellipse cx="185.635" cy="190.287" rx="1.64115" ry="0.547052" transform="rotate(-31.0331 185.635 190.287)" fill="#393939"/>
<path d="M184.856 205.44C179.844 206.129 176.298 201.53 173.964 197.948L176.776 196.255C178.469 199.068 180.619 202.198 183.164 202.627C187.723 203.396 188.741 198.633 186.251 195.024L189.063 193.332C191.883 198.02 190.665 204.641 184.856 205.44Z" fill="url(#paint2_linear_4343_6877)"/>
<path d="M172.189 203.485C175.009 208.172 181.429 210.198 184.857 205.44C185.041 203.094 182.602 203.285 181.947 204.318C180.916 205.257 178.197 206.574 175.001 201.793L172.189 203.485Z" fill="#1B1B1B"/>
<ellipse cx="1.64115" cy="0.547052" rx="1.64115" ry="0.547052" transform="matrix(-0.856869 0.515534 0.515534 0.856869 174.719 201.325)" fill="#393939"/>
<ellipse cx="1.64115" cy="0.547052" rx="1.64115" ry="0.547052" transform="matrix(-0.856869 0.515534 0.515534 0.856869 176.494 195.787)" fill="#393939"/>
<g filter="url(#filter5_ii_4343_6877)">
<path d="M161.145 161.09C160.936 160.585 159.419 161.212 159.628 161.717L174.06 196.596L174.632 197.546C174.8 197.826 176.163 196.944 176.022 196.709L175.576 195.968L161.145 161.09Z" fill="#DEDEDE"/>
</g>
<g filter="url(#filter6_iii_4343_6877)">
<path d="M172.331 202.501L158.033 174.653C155.259 168.98 154.694 168.043 157.084 165.647C157.283 165.448 157.844 164.969 158.349 164.567L159.139 165.879C158.721 166.214 158.113 166.748 157.696 167.195C156.337 168.651 158.405 171.556 159.016 173.104L173.79 201.751L174.131 202.316C174.272 202.55 172.84 203.348 172.727 203.16L172.331 202.501Z" fill="#808080"/>
</g>
<g filter="url(#filter7_iii_4343_6877)">
<path d="M186.291 189.255C180.416 180.021 173.865 170.235 171.111 166.147C167.614 160.956 166.551 158.037 164.255 160.375L163.882 161.877L164.898 163.566L164.821 162.589C166.339 161.611 165.608 160.831 169.423 166.524C175.673 175.851 176.237 176.789 184.944 190.193L185.284 190.758C185.425 190.993 186.8 190.102 186.687 189.914L186.291 189.255Z" fill="#808080"/>
</g>
<path d="M154.011 157.357C155.956 154.789 157.411 153.955 160.574 153.409L166.863 163.863C167.45 164.838 160.887 168.786 160.3 167.811L154.011 157.357Z" fill="url(#paint3_linear_4343_6877)"/>
<ellipse cx="157.259" cy="155.328" rx="3.82936" ry="0.820577" transform="rotate(-31.0331 157.259 155.328)" fill="#A3A3A3"/>
<g filter="url(#filter8_ii_4343_6877)">
<path d="M141.047 131.564L143.859 129.872L158.666 154.481C158.807 154.716 155.994 156.408 155.853 156.173L141.047 131.564Z" fill="#D9D9D9"/>
</g>
<circle cx="162.852" cy="164.093" r="1.36763" transform="rotate(-31.0331 162.852 164.093)" fill="#656565"/>
<ellipse cx="187.656" cy="194.178" rx="1.64115" ry="0.547052" transform="rotate(-31.0331 187.656 194.178)" fill="#393939"/>
<g filter="url(#filter9_ii_4343_6877)">
<path d="M162.395 164.807C162.047 164.385 163.312 163.34 163.66 163.761L187.714 192.85L188.286 193.8C188.454 194.08 187.036 194.871 186.895 194.637L186.449 193.896L162.395 164.807Z" fill="#8A8A8A"/>
</g>
<path d="M128.673 141.242C125.814 141.572 122.947 138.622 121.96 136.981L155.323 107.013C158.003 111.466 160.164 119.797 160.36 121.22C160.644 123.284 131.957 140.863 128.673 141.242Z" fill="#AC0C17"/>
<rect x="73.3193" y="62.5016" width="10.941" height="3.28231" transform="rotate(-31.0331 73.3193 62.5016)" fill="#313131"/>
<path d="M152.262 96.087L146.905 88.7756L141.751 93.4728L148.424 103.503L152.262 96.087Z" fill="#383838"/>
<path fill-rule="evenodd" clip-rule="evenodd" d="M24.2306 113.884C28.7786 124.98 36.1535 143.675 36.053 153.695C35.733 160.591 44.6168 175.357 46.1202 177.325C47.0888 178.514 47.7314 178.495 48.1431 178.482C48.2507 178.479 48.3425 178.476 48.4202 178.495C48.7206 178.57 52.0808 179.804 53.7233 180.412C53.9736 180.474 54.5678 180.543 54.9428 180.317L132.053 133.924C132.301 132.391 133.735 128.762 137.485 126.506C142.173 123.686 158.062 113.487 158.575 110.625C158.589 110.567 158.608 110.498 158.629 110.417C158.886 109.452 159.552 106.943 158.381 104.996L152.881 95.8554C152.662 95.6681 152.205 95.3684 152.13 95.6687C152.037 96.0441 148.994 101.067 147.868 100.787C146.742 100.507 143.262 93.6623 144.714 91.8311C145.244 91.163 145.767 90.6261 146.21 90.1725C146.98 89.3828 147.503 88.8459 147.384 88.3097C147.195 87.4655 135.314 76.7377 132.074 74.5369C129.483 72.7762 120.94 60.2743 116.992 54.2434C115.3 51.4308 104.852 46.4805 95.9265 51.5951C87.0011 56.7096 68.77 67.8273 60.7701 72.7468C50.2232 79.0924 20.8257 105.576 24.2306 113.884ZM41.5286 112.593L54.1149 124.493C55.0854 125.398 57.6736 127.012 60.2621 126.221C62.8505 125.43 84.1549 113.761 94.296 107.979C96.8424 106.021 100.835 100.278 99.6293 96.1511C98.122 90.9929 93.2781 80.8195 91.3039 77.5382C88.3426 72.6163 82.5289 75.1563 81.6886 78.5348C80.8483 81.9132 50.0062 101.747 45.0843 104.708C39.9387 107.804 38.3349 109.407 41.5286 112.593Z" fill="#AC0C17"/>
<path fill-rule="evenodd" clip-rule="evenodd" d="M35.6689 116.118C40.3203 122.257 43.2493 125.615 50.4159 130.548C52.1767 131.76 56.538 133.065 59.6144 132.239C62.6907 131.413 86.0596 118.041 97.7237 111.024C102.88 107.921 105.868 102.36 104.093 96.9348C101.874 90.1536 95.2303 76.6369 92.5885 72.2459C89.3673 66.892 86.692 65.6286 81.067 69.0129C55.52 84.3832 43.6182 96.6973 39.0757 101.619C38.9299 101.777 38.7854 101.933 38.6422 102.088C34.2307 106.856 31.1636 110.171 35.6689 116.118ZM41.5282 112.592L54.1145 124.492C55.085 125.398 57.6733 127.012 60.2617 126.221C62.8501 125.429 83.3104 113.949 93.4515 108.167C96.779 106.27 100.835 100.277 99.629 96.1508C98.1216 90.9926 93.2777 80.8192 91.3035 77.5379C88.3423 72.6159 84.102 75.1672 82.1115 79.238C79.8275 83.9089 53.5365 99.6469 46.2541 104.006C45.7793 104.29 45.3852 104.526 45.0839 104.708C39.9383 107.803 38.3345 109.407 41.5282 112.592Z" fill="#871920"/>
<path d="M56.0943 171.819C55.8948 171.488 55.0042 162.58 60.8636 159.054C94.0892 137.948 124.578 121.393 146.266 104.161C151.233 100.214 152.261 97.6788 152.59 97.1631C153.206 96.1963 152.986 96.0302 153.162 96.3225L158.379 104.994C158.889 116.293 90.4015 154.252 56.0943 171.819Z" fill="#E7E7E7"/>
<path d="M48.4201 178.495C48.0447 178.402 47.3415 178.825 46.1201 177.325C90.7974 150.445 156.035 112.97 158.38 104.996C158.71 105.544 158.894 106.137 158.983 106.727C159.235 108.408 158.713 110.069 158.575 110.625C158.062 113.487 142.172 123.685 137.485 126.506C133.735 128.762 132.301 132.391 132.052 133.924L54.9427 180.317C54.5677 180.542 53.9734 180.474 53.7231 180.412C52.0806 179.804 48.7204 178.57 48.4201 178.495Z" fill="#CD232E"/>
<path d="M92.7246 50.1881L95.2628 54.4069L104.358 49.8926L102.525 46.8457C100.415 48.1148 94.6473 49.6698 92.7246 50.1881Z" fill="url(#paint4_linear_4343_6877)"/>
<path d="M79.42 156.6L79.1602 153.076L79.1458 153.052L77.5707 153.999L77.3733 153.671L79.3303 152.494L79.5385 152.84L79.8078 156.367L79.42 156.6ZM80.371 158.87L80.7946 158.615L82.4998 159.531L82.5356 159.51L82.5249 157.574L82.9485 157.319L82.9252 159.779L83.6826 161.038L83.3127 161.261L82.5553 160.002L80.371 158.87ZM86.6089 159.277L84.771 156.223L86.6146 155.113L86.8121 155.442L85.3384 156.328L85.9594 157.36L87.3376 156.531L87.5351 156.859L86.1568 157.689L86.7814 158.727L88.279 157.826L88.4764 158.154L86.6089 159.277ZM90.5887 156.883L90.2009 157.116L89.4846 153.387L89.8665 153.157L92.8261 155.537L92.4383 155.77L89.9783 153.748L89.9544 153.762L90.5887 156.883ZM90.0139 155.604L91.5771 154.663L91.7746 154.991L90.2114 155.932L90.0139 155.604ZM94.646 154.442L92.8081 151.387L93.8403 150.766C94.0789 150.623 94.2994 150.545 94.5016 150.535C94.7031 150.523 94.8832 150.566 95.0418 150.663C95.2003 150.76 95.3337 150.898 95.442 151.078C95.5503 151.258 95.6095 151.44 95.6197 151.623C95.6299 151.807 95.5828 151.984 95.4785 152.155C95.3737 152.325 95.2029 152.482 94.9662 152.624L94.1309 153.127L93.9299 152.792L94.7533 152.297C94.9163 152.199 95.0332 152.096 95.104 151.989C95.1757 151.88 95.2076 151.769 95.1997 151.655C95.1922 151.539 95.1516 151.42 95.0781 151.297C95.0045 151.175 94.9173 151.082 94.8165 151.018C94.7157 150.954 94.6001 150.927 94.4698 150.938C94.3389 150.948 94.1908 151.002 94.0258 151.101L93.3754 151.493L95.0159 154.219L94.646 154.442ZM95.2583 152.205L96.8357 153.125L96.4061 153.383L94.8406 152.456L95.2583 152.205ZM85.8568 163.612C85.748 163.471 85.6048 163.398 85.4272 163.391C85.2497 163.384 85.0685 163.436 84.8835 163.547C84.7483 163.629 84.6431 163.722 84.568 163.826C84.4939 163.931 84.4515 164.038 84.4409 164.149C84.4313 164.259 84.4558 164.363 84.5144 164.46C84.5635 164.542 84.625 164.6 84.6991 164.635C84.7736 164.669 84.8533 164.687 84.9383 164.688C85.0227 164.689 85.1062 164.682 85.1888 164.666C85.2707 164.649 85.3446 164.631 85.4102 164.612L85.7707 164.509C85.8628 164.482 85.9687 164.457 86.0883 164.435C86.2089 164.413 86.333 164.407 86.4608 164.416C86.589 164.425 86.712 164.46 86.8299 164.523C86.9478 164.587 87.0499 164.69 87.136 164.833C87.2353 164.998 87.2818 165.173 87.2755 165.359C87.2701 165.543 87.2085 165.725 87.0907 165.902C86.9739 166.08 86.7982 166.239 86.5635 166.38C86.3447 166.512 86.1341 166.59 85.9315 166.616C85.7299 166.641 85.5454 166.618 85.3779 166.547C85.2115 166.475 85.072 166.359 84.9596 166.199L85.3414 165.97C85.4207 166.079 85.517 166.151 85.63 166.186C85.7435 166.219 85.8635 166.223 85.9901 166.197C86.117 166.169 86.2412 166.119 86.3625 166.046C86.5037 165.961 86.6167 165.862 86.7016 165.749C86.7858 165.634 86.8359 165.516 86.8519 165.394C86.8673 165.271 86.8415 165.154 86.7744 165.042C86.7134 164.941 86.6354 164.875 86.5405 164.846C86.4455 164.816 86.3398 164.81 86.2234 164.825C86.107 164.841 85.9861 164.867 85.8608 164.901L85.4203 165.02C85.1403 165.095 84.8925 165.111 84.6767 165.067C84.4609 165.024 84.2911 164.899 84.1672 164.693C84.0643 164.522 84.0208 164.345 84.0367 164.162C84.053 163.978 84.1185 163.803 84.2331 163.638C84.3481 163.471 84.5031 163.329 84.698 163.212C84.8949 163.093 85.0911 163.023 85.2868 163.002C85.4818 162.979 85.6605 163.002 85.823 163.069C85.9865 163.136 86.1171 163.245 86.2148 163.396L85.8568 163.612Z" fill="black"/>
<path d="M70.93 64.8971L69.5199 62.5534C72.3324 60.8612 72.3139 58.5314 71.9531 57.578L76.1719 55.0398C78.0134 57.2517 82.6303 55.5167 84.7086 54.3727L85.8367 56.2478C83.7376 58.2768 73.9312 64.0491 70.93 64.8971Z" fill="url(#paint5_linear_4343_6877)"/>
<path d="M886.786 187.251L966.064 139.379C971.703 144.758 975.597 151.819 971.386 157.707C954.516 181.297 918.372 198.335 898.562 201.203C894.359 201.811 889.625 194.339 886.786 187.251Z" fill="#7BB7C4"/>
<path d="M923.121 38.9337C934.697 31.9436 945.017 27.5517 952.111 26.6943C961.034 25.6157 968.615 31.5905 971.962 38.1639C984.823 63.427 989.051 73.6931 1001.15 97.6058C1010.06 115.205 997.553 119.885 988.095 102.14C977.285 81.8608 973.591 71.8222 961.458 51.6865C958.413 45.9039 954.483 40.1346 945.765 43.9307C939.443 46.6835 936.305 49.4279 932.091 54.5805L923.121 38.9337Z" fill="url(#paint6_linear_4343_6877)"/>
<path d="M926.796 45.811C931.582 48.1873 946.069 37.5256 953.198 38.0065C963.179 38.6798 967.194 50.64 970.54 57.2134C974.268 64.5361 977.685 72.0899 980.509 78.479C988.36 96.2369 994.272 113.729 988.095 102.14C977.286 81.8605 973.592 71.8219 961.458 51.6862C958.413 45.9036 954.483 40.1343 945.765 43.9304C939.444 46.6832 936.305 49.4276 932.091 54.5802L926.796 45.811Z" fill="#83B9C6"/>
<path d="M816.652 105.994L816.5 105.796L816.264 105.716C809.762 103.503 805.876 102.759 798.485 102.84C797.973 102.846 797.378 102.546 797.009 102.029C796.665 101.547 796.534 100.899 796.898 100.165L796.898 100.165C800.096 93.709 803.195 89.6324 807.142 86.7282C811.102 83.8148 815.987 82.0275 822.872 80.2808C827.924 78.9991 833.401 77.8414 838.827 76.6945C842.087 76.0055 845.328 75.3204 848.448 74.6146C856.688 72.7505 864.117 70.7354 868.459 68.1132C868.653 67.996 868.92 67.8342 869.253 67.6318C873.148 65.2695 886.143 57.3861 898.848 50.5396C905.75 46.8205 912.537 43.4232 917.723 41.3814C920.325 40.3567 922.469 39.6959 924.002 39.4888C924.774 39.3844 925.315 39.4067 925.657 39.5034C925.965 39.5902 926.036 39.707 926.069 39.8085L926.086 39.8622L926.111 39.9131L971.917 134.798L971.931 134.826L971.947 134.853C973.348 137.266 973.331 140.225 972.03 143.644C970.726 147.069 968.164 150.859 964.644 154.798C957.61 162.669 946.899 170.971 935.373 177.943C923.845 184.916 911.567 190.517 901.419 193.028C896.341 194.285 891.853 194.753 888.282 194.268C884.723 193.786 882.169 192.375 880.756 189.949L880.731 189.905L880.7 189.864L816.652 105.994Z" fill="#E9FAFE" stroke="#BFEBF5" stroke-width="1.63911"/>
<g filter="url(#filter10_bi_4343_6877)">
<path d="M816 106.492C809.578 104.306 805.785 103.58 798.493 103.66C796.878 103.678 795.148 101.85 796.163 99.8012C800.901 90.2385 812.081 87.3172 822.34 86.8668C839.026 86.1344 851.86 88.1888 874.39 77.9351C879.611 75.5586 927.848 45.1759 926.849 39.5569L972.655 134.442C985.197 156.037 892.693 212.081 880.048 190.362L816 106.492Z" fill="url(#paint7_linear_4343_6877)"/>
<path d="M816.326 106.243L816.25 106.144L816.132 106.104C809.67 103.904 805.831 103.17 798.489 103.25C797.829 103.257 797.114 102.881 796.676 102.267C796.25 101.671 796.095 100.862 796.531 99.9831L796.531 99.9831C801.16 90.6388 812.121 87.7256 822.358 87.2762C825.404 87.1425 828.325 87.1022 831.205 87.0625C844.06 86.8851 856.078 86.7193 874.56 78.308C875.895 77.7003 879.915 75.3387 885.147 72.0737C890.392 68.8008 896.884 64.6015 903.183 60.3004C909.48 56.0005 915.591 51.5935 920.068 47.9062C922.305 46.0638 924.147 44.3915 925.4 42.9956C926.027 42.2985 926.518 41.6577 926.838 41.089C926.894 40.9911 926.945 40.8933 926.992 40.7958L972.286 134.62L972.293 134.634L972.301 134.648C973.786 137.204 973.74 140.302 972.413 143.79C971.084 147.281 968.486 151.114 964.949 155.071C957.879 162.983 947.133 171.309 935.585 178.294C924.036 185.279 911.719 190.902 901.518 193.426C896.415 194.689 891.87 195.169 888.227 194.675C884.59 194.181 881.899 192.726 880.402 190.156L880.389 190.134L880.374 190.113L816.326 106.243Z" stroke="#BFEBF5" stroke-width="0.819556"/>
</g>
<g filter="url(#filter11_f_4343_6877)">
<ellipse cx="927.073" cy="169.146" rx="40.1582" ry="7.78578" transform="rotate(-31.1254 927.073 169.146)" fill="url(#paint8_radial_4343_6877)"/>
</g>
<path d="M816.003 106.5C818.109 105.228 817.76 105.442 820.916 103.534C870.025 175.352 883.713 184.452 889.737 187.383C897.193 191.009 954.514 174.159 963.188 140.168C965.322 131.807 928.154 46.4273 923.923 48.9819C921.118 50.6757 892.541 66.9925 912.833 52.816C917.883 49.2879 927.689 41.3002 926.851 39.5646L972.658 134.449C985.2 156.045 892.695 212.089 880.051 190.37L816.003 106.5Z" fill="#BFEBF5"/>
<path d="M798.494 103.66C805.785 103.58 809.579 104.306 816.001 106.492L818.258 109.437L821.335 104.228L820.912 103.526C825.811 99.0589 826.418 97.0537 823.135 94.5249C817.575 91.6589 800.901 90.2386 796.164 99.8013C795.149 101.85 796.878 103.678 798.494 103.66Z" fill="url(#paint9_radial_4343_6877)"/>
<rect x="870.856" y="109.748" width="1.07486" height="68.4329" transform="rotate(-31.1254 870.856 109.748)" fill="#636363"/>
<rect x="864.723" y="113.452" width="7.88232" height="1.07486" transform="rotate(-31.1254 864.723 113.452)" fill="#636363"/>
<rect x="869.214" y="115.345" width="5.01602" height="0.358287" transform="rotate(-31.1254 869.214 115.345)" fill="#636363"/>
<rect x="870.881" y="118.105" width="5.01602" height="0.358287" transform="rotate(-31.1254 870.881 118.105)" fill="#636363"/>
<rect x="872.547" y="120.865" width="5.01602" height="0.358287" transform="rotate(-31.1254 872.547 120.865)" fill="#636363"/>
<rect x="874.214" y="123.626" width="5.01602" height="0.358287" transform="rotate(-31.1254 874.214 123.626)" fill="#636363"/>
<rect x="873.427" y="127.868" width="7.88232" height="1.07486" transform="rotate(-31.1254 873.427 127.868)" fill="#636363"/>
<rect x="877.918" y="129.76" width="5.01602" height="0.358287" transform="rotate(-31.1254 877.918 129.76)" fill="#636363"/>
<rect x="879.585" y="132.52" width="5.01602" height="0.358287" transform="rotate(-31.1254 879.585 132.52)" fill="#636363"/>
<rect x="881.252" y="135.28" width="5.01602" height="0.358287" transform="rotate(-31.1254 881.252 135.28)" fill="#636363"/>
<rect x="882.919" y="138.041" width="5.01602" height="0.358287" transform="rotate(-31.1254 882.919 138.041)" fill="#636363"/>
<rect x="882.132" y="142.283" width="7.88232" height="1.07486" transform="rotate(-31.1254 882.132 142.283)" fill="#636363"/>
<rect x="886.623" y="144.175" width="5.01602" height="0.358287" transform="rotate(-31.1254 886.623 144.175)" fill="#636363"/>
<rect x="888.289" y="146.935" width="5.01602" height="0.358287" transform="rotate(-31.1254 888.289 146.935)" fill="#636363"/>
<rect x="889.956" y="149.696" width="5.01602" height="0.358287" transform="rotate(-31.1254 889.956 149.696)" fill="#636363"/>
<rect x="891.623" y="152.456" width="5.01602" height="0.358287" transform="rotate(-31.1254 891.623 152.456)" fill="#636363"/>
<rect x="890.836" y="156.698" width="7.88232" height="1.07486" transform="rotate(-31.1254 890.836 156.698)" fill="#636363"/>
<rect x="895.327" y="158.59" width="5.01602" height="0.358287" transform="rotate(-31.1254 895.327 158.59)" fill="#636363"/>
<rect x="896.994" y="161.351" width="5.01602" height="0.358287" transform="rotate(-31.1254 896.994 161.351)" fill="#636363"/>
<rect x="898.661" y="164.111" width="5.01602" height="0.358287" transform="rotate(-31.1254 898.661 164.111)" fill="#636363"/>
<rect x="900.328" y="166.871" width="5.01602" height="0.358287" transform="rotate(-31.1254 900.328 166.871)" fill="#636363"/>
<rect x="899.541" y="171.113" width="7.88232" height="1.07486" transform="rotate(-31.1254 899.541 171.113)" fill="#636363"/>
<path d="M910.8 166.936C910.665 167.017 910.528 167.064 910.387 167.075C910.247 167.087 910.116 167.065 909.994 167.011C909.872 166.957 909.772 166.872 909.694 166.756L909.97 166.59C910.045 166.69 910.146 166.749 910.274 166.767C910.403 166.783 910.527 166.755 910.647 166.683C910.744 166.624 910.816 166.55 910.864 166.459C910.913 166.368 910.935 166.27 910.93 166.165C910.925 166.059 910.893 165.956 910.832 165.856C910.77 165.753 910.692 165.675 910.598 165.622C910.505 165.567 910.405 165.54 910.298 165.541C910.192 165.541 910.088 165.571 909.987 165.631C909.915 165.674 909.848 165.73 909.786 165.799C909.723 165.867 909.678 165.933 909.65 165.998L909.364 166.127L908.807 164.882L910.03 164.143L910.183 164.396L909.199 164.99L909.535 165.735L909.549 165.726C909.574 165.659 909.616 165.591 909.673 165.521C909.731 165.452 909.799 165.394 909.878 165.346C910.022 165.259 910.171 165.216 910.326 165.217C910.48 165.216 910.626 165.256 910.762 165.336C910.899 165.416 911.013 165.532 911.105 165.684C911.196 165.835 911.243 165.989 911.247 166.148C911.251 166.305 911.215 166.454 911.139 166.593C911.063 166.731 910.95 166.845 910.8 166.936ZM912.802 165.727C912.629 165.831 912.453 165.873 912.274 165.852C912.095 165.831 911.919 165.75 911.746 165.608C911.572 165.466 911.408 165.267 911.253 165.011C911.1 164.757 911.001 164.52 910.956 164.301C910.912 164.081 910.922 163.886 910.987 163.718C911.052 163.548 911.17 163.411 911.341 163.307C911.513 163.204 911.689 163.163 911.869 163.185C912.049 163.206 912.226 163.288 912.399 163.43C912.573 163.57 912.737 163.768 912.891 164.023C913.045 164.279 913.145 164.516 913.19 164.736C913.234 164.955 913.224 165.149 913.16 165.318C913.095 165.486 912.976 165.622 912.802 165.727ZM912.65 165.474C912.821 165.37 912.905 165.207 912.9 164.984C912.895 164.761 912.8 164.496 912.615 164.189C912.492 163.985 912.365 163.825 912.235 163.708C912.105 163.59 911.977 163.519 911.85 163.493C911.725 163.466 911.605 163.487 911.491 163.556C911.321 163.658 911.239 163.823 911.245 164.048C911.25 164.273 911.345 164.539 911.529 164.845C911.652 165.049 911.778 165.209 911.907 165.325C912.036 165.442 912.164 165.513 912.289 165.539C912.415 165.564 912.535 165.543 912.65 165.474Z" fill="#636363"/>
<path d="M900.554 149.76L901.976 152.115L901.691 152.287L900.45 150.231L900.436 150.239L900.091 150.968L899.916 150.678L900.269 149.932L900.554 149.76ZM903.441 151.274C903.268 151.379 903.092 151.421 902.913 151.4C902.734 151.378 902.557 151.297 902.384 151.156C902.211 151.014 902.047 150.815 901.892 150.559C901.738 150.304 901.639 150.068 901.595 149.848C901.551 149.628 901.561 149.434 901.625 149.265C901.69 149.095 901.808 148.958 901.98 148.855C902.152 148.751 902.328 148.71 902.507 148.733C902.687 148.754 902.864 148.835 903.038 148.977C903.212 149.118 903.376 149.316 903.529 149.57C903.684 149.826 903.784 150.064 903.829 150.284C903.873 150.503 903.863 150.697 903.798 150.865C903.733 151.033 903.614 151.169 903.441 151.274ZM903.288 151.021C903.46 150.917 903.543 150.754 903.538 150.531C903.534 150.308 903.439 150.043 903.253 149.737C903.13 149.533 903.004 149.372 902.873 149.255C902.744 149.138 902.616 149.066 902.489 149.04C902.363 149.014 902.244 149.035 902.13 149.103C901.96 149.206 901.878 149.37 901.883 149.596C901.888 149.821 901.983 150.086 902.168 150.392C902.291 150.596 902.417 150.756 902.546 150.873C902.675 150.99 902.802 151.061 902.928 151.087C903.054 151.112 903.174 151.09 903.288 151.021ZM905.465 150.052C905.292 150.157 905.116 150.199 904.937 150.178C904.757 150.156 904.581 150.075 904.408 149.934C904.234 149.792 904.07 149.593 903.916 149.337C903.762 149.082 903.663 148.845 903.619 148.626C903.574 148.406 903.585 148.212 903.649 148.043C903.714 147.873 903.832 147.736 904.004 147.633C904.176 147.529 904.351 147.488 904.531 147.511C904.711 147.532 904.888 147.613 905.062 147.755C905.236 147.896 905.399 148.093 905.553 148.348C905.708 148.604 905.807 148.842 905.852 149.062C905.897 149.281 905.887 149.475 905.822 149.643C905.757 149.811 905.638 149.947 905.465 150.052ZM905.312 149.799C905.484 149.695 905.567 149.532 905.562 149.309C905.557 149.086 905.462 148.821 905.277 148.515C905.154 148.311 905.027 148.15 904.897 148.033C904.768 147.916 904.639 147.844 904.513 147.818C904.387 147.792 904.267 147.813 904.154 147.881C903.984 147.984 903.901 148.148 903.907 148.374C903.912 148.599 904.007 148.864 904.192 149.17C904.315 149.374 904.441 149.534 904.57 149.651C904.699 149.768 904.826 149.839 904.952 149.865C905.078 149.89 905.198 149.868 905.312 149.799Z" fill="#636363"/>
<path d="M892.082 135.728L893.504 138.083L893.218 138.256L891.977 136.2L891.963 136.208L891.619 136.937L891.444 136.647L891.796 135.901L892.082 135.728ZM894.936 137.262C894.801 137.344 894.664 137.39 894.523 137.402C894.383 137.413 894.252 137.392 894.13 137.338C894.008 137.284 893.908 137.199 893.83 137.083L894.106 136.916C894.181 137.016 894.283 137.075 894.41 137.093C894.539 137.11 894.663 137.082 894.783 137.009C894.88 136.951 894.952 136.876 895 136.786C895.049 136.695 895.071 136.597 895.066 136.492C895.061 136.386 895.029 136.283 894.968 136.182C894.906 136.079 894.828 136.002 894.734 135.948C894.641 135.894 894.541 135.867 894.434 135.867C894.328 135.868 894.224 135.898 894.123 135.958C894.051 136.001 893.984 136.056 893.922 136.125C893.859 136.193 893.814 136.26 893.786 136.325L893.5 136.454L892.943 135.208L894.166 134.47L894.319 134.723L893.335 135.317L893.671 136.061L893.685 136.053C893.71 135.986 893.752 135.917 893.809 135.848C893.867 135.779 893.935 135.72 894.014 135.673C894.158 135.586 894.307 135.543 894.462 135.543C894.616 135.543 894.762 135.583 894.898 135.663C895.035 135.742 895.149 135.858 895.241 136.011C895.332 136.161 895.379 136.316 895.383 136.475C895.387 136.632 895.351 136.78 895.275 136.919C895.199 137.058 895.086 137.172 894.936 137.262ZM896.938 136.053C896.765 136.158 896.589 136.2 896.41 136.179C896.231 136.158 896.055 136.076 895.882 135.935C895.708 135.793 895.544 135.594 895.389 135.338C895.236 135.083 895.137 134.847 895.092 134.628C895.048 134.407 895.058 134.213 895.123 134.044C895.188 133.874 895.306 133.738 895.478 133.634C895.649 133.53 895.825 133.49 896.005 133.512C896.185 133.533 896.362 133.614 896.535 133.756C896.709 133.897 896.873 134.095 897.027 134.349C897.181 134.605 897.281 134.843 897.326 135.063C897.37 135.282 897.36 135.476 897.296 135.644C897.231 135.812 897.112 135.949 896.938 136.053ZM896.786 135.8C896.957 135.697 897.041 135.533 897.036 135.31C897.031 135.087 896.936 134.822 896.751 134.516C896.628 134.312 896.501 134.152 896.371 134.035C896.241 133.917 896.113 133.845 895.986 133.819C895.861 133.793 895.741 133.814 895.628 133.882C895.457 133.985 895.375 134.149 895.381 134.375C895.386 134.6 895.481 134.865 895.665 135.171C895.788 135.375 895.914 135.536 896.043 135.652C896.172 135.769 896.3 135.84 896.425 135.866C896.551 135.891 896.671 135.869 896.786 135.8Z" fill="#636363"/>
<path d="M883.779 123.85L883.654 123.643L883.918 122.323C883.949 122.168 883.972 122.036 883.986 121.927C884 121.817 884.002 121.721 883.991 121.639C883.98 121.555 883.953 121.477 883.91 121.405C883.86 121.322 883.796 121.263 883.72 121.226C883.644 121.189 883.562 121.175 883.474 121.183C883.386 121.191 883.3 121.221 883.214 121.273C883.124 121.327 883.056 121.394 883.012 121.472C882.967 121.549 882.947 121.632 882.95 121.721C882.954 121.809 882.984 121.898 883.038 121.988L882.766 122.152C882.683 122.014 882.642 121.874 882.642 121.731C882.643 121.588 882.681 121.455 882.755 121.33C882.83 121.205 882.936 121.102 883.074 121.019C883.212 120.935 883.352 120.891 883.493 120.885C883.635 120.878 883.766 120.907 883.886 120.969C884.007 121.031 884.103 121.123 884.176 121.244C884.229 121.331 884.264 121.425 884.283 121.527C884.302 121.627 884.303 121.751 884.288 121.899C884.272 122.045 884.241 122.231 884.194 122.458L884.006 123.343L884.017 123.361L885.112 122.7L885.265 122.953L883.779 123.85ZM886.527 122.235C886.354 122.339 886.178 122.381 885.999 122.361C885.82 122.339 885.644 122.258 885.47 122.117C885.297 121.974 885.133 121.775 884.978 121.519C884.824 121.265 884.725 121.028 884.681 120.809C884.637 120.589 884.647 120.394 884.712 120.226C884.776 120.056 884.895 119.919 885.066 119.815C885.238 119.712 885.414 119.671 885.594 119.693C885.774 119.714 885.95 119.796 886.124 119.938C886.298 120.079 886.462 120.276 886.616 120.531C886.77 120.787 886.87 121.025 886.915 121.244C886.959 121.463 886.949 121.657 886.885 121.826C886.82 121.994 886.701 122.13 886.527 122.235ZM886.375 121.982C886.546 121.878 886.63 121.715 886.625 121.492C886.62 121.269 886.525 121.004 886.34 120.697C886.216 120.493 886.09 120.333 885.959 120.216C885.83 120.099 885.702 120.027 885.575 120.001C885.449 119.974 885.33 119.995 885.216 120.064C885.046 120.167 884.964 120.331 884.969 120.557C884.975 120.781 885.069 121.047 885.254 121.353C885.377 121.557 885.503 121.717 885.632 121.834C885.761 121.95 885.889 122.021 886.014 122.047C886.14 122.073 886.26 122.051 886.375 121.982ZM888.551 121.013C888.378 121.117 888.202 121.159 888.023 121.139C887.844 121.117 887.667 121.036 887.494 120.894C887.321 120.752 887.156 120.553 887.002 120.297C886.848 120.043 886.749 119.806 886.705 119.587C886.661 119.367 886.671 119.172 886.735 119.004C886.8 118.834 886.918 118.697 887.09 118.593C887.262 118.49 887.438 118.449 887.617 118.471C887.797 118.492 887.974 118.574 888.148 118.716C888.322 118.856 888.486 119.054 888.639 119.309C888.794 119.565 888.894 119.803 888.938 120.022C888.983 120.241 888.973 120.435 888.908 120.604C888.843 120.772 888.724 120.908 888.551 121.013ZM888.398 120.76C888.57 120.656 888.653 120.493 888.648 120.27C888.644 120.047 888.548 119.782 888.363 119.475C888.24 119.271 888.114 119.111 887.983 118.994C887.854 118.877 887.726 118.805 887.599 118.779C887.473 118.752 887.354 118.773 887.24 118.842C887.07 118.944 886.988 119.109 886.993 119.334C886.998 119.559 887.093 119.825 887.278 120.131C887.401 120.335 887.527 120.495 887.656 120.612C887.785 120.728 887.912 120.799 888.038 120.825C888.164 120.851 888.284 120.829 888.398 120.76Z" fill="#636363"/>
<path d="M874.883 109.117L874.758 108.91L875.021 107.59C875.052 107.435 875.075 107.303 875.09 107.194C875.104 107.084 875.105 106.988 875.094 106.905C875.084 106.822 875.057 106.744 875.013 106.672C874.963 106.589 874.9 106.53 874.823 106.493C874.748 106.456 874.666 106.442 874.578 106.45C874.49 106.458 874.403 106.488 874.318 106.539C874.228 106.594 874.16 106.66 874.115 106.739C874.071 106.816 874.05 106.899 874.054 106.988C874.058 107.076 874.087 107.165 874.141 107.255L873.87 107.419C873.787 107.281 873.745 107.141 873.746 106.998C873.747 106.855 873.784 106.722 873.859 106.597C873.934 106.472 874.04 106.368 874.177 106.285C874.315 106.202 874.455 106.157 874.597 106.151C874.738 106.145 874.869 106.173 874.99 106.236C875.11 106.298 875.207 106.39 875.28 106.511C875.332 106.598 875.368 106.692 875.386 106.793C875.405 106.894 875.407 107.018 875.391 107.166C875.376 107.312 875.345 107.498 875.297 107.724L875.11 108.61L875.121 108.628L876.216 107.967L876.368 108.22L874.883 109.117ZM877.599 107.521C877.464 107.602 877.326 107.649 877.185 107.661C877.045 107.672 876.914 107.651 876.792 107.597C876.671 107.543 876.571 107.458 876.492 107.342L876.768 107.175C876.843 107.275 876.945 107.334 877.073 107.352C877.201 107.369 877.325 107.341 877.446 107.268C877.542 107.21 877.615 107.135 877.662 107.045C877.711 106.954 877.733 106.856 877.728 106.751C877.724 106.645 877.691 106.541 877.631 106.441C877.569 106.338 877.491 106.26 877.397 106.207C877.303 106.153 877.203 106.126 877.097 106.126C876.99 106.127 876.887 106.157 876.786 106.217C876.713 106.259 876.646 106.315 876.584 106.384C876.522 106.452 876.476 106.519 876.449 106.583L876.163 106.712L875.605 105.467L876.829 104.728L876.981 104.981L875.997 105.576L876.334 106.32L876.348 106.312C876.373 106.244 876.414 106.176 876.472 106.107C876.529 106.037 876.597 105.979 876.676 105.931C876.82 105.844 876.97 105.801 877.124 105.802C877.279 105.802 877.424 105.842 877.56 105.922C877.697 106.001 877.812 106.117 877.904 106.27C877.994 106.42 878.042 106.574 878.046 106.733C878.05 106.891 878.014 107.039 877.938 107.178C877.861 107.316 877.748 107.431 877.599 107.521ZM879.601 106.312C879.428 106.417 879.252 106.459 879.073 106.438C878.893 106.416 878.717 106.335 878.544 106.194C878.37 106.052 878.206 105.853 878.052 105.597C877.898 105.342 877.799 105.105 877.755 104.886C877.71 104.666 877.721 104.472 877.785 104.303C877.85 104.133 877.968 103.996 878.14 103.893C878.312 103.789 878.487 103.748 878.667 103.77C878.847 103.791 879.024 103.873 879.198 104.015C879.372 104.156 879.535 104.353 879.689 104.608C879.844 104.864 879.943 105.102 879.988 105.322C880.033 105.541 880.023 105.735 879.958 105.903C879.893 106.071 879.774 106.207 879.601 106.312ZM879.448 106.059C879.62 105.955 879.703 105.792 879.698 105.569C879.693 105.346 879.598 105.081 879.413 104.775C879.29 104.571 879.163 104.41 879.033 104.293C878.904 104.176 878.775 104.104 878.649 104.078C878.523 104.051 878.403 104.072 878.29 104.141C878.12 104.244 878.037 104.408 878.043 104.634C878.048 104.859 878.143 105.124 878.328 105.43C878.451 105.634 878.577 105.794 878.706 105.911C878.835 106.028 878.962 106.099 879.087 106.124C879.214 106.15 879.334 106.128 879.448 106.059ZM880.842 105.519L879.775 103.753L880.037 103.594L880.204 103.87L880.227 103.856C880.207 103.74 880.222 103.631 880.273 103.529C880.323 103.427 880.405 103.341 880.52 103.271C880.637 103.201 880.75 103.169 880.859 103.175C880.969 103.18 881.074 103.216 881.174 103.284L881.193 103.273C881.183 103.155 881.207 103.041 881.265 102.933C881.323 102.824 881.415 102.731 881.541 102.655C881.699 102.559 881.858 102.531 882.018 102.569C882.178 102.607 882.321 102.729 882.446 102.937L883.16 104.119L882.888 104.283L882.175 103.101C882.096 102.97 882.004 102.899 881.899 102.886C881.794 102.873 881.693 102.896 881.596 102.954C881.472 103.029 881.399 103.125 881.376 103.241C881.353 103.357 881.375 103.471 881.444 103.586L882.139 104.736L881.863 104.902L881.132 103.693C881.072 103.592 880.99 103.531 880.888 103.509C880.785 103.486 880.683 103.506 880.58 103.568C880.509 103.61 880.455 103.669 880.416 103.744C880.378 103.818 880.361 103.899 880.363 103.989C880.366 104.077 880.394 104.164 880.446 104.251L881.113 105.355L880.842 105.519ZM883.693 103.797L882.271 101.442L882.556 101.27L883.825 103.372L884.92 102.711L885.073 102.964L883.693 103.797Z" fill="#636363"/>
<rect width="1.07486" height="65.1547" transform="matrix(-0.856038 0.516912 0.516912 0.856038 891.601 97.222)" fill="#636363"/>
<rect width="7.88232" height="1.07486" transform="matrix(-0.856038 0.516912 0.516912 0.856038 897.734 93.5176)" fill="#636363"/>
<rect width="7.88232" height="1.07486" transform="matrix(-0.856038 0.516912 0.516912 0.856038 908.558 111.441)" fill="#636363"/>
<rect width="7.88232" height="1.07486" transform="matrix(-0.856038 0.516912 0.516912 0.856038 912.178 117.437)" fill="#636363"/>
<rect width="7.88232" height="1.07486" transform="matrix(-0.856038 0.516912 0.516912 0.856038 919.764 129.999)" fill="#636363"/>
<rect width="7.88232" height="1.07486" transform="matrix(-0.856038 0.516912 0.516912 0.856038 926.813 141.675)" fill="#636363"/>
<rect width="7.88232" height="1.07486" transform="matrix(-0.856038 0.516912 0.516912 0.856038 930.858 148.373)" fill="#636363"/>
<path d="M899.545 91.0111L900.967 93.366L900.682 93.5382L899.441 91.4822L899.427 91.4906L899.083 92.2195L898.908 91.9297L899.26 91.1833L899.545 91.0111ZM903.3 92.0079C903.134 92.1078 902.968 92.1548 902.801 92.1489C902.634 92.1429 902.477 92.0907 902.33 91.9924C902.183 91.8941 902.056 91.7567 901.95 91.5804C901.841 91.401 901.779 91.2228 901.762 91.0458C901.745 90.8676 901.773 90.7039 901.845 90.5547C901.917 90.4043 902.033 90.2809 902.193 90.1847C902.317 90.1097 902.443 90.0651 902.57 90.0509C902.697 90.0367 902.818 90.0518 902.932 90.0962C903.045 90.1406 903.143 90.2133 903.225 90.3144L902.954 90.4783C902.884 90.4103 902.795 90.3668 902.686 90.3477C902.578 90.3275 902.464 90.3534 902.344 90.4256C902.239 90.4895 902.162 90.5731 902.116 90.6765C902.07 90.7786 902.055 90.8929 902.07 91.0194C902.087 91.1447 902.135 91.274 902.215 91.4074C902.298 91.5438 902.391 91.6497 902.495 91.7249C902.6 91.7997 902.709 91.8413 902.821 91.8496C902.935 91.8574 903.045 91.8289 903.153 91.7641C903.223 91.7215 903.28 91.6706 903.322 91.6113C903.365 91.5521 903.392 91.4874 903.405 91.4174C903.417 91.3473 903.412 91.275 903.39 91.2004L903.661 91.0365C903.709 91.1501 903.727 91.2669 903.717 91.387C903.707 91.5059 903.668 91.6197 903.599 91.7285C903.53 91.8361 903.43 91.9292 903.3 92.0079ZM905.046 89.9179L904.415 88.8738L904.687 88.71L905.753 90.4762L905.482 90.64L905.301 90.3411L905.283 90.3522C905.296 90.4669 905.277 90.582 905.228 90.6976C905.178 90.8125 905.086 90.9102 904.953 90.9907C904.843 91.0574 904.73 91.0925 904.615 91.0961C904.499 91.0988 904.387 91.066 904.279 90.9975C904.17 90.9282 904.071 90.8185 903.98 90.6682L903.302 89.5459L903.574 89.3821L904.24 90.486C904.318 90.6147 904.416 90.6957 904.534 90.7288C904.653 90.7615 904.769 90.7439 904.882 90.6758C904.95 90.6351 905.008 90.5764 905.057 90.4998C905.106 90.4227 905.133 90.3342 905.138 90.2342C905.143 90.1337 905.112 90.0283 905.046 89.9179ZM906.65 90.8384L905.184 88.4098L905.446 88.2515L905.615 88.5321L905.647 88.5127C905.649 88.47 905.653 88.4142 905.659 88.3454C905.666 88.2753 905.692 88.2014 905.736 88.1235C905.78 88.0445 905.86 87.9702 905.975 87.9008C906.123 87.811 906.277 87.769 906.435 87.7749C906.594 87.7807 906.746 87.8327 906.892 87.9307C907.038 88.0287 907.167 88.1705 907.279 88.356C907.392 88.5431 907.458 88.7244 907.477 88.9C907.496 89.0749 907.472 89.2339 907.404 89.3771C907.337 89.5195 907.229 89.6351 907.082 89.724C906.968 89.7925 906.866 89.8286 906.775 89.8322C906.684 89.8351 906.605 89.8235 906.539 89.7974C906.473 89.7706 906.42 89.7471 906.381 89.7269L906.358 89.7408L906.922 90.6745L906.65 90.8384ZM905.984 89.1318C906.064 89.2652 906.155 89.3711 906.256 89.4494C906.356 89.527 906.461 89.5719 906.571 89.584C906.68 89.5954 906.789 89.5682 906.898 89.5025C907.011 89.434 907.088 89.3469 907.128 89.2413C907.168 89.1344 907.176 89.0184 907.153 88.8933C907.13 88.767 907.081 88.641 907.005 88.5153C906.93 88.3911 906.843 88.2907 906.745 88.2142C906.646 88.1365 906.541 88.0916 906.43 88.0797C906.318 88.0665 906.205 88.0946 906.09 88.164C905.979 88.2307 905.903 88.3147 905.862 88.416C905.82 88.5165 905.81 88.6282 905.832 88.751C905.854 88.8731 905.904 89 905.984 89.1318Z" fill="#636363"/>
<path d="M911.546 110.957C911.394 111.049 911.243 111.104 911.092 111.124C910.943 111.143 910.805 111.127 910.679 111.077C910.554 111.025 910.451 110.939 910.37 110.819L910.66 110.644C910.712 110.717 910.778 110.766 910.857 110.794C910.936 110.82 911.021 110.826 911.114 110.811C911.206 110.796 911.298 110.761 911.388 110.707C911.489 110.646 911.568 110.574 911.625 110.491C911.682 110.409 911.714 110.323 911.72 110.233C911.727 110.143 911.705 110.057 911.655 109.974C911.603 109.888 911.535 109.825 911.453 109.785C911.369 109.744 911.275 109.73 911.17 109.742C911.064 109.754 910.952 109.797 910.832 109.869L910.643 109.983L910.491 109.73L910.679 109.616C910.773 109.56 910.845 109.493 910.895 109.417C910.946 109.34 910.973 109.259 910.975 109.174C910.979 109.088 910.956 109.003 910.906 108.921C910.858 108.841 910.798 108.782 910.727 108.744C910.656 108.707 910.579 108.691 910.494 108.697C910.411 108.702 910.326 108.731 910.239 108.783C910.158 108.832 910.09 108.894 910.036 108.967C909.983 109.039 909.95 109.117 909.939 109.2C909.927 109.283 909.942 109.364 909.986 109.445L909.71 109.611C909.64 109.485 909.612 109.355 909.626 109.22C909.639 109.084 909.686 108.956 909.767 108.836C909.849 108.715 909.958 108.614 910.094 108.532C910.239 108.444 910.382 108.398 910.522 108.394C910.662 108.39 910.788 108.418 910.902 108.48C911.016 108.542 911.106 108.629 911.173 108.74C911.254 108.873 911.287 109.007 911.274 109.143C911.261 109.278 911.206 109.399 911.109 109.507L911.12 109.525C911.284 109.46 911.438 109.453 911.583 109.505C911.728 109.555 911.845 109.656 911.936 109.805C912.013 109.933 912.048 110.069 912.039 110.213C912.032 110.356 911.985 110.493 911.901 110.623C911.817 110.754 911.698 110.865 911.546 110.957ZM912.141 107.19L913.084 110.467L912.836 110.617L911.892 107.34L912.141 107.19ZM913.599 109.014L913.458 108.779L913.504 106.517L913.674 106.414L913.894 106.778L913.779 106.847L913.744 108.556L913.755 108.575L915.148 107.733L915.301 107.986L913.599 109.014ZM915 108.827L914.665 108.273L914.599 108.164L913.578 106.472L913.849 106.309L915.271 108.664L915 108.827Z" fill="#636363"/>
<path d="M914.543 117.719L914.418 117.512L914.681 116.192C914.712 116.037 914.735 115.905 914.75 115.796C914.764 115.686 914.766 115.59 914.755 115.508C914.744 115.424 914.717 115.346 914.673 115.274C914.623 115.192 914.56 115.132 914.484 115.096C914.408 115.059 914.326 115.044 914.238 115.052C914.15 115.061 914.063 115.09 913.978 115.142C913.888 115.196 913.82 115.263 913.775 115.341C913.731 115.418 913.71 115.501 913.714 115.59C913.718 115.679 913.747 115.768 913.801 115.857L913.53 116.021C913.447 115.883 913.405 115.743 913.406 115.6C913.407 115.458 913.444 115.324 913.519 115.2C913.594 115.075 913.7 114.971 913.837 114.888C913.975 114.805 914.115 114.76 914.257 114.754C914.399 114.748 914.53 114.776 914.65 114.838C914.77 114.901 914.867 114.992 914.94 115.113C914.992 115.2 915.028 115.294 915.046 115.396C915.065 115.496 915.067 115.62 915.051 115.768C915.036 115.914 915.005 116.101 914.957 116.327L914.77 117.212L914.781 117.23L915.876 116.569L916.028 116.822L914.543 117.719ZM915.852 113.565L916.795 116.843L916.547 116.993L915.603 113.715L915.852 113.565ZM918.473 115.39C918.321 115.482 918.17 115.538 918.02 115.557C917.87 115.576 917.732 115.561 917.607 115.51C917.481 115.458 917.378 115.372 917.297 115.253L917.587 115.078C917.639 115.15 917.705 115.2 917.784 115.227C917.863 115.254 917.949 115.26 918.041 115.245C918.133 115.23 918.225 115.195 918.315 115.14C918.417 115.079 918.496 115.007 918.552 114.925C918.609 114.842 918.641 114.756 918.648 114.667C918.654 114.577 918.632 114.491 918.582 114.408C918.53 114.321 918.463 114.258 918.38 114.218C918.297 114.177 918.202 114.163 918.097 114.175C917.991 114.188 917.879 114.23 917.759 114.302L917.571 114.416L917.418 114.163L917.606 114.049C917.7 113.993 917.772 113.926 917.822 113.85C917.873 113.773 917.9 113.692 917.903 113.607C917.906 113.521 917.883 113.437 917.833 113.354C917.785 113.274 917.725 113.215 917.654 113.178C917.584 113.14 917.506 113.124 917.422 113.13C917.338 113.135 917.253 113.164 917.166 113.217C917.085 113.266 917.018 113.327 916.964 113.4C916.91 113.473 916.877 113.55 916.866 113.634C916.854 113.716 916.87 113.798 916.913 113.878L916.637 114.045C916.567 113.918 916.539 113.788 916.553 113.653C916.566 113.517 916.613 113.39 916.695 113.269C916.777 113.149 916.885 113.047 917.021 112.965C917.167 112.878 917.309 112.832 917.449 112.828C917.589 112.823 917.715 112.852 917.829 112.914C917.943 112.976 918.034 113.062 918.101 113.173C918.181 113.306 918.214 113.44 918.201 113.576C918.188 113.711 918.134 113.833 918.036 113.94L918.048 113.959C918.211 113.893 918.365 113.887 918.511 113.938C918.655 113.989 918.773 114.089 918.863 114.238C918.94 114.366 918.975 114.502 918.967 114.646C918.959 114.789 918.913 114.926 918.828 115.056C918.744 115.187 918.625 115.298 918.473 115.39Z" fill="#636363"/>
<path d="M921.575 127.493L922.997 129.848L922.712 130.02L921.47 127.964L921.456 127.973L921.112 128.701L920.937 128.412L921.29 127.665L921.575 127.493ZM923.022 126.468L923.966 129.746L923.718 129.896L922.774 126.618L923.022 126.468ZM924.828 128.742L924.703 128.535L924.967 127.215C924.998 127.06 925.021 126.928 925.035 126.819C925.049 126.709 925.051 126.613 925.04 126.53C925.029 126.447 925.002 126.369 924.959 126.297C924.909 126.214 924.845 126.155 924.769 126.118C924.693 126.081 924.611 126.067 924.523 126.075C924.435 126.083 924.349 126.113 924.263 126.164C924.173 126.219 924.105 126.286 924.061 126.364C924.016 126.441 923.996 126.524 923.999 126.613C924.003 126.701 924.033 126.79 924.087 126.88L923.815 127.044C923.732 126.906 923.691 126.766 923.691 126.623C923.692 126.48 923.73 126.347 923.804 126.222C923.879 126.097 923.985 125.993 924.123 125.911C924.261 125.827 924.401 125.783 924.542 125.776C924.684 125.77 924.815 125.798 924.935 125.861C925.056 125.923 925.152 126.015 925.225 126.136C925.278 126.223 925.313 126.317 925.332 126.419C925.351 126.519 925.352 126.643 925.337 126.791C925.321 126.937 925.29 127.123 925.243 127.349L925.055 128.235L925.066 128.253L926.161 127.592L926.314 127.845L924.828 128.742Z" fill="#636363"/>
<path d="M928.776 139.419L930.198 141.774L929.913 141.947L928.671 139.891L928.657 139.899L928.313 140.628L928.138 140.338L928.491 139.592L928.776 139.419ZM930.224 138.395L931.167 141.672L930.919 141.822L929.975 138.545L930.224 138.395ZM932.845 140.22C932.693 140.312 932.542 140.367 932.391 140.387C932.242 140.406 932.104 140.39 931.978 140.34C931.853 140.288 931.75 140.202 931.669 140.082L931.959 139.907C932.011 139.98 932.077 140.029 932.156 140.057C932.235 140.084 932.32 140.089 932.413 140.074C932.505 140.059 932.597 140.025 932.687 139.97C932.788 139.909 932.867 139.837 932.924 139.755C932.981 139.672 933.013 139.586 933.019 139.496C933.026 139.407 933.004 139.32 932.954 139.238C932.902 139.151 932.834 139.088 932.752 139.048C932.668 139.007 932.574 138.993 932.469 139.005C932.363 139.018 932.251 139.06 932.131 139.132L931.942 139.246L931.79 138.993L931.978 138.879C932.072 138.823 932.144 138.756 932.194 138.68C932.245 138.603 932.272 138.522 932.274 138.437C932.278 138.351 932.255 138.266 932.205 138.184C932.157 138.104 932.097 138.045 932.026 138.007C931.955 137.97 931.878 137.954 931.793 137.96C931.71 137.965 931.625 137.994 931.538 138.046C931.457 138.095 931.389 138.157 931.335 138.23C931.282 138.302 931.249 138.38 931.238 138.463C931.226 138.546 931.241 138.627 931.285 138.708L931.009 138.874C930.939 138.748 930.911 138.618 930.925 138.483C930.938 138.347 930.985 138.219 931.066 138.099C931.148 137.978 931.257 137.877 931.393 137.795C931.538 137.707 931.681 137.661 931.821 137.657C931.961 137.653 932.087 137.681 932.201 137.743C932.315 137.805 932.405 137.892 932.472 138.003C932.553 138.136 932.586 138.27 932.573 138.406C932.56 138.541 932.505 138.662 932.408 138.77L932.419 138.788C932.583 138.723 932.737 138.716 932.882 138.768C933.027 138.819 933.144 138.919 933.235 139.068C933.312 139.196 933.347 139.332 933.338 139.476C933.331 139.619 933.284 139.756 933.2 139.886C933.116 140.017 932.997 140.128 932.845 140.22Z" fill="#636363"/>
<path d="M932.589 145.734L934.011 148.088L933.726 148.261L932.485 146.205L932.471 146.213L932.127 146.942L931.952 146.652L932.304 145.906L932.589 145.734ZM934.037 144.709L934.981 147.986L934.732 148.136L933.789 144.859L934.037 144.709ZM935.496 146.533L935.354 146.298L935.401 144.036L935.571 143.933L935.79 144.297L935.675 144.366L935.64 146.075L935.651 146.094L937.045 145.252L937.198 145.505L935.496 146.533ZM936.896 146.347L936.561 145.792L936.495 145.683L935.474 143.992L935.745 143.828L937.167 146.183L936.896 146.347Z" fill="#636363"/>
<path d="M967.189 139.657L963.21 124.348C960.934 117.585 970.836 136.977 969.3 140.776C968.686 142.296 963.798 150.162 961.113 153.378L967.189 139.657Z" fill="#E9FAFE"/>
<path d="M887.274 190.202L883.336 187.201C877.872 182.229 885.469 191.172 887.566 192.068C889.074 192.711 893.267 192.409 897.403 191.738L887.274 190.202Z" fill="#E9FAFE"/>
<path d="M428.586 77.4658C426.726 57.7143 431.714 43.2804 434.4 37.7595C437.272 38.2133 444.917 40.0696 452.517 43.8647C462.017 48.6087 465.422 49.7836 471.688 57.9544C476.701 64.4911 477.399 74.5308 477.121 78.7336C474.789 87.1906 450.054 89.0795 437.979 88.9668C442.094 122.481 410.579 132.269 397.219 140.408C386.531 146.919 375.329 151.465 371.064 152.924C368.472 146.168 363.691 143.15 361.624 142.486C369.756 128.83 387.397 98.8866 392.905 88.3603C398.413 77.8339 418.961 76.1961 428.586 77.4658Z" fill="#F7D0DA"/>
<path d="M428.278 76.977C426.418 57.2256 431.713 43.2805 434.4 37.7596C437.272 38.2134 444.916 40.0697 452.517 43.8648C462.017 48.6088 465.422 49.7837 471.688 57.9545C476.701 64.4912 477.399 74.5309 477.121 78.7337C474.788 87.1907 447.448 90.9635 438.945 89.0333C438.09 88.8392 431.447 81.4665 431.447 81.4665C431.447 81.4665 428.398 78.2613 428.278 76.977Z" fill="#FFF2F6"/>
<g filter="url(#filter12_ii_4343_6877)">
<path d="M428.984 77.5565C436.223 64.1199 438.376 58.3255 440.928 52.6213C442.947 48.1079 444.916 40.0698 452.517 43.865C462.017 48.6089 465.422 49.7839 471.688 57.9547C476.701 64.4913 467.854 67.6056 462.297 69.2011C456.741 70.7966 454.44 72.4439 443.523 76.2491C440.774 77.2072 426.614 82.3804 428.984 77.5565Z" fill="#FFF2F6"/>
</g>
<g filter="url(#filter13_ii_4343_6877)">
<path d="M434.237 82.0999C446.911 81.6258 456.452 78.3462 461.956 76.2445C466.232 74.6118 468.528 73.1283 475.498 70.103C476.336 69.7393 476.91 71.2617 476.947 72.9455C477.106 80.251 474.268 79.9524 468.711 81.548C463.154 83.1435 457.577 84.4135 447.871 84.7762C441.534 85.0129 432.137 85.8119 434.237 82.0999Z" fill="#FFF2F6"/>
</g>
<path d="M353.211 156.699C353.667 153.033 358.39 145.914 361.624 142.487C367.072 144.367 370.23 150.39 371.064 152.926C364.238 157.946 359.404 158.943 356.096 159.676C355.499 159.54 353.172 157.016 353.211 156.699Z" fill="url(#paint10_linear_4343_6877)"/>
<path d="M413.452 89.8719C416.132 89.2574 426.907 84.8867 430.091 80.3517C430.574 79.2908 430.136 77.3832 428.561 78.7994C425.089 81.9213 422.498 81.2504 415.931 83.3896C411.139 84.9507 405.677 91.6541 413.452 89.8719Z" fill="url(#paint11_linear_4343_6877)"/>
<path d="M422.085 98.5065C422.642 95.8132 426.783 84.9479 431.249 81.6685C432.299 81.1629 434.216 81.5604 432.833 83.1652C429.786 86.7027 430.512 89.2788 428.513 95.8897C427.055 100.714 420.469 106.317 422.085 98.5065Z" fill="url(#paint12_linear_4343_6877)"/>
<path d="M434.245 105.549C435.42 103.062 438.65 91.8926 437.056 86.5861C436.521 85.5502 434.751 84.7147 434.889 86.8283C435.195 91.4872 433.065 93.1082 430.684 99.5913C428.947 104.323 430.836 112.76 434.245 105.549Z" fill="url(#paint13_linear_4343_6877)"/>
<path d="M427.97 76.4883C430.716 79.3302 436.798 85.9953 439.163 89.9204" stroke="#E98888" stroke-width="1.63398"/>
<path d="M1206.53 129.311C1182.18 115.946 1174.97 108.52 1174.41 106.478L1139.75 174.041C1142.12 177.841 1151.32 188.003 1169.21 198.246C1187.1 208.488 1207.12 214.586 1214.9 216.354L1251.16 148.235C1247.15 148.288 1236.96 146.018 1206.53 129.311Z" fill="url(#paint14_linear_4343_6877)"/>
<path d="M1216.33 122.765C1190.3 109.128 1177.67 106.225 1174.5 106.471C1174.44 106.476 1174.38 106.486 1174.32 106.509C1172.75 107.126 1176.19 112.036 1202.22 127.23C1226.31 141.289 1243.11 146.53 1250.13 147.718C1250.99 147.862 1251.55 147.076 1251.02 146.386C1248.16 142.603 1238.73 134.503 1216.33 122.765Z" fill="#404040" stroke="#EEE7E7" stroke-width="3.58646"/>
<path d="M1162.93 127.484C1162.24 124.498 1164.21 123.902 1165.28 123.977C1182.06 138.726 1213.3 156.491 1241.75 164.936C1243.73 168.545 1240.83 169.136 1239.13 168.98C1204.26 160.086 1163.78 131.215 1162.93 127.484Z" fill="url(#paint15_linear_4343_6877)"/>
<path d="M1148.38 151.476C1147.62 148.555 1149.6 148.024 1150.69 148.123C1168.02 162.887 1200.09 180.942 1229.09 189.863C1231.18 193.423 1228.26 193.926 1226.54 193.733C1191.03 184.216 1149.34 155.127 1148.38 151.476Z" fill="url(#paint16_linear_4343_6877)"/>
<path d="M1211.47 200.092C1212.07 204.807 1214.83 211.543 1221.11 200.766C1219.81 204.305 1218.78 211.769 1224.21 214.881L1225.31 215.414C1224.92 215.255 1224.55 215.077 1224.21 214.881L1208.63 207.348L1211.47 200.092Z" fill="#7B7B7B"/>
<path d="M1235.75 159.51L1237.58 152.961L1246.99 156.239C1247.54 156.355 1248.18 156.615 1248.98 156.934L1252.36 158.111C1250.96 157.725 1249.87 157.292 1248.98 156.934L1246.99 156.239C1245.27 155.882 1244.32 156.885 1241.98 161.724C1245.93 153.543 1236.66 156.236 1235.75 159.51Z" fill="#9A9797"/>
<path d="M1211.72 199.593C1211.8 199.385 1211.89 199.192 1211.99 199.016L1211.72 199.593C1210.53 202.474 1210.88 208.269 1217.5 210.973C1221.94 212.786 1241.51 227.23 1249.16 219.643C1256.81 212.056 1276.07 172.234 1269.33 168.313C1263.95 165.176 1245.92 156.771 1237.58 152.961C1239.01 152.764 1242.55 152.574 1245.34 153.393C1248.83 154.416 1277.07 167.408 1280.86 170.566C1284.64 173.724 1262.41 230.695 1252.24 229.761C1242.07 228.827 1213.53 213.699 1207.05 209.24L1211.72 199.593Z" fill="url(#paint17_linear_4343_6877)"/>
<path d="M147.901 258L272.999 294.42L266.109 318.088C256.052 352.633 219.895 372.484 185.35 362.427V362.427C150.805 352.37 130.954 316.213 141.011 281.668L147.901 258Z" fill="#CFE6EC"/>
<rect x="160.274" y="348.162" width="56.1256" height="9.55281" transform="rotate(16.2319 160.274 348.162)" fill="#C2DAE0"/>
<path opacity="0.7" d="M158.292 268.881L176.503 274.183C164.34 303.36 169.202 329.313 177.036 342.148L160.386 337.301C144.712 319.017 152.284 282.083 158.292 268.881Z" fill="url(#paint18_linear_4343_6877)" fill-opacity="0.9"/>
<path d="M153.886 332.449C137.804 313.99 146.71 280.489 152.885 267.038L164.336 270.372C162.808 271.093 158.813 270.917 156.63 271.627C154.759 272.235 153.471 275.281 152.887 276.726C142.381 302.729 149.204 325.256 153.886 332.449Z" fill="#BADFE8"/>
<path d="M255.663 298.843L241.816 294.812C235.394 326.451 223.124 342.065 212.113 349.669L224.773 353.355C243.261 344.685 253.07 313.401 255.663 298.843Z" fill="url(#paint19_linear_4343_6877)" fill-opacity="0.9"/>
<path d="M264.812 301.507L257.785 299.461C254.485 336.98 237.302 346.867 229.622 354.498C252.741 347.236 262.715 316.144 264.812 301.507Z" fill="#FBFFFF" fill-opacity="0.9"/>
<g filter="url(#filter14_ii_4343_6877)">
<rect x="1083.18" y="316.368" width="10.9257" height="95.145" transform="rotate(-54.5244 1083.18 316.368)" fill="#B59573"/>
</g>
<g filter="url(#filter15_i_4343_6877)">
<path d="M1047.32 312.057C1032.51 301.498 1029.06 280.929 1039.62 266.113L1042.14 262.572C1044.78 258.869 1049.92 258.006 1053.62 260.645L1092.86 288.603C1096.56 291.243 1097.42 296.385 1094.78 300.089L1077.92 323.749C1075.28 327.453 1070.14 328.316 1066.44 325.676L1047.32 312.057Z" fill="#2F5C7B"/>
</g>
<g filter="url(#filter16_ii_4343_6877)">
<path d="M1049.26 294.188C1047.05 292.617 1046.54 289.556 1048.11 287.351L1050.39 284.154C1051.96 281.949 1055.02 281.436 1057.23 283.007L1090.31 306.582L1082.34 317.763L1049.26 294.188Z" fill="#2F5C7B"/>
</g>
<defs>
<filter id="filter0_ii_4343_6877" x="161.309" y="151.725" width="27.1903" height="32.6509" filterUnits="userSpaceOnUse" color-interpolation-filters="sRGB">
<feFlood flood-opacity="0" result="BackgroundImageFix"/>
<feBlend mode="normal" in="SourceGraphic" in2="BackgroundImageFix" result="shape"/>
<feColorMatrix in="SourceAlpha" type="matrix" values="0 0 0 0 0 0 0 0 0 0 0 0 0 0 0 0 0 0 127 0" result="hardAlpha"/>
<feOffset dx="0.816991" dy="-1.63398"/>
<feGaussianBlur stdDeviation="0.408495"/>
<feComposite in2="hardAlpha" operator="arithmetic" k2="-1" k3="1"/>
<feColorMatrix type="matrix" values="0 0 0 0 0.848486 0 0 0 0 0.848486 0 0 0 0 0.848486 0 0 0 1 0"/>
<feBlend mode="normal" in2="shape" result="effect1_innerShadow_4343_6877"/>
<feColorMatrix in="SourceAlpha" type="matrix" values="0 0 0 0 0 0 0 0 0 0 0 0 0 0 0 0 0 0 127 0" result="hardAlpha"/>
<feOffset dx="-0.408495" dy="1.63398"/>
<feGaussianBlur stdDeviation="0.408495"/>
<feComposite in2="hardAlpha" operator="arithmetic" k2="-1" k3="1"/>
<feColorMatrix type="matrix" values="0 0 0 0 0.721549 0 0 0 0 0.721549 0 0 0 0 0.721549 0 0 0 1 0"/>
<feBlend mode="normal" in2="effect1_innerShadow_4343_6877" result="effect2_innerShadow_4343_6877"/>
</filter>
<filter id="filter1_iii_4343_6877" x="165.342" y="150.25" width="29.0021" height="35.0774" filterUnits="userSpaceOnUse" color-interpolation-filters="sRGB">
<feFlood flood-opacity="0" result="BackgroundImageFix"/>
<feBlend mode="normal" in="SourceGraphic" in2="BackgroundImageFix" result="shape"/>
<feColorMatrix in="SourceAlpha" type="matrix" values="0 0 0 0 0 0 0 0 0 0 0 0 0 0 0 0 0 0 127 0" result="hardAlpha"/>
<feOffset dx="0.816991" dy="-0.816991"/>
<feGaussianBlur stdDeviation="0.408495"/>
<feComposite in2="hardAlpha" operator="arithmetic" k2="-1" k3="1"/>
<feColorMatrix type="matrix" values="0 0 0 0 0.858057 0 0 0 0 0.858057 0 0 0 0 0.858057 0 0 0 1 0"/>
<feBlend mode="normal" in2="shape" result="effect1_innerShadow_4343_6877"/>
<feColorMatrix in="SourceAlpha" type="matrix" values="0 0 0 0 0 0 0 0 0 0 0 0 0 0 0 0 0 0 127 0" result="hardAlpha"/>
<feOffset dx="-0.816991" dy="0.816991"/>
<feGaussianBlur stdDeviation="0.408495"/>
<feComposite in2="hardAlpha" operator="arithmetic" k2="-1" k3="1"/>
<feColorMatrix type="matrix" values="0 0 0 0 0.716162 0 0 0 0 0.716162 0 0 0 0 0.716162 0 0 0 1 0"/>
<feBlend mode="normal" in2="effect1_innerShadow_4343_6877" result="effect2_innerShadow_4343_6877"/>
<feColorMatrix in="SourceAlpha" type="matrix" values="0 0 0 0 0 0 0 0 0 0 0 0 0 0 0 0 0 0 127 0" result="hardAlpha"/>
<feOffset dy="-1.63398"/>
<feGaussianBlur stdDeviation="0.816991"/>
<feComposite in2="hardAlpha" operator="arithmetic" k2="-1" k3="1"/>
<feColorMatrix type="matrix" values="0 0 0 0 0.862402 0 0 0 0 0.862402 0 0 0 0 0.862402 0 0 0 1 0"/>
<feBlend mode="normal" in2="effect2_innerShadow_4343_6877" result="effect3_innerShadow_4343_6877"/>
</filter>
<filter id="filter2_iii_4343_6877" x="157.307" y="154.465" width="20.2014" height="36.1354" filterUnits="userSpaceOnUse" color-interpolation-filters="sRGB">
<feFlood flood-opacity="0" result="BackgroundImageFix"/>
<feBlend mode="normal" in="SourceGraphic" in2="BackgroundImageFix" result="shape"/>
<feColorMatrix in="SourceAlpha" type="matrix" values="0 0 0 0 0 0 0 0 0 0 0 0 0 0 0 0 0 0 127 0" result="hardAlpha"/>
<feOffset dx="0.816991" dy="-0.816991"/>
<feGaussianBlur stdDeviation="0.408495"/>
<feComposite in2="hardAlpha" operator="arithmetic" k2="-1" k3="1"/>
<feColorMatrix type="matrix" values="0 0 0 0 0.735742 0 0 0 0 0.735742 0 0 0 0 0.735742 0 0 0 1 0"/>
<feBlend mode="normal" in2="shape" result="effect1_innerShadow_4343_6877"/>
<feColorMatrix in="SourceAlpha" type="matrix" values="0 0 0 0 0 0 0 0 0 0 0 0 0 0 0 0 0 0 127 0" result="hardAlpha"/>
<feOffset dx="-0.816991" dy="0.816991"/>
<feGaussianBlur stdDeviation="0.408495"/>
<feComposite in2="hardAlpha" operator="arithmetic" k2="-1" k3="1"/>
<feColorMatrix type="matrix" values="0 0 0 0 0.716162 0 0 0 0 0.716162 0 0 0 0 0.716162 0 0 0 1 0"/>
<feBlend mode="normal" in2="effect1_innerShadow_4343_6877" result="effect2_innerShadow_4343_6877"/>
<feColorMatrix in="SourceAlpha" type="matrix" values="0 0 0 0 0 0 0 0 0 0 0 0 0 0 0 0 0 0 127 0" result="hardAlpha"/>
<feOffset dy="-1.63398"/>
<feGaussianBlur stdDeviation="0.816991"/>
<feComposite in2="hardAlpha" operator="arithmetic" k2="-1" k3="1"/>
<feColorMatrix type="matrix" values="0 0 0 0 0.652588 0 0 0 0 0.652588 0 0 0 0 0.652588 0 0 0 1 0"/>
<feBlend mode="normal" in2="effect2_innerShadow_4343_6877" result="effect3_innerShadow_4343_6877"/>
</filter>
<filter id="filter3_ii_4343_6877" x="140.66" y="122.098" width="20.892" height="26.3238" filterUnits="userSpaceOnUse" color-interpolation-filters="sRGB">
<feFlood flood-opacity="0" result="BackgroundImageFix"/>
<feBlend mode="normal" in="SourceGraphic" in2="BackgroundImageFix" result="shape"/>
<feColorMatrix in="SourceAlpha" type="matrix" values="0 0 0 0 0 0 0 0 0 0 0 0 0 0 0 0 0 0 127 0" result="hardAlpha"/>
<feOffset dx="-1.63398"/>
<feGaussianBlur stdDeviation="0.816991"/>
<feComposite in2="hardAlpha" operator="arithmetic" k2="-1" k3="1"/>
<feColorMatrix type="matrix" values="0 0 0 0 0.609635 0 0 0 0 0.609635 0 0 0 0 0.609635 0 0 0 1 0"/>
<feBlend mode="normal" in2="shape" result="effect1_innerShadow_4343_6877"/>
<feColorMatrix in="SourceAlpha" type="matrix" values="0 0 0 0 0 0 0 0 0 0 0 0 0 0 0 0 0 0 127 0" result="hardAlpha"/>
<feOffset dx="1.63398"/>
<feGaussianBlur stdDeviation="1.63398"/>
<feComposite in2="hardAlpha" operator="arithmetic" k2="-1" k3="1"/>
<feColorMatrix type="matrix" values="0 0 0 0 0.413037 0 0 0 0 0.413037 0 0 0 0 0.413037 0 0 0 1 0"/>
<feBlend mode="normal" in2="effect1_innerShadow_4343_6877" result="effect2_innerShadow_4343_6877"/>
</filter>
<filter id="filter4_ii_4343_6877" x="162.531" y="155.528" width="17.6493" height="38.3307" filterUnits="userSpaceOnUse" color-interpolation-filters="sRGB">
<feFlood flood-opacity="0" result="BackgroundImageFix"/>
<feBlend mode="normal" in="SourceGraphic" in2="BackgroundImageFix" result="shape"/>
<feColorMatrix in="SourceAlpha" type="matrix" values="0 0 0 0 0 0 0 0 0 0 0 0 0 0 0 0 0 0 127 0" result="hardAlpha"/>
<feOffset dx="0.816991" dy="-1.63398"/>
<feGaussianBlur stdDeviation="0.408495"/>
<feComposite in2="hardAlpha" operator="arithmetic" k2="-1" k3="1"/>
<feColorMatrix type="matrix" values="0 0 0 0 0.858057 0 0 0 0 0.858057 0 0 0 0 0.858057 0 0 0 1 0"/>
<feBlend mode="normal" in2="shape" result="effect1_innerShadow_4343_6877"/>
<feColorMatrix in="SourceAlpha" type="matrix" values="0 0 0 0 0 0 0 0 0 0 0 0 0 0 0 0 0 0 127 0" result="hardAlpha"/>
<feOffset dx="-0.408495" dy="1.63398"/>
<feGaussianBlur stdDeviation="0.408495"/>
<feComposite in2="hardAlpha" operator="arithmetic" k2="-1" k3="1"/>
<feColorMatrix type="matrix" values="0 0 0 0 0.854915 0 0 0 0 0.854915 0 0 0 0 0.854915 0 0 0 1 0"/>
<feBlend mode="normal" in2="effect1_innerShadow_4343_6877" result="effect2_innerShadow_4343_6877"/>
</filter>
<filter id="filter5_ii_4343_6877" x="159.2" y="160.086" width="17.6493" height="38.3307" filterUnits="userSpaceOnUse" color-interpolation-filters="sRGB">
<feFlood flood-opacity="0" result="BackgroundImageFix"/>
<feBlend mode="normal" in="SourceGraphic" in2="BackgroundImageFix" result="shape"/>
<feColorMatrix in="SourceAlpha" type="matrix" values="0 0 0 0 0 0 0 0 0 0 0 0 0 0 0 0 0 0 127 0" result="hardAlpha"/>
<feOffset dx="0.816991" dy="-1.63398"/>
<feGaussianBlur stdDeviation="0.408495"/>
<feComposite in2="hardAlpha" operator="arithmetic" k2="-1" k3="1"/>
<feColorMatrix type="matrix" values="0 0 0 0 0.602051 0 0 0 0 0.602051 0 0 0 0 0.602051 0 0 0 1 0"/>
<feBlend mode="normal" in2="shape" result="effect1_innerShadow_4343_6877"/>
<feColorMatrix in="SourceAlpha" type="matrix" values="0 0 0 0 0 0 0 0 0 0 0 0 0 0 0 0 0 0 127 0" result="hardAlpha"/>
<feOffset dx="-0.408495" dy="1.63398"/>
<feGaussianBlur stdDeviation="0.408495"/>
<feComposite in2="hardAlpha" operator="arithmetic" k2="-1" k3="1"/>
<feColorMatrix type="matrix" values="0 0 0 0 0.617773 0 0 0 0 0.617773 0 0 0 0 0.617773 0 0 0 1 0"/>
<feBlend mode="normal" in2="effect1_innerShadow_4343_6877" result="effect2_innerShadow_4343_6877"/>
</filter>
<filter id="filter6_iii_4343_6877" x="154.764" y="162.933" width="20.1936" height="41.0724" filterUnits="userSpaceOnUse" color-interpolation-filters="sRGB">
<feFlood flood-opacity="0" result="BackgroundImageFix"/>
<feBlend mode="normal" in="SourceGraphic" in2="BackgroundImageFix" result="shape"/>
<feColorMatrix in="SourceAlpha" type="matrix" values="0 0 0 0 0 0 0 0 0 0 0 0 0 0 0 0 0 0 127 0" result="hardAlpha"/>
<feOffset dx="0.816991" dy="-0.816991"/>
<feGaussianBlur stdDeviation="0.408495"/>
<feComposite in2="hardAlpha" operator="arithmetic" k2="-1" k3="1"/>
<feColorMatrix type="matrix" values="0 0 0 0 0.858057 0 0 0 0 0.858057 0 0 0 0 0.858057 0 0 0 1 0"/>
<feBlend mode="normal" in2="shape" result="effect1_innerShadow_4343_6877"/>
<feColorMatrix in="SourceAlpha" type="matrix" values="0 0 0 0 0 0 0 0 0 0 0 0 0 0 0 0 0 0 127 0" result="hardAlpha"/>
<feOffset dx="-0.816991" dy="0.816991"/>
<feGaussianBlur stdDeviation="0.408495"/>
<feComposite in2="hardAlpha" operator="arithmetic" k2="-1" k3="1"/>
<feColorMatrix type="matrix" values="0 0 0 0 0.716162 0 0 0 0 0.716162 0 0 0 0 0.716162 0 0 0 1 0"/>
<feBlend mode="normal" in2="effect1_innerShadow_4343_6877" result="effect2_innerShadow_4343_6877"/>
<feColorMatrix in="SourceAlpha" type="matrix" values="0 0 0 0 0 0 0 0 0 0 0 0 0 0 0 0 0 0 127 0" result="hardAlpha"/>
<feOffset dy="-1.63398"/>
<feGaussianBlur stdDeviation="0.816991"/>
<feComposite in2="hardAlpha" operator="arithmetic" k2="-1" k3="1"/>
<feColorMatrix type="matrix" values="0 0 0 0 0.862402 0 0 0 0 0.862402 0 0 0 0 0.862402 0 0 0 1 0"/>
<feBlend mode="normal" in2="effect2_innerShadow_4343_6877" result="effect3_innerShadow_4343_6877"/>
</filter>
<filter id="filter7_iii_4343_6877" x="163.065" y="157.925" width="24.4465" height="33.6894" filterUnits="userSpaceOnUse" color-interpolation-filters="sRGB">
<feFlood flood-opacity="0" result="BackgroundImageFix"/>
<feBlend mode="normal" in="SourceGraphic" in2="BackgroundImageFix" result="shape"/>
<feColorMatrix in="SourceAlpha" type="matrix" values="0 0 0 0 0 0 0 0 0 0 0 0 0 0 0 0 0 0 127 0" result="hardAlpha"/>
<feOffset dx="0.816991" dy="-0.816991"/>
<feGaussianBlur stdDeviation="0.408495"/>
<feComposite in2="hardAlpha" operator="arithmetic" k2="-1" k3="1"/>
<feColorMatrix type="matrix" values="0 0 0 0 0.735742 0 0 0 0 0.735742 0 0 0 0 0.735742 0 0 0 1 0"/>
<feBlend mode="normal" in2="shape" result="effect1_innerShadow_4343_6877"/>
<feColorMatrix in="SourceAlpha" type="matrix" values="0 0 0 0 0 0 0 0 0 0 0 0 0 0 0 0 0 0 127 0" result="hardAlpha"/>
<feOffset dx="-0.816991" dy="0.816991"/>
<feGaussianBlur stdDeviation="0.408495"/>
<feComposite in2="hardAlpha" operator="arithmetic" k2="-1" k3="1"/>
<feColorMatrix type="matrix" values="0 0 0 0 0.716162 0 0 0 0 0.716162 0 0 0 0 0.716162 0 0 0 1 0"/>
<feBlend mode="normal" in2="effect1_innerShadow_4343_6877" result="effect2_innerShadow_4343_6877"/>
<feColorMatrix in="SourceAlpha" type="matrix" values="0 0 0 0 0 0 0 0 0 0 0 0 0 0 0 0 0 0 127 0" result="hardAlpha"/>
<feOffset dy="-1.63398"/>
<feGaussianBlur stdDeviation="0.816991"/>
<feComposite in2="hardAlpha" operator="arithmetic" k2="-1" k3="1"/>
<feColorMatrix type="matrix" values="0 0 0 0 0.652588 0 0 0 0 0.652588 0 0 0 0 0.652588 0 0 0 1 0"/>
<feBlend mode="normal" in2="effect2_innerShadow_4343_6877" result="effect3_innerShadow_4343_6877"/>
</filter>
<filter id="filter8_ii_4343_6877" x="139.413" y="129.872" width="20.892" height="26.3238" filterUnits="userSpaceOnUse" color-interpolation-filters="sRGB">
<feFlood flood-opacity="0" result="BackgroundImageFix"/>
<feBlend mode="normal" in="SourceGraphic" in2="BackgroundImageFix" result="shape"/>
<feColorMatrix in="SourceAlpha" type="matrix" values="0 0 0 0 0 0 0 0 0 0 0 0 0 0 0 0 0 0 127 0" result="hardAlpha"/>
<feOffset dx="-1.63398"/>
<feGaussianBlur stdDeviation="0.816991"/>
<feComposite in2="hardAlpha" operator="arithmetic" k2="-1" k3="1"/>
<feColorMatrix type="matrix" values="0 0 0 0 0.609635 0 0 0 0 0.609635 0 0 0 0 0.609635 0 0 0 1 0"/>
<feBlend mode="normal" in2="shape" result="effect1_innerShadow_4343_6877"/>
<feColorMatrix in="SourceAlpha" type="matrix" values="0 0 0 0 0 0 0 0 0 0 0 0 0 0 0 0 0 0 127 0" result="hardAlpha"/>
<feOffset dx="1.63398"/>
<feGaussianBlur stdDeviation="1.63398"/>
<feComposite in2="hardAlpha" operator="arithmetic" k2="-1" k3="1"/>
<feColorMatrix type="matrix" values="0 0 0 0 0.413037 0 0 0 0 0.413037 0 0 0 0 0.413037 0 0 0 1 0"/>
<feBlend mode="normal" in2="effect1_innerShadow_4343_6877" result="effect2_innerShadow_4343_6877"/>
</filter>
<filter id="filter9_ii_4343_6877" x="161.926" y="162.846" width="27.1903" height="32.6509" filterUnits="userSpaceOnUse" color-interpolation-filters="sRGB">
<feFlood flood-opacity="0" result="BackgroundImageFix"/>
<feBlend mode="normal" in="SourceGraphic" in2="BackgroundImageFix" result="shape"/>
<feColorMatrix in="SourceAlpha" type="matrix" values="0 0 0 0 0 0 0 0 0 0 0 0 0 0 0 0 0 0 127 0" result="hardAlpha"/>
<feOffset dx="0.816991" dy="-1.63398"/>
<feGaussianBlur stdDeviation="0.408495"/>
<feComposite in2="hardAlpha" operator="arithmetic" k2="-1" k3="1"/>
<feColorMatrix type="matrix" values="0 0 0 0 0.858057 0 0 0 0 0.858057 0 0 0 0 0.858057 0 0 0 1 0"/>
<feBlend mode="normal" in2="shape" result="effect1_innerShadow_4343_6877"/>
<feColorMatrix in="SourceAlpha" type="matrix" values="0 0 0 0 0 0 0 0 0 0 0 0 0 0 0 0 0 0 127 0" result="hardAlpha"/>
<feOffset dx="-0.408495" dy="1.63398"/>
<feGaussianBlur stdDeviation="0.408495"/>
<feComposite in2="hardAlpha" operator="arithmetic" k2="-1" k3="1"/>
<feColorMatrix type="matrix" values="0 0 0 0 0.854915 0 0 0 0 0.854915 0 0 0 0 0.854915 0 0 0 1 0"/>
<feBlend mode="normal" in2="effect1_innerShadow_4343_6877" result="effect2_innerShadow_4343_6877"/>
</filter>
<filter id="filter10_bi_4343_6877" x="787.747" y="31.4433" width="194.188" height="171.946" filterUnits="userSpaceOnUse" color-interpolation-filters="sRGB">
<feFlood flood-opacity="0" result="BackgroundImageFix"/>
<feGaussianBlur in="BackgroundImageFix" stdDeviation="4.0568"/>
<feComposite in2="SourceAlpha" operator="in" result="effect1_backgroundBlur_4343_6877"/>
<feBlend mode="normal" in="SourceGraphic" in2="effect1_backgroundBlur_4343_6877" result="shape"/>
<feColorMatrix in="SourceAlpha" type="matrix" values="0 0 0 0 0 0 0 0 0 0 0 0 0 0 0 0 0 0 127 0" result="hardAlpha"/>
<feOffset dy="1.63911"/>
<feGaussianBlur stdDeviation="1.63911"/>
<feComposite in2="hardAlpha" operator="arithmetic" k2="-1" k3="1"/>
<feColorMatrix type="matrix" values="0 0 0 0 0.74902 0 0 0 0 0.921569 0 0 0 0 0.960784 0 0 0 1 0"/>
<feBlend mode="normal" in2="shape" result="effect2_innerShadow_4343_6877"/>
</filter>
<filter id="filter11_f_4343_6877" x="891.638" y="146.519" width="70.8696" height="45.2549" filterUnits="userSpaceOnUse" color-interpolation-filters="sRGB">
<feFlood flood-opacity="0" result="BackgroundImageFix"/>
<feBlend mode="normal" in="SourceGraphic" in2="BackgroundImageFix" result="shape"/>
<feGaussianBlur stdDeviation="0.409778" result="effect1_foregroundBlur_4343_6877"/>
</filter>
<filter id="filter12_ii_4343_6877" x="427.084" y="42.8761" width="47.7221" height="36.7079" filterUnits="userSpaceOnUse" color-interpolation-filters="sRGB">
<feFlood flood-opacity="0" result="BackgroundImageFix"/>
<feBlend mode="normal" in="SourceGraphic" in2="BackgroundImageFix" result="shape"/>
<feColorMatrix in="SourceAlpha" type="matrix" values="0 0 0 0 0 0 0 0 0 0 0 0 0 0 0 0 0 0 127 0" result="hardAlpha"/>
<feOffset dx="-1.63398"/>
<feGaussianBlur stdDeviation="1.63398"/>
<feComposite in2="hardAlpha" operator="arithmetic" k2="-1" k3="1"/>
<feColorMatrix type="matrix" values="0 0 0 0 0.960784 0 0 0 0 0.909804 0 0 0 0 0.921569 0 0 0 1 0"/>
<feBlend mode="normal" in2="shape" result="effect1_innerShadow_4343_6877"/>
<feColorMatrix in="SourceAlpha" type="matrix" values="0 0 0 0 0 0 0 0 0 0 0 0 0 0 0 0 0 0 127 0" result="hardAlpha"/>
<feOffset dx="1.63398"/>
<feGaussianBlur stdDeviation="1.63398"/>
<feComposite in2="hardAlpha" operator="arithmetic" k2="-1" k3="1"/>
<feColorMatrix type="matrix" values="0 0 0 0 0.960784 0 0 0 0 0.909804 0 0 0 0 0.921569 0 0 0 1 0"/>
<feBlend mode="normal" in2="effect1_innerShadow_4343_6877" result="effect2_innerShadow_4343_6877"/>
</filter>
<filter id="filter13_ii_4343_6877" x="432.304" y="70.0487" width="45.4666" height="14.9652" filterUnits="userSpaceOnUse" color-interpolation-filters="sRGB">
<feFlood flood-opacity="0" result="BackgroundImageFix"/>
<feBlend mode="normal" in="SourceGraphic" in2="BackgroundImageFix" result="shape"/>
<feColorMatrix in="SourceAlpha" type="matrix" values="0 0 0 0 0 0 0 0 0 0 0 0 0 0 0 0 0 0 127 0" result="hardAlpha"/>
<feOffset dx="-1.63398"/>
<feGaussianBlur stdDeviation="0.816991"/>
<feComposite in2="hardAlpha" operator="arithmetic" k2="-1" k3="1"/>
<feColorMatrix type="matrix" values="0 0 0 0 0.960784 0 0 0 0 0.909804 0 0 0 0 0.921569 0 0 0 1 0"/>
<feBlend mode="normal" in2="shape" result="effect1_innerShadow_4343_6877"/>
<feColorMatrix in="SourceAlpha" type="matrix" values="0 0 0 0 0 0 0 0 0 0 0 0 0 0 0 0 0 0 127 0" result="hardAlpha"/>
<feOffset dx="0.816991"/>
<feGaussianBlur stdDeviation="0.816991"/>
<feComposite in2="hardAlpha" operator="arithmetic" k2="-1" k3="1"/>
<feColorMatrix type="matrix" values="0 0 0 0 0.961279 0 0 0 0 0.910462 0 0 0 0 0.923167 0 0 0 1 0"/>
<feBlend mode="normal" in2="effect1_innerShadow_4343_6877" result="effect2_innerShadow_4343_6877"/>
</filter>
<filter id="filter14_ii_4343_6877" x="1081.55" y="307.471" width="88.7252" height="64.1156" filterUnits="userSpaceOnUse" color-interpolation-filters="sRGB">
<feFlood flood-opacity="0" result="BackgroundImageFix"/>
<feBlend mode="normal" in="SourceGraphic" in2="BackgroundImageFix" result="shape"/>
<feColorMatrix in="SourceAlpha" type="matrix" values="0 0 0 0 0 0 0 0 0 0 0 0 0 0 0 0 0 0 127 0" result="hardAlpha"/>
<feOffset dx="-1.63398"/>
<feGaussianBlur stdDeviation="1.63398"/>
<feComposite in2="hardAlpha" operator="arithmetic" k2="-1" k3="1"/>
<feColorMatrix type="matrix" values="0 0 0 0 0.51224 0 0 0 0 0.390607 0 0 0 0 0.261372 0 0 0 1 0"/>
<feBlend mode="normal" in2="shape" result="effect1_innerShadow_4343_6877"/>
<feColorMatrix in="SourceAlpha" type="matrix" values="0 0 0 0 0 0 0 0 0 0 0 0 0 0 0 0 0 0 127 0" result="hardAlpha"/>
<feOffset dx="3.26796"/>
<feGaussianBlur stdDeviation="1.63398"/>
<feComposite in2="hardAlpha" operator="arithmetic" k2="-1" k3="1"/>
<feColorMatrix type="matrix" values="0 0 0 0 0.51224 0 0 0 0 0.390607 0 0 0 0 0.261372 0 0 0 1 0"/>
<feBlend mode="normal" in2="effect1_innerShadow_4343_6877" result="effect2_innerShadow_4343_6877"/>
</filter>
<filter id="filter15_i_4343_6877" x="1033.5" y="259.116" width="66.0814" height="69.7236" filterUnits="userSpaceOnUse" color-interpolation-filters="sRGB">
<feFlood flood-opacity="0" result="BackgroundImageFix"/>
<feBlend mode="normal" in="SourceGraphic" in2="BackgroundImageFix" result="shape"/>
<feColorMatrix in="SourceAlpha" type="matrix" values="0 0 0 0 0 0 0 0 0 0 0 0 0 0 0 0 0 0 127 0" result="hardAlpha"/>
<feOffset dx="4.90195" dy="1.63398"/>
<feGaussianBlur stdDeviation="1.63398"/>
<feComposite in2="hardAlpha" operator="arithmetic" k2="-1" k3="1"/>
<feColorMatrix type="matrix" values="0 0 0 0 0.107277 0 0 0 0 0.296289 0 0 0 0 0.426497 0 0 0 1 0"/>
<feBlend mode="normal" in2="shape" result="effect1_innerShadow_4343_6877"/>
</filter>
<filter id="filter16_ii_4343_6877" x="1043.93" y="282.097" width="49.6424" height="37.3003" filterUnits="userSpaceOnUse" color-interpolation-filters="sRGB">
<feFlood flood-opacity="0" result="BackgroundImageFix"/>
<feBlend mode="normal" in="SourceGraphic" in2="BackgroundImageFix" result="shape"/>
<feColorMatrix in="SourceAlpha" type="matrix" values="0 0 0 0 0 0 0 0 0 0 0 0 0 0 0 0 0 0 127 0" result="hardAlpha"/>
<feOffset dx="-3.26796" dy="1.63398"/>
<feGaussianBlur stdDeviation="1.63398"/>
<feComposite in2="hardAlpha" operator="arithmetic" k2="-1" k3="1"/>
<feColorMatrix type="matrix" values="0 0 0 0 0.107277 0 0 0 0 0.296289 0 0 0 0 0.426497 0 0 0 0.5 0"/>
<feBlend mode="normal" in2="shape" result="effect1_innerShadow_4343_6877"/>
<feColorMatrix in="SourceAlpha" type="matrix" values="0 0 0 0 0 0 0 0 0 0 0 0 0 0 0 0 0 0 127 0" result="hardAlpha"/>
<feOffset dx="3.26796" dy="1.63398"/>
<feGaussianBlur stdDeviation="1.63398"/>
<feComposite in2="hardAlpha" operator="arithmetic" k2="-1" k3="1"/>
<feColorMatrix type="matrix" values="0 0 0 0 0.107277 0 0 0 0 0.296289 0 0 0 0 0.426497 0 0 0 0.5 0"/>
<feBlend mode="normal" in2="effect1_innerShadow_4343_6877" result="effect2_innerShadow_4343_6877"/>
</filter>
<linearGradient id="paint0_linear_4343_6877" x1="189.523" y1="194.332" x2="187.604" y2="198.04" gradientUnits="userSpaceOnUse">
<stop stop-color="#191919"/>
<stop offset="0.555252" stop-color="#363636"/>
<stop offset="1" stop-color="#191919"/>
</linearGradient>
<linearGradient id="paint1_linear_4343_6877" x1="158.396" y1="154.797" x2="164.958" y2="150.848" gradientUnits="userSpaceOnUse">
<stop offset="0.165" stop-color="#B8B8B8"/>
<stop offset="0.59" stop-color="#D9D9D9"/>
<stop offset="0.790297" stop-color="#969696"/>
<stop offset="0.831688" stop-color="#BEBEBE"/>
<stop offset="0.873078" stop-color="#9B9B9B"/>
<stop offset="0.906943" stop-color="#D9D9D9"/>
<stop offset="0.953148" stop-color="#737373"/>
</linearGradient>
<linearGradient id="paint2_linear_4343_6877" x1="184.057" y1="204.643" x2="188.232" y2="204.685" gradientUnits="userSpaceOnUse">
<stop stop-color="#191919"/>
<stop offset="0.555252" stop-color="#363636"/>
<stop offset="1" stop-color="#191919"/>
</linearGradient>
<linearGradient id="paint3_linear_4343_6877" x1="163.71" y1="158.622" x2="157.148" y2="162.571" gradientUnits="userSpaceOnUse">
<stop offset="0.165" stop-color="#B8B8B8"/>
<stop offset="0.59" stop-color="#D9D9D9"/>
<stop offset="0.790297" stop-color="#969696"/>
<stop offset="0.831688" stop-color="#BEBEBE"/>
<stop offset="0.873078" stop-color="#9B9B9B"/>
<stop offset="0.906943" stop-color="#D9D9D9"/>
<stop offset="0.953148" stop-color="#737373"/>
</linearGradient>
<linearGradient id="paint4_linear_4343_6877" x1="102.245" y1="47.9719" x2="94.6035" y2="52.2499" gradientUnits="userSpaceOnUse">
<stop stop-color="#3C3C3C"/>
<stop offset="0.507442" stop-color="#6D6D6D"/>
<stop offset="0.9999" stop-color="#3C3C3C"/>
</linearGradient>
<linearGradient id="paint5_linear_4343_6877" x1="83.2774" y1="54.7041" x2="70.1593" y2="61.7726" gradientUnits="userSpaceOnUse">
<stop stop-color="#3C3C3C"/>
<stop offset="0.15035" stop-color="#575757"/>
<stop offset="0.449161" stop-color="#3C3C3C"/>
<stop offset="0.853886" stop-color="#545454"/>
<stop offset="1" stop-color="#3C3C3C"/>
</linearGradient>
<linearGradient id="paint6_linear_4343_6877" x1="942.839" y1="27.9862" x2="1013.95" y2="101.365" gradientUnits="userSpaceOnUse">
<stop stop-color="#CFF6FF"/>
<stop offset="0.169042" stop-color="#E9FAFE"/>
<stop offset="0.708248" stop-color="#E9FAFE"/>
<stop offset="1" stop-color="#CFEEF6"/>
</linearGradient>
<linearGradient id="paint7_linear_4343_6877" x1="845.732" y1="108.165" x2="824.763" y2="98.8067" gradientUnits="userSpaceOnUse">
<stop stop-color="#E9FAFE"/>
<stop offset="1" stop-color="#C5EBF4"/>
</linearGradient>
<radialGradient id="paint8_radial_4343_6877" cx="0" cy="0" r="1" gradientUnits="userSpaceOnUse" gradientTransform="translate(927.073 169.146) scale(40.1582 7.78578)">
<stop stop-color="#D6F5FD"/>
<stop offset="0.578667" stop-color="#C4ECF6"/>
<stop offset="0.75" stop-color="#CEF0F8"/>
<stop offset="0.887098" stop-color="#C7EEF9"/>
</radialGradient>
<radialGradient id="paint9_radial_4343_6877" cx="0" cy="0" r="1" gradientUnits="userSpaceOnUse" gradientTransform="translate(807.277 103.143) rotate(82.3033) scale(13.3979 20.8641)">
<stop stop-color="#C2E7F0"/>
<stop offset="0.155" stop-color="#C2E7F0"/>
<stop offset="0.325" stop-color="#D1F6FF"/>
<stop offset="0.528941" stop-color="#BAE6F0"/>
<stop offset="0.694869" stop-color="#BFEBF5"/>
</radialGradient>
<linearGradient id="paint10_linear_4343_6877" x1="355.673" y1="151.393" x2="362.772" y2="158.87" gradientUnits="userSpaceOnUse">
<stop stop-color="#9D9D9D"/>
<stop offset="0.322657" stop-color="#CCCCCC"/>
<stop offset="0.571053" stop-color="#737373"/>
<stop offset="1" stop-color="#9D9D9D"/>
</linearGradient>
<linearGradient id="paint11_linear_4343_6877" x1="407.096" y1="87.2484" x2="409.457" y2="92.6704" gradientUnits="userSpaceOnUse">
<stop offset="0.215" stop-color="#F7D0DA"/>
<stop offset="1" stop-color="#EAB7C4"/>
</linearGradient>
<linearGradient id="paint12_linear_4343_6877" x1="424.843" y1="104.805" x2="419.372" y2="102.56" gradientUnits="userSpaceOnUse">
<stop offset="0.215" stop-color="#F7D0DA"/>
<stop offset="1" stop-color="#EAB7C4"/>
</linearGradient>
<linearGradient id="paint13_linear_4343_6877" x1="428.252" y1="108.92" x2="433.973" y2="110.419" gradientUnits="userSpaceOnUse">
<stop offset="0.215" stop-color="#F7D0DA"/>
<stop offset="1" stop-color="#EAB7C4"/>
</linearGradient>
<linearGradient id="paint14_linear_4343_6877" x1="1234.43" y1="182.837" x2="1154.24" y2="144.066" gradientUnits="userSpaceOnUse">
<stop stop-color="#9E9C9C"/>
<stop offset="0.245" stop-color="#B0AFAF"/>
<stop offset="0.49" stop-color="#999898"/>
<stop offset="0.63" stop-color="#C7C7C7"/>
<stop offset="1" stop-color="#6B6A6A"/>
</linearGradient>
<linearGradient id="paint15_linear_4343_6877" x1="1202.84" y1="146.485" x2="1199.51" y2="152.964" gradientUnits="userSpaceOnUse">
<stop stop-color="#C9C8CB"/>
<stop offset="1" stop-color="#A3A3A3"/>
</linearGradient>
<linearGradient id="paint16_linear_4343_6877" x1="1188.39" y1="172.62" x2="1186.06" y2="177.178" gradientUnits="userSpaceOnUse">
<stop stop-color="#C9C8CB"/>
<stop offset="1" stop-color="#A3A3A3"/>
</linearGradient>
<linearGradient id="paint17_linear_4343_6877" x1="1271.15" y1="203.333" x2="1221.5" y2="179.328" gradientUnits="userSpaceOnUse">
<stop stop-color="#A2A2A2"/>
<stop offset="0.29278" stop-color="#CDCDCD"/>
<stop offset="1" stop-color="#3C3C3C"/>
</linearGradient>
<linearGradient id="paint18_linear_4343_6877" x1="169.761" y1="272.22" x2="153.12" y2="329.381" gradientUnits="userSpaceOnUse">
<stop stop-color="#FBFFFF"/>
<stop offset="1" stop-color="#FBFFFF" stop-opacity="0.1"/>
</linearGradient>
<linearGradient id="paint19_linear_4343_6877" x1="246.943" y1="296.304" x2="229.899" y2="354.847" gradientUnits="userSpaceOnUse">
<stop stop-color="#FBFFFF"/>
<stop offset="1" stop-color="#FBFFFF" stop-opacity="0.1"/>
</linearGradient>
</defs>
</svg>
