<svg width="336" height="442" fill="none" xmlns="http://www.w3.org/2000/svg"><rect opacity=".9" x="11.751" y="10.23" width="323.744" height="431.659" rx="23.509" fill="#4F2F22"/><g clip-path="url(#clip0_5874_24139)"><rect x=".505" y=".348" width="323.744" height="431.659" rx="23.509" fill="#986A55"/><g filter="url(#filter0_d_5874_24139)"><path d="M389.45 415.482H96.124s6.691 47.649 144.828 47.649c138.138 0 148.498-47.649 148.498-47.649Z" fill="url(#paint0_radial_5874_24139)"/><path d="M389.973 412.888c0 23.918-65.823 43.306-147.02 43.306-81.196 0-147.02-19.388-147.02-43.306 0-23.917 65.824-43.306 147.02-43.306 81.197 0 147.02 19.389 147.02 43.306Z" fill="url(#paint1_radial_5874_24139)"/><g filter="url(#filter1_d_5874_24139)"><ellipse cx="242.952" cy="414.036" rx="133.204" ry="35.377" fill="url(#paint2_linear_5874_24139)"/><mask id="mask0_5874_24139" style="mask-type:alpha" maskUnits="userSpaceOnUse" x="109" y="378" width="268" height="72"><ellipse cx="242.952" cy="414.036" rx="133.204" ry="35.377" fill="white"/></mask><g filter="url(#filter2_f_5874_24139)" mask="url(#mask0_5874_24139)"><ellipse cx="245.136" cy="425.607" rx="124.781" ry="32.262" fill="url(#paint3_linear_5874_24139)"/></g></g></g><mask id="mask1_5874_24139" style="mask-type:alpha" maskUnits="userSpaceOnUse" x="149" y="375" width="191" height="66"><path d="M151.595 401.666c-5.556-11.112.463-15.974 4.167-17.015 67.716-21.183 171.198 0 177.449 0 6.251 0 6.598 5.903 5.556 17.015-1.042 11.112-33.337 29.517-51.047 33.337-17.71 3.82-38.198 6.945-62.854 4.862-24.655-2.084-36.462-7.987-46.532-12.502-10.071-4.514-19.794-11.806-26.739-25.697Z" fill="#FCDAAE"/></mask><g mask="url(#mask1_5874_24139)"><path d="M151.595 401.666c-5.556-11.112.463-15.974 4.167-17.015 67.716-21.183 171.198 0 177.449 0 6.251 0 6.598 5.903 5.556 17.015-1.042 11.112-33.337 29.517-51.047 33.337-17.71 3.82-38.198 6.945-62.854 4.862-24.655-2.084-36.462-7.987-46.532-12.502-10.071-4.514-19.794-11.806-26.739-25.697Z" fill="#FCDAAE"/><mask id="mask2_5874_24139" style="mask-type:alpha" maskUnits="userSpaceOnUse" x="152" y="370" width="185" height="56"><path d="M190.835 414.862c-22.225-4.167-34.495-17.71-37.852-23.961 0-3.75 2.2-5.845 3.299-6.424 43.755-30.385 173.803-2.952 178.839 0 5.035 2.952-7.119 18.926-11.807 22.745-4.688 3.82-3.473 5.383-9.55 5.904-6.077.521-2.778 1.736-22.224 8.681-19.447 6.946-26.392 3.473-58.687 2.084-32.295-1.389-14.238-3.82-42.018-9.029Z" fill="#F4BA7C"/></mask><g mask="url(#mask2_5874_24139)"><path d="M190.835 414.862c-22.225-4.167-34.495-17.71-37.852-23.961 0-3.75 2.2-5.845 3.299-6.424 43.755-30.385 173.803-2.952 178.839 0 5.035 2.952-7.119 18.926-11.807 22.745-4.688 3.82-3.473 5.383-9.55 5.904-6.077.521-2.778 1.736-22.224 8.681-19.447 6.946-26.392 3.473-58.687 2.084-32.295-1.389-14.238-3.82-42.018-9.029Z" fill="#F4BA7C"/><path d="M331.648 392.811c4.167-4.167 4.862-5.672 4.688-5.903-6.077-7.987-148.8 23.266-140.64 27.26 8.161 3.993 35.247 9.202 46.88 8.855 11.633-.348 26.913-3.126 39.761-3.994 12.849-.868 24.482-7.813 33.511-14.932 9.029-7.119 10.591-6.077 15.8-11.286Z" fill="#E9AC6A"/></g><path d="M185.104 422.154c-3.333-1.666-7.639-4.398-9.375-5.556 0 2.084 11.112 9.55 17.536 10.939 6.424 1.389 14.238 4.167 18.231 4.167 3.994 0 18.752 2.604 28.302 1.736 9.549-.868 6.598-1.736 5.209-1.736-1.389 0-5.383-.695-11.46 0-6.077.695-30.038-2.604-32.989-4.167-2.952-1.563-11.286-3.299-15.454-5.383Z" fill="#EDB289"/><path d="M324.876 409.827c3.299-2.084 8.855-7.814 9.55-7.987 3.646 0-4.167 9.723-7.813 11.633-3.647 1.91-4.688 4.167-9.029 6.077-4.341 1.91-10.765 2.951-17.363 3.993-6.598 1.042-4.688-.694 1.215-2.951 5.904-2.258 20.141-8.682 23.44-10.765ZM237.367 426.842c-7.779-.833-12.733.347-14.238 1.042 2.431 1.042 6.251 1.042 11.98 1.042 5.73 0 6.598 2.952 13.37 1.562 6.771-1.389-1.389-2.604-11.112-3.646Z" fill="#F9EDDE"/></g><mask id="mask3_5874_24139" style="mask-type:alpha" maskUnits="userSpaceOnUse" x="146" y="348" width="197" height="74"><path d="M147.43 378.574c-2.64-11.529 6.192-20.431 10.938-23.44 21.808-6.668 66.269-6.482 85.773-5.556 55.006-4.445 83.226 3.819 90.461 8.507 3.299 3.01 9.307 10.383 6.945 15.801-2.951 6.771 1.563 4.688-20.662 23.44-22.224 18.752-50.005 22.398-76.744 23.96-26.739 1.563-30.559-4.514-52.609-7.813-22.051-3.299-40.803-20.488-44.102-34.899Z" fill="#FCDAAE"/></mask><g mask="url(#mask3_5874_24139)"><path d="M147.43 378.574c-2.64-11.529 6.192-20.431 10.938-23.44 21.808-6.668 66.269-6.482 85.773-5.556 55.006-4.445 83.226 3.819 90.461 8.507 3.299 3.01 9.307 10.383 6.945 15.801-2.951 6.771 1.563 4.688-20.662 23.44-22.224 18.752-50.005 22.398-76.744 23.96-26.739 1.563-30.559-4.514-52.609-7.813-22.051-3.299-40.803-20.488-44.102-34.899Z" fill="#FCDAAE"/><mask id="mask4_5874_24139" style="mask-type:alpha" maskUnits="userSpaceOnUse" x="151" y="336" width="189" height="69"><path d="M156.111 371.976c-6.806-1.806-5.267-10.013-3.646-13.89 19.099-7.64 46.359-20.315 93.586-21.704 47.227-1.389 92.718 18.057 93.586 22.572.868 4.514-1.042 7.813-5.903 17.884-4.862 10.07-22.572 13.89-36.983 18.578-14.412 4.688-23.267 7.119-31.601 8.16-8.334 1.042-4.862-1.041-12.154 0-7.292 1.042-21.704 1.91-32.816-1.041-11.112-2.952-8.16-3.299-18.405-2.605-10.244.695-13.195-9.549-21.009-9.202-7.813.347-9.202-6.251-14.237-11.807-5.036-5.556-1.91-4.688-10.418-6.945Z" fill="#E9AC6A"/></mask><g mask="url(#mask4_5874_24139)"><path d="M156.111 371.976c-6.806-1.806-5.267-10.013-3.646-13.89 19.099-7.64 46.359-20.315 93.586-21.704 47.227-1.389 92.718 18.057 93.586 22.572.868 4.514-1.042 7.813-5.903 17.884-4.862 10.07-22.572 13.89-36.983 18.578-14.412 4.688-23.267 7.119-31.601 8.16-8.334 1.042-4.862-1.041-12.154 0-7.292 1.042-21.704 1.91-32.816-1.041-11.112-2.952-8.16-3.299-18.405-2.605-10.244.695-13.195-9.549-21.009-9.202-7.813.347-9.202-6.251-14.237-11.807-5.036-5.556-1.91-4.688-10.418-6.945Z" fill="#F4BA7C"/><path d="M314.982 378.053c6.528-2.778 16.726-13.312 21.009-18.231-2.605-27.781-177.449-9.55-184.915-6.772-7.466 2.778-2.605 6.772 5.035 18.405 7.64 11.633 19.967 15.974 29.517 18.058l.18.039c9.789 2.136 43.486 9.489 57.118 6.038 13.716-3.473 17.015 1.389 35.073-3.994 18.057-5.382 28.822-10.07 36.983-13.543Z" fill="#E9AC6A"/></g><path d="M252.127 409.132c-7.362.139-11.633.869-12.849 1.216 5.036 1.215 14.238 3.299 40.63-2.605 26.391-5.903 46.185-21.356 46.185-22.919 0-1.562-15.453 8.161-23.266 13.023-7.814 4.861-17.884 6.077-24.829 8.681-6.946 2.604-16.669 2.431-25.871 2.604Z" fill="#F9EDDE"/><path d="M172.084 392.117c-3.889-3.473-10.186-4.573-12.848-4.688-1.389 2.083 1.562 6.077 8.16 12.675 6.598 6.597 12.154 3.472 19.794 5.903 7.64 2.431 20.315 5.382 26.392 4.514 6.077-.868-16.148-5.382-27.434-8.681-11.286-3.299-9.202-5.383-14.064-9.723Z" fill="#EDB289"/></g><mask id="mask5_5874_24139" style="mask-type:alpha" maskUnits="userSpaceOnUse" x="147" y="312" width="197" height="78"><path d="M147.6 344.369c-2.64-9.585 5.266-17.884 9.549-20.836 31.254-10.591 45.144-11.286 97.754-10.244 52.609 1.042 75.355 2.257 86.988 23.614 8.681 22.571-28.823 43.581-64.938 49.31-36.114 5.73-36.635 3.82-60.249 0-23.614-3.82-17.71-5.382-29.691-5.729-11.98-.348-36.114-24.135-39.413-36.115Z" fill="#FCDAAE"/></mask><g mask="url(#mask5_5874_24139)"><path d="M147.6 344.369c-2.64-9.585 5.266-17.884 9.549-20.836 31.254-10.591 45.144-11.286 97.754-10.244 52.609 1.042 75.355 2.257 86.988 23.614 8.681 22.571-28.823 43.581-64.938 49.31-36.114 5.73-36.635 3.82-60.249 0-23.614-3.82-17.71-5.382-29.691-5.729-11.98-.348-36.114-24.135-39.413-36.115Z" fill="#FCDAAE"/><mask id="mask6_5874_24139" style="mask-type:alpha" maskUnits="userSpaceOnUse" x="151" y="307" width="188" height="65"><path d="M154.545 336.208c-4.723-3.612-1.968-9.26 0-11.633 35.594-22.572 80.911-15.453 93.239-15.974 12.328-.521 85.426-.868 89.593 18.578 4.167 19.447-7.814 25.697-19.099 27.433-11.286 1.737-5.73 3.647-14.759 5.383-9.029 1.736-34.726 8.681-44.623 10.939-9.897 2.257 4.167-1.563-18.925 0-23.093 1.562-15.106-2.778-31.254-5.73-16.147-2.952-24.828-4.862-35.073-10.592-10.244-5.729-5.035-3.993-13.195-7.466-8.161-3.472 0-6.424-5.904-10.938Z" fill="#F4BA7C"/></mask><g mask="url(#mask6_5874_24139)"><path d="M154.545 336.208c-4.723-3.612-1.968-9.26 0-11.633 35.594-22.572 80.911-15.453 93.239-15.974 12.328-.521 85.426-.868 89.593 18.578 4.167 19.447-7.814 25.697-19.099 27.433-11.286 1.737-5.73 3.647-14.759 5.383-9.029 1.736-34.726 8.681-44.623 10.939-9.897 2.257 4.167-1.563-18.925 0-23.093 1.562-15.106-2.778-31.254-5.73-16.147-2.952-24.828-4.862-35.073-10.592-10.244-5.729-5.035-3.993-13.195-7.466-8.161-3.472 0-6.424-5.904-10.938Z" fill="#F4BA7C"/><path d="M316.367 341.417c14.724-6.39 17.595-14.354 17.19-17.537-23.44-24.134-158.698-4.861-165.816-5.382-7.119-.521-10.939-.695-16.842 12.848-5.904 13.543 21.877 20.315 29.517 24.829 7.639 4.515 36.636 9.203 34.205 3.82-2.431-5.382 5.209 0 19.62 0 14.411 0 37.33-1.736 52.609-8.334 15.28-6.598 11.113-2.257 29.517-10.244Z" fill="#E9AC6A"/></g><path d="M166.699 356.696c-5.695-2.917-11.17-6.192-13.196-7.466-.868 2.431 7.987 10.244 17.016 15.8 9.029 5.557 9.897 6.251 15.453 9.029 5.556 2.778 14.064 3.82 27.433 7.119 13.37 3.299 17.537 1.16 24.829 3.299 7.293 2.139 3.299-.695 26.218-2.604 22.92-1.91 35.074-8.161 32.469-8.335-2.604-.173-33.684 7.119-42.192 7.64-8.508.521-8.334-1.215-17.884.695-9.549 1.909-7.813-1.91-18.925-1.91-11.112 0-24.482-8.508-31.948-9.55-7.466-1.042-3.646-3.125-7.64-5.383-3.993-2.257-4.514-4.688-11.633-8.334Z" fill="#EDB289"/><path d="M322.444 356.522c9.168-3.194 16.784-11.285 19.446-14.932-1.736 5.556-9.376 14.932-14.932 16.321-5.556 1.39-12.327 4.688-17.015 7.467-4.688 2.778-16.495 1.215-12.154-1.042 4.34-2.257 13.195-3.82 24.655-7.814Z" fill="#F9EDDE"/></g><mask id="mask7_5874_24139" style="mask-type:alpha" maskUnits="userSpaceOnUse" x="150" y="287" width="188" height="67"><path d="M152.985 319.192c-5.417-10.14.405-17.536 3.994-19.967 30.732-15.627 44.97-10.418 107.303-11.633 49.866-.972 67.31 9.434 69.799 14.758 6.424 5.383 4.34 16.842-1.91 23.614-6.251 6.771-25.177 13.543-41.671 21.009-16.495 7.466-18.231 4.514-38.893 6.424-20.662 1.91-47.054-4.861-58.34-6.424-11.286-1.563-33.51-15.106-40.282-27.781Z" fill="#F2CE9F"/></mask><g mask="url(#mask7_5874_24139)"><path d="M152.985 319.192c-5.417-10.14.405-17.536 3.994-19.967 30.732-15.627 44.97-10.418 107.303-11.633 49.866-.972 67.31 9.434 69.799 14.758 6.424 5.383 4.34 16.842-1.91 23.614-6.251 6.771-25.177 13.543-41.671 21.009-16.495 7.466-18.231 4.514-38.893 6.424-20.662 1.91-47.054-4.861-58.34-6.424-11.286-1.563-33.51-15.106-40.282-27.781Z" fill="#FCDAAE"/><mask id="mask8_5874_24139" style="mask-type:alpha" maskUnits="userSpaceOnUse" x="157" y="280" width="178" height="55"><path d="M159.758 307.559c-2.917-2.222-2.72-6.482-2.257-8.334 5.556-8.334 13.89-16.495 92.197-18.231 78.307-1.737 85.426 16.495 84.731 23.266-.694 6.772-2.083 7.813-9.202 14.064s-9.723 2.952-27.434 9.376c-17.71 6.424-43.928 6.598-59.034 6.772-15.105.173-33.684-2.431-49.31-6.772-15.627-4.341-5.383-6.598-18.058-11.112-12.675-4.515-7.987-6.251-11.633-9.029Z" fill="#F4BA7C"/></mask><g mask="url(#mask8_5874_24139)"><path d="M159.758 307.559c-2.917-2.222-2.72-6.482-2.257-8.334 5.556-8.334 13.89-16.495 92.197-18.231 78.307-1.737 85.426 16.495 84.731 23.266-.694 6.772-2.083 7.813-9.202 14.064s-9.723 2.952-27.434 9.376c-17.71 6.424-43.928 6.598-59.034 6.772-15.105.173-33.684-2.431-49.31-6.772-15.627-4.341-5.383-6.598-18.058-11.112-12.675-4.515-7.987-6.251-11.633-9.029Z" fill="#F4BA7C"/><path d="M308.905 316.762c19.169-5.834 23.614-11.113 23.44-13.023-5.382-31.426-167.031-13.022-179.706-7.986-12.675 5.035 9.202 18.231 19.446 21.009 10.244 2.778 30.559 10.07 55.041 11.98 24.481 1.91 43.407-3.646 54.519-7.119 11.113-3.472 3.299 2.431 27.26-4.861Z" fill="#E9AC6A"/></g><path d="M181.113 330.999c-5.139-.972-14.18-3.646-18.057-4.862.636 1.852 3.056 5.904 7.639 7.293 5.73 1.736 12.154 7.292 17.016 9.202 4.862 1.91 13.717 4.688 20.836 5.035 7.118.347 13.543-1.389 5.903-1.736s-15.627-4.167-21.356-5.903c-5.73-1.737-5.557-7.814-11.981-9.029Z" fill="#EDC189"/><path d="M298.833 331.346c4.723-4.028 17.942-7.234 23.961-8.334 0 2.778-7.987 6.772-17.189 10.418-9.202 3.646-11.46 5.382-25.35 9.376-11.112 3.195-30.096 3.299-38.198 2.952 3.472-4.515 11.286-1.737 19.967-2.952 8.681-1.215 30.906-6.424 36.809-11.46Z" fill="#F9EDDE"/></g><mask id="mask9_5874_24139" style="mask-type:alpha" maskUnits="userSpaceOnUse" x="154" y="257" width="184" height="67"><path d="M154.546 292.454c-2.917-19.725 30.269-28.939 47.227-31.08 22.641-6.113 60.712-4.399 76.918-2.778 55.908 9.202 61.638 25.35 57.645 37.851-3.994 12.501-7.293 10.939-44.797 21.009-37.504 10.071-64.069 5.73-76.049 3.646-11.981-2.083-57.298-3.993-60.944-28.648Z" fill="#D9D9D9"/></mask><g mask="url(#mask9_5874_24139)"><path d="M154.546 292.454c-2.917-19.725 30.269-28.939 47.227-31.08 22.641-6.113 60.712-4.399 76.918-2.778 55.908 9.202 61.638 25.35 57.645 37.851-3.994 12.501-7.293 10.939-44.797 21.009-37.504 10.071-64.069 5.73-76.049 3.646-11.981-2.083-57.298-3.993-60.944-28.648Z" fill="#FCDAAE"/><path d="M169.825 288.46c-6.251-6.806-4.919-13.369-3.472-15.8 19.446-19.794 36.983-17.71 75.702-21.356 38.719-3.647 72.924 8.508 85.773 24.308 12.848 15.8-22.919 22.051-40.282 25.697-17.363 3.646-41.153 4.051-58.861 2.083-6.25-.694-6.771-.347-14.064 0-7.292.348-36.983-6.424-44.796-14.932Z" fill="#F4BA7C"/><path d="M181.805 270.576a2.365 2.365 0 0 1 2.778.695c-.289 0-2.396.937-8.507 4.688-7.64 4.688 10.244 7.813 10.938 11.98.695 4.167 3.473-3.472 8.508 1.216 5.035 4.688 19.62 4.514 23.267 5.035 3.646.521-1.042 2.952-5.209 3.82-4.167.868-9.029 1.562-12.849-1.737-3.82-3.299-12.848-5.209-15.627-4.688-2.778.521-3.993-2.257-4.688-3.646-.694-1.389-1.215.868-4.34-.868-3.126-1.736-1.737-.174-5.383-.695-2.917-.416-.521-2.604 1.042-3.646-2.084-4.34-1.216 1.042-3.994-2.431-2.778-3.472 12.328-9.028 14.064-9.723Z" fill="#FFCF9B"/><path d="M224.519 316.067c-3.334-.972-9.261.405-11.807 1.215 3.067.695 10.14 1.945 13.89 1.39 4.688-.695 27.434 2.604 33.337 1.909 5.903-.694 24.655-7.149 35.42-7.813 10.765-.664 24.482-3.993 28.476-5.903 3.993-1.91 9.549-5.73 7.118-6.772-2.43-1.042-10.417 2.778-20.141 3.994-9.723 1.215-9.549 6.077-31.079 10.417-21.53 4.341-25.35 1.563-37.678 1.563-12.327 0-13.369 1.215-17.536 0Z" fill="#EDC189"/></g><path fill-rule="evenodd" clip-rule="evenodd" d="M194.48 267.798c5.278-3.056 8.218-3.356 9.029-3.125 9.198-4.599 34.847-3.182 50.455-2.32 5.605.31 9.915.548 11.704.41 6.772-.521 45.491 4.862 60.249 23.44 13.93 17.535 1.565 22.077-2.058 23.408-.215.079-.4.147-.546.206-2.31.924-2.298 1.711-2.266 3.816v.001c.004.268.009.557.009.871 0 1.389.911 2.561 1.975 3.928 1.063 1.367 2.279 2.93 2.886 5.1.94 3.355-1.129 5.881-2.518 7.576-.408.498-.757.925-.954 1.28l-.134.238c-.764 1.354-.971 1.719 1.002 5.665.763 1.527 2.273 2.494 4.016 3.612 3.014 1.931 6.725 4.309 8.485 10.799 2.104 7.757-4.454 12.03-8.441 14.627-1.278.833-2.292 1.494-2.671 2.042-.938 1.355.376 2.021 2.704 3.202 1.55.786 3.548 1.799 5.63 3.395 4.167 3.195 7.524 15.338 8.682 21.01 11.667-.695 17.826 1.678 19.446 2.951 10.279 7.223 4.283 13.428 0 15.627-4.514 5.556-16.842 13.196-35.42 15.627-9.491 1.241-15.945 3.888-21.818 6.295-5.623 2.306-10.713 4.392-17.423 4.817-10.973.694-9.433-4.457-7.292-7.119 3.697-1.584 4.181-3.972 4.735-6.704v-.001c.175-.86.356-1.756.648-2.671.583-1.833.366-2.827.098-4.055-.29-1.331-.64-2.938-.098-6.189.901-5.408-.667-7.437-2.231-9.46-.244-.315-.487-.63-.721-.958-.621-.868-1.684-1.449-2.859-2.09-2.112-1.152-4.583-2.5-5.475-6.07-1.112-4.445 5.093-9.376 8.334-11.286 5.73-11.981.347-18.231-8.334-18.579l-.139-.005c-8.644-.346-18.088-.723-17.224-7.113.694-5.14 13.601-7.814 19.967-8.508 3.994-9.55 1.389-13.717 0-15.106-.465-.465-1.687-.716-3.167-1.019-2.944-.605-6.905-1.418-7.945-4.537-.795-2.383.251-2.927 1.881-3.775 1.577-.82 3.701-1.924 5.238-5.254 3.125-6.771 4.514-20.141-13.023-26.392-14.029-5-40.455-3.356-51.915-1.909-2.72-.174-9.862 2.048-13.89 8.16-2.638 4.002-2.798 6.909-2.926 9.243-.117 2.122-.208 3.771-2.109 5.342-1.675 1.384-3.258 1.515-4.724 1.637-2.03.168-3.835.318-5.347 3.746-2.604 5.903-1.389 16.842 1.389 19.967s3.82 7.119-1.389 12.154c-1.355 1.31-2.687 2.362-3.843 3.274-3.284 2.594-5.143 4.061-2.06 7.144.839.839 1.531 1.488 2.101 2.024 2.262 2.123 2.622 2.461 2.76 5.789.09 2.153.365 3.101.61 3.945.229.79.432 1.489.432 3 0 .493.03.89.057 1.238.141 1.858.173 2.288-5.092 8.138-6.251 6.945-6.945 16.495-5.209 16.842.721.144-.054 2.052-1.02 4.434-1.363 3.358-3.108 7.658-1.584 9.283 2.083 2.222-3.068 3.588-5.904 3.993-5.77 4.583-8.389 1.866-17.26-7.34l-.624-.647c-6.221-6.451-3.269-7.17 1.552-8.343 2.445-.595 5.371-1.307 7.824-2.942 5.834-3.89 8.103-4.515 8.508-4.341-2.604-8.334 1.91-13.717 5.904-17.189a33.84 33.84 0 0 1 1.94-1.56c.705-.533 1.114-.842 1.301-1.252.258-.563.098-1.318-.281-3.11-.104-.489-.224-1.056-.356-1.718-.972-4.862-6.077-10.36-8.508-12.501-1.248-5.722 3.299-7.018 8.042-8.37 3.174-.905 6.435-1.835 8.106-4.132 2.197-3.021.291-3.146-2.868-3.352-2.832-.185-6.67-.436-9.46-2.898-4.723-4.168 1.158-6.714 4.688-7.467-.674-2.022-.226-3.457.306-5.163.427-1.37.909-2.916.909-5.081 0-2.389 1.384-3.897 2.565-5.185 1.222-1.332 2.227-2.427 1.255-4.017-1.528-2.5-3.183-4.746-3.82-5.556-4.514-6.945 1.389-12.675 11.981-16.148 10.591-3.472 9.029-8.508 7.119-11.459-.765-1.182-1.53-1.612-2.306-2.049-1.161-.654-2.348-1.322-3.598-4.549-1.375-3.552 1.56-4.533 5.612-5.888 2.088-.698 4.472-1.495 6.716-2.794Zm90.636 55.562c4.583-16.669 16.263-21.067 21.53-21.183.81-.752 3.125-1.389 5.903 2.084 3.211 4.013-.258 7.878-1.623 9.399-.111.124-.208.232-.287.324-.532.62-1.741.833-3.26 1.101-1.458.257-3.2.564-4.901 1.33-3.472 1.562-2.083 5.556 1.389 7.813 3.473 2.257 5.557 5.035 6.251 10.244.515 3.861-2.309 5.039-4.66 6.02-.187.078-.37.154-.549.231-7.639 9.549-.868 13.369 10.765 14.585 9.307.972 7.061 10.649 4.515 15.973-4.029 3.751-20.662 9.782-28.302 11.807 2.778-5.035 5.209-21.009 5.903-25.871.622-4.353-.148-4.947-2.186-6.52-.238-.184-.493-.381-.765-.598-2.084-1.667-7.929-.984-10.592 0-1.736-9.897.869-13.891 3.126-15.627 2.257-1.736 3.82-3.82 4.341-7.64.416-3.056-4.225-3.588-6.598-3.472Zm30.209 70.667c-2.72 1.852-8.786 5.834-11.286 6.945-3.125 1.389-8.508 4.688-10.244 11.98-1.737 7.293-1.91 17.016 2.951 16.669 4.862-.347 22.399-7.119 28.997-12.849a156.8 156.8 0 0 1 3.393-2.842c5.014-4.118 8.822-7.246 9.108-12.958.347-6.945-.174-15.627-5.73-15.279-2.757.172-3.846-.169-4.542-.386-.706-.221-1.005-.314-2.229.386-1.342.767-3.637 2.731-5.832 4.611-1.781 1.525-3.497 2.995-4.586 3.723Z" fill="#FFF9DD" fill-opacity=".8"/><g filter="url(#filter3_d_5874_24139)"><path d="M290.004 273.317c5.264 2.569 23.629-14.5 21.851-22.403-1.359-6.04-13.467-15.904-18.271-8.272-6.006 9.54-10.161 27.464-3.58 30.675Z" fill="#4F2F22"/><path d="M257.934 256.787c.214-3.315 5.517-8.152 8.811-8.158.351 1.021-1.474 4.137-1.488 7.196-.014 3.059-1.037 5.304-1.546 6.045-.424.182-1.401.36-2.249.24-2.368-.335-3.765-1.63-3.528-5.323Z" fill="url(#paint4_linear_5874_24139)"/><path d="M262.808 259.927c.913-10.718 4.083-21.011 6.355-24.039 0 0 3.961-4.547 9.496-5.041 10.07-.9 12.935 3.037 12.935 3.037 5.084 5.212 7.548 12.567 8.774 25.792.963 10.383-3.358 13.665-7.342 14.823-1.57.457-4.38 1.827-11.011 1.871-7.685.051-6.92-.495-11.428-1.524-5.582-1.272-8.683-4.307-7.779-14.919Z" fill="#D4BDA6"/><path d="M281.275 244.206c-.821.003-1.524-.533-1.117-1.016.188-.141.916-.254 1.18-.27.25-.016.736.03.972.206.702.523-.213 1.076-1.035 1.08Z" fill="#4F2F22"/><path d="m280.062 246.376-.009-.696 1.47-.454 1.164.423.008.696a.529.529 0 0 1-.523.535l-1.575.018a.528.528 0 0 1-.535-.522Z" fill="white"/><path d="m281.353 244.319.015.831m0 0c.349.24 1.216.681 1.89.522.675-.159.965-.447 1.025-.571m-2.915.049c-.216.188-.781.567-1.683.582-.903.015-1.229-.348-1.327-.531" stroke="#4F2F22" stroke-width=".529" stroke-linecap="round"/><ellipse cx=".891" cy="1.164" rx=".891" ry="1.164" transform="matrix(0.991486 0.130694 -0.135582 0.990701 275.133 241.344)" fill="#4F2F22"/><ellipse cx=".891" cy="1.164" rx=".891" ry="1.164" transform="matrix(-0.991325 0.131031 0.135949 0.990771 287.116 241.342)" fill="#4F2F22"/><path d="M292.332 232.358c-1.401-1.155-2.699.038-3.173.779.62 1.037 2.123 3.044 3.173 2.777 1.313-.333 1.75-2.112 0-3.556Z" fill="url(#paint5_linear_5874_24139)"/><path d="M269.949 232.363c1.4-1.156 2.698.036 3.172.777-.619 1.037-2.121 3.045-3.171 2.779-1.313-.334-1.751-2.111-.001-3.556Z" fill="url(#paint6_linear_5874_24139)"/><path d="M292.965 270.471c-1.686-.07-4.241-.031-6.338.785-1.823.709-1.471 3.086-.792 4.906 1.357 3.64 10.172 2.302 9.903-1.57-.133-1.93-.822-4.039-2.773-4.121Z" fill="#C4AD98"/><g filter="url(#filter4_i_5874_24139)"><path d="M272.309 228.765c-5.286-4.79-5.053-10.52 1.845-9.853 4.745-3.895 6.952-2.75 12.133.09 11.907-.3 6.304 8.584 3.597 9.76v1.273l.001 1.272-17.576-.187v-2.355Z" fill="url(#paint7_linear_5874_24139)"/></g><g filter="url(#filter5_f_5874_24139)"><path d="M287.123 226.387c.081 2.085-.578 2.998-1.49 4.47l1.304-.001c.61-1.598.536-2.608.186-4.469Z" fill="#E3E3E3"/></g><g filter="url(#filter6_f_5874_24139)"><path d="M275.249 225.328c.133 3.178 1.636 4.221 3.046 6.322l-2.275.437c-1.014-2.338-1.03-3.882-.771-6.759Z" fill="#E3E3E3"/></g><g filter="url(#filter7_f_5874_24139)"><path d="M274.062 227.174c.951 2.177 1.647 3.219 3.549 4.354l-1.055.164c-1.582-1.391-1.998-2.46-2.494-4.518Z" fill="#E3E3E3"/></g><g filter="url(#filter8_f_5874_24139)"><path d="M279.116 226.655c.431 2.33.873 3.498 2.468 5.021l-1.066-.071c-1.225-1.703-1.387-2.836-1.402-4.95Z" fill="#E3E3E3"/></g><g filter="url(#filter9_f_5874_24139)"><path d="M286.406 227.864c-.268 1.708-.569 2.561-1.714 3.657l.785-.036c.868-1.233.963-2.065.929-3.621Z" fill="#E3E3E3"/></g><g filter="url(#filter10_f_5874_24139)"><path d="M288.126 228.018c-.595 1.653-1.056 2.457-2.4 3.398l.784.061c1.096-1.111 1.35-1.92 1.616-3.459Z" fill="#E3E3E3"/></g><path d="M272.31 230.738v2.576c0 .334.306.584.634.521 6.337-1.227 10.111-1.219 16.306-.005a.533.533 0 0 0 .636-.521l-.001-2.567a.525.525 0 0 0-.404-.512c-6.048-1.432-11.027-1.457-16.775-.002a.526.526 0 0 0-.396.51Z" fill="#FEF9F3"/><g filter="url(#filter11_di_5874_24139)"><path d="M286.225 264.432c-3.909-5.267-4.603-6.059-4.508-8.989l1.147-1.339c2.786 4.118 3.667 6.366 3.361 10.328Z" fill="#B61E23"/></g><g filter="url(#filter12_di_5874_24139)"><path d="M277.526 261.298c.312-2.888-.164-4.746 2.376-6.816l.998.952c-1 3.822-1.853 4.555-3.374 5.863v.001Z" fill="#B61E23"/></g><g filter="url(#filter13_i_5874_24139)"><path d="M298.332 246.786c-5.654 3.072-9.382 4.717-15.612 6.373l.282.646c6.625-1.506 10.306-2.552 15.989-4.526l-.659-2.493Z" fill="#B61E23"/></g><g filter="url(#filter14_i_5874_24139)"><path d="M264.847 247.162c5.655 3.069 9.195 4.437 15.427 6.09v.923c-6.625-1.504-10.308-2.549-15.991-4.521l.564-2.492Z" fill="#B61E23"/></g><g opacity=".25" filter="url(#filter15_f_5874_24139)"><path d="M289.581 222.129c-1.106-1.394-1.891-2.066-3.48-3.135 1.816-.014 3.668.213 5.079.735l-1.599 2.4Z" fill="#C2C2C2"/></g><g opacity=".25" filter="url(#filter16_f_5874_24139)"><path d="M271.69 220.482c.724-.498 2.212-1.494 2.464-1.57-1.21-.119-2.164-.091-3.104.238l.64 1.332Z" fill="#D0D0D0"/></g><g filter="url(#filter17_i_5874_24139)"><path d="M280.607 255.37c-.456-.185-1.267-1.76-.856-2.282.411-.523 3.223-.423 3.412.025.19.449-.243 1.853-.525 2.125-.283.272-1.575.318-2.031.132Z" fill="#B61E23"/></g></g><path d="M199.921 260.353c-1.331-3.358-.541-5.599.02-6.299 6.793-9.844 18.193-10.113 24.749-4.18 6.556 5.933 6.701 21.01 5.409 25.488-1.291 4.478-6.036 4.727-9.716 2.533-3.681-2.193-8.603-5.068-11.59-5.929-10.491-2.508-10.286-8.787-8.872-11.613Z" fill="url(#paint8_radial_5874_24139)"/><path d="M203.938 259.922c-1.295-3.209-.54-5.344-.001-6.01-.207-8.629 14.69-9.183 20.293-3.686 6.052 5.935 6.733 20.276 5.502 24.544-1.231 4.269-2.462 4.056-6.017 1.952s-8.308-4.862-11.19-5.693c-7.698-2.82-7.814-8.027-8.587-11.107Z" fill="url(#paint9_radial_5874_24139)"/><path d="M206.241 257.665c-2.074-2.28-1.759-7.386.002-8.73 3.226-2.465 6.846-2.552 11.473.722 5.335 3.776 12.495 23.975 11.432 26.417-1.064 2.442-1.771 2.399-5.04.648s-15.274-16.208-17.867-19.057Z" fill="#EE8672"/><path d="M209.088 251.534c1.713.292 2.817 1.681 3.632 2.988 1.843 2.956 2.469 2.652 1.616.627-.577-1.368-1.789-4.266-.786-4.753 4.721-2.034 13.412 19.551 13.749 23.366.338 3.816-1.518 2.149-2.507 1.217-.893-.841-13.524-12.307-16.737-19.863-.761-1.79-.337-3.815 1.033-3.582Z" fill="url(#paint10_radial_5874_24139)"/><path d="M201.186 257.84c-.136-.273.021-.423.083-.453.121-.06.376-.044.638.132.236.159.007.403-.227.518-.234.115-.381-.017-.494-.197ZM202.855 264.46c-.115.351-.393.369-.478.35-.164-.037-.388-.245-.475-.605-.079-.323.348-.372.667-.299.319.072.339.304.286.554ZM205.785 268.84c-.11.385-.354.415-.428.397-.143-.034-.334-.251-.401-.636-.061-.347.237-.23.515-.164s.367.131.314.403ZM200.216 261.535c-.223.331-.347.359-.372.345-.049-.027-.037-.21.107-.539.129-.297.33-.36.425-.306.095.053-.013.267-.16.5ZM202.307 251.711c-.11-.252.012-.367.061-.387.095-.039.297.001.506.182.188.163.009.351-.175.427-.184.076-.301-.054-.392-.222ZM199.197 256.768c-.109-.251.013-.366.062-.386.094-.039.297.001.505.182.188.163.009.351-.174.427-.184.076-.301-.054-.393-.223ZM199.454 264.603c-.109-.252.013-.367.062-.387.094-.039.296.001.505.182.188.163.009.351-.175.427-.183.076-.3-.054-.392-.222ZM200.923 255.004c-.076.233-.253.246-.307.234-.105-.024-.246-.16-.301-.397-.048-.214.225-.248.428-.202.204.046.215.199.18.365ZM203.054 253.679c-.075.233-.252.246-.306.234-.105-.024-.247-.16-.301-.397-.048-.214.225-.248.428-.202.203.046.215.2.179.365ZM205.178 266.256c-.075.233-.252.246-.306.234-.105-.023-.247-.16-.301-.397-.048-.214.225-.248.428-.202.203.046.215.2.179.365ZM200.178 258.669c-.075.233-.252.247-.306.235-.105-.024-.247-.16-.301-.397-.048-.214.225-.248.428-.202.203.046.215.199.179.364ZM202.549 260.434c.326.204.19.634.169.668-.041.064-.244.086-.585-.023-.307-.098-.337-.327-.257-.452.079-.126.441-.324.673-.193ZM202.205 267.547c-.11.385-.354.415-.428.397-.143-.034-.334-.251-.401-.636-.061-.348.315-.416.593-.349.278.066.289.316.236.588ZM208.988 271.482c-.422-.004-.533-.203-.54-.268-.013-.128.141-.338.505-.482.328-.131.521.169.547.418.026.248-.221.314-.512.332ZM214.266 272.943c-.105.368-.339.397-.409.38-.138-.033-.32-.24-.385-.609-.058-.333.302-.398.568-.335.267.064.277.303.226.564ZM217.702 275.454c.209-.324.446-.295.511-.262.124.064.244.305.201.671-.039.33-.411.305-.653.181-.243-.125-.184-.354-.059-.59ZM221.8 276.733c-.106.368-.34.396-.41.38-.137-.033-.32-.24-.385-.609-.058-.333.302-.398.569-.335.266.064.276.303.226.564ZM225.191 278.681c-.039.199-.367.185-.438.168-.137-.033-.291-.028-.356-.397-.058-.333.302-.398.568-.335.266.064.277.303.226.564Z" fill="#E38977"/><path d="M206.003 243.531c.683 1.62.987 4.057.829 4.604.822-.356 2.407-1.117 2.176-1.312-.231-.196-1.667-2.529-2.132-3.202-.576-.705-1.556-1.71-.873-.09Z" fill="#002810"/><path d="M201.222 249.041c2.686-.691 4.9-1.907 5.378-2.59.483 1.274 1.487 1.076 1.61 1.273.028.045-1.309 2.047-5.917 2.243-1.476-.02-3.756-.234-1.071-.926Z" fill="#06441F"/><path d="M208.052 241.827c-1.271 1.696.616 3.596.339 5.738l.739-.714c.984-2.11 1.316-1.548 1.776-4.116.26-1.451-.553-3.988-1.261-4.562-.144-.248-.322 1.958-1.593 3.654Z" fill="#043A1A"/><path d="M203.628 244.438c2.295-.126 3.557 1.968 5.792 2.827l-1.168.31c-2.557-.301-2.419.437-5.162-.495-1.549-.526-3.625-2.417-3.833-3.247-.17-.234 2.076.732 4.371.605Z" fill="#043A1A"/><path d="M201.455 244.967c2.753-.823 4.698 1.918 7.718 2.349l-1.229.572c-3.22.362-2.566.924-6.232.549-2.07-.212-5.255-1.984-5.795-2.965-.288-.245 2.784.318 5.538-.505Z" fill="#035625"/><path d="M212.966 241.771c-2.46 1.359-3.018 3.596-4.526 5.923l1.279-.479c4.169-1.733 4.215-.362 6.179-3.094 1.108-1.543 1.524-4.821.989-5.804-.038-.35-1.462 2.095-3.921 3.454Z" fill="#035625"/><g filter="url(#filter18_d_5874_24139)"><g filter="url(#filter19_ii_5874_24139)"><path d="M218.262 267.42c-6.367-3.682-6.734-5.918-10.493-6.904.94 2.113-1.034 5.1-7.675 8.595-5.951 3.131-6.577 9.581-3.445 12.681 2.134 2.111 7.413 3.146 11.746 2.395 1.566.282 5.732.535 9.867-.704 7.832-3.382 8.772-10.991 0-16.063Z" fill="#F3EBE0"/></g><g filter="url(#filter20_i_5874_24139)"><path d="M218.262 267.42c-2.924-1.691-2.818-1.832-5.637-3.945.94 2.113 3.602 5.636 4.229 10.004.35 2.44.156 3.24-.47 5.495-.34 1.222-.522 1.972-1.566 4.086-.627 1.268-.691 1.662 3.444.423 7.831-3.382 8.772-10.991 0-16.063Z" fill="#F1E8DC"/></g><g filter="url(#filter21_i_5874_24139)"><path d="M206.831 278.269c.22-1.983 4.636-3.945 6.735-6.904 2.827-3.986.642-6.904 0-7.186-.47-.422-3.603-3.381-5.796-3.663.94 1.691 2.726 5.664-3.915 9.158-5.951 3.132-5.871 8.209-3.289 11.695.939 1.268 3.497 3.569 7.83 2.818.627-.109-2.035-1.691-1.565-5.918Z" fill="#F1EAE1"/></g><g filter="url(#filter22_ii_5874_24139)"><path d="M213.721 284.469c-3.196.359-4.87.038-5.326-.282-3.692-2.591-4.507-5.597-4.064-7.6 1.421-6.421 10.592-7.126 3.438-16.071 2 .517 4.687 2.585 6.109 3.804 8.709 7.468 6.161 19.438-.157 20.149Z" fill="#FFFAF4"/></g></g><path d="M238.775 251.502c6.248 5.555 12.555 12.165 13.928 13.555 0 0-2.905-20.93-11.819-22.44-7.462-1.264-8.358 3.331-2.109 8.885Z" fill="url(#paint11_linear_5874_24139)"/><path d="M243.932 247.907c4.535 7.313 8.84 15.635 9.791 17.401 0 0 2.883-20.629-5.331-25.037-6.877-3.69-8.995.324-4.46 7.636Z" fill="url(#paint12_linear_5874_24139)"/><g filter="url(#filter23_d_5874_24139)"><g filter="url(#filter24_i_5874_24139)"><ellipse cx="239.328" cy="266.402" rx="11.545" ry="12.507" transform="rotate(-12.1735 239.328 266.402)" fill="url(#paint13_radial_5874_24139)"/></g><g filter="url(#filter25_i_5874_24139)"><path d="M237.757 259.109c-.199.923 1.489 1.275 1.995 2.333.496 1.036-.288 1.738.432 2.668 1.02 1.315 1.985-.607 3.345.093.961.496 1.287 1.9 2.219 1.96 1.135.072.46-1.672.906-2.632.439-.947 1.922-.99 1.349-2.239-.488-1.062-1.603-.745-2.445-1.586-1.108-1.107-.694-2.846-1.989-3.471-.965-.466-1.282.452-2.231.317-.85-.12-1.536-1.111-2.226-.821-.831.35.297 1.921-.236 2.65-.313.429-.995.156-1.119.728Z" fill="url(#paint14_linear_5874_24139)"/></g><path d="M243.081 261.648c-.563-.646-1.041-1.53-.738-2.064.251-.444.762-.271 1.31.008.624.317 1.172.788 1.372 1.553.141.541.1.922-.17 1.201-.424.437-1.184-.019-1.774-.698Z" fill="#778E9D"/></g><g filter="url(#filter26_d_5874_24139)"><g filter="url(#filter27_i_5874_24139)"><ellipse cx="231.578" cy="276.502" rx="8.977" ry="9.367" transform="rotate(-109.952 231.578 276.502)" fill="url(#paint15_radial_5874_24139)"/></g><g filter="url(#filter28_i_5874_24139)"><path d="M227.449 279.09c.726.038.895-1.439 1.681-2.016.772-.566 1.363-.003 2.038-.744.954-1.048-.593-1.591-.135-2.839.324-.882 1.39-1.357 1.379-2.153-.014-.969-1.322-.151-2.092-.392-.76-.237-.885-1.484-1.816-.822-.791.562-.477 1.46-1.076 2.29-.788 1.094-2.159.991-2.562 2.173-.301.882.429 1.019.383 1.841-.04.734-.765 1.455-.497 1.997.322.652 1.468-.523 2.065-.176.35.203.182.818.632.841Z" fill="url(#paint16_linear_5874_24139)"/></g><path d="M228.596 275.051c-.419.494-1.024.946-1.455.765-.358-.151-.286-.56-.139-1.007.167-.511.456-.977 1.003-1.204.387-.16.675-.165.913.016.372.284.117.911-.322 1.43Z" fill="#778E9D"/><g filter="url(#filter29_i_5874_24139)"><path d="M228.547 275.273c-.292.346-.715.662-1.017.535-.25-.105-.2-.392-.097-.704.117-.357.319-.683.702-.842.27-.112.472-.116.638.011.26.199.082.637-.226 1Z" fill="#475863"/></g></g><g filter="url(#filter30_i_5874_24139)"><ellipse cx="255.643" cy="261.683" rx="8.362" ry="6.985" transform="rotate(-92.5506 255.643 261.683)" fill="url(#paint17_radial_5874_24139)"/></g><g filter="url(#filter31_d_5874_24139)"><g filter="url(#filter32_i_5874_24139)"><ellipse cx="267.076" cy="268.522" rx="11.282" ry="11.773" transform="rotate(-64.1517 267.076 268.522)" fill="url(#paint18_radial_5874_24139)"/></g><g filter="url(#filter33_i_5874_24139)"><path d="M261.036 267.088c.562.695 1.828-.403 2.909-.174 1.061.224 1.112 1.243 2.227 1.231 1.578-.017.733-1.891 2.059-2.531.938-.452 2.168.119 2.767-.567.729-.834-.96-1.335-1.403-2.243-.437-.895.413-2.067-.851-2.357-1.073-.246-1.503.803-2.625.96-1.477.207-2.514-1.133-3.746-.498-.918.473-.429 1.256-1.094 1.911-.594.586-1.734.535-1.93 1.239-.236.848 1.594.897 1.815 1.737.13.493-.477.861-.128 1.292Z" fill="url(#paint19_linear_5874_24139)"/></g><path d="M265.771 264.564c-.812.056-1.749-.093-1.964-.64-.178-.455.254-.748.786-1.008.606-.297 1.28-.445 1.963-.15.484.208.741.463.786.835.07.584-.719.905-1.571.963Z" fill="#778E9D"/><g filter="url(#filter34_i_5874_24139)"><path d="M265.529 264.715c-.568.038-1.223-.066-1.373-.448-.125-.318.177-.524.549-.705.424-.208.895-.311 1.373-.105.338.145.518.324.549.584.049.409-.502.633-1.098.674Z" fill="#475863"/></g></g><g filter="url(#filter35_d_5874_24139)"><g filter="url(#filter36_i_5874_24139)"><ellipse cx="254.294" cy="273.157" rx="11.282" ry="11.773" transform="rotate(-12.1735 254.294 273.157)" fill="url(#paint20_radial_5874_24139)"/></g><g filter="url(#filter37_i_5874_24139)"><path d="M251.611 267.641c.092.89 1.751.66 2.533 1.442.766.766.253 1.648 1.195 2.246 1.331.847 1.645-1.184 3.106-.997 1.032.132 1.752 1.283 2.628 1.035 1.066-.302-.076-1.644.048-2.646.122-.989 1.473-1.507.573-2.439-.766-.792-1.698-.148-2.724-.629-1.351-.632-1.489-2.32-2.868-2.461-1.027-.105-1.045.818-1.959 1.005-.818.167-1.745-.498-2.294-.015-.66.582.847 1.622.574 2.447-.16.484-.869.461-.812 1.012Z" fill="url(#paint21_linear_5874_24139)"/></g><path d="M256.956 268.109c-.711-.396-1.415-1.032-1.296-1.608.098-.478.621-.488 1.208-.416.67.082 1.315.326 1.727.945.292.438.368.793.202 1.129-.26.528-1.095.366-1.841-.05Z" fill="#778E9D"/><g filter="url(#filter38_i_5874_24139)"><path d="M256.67 268.103c-.497-.277-.99-.722-.907-1.125.069-.334.435-.341.845-.291.469.058.92.228 1.208.661.204.307.258.555.142.79-.182.369-.766.256-1.288-.035Z" fill="#475863"/></g></g><g filter="url(#filter39_i_5874_24139)"><ellipse cx="279.845" cy="275.193" rx="8.362" ry="6.199" transform="rotate(-67.5827 279.845 275.193)" fill="url(#paint22_radial_5874_24139)"/></g><g filter="url(#filter40_i_5874_24139)"><ellipse cx="287.439" cy="252.102" rx="4.798" ry="4.313" transform="rotate(-85.586 287.439 252.102)" fill="url(#paint23_radial_5874_24139)"/></g><g filter="url(#filter41_i_5874_24139)"><path d="M287.051 249.6c-.063.273.453.373.605.685.149.305-.092.514.126.787.309.387.608-.184 1.022.02.293.144.389.558.675.574.346.019.144-.495.282-.78.137-.281.591-.297.418-.665-.146-.312-.488-.216-.744-.463-.336-.324-.205-.839-.6-1.021-.294-.135-.393.136-.683.099-.259-.034-.467-.325-.679-.237-.255.105.087.566-.078.783-.097.128-.305.049-.344.218Z" fill="url(#paint24_linear_5874_24139)"/></g><path d="M288.164 250.47c-.17-.19-.314-.45-.221-.609.078-.132.234-.081.401 0 .19.092.357.23.416.455.042.16.029.273-.055.356-.13.13-.362-.003-.541-.202Z" fill="#778E9D"/><g filter="url(#filter42_d_5874_24139)"><g filter="url(#filter43_ii_5874_24139)"><path d="M230.807 278.438c-4.154-2.402-4.393-3.86-6.845-4.504.613 1.379-.675 3.328-5.007 5.607-3.882 2.043-4.291 6.25-2.247 8.273 1.392 1.377 4.835 2.052 7.662 1.562 1.022.184 3.74.349 6.437-.459 5.109-2.206 5.722-7.17 0-10.479Z" fill="#F3EBE0"/></g><g filter="url(#filter44_i_5874_24139)"><path d="M230.807 278.438c-1.907-1.103-1.838-1.195-3.677-2.573.613 1.378 2.35 3.676 2.758 6.526.229 1.592.103 2.114-.306 3.584-.222.798-.341 1.287-1.022 2.666-.408.827-.45 1.085 2.247.276 5.109-2.206 5.722-7.17 0-10.479Z" fill="#F1E8DC"/></g><g filter="url(#filter45_i_5874_24139)"><path d="M223.349 285.516c.144-1.294 3.024-2.574 4.393-4.504 1.845-2.6.42-4.504 0-4.688-.306-.276-2.35-2.206-3.78-2.39.613 1.103 1.778 3.695-2.554 5.975-3.882 2.043-3.83 5.355-2.146 7.629.613.827 2.281 2.328 5.108 1.838.409-.071-1.328-1.103-1.021-3.86Z" fill="#F1EAE1"/></g><g filter="url(#filter46_ii_5874_24139)"><path d="M227.845 289.56c-2.085.235-3.176.025-3.474-.184-2.409-1.69-2.94-3.651-2.651-4.958.927-4.188 6.91-4.649 2.243-10.484 1.304.338 3.057 1.687 3.985 2.482 5.681 4.872 4.019 12.681-.103 13.144Z" fill="#FFFAF4"/></g></g><g filter="url(#filter47_d_5874_24139)"><g filter="url(#filter48_ii_5874_24139)"><path d="M284.209 272.891c-4.153-2.402-4.393-3.86-6.845-4.503.613 1.378-.675 3.327-5.007 5.606-3.882 2.043-4.291 6.251-2.247 8.273 1.392 1.377 4.836 2.053 7.662 1.562 1.022.184 3.74.35 6.437-.459 5.109-2.206 5.722-7.17 0-10.479Z" fill="#F3EBE0"/></g><g filter="url(#filter49_i_5874_24139)"><path d="M284.209 272.892c-1.908-1.103-1.839-1.195-3.678-2.574.613 1.379 2.35 3.677 2.759 6.526.228 1.592.102 2.114-.307 3.585-.221.797-.34 1.286-1.021 2.665-.409.827-.451 1.085 2.247.276 5.108-2.206 5.722-7.169 0-10.478Z" fill="#F1E8DC"/></g><g filter="url(#filter50_i_5874_24139)"><path d="M276.751 279.969c.144-1.293 3.025-2.574 4.394-4.504 1.844-2.6.419-4.504 0-4.688-.307-.275-2.35-2.205-3.781-2.389.613 1.103 1.778 3.695-2.554 5.974-3.882 2.043-3.83 5.355-2.145 7.629.612.827 2.281 2.329 5.107 1.838.41-.071-1.327-1.103-1.021-3.86Z" fill="#F1EAE1"/></g><g filter="url(#filter51_ii_5874_24139)"><path d="M281.247 284.013c-2.086.235-3.177.025-3.475-.184-2.409-1.69-2.94-3.65-2.651-4.958.927-4.188 6.91-4.648 2.243-10.483 1.305.337 3.057 1.686 3.985 2.481 5.682 4.872 4.019 12.681-.102 13.144Z" fill="#FFFAF4"/></g></g><path d="M295.972 249.953c3.017 1.262 5.842 7.649 4.807 10.65-1.061-.01-3.384-2.675-6.226-3.674-2.842-.998-4.65-2.117-5.137-3.354-.035-.445.108-1.392.487-2.125 1.06-2.048 2.707-2.903 6.069-1.497Z" fill="url(#paint25_linear_5874_24139)"/><g filter="url(#filter52_d_5874_24139)"><g filter="url(#filter53_i_5874_24139)"><ellipse cx="10.166" cy="10.608" rx="10.166" ry="10.608" transform="matrix(-0.26814 -0.96338 -0.96338 0.26814 350.136 427.688)" fill="url(#paint26_radial_5874_24139)"/></g><g filter="url(#filter54_i_5874_24139)"><ellipse cx="10.526" cy="10.983" rx="10.526" ry="10.983" transform="matrix(-0.944899 -0.327361 -0.327361 0.944899 338.81 418.655)" fill="url(#paint27_radial_5874_24139)"/></g><g filter="url(#filter55_i_5874_24139)"><path d="M328.304 420.654c.088.83-1.471.941-2.033 1.806-.551.848.088 1.553-.655 2.282-1.051 1.031-1.731-.763-3.028-.309-.917.321-1.351 1.51-2.199 1.453-1.031-.069-.248-1.514-.555-2.405-.303-.879-1.637-1.09-.996-2.115.545-.871 1.521-.464 2.365-1.101 1.11-.838.909-2.406 2.14-2.801.918-.295 1.112.544 1.983.537.778-.005 1.496-.792 2.09-.457.716.403-.458 1.644-.05 2.344.24.41.883.252.938.766Z" fill="url(#paint28_linear_5874_24139)"/></g><path d="M323.515 422.116c.572-.499 1.092-1.215.872-1.718-.183-.417-.662-.326-1.184-.146-.595.204-1.136.552-1.393 1.197-.181.457-.182.795.034 1.07.34.431 1.071.122 1.671-.403Z" fill="#778E9D"/><g filter="url(#filter56_i_5874_24139)"><path d="M323.775 422.056c.4-.349.763-.85.609-1.202-.127-.291-.462-.227-.827-.102-.417.143-.796.386-.975.838-.127.319-.127.555.024.748.237.301.749.085 1.169-.282Z" fill="#475863"/></g></g><path d="M128.155 412.778c-2.222-1.389.347-2.893 1.91-3.472.868-.377 4.688 1.042 4.167 2.431-.521 1.389-3.299 2.778-6.077 1.041ZM132.963 423.826c-1.678-.232-4.722-.244-3.472 1.562 1.562 2.257 7.813 1.042 3.472-1.562Z" fill="#FCDA95"/><path d="m41.613 36.917-2.235 3.04v7.096l-.203 8.515.61 6.487.965 3.434 3.094 3.37 4.923 4.631 5.375 6.034 2.651 1.82 3.648-.415 10.408-2.105 10.69-2.948 10.408-1.684 8.158-2.667 4.642-1.263 3.375-3.229.703-5.474-.421-9.264.421-10.527-.562-3.93-4.642-3.368-5.626-4.211-5.063-3.65-3.517-1.684-3.657-.14-5.063 1.684-8.72 1.544-8.158 1.965-6.33 1.684-5.345 1.544-6.873 1.886-3.656 1.825Z" fill="white"/><path fill-rule="evenodd" clip-rule="evenodd" d="M108.068 39.421c.768.863 1.232 2.05 1.247 3.45l.24 21.265c.039 3.46-2.665 6.93-6.035 7.745L60.736 82.22c-3.37.815-6.137-1.332-6.176-4.792l-.24-21.265c-.038-3.46 2.666-6.93 6.036-7.744l23.503-5.68 7.061-1.708 12.219-2.953c2.005-.485 3.797.079 4.929 1.342Zm-47.182 12.84c-1.2.322-2.19 1.568-2.19 2.758s.99 1.903 2.19 1.58l.73-.196v1.446l-.73.196c-1.2.323-2.19 1.569-2.19 2.758 0 1.19.99 1.904 2.19 1.58 1.201-.322 2.19-1.568 2.19-2.758v-.723l1.46-.392v.723c0 1.19.99 1.903 2.19 1.58 1.2-.323 2.19-1.569 2.19-2.758 0-1.19-.99-1.903-2.19-1.58l-.73.196v-1.446l.73-.197c1.2-.322 2.19-1.568 2.19-2.758s-.99-1.903-2.19-1.58c-1.2.323-2.19 1.569-2.19 2.758v.723l-1.46.393v-.723c0-1.19-.989-1.904-2.19-1.58Zm11.175 18.28-1.363.05c-.172 1.067-.681 1.696-1.53 1.887-1.16.263-1.74-.341-1.74-1.812 0-1.51.565-2.394 1.695-2.65a2.475 2.475 0 0 1 1.181.005l.227 1.067 1.302-.43-.272-1.842a3.749 3.749 0 0 0-1.196-.228 4.945 4.945 0 0 0-1.212.122c-1.019.23-1.844.75-2.475 1.557-.63.807-.946 1.76-.946 2.858 0 1.118.305 1.9.916 2.346.61.446 1.4.56 2.37.34 1.029-.232 1.776-.68 2.24-1.344.464-.664.732-1.306.803-1.927Zm13.353-.587v-1.238l-1 .226v-3.249c0-.836-.231-1.398-.696-1.686-.464-.288-1.004-.362-1.62-.223a2.947 2.947 0 0 0-1.408.734c-.383.364-.676.8-.878 1.309-.161-.487-.444-.809-.848-.964-.403-.156-.858-.177-1.362-.062a2.861 2.861 0 0 0-1.287.638 3.627 3.627 0 0 0-.848 1.098V65.42l-2.62.592v1.254l1-.226v4.291l-1.014.23v1.238l3.906-.883v-1.238l-1.272.287v-2.66a2.61 2.61 0 0 1 .394-1.32c.252-.414.64-.68 1.165-.8.404-.09.72-.028.947.187.227.216.34.646.34 1.29v2.66l-.363.082v1.239l2.998-.678v-1.239l-1.015.23V67.31c.01-.466.14-.908.386-1.327.248-.418.639-.688 1.174-.809.414-.093.734-.032.961.183.227.216.34.646.34 1.29v2.66l-.378.085v1.24l2.998-.678Zm8.463-1.912v-1.24l-.999.226v-9.156l-3.088.699v1.239l1.468-.332v3.43a1.647 1.647 0 0 0-.855-.676c-.369-.133-.82-.14-1.355-.019-1.05.238-1.82.782-2.31 1.633a5.381 5.381 0 0 0-.734 2.727c0 1.057.26 1.83.78 2.316.52.487 1.224.63 2.112.43.616-.14 1.113-.395 1.492-.768.378-.373.668-.778.87-1.217v1.3l2.62-.593Zm-2.619-3.186v.514c-.01.506-.181 1.023-.515 1.552-.333.528-.777.855-1.332.98-.474.108-.88.013-1.219-.283-.338-.296-.507-.802-.507-1.517 0-.705.17-1.3.507-1.784.338-.484.78-.788 1.325-.911.484-.11.893-.036 1.226.221.334.257.505.667.515 1.228Zm3.558-1.227v1.36l3.573-.808v-1.36l-3.573.808Zm9.251-8.323a4.163 4.163 0 0 0-.954.102c-.797.18-1.428.58-1.893 1.198-.464.619-.696 1.296-.696 2.031v1.118l-.893.202v1.194l.893-.202V65.3l-1.014.23v1.238l3.906-.883v-1.238l-1.287.29v-4.35l1.711-.388v-1.193l-1.711.386v-1.344c0-.786.313-1.25.938-1.39a1.8 1.8 0 0 1 .621-.035l.318 1.03 1.272-.438-.288-1.672a1.972 1.972 0 0 0-.923-.237Z" fill="#2E2E2E"/><path d="M60.886 53.94c.413-.11.73.118.73.527v.723l-.73.196c-.412.111-.73-.118-.73-.526 0-.409.318-.809.73-.92ZM66.726 52.29c.412-.11.73.119.73.528 0 .408-.318.808-.73.919l-.73.196v-.723c0-.408.318-.808.73-.92ZM63.088 56.097l1.46-.392v1.446l-1.46.393v-1.447ZM60.886 59.49l.73-.195v.723c0 .408-.317.808-.73.919-.412.111-.73-.118-.73-.527 0-.408.318-.808.73-.92ZM65.996 58.117l.73-.197c.412-.11.73.119.73.527 0 .409-.318.809-.73.92-.412.11-.73-.119-.73-.527v-.723Z" fill="#2E2E2E"/><path fill-rule="evenodd" clip-rule="evenodd" d="M87.553 23.53c-.18.009-.605.058-.85.099-.201.034-2.415.557-11.348 2.686L59.875 30a4147.63 4147.63 0 0 0-14.613 3.494 9.035 9.035 0 0 0-2.27 1.03c-1.573 1.03-2.798 2.416-3.569 4.041-.511 1.078-.777 2.07-.86 3.211-.015.195.006 2.465.092 10.177.06 5.46.118 10.144.128 10.41.01.266.03.569.043.674.169 1.316.657 2.465 1.45 3.413.213.254 1.294 1.336 1.721 1.723.413.373 1.362 1.308 2.412 2.376.941.957 1.734 1.779 3.614 3.745l.86.898.994 1.043a332.794 332.794 0 0 0 1.505 1.576 108.18 108.18 0 0 0 1.759 1.817c.05.045.242.226.428.403.473.45.816.759 1.035.932.626.496 1.511.952 2.22 1.144.479.13.878.179 1.89.23l.217.01v-1.42l-.132.007a4.788 4.788 0 0 1-.876-.072c-.714-.132-1.474-.484-2.169-1.005a10.435 10.435 0 0 1-1.745-1.699c-.148-.18-4.258-4.501-4.947-5.203l-2.575-2.627a1763.651 1763.651 0 0 0-2.568-2.618c-1.652-1.672-1.91-1.95-2.29-2.474-.538-.741-.735-1.132-.896-1.78-.107-.43-.144-.748-.156-1.364-.006-.257-.06-4.862-.12-10.235-.113-10.109-.112-9.914-.049-10.416.147-1.16.686-2.441 1.454-3.458.27-.357.434-.544.773-.883.734-.734 1.439-1.222 2.331-1.613.27-.118.81-.301 1.078-.366l40.498-9.645a5.165 5.165 0 0 1 1.292-.173 4.473 4.473 0 0 1 2.167.445c.582.284 1.744.935 2.239 1.254.09.058 2.048 1.473 4.352 3.144 5.935 4.306 6.557 4.758 8.414 6.114 1.55 1.133 1.672 1.226 1.884 1.433.38.374.626.703.812 1.087.213.44.253.62.296 1.322.03.488.051 1.976.039 2.817l-.011.801h.041c.023 0 .297.023.61.05.313.028.574.046.578.041.005-.005.012-.754.015-1.664.004-1.389 0-1.711-.023-2.003-.107-1.38-.285-2.166-.629-2.783a4.33 4.33 0 0 0-.902-1.132l-.217-.192c-.243-.22-1.498-1.17-2.901-2.197l-.706-.517c-.744-.545-3.478-2.532-4.361-3.17a936.203 936.203 0 0 1-2.882-2.086 311.92 311.92 0 0 1-1.062-.771l-1.08-.786c-.565-.41-1.118-.831-1.25-.95-.366-.33-.993-.713-1.84-1.126-1.08-.526-1.675-.728-2.504-.847a7.39 7.39 0 0 0-1.36-.057Z" fill="#2E2E2E"/></g><defs><filter id="filter0_d_5874_24139" x="94.179" y="369.582" width="297.549" height="97.058" filterUnits="userSpaceOnUse" color-interpolation-filters="sRGB"><feFlood flood-opacity="0" result="BackgroundImageFix"/><feColorMatrix in="SourceAlpha" type="matrix" values="0 0 0 0 0 0 0 0 0 0 0 0 0 0 0 0 0 0 127 0" result="hardAlpha"/><feOffset dy="1.755"/><feGaussianBlur stdDeviation=".877"/><feComposite in2="hardAlpha" operator="out"/><feColorMatrix type="matrix" values="0 0 0 0 0 0 0 0 0 0 0 0 0 0 0 0 0 0 0.25 0"/><feBlend mode="normal" in2="BackgroundImageFix" result="effect1_dropShadow_5874_24139"/><feBlend mode="normal" in="SourceGraphic" in2="effect1_dropShadow_5874_24139" result="shape"/></filter><filter id="filter1_d_5874_24139" x="103.185" y="372.687" width="279.535" height="83.88" filterUnits="userSpaceOnUse" color-interpolation-filters="sRGB"><feFlood flood-opacity="0" result="BackgroundImageFix"/><feColorMatrix in="SourceAlpha" type="matrix" values="0 0 0 0 0 0 0 0 0 0 0 0 0 0 0 0 0 0 127 0" result="hardAlpha"/><feOffset dy=".591"/><feGaussianBlur stdDeviation="3.282"/><feComposite in2="hardAlpha" operator="out"/><feColorMatrix type="matrix" values="0 0 0 0 1 0 0 0 0 1 0 0 0 0 1 0 0 0 0.6 0"/><feBlend mode="normal" in2="BackgroundImageFix" result="effect1_dropShadow_5874_24139"/><feBlend mode="normal" in="SourceGraphic" in2="effect1_dropShadow_5874_24139" result="shape"/></filter><filter id="filter2_f_5874_24139" x="108.58" y="381.57" width="273.111" height="88.072" filterUnits="userSpaceOnUse" color-interpolation-filters="sRGB"><feFlood flood-opacity="0" result="BackgroundImageFix"/><feBlend mode="normal" in="SourceGraphic" in2="BackgroundImageFix" result="shape"/><feGaussianBlur stdDeviation="5.887" result="effect1_foregroundBlur_5874_24139"/></filter><filter id="filter3_d_5874_24139" x="256.154" y="216.411" width="57.577" height="65.396" filterUnits="userSpaceOnUse" color-interpolation-filters="sRGB"><feFlood flood-opacity="0" result="BackgroundImageFix"/><feColorMatrix in="SourceAlpha" type="matrix" values="0 0 0 0 0 0 0 0 0 0 0 0 0 0 0 0 0 0 127 0" result="hardAlpha"/><feOffset dy="1.755"/><feGaussianBlur stdDeviation=".877"/><feComposite in2="hardAlpha" operator="out"/><feColorMatrix type="matrix" values="0 0 0 0 0 0 0 0 0 0 0 0 0 0 0 0 0 0 0.25 0"/><feBlend mode="normal" in2="BackgroundImageFix" result="effect1_dropShadow_5874_24139"/><feBlend mode="normal" in="SourceGraphic" in2="effect1_dropShadow_5874_24139" result="shape"/></filter><filter id="filter4_i_5874_24139" x="268.629" y="211.119" width="26.02" height="20.189" filterUnits="userSpaceOnUse" color-interpolation-filters="sRGB"><feFlood flood-opacity="0" result="BackgroundImageFix"/><feBlend mode="normal" in="SourceGraphic" in2="BackgroundImageFix" result="shape"/><feColorMatrix in="SourceAlpha" type="matrix" values="0 0 0 0 0 0 0 0 0 0 0 0 0 0 0 0 0 0 127 0" result="hardAlpha"/><feOffset dx="1.058" dy="-5.292"/><feGaussianBlur stdDeviation="2.778"/><feComposite in2="hardAlpha" operator="arithmetic" k2="-1" k3="1"/><feColorMatrix type="matrix" values="0 0 0 0 0.788867 0 0 0 0 0.788867 0 0 0 0 0.788867 0 0 0 0.25 0"/><feBlend mode="normal" in2="shape" result="effect1_innerShadow_5874_24139"/></filter><filter id="filter5_f_5874_24139" x="285.051" y="225.805" width="2.922" height="5.634" filterUnits="userSpaceOnUse" color-interpolation-filters="sRGB"><feFlood flood-opacity="0" result="BackgroundImageFix"/><feBlend mode="normal" in="SourceGraphic" in2="BackgroundImageFix" result="shape"/><feGaussianBlur stdDeviation=".291" result="effect1_foregroundBlur_5874_24139"/></filter><filter id="filter6_f_5874_24139" x="274.526" y="224.746" width="4.351" height="7.923" filterUnits="userSpaceOnUse" color-interpolation-filters="sRGB"><feFlood flood-opacity="0" result="BackgroundImageFix"/><feBlend mode="normal" in="SourceGraphic" in2="BackgroundImageFix" result="shape"/><feGaussianBlur stdDeviation=".291" result="effect1_foregroundBlur_5874_24139"/></filter><filter id="filter7_f_5874_24139" x="273.48" y="226.592" width="4.712" height="5.682" filterUnits="userSpaceOnUse" color-interpolation-filters="sRGB"><feFlood flood-opacity="0" result="BackgroundImageFix"/><feBlend mode="normal" in="SourceGraphic" in2="BackgroundImageFix" result="shape"/><feGaussianBlur stdDeviation=".291" result="effect1_foregroundBlur_5874_24139"/></filter><filter id="filter8_f_5874_24139" x="278.533" y="226.073" width="3.633" height="6.186" filterUnits="userSpaceOnUse" color-interpolation-filters="sRGB"><feFlood flood-opacity="0" result="BackgroundImageFix"/><feBlend mode="normal" in="SourceGraphic" in2="BackgroundImageFix" result="shape"/><feGaussianBlur stdDeviation=".291" result="effect1_foregroundBlur_5874_24139"/></filter><filter id="filter9_f_5874_24139" x="284.11" y="227.282" width="2.884" height="4.821" filterUnits="userSpaceOnUse" color-interpolation-filters="sRGB"><feFlood flood-opacity="0" result="BackgroundImageFix"/><feBlend mode="normal" in="SourceGraphic" in2="BackgroundImageFix" result="shape"/><feGaussianBlur stdDeviation=".291" result="effect1_foregroundBlur_5874_24139"/></filter><filter id="filter10_f_5874_24139" x="285.249" y="227.542" width="3.353" height="4.411" filterUnits="userSpaceOnUse" color-interpolation-filters="sRGB"><feFlood flood-opacity="0" result="BackgroundImageFix"/><feBlend mode="normal" in="SourceGraphic" in2="BackgroundImageFix" result="shape"/><feGaussianBlur stdDeviation=".238" result="effect1_foregroundBlur_5874_24139"/></filter><filter id="filter11_di_5874_24139" x="279.592" y="254.104" width="8.807" height="14.561" filterUnits="userSpaceOnUse" color-interpolation-filters="sRGB"><feFlood flood-opacity="0" result="BackgroundImageFix"/><feColorMatrix in="SourceAlpha" type="matrix" values="0 0 0 0 0 0 0 0 0 0 0 0 0 0 0 0 0 0 127 0" result="hardAlpha"/><feOffset dy="2.117"/><feGaussianBlur stdDeviation="1.058"/><feComposite in2="hardAlpha" operator="out"/><feColorMatrix type="matrix" values="0 0 0 0 0 0 0 0 0 0 0 0 0 0 0 0 0 0 0.25 0"/><feBlend mode="normal" in2="BackgroundImageFix" result="effect1_dropShadow_5874_24139"/><feBlend mode="normal" in="SourceGraphic" in2="effect1_dropShadow_5874_24139" result="shape"/><feColorMatrix in="SourceAlpha" type="matrix" values="0 0 0 0 0 0 0 0 0 0 0 0 0 0 0 0 0 0 127 0" result="hardAlpha"/><feOffset dy="1.588"/><feGaussianBlur stdDeviation="2.011"/><feComposite in2="hardAlpha" operator="arithmetic" k2="-1" k3="1"/><feColorMatrix type="matrix" values="0 0 0 0 0 0 0 0 0 0 0 0 0 0 0 0 0 0 0.25 0"/><feBlend mode="normal" in2="shape" result="effect2_innerShadow_5874_24139"/></filter><filter id="filter12_di_5874_24139" x="275.409" y="254.482" width="7.607" height="11.049" filterUnits="userSpaceOnUse" color-interpolation-filters="sRGB"><feFlood flood-opacity="0" result="BackgroundImageFix"/><feColorMatrix in="SourceAlpha" type="matrix" values="0 0 0 0 0 0 0 0 0 0 0 0 0 0 0 0 0 0 127 0" result="hardAlpha"/><feOffset dy="2.117"/><feGaussianBlur stdDeviation="1.058"/><feComposite in2="hardAlpha" operator="out"/><feColorMatrix type="matrix" values="0 0 0 0 0 0 0 0 0 0 0 0 0 0 0 0 0 0 0.25 0"/><feBlend mode="normal" in2="BackgroundImageFix" result="effect1_dropShadow_5874_24139"/><feBlend mode="normal" in="SourceGraphic" in2="effect1_dropShadow_5874_24139" result="shape"/><feColorMatrix in="SourceAlpha" type="matrix" values="0 0 0 0 0 0 0 0 0 0 0 0 0 0 0 0 0 0 127 0" result="hardAlpha"/><feOffset dy="1.588"/><feGaussianBlur stdDeviation="2.011"/><feComposite in2="hardAlpha" operator="arithmetic" k2="-1" k3="1"/><feColorMatrix type="matrix" values="0 0 0 0 0 0 0 0 0 0 0 0 0 0 0 0 0 0 0.25 0"/><feBlend mode="normal" in2="shape" result="effect2_innerShadow_5874_24139"/></filter><filter id="filter13_i_5874_24139" x="282.72" y="246.786" width="16.271" height="8.077" filterUnits="userSpaceOnUse" color-interpolation-filters="sRGB"><feFlood flood-opacity="0" result="BackgroundImageFix"/><feBlend mode="normal" in="SourceGraphic" in2="BackgroundImageFix" result="shape"/><feColorMatrix in="SourceAlpha" type="matrix" values="0 0 0 0 0 0 0 0 0 0 0 0 0 0 0 0 0 0 127 0" result="hardAlpha"/><feOffset dy="1.058"/><feGaussianBlur stdDeviation="1.058"/><feComposite in2="hardAlpha" operator="arithmetic" k2="-1" k3="1"/><feColorMatrix type="matrix" values="0 0 0 0 0 0 0 0 0 0 0 0 0 0 0 0 0 0 0.25 0"/><feBlend mode="normal" in2="shape" result="effect1_innerShadow_5874_24139"/></filter><filter id="filter14_i_5874_24139" x="264.283" y="247.162" width="15.99" height="8.071" filterUnits="userSpaceOnUse" color-interpolation-filters="sRGB"><feFlood flood-opacity="0" result="BackgroundImageFix"/><feBlend mode="normal" in="SourceGraphic" in2="BackgroundImageFix" result="shape"/><feColorMatrix in="SourceAlpha" type="matrix" values="0 0 0 0 0 0 0 0 0 0 0 0 0 0 0 0 0 0 127 0" result="hardAlpha"/><feOffset dy="1.058"/><feGaussianBlur stdDeviation="1.058"/><feComposite in2="hardAlpha" operator="arithmetic" k2="-1" k3="1"/><feColorMatrix type="matrix" values="0 0 0 0 0 0 0 0 0 0 0 0 0 0 0 0 0 0 0.25 0"/><feBlend mode="normal" in2="shape" result="effect1_innerShadow_5874_24139"/></filter><filter id="filter15_f_5874_24139" x="284.883" y="217.776" width="7.513" height="5.57" filterUnits="userSpaceOnUse" color-interpolation-filters="sRGB"><feFlood flood-opacity="0" result="BackgroundImageFix"/><feBlend mode="normal" in="SourceGraphic" in2="BackgroundImageFix" result="shape"/><feGaussianBlur stdDeviation=".609" result="effect1_foregroundBlur_5874_24139"/></filter><filter id="filter16_f_5874_24139" x="269.833" y="217.631" width="5.538" height="4.069" filterUnits="userSpaceOnUse" color-interpolation-filters="sRGB"><feFlood flood-opacity="0" result="BackgroundImageFix"/><feBlend mode="normal" in="SourceGraphic" in2="BackgroundImageFix" result="shape"/><feGaussianBlur stdDeviation=".609" result="effect1_foregroundBlur_5874_24139"/></filter><filter id="filter17_i_5874_24139" x="279.639" y="252.735" width="3.571" height="4.864" filterUnits="userSpaceOnUse" color-interpolation-filters="sRGB"><feFlood flood-opacity="0" result="BackgroundImageFix"/><feBlend mode="normal" in="SourceGraphic" in2="BackgroundImageFix" result="shape"/><feColorMatrix in="SourceAlpha" type="matrix" values="0 0 0 0 0 0 0 0 0 0 0 0 0 0 0 0 0 0 127 0" result="hardAlpha"/><feOffset dy="2.117"/><feGaussianBlur stdDeviation="1.217"/><feComposite in2="hardAlpha" operator="arithmetic" k2="-1" k3="1"/><feColorMatrix type="matrix" values="0 0 0 0 0 0 0 0 0 0 0 0 0 0 0 0 0 0 0.25 0"/><feBlend mode="normal" in2="shape" result="effect1_innerShadow_5874_24139"/></filter><filter id="filter18_d_5874_24139" x="193.915" y="259.639" width="33.21" height="27.62" filterUnits="userSpaceOnUse" color-interpolation-filters="sRGB"><feFlood flood-opacity="0" result="BackgroundImageFix"/><feColorMatrix in="SourceAlpha" type="matrix" values="0 0 0 0 0 0 0 0 0 0 0 0 0 0 0 0 0 0 127 0" result="hardAlpha"/><feOffset dx=".877" dy=".877"/><feGaussianBlur stdDeviation=".877"/><feComposite in2="hardAlpha" operator="out"/><feColorMatrix type="matrix" values="0 0 0 0 0 0 0 0 0 0 0 0 0 0 0 0 0 0 0.25 0"/><feBlend mode="normal" in2="BackgroundImageFix" result="effect1_dropShadow_5874_24139"/><feBlend mode="normal" in="SourceGraphic" in2="effect1_dropShadow_5874_24139" result="shape"/></filter><filter id="filter19_ii_5874_24139" x="192.528" y="260.516" width="34.229" height="23.915" filterUnits="userSpaceOnUse" color-interpolation-filters="sRGB"><feFlood flood-opacity="0" result="BackgroundImageFix"/><feBlend mode="normal" in="SourceGraphic" in2="BackgroundImageFix" result="shape"/><feColorMatrix in="SourceAlpha" type="matrix" values="0 0 0 0 0 0 0 0 0 0 0 0 0 0 0 0 0 0 127 0" result="hardAlpha"/><feOffset dx="2.264"/><feGaussianBlur stdDeviation="1.698"/><feComposite in2="hardAlpha" operator="arithmetic" k2="-1" k3="1"/><feColorMatrix type="matrix" values="0 0 0 0 0.295687 0 0 0 0 0.1947 0 0 0 0 0.0774253 0 0 0 0.25 0"/><feBlend mode="normal" in2="shape" result="effect1_innerShadow_5874_24139"/><feColorMatrix in="SourceAlpha" type="matrix" values="0 0 0 0 0 0 0 0 0 0 0 0 0 0 0 0 0 0 127 0" result="hardAlpha"/><feOffset dx="-2.264"/><feGaussianBlur stdDeviation="1.132"/><feComposite in2="hardAlpha" operator="arithmetic" k2="-1" k3="1"/><feColorMatrix type="matrix" values="0 0 0 0 0 0 0 0 0 0 0 0 0 0 0 0 0 0 0.25 0"/><feBlend mode="normal" in2="effect1_innerShadow_5874_24139" result="effect2_innerShadow_5874_24139"/></filter><filter id="filter20_i_5874_24139" x="210.361" y="263.475" width="14.132" height="20.761" filterUnits="userSpaceOnUse" color-interpolation-filters="sRGB"><feFlood flood-opacity="0" result="BackgroundImageFix"/><feBlend mode="normal" in="SourceGraphic" in2="BackgroundImageFix" result="shape"/><feColorMatrix in="SourceAlpha" type="matrix" values="0 0 0 0 0 0 0 0 0 0 0 0 0 0 0 0 0 0 127 0" result="hardAlpha"/><feOffset dx="-2.264"/><feGaussianBlur stdDeviation="1.132"/><feComposite in2="hardAlpha" operator="arithmetic" k2="-1" k3="1"/><feColorMatrix type="matrix" values="0 0 0 0 0.7771 0 0 0 0 0.723148 0 0 0 0 0.653781 0 0 0 1 0"/><feBlend mode="normal" in2="shape" result="effect1_innerShadow_5874_24139"/></filter><filter id="filter21_i_5874_24139" x="198.895" y="260.516" width="18.347" height="23.819" filterUnits="userSpaceOnUse" color-interpolation-filters="sRGB"><feFlood flood-opacity="0" result="BackgroundImageFix"/><feBlend mode="normal" in="SourceGraphic" in2="BackgroundImageFix" result="shape"/><feColorMatrix in="SourceAlpha" type="matrix" values="0 0 0 0 0 0 0 0 0 0 0 0 0 0 0 0 0 0 127 0" result="hardAlpha"/><feOffset dx="2.264"/><feGaussianBlur stdDeviation="1.698"/><feComposite in2="hardAlpha" operator="arithmetic" k2="-1" k3="1"/><feColorMatrix type="matrix" values="0 0 0 0 0.81862 0 0 0 0 0.766443 0 0 0 0 0.70478 0 0 0 1 0"/><feBlend mode="normal" in2="shape" result="effect1_innerShadow_5874_24139"/></filter><filter id="filter22_ii_5874_24139" x="201.958" y="260.516" width="19.785" height="24.111" filterUnits="userSpaceOnUse" color-interpolation-filters="sRGB"><feFlood flood-opacity="0" result="BackgroundImageFix"/><feBlend mode="normal" in="SourceGraphic" in2="BackgroundImageFix" result="shape"/><feColorMatrix in="SourceAlpha" type="matrix" values="0 0 0 0 0 0 0 0 0 0 0 0 0 0 0 0 0 0 127 0" result="hardAlpha"/><feOffset dx="2.264"/><feGaussianBlur stdDeviation="1.698"/><feComposite in2="hardAlpha" operator="arithmetic" k2="-1" k3="1"/><feColorMatrix type="matrix" values="0 0 0 0 0.831373 0 0 0 0 0.788235 0 0 0 0 0.737255 0 0 0 1 0"/><feBlend mode="normal" in2="shape" result="effect1_innerShadow_5874_24139"/><feColorMatrix in="SourceAlpha" type="matrix" values="0 0 0 0 0 0 0 0 0 0 0 0 0 0 0 0 0 0 127 0" result="hardAlpha"/><feOffset dx="-2.264"/><feGaussianBlur stdDeviation="1.132"/><feComposite in2="hardAlpha" operator="arithmetic" k2="-1" k3="1"/><feColorMatrix type="matrix" values="0 0 0 0 0.83291 0 0 0 0 0.789178 0 0 0 0 0.7367 0 0 0 1 0"/><feBlend mode="normal" in2="effect1_innerShadow_5874_24139" result="effect2_innerShadow_5874_24139"/></filter><filter id="filter23_d_5874_24139" x="227.736" y="253.933" width="27.132" height="28.446" filterUnits="userSpaceOnUse" color-interpolation-filters="sRGB"><feFlood flood-opacity="0" result="BackgroundImageFix"/><feColorMatrix in="SourceAlpha" type="matrix" values="0 0 0 0 0 0 0 0 0 0 0 0 0 0 0 0 0 0 127 0" result="hardAlpha"/><feOffset dx="2.193" dy="1.755"/><feGaussianBlur stdDeviation=".877"/><feComposite in2="hardAlpha" operator="out"/><feColorMatrix type="matrix" values="0 0 0 0 0 0 0 0 0 0 0 0 0 0 0 0 0 0 0.25 0"/><feBlend mode="normal" in2="BackgroundImageFix" result="effect1_dropShadow_5874_24139"/><feBlend mode="normal" in="SourceGraphic" in2="effect1_dropShadow_5874_24139" result="shape"/></filter><filter id="filter24_i_5874_24139" x="226.149" y="252.081" width="24.772" height="26.789" filterUnits="userSpaceOnUse" color-interpolation-filters="sRGB"><feFlood flood-opacity="0" result="BackgroundImageFix"/><feBlend mode="normal" in="SourceGraphic" in2="BackgroundImageFix" result="shape"/><feColorMatrix in="SourceAlpha" type="matrix" values="0 0 0 0 0 0 0 0 0 0 0 0 0 0 0 0 0 0 127 0" result="hardAlpha"/><feOffset dx="-1.588" dy="-2.646"/><feGaussianBlur stdDeviation=".926"/><feComposite in2="hardAlpha" operator="arithmetic" k2="-1" k3="1"/><feColorMatrix type="matrix" values="0 0 0 0 0 0 0 0 0 0 0 0 0 0 0 0 0 0 0.25 0"/><feBlend mode="normal" in2="shape" result="effect1_innerShadow_5874_24139"/></filter><filter id="filter25_i_5874_24139" x="237.741" y="255.678" width="10.392" height="10.487" filterUnits="userSpaceOnUse" color-interpolation-filters="sRGB"><feFlood flood-opacity="0" result="BackgroundImageFix"/><feBlend mode="normal" in="SourceGraphic" in2="BackgroundImageFix" result="shape"/><feColorMatrix in="SourceAlpha" type="matrix" values="0 0 0 0 0 0 0 0 0 0 0 0 0 0 0 0 0 0 127 0" result="hardAlpha"/><feOffset/><feGaussianBlur stdDeviation=".185"/><feComposite in2="hardAlpha" operator="arithmetic" k2="-1" k3="1"/><feColorMatrix type="matrix" values="0 0 0 0 1 0 0 0 0 1 0 0 0 0 1 0 0 0 0.25 0"/><feBlend mode="normal" in2="shape" result="effect1_innerShadow_5874_24139"/></filter><filter id="filter26_d_5874_24139" x="221.814" y="266.599" width="22.16" height="21.561" filterUnits="userSpaceOnUse" color-interpolation-filters="sRGB"><feFlood flood-opacity="0" result="BackgroundImageFix"/><feColorMatrix in="SourceAlpha" type="matrix" values="0 0 0 0 0 0 0 0 0 0 0 0 0 0 0 0 0 0 127 0" result="hardAlpha"/><feOffset dx="1.316" dy=".877"/><feGaussianBlur stdDeviation=".877"/><feComposite in2="hardAlpha" operator="out"/><feColorMatrix type="matrix" values="0 0 0 0 0 0 0 0 0 0 0 0 0 0 0 0 0 0 0.25 0"/><feBlend mode="normal" in2="BackgroundImageFix" result="effect1_dropShadow_5874_24139"/><feBlend mode="normal" in="SourceGraphic" in2="effect1_dropShadow_5874_24139" result="shape"/></filter><filter id="filter27_i_5874_24139" x="220.665" y="265.624" width="20.238" height="19.904" filterUnits="userSpaceOnUse" color-interpolation-filters="sRGB"><feFlood flood-opacity="0" result="BackgroundImageFix"/><feBlend mode="normal" in="SourceGraphic" in2="BackgroundImageFix" result="shape"/><feColorMatrix in="SourceAlpha" type="matrix" values="0 0 0 0 0 0 0 0 0 0 0 0 0 0 0 0 0 0 127 0" result="hardAlpha"/><feOffset dx="-1.588" dy="-2.646"/><feGaussianBlur stdDeviation=".926"/><feComposite in2="hardAlpha" operator="arithmetic" k2="-1" k3="1"/><feColorMatrix type="matrix" values="0 0 0 0 0 0 0 0 0 0 0 0 0 0 0 0 0 0 0.25 0"/><feBlend mode="normal" in2="shape" result="effect1_innerShadow_5874_24139"/></filter><filter id="filter28_i_5874_24139" x="224.692" y="269.932" width="7.72" height="9.159" filterUnits="userSpaceOnUse" color-interpolation-filters="sRGB"><feFlood flood-opacity="0" result="BackgroundImageFix"/><feBlend mode="normal" in="SourceGraphic" in2="BackgroundImageFix" result="shape"/><feColorMatrix in="SourceAlpha" type="matrix" values="0 0 0 0 0 0 0 0 0 0 0 0 0 0 0 0 0 0 127 0" result="hardAlpha"/><feOffset/><feGaussianBlur stdDeviation=".185"/><feComposite in2="hardAlpha" operator="arithmetic" k2="-1" k3="1"/><feColorMatrix type="matrix" values="0 0 0 0 1 0 0 0 0 1 0 0 0 0 1 0 0 0 0.25 0"/><feBlend mode="normal" in2="shape" result="effect1_innerShadow_5874_24139"/></filter><filter id="filter29_i_5874_24139" x="227.349" y="274.178" width="1.55" height="1.659" filterUnits="userSpaceOnUse" color-interpolation-filters="sRGB"><feFlood flood-opacity="0" result="BackgroundImageFix"/><feBlend mode="normal" in="SourceGraphic" in2="BackgroundImageFix" result="shape"/><feColorMatrix in="SourceAlpha" type="matrix" values="0 0 0 0 0 0 0 0 0 0 0 0 0 0 0 0 0 0 127 0" result="hardAlpha"/><feOffset dy="2.646"/><feGaussianBlur stdDeviation=".423"/><feComposite in2="hardAlpha" operator="arithmetic" k2="-1" k3="1"/><feColorMatrix type="matrix" values="0 0 0 0 0 0 0 0 0 0 0 0 0 0 0 0 0 0 0.25 0"/><feBlend mode="normal" in2="shape" result="effect1_innerShadow_5874_24139"/></filter><filter id="filter30_i_5874_24139" x="247.068" y="251.472" width="15.564" height="18.571" filterUnits="userSpaceOnUse" color-interpolation-filters="sRGB"><feFlood flood-opacity="0" result="BackgroundImageFix"/><feBlend mode="normal" in="SourceGraphic" in2="BackgroundImageFix" result="shape"/><feColorMatrix in="SourceAlpha" type="matrix" values="0 0 0 0 0 0 0 0 0 0 0 0 0 0 0 0 0 0 127 0" result="hardAlpha"/><feOffset dx="-1.588" dy="-2.646"/><feGaussianBlur stdDeviation=".926"/><feComposite in2="hardAlpha" operator="arithmetic" k2="-1" k3="1"/><feColorMatrix type="matrix" values="0 0 0 0 0 0 0 0 0 0 0 0 0 0 0 0 0 0 0.25 0"/><feBlend mode="normal" in2="shape" result="effect1_innerShadow_5874_24139"/></filter><filter id="filter31_d_5874_24139" x="253.276" y="257.143" width="27.601" height="26.992" filterUnits="userSpaceOnUse" color-interpolation-filters="sRGB"><feFlood flood-opacity="0" result="BackgroundImageFix"/><feColorMatrix in="SourceAlpha" type="matrix" values="0 0 0 0 0 0 0 0 0 0 0 0 0 0 0 0 0 0 127 0" result="hardAlpha"/><feOffset dy="2.117"/><feGaussianBlur stdDeviation="1.058"/><feComposite in2="hardAlpha" operator="out"/><feColorMatrix type="matrix" values="0 0 0 0 0 0 0 0 0 0 0 0 0 0 0 0 0 0 0.25 0"/><feBlend mode="normal" in2="BackgroundImageFix" result="effect1_dropShadow_5874_24139"/><feBlend mode="normal" in="SourceGraphic" in2="effect1_dropShadow_5874_24139" result="shape"/></filter><filter id="filter32_i_5874_24139" x="253.805" y="255.291" width="24.955" height="24.611" filterUnits="userSpaceOnUse" color-interpolation-filters="sRGB"><feFlood flood-opacity="0" result="BackgroundImageFix"/><feBlend mode="normal" in="SourceGraphic" in2="BackgroundImageFix" result="shape"/><feColorMatrix in="SourceAlpha" type="matrix" values="0 0 0 0 0 0 0 0 0 0 0 0 0 0 0 0 0 0 127 0" result="hardAlpha"/><feOffset dx="-1.588" dy="-2.646"/><feGaussianBlur stdDeviation=".926"/><feComposite in2="hardAlpha" operator="arithmetic" k2="-1" k3="1"/><feColorMatrix type="matrix" values="0 0 0 0 0 0 0 0 0 0 0 0 0 0 0 0 0 0 0.25 0"/><feBlend mode="normal" in2="shape" result="effect1_innerShadow_5874_24139"/></filter><filter id="filter33_i_5874_24139" x="259.328" y="260.41" width="11.851" height="7.735" filterUnits="userSpaceOnUse" color-interpolation-filters="sRGB"><feFlood flood-opacity="0" result="BackgroundImageFix"/><feBlend mode="normal" in="SourceGraphic" in2="BackgroundImageFix" result="shape"/><feColorMatrix in="SourceAlpha" type="matrix" values="0 0 0 0 0 0 0 0 0 0 0 0 0 0 0 0 0 0 127 0" result="hardAlpha"/><feOffset/><feGaussianBlur stdDeviation=".185"/><feComposite in2="hardAlpha" operator="arithmetic" k2="-1" k3="1"/><feColorMatrix type="matrix" values="0 0 0 0 1 0 0 0 0 1 0 0 0 0 1 0 0 0 0.25 0"/><feBlend mode="normal" in2="shape" result="effect1_innerShadow_5874_24139"/></filter><filter id="filter34_i_5874_24139" x="264.127" y="263.345" width="2.503" height="1.377" filterUnits="userSpaceOnUse" color-interpolation-filters="sRGB"><feFlood flood-opacity="0" result="BackgroundImageFix"/><feBlend mode="normal" in="SourceGraphic" in2="BackgroundImageFix" result="shape"/><feColorMatrix in="SourceAlpha" type="matrix" values="0 0 0 0 0 0 0 0 0 0 0 0 0 0 0 0 0 0 127 0" result="hardAlpha"/><feOffset dy="2.646"/><feGaussianBlur stdDeviation=".423"/><feComposite in2="hardAlpha" operator="arithmetic" k2="-1" k3="1"/><feColorMatrix type="matrix" values="0 0 0 0 0 0 0 0 0 0 0 0 0 0 0 0 0 0 0.25 0"/><feBlend mode="normal" in2="shape" result="effect1_innerShadow_5874_24139"/></filter><filter id="filter35_d_5874_24139" x="240.871" y="261.403" width="26.847" height="27.74" filterUnits="userSpaceOnUse" color-interpolation-filters="sRGB"><feFlood flood-opacity="0" result="BackgroundImageFix"/><feColorMatrix in="SourceAlpha" type="matrix" values="0 0 0 0 0 0 0 0 0 0 0 0 0 0 0 0 0 0 127 0" result="hardAlpha"/><feOffset dy="2.117"/><feGaussianBlur stdDeviation="1.058"/><feComposite in2="hardAlpha" operator="out"/><feColorMatrix type="matrix" values="0 0 0 0 0 0 0 0 0 0 0 0 0 0 0 0 0 0 0.25 0"/><feBlend mode="normal" in2="BackgroundImageFix" result="effect1_dropShadow_5874_24139"/><feBlend mode="normal" in="SourceGraphic" in2="effect1_dropShadow_5874_24139" result="shape"/></filter><filter id="filter36_i_5874_24139" x="241.4" y="259.551" width="24.201" height="25.359" filterUnits="userSpaceOnUse" color-interpolation-filters="sRGB"><feFlood flood-opacity="0" result="BackgroundImageFix"/><feBlend mode="normal" in="SourceGraphic" in2="BackgroundImageFix" result="shape"/><feColorMatrix in="SourceAlpha" type="matrix" values="0 0 0 0 0 0 0 0 0 0 0 0 0 0 0 0 0 0 127 0" result="hardAlpha"/><feOffset dx="-1.588" dy="-2.646"/><feGaussianBlur stdDeviation=".926"/><feComposite in2="hardAlpha" operator="arithmetic" k2="-1" k3="1"/><feColorMatrix type="matrix" values="0 0 0 0 0 0 0 0 0 0 0 0 0 0 0 0 0 0 0.25 0"/><feBlend mode="normal" in2="shape" result="effect1_innerShadow_5874_24139"/></filter><filter id="filter37_i_5874_24139" x="251.607" y="263.184" width="10.394" height="8.353" filterUnits="userSpaceOnUse" color-interpolation-filters="sRGB"><feFlood flood-opacity="0" result="BackgroundImageFix"/><feBlend mode="normal" in="SourceGraphic" in2="BackgroundImageFix" result="shape"/><feColorMatrix in="SourceAlpha" type="matrix" values="0 0 0 0 0 0 0 0 0 0 0 0 0 0 0 0 0 0 127 0" result="hardAlpha"/><feOffset/><feGaussianBlur stdDeviation=".185"/><feComposite in2="hardAlpha" operator="arithmetic" k2="-1" k3="1"/><feColorMatrix type="matrix" values="0 0 0 0 1 0 0 0 0 1 0 0 0 0 1 0 0 0 0.25 0"/><feBlend mode="normal" in2="shape" result="effect1_innerShadow_5874_24139"/></filter><filter id="filter38_i_5874_24139" x="255.754" y="266.664" width="2.265" height="1.707" filterUnits="userSpaceOnUse" color-interpolation-filters="sRGB"><feFlood flood-opacity="0" result="BackgroundImageFix"/><feBlend mode="normal" in="SourceGraphic" in2="BackgroundImageFix" result="shape"/><feColorMatrix in="SourceAlpha" type="matrix" values="0 0 0 0 0 0 0 0 0 0 0 0 0 0 0 0 0 0 127 0" result="hardAlpha"/><feOffset dy="2.646"/><feGaussianBlur stdDeviation=".423"/><feComposite in2="hardAlpha" operator="arithmetic" k2="-1" k3="1"/><feColorMatrix type="matrix" values="0 0 0 0 0 0 0 0 0 0 0 0 0 0 0 0 0 0 0.25 0"/><feBlend mode="normal" in2="shape" result="effect1_innerShadow_5874_24139"/></filter><filter id="filter39_i_5874_24139" x="271.699" y="265.256" width="14.705" height="18.023" filterUnits="userSpaceOnUse" color-interpolation-filters="sRGB"><feFlood flood-opacity="0" result="BackgroundImageFix"/><feBlend mode="normal" in="SourceGraphic" in2="BackgroundImageFix" result="shape"/><feColorMatrix in="SourceAlpha" type="matrix" values="0 0 0 0 0 0 0 0 0 0 0 0 0 0 0 0 0 0 127 0" result="hardAlpha"/><feOffset dx="-1.588" dy="-2.646"/><feGaussianBlur stdDeviation=".926"/><feComposite in2="hardAlpha" operator="arithmetic" k2="-1" k3="1"/><feColorMatrix type="matrix" values="0 0 0 0 0 0 0 0 0 0 0 0 0 0 0 0 0 0 0.25 0"/><feBlend mode="normal" in2="shape" result="effect1_innerShadow_5874_24139"/></filter><filter id="filter40_i_5874_24139" x="281.535" y="245.455" width="10.22" height="11.442" filterUnits="userSpaceOnUse" color-interpolation-filters="sRGB"><feFlood flood-opacity="0" result="BackgroundImageFix"/><feBlend mode="normal" in="SourceGraphic" in2="BackgroundImageFix" result="shape"/><feColorMatrix in="SourceAlpha" type="matrix" values="0 0 0 0 0 0 0 0 0 0 0 0 0 0 0 0 0 0 127 0" result="hardAlpha"/><feOffset dx="-1.588" dy="-2.646"/><feGaussianBlur stdDeviation=".926"/><feComposite in2="hardAlpha" operator="arithmetic" k2="-1" k3="1"/><feColorMatrix type="matrix" values="0 0 0 0 0 0 0 0 0 0 0 0 0 0 0 0 0 0 0.25 0"/><feBlend mode="normal" in2="shape" result="effect1_innerShadow_5874_24139"/></filter><filter id="filter41_i_5874_24139" x="287.046" y="248.582" width="3.172" height="3.084" filterUnits="userSpaceOnUse" color-interpolation-filters="sRGB"><feFlood flood-opacity="0" result="BackgroundImageFix"/><feBlend mode="normal" in="SourceGraphic" in2="BackgroundImageFix" result="shape"/><feColorMatrix in="SourceAlpha" type="matrix" values="0 0 0 0 0 0 0 0 0 0 0 0 0 0 0 0 0 0 127 0" result="hardAlpha"/><feOffset/><feGaussianBlur stdDeviation=".185"/><feComposite in2="hardAlpha" operator="arithmetic" k2="-1" k3="1"/><feColorMatrix type="matrix" values="0 0 0 0 1 0 0 0 0 1 0 0 0 0 1 0 0 0 0.25 0"/><feBlend mode="normal" in2="shape" result="effect1_innerShadow_5874_24139"/></filter><filter id="filter42_d_5874_24139" x="214.924" y="273.362" width="21.665" height="18.018" filterUnits="userSpaceOnUse" color-interpolation-filters="sRGB"><feFlood flood-opacity="0" result="BackgroundImageFix"/><feColorMatrix in="SourceAlpha" type="matrix" values="0 0 0 0 0 0 0 0 0 0 0 0 0 0 0 0 0 0 127 0" result="hardAlpha"/><feOffset dx=".572" dy=".572"/><feGaussianBlur stdDeviation=".572"/><feComposite in2="hardAlpha" operator="out"/><feColorMatrix type="matrix" values="0 0 0 0 0 0 0 0 0 0 0 0 0 0 0 0 0 0 0.25 0"/><feBlend mode="normal" in2="BackgroundImageFix" result="effect1_dropShadow_5874_24139"/><feBlend mode="normal" in="SourceGraphic" in2="effect1_dropShadow_5874_24139" result="shape"/></filter><filter id="filter43_ii_5874_24139" x="214.019" y="273.934" width="22.329" height="15.601" filterUnits="userSpaceOnUse" color-interpolation-filters="sRGB"><feFlood flood-opacity="0" result="BackgroundImageFix"/><feBlend mode="normal" in="SourceGraphic" in2="BackgroundImageFix" result="shape"/><feColorMatrix in="SourceAlpha" type="matrix" values="0 0 0 0 0 0 0 0 0 0 0 0 0 0 0 0 0 0 127 0" result="hardAlpha"/><feOffset dx="1.477"/><feGaussianBlur stdDeviation="1.108"/><feComposite in2="hardAlpha" operator="arithmetic" k2="-1" k3="1"/><feColorMatrix type="matrix" values="0 0 0 0 0.295687 0 0 0 0 0.1947 0 0 0 0 0.0774253 0 0 0 0.25 0"/><feBlend mode="normal" in2="shape" result="effect1_innerShadow_5874_24139"/><feColorMatrix in="SourceAlpha" type="matrix" values="0 0 0 0 0 0 0 0 0 0 0 0 0 0 0 0 0 0 127 0" result="hardAlpha"/><feOffset dx="-1.477"/><feGaussianBlur stdDeviation=".738"/><feComposite in2="hardAlpha" operator="arithmetic" k2="-1" k3="1"/><feColorMatrix type="matrix" values="0 0 0 0 0 0 0 0 0 0 0 0 0 0 0 0 0 0 0.25 0"/><feBlend mode="normal" in2="effect1_innerShadow_5874_24139" result="effect2_innerShadow_5874_24139"/></filter><filter id="filter44_i_5874_24139" x="225.653" y="275.865" width="9.219" height="13.544" filterUnits="userSpaceOnUse" color-interpolation-filters="sRGB"><feFlood flood-opacity="0" result="BackgroundImageFix"/><feBlend mode="normal" in="SourceGraphic" in2="BackgroundImageFix" result="shape"/><feColorMatrix in="SourceAlpha" type="matrix" values="0 0 0 0 0 0 0 0 0 0 0 0 0 0 0 0 0 0 127 0" result="hardAlpha"/><feOffset dx="-1.477"/><feGaussianBlur stdDeviation=".738"/><feComposite in2="hardAlpha" operator="arithmetic" k2="-1" k3="1"/><feColorMatrix type="matrix" values="0 0 0 0 0.7771 0 0 0 0 0.723148 0 0 0 0 0.653781 0 0 0 1 0"/><feBlend mode="normal" in2="shape" result="effect1_innerShadow_5874_24139"/></filter><filter id="filter45_i_5874_24139" x="218.172" y="273.934" width="11.969" height="15.538" filterUnits="userSpaceOnUse" color-interpolation-filters="sRGB"><feFlood flood-opacity="0" result="BackgroundImageFix"/><feBlend mode="normal" in="SourceGraphic" in2="BackgroundImageFix" result="shape"/><feColorMatrix in="SourceAlpha" type="matrix" values="0 0 0 0 0 0 0 0 0 0 0 0 0 0 0 0 0 0 127 0" result="hardAlpha"/><feOffset dx="1.477"/><feGaussianBlur stdDeviation="1.108"/><feComposite in2="hardAlpha" operator="arithmetic" k2="-1" k3="1"/><feColorMatrix type="matrix" values="0 0 0 0 0.81862 0 0 0 0 0.766443 0 0 0 0 0.70478 0 0 0 1 0"/><feBlend mode="normal" in2="shape" result="effect1_innerShadow_5874_24139"/></filter><filter id="filter46_ii_5874_24139" x="220.172" y="273.934" width="12.908" height="15.729" filterUnits="userSpaceOnUse" color-interpolation-filters="sRGB"><feFlood flood-opacity="0" result="BackgroundImageFix"/><feBlend mode="normal" in="SourceGraphic" in2="BackgroundImageFix" result="shape"/><feColorMatrix in="SourceAlpha" type="matrix" values="0 0 0 0 0 0 0 0 0 0 0 0 0 0 0 0 0 0 127 0" result="hardAlpha"/><feOffset dx="1.477"/><feGaussianBlur stdDeviation="1.108"/><feComposite in2="hardAlpha" operator="arithmetic" k2="-1" k3="1"/><feColorMatrix type="matrix" values="0 0 0 0 0.831373 0 0 0 0 0.788235 0 0 0 0 0.737255 0 0 0 1 0"/><feBlend mode="normal" in2="shape" result="effect1_innerShadow_5874_24139"/><feColorMatrix in="SourceAlpha" type="matrix" values="0 0 0 0 0 0 0 0 0 0 0 0 0 0 0 0 0 0 127 0" result="hardAlpha"/><feOffset dx="-1.477"/><feGaussianBlur stdDeviation=".738"/><feComposite in2="hardAlpha" operator="arithmetic" k2="-1" k3="1"/><feColorMatrix type="matrix" values="0 0 0 0 0.83291 0 0 0 0 0.789178 0 0 0 0 0.7367 0 0 0 1 0"/><feBlend mode="normal" in2="effect1_innerShadow_5874_24139" result="effect2_innerShadow_5874_24139"/></filter><filter id="filter47_d_5874_24139" x="268.326" y="267.815" width="21.665" height="18.018" filterUnits="userSpaceOnUse" color-interpolation-filters="sRGB"><feFlood flood-opacity="0" result="BackgroundImageFix"/><feColorMatrix in="SourceAlpha" type="matrix" values="0 0 0 0 0 0 0 0 0 0 0 0 0 0 0 0 0 0 127 0" result="hardAlpha"/><feOffset dx=".572" dy=".572"/><feGaussianBlur stdDeviation=".572"/><feComposite in2="hardAlpha" operator="out"/><feColorMatrix type="matrix" values="0 0 0 0 0 0 0 0 0 0 0 0 0 0 0 0 0 0 0.25 0"/><feBlend mode="normal" in2="BackgroundImageFix" result="effect1_dropShadow_5874_24139"/><feBlend mode="normal" in="SourceGraphic" in2="effect1_dropShadow_5874_24139" result="shape"/></filter><filter id="filter48_ii_5874_24139" x="267.422" y="268.388" width="22.329" height="15.601" filterUnits="userSpaceOnUse" color-interpolation-filters="sRGB"><feFlood flood-opacity="0" result="BackgroundImageFix"/><feBlend mode="normal" in="SourceGraphic" in2="BackgroundImageFix" result="shape"/><feColorMatrix in="SourceAlpha" type="matrix" values="0 0 0 0 0 0 0 0 0 0 0 0 0 0 0 0 0 0 127 0" result="hardAlpha"/><feOffset dx="1.477"/><feGaussianBlur stdDeviation="1.108"/><feComposite in2="hardAlpha" operator="arithmetic" k2="-1" k3="1"/><feColorMatrix type="matrix" values="0 0 0 0 0.295687 0 0 0 0 0.1947 0 0 0 0 0.0774253 0 0 0 0.25 0"/><feBlend mode="normal" in2="shape" result="effect1_innerShadow_5874_24139"/><feColorMatrix in="SourceAlpha" type="matrix" values="0 0 0 0 0 0 0 0 0 0 0 0 0 0 0 0 0 0 127 0" result="hardAlpha"/><feOffset dx="-1.477"/><feGaussianBlur stdDeviation=".738"/><feComposite in2="hardAlpha" operator="arithmetic" k2="-1" k3="1"/><feColorMatrix type="matrix" values="0 0 0 0 0 0 0 0 0 0 0 0 0 0 0 0 0 0 0.25 0"/><feBlend mode="normal" in2="effect1_innerShadow_5874_24139" result="effect2_innerShadow_5874_24139"/></filter><filter id="filter49_i_5874_24139" x="279.055" y="270.318" width="9.219" height="13.544" filterUnits="userSpaceOnUse" color-interpolation-filters="sRGB"><feFlood flood-opacity="0" result="BackgroundImageFix"/><feBlend mode="normal" in="SourceGraphic" in2="BackgroundImageFix" result="shape"/><feColorMatrix in="SourceAlpha" type="matrix" values="0 0 0 0 0 0 0 0 0 0 0 0 0 0 0 0 0 0 127 0" result="hardAlpha"/><feOffset dx="-1.477"/><feGaussianBlur stdDeviation=".738"/><feComposite in2="hardAlpha" operator="arithmetic" k2="-1" k3="1"/><feColorMatrix type="matrix" values="0 0 0 0 0.7771 0 0 0 0 0.723148 0 0 0 0 0.653781 0 0 0 1 0"/><feBlend mode="normal" in2="shape" result="effect1_innerShadow_5874_24139"/></filter><filter id="filter50_i_5874_24139" x="271.574" y="268.388" width="11.969" height="15.538" filterUnits="userSpaceOnUse" color-interpolation-filters="sRGB"><feFlood flood-opacity="0" result="BackgroundImageFix"/><feBlend mode="normal" in="SourceGraphic" in2="BackgroundImageFix" result="shape"/><feColorMatrix in="SourceAlpha" type="matrix" values="0 0 0 0 0 0 0 0 0 0 0 0 0 0 0 0 0 0 127 0" result="hardAlpha"/><feOffset dx="1.477"/><feGaussianBlur stdDeviation="1.108"/><feComposite in2="hardAlpha" operator="arithmetic" k2="-1" k3="1"/><feColorMatrix type="matrix" values="0 0 0 0 0.81862 0 0 0 0 0.766443 0 0 0 0 0.70478 0 0 0 1 0"/><feBlend mode="normal" in2="shape" result="effect1_innerShadow_5874_24139"/></filter><filter id="filter51_ii_5874_24139" x="273.573" y="268.388" width="12.908" height="15.729" filterUnits="userSpaceOnUse" color-interpolation-filters="sRGB"><feFlood flood-opacity="0" result="BackgroundImageFix"/><feBlend mode="normal" in="SourceGraphic" in2="BackgroundImageFix" result="shape"/><feColorMatrix in="SourceAlpha" type="matrix" values="0 0 0 0 0 0 0 0 0 0 0 0 0 0 0 0 0 0 127 0" result="hardAlpha"/><feOffset dx="1.477"/><feGaussianBlur stdDeviation="1.108"/><feComposite in2="hardAlpha" operator="arithmetic" k2="-1" k3="1"/><feColorMatrix type="matrix" values="0 0 0 0 0.831373 0 0 0 0 0.788235 0 0 0 0 0.737255 0 0 0 1 0"/><feBlend mode="normal" in2="shape" result="effect1_innerShadow_5874_24139"/><feColorMatrix in="SourceAlpha" type="matrix" values="0 0 0 0 0 0 0 0 0 0 0 0 0 0 0 0 0 0 127 0" result="hardAlpha"/><feOffset dx="-1.477"/><feGaussianBlur stdDeviation=".738"/><feComposite in2="hardAlpha" operator="arithmetic" k2="-1" k3="1"/><feColorMatrix type="matrix" values="0 0 0 0 0.83291 0 0 0 0 0.789178 0 0 0 0 0.7367 0 0 0 1 0"/><feBlend mode="normal" in2="effect1_innerShadow_5874_24139" result="effect2_innerShadow_5874_24139"/></filter><filter id="filter52_d_5874_24139" x="313.812" y="409.661" width="36.589" height="29.496" filterUnits="userSpaceOnUse" color-interpolation-filters="sRGB"><feFlood flood-opacity="0" result="BackgroundImageFix"/><feColorMatrix in="SourceAlpha" type="matrix" values="0 0 0 0 0 0 0 0 0 0 0 0 0 0 0 0 0 0 127 0" result="hardAlpha"/><feOffset dx=".877" dy=".877"/><feGaussianBlur stdDeviation=".877"/><feComposite in2="hardAlpha" operator="out"/><feColorMatrix type="matrix" values="0 0 0 0 0 0 0 0 0 0 0 0 0 0 0 0 0 0 0.25 0"/><feBlend mode="normal" in2="BackgroundImageFix" result="effect1_dropShadow_5874_24139"/><feBlend mode="normal" in="SourceGraphic" in2="effect1_dropShadow_5874_24139" result="shape"/></filter><filter id="filter53_i_5874_24139" x="325.295" y="409.003" width="22.474" height="21.937" filterUnits="userSpaceOnUse" color-interpolation-filters="sRGB"><feFlood flood-opacity="0" result="BackgroundImageFix"/><feBlend mode="normal" in="SourceGraphic" in2="BackgroundImageFix" result="shape"/><feColorMatrix in="SourceAlpha" type="matrix" values="0 0 0 0 0 0 0 0 0 0 0 0 0 0 0 0 0 0 127 0" result="hardAlpha"/><feOffset dx="-1.316" dy="-2.193"/><feGaussianBlur stdDeviation=".768"/><feComposite in2="hardAlpha" operator="arithmetic" k2="-1" k3="1"/><feColorMatrix type="matrix" values="0 0 0 0 0 0 0 0 0 0 0 0 0 0 0 0 0 0 0.25 0"/><feBlend mode="normal" in2="shape" result="effect1_innerShadow_5874_24139"/></filter><filter id="filter54_i_5874_24139" x="313.374" y="413.114" width="22.473" height="23.412" filterUnits="userSpaceOnUse" color-interpolation-filters="sRGB"><feFlood flood-opacity="0" result="BackgroundImageFix"/><feBlend mode="normal" in="SourceGraphic" in2="BackgroundImageFix" result="shape"/><feColorMatrix in="SourceAlpha" type="matrix" values="0 0 0 0 0 0 0 0 0 0 0 0 0 0 0 0 0 0 127 0" result="hardAlpha"/><feOffset dx="-1.316" dy="-2.193"/><feGaussianBlur stdDeviation=".768"/><feComposite in2="hardAlpha" operator="arithmetic" k2="-1" k3="1"/><feColorMatrix type="matrix" values="0 0 0 0 0 0 0 0 0 0 0 0 0 0 0 0 0 0 0.25 0"/><feBlend mode="normal" in2="shape" result="effect1_innerShadow_5874_24139"/></filter><filter id="filter55_i_5874_24139" x="318.666" y="417.401" width="9.642" height="8.488" filterUnits="userSpaceOnUse" color-interpolation-filters="sRGB"><feFlood flood-opacity="0" result="BackgroundImageFix"/><feBlend mode="normal" in="SourceGraphic" in2="BackgroundImageFix" result="shape"/><feColorMatrix in="SourceAlpha" type="matrix" values="0 0 0 0 0 0 0 0 0 0 0 0 0 0 0 0 0 0 127 0" result="hardAlpha"/><feOffset/><feGaussianBlur stdDeviation=".154"/><feComposite in2="hardAlpha" operator="arithmetic" k2="-1" k3="1"/><feColorMatrix type="matrix" values="0 0 0 0 1 0 0 0 0 1 0 0 0 0 1 0 0 0 0.25 0"/><feBlend mode="normal" in2="shape" result="effect1_innerShadow_5874_24139"/></filter><filter id="filter56_i_5874_24139" x="322.489" y="420.646" width="1.931" height="2.536" filterUnits="userSpaceOnUse" color-interpolation-filters="sRGB"><feFlood flood-opacity="0" result="BackgroundImageFix"/><feBlend mode="normal" in="SourceGraphic" in2="BackgroundImageFix" result="shape"/><feColorMatrix in="SourceAlpha" type="matrix" values="0 0 0 0 0 0 0 0 0 0 0 0 0 0 0 0 0 0 127 0" result="hardAlpha"/><feOffset dy="2.193"/><feGaussianBlur stdDeviation=".351"/><feComposite in2="hardAlpha" operator="arithmetic" k2="-1" k3="1"/><feColorMatrix type="matrix" values="0 0 0 0 0 0 0 0 0 0 0 0 0 0 0 0 0 0 0.25 0"/><feBlend mode="normal" in2="shape" result="effect1_innerShadow_5874_24139"/></filter><radialGradient id="paint0_radial_5874_24139" cx="0" cy="0" r="1" gradientUnits="userSpaceOnUse" gradientTransform="translate(242.787 439.306) rotate(90) scale(29.897 160.831)"><stop offset=".435" stop-color="#A08A7A"/><stop offset="1" stop-color="white"/></radialGradient><radialGradient id="paint1_radial_5874_24139" cx="0" cy="0" r="1" gradientUnits="userSpaceOnUse" gradientTransform="translate(242.953 412.888) rotate(0.0558902) scale(218.695 56.6608)"><stop stop-color="white"/><stop offset=".17" stop-color="#ECE2DA"/><stop offset="1" stop-color="#C8BBAF"/></radialGradient><linearGradient id="paint2_linear_5874_24139" x1="35.718" y1="420.811" x2="462.921" y2="422.222" gradientUnits="userSpaceOnUse"><stop stop-color="#D0C9B2"/><stop offset=".391" stop-color="white"/><stop offset="1" stop-color="#D0C9B2"/></linearGradient><linearGradient id="paint3_linear_5874_24139" x1="250.409" y1="393.53" x2="240.75" y2="463.019" gradientUnits="userSpaceOnUse"><stop stop-color="#FCFAF8"/><stop offset=".772" stop-color="white"/></linearGradient><linearGradient id="paint4_linear_5874_24139" x1="257.591" y1="256.122" x2="267.655" y2="254.61" gradientUnits="userSpaceOnUse"><stop stop-color="#D4BDA6"/><stop offset="1" stop-color="#937A6D"/></linearGradient><linearGradient id="paint5_linear_5874_24139" x1="289.16" y1="233.908" x2="293.486" y2="233.907" gradientUnits="userSpaceOnUse"><stop offset=".165" stop-color="#D4BDA6"/><stop offset="1" stop-color="#A39187"/></linearGradient><linearGradient id="paint6_linear_5874_24139" x1="273.121" y1="233.911" x2="268.795" y2="233.912" gradientUnits="userSpaceOnUse"><stop offset=".165" stop-color="#D4BDA6"/><stop offset="1" stop-color="#A39187"/></linearGradient><linearGradient id="paint7_linear_5874_24139" x1="281.339" y1="216.418" x2="281.342" y2="228.763" gradientUnits="userSpaceOnUse"><stop offset=".38" stop-color="#FEF9F3"/><stop offset="1" stop-color="white"/></linearGradient><radialGradient id="paint8_radial_5874_24139" cx="0" cy="0" r="1" gradientUnits="userSpaceOnUse" gradientTransform="translate(216.245 256.182) rotate(102.985) scale(20.0775 23.474)"><stop stop-color="#E45134"/><stop offset="1" stop-color="#BE1F00"/></radialGradient><radialGradient id="paint9_radial_5874_24139" cx="0" cy="0" r="1" gradientUnits="userSpaceOnUse" gradientTransform="translate(217.57 261.227) rotate(106.382) scale(24.8825 28.0041)"><stop stop-color="#F06346"/><stop offset="1" stop-color="#D53A1B"/></radialGradient><radialGradient id="paint10_radial_5874_24139" cx="0" cy="0" r="1" gradientUnits="userSpaceOnUse" gradientTransform="translate(217.96 262.478) rotate(106.088) scale(10.7737 12.5359)"><stop stop-color="#D53A1B"/><stop offset="1" stop-color="#E97962"/></radialGradient><linearGradient id="paint11_linear_5874_24139" x1="240.81" y1="241.741" x2="246.145" y2="266.472" gradientUnits="userSpaceOnUse"><stop stop-color="#3A5535"/><stop offset=".84" stop-color="#34361C"/></linearGradient><linearGradient id="paint12_linear_5874_24139" x1="248.559" y1="239.423" x2="245.348" y2="264.224" gradientUnits="userSpaceOnUse"><stop stop-color="#5E775A"/><stop offset=".84" stop-color="#34361C"/></linearGradient><radialGradient id="paint13_radial_5874_24139" cx="0" cy="0" r="1" gradientUnits="userSpaceOnUse" gradientTransform="translate(239.328 266.402) rotate(90) scale(12.5073 11.5452)"><stop stop-color="#6190B0"/><stop offset=".88" stop-color="#2A353C"/><stop offset="1" stop-color="#252C31"/></radialGradient><linearGradient id="paint14_linear_5874_24139" x1="244.807" y1="257.246" x2="239.356" y2="263.421" gradientUnits="userSpaceOnUse"><stop stop-color="#303E47"/><stop offset="1" stop-color="#576B77"/></linearGradient><radialGradient id="paint15_radial_5874_24139" cx="0" cy="0" r="1" gradientUnits="userSpaceOnUse" gradientTransform="translate(231.578 276.502) rotate(90) scale(9.36728 8.97697)"><stop stop-color="#6289A3"/><stop offset="1" stop-color="#37454E"/></radialGradient><linearGradient id="paint16_linear_5874_24139" x1="225.571" y1="273.398" x2="230.893" y2="276.805" gradientUnits="userSpaceOnUse"><stop stop-color="#303E47"/><stop offset="1" stop-color="#576B77"/></linearGradient><radialGradient id="paint17_radial_5874_24139" cx="0" cy="0" r="1" gradientUnits="userSpaceOnUse" gradientTransform="translate(255.643 261.683) rotate(90) scale(6.98536 8.36169)"><stop stop-color="#6289A3"/><stop offset="1" stop-color="#37454E"/></radialGradient><radialGradient id="paint18_radial_5874_24139" cx="0" cy="0" r="1" gradientUnits="userSpaceOnUse" gradientTransform="translate(267.076 268.522) rotate(90) scale(11.7725 11.282)"><stop stop-color="#6289A3"/><stop offset="1" stop-color="#37454E"/></radialGradient><linearGradient id="paint19_linear_5874_24139" x1="263.856" y1="260.545" x2="265.449" y2="268.324" gradientUnits="userSpaceOnUse"><stop stop-color="#303E47"/><stop offset="1" stop-color="#576B77"/></linearGradient><radialGradient id="paint20_radial_5874_24139" cx="0" cy="0" r="1" gradientUnits="userSpaceOnUse" gradientTransform="translate(254.294 273.157) rotate(90) scale(11.7725 11.282)"><stop stop-color="#6289A3"/><stop offset="1" stop-color="#37454E"/></radialGradient><linearGradient id="paint21_linear_5874_24139" x1="257.544" y1="263.696" x2="254.635" y2="271.085" gradientUnits="userSpaceOnUse"><stop stop-color="#303E47"/><stop offset="1" stop-color="#576B77"/></linearGradient><radialGradient id="paint22_radial_5874_24139" cx="0" cy="0" r="1" gradientUnits="userSpaceOnUse" gradientTransform="translate(279.845 275.193) rotate(90) scale(6.19869 8.36169)"><stop stop-color="#6289A3"/><stop offset="1" stop-color="#37454E"/></radialGradient><radialGradient id="paint23_radial_5874_24139" cx="0" cy="0" r="1" gradientUnits="userSpaceOnUse" gradientTransform="translate(287.439 252.102) rotate(90) scale(4.3131 4.7975)"><stop stop-color="#6289A3"/><stop offset="1" stop-color="#37454E"/></radialGradient><linearGradient id="paint24_linear_5874_24139" x1="289.211" y1="249.033" x2="287.598" y2="250.928" gradientUnits="userSpaceOnUse"><stop stop-color="#303E47"/><stop offset="1" stop-color="#576B77"/></linearGradient><linearGradient id="paint25_linear_5874_24139" x1="296.699" y1="249.855" x2="294.872" y2="259.494" gradientUnits="userSpaceOnUse"><stop stop-color="#D4BDA6"/><stop offset="1" stop-color="#937A6D"/></linearGradient><radialGradient id="paint26_radial_5874_24139" cx="0" cy="0" r="1" gradientUnits="userSpaceOnUse" gradientTransform="translate(10.1657 10.6077) rotate(90) scale(10.6077 10.1657)"><stop stop-color="#6289A3"/><stop offset="1" stop-color="#37454E"/></radialGradient><radialGradient id="paint27_radial_5874_24139" cx="0" cy="0" r="1" gradientUnits="userSpaceOnUse" gradientTransform="translate(10.5257 10.9834) rotate(90) scale(10.9834 10.5257)"><stop stop-color="#6289A3"/><stop offset="1" stop-color="#37454E"/></radialGradient><linearGradient id="paint28_linear_5874_24139" x1="322.125" y1="418.202" x2="326.211" y2="424.383" gradientUnits="userSpaceOnUse"><stop stop-color="#303E47"/><stop offset="1" stop-color="#576B77"/></linearGradient><clipPath id="clip0_5874_24139"><rect x=".505" y=".348" width="323.744" height="431.659" rx="23.507" fill="white"/></clipPath></defs></svg>