<svg width="414" height="896" viewBox="0 0 414 896" fill="none" xmlns="http://www.w3.org/2000/svg">
<g clip-path="url(#clip0_3120_8219)">
<rect width="414" height="896" fill="url(#paint0_linear_3120_8219)"/>
<path opacity="0.4" d="M199.527 158.529C186.776 165.409 162.838 180.995 152.982 189.829C150.618 191.929 167.419 194.729 186.36 193.629C201.514 192.749 235.793 192.529 251.038 192.529C295.204 197.009 464.328 194.829 485.271 192.529L563 185.7C563 185.7 484.463 96.7 457.09 112.2C429.718 127.7 373.464 106.529 373.464 106.529C365.956 103.129 362.722 102.229 354.407 100.929C343.667 99.2496 328.775 119.4 311.681 122.5C295.214 125.486 263.974 139.829 251.038 143.729C238.103 147.629 215.465 149.929 199.527 158.529Z" fill="url(#paint1_linear_3120_8219)"/>
<path opacity="0.4" d="M147.793 176.816C102.796 179.376 52.4322 177.283 32.8749 175.916L-37 174.616L32.8749 101.616C40.7286 84.4164 52.6246 80.7164 57.591 81.0164C74.9153 83.8164 94.3186 105.116 100.786 104.416C107.254 103.716 130.931 105.816 145.021 118.016C159.112 130.216 195.955 139.316 203 150.416C210.045 161.516 227.023 173.516 223.789 174.616C220.555 175.716 204.039 173.616 147.793 176.816Z" fill="url(#paint2_linear_3120_8219)"/>
<path opacity="0.2" d="M148.364 112.406C152.447 109.835 274.831 109.335 335.513 109.407C400.164 109.285 410.632 118.406 335.513 122.049C313.071 123.137 210.463 117.978 200.255 118.406C190.047 118.835 190.331 117.335 190.047 116.049C189.82 115.021 191.087 114.335 191.748 114.121C175.585 114.621 144.28 114.978 148.364 112.406Z" fill="url(#paint3_linear_3120_8219)"/>
<path opacity="0.3" d="M-176.636 110.006C-172.553 107.435 -50.1688 106.935 10.5129 107.006C75.1644 106.885 85.6316 116.006 10.5129 119.649C-11.9288 120.737 -114.537 115.578 -124.745 116.006C-134.953 116.435 -134.669 114.935 -134.953 113.649C-135.18 112.62 -133.913 111.935 -133.252 111.721C-149.415 112.221 -180.72 112.578 -176.636 110.006Z" fill="url(#paint4_linear_3120_8219)"/>
<path opacity="0.3" d="M235.624 90.7445C240.378 85.8311 382.878 84.8757 453.534 85.0122C528.812 84.7793 524.2 104.8 453.534 109.17C427.371 110.788 307.93 101.39 296.044 102.209C284.158 103.028 284.489 100.162 284.158 97.7051C283.894 95.7398 285.369 94.4295 286.139 94.0201C267.32 94.9755 230.869 95.6579 235.624 90.7445Z" fill="url(#paint5_linear_3120_8219)"/>
<path opacity="0.3" d="M-106.577 84.7445C-101.822 79.8311 40.6783 78.8757 111.334 79.0122C186.612 78.7793 182 98.8 111.334 103.17C85.1711 104.788 -34.2698 95.3902 -46.1558 96.2091C-58.0418 97.028 -57.7117 94.1618 -58.0419 91.7051C-58.306 89.7398 -56.8312 88.4295 -56.0609 88.0201C-74.8804 88.9755 -111.331 89.6579 -106.577 84.7445Z" fill="url(#paint6_linear_3120_8219)"/>
<g opacity="0.8">
<g filter="url(#filter0_f_3120_8219)">
<path d="M374.553 57.9417C374.467 57.6773 374.092 57.6773 374.007 57.9417C373.968 58.06 373.858 58.1401 373.734 58.1401C373.456 58.1401 373.34 58.4959 373.565 58.6593C373.665 58.7324 373.708 58.8619 373.669 58.9802C373.583 59.2447 373.886 59.4646 374.111 59.3011C374.211 59.228 374.348 59.228 374.448 59.3011C374.673 59.4646 374.976 59.2447 374.89 58.9802C374.852 58.8619 374.894 58.7324 374.994 58.6593C375.219 58.4959 375.104 58.1401 374.826 58.1401C374.701 58.1401 374.591 58.06 374.553 57.9417Z" fill="white"/>
</g>
<g filter="url(#filter1_f_3120_8219)">
<circle cx="374.28" cy="58.6046" r="0.500973" fill="#FCECD3"/>
</g>
<g filter="url(#filter2_f_3120_8219)">
<path d="M374.553 57.9417C374.467 57.6773 374.092 57.6773 374.007 57.9417C373.968 58.06 373.858 58.1401 373.734 58.1401C373.456 58.1401 373.34 58.4959 373.565 58.6593C373.665 58.7324 373.708 58.8619 373.669 58.9802C373.583 59.2447 373.886 59.4646 374.111 59.3011C374.211 59.228 374.348 59.228 374.448 59.3011C374.673 59.4646 374.976 59.2447 374.89 58.9802C374.852 58.8619 374.894 58.7324 374.994 58.6593C375.219 58.4959 375.104 58.1401 374.826 58.1401C374.701 58.1401 374.591 58.06 374.553 57.9417Z" fill="white"/>
</g>
<g filter="url(#filter3_f_3120_8219)">
<circle cx="374.28" cy="58.6046" r="0.500973" fill="#FCECD3"/>
</g>
<g filter="url(#filter4_f_3120_8219)">
<path d="M194.202 111.379C194.116 111.115 193.742 111.115 193.656 111.379C193.618 111.497 193.508 111.577 193.383 111.577C193.105 111.577 192.99 111.933 193.215 112.097C193.315 112.17 193.357 112.299 193.319 112.417C193.233 112.682 193.536 112.902 193.76 112.738C193.861 112.665 193.997 112.665 194.098 112.738C194.323 112.902 194.626 112.682 194.54 112.417C194.501 112.299 194.543 112.17 194.644 112.097C194.869 111.933 194.753 111.577 194.475 111.577C194.351 111.577 194.241 111.497 194.202 111.379Z" fill="white"/>
</g>
<g filter="url(#filter5_f_3120_8219)">
<circle cx="193.929" cy="112.042" r="0.500973" fill="#FCECD3"/>
</g>
<g filter="url(#filter6_f_3120_8219)">
<path d="M74.6365 133.087C74.5506 132.823 74.1765 132.823 74.0906 133.087C74.0521 133.206 73.9419 133.286 73.8176 133.286C73.5395 133.286 73.4239 133.642 73.6489 133.805C73.7495 133.878 73.7916 134.008 73.7531 134.126C73.6672 134.39 73.9699 134.61 74.1948 134.447C74.2954 134.374 74.4316 134.374 74.5322 134.447C74.7572 134.61 75.0599 134.39 74.9739 134.126C74.9355 134.008 74.9776 133.878 75.0782 133.805C75.3032 133.642 75.1876 133.286 74.9095 133.286C74.7852 133.286 74.6749 133.206 74.6365 133.087Z" fill="white"/>
</g>
<g filter="url(#filter7_f_3120_8219)">
<circle cx="74.3635" cy="133.75" r="0.500973" fill="#FCECD3"/>
</g>
<g filter="url(#filter8_f_3120_8219)">
<path d="M91.3357 114.384C91.2498 114.12 90.8757 114.12 90.7898 114.384C90.7513 114.503 90.6411 114.583 90.5168 114.583C90.2387 114.583 90.1231 114.938 90.3481 115.102C90.4487 115.175 90.4908 115.305 90.4523 115.423C90.3664 115.687 90.6691 115.907 90.894 115.744C90.9946 115.671 91.1309 115.671 91.2315 115.744C91.4564 115.907 91.7591 115.687 91.6732 115.423C91.6347 115.305 91.6768 115.175 91.7774 115.102C92.0024 114.938 91.8868 114.583 91.6087 114.583C91.4844 114.583 91.3742 114.503 91.3357 114.384Z" fill="white"/>
</g>
<g filter="url(#filter9_f_3120_8219)">
<circle cx="91.0627" cy="115.047" r="0.500973" fill="#FCECD3"/>
</g>
<g filter="url(#filter10_f_3120_8219)">
<path d="M132.749 117.39C132.663 117.126 132.289 117.126 132.203 117.39C132.165 117.508 132.055 117.589 131.93 117.589C131.652 117.589 131.537 117.944 131.762 118.108C131.862 118.181 131.904 118.31 131.866 118.429C131.78 118.693 132.083 118.913 132.308 118.75C132.408 118.677 132.544 118.677 132.645 118.75C132.87 118.913 133.173 118.693 133.087 118.429C133.048 118.31 133.09 118.181 133.191 118.108C133.416 117.944 133.3 117.589 133.022 117.589C132.898 117.589 132.788 117.508 132.749 117.39Z" fill="white"/>
</g>
<g filter="url(#filter11_f_3120_8219)">
<circle cx="132.476" cy="118.053" r="0.500973" fill="#FCECD3"/>
</g>
<g filter="url(#filter12_f_3120_8219)">
<path d="M145.107 92.0076C145.021 91.7432 144.647 91.7432 144.561 92.0076C144.522 92.1259 144.412 92.206 144.288 92.206C144.01 92.206 143.894 92.5618 144.119 92.7252C144.22 92.7983 144.262 92.9279 144.223 93.0461C144.137 93.3106 144.44 93.5305 144.665 93.367C144.766 93.294 144.902 93.294 145.002 93.367C145.227 93.5305 145.53 93.3106 145.444 93.0461C145.406 92.9279 145.448 92.7983 145.548 92.7252C145.773 92.5618 145.658 92.206 145.38 92.206C145.255 92.206 145.145 92.1259 145.107 92.0076Z" fill="white"/>
</g>
<g filter="url(#filter13_f_3120_8219)">
<circle cx="144.834" cy="92.6707" r="0.500973" fill="#FCECD3"/>
</g>
<g filter="url(#filter14_f_3120_8219)">
<path d="M207.227 65.6229C207.142 65.3584 206.767 65.3584 206.681 65.6229C206.643 65.7411 206.533 65.8212 206.409 65.8212C206.13 65.8212 206.015 66.177 206.24 66.3405C206.34 66.4135 206.382 66.5431 206.344 66.6614C206.258 66.9258 206.561 67.1457 206.786 66.9823C206.886 66.9092 207.023 66.9092 207.123 66.9823C207.348 67.1457 207.651 66.9258 207.565 66.6614C207.526 66.5431 207.569 66.4135 207.669 66.3405C207.894 66.177 207.779 65.8212 207.5 65.8212C207.376 65.8212 207.266 65.7411 207.227 65.6229Z" fill="white"/>
</g>
<g filter="url(#filter15_f_3120_8219)">
<circle cx="206.954" cy="66.2859" r="0.500973" fill="#FCECD3"/>
</g>
<g filter="url(#filter16_f_3120_8219)">
<path d="M262.669 89.0018C262.583 88.7373 262.208 88.7373 262.123 89.0018C262.084 89.12 261.974 89.2001 261.85 89.2001C261.571 89.2001 261.456 89.5559 261.681 89.7194C261.781 89.7924 261.824 89.922 261.785 90.0403C261.699 90.3047 262.002 90.5246 262.227 90.3612C262.327 90.2881 262.464 90.2881 262.564 90.3612C262.789 90.5246 263.092 90.3047 263.006 90.0403C262.968 89.922 263.01 89.7924 263.11 89.7194C263.335 89.5559 263.22 89.2001 262.941 89.2001C262.817 89.2001 262.707 89.12 262.669 89.0018Z" fill="white"/>
</g>
<g filter="url(#filter17_f_3120_8219)">
<circle cx="262.395" cy="89.6647" r="0.500973" fill="#FCECD3"/>
</g>
<g filter="url(#filter18_f_3120_8219)">
<path d="M258.327 95.0137C258.241 94.7493 257.867 94.7493 257.781 95.0137C257.742 95.132 257.632 95.2121 257.508 95.2121C257.23 95.2121 257.114 95.5679 257.339 95.7313C257.44 95.8044 257.482 95.934 257.443 96.0522C257.357 96.3167 257.66 96.5366 257.885 96.3731C257.986 96.3001 258.122 96.3001 258.222 96.3731C258.447 96.5366 258.75 96.3167 258.664 96.0522C258.626 95.934 258.668 95.8044 258.768 95.7313C258.993 95.5679 258.878 95.2121 258.6 95.2121C258.475 95.2121 258.365 95.132 258.327 95.0137Z" fill="white"/>
</g>
<g filter="url(#filter19_f_3120_8219)">
<circle cx="258.054" cy="95.6766" r="0.500973" fill="#FCECD3"/>
</g>
<g filter="url(#filter20_f_3120_8219)">
<path d="M130.411 56.9395C130.325 56.6751 129.951 56.6751 129.865 56.9395C129.827 57.0578 129.717 57.1379 129.592 57.1379C129.314 57.1379 129.199 57.4937 129.424 57.6571C129.524 57.7302 129.566 57.8598 129.528 57.978C129.442 58.2425 129.745 58.4624 129.97 58.2989C130.07 58.2258 130.207 58.2258 130.307 58.2989C130.532 58.4624 130.835 58.2425 130.749 57.978C130.71 57.8598 130.753 57.7302 130.853 57.6571C131.078 57.4937 130.962 57.1379 130.684 57.1379C130.56 57.1379 130.45 57.0578 130.411 56.9395Z" fill="white"/>
</g>
<g filter="url(#filter21_f_3120_8219)">
<circle cx="130.138" cy="57.6025" r="0.500973" fill="#FCECD3"/>
</g>
<g filter="url(#filter22_f_3120_8219)">
<path d="M84.6561 35.5648C84.5701 35.3003 84.196 35.3003 84.1101 35.5648C84.0717 35.683 83.9614 35.7631 83.8371 35.7631C83.559 35.7631 83.4434 36.1189 83.6684 36.2823C83.769 36.3554 83.8111 36.485 83.7727 36.6033C83.6867 36.8677 83.9894 37.0876 84.2144 36.9242C84.315 36.8511 84.4512 36.8511 84.5518 36.9242C84.7767 37.0876 85.0794 36.8677 84.9935 36.6033C84.9551 36.485 84.9971 36.3554 85.0977 36.2823C85.3227 36.1189 85.2071 35.7631 84.929 35.7631C84.8047 35.7631 84.6945 35.683 84.6561 35.5648Z" fill="white"/>
</g>
<g filter="url(#filter23_f_3120_8219)">
<circle cx="84.3831" cy="36.2277" r="0.500973" fill="#FCECD3"/>
</g>
<g filter="url(#filter24_f_3120_8219)">
<path d="M93.3396 40.5745C93.2537 40.3101 92.8796 40.3101 92.7937 40.5745C92.7553 40.6928 92.645 40.7729 92.5207 40.7729C92.2426 40.7729 92.127 41.1287 92.352 41.2921C92.4526 41.3652 92.4947 41.4948 92.4563 41.613C92.3703 41.8775 92.673 42.0974 92.8979 41.9339C92.9985 41.8608 93.1348 41.8608 93.2354 41.9339C93.4603 42.0974 93.763 41.8775 93.6771 41.613C93.6386 41.4948 93.6807 41.3652 93.7813 41.2921C94.0063 41.1287 93.8907 40.7729 93.6126 40.7729C93.4883 40.7729 93.3781 40.6928 93.3396 40.5745Z" fill="white"/>
</g>
<g filter="url(#filter25_f_3120_8219)">
<circle cx="93.0667" cy="41.2374" r="0.500973" fill="#FCECD3"/>
</g>
<g filter="url(#filter26_f_3120_8219)">
<path d="M272.354 32.5587C272.268 32.2942 271.894 32.2942 271.808 32.5587C271.77 32.6769 271.659 32.757 271.535 32.757C271.257 32.757 271.141 33.1128 271.366 33.2762C271.467 33.3493 271.509 33.4789 271.471 33.5972C271.385 33.8616 271.687 34.0815 271.912 33.9181C272.013 33.845 272.149 33.845 272.25 33.9181C272.475 34.0815 272.777 33.8616 272.691 33.5972C272.653 33.4789 272.695 33.3493 272.796 33.2762C273.021 33.1128 272.905 32.757 272.627 32.757C272.503 32.757 272.392 32.6769 272.354 32.5587Z" fill="white"/>
</g>
<g filter="url(#filter27_f_3120_8219)">
<circle cx="272.081" cy="33.2217" r="0.500973" fill="#FCECD3"/>
</g>
<g filter="url(#filter28_f_3120_8219)">
<path d="M57.6033 85.3282C57.5174 85.0637 57.1433 85.0637 57.0573 85.3282C57.0189 85.4465 56.9087 85.5265 56.7844 85.5265C56.5063 85.5265 56.3907 85.8823 56.6157 86.0458C56.7163 86.1189 56.7583 86.2484 56.7199 86.3667C56.634 86.6311 56.9367 86.851 57.1616 86.6876C57.2622 86.6145 57.3984 86.6145 57.499 86.6876C57.724 86.851 58.0267 86.6311 57.9407 86.3667C57.9023 86.2484 57.9444 86.1189 58.045 86.0458C58.27 85.8823 58.1544 85.5265 57.8763 85.5265C57.752 85.5265 57.6417 85.4465 57.6033 85.3282Z" fill="white"/>
</g>
<g filter="url(#filter29_f_3120_8219)">
<circle cx="57.3303" cy="85.9911" r="0.500973" fill="#FCECD3"/>
</g>
<g filter="url(#filter30_f_3120_8219)">
<path d="M54.2637 82.3221C54.1778 82.0576 53.8037 82.0576 53.7177 82.3221C53.6793 82.4404 53.5691 82.5204 53.4448 82.5204C53.1667 82.5204 53.0511 82.8762 53.2761 83.0397C53.3767 83.1128 53.4187 83.2423 53.3803 83.3606C53.2944 83.625 53.5971 83.8449 53.822 83.6815C53.9226 83.6084 54.0588 83.6084 54.1594 83.6815C54.3844 83.8449 54.6871 83.625 54.6011 83.3606C54.5627 83.2423 54.6048 83.1128 54.7054 83.0397C54.9304 82.8762 54.8148 82.5204 54.5367 82.5204C54.4124 82.5204 54.3021 82.4404 54.2637 82.3221Z" fill="white"/>
</g>
<g filter="url(#filter31_f_3120_8219)">
<circle cx="53.9907" cy="82.9851" r="0.500973" fill="#FCECD3"/>
</g>
<g filter="url(#filter32_f_3120_8219)">
<path d="M55.6443 5.97758C55.5443 5.66988 55.109 5.66988 55.009 5.97758L54.9143 6.26927C54.8696 6.40688 54.7413 6.50004 54.5966 6.50004H54.2899C53.9664 6.50004 53.8319 6.91405 54.0936 7.10422L54.3417 7.28449C54.4588 7.36954 54.5078 7.52029 54.4631 7.6579L54.3683 7.94958C54.2683 8.25728 54.6205 8.51315 54.8822 8.32299L55.1304 8.14271C55.2474 8.05767 55.4059 8.05767 55.523 8.14271L55.7711 8.32299C56.0329 8.51316 56.385 8.25728 56.2851 7.94958L56.1903 7.6579C56.1456 7.52029 56.1945 7.36954 56.3116 7.28449L56.5597 7.10422C56.8215 6.91405 56.687 6.50004 56.3634 6.50004H56.0567C55.912 6.50004 55.7838 6.40688 55.7391 6.26927L55.6443 5.97758Z" fill="white"/>
</g>
<g filter="url(#filter33_f_3120_8219)">
<circle cx="55.3267" cy="7.17089" r="0.723628" fill="#FCECD3"/>
</g>
<g filter="url(#filter34_f_3120_8219)">
<path d="M305.418 51.5958C305.332 51.3313 304.958 51.3313 304.872 51.5958C304.834 51.714 304.724 51.7941 304.599 51.7941C304.321 51.7941 304.206 52.1499 304.431 52.3134C304.531 52.3864 304.573 52.516 304.535 52.6343C304.449 52.8987 304.752 53.1186 304.977 52.9552C305.077 52.8821 305.213 52.8821 305.314 52.9552C305.539 53.1186 305.842 52.8987 305.756 52.6343C305.717 52.516 305.759 52.3864 305.86 52.3134C306.085 52.1499 305.969 51.7941 305.691 51.7941C305.567 51.7941 305.457 51.714 305.418 51.5958Z" fill="white"/>
</g>
<g filter="url(#filter35_f_3120_8219)">
<circle cx="305.145" cy="52.2588" r="0.500973" fill="#FCECD3"/>
</g>
<g filter="url(#filter36_f_3120_8219)">
<path d="M294.731 72.3028C294.645 72.0384 294.271 72.0384 294.185 72.3028C294.146 72.4211 294.036 72.5011 293.912 72.5011C293.634 72.5011 293.518 72.8569 293.743 73.0204C293.844 73.0935 293.886 73.223 293.847 73.3413C293.761 73.6057 294.064 73.8256 294.289 73.6622C294.39 73.5891 294.526 73.5891 294.626 73.6622C294.851 73.8256 295.154 73.6057 295.068 73.3413C295.03 73.223 295.072 73.0935 295.172 73.0204C295.397 72.8569 295.282 72.5011 295.004 72.5011C294.879 72.5011 294.769 72.4211 294.731 72.3028Z" fill="white"/>
</g>
<g filter="url(#filter37_f_3120_8219)">
<circle cx="294.458" cy="72.9657" r="0.500973" fill="#FCECD3"/>
</g>
<g filter="url(#filter38_f_3120_8219)">
<path d="M294.731 72.3028C294.645 72.0384 294.271 72.0384 294.185 72.3028C294.146 72.4211 294.036 72.5011 293.912 72.5011C293.634 72.5011 293.518 72.8569 293.743 73.0204C293.844 73.0935 293.886 73.223 293.847 73.3413C293.761 73.6057 294.064 73.8256 294.289 73.6622C294.39 73.5891 294.526 73.5891 294.626 73.6622C294.851 73.8256 295.154 73.6057 295.068 73.3413C295.03 73.223 295.072 73.0935 295.172 73.0204C295.397 72.8569 295.282 72.5011 295.004 72.5011C294.879 72.5011 294.769 72.4211 294.731 72.3028Z" fill="white"/>
</g>
<g filter="url(#filter39_f_3120_8219)">
<circle cx="294.458" cy="72.9657" r="0.500973" fill="#FCECD3"/>
</g>
<g filter="url(#filter40_f_3120_8219)">
<path d="M357.736 107.772C357.693 107.614 357.468 107.614 357.425 107.772C357.406 107.843 357.343 107.891 357.27 107.891H357.258C357.095 107.891 357.019 108.094 357.142 108.201L357.191 108.244C357.244 108.29 357.266 108.362 357.247 108.43L357.224 108.515C357.184 108.664 357.361 108.775 357.478 108.673C357.537 108.622 357.624 108.622 357.683 108.673C357.8 108.775 357.977 108.664 357.937 108.515L357.914 108.43C357.895 108.362 357.917 108.29 357.97 108.244L358.019 108.201C358.142 108.094 358.066 107.891 357.903 107.891H357.891C357.818 107.891 357.755 107.843 357.736 107.772Z" fill="white"/>
</g>
<g filter="url(#filter41_f_3120_8219)">
<ellipse cx="357.58" cy="108.201" rx="0.278318" ry="0.333982" fill="#FCECD3"/>
</g>
<g filter="url(#filter42_f_3120_8219)">
<path d="M269.898 131.485C269.855 131.327 269.631 131.327 269.588 131.485C269.569 131.555 269.505 131.604 269.432 131.604H269.42C269.257 131.604 269.181 131.806 269.304 131.914L269.353 131.957C269.406 132.003 269.428 132.075 269.41 132.142L269.387 132.227C269.346 132.376 269.524 132.487 269.64 132.386C269.699 132.335 269.787 132.335 269.846 132.386C269.962 132.487 270.14 132.376 270.099 132.227L270.076 132.142C270.058 132.075 270.08 132.003 270.133 131.957L270.182 131.914C270.305 131.806 270.229 131.604 270.066 131.604H270.053C269.981 131.604 269.917 131.555 269.898 131.485Z" fill="white"/>
</g>
<g filter="url(#filter43_f_3120_8219)">
<ellipse cx="269.743" cy="131.913" rx="0.278318" ry="0.333982" fill="#FCECD3"/>
</g>
<g filter="url(#filter44_f_3120_8219)">
<path d="M283.258 161.877C283.215 161.719 282.99 161.719 282.947 161.877C282.928 161.947 282.864 161.996 282.792 161.996H282.78C282.616 161.996 282.54 162.199 282.664 162.306L282.713 162.349C282.765 162.395 282.787 162.467 282.769 162.534L282.746 162.619C282.706 162.768 282.883 162.879 283 162.778C283.058 162.727 283.146 162.727 283.205 162.778C283.321 162.879 283.499 162.768 283.459 162.619L283.436 162.534C283.417 162.467 283.439 162.395 283.492 162.349L283.541 162.306C283.664 162.199 283.588 161.996 283.425 161.996H283.413C283.34 161.996 283.277 161.947 283.258 161.877Z" fill="white"/>
</g>
<g filter="url(#filter45_f_3120_8219)">
<ellipse cx="283.102" cy="162.306" rx="0.278318" ry="0.333982" fill="#FCECD3"/>
</g>
<g filter="url(#filter46_f_3120_8219)">
<path d="M343.044 120.606C343.016 120.5 342.866 120.5 342.837 120.606C342.824 120.653 342.782 120.685 342.734 120.685H342.726C342.617 120.685 342.566 120.82 342.648 120.892L342.681 120.92C342.716 120.951 342.731 120.999 342.719 121.044L342.703 121.101C342.676 121.2 342.795 121.274 342.872 121.206C342.911 121.172 342.97 121.172 343.009 121.206C343.087 121.274 343.205 121.2 343.178 121.101L343.163 121.044C343.151 120.999 343.165 120.951 343.2 120.92L343.233 120.892C343.315 120.82 343.265 120.685 343.156 120.685H343.148C343.099 120.685 343.057 120.653 343.044 120.606Z" fill="white"/>
</g>
<g filter="url(#filter47_f_3120_8219)">
<ellipse cx="342.941" cy="120.891" rx="0.185546" ry="0.222655" fill="#FCECD3"/>
</g>
<g filter="url(#filter48_f_3120_8219)">
<path d="M307.642 121.274C307.614 121.169 307.464 121.169 307.435 121.274C307.422 121.321 307.38 121.353 307.332 121.353H307.323C307.215 121.353 307.164 121.488 307.246 121.56L307.279 121.589C307.314 121.619 307.329 121.667 307.316 121.712L307.301 121.769C307.274 121.868 307.392 121.942 307.47 121.875C307.509 121.84 307.568 121.84 307.607 121.875C307.685 121.942 307.803 121.868 307.776 121.769L307.761 121.712C307.749 121.667 307.763 121.619 307.798 121.589L307.831 121.56C307.913 121.488 307.863 121.353 307.754 121.353H307.746C307.697 121.353 307.655 121.321 307.642 121.274Z" fill="white"/>
</g>
<g filter="url(#filter49_f_3120_8219)">
<ellipse cx="307.539" cy="121.56" rx="0.185546" ry="0.222655" fill="#FCECD3"/>
</g>
<g filter="url(#filter50_f_3120_8219)">
<path d="M293.615 109.585C293.586 109.479 293.436 109.479 293.408 109.585C293.395 109.632 293.353 109.664 293.304 109.664H293.296C293.187 109.664 293.137 109.799 293.219 109.871L293.252 109.899C293.287 109.93 293.301 109.978 293.289 110.023L293.274 110.08C293.247 110.179 293.365 110.253 293.443 110.185C293.482 110.151 293.541 110.151 293.58 110.185C293.657 110.253 293.776 110.179 293.749 110.08L293.734 110.023C293.721 109.978 293.736 109.93 293.771 109.899L293.804 109.871C293.886 109.799 293.835 109.664 293.726 109.664H293.718C293.67 109.664 293.628 109.632 293.615 109.585Z" fill="white"/>
</g>
<g filter="url(#filter51_f_3120_8219)">
<ellipse cx="293.511" cy="109.87" rx="0.185546" ry="0.222655" fill="#FCECD3"/>
</g>
<g filter="url(#filter52_f_3120_8219)">
<path d="M257.211 162.02C257.182 161.914 257.032 161.914 257.004 162.02C256.991 162.067 256.949 162.099 256.9 162.099H256.892C256.783 162.099 256.733 162.234 256.815 162.306L256.848 162.334C256.883 162.365 256.897 162.413 256.885 162.458L256.87 162.515C256.843 162.614 256.961 162.688 257.039 162.62C257.078 162.586 257.137 162.586 257.176 162.62C257.253 162.688 257.372 162.614 257.345 162.515L257.329 162.458C257.317 162.413 257.332 162.365 257.367 162.334L257.4 162.306C257.482 162.234 257.431 162.099 257.322 162.099H257.314C257.266 162.099 257.223 162.067 257.211 162.02Z" fill="white"/>
</g>
<g filter="url(#filter53_f_3120_8219)">
<ellipse cx="257.107" cy="162.306" rx="0.185546" ry="0.222655" fill="#FCECD3"/>
</g>
<g filter="url(#filter54_f_3120_8219)">
<path d="M234.5 154.004C234.471 153.899 234.321 153.899 234.293 154.004C234.28 154.051 234.238 154.084 234.189 154.084H234.181C234.072 154.084 234.022 154.219 234.104 154.29L234.137 154.319C234.172 154.349 234.186 154.397 234.174 154.442L234.159 154.499C234.132 154.598 234.25 154.672 234.328 154.605C234.367 154.571 234.426 154.571 234.465 154.605C234.542 154.672 234.661 154.598 234.634 154.499L234.619 154.442C234.606 154.397 234.621 154.349 234.656 154.319L234.689 154.29C234.771 154.219 234.72 154.084 234.611 154.084H234.603C234.555 154.084 234.513 154.051 234.5 154.004Z" fill="white"/>
</g>
<g filter="url(#filter55_f_3120_8219)">
<ellipse cx="234.396" cy="154.29" rx="0.185546" ry="0.222655" fill="#FCECD3"/>
</g>
<g filter="url(#filter56_f_3120_8219)">
<path d="M194.422 159.014C194.394 158.908 194.244 158.908 194.215 159.014C194.202 159.061 194.16 159.093 194.112 159.093H194.104C193.995 159.093 193.944 159.228 194.026 159.3L194.059 159.328C194.094 159.359 194.109 159.407 194.096 159.452L194.081 159.509C194.054 159.608 194.173 159.682 194.25 159.614C194.289 159.58 194.348 159.58 194.387 159.614C194.465 159.682 194.583 159.608 194.556 159.509L194.541 159.452C194.529 159.407 194.543 159.359 194.578 159.328L194.611 159.3C194.693 159.228 194.643 159.093 194.534 159.093H194.526C194.477 159.093 194.435 159.061 194.422 159.014Z" fill="white"/>
</g>
<g filter="url(#filter57_f_3120_8219)">
<ellipse cx="194.318" cy="159.299" rx="0.185546" ry="0.222655" fill="#FCECD3"/>
</g>
<g filter="url(#filter58_f_3120_8219)">
<path d="M197.094 147.993C197.066 147.887 196.916 147.887 196.887 147.993C196.875 148.04 196.832 148.072 196.784 148.072H196.776C196.667 148.072 196.616 148.207 196.698 148.279L196.731 148.307C196.766 148.338 196.781 148.386 196.769 148.431L196.753 148.488C196.726 148.587 196.845 148.661 196.922 148.593C196.961 148.559 197.02 148.559 197.059 148.593C197.137 148.661 197.255 148.587 197.228 148.488L197.213 148.431C197.201 148.386 197.215 148.338 197.25 148.307L197.283 148.279C197.365 148.207 197.315 148.072 197.206 148.072H197.198C197.149 148.072 197.107 148.04 197.094 147.993Z" fill="white"/>
</g>
<g filter="url(#filter59_f_3120_8219)">
<ellipse cx="196.991" cy="148.278" rx="0.185546" ry="0.222655" fill="#FCECD3"/>
</g>
<g filter="url(#filter60_f_3120_8219)">
<path d="M198.096 146.657C198.067 146.551 197.918 146.551 197.889 146.657C197.876 146.703 197.834 146.736 197.785 146.736H197.777C197.668 146.736 197.618 146.871 197.7 146.943L197.733 146.971C197.768 147.002 197.782 147.05 197.77 147.095L197.755 147.151C197.728 147.251 197.846 147.325 197.924 147.257C197.963 147.223 198.022 147.223 198.061 147.257C198.139 147.325 198.257 147.251 198.23 147.151L198.215 147.095C198.202 147.05 198.217 147.002 198.252 146.971L198.285 146.943C198.367 146.871 198.316 146.736 198.208 146.736H198.199C198.151 146.736 198.109 146.703 198.096 146.657Z" fill="white"/>
</g>
<g filter="url(#filter61_f_3120_8219)">
<ellipse cx="197.992" cy="146.942" rx="0.185546" ry="0.222655" fill="#FCECD3"/>
</g>
<g filter="url(#filter62_f_3120_8219)">
<path d="M201.77 148.661C201.741 148.555 201.591 148.555 201.563 148.661C201.55 148.707 201.508 148.74 201.459 148.74H201.451C201.342 148.74 201.292 148.875 201.374 148.946L201.407 148.975C201.442 149.006 201.456 149.054 201.444 149.099L201.429 149.155C201.402 149.255 201.52 149.329 201.598 149.261C201.637 149.227 201.695 149.227 201.735 149.261C201.812 149.329 201.931 149.255 201.904 149.155L201.888 149.099C201.876 149.054 201.891 149.006 201.926 148.975L201.959 148.946C202.041 148.875 201.99 148.74 201.881 148.74H201.873C201.825 148.74 201.782 148.707 201.77 148.661Z" fill="white"/>
</g>
<g filter="url(#filter63_f_3120_8219)">
<ellipse cx="201.666" cy="148.946" rx="0.185546" ry="0.222655" fill="#FCECD3"/>
</g>
<g filter="url(#filter64_f_3120_8219)">
<path d="M123.284 161.018C123.256 160.913 123.106 160.913 123.077 161.018C123.064 161.065 123.022 161.098 122.974 161.098H122.966C122.857 161.098 122.806 161.233 122.888 161.304L122.921 161.333C122.956 161.363 122.971 161.411 122.959 161.456L122.943 161.513C122.916 161.612 123.035 161.686 123.112 161.619C123.151 161.585 123.21 161.585 123.249 161.619C123.327 161.686 123.445 161.612 123.418 161.513L123.403 161.456C123.391 161.411 123.405 161.363 123.44 161.333L123.473 161.304C123.555 161.233 123.505 161.098 123.396 161.098H123.388C123.339 161.098 123.297 161.065 123.284 161.018Z" fill="white"/>
</g>
<g filter="url(#filter65_f_3120_8219)">
<ellipse cx="123.181" cy="161.304" rx="0.185546" ry="0.222655" fill="#FCECD3"/>
</g>
<g filter="url(#filter66_f_3120_8219)">
<path d="M127.96 171.372C127.931 171.266 127.781 171.266 127.753 171.372C127.74 171.418 127.698 171.451 127.649 171.451H127.641C127.532 171.451 127.482 171.586 127.564 171.657L127.596 171.686C127.632 171.717 127.646 171.765 127.634 171.81L127.619 171.866C127.592 171.966 127.71 172.04 127.788 171.972C127.827 171.938 127.885 171.938 127.925 171.972C128.002 172.04 128.121 171.966 128.094 171.866L128.078 171.81C128.066 171.765 128.081 171.717 128.116 171.686L128.149 171.657C128.231 171.586 128.18 171.451 128.071 171.451H128.063C128.015 171.451 127.972 171.418 127.96 171.372Z" fill="white"/>
</g>
<g filter="url(#filter67_f_3120_8219)">
<ellipse cx="127.856" cy="171.657" rx="0.185546" ry="0.222655" fill="#FCECD3"/>
</g>
<g filter="url(#filter68_f_3120_8219)">
<path d="M130.632 170.036C130.603 169.93 130.453 169.93 130.425 170.036C130.412 170.082 130.37 170.115 130.321 170.115H130.313C130.204 170.115 130.154 170.25 130.236 170.321L130.269 170.35C130.304 170.381 130.318 170.429 130.306 170.474L130.291 170.53C130.264 170.63 130.382 170.704 130.46 170.636C130.499 170.602 130.558 170.602 130.597 170.636C130.674 170.704 130.793 170.63 130.766 170.53L130.75 170.474C130.738 170.429 130.753 170.381 130.788 170.35L130.821 170.321C130.903 170.25 130.852 170.115 130.743 170.115H130.735C130.687 170.115 130.645 170.082 130.632 170.036Z" fill="white"/>
</g>
<g filter="url(#filter69_f_3120_8219)">
<ellipse cx="130.528" cy="170.321" rx="0.185546" ry="0.222655" fill="#FCECD3"/>
</g>
<g filter="url(#filter70_f_3120_8219)">
<path d="M93.2256 150.331C93.197 150.225 93.0472 150.225 93.0186 150.331C93.0059 150.377 92.9635 150.41 92.915 150.41H92.907C92.7981 150.41 92.7475 150.545 92.8296 150.616L92.8623 150.645C92.8975 150.676 92.9121 150.724 92.8999 150.769L92.8846 150.825C92.8577 150.925 92.976 150.999 93.0536 150.931C93.0928 150.897 93.1513 150.897 93.1905 150.931C93.2682 150.999 93.3865 150.925 93.3595 150.825L93.3442 150.769C93.332 150.724 93.3466 150.676 93.3818 150.645L93.4146 150.616C93.4966 150.545 93.446 150.41 93.3372 150.41H93.3291C93.2807 150.41 93.2383 150.377 93.2256 150.331Z" fill="white"/>
</g>
<g filter="url(#filter71_f_3120_8219)">
<ellipse cx="93.1221" cy="150.616" rx="0.185546" ry="0.222655" fill="#FCECD3"/>
</g>
<g filter="url(#filter72_f_3120_8219)">
<path d="M75.8584 120.606C75.8298 120.5 75.68 120.5 75.6514 120.606C75.6387 120.653 75.5963 120.685 75.5478 120.685H75.5398C75.4309 120.685 75.3803 120.82 75.4624 120.892L75.4952 120.92C75.5303 120.951 75.5449 120.999 75.5327 121.044L75.5174 121.101C75.4905 121.2 75.6088 121.274 75.6864 121.206C75.7257 121.172 75.7841 121.172 75.8233 121.206C75.901 121.274 76.0193 121.2 75.9924 121.101L75.977 121.044C75.9648 120.999 75.9794 120.951 76.0146 120.92L76.0474 120.892C76.1294 120.82 76.0788 120.685 75.97 120.685H75.9619C75.9135 120.685 75.8711 120.653 75.8584 120.606Z" fill="white"/>
</g>
<g filter="url(#filter73_f_3120_8219)">
<ellipse cx="75.7549" cy="120.891" rx="0.185546" ry="0.222655" fill="#FCECD3"/>
</g>
<g filter="url(#filter74_f_3120_8219)">
<path d="M80.5344 106.913C80.5058 106.807 80.356 106.807 80.3274 106.913C80.3147 106.96 80.2723 106.992 80.2239 106.992H80.2158C80.107 106.992 80.0564 107.127 80.1384 107.199L80.1712 107.227C80.2064 107.258 80.221 107.306 80.2088 107.351L80.1934 107.408C80.1665 107.507 80.2848 107.581 80.3625 107.514C80.4017 107.479 80.4601 107.479 80.4994 107.514C80.577 107.581 80.6953 107.507 80.6684 107.408L80.6531 107.351C80.6409 107.306 80.6555 107.258 80.6906 107.227L80.7234 107.199C80.8054 107.127 80.7549 106.992 80.646 106.992H80.638C80.5895 106.992 80.5471 106.96 80.5344 106.913Z" fill="white"/>
</g>
<g filter="url(#filter75_f_3120_8219)">
<ellipse cx="80.4309" cy="107.199" rx="0.185546" ry="0.222655" fill="#FCECD3"/>
</g>
<g filter="url(#filter76_f_3120_8219)">
<path d="M19.7498 77.1885C19.7212 77.0829 19.5713 77.0829 19.5427 77.1885C19.5301 77.2352 19.4876 77.2677 19.4392 77.2677H19.4311C19.3223 77.2677 19.2717 77.4027 19.3538 77.4742L19.3865 77.5028C19.4217 77.5335 19.4363 77.5816 19.4241 77.6266L19.4088 77.6832C19.3819 77.7826 19.5001 77.8566 19.5778 77.7889C19.617 77.7547 19.6755 77.7547 19.7147 77.7889C19.7923 77.8566 19.9106 77.7826 19.8837 77.6832L19.8684 77.6266C19.8562 77.5816 19.8708 77.5335 19.906 77.5028L19.9387 77.4742C20.0208 77.4027 19.9702 77.2677 19.8613 77.2677H19.8533C19.8049 77.2677 19.7624 77.2352 19.7498 77.1885Z" fill="white"/>
</g>
<g filter="url(#filter77_f_3120_8219)">
<ellipse cx="19.6462" cy="77.474" rx="0.185546" ry="0.222655" fill="#FCECD3"/>
</g>
<g filter="url(#filter78_f_3120_8219)">
<path d="M251.867 149.329C251.838 149.223 251.689 149.223 251.66 149.329C251.647 149.376 251.605 149.408 251.557 149.408H251.548C251.44 149.408 251.389 149.543 251.471 149.615L251.504 149.643C251.539 149.674 251.554 149.722 251.541 149.767L251.526 149.824C251.499 149.923 251.617 149.997 251.695 149.929C251.734 149.895 251.793 149.895 251.832 149.929C251.91 149.997 252.028 149.923 252.001 149.824L251.986 149.767C251.974 149.722 251.988 149.674 252.023 149.643L252.056 149.615C252.138 149.543 252.088 149.408 251.979 149.408H251.971C251.922 149.408 251.88 149.376 251.867 149.329Z" fill="white"/>
</g>
<g filter="url(#filter79_f_3120_8219)">
<ellipse cx="251.764" cy="149.615" rx="0.185546" ry="0.222655" fill="#FCECD3"/>
</g>
<g filter="url(#filter80_f_3120_8219)">
<path d="M346.384 127.286C346.355 127.18 346.205 127.18 346.177 127.286C346.164 127.333 346.122 127.365 346.073 127.365H346.065C345.956 127.365 345.906 127.5 345.988 127.572L346.021 127.6C346.056 127.631 346.07 127.679 346.058 127.724L346.043 127.781C346.016 127.88 346.134 127.954 346.212 127.886C346.251 127.852 346.31 127.852 346.349 127.886C346.426 127.954 346.545 127.88 346.518 127.781L346.503 127.724C346.49 127.679 346.505 127.631 346.54 127.6L346.573 127.572C346.655 127.5 346.604 127.365 346.495 127.365H346.487C346.439 127.365 346.397 127.333 346.384 127.286Z" fill="white"/>
</g>
<g filter="url(#filter81_f_3120_8219)">
<ellipse cx="346.28" cy="127.571" rx="0.185546" ry="0.222655" fill="#FCECD3"/>
</g>
<g filter="url(#filter82_f_3120_8219)">
<path d="M332.691 133.298C332.662 133.192 332.512 133.192 332.484 133.298C332.471 133.344 332.429 133.377 332.38 133.377H332.372C332.263 133.377 332.213 133.512 332.295 133.583L332.328 133.612C332.363 133.643 332.377 133.691 332.365 133.736L332.35 133.792C332.323 133.892 332.441 133.966 332.519 133.898C332.558 133.864 332.617 133.864 332.656 133.898C332.733 133.966 332.852 133.892 332.825 133.792L332.809 133.736C332.797 133.691 332.812 133.643 332.847 133.612L332.88 133.583C332.962 133.512 332.911 133.377 332.802 133.377H332.794C332.746 133.377 332.703 133.344 332.691 133.298Z" fill="white"/>
</g>
<g filter="url(#filter83_f_3120_8219)">
<ellipse cx="332.587" cy="133.583" rx="0.185546" ry="0.222655" fill="#FCECD3"/>
</g>
<g filter="url(#filter84_f_3120_8219)">
<path d="M406.615 76.3109C406.529 76.0464 406.155 76.0464 406.069 76.3109C406.03 76.4291 405.92 76.5092 405.796 76.5092C405.518 76.5092 405.402 76.865 405.627 77.0284C405.728 77.1015 405.77 77.2311 405.731 77.3494C405.645 77.6138 405.948 77.8337 406.173 77.6703C406.274 77.5972 406.41 77.5972 406.51 77.6703C406.735 77.8337 407.038 77.6138 406.952 77.3494C406.914 77.2311 406.956 77.1015 407.056 77.0284C407.281 76.865 407.166 76.5092 406.888 76.5092C406.763 76.5092 406.653 76.4291 406.615 76.3109Z" fill="white"/>
</g>
<g filter="url(#filter85_f_3120_8219)">
<circle cx="406.342" cy="76.9738" r="0.500973" fill="#FCECD3"/>
</g>
<g filter="url(#filter86_f_3120_8219)">
<path d="M356.729 65.7603C356.629 65.4526 356.194 65.4526 356.094 65.7603L356.036 65.9366C355.992 66.0742 355.864 66.1674 355.719 66.1674H355.533C355.21 66.1674 355.075 66.5814 355.337 66.7715L355.487 66.8805C355.604 66.9656 355.653 67.1163 355.608 67.2539L355.551 67.4302C355.451 67.7379 355.803 67.9938 356.065 67.8036L356.215 67.6947C356.332 67.6096 356.491 67.6096 356.608 67.6947L356.758 67.8036C357.019 67.9938 357.372 67.7379 357.272 67.4302L357.214 67.2539C357.17 67.1163 357.219 66.9656 357.336 66.8805L357.486 66.7715C357.747 66.5814 357.613 66.1674 357.289 66.1674H357.104C356.959 66.1674 356.831 66.0742 356.786 65.9366L356.729 65.7603Z" fill="white"/>
</g>
<g filter="url(#filter87_f_3120_8219)">
<circle cx="356.411" cy="66.7867" r="0.667964" fill="#FCECD3"/>
</g>
</g>
<path opacity="0.53" fill-rule="evenodd" clip-rule="evenodd" d="M-14.0621 200.689C-16.3003 199.367 -17.0602 198.547 -17.0781 197.572C-17.0961 196.597 -16.3421 195.658 -15.4919 194.837C-15.0217 194.382 -14.2581 193.929 -13.2789 193.494C-14.1822 193.155 -14.6804 192.658 -14.6247 191.988C-14.5507 191.095 -13.3099 190.431 -11.6262 190.266C-11.6283 190.261 -11.6303 190.255 -11.6321 190.249C-11.6381 190.244 -11.644 190.239 -11.6498 190.233C-11.6512 190.209 -11.6504 190.181 -11.6474 190.152C-11.6483 190.096 -11.6357 190.039 -11.611 189.983C-11.2473 188.812 -8.29449 185.718 0.406404 186.42C6.57285 186.918 11.6128 188.528 14.8605 189.823C16.4245 190.031 17.8544 190.366 19.0684 190.862C20.8012 191.571 21.9404 192.217 22.7021 192.806C26.6526 191.971 31.4643 192.034 33.9935 192.21C41.2336 191.67 48.4276 191.927 50.6625 193.051C51.9921 193.125 53.0824 193.446 53.6753 193.695C59.3424 193.922 63.9946 194.432 65.2272 195.26C68.5119 197.468 68.5135 201.753 66.9427 202.129C65.6358 202.441 61.6444 202.287 59.0829 201.87L59.6218 202.768C60.5348 202.851 61.5469 202.902 62.5503 202.953C64.8354 203.068 67.0753 203.181 67.9974 203.665C68.9395 204.385 68.9319 208.406 65.299 210.087C63.9096 210.73 60.5715 210.733 56.3954 210.389C56.2392 210.546 56.0971 210.64 55.9808 210.666C55.1153 210.854 53.0756 210.884 51.7757 210.873C51.6698 210.89 51.5612 210.903 51.4499 210.912C49.0676 211.108 45.2683 210.749 41.0406 210.115C40.2039 211.284 38.644 212.394 36.1098 212.737C35.0209 212.904 33.6957 212.913 32.0901 212.694C27.0054 212 23.7936 209.922 22.0525 208.136L21.9534 208.139C21.7946 208.142 21.6401 208.099 21.5098 208.008C20.8432 207.544 20.4204 207.165 20.1553 206.809C19.2597 207.508 18.3601 208.003 17.6286 208.213C15.2232 208.906 4.44839 208.919 -5.87449 204.776C-6.10496 204.683 -6.32598 204.594 -6.53799 204.509C-7.35673 205.065 -8.81173 205.363 -10.4372 205.228C-12.8774 205.026 -14.7777 203.924 -14.6817 202.767C-14.6296 202.139 -14.0011 201.624 -13.0474 201.317C-13.3089 201.145 -13.6346 200.941 -14.0621 200.689Z" fill="#271C16"/>
<path d="M34.3632 210.14C29.8483 206.658 32.7908 189.536 34.934 179.002C37.0772 168.468 41.5899 167.1 41.5899 167.1L58.8086 167.29C58.8086 167.29 61.4471 167.319 65.1834 177.63C68.9197 187.942 71.6347 206.077 68.1099 208.842C63.7039 212.298 53.9458 212.654 52.794 211.12C51.8356 209.843 51.4325 205.852 51.898 203.265L49.9563 203.876C49.9013 206.881 50.8315 210.918 49.4952 212.298C48.0347 213.296 38.8781 213.621 34.3632 210.14Z" fill="#A68B75"/>
<path d="M31.2853 200.901C30.5957 199.916 30.0949 197.33 29.9307 196.16C43.2517 194.518 69.9799 191.714 70.3247 193.635C70.6696 195.556 69.6679 197.125 69.1548 197.576C51.975 205.704 32.1474 202.133 31.2853 200.901Z" fill="#D9A75D"/>
<path d="M66.1992 144.744C70.5711 154.945 72.2706 173.5 44.0933 166.111L66.1992 144.744Z" fill="#B58F57"/>
<path d="M60.288 162.416L42.6772 164.879L41.6304 171.837L64.1673 168.82L60.288 162.416Z" fill="#A68B75"/>
<path d="M65.2757 133.426C65.2757 135.875 63.6747 138.635 61.2733 137.17C59.4875 133.647 59.6107 133.893 56.655 133.044C56.655 130.595 57.8202 128.993 60.4728 128.993C63.1254 128.993 65.2757 130.978 65.2757 133.426Z" fill="#DFAD63"/>
<path d="M67.1845 150.347C67.1845 160.175 59.0682 165.926 49.5121 165.926C39.9559 165.926 31.7781 160.175 31.7781 150.347C31.7781 140.519 39.9559 130.335 49.5121 130.335C59.0682 130.335 67.1845 140.519 67.1845 150.347Z" fill="#C2A28A"/>
<path d="M64.5909 154.668C65.0131 159.751 62.468 163.33 58.1211 164.556C54.5625 164.852 50.0006 162.008 49.5784 156.924C49.1562 151.841 50.7369 147.066 55.9529 146.632C61.9667 146.133 64.1687 149.584 64.5909 154.668Z" fill="#E8D5C7"/>
<ellipse cx="0.902346" cy="1.04598" rx="0.902346" ry="1.04598" transform="matrix(0.997687 0.0679456 -0.0790756 0.996866 49.6775 143.142)" fill="#3F3D3B"/>
<ellipse cx="0.902346" cy="1.04598" rx="0.902346" ry="1.04598" transform="matrix(0.997687 0.0679456 -0.0790756 0.996866 60.2688 142.157)" fill="#3F3D3B"/>
<ellipse cx="1.22792" cy="1.04598" rx="1.22792" ry="1.04598" transform="matrix(0.998982 -0.0450635 0.0339121 0.999422 57.0244 146.086)" fill="#3F3D3B"/>
<path d="M58.2038 151.868C58.1804 151.976 58.2494 152.082 58.3578 152.105C58.4662 152.127 58.573 152.058 58.5964 151.95L58.2038 151.868ZM58.2156 147.489C58.5149 149.211 58.5718 150.16 58.2038 151.868L58.5964 151.95C58.9783 150.177 58.9165 149.174 58.6113 147.418L58.2156 147.489Z" fill="#3F3D3B"/>
<path d="M57.2102 153.967C57.1656 154.068 57.2118 154.187 57.3132 154.231C57.4147 154.276 57.533 154.23 57.5776 154.128L57.2102 153.967ZM58.2584 151.578L57.2102 153.967L57.5776 154.128L58.6258 151.739L58.2584 151.578Z" fill="#3F3D3B"/>
<path d="M58.9622 153.903C58.9955 154.008 59.1083 154.067 59.2141 154.033C59.3199 154 59.3786 153.887 59.3453 153.782L58.9622 153.903ZM58.2701 151.709L58.9622 153.903L59.3453 153.782L58.6532 151.588L58.2701 151.709Z" fill="#3F3D3B"/>
<ellipse cx="35.9192" cy="134.261" rx="4.80296" ry="4.4335" fill="#EBB769"/>
<path d="M69.1549 178.179C68.613 174.436 64.7008 169.025 62.8125 166.788L65.3371 165.803C68.5391 170.138 69.2164 175.86 69.1549 178.179Z" fill="#6B6B6B"/>
<path d="M29.8692 196.406C27.3569 189.805 32.6643 171.775 35.8458 164.448C43.7275 169.473 57.3154 167.65 63.1241 166.11C70.2177 175.224 74.081 191.911 69.8938 194.559C64.4751 198.746 32.3815 203.007 29.8692 196.406Z" fill="#E2AF62"/>
<path d="M65.0293 131.812C63.5022 132.699 63.6746 137.277 63.0588 138.837C70.8421 148.492 69.627 158.213 68.0465 161.867C69.668 160.019 76.0391 152.97 75.9899 143.512C75.9406 134.054 67.0203 131.689 65.0293 131.812Z" fill="#D9A75D"/>
<path d="M34.1794 171.468C34.475 169.941 33.7689 166.932 33.3789 165.618L36.9503 164.571C37.1351 164.756 37.1843 164.891 37.874 166.419C38.5636 167.946 38.4692 170.011 38.2434 170.914C36.7656 171.735 33.8838 172.995 34.1794 171.468Z" fill="#6B6B6B"/>
<path d="M37.2512 170.63C35.6615 171.585 33.5102 173.784 32.6333 174.764L36.7786 183.25C38.1379 182.847 39.81 182.189 42.7388 180.089C45.6676 177.988 44.2285 173.334 42.2535 171.605C40.8737 170.397 38.841 169.676 37.2512 170.63Z" fill="#A68B75"/>
<path d="M36.2589 171.049L33.9571 173.145C34.1535 176.735 35.0749 183.947 37.1895 184.08C39.3042 184.213 41.7458 182.416 42.7023 181.501C43.913 180.628 37.2304 170.109 36.2589 171.049Z" fill="#D9A75D"/>
<path d="M22.1879 177.395C23.0388 170.012 30.9791 166.24 34.8429 165.278C36.3206 166.199 38.8849 168.381 37.7511 169.128C36.8781 169.703 36.0389 170.6 35.5333 171.093C36.6932 170.872 40.8313 183.789 39.66 184.892C38.4675 186.014 36.3989 186.575 35.1033 186.554C30.7292 186.827 21.337 184.778 22.1879 177.395Z" fill="#D4A35B"/>
<path d="M22.1543 177.26C23.032 169.985 30.979 166.24 34.8428 165.278C36.3156 166.18 38.9774 168.169 37.8418 168.909C36.7062 169.649 35.6952 170.311 35.3316 170.55C32.2354 172.794 31.7095 174.35 31.8336 174.848C31.8939 174.072 34.2701 171.978 35.4507 171.028C36.5207 170.317 40.7432 183.048 39.5476 184.158C38.352 185.269 35.4645 185.514 34.1702 185.498C29.7992 185.784 21.2765 184.536 22.1543 177.26Z" fill="#E2AF62"/>
<path d="M31.8397 174.67C31.883 174.446 31.1033 169.011 30.6674 167.029C30.6022 166.733 30.7036 166.417 30.9474 166.236C33.1861 164.577 34.5734 164.38 36.9505 164.325C37.1352 164.51 36.9998 164.583 37.6895 166.111C38.3791 167.638 38.5359 169.21 38.3101 170.113C36.2731 169.374 31.7921 174.916 31.8397 174.67Z" fill="#6B6B6B"/>
<path fill-rule="evenodd" clip-rule="evenodd" d="M40.7682 130.273C43.3544 127.933 45.0785 127.108 47.2952 127.01C49.512 126.911 51.7904 127.585 53.8224 128.364C57.7017 129.852 62.1927 134.826 65.2469 140.146C69.0646 146.797 73.5269 156.751 69.4013 162.477C66.1008 167.059 62.9974 167.711 60.5959 168.081C54.3648 169.293 52.3116 169.034 46.9579 168.36C46.2684 168.273 45.5242 168.179 44.7092 168.081C37.5663 167.219 31.2485 164.349 29.6229 162.477C27.5909 160.138 25.5259 149.401 33.0096 138.771C36.8396 133.33 37.2901 133.001 38.5266 132.098C39.0394 131.724 39.6876 131.251 40.7682 130.273ZM56.4693 133.484C54.0958 131.428 50.8613 128.627 48.6828 132.757C46.9923 135.962 45.39 138.078 44.2988 139.519C43.8637 140.093 43.5098 140.561 43.264 140.947C39.8979 145.545 33.7197 155.811 35.9365 160.097C38.1532 164.383 48.2312 166.522 52.9931 167.055C56.6466 167.22 64.5818 166.058 67.0941 160.097C69.6064 154.137 67.5251 149.013 66.3552 146.797C64.98 143.665 60.7684 137.129 57.0571 133.989C56.8683 133.829 56.6719 133.659 56.4693 133.484Z" fill="#EBB769"/>
<path d="M58.3792 136.492C57.9481 134.953 60.4727 132.859 62.5047 132.859C64.5367 132.859 64.4809 132.532 67.6094 134.029C73.4031 136.8 69.7708 141.295 70.3865 142.958C70.5302 143.84 71.0269 145.975 70.8791 146.96C70.7314 147.946 70.7149 148.253 70.2018 148.561C69.857 145.852 67.3892 141.615 65.7061 140.076C64.6822 139.139 63.4838 139.201 63.0528 139.139C60.0971 139.139 58.9137 138.401 58.3792 136.492Z" fill="#A68B75"/>
<path d="M64.4134 132.059C62.6413 133.194 62.9062 137.905 63.1603 139.648C63.4718 140.712 65.0184 140.516 65.9179 140.958C66.6376 141.312 67.8495 144.404 69.0932 145.729C69.0932 146.652 69.8701 151.123 71.6795 151.517C73.4888 151.911 72.008 139.26 69.9728 135.086C68.9247 133.918 66.1855 130.924 64.4134 132.059Z" fill="#D9A75D"/>
<path d="M56.0724 168.516C54.8297 170 52.8806 172.898 54.1953 173.789C55.51 174.68 55.9252 170.743 56.0724 168.516ZM56.0724 168.516C56.3261 171.052 57.3404 175.81 58.5376 175.736C59.6857 175.664 57.6929 170.876 56.4175 168.197C56.3613 168.079 56.1917 168.093 56.156 168.219C55.4185 170.812 54.2832 175.658 54.9566 176.818M56.0724 168.516C56.4167 170.211 57.3046 178.391 57.0229 180.297" stroke="#C49755" stroke-width="0.571203" stroke-linecap="round"/>
<path opacity="0.35" fill-rule="evenodd" clip-rule="evenodd" d="M40.7681 130.273C43.3543 127.933 45.0784 127.108 47.2952 127.01C49.5119 126.911 51.7903 127.585 53.8223 128.364C54.9461 128.795 56.1213 129.519 57.2979 130.459C57.8989 129.53 58.9363 128.993 60.4726 128.993C62.5191 128.993 64.2667 130.174 64.9584 131.839C64.9715 131.836 64.9847 131.834 64.9978 131.831C65.0082 131.825 65.0187 131.819 65.0292 131.813C65.0858 131.809 65.148 131.808 65.2154 131.808C65.3432 131.803 65.4734 131.811 65.6054 131.83C68.3417 132.096 75.9444 134.782 75.9898 143.512C76.022 149.699 73.3074 154.854 70.9717 158.198C70.7938 159.774 70.3024 161.227 69.4012 162.477C68.1149 164.263 66.8586 165.452 65.662 166.26C68.3089 170.127 69.0749 174.928 69.152 177.463C71.7493 184.634 72.5244 191.824 70.3865 194.145C70.4709 195.475 69.9449 196.589 69.4899 197.2C70.0437 202.867 69.7632 207.545 68.1098 208.842C63.7038 212.298 53.9458 212.654 52.794 211.12C51.8356 209.843 51.4324 205.852 51.898 203.265L49.9563 203.876C49.9395 204.793 50.0144 205.806 50.0887 206.81C50.2579 209.097 50.4238 211.339 49.4951 212.298C48.0347 213.296 38.8781 213.621 34.3632 210.14C32.6366 208.808 32.0006 205.482 31.9935 201.292C31.6068 201.149 31.365 201.015 31.2854 200.901C30.6924 200.054 30.2391 198.024 30.0192 196.727C29.9611 196.623 29.911 196.516 29.8691 196.406C28.9717 194.048 29.072 190.232 29.7168 185.967C26.8973 185.23 24.0752 183.767 22.8154 181.271C22.2291 180.2 21.9589 178.879 22.1542 177.26C22.7733 172.129 26.9089 168.754 30.6483 166.873C30.642 166.626 30.7461 166.385 30.9473 166.236C31.8247 165.586 32.5714 165.16 33.2981 164.879C31.5366 164.045 30.2407 163.189 29.6228 162.477C27.5908 160.138 25.5258 149.401 33.0095 138.771C33.1765 138.533 33.3371 138.306 33.4917 138.087C32.0704 137.318 31.1161 135.892 31.1161 134.261C31.1161 131.813 33.2665 129.828 35.9191 129.828C37.3577 129.828 38.6486 130.411 39.5288 131.336C39.8705 131.062 40.2741 130.72 40.7681 130.273Z" fill="url(#paint7_linear_3120_8219)"/>
<path opacity="0.53" fill-rule="evenodd" clip-rule="evenodd" d="M396.705 191.352C396.469 191.27 396.243 191.194 396.031 191.125C390.647 189.515 386.143 189.867 383.683 190.329L385.52 188.855C385.93 188.484 385.926 187.902 384.93 188.067C384.636 188.126 384.404 188.272 384.144 188.435L384.059 188.489C383.726 188.696 383.422 188.855 383.205 188.909C382.199 188.86 380.216 188.938 379.37 189.347C378.871 189.588 378.096 190.076 377.204 190.67C376.062 190.785 375.256 190.924 375.142 191.041C374.88 191.107 374.491 191.59 374.079 192.101L374.079 192.101L374.079 192.101L374.079 192.101L374.079 192.101C373.984 192.219 373.888 192.338 373.792 192.454C372.993 192.473 372.212 192.482 371.716 192.443C370.647 192.359 359.238 192.111 357.31 192.199L356.733 192.492C356.375 192.695 355.588 193.235 355.296 193.772L355.291 193.783C354.118 194.073 352.788 194.545 351.544 195.24C351.423 195.056 351.226 194.925 350.956 194.879C349.764 194.462 347.648 195.724 346.527 196.629C345.405 197.534 345.033 198.459 346.054 198.635C346.497 198.712 347.242 198.648 348.035 198.478C347.388 199.566 347.014 200.861 347.075 202.388C347.083 202.585 347.1 202.775 347.126 202.958C345.771 202.815 345.381 203.158 345.363 203.37C345.356 205.235 347.049 205.766 348.623 205.799C350.707 207.642 354.489 207.847 357.457 207.56C358.06 208.507 359.164 208.542 359.696 208.421C360.047 208.345 360.809 208.279 361.048 208.627C361.287 208.974 360.7 209.571 360.376 209.825C361.546 209.424 362.796 208.97 364.071 208.49C369.102 208.955 377.06 208.586 380.938 204.325C383.115 204.143 385.403 203.622 386.313 203.327C388.057 202.76 388.581 202.535 389.683 202.062C390.415 201.748 391.402 201.324 393.17 200.618C393.648 200.888 393.854 201.219 393.899 201.369C393.975 201.871 395.941 201.826 396.86 200.919C397.667 200.123 396.908 199.62 396.258 199.408C404.036 196.336 402.074 193.89 399.129 192.372C399.848 192.062 400.533 191.596 400.527 190.999C400.517 190.063 398.525 190.102 397.924 190.647C397.75 190.787 397.315 191.076 396.705 191.352Z" fill="#271C16"/>
<path d="M375.029 193.163C372.776 194.757 371.94 197.018 371.803 197.949L363.176 195.617C362.042 185.465 362.478 166.359 373.296 171.154C386.818 177.149 377.846 191.171 375.029 193.163Z" fill="#876B57"/>
<ellipse cx="0.71447" cy="4.08879" rx="0.71447" ry="4.08879" transform="matrix(-0.976879 -0.213793 -0.213793 0.976879 345.362 167.719)" fill="#822E30"/>
<path d="M341.512 164.951L351.361 172.449L348.929 179.115C346.471 176.743 341.588 172.633 340.519 171.105C339.891 170.207 340.391 168.235 340.845 167.248C340.796 167.026 340.544 166.701 340.193 166.341C339.88 166.021 339.579 165.748 339.543 165.416C339.513 164.406 340.818 164.491 341.512 164.951Z" fill="#B1927A"/>
<path d="M360.368 206.833C366.214 207.234 367.34 203.951 367.173 202.259C365.425 202.314 361.617 202.85 360.368 204.546C359.118 206.241 359.847 206.777 360.368 206.833Z" fill="#876B57"/>
<path d="M373.867 192.999C371.97 188.592 368.661 177.566 367.117 171.077L349.434 172.136C345.82 177.848 343.057 189.094 342.127 194.003C341.96 197.387 345.05 204.322 358.75 204.992C372.45 205.661 374.443 196.941 373.867 192.999Z" fill="#B1927A"/>
<path d="M343.243 200.028C341.904 201.143 344.012 203.425 345.658 204.67C347.304 205.915 349.249 206.421 349.992 205.438C350.736 204.456 350.356 201.775 348.709 200.53C347.063 199.284 343.986 199.045 343.243 200.028Z" fill="#876B57"/>
<path d="M371.798 158.355C369.747 158.637 370.349 158.911 370.085 159.275C372.389 166.573 370.376 170.361 368.128 173.146C364.172 178.047 353.843 177.06 349.002 173.592C342.797 169.147 345.676 163.411 347.906 160.96C348.822 158.321 350.509 156.118 351.134 155.532C351.446 154.724 352.011 154.505 351.533 154.258C349.886 153.405 348.999 151.877 350.535 151.186C352.693 150.215 353.262 151.745 354.374 152.876C362.856 151.239 367.719 154.024 368.729 156.266L368.744 156.253C369.275 155.79 369.478 155.613 370.039 155.563C370.776 155.497 371.44 155.455 372.322 156.112C373.203 156.768 373.103 158.217 371.798 158.355Z" fill="#C2A28A"/>
<path d="M368.802 157.742C369.596 156.7 370.913 156.734 371.607 157.013C371.93 157.565 371.627 158.002 371.285 158.012C371.17 158.03 370.812 158.054 370.423 158.106C370.017 158.16 369.544 158.621 369.354 158.929C369.428 158.562 368.992 158.076 368.802 157.742Z" fill="#D9BFAB"/>
<path d="M353.174 153.796C352.709 152.485 351.556 152.012 350.837 152.13C350.419 152.472 350.461 152.96 350.803 153.27C350.905 153.32 351.194 153.525 351.514 153.734C351.869 153.966 352.253 154.539 352.348 154.915C352.376 154.505 352.909 154.101 353.174 153.796Z" fill="#D9BFAB"/>
<ellipse cx="0.613599" cy="0.798699" rx="0.613599" ry="0.798699" transform="matrix(-0.994142 -0.108085 -0.108085 0.994142 360.361 164.287)" fill="#3F3D3B"/>
<ellipse cx="0.613599" cy="0.798699" rx="0.613599" ry="0.798699" transform="matrix(-0.994142 -0.108085 -0.108085 0.994142 353.042 162.734)" fill="#3F3D3B"/>
<path d="M357.461 168.179C357.414 166.547 353.647 165.244 352.047 166.642" stroke="#B79980" stroke-width="0.33469" stroke-linecap="round"/>
<path d="M353.644 172.106C355.794 172.34 355.701 170.476 355.759 169.71L354.678 168.279L352.695 168.759C352.003 170.151 351.965 171.924 353.644 172.106Z" fill="#3F3D3B"/>
<path d="M354.917 168.591L355.437 169.118L355.361 169.816C355.303 170.347 354.795 170.709 354.274 170.589L353.606 170.436C353.108 170.322 352.807 169.813 352.947 169.322L353.19 168.471L354.157 168.334C354.437 168.294 354.719 168.39 354.917 168.591Z" fill="#FFFDFD"/>
<path d="M353.811 165.907C353.761 166.37 354.01 166.864 354.706 167.082C355.334 167.15 356.147 166.913 356.197 166.449C356.248 165.985 355.69 165.497 355.062 165.429C354.434 165.361 353.862 165.443 353.811 165.907Z" fill="#3F3D3B"/>
<line y1="-0.230368" x2="2.34283" y2="-0.230368" transform="matrix(-0.108085 0.994142 0.994142 0.108085 355.061 166.084)" stroke="#3F3D3B" stroke-width="0.460736"/>
<path d="M356.065 169.626C356.149 169.721 356.139 169.867 356.043 169.951C355.947 170.034 355.802 170.024 355.718 169.928L356.065 169.626ZM354.768 168.138L356.065 169.626L355.718 169.928L354.421 168.441L354.768 168.138Z" fill="#3F3D3B"/>
<path d="M352.691 168.855C352.566 168.877 352.447 168.793 352.425 168.667C352.403 168.542 352.487 168.423 352.612 168.401L352.691 168.855ZM354.634 168.516L352.691 168.855L352.612 168.401L354.555 168.062L354.634 168.516Z" fill="#3F3D3B"/>
<path d="M379.945 192.959C377.488 187.001 372.88 178.958 370.884 175.682L355.603 177.602C355.961 178.958 356.801 183.253 356.678 185.895C356.555 188.536 357.957 193.983 358.29 197.029C360.256 198.197 361.413 197.413 361.746 196.876C361.823 196.722 362.068 196.338 362.437 196.031C362.805 195.724 364.792 195.903 365.739 196.031C366.788 196.031 369.686 195.954 372.88 195.647C376.075 195.34 376.668 194.035 376.566 193.42C376.515 193.062 376.628 192.299 377.488 192.115C378.348 191.931 379.484 192.601 379.945 192.959Z" fill="#994043"/>
<path d="M343.015 175.375C343.779 175.088 344.342 168.536 344.75 166.086L345.464 170.271L347.608 173.231L346.587 177.62C345.158 176.769 342.198 175.681 343.015 175.375Z" fill="#92393B"/>
<path d="M351.763 197.567L354.758 179.608L355.372 178.139C352.28 177.278 346.89 173.518 346.988 172.384C347.011 172.297 347.018 172.265 347.002 172.313C346.995 172.335 346.99 172.359 346.988 172.384C346.884 172.77 346.457 174.245 346.311 174.684C345.902 175.707 345.405 178.093 344.852 179.137C344.299 180.182 339.861 191.424 339.4 193.343L339.861 193.958C340.194 194.342 341.136 195.202 342.241 195.57C343.347 195.939 345.006 195.57 345.697 195.34C345.978 195.212 346.68 194.941 347.233 194.879C347.786 194.818 348.487 195.57 348.768 195.954C348.4 195.033 348.922 194.7 349.229 194.649C350.074 194.777 351.671 195.217 351.302 195.954C350.934 196.691 350.432 196.722 350.227 196.645L351.763 197.567Z" fill="#994043"/>
<path d="M369.266 178.91L364.707 180.448C365.335 184.011 365.9 189.306 367.513 190.279C369.125 191.252 372.311 189.913 372.885 188.086C373.6 185.809 371.161 182.056 369.266 178.91Z" fill="#B1927A"/>
<path d="M369.266 178.91L364.707 180.448C365.838 185.495 366.765 189.264 367.609 189.719C369.265 190.611 371.466 189.736 372.371 188.111C373.217 186.045 371.036 182.279 369.266 178.91Z" fill="#B1927A"/>
<path fill-rule="evenodd" clip-rule="evenodd" d="M350.177 154.9C353.887 151.631 363.236 144.785 368.955 156.192C370.886 160.043 371.87 161.709 372.525 162.819C373.21 163.98 373.537 164.532 374.212 166.341C374.962 168.351 375.874 176.695 369.647 176.325C367.915 176.325 366.146 176.838 364.076 178.014C362.005 179.19 359.141 179.233 357.472 179.162C353.815 178.359 346.07 175.019 344.351 168.078C343.873 165.995 343.815 160.841 350.177 154.9ZM358.746 154.977C361.311 155.284 364.076 157.358 365.151 161.427C366.795 167.651 366.683 169.41 366.642 170.066C366.639 170.109 366.637 170.147 366.635 170.181C366.626 170.38 366.63 170.608 366.634 170.856C366.673 172.976 366.739 176.624 358.775 176.807C358.485 176.787 358.164 176.772 357.819 176.757C354.92 176.624 350.273 176.411 347.437 172.394C344.263 167.898 345.665 166.099 346.599 165.132C347.344 164.36 348.106 163.017 348.876 161.659C349.713 160.182 350.559 158.689 351.405 157.895C353.661 155.779 355.475 154.977 358.746 154.977Z" fill="#AA4245"/>
<path d="M372.407 155.552C370.687 154.507 369.131 155.526 368.568 156.166C368.721 157.497 369.243 160.005 370.104 159.391C370.964 158.777 371.998 158.572 372.407 158.546C373.559 158.546 374.127 156.596 372.407 155.552Z" fill="#AA4245"/>
<path d="M351.426 150.436C353.528 150.567 354.331 152.338 354.47 153.207C353.589 154.237 351.723 156.042 351.308 155.02C350.893 153.998 350.096 153.219 349.749 152.957C348.732 152.281 349.323 150.305 351.426 150.436Z" fill="#AA4245"/>
<rect width="1.52043" height="1.88529" rx="0.153579" transform="matrix(-0.987306 -0.158831 -0.158831 0.987306 356.447 177.92)" fill="#E1CDCD"/>
<path d="M373.268 185.263C373.312 184.687 370.716 180.5 369.491 178.526C368.981 177.2 364.449 177.036 364.286 180.058C364.123 183.079 365.307 188.223 366.021 188.427C366.633 188.733 373.165 186.59 373.268 185.263Z" fill="#AA4245"/>
<path opacity="0.35" fill-rule="evenodd" clip-rule="evenodd" d="M350.916 154.268C350.65 154.489 350.403 154.701 350.177 154.9C344.735 159.981 343.99 164.488 344.188 166.988L341.512 164.951C340.818 164.49 339.513 164.406 339.543 165.416C339.576 165.716 339.824 165.967 340.102 166.248L340.102 166.248C340.132 166.279 340.162 166.31 340.193 166.341C340.544 166.7 340.796 167.026 340.845 167.248C340.391 168.235 339.892 170.207 340.519 171.105C340.89 171.635 341.719 172.475 342.746 173.445C342.616 174.592 342.654 175.41 342.878 175.539C342.936 175.809 343.885 176.266 344.89 176.75L344.89 176.75L344.89 176.75L344.89 176.75L344.89 176.75L344.891 176.75L344.891 176.75L344.892 176.751L344.892 176.751C345.123 176.862 345.356 176.974 345.583 177.086C345.353 177.879 345.109 178.653 344.852 179.137C344.299 180.182 339.861 191.424 339.4 193.343L339.861 193.958C340.194 194.342 341.136 195.202 342.241 195.57L342.263 195.577C342.513 196.781 343.118 198.166 344.253 199.5C343.8 199.593 343.439 199.767 343.243 200.028C341.904 201.143 344.012 203.425 345.658 204.67C347.305 205.915 349.249 206.421 349.992 205.438C350.315 205.012 350.426 204.266 350.314 203.456C352.533 204.26 355.307 204.824 358.75 204.992C359.194 205.014 359.626 205.026 360.046 205.028C359.265 206.346 359.9 206.783 360.368 206.833C364.545 207.12 366.313 205.525 366.92 203.974C371.761 202.191 373.508 198.483 373.876 195.505C376.201 195.051 376.657 193.964 376.566 193.42C376.515 193.062 376.628 192.299 377.488 192.115C378.348 191.93 379.484 192.601 379.945 192.959C379.443 191.742 378.852 190.439 378.211 189.106C380.966 184.201 382.848 176.279 374.62 171.804C374.952 169.625 374.564 167.285 374.212 166.341C373.537 164.532 373.21 163.98 372.525 162.819C372.07 162.048 371.456 161.009 370.476 159.155C371.243 158.722 372.056 158.568 372.407 158.546C373.559 158.546 374.127 156.596 372.407 155.552C370.897 154.634 369.512 155.309 368.816 155.92C364.579 147.769 358.43 149.341 354.025 152.025C353.576 151.268 352.764 150.519 351.426 150.436C349.323 150.305 348.732 152.281 349.748 152.957C350.004 153.15 350.504 153.623 350.916 154.268Z" fill="url(#paint8_linear_3120_8219)"/>
</g>
<defs>
<filter id="filter0_f_3120_8219" x="372.778" y="57.0754" width="3.00304" height="2.94982" filterUnits="userSpaceOnUse" color-interpolation-filters="sRGB">
<feFlood flood-opacity="0" result="BackgroundImageFix"/>
<feBlend mode="normal" in="SourceGraphic" in2="BackgroundImageFix" result="shape"/>
<feGaussianBlur stdDeviation="0.333982" result="effect1_foregroundBlur_3120_8219"/>
</filter>
<filter id="filter1_f_3120_8219" x="373.445" y="57.7697" width="1.66992" height="1.66992" filterUnits="userSpaceOnUse" color-interpolation-filters="sRGB">
<feFlood flood-opacity="0" result="BackgroundImageFix"/>
<feBlend mode="normal" in="SourceGraphic" in2="BackgroundImageFix" result="shape"/>
<feGaussianBlur stdDeviation="0.166991" result="effect1_foregroundBlur_3120_8219"/>
</filter>
<filter id="filter2_f_3120_8219" x="372.778" y="57.0754" width="3.00304" height="2.94982" filterUnits="userSpaceOnUse" color-interpolation-filters="sRGB">
<feFlood flood-opacity="0" result="BackgroundImageFix"/>
<feBlend mode="normal" in="SourceGraphic" in2="BackgroundImageFix" result="shape"/>
<feGaussianBlur stdDeviation="0.333982" result="effect1_foregroundBlur_3120_8219"/>
</filter>
<filter id="filter3_f_3120_8219" x="373.445" y="57.7697" width="1.66992" height="1.66992" filterUnits="userSpaceOnUse" color-interpolation-filters="sRGB">
<feFlood flood-opacity="0" result="BackgroundImageFix"/>
<feBlend mode="normal" in="SourceGraphic" in2="BackgroundImageFix" result="shape"/>
<feGaussianBlur stdDeviation="0.166991" result="effect1_foregroundBlur_3120_8219"/>
</filter>
<filter id="filter4_f_3120_8219" x="192.428" y="110.513" width="3.00292" height="2.94982" filterUnits="userSpaceOnUse" color-interpolation-filters="sRGB">
<feFlood flood-opacity="0" result="BackgroundImageFix"/>
<feBlend mode="normal" in="SourceGraphic" in2="BackgroundImageFix" result="shape"/>
<feGaussianBlur stdDeviation="0.333982" result="effect1_foregroundBlur_3120_8219"/>
</filter>
<filter id="filter5_f_3120_8219" x="193.094" y="111.207" width="1.66992" height="1.66992" filterUnits="userSpaceOnUse" color-interpolation-filters="sRGB">
<feFlood flood-opacity="0" result="BackgroundImageFix"/>
<feBlend mode="normal" in="SourceGraphic" in2="BackgroundImageFix" result="shape"/>
<feGaussianBlur stdDeviation="0.166991" result="effect1_foregroundBlur_3120_8219"/>
</filter>
<filter id="filter6_f_3120_8219" x="72.8621" y="132.221" width="3.00292" height="2.94982" filterUnits="userSpaceOnUse" color-interpolation-filters="sRGB">
<feFlood flood-opacity="0" result="BackgroundImageFix"/>
<feBlend mode="normal" in="SourceGraphic" in2="BackgroundImageFix" result="shape"/>
<feGaussianBlur stdDeviation="0.333982" result="effect1_foregroundBlur_3120_8219"/>
</filter>
<filter id="filter7_f_3120_8219" x="73.5286" y="132.916" width="1.66992" height="1.66992" filterUnits="userSpaceOnUse" color-interpolation-filters="sRGB">
<feFlood flood-opacity="0" result="BackgroundImageFix"/>
<feBlend mode="normal" in="SourceGraphic" in2="BackgroundImageFix" result="shape"/>
<feGaussianBlur stdDeviation="0.166991" result="effect1_foregroundBlur_3120_8219"/>
</filter>
<filter id="filter8_f_3120_8219" x="89.5613" y="113.518" width="3.00292" height="2.94982" filterUnits="userSpaceOnUse" color-interpolation-filters="sRGB">
<feFlood flood-opacity="0" result="BackgroundImageFix"/>
<feBlend mode="normal" in="SourceGraphic" in2="BackgroundImageFix" result="shape"/>
<feGaussianBlur stdDeviation="0.333982" result="effect1_foregroundBlur_3120_8219"/>
</filter>
<filter id="filter9_f_3120_8219" x="90.2278" y="114.212" width="1.66992" height="1.66992" filterUnits="userSpaceOnUse" color-interpolation-filters="sRGB">
<feFlood flood-opacity="0" result="BackgroundImageFix"/>
<feBlend mode="normal" in="SourceGraphic" in2="BackgroundImageFix" result="shape"/>
<feGaussianBlur stdDeviation="0.166991" result="effect1_foregroundBlur_3120_8219"/>
</filter>
<filter id="filter10_f_3120_8219" x="130.975" y="116.524" width="3.00292" height="2.94982" filterUnits="userSpaceOnUse" color-interpolation-filters="sRGB">
<feFlood flood-opacity="0" result="BackgroundImageFix"/>
<feBlend mode="normal" in="SourceGraphic" in2="BackgroundImageFix" result="shape"/>
<feGaussianBlur stdDeviation="0.333982" result="effect1_foregroundBlur_3120_8219"/>
</filter>
<filter id="filter11_f_3120_8219" x="131.641" y="117.218" width="1.66992" height="1.66992" filterUnits="userSpaceOnUse" color-interpolation-filters="sRGB">
<feFlood flood-opacity="0" result="BackgroundImageFix"/>
<feBlend mode="normal" in="SourceGraphic" in2="BackgroundImageFix" result="shape"/>
<feGaussianBlur stdDeviation="0.166991" result="effect1_foregroundBlur_3120_8219"/>
</filter>
<filter id="filter12_f_3120_8219" x="143.332" y="91.1414" width="3.00292" height="2.94982" filterUnits="userSpaceOnUse" color-interpolation-filters="sRGB">
<feFlood flood-opacity="0" result="BackgroundImageFix"/>
<feBlend mode="normal" in="SourceGraphic" in2="BackgroundImageFix" result="shape"/>
<feGaussianBlur stdDeviation="0.333982" result="effect1_foregroundBlur_3120_8219"/>
</filter>
<filter id="filter13_f_3120_8219" x="143.999" y="91.8357" width="1.66992" height="1.66992" filterUnits="userSpaceOnUse" color-interpolation-filters="sRGB">
<feFlood flood-opacity="0" result="BackgroundImageFix"/>
<feBlend mode="normal" in="SourceGraphic" in2="BackgroundImageFix" result="shape"/>
<feGaussianBlur stdDeviation="0.166991" result="effect1_foregroundBlur_3120_8219"/>
</filter>
<filter id="filter14_f_3120_8219" x="205.453" y="64.7566" width="3.00304" height="2.94982" filterUnits="userSpaceOnUse" color-interpolation-filters="sRGB">
<feFlood flood-opacity="0" result="BackgroundImageFix"/>
<feBlend mode="normal" in="SourceGraphic" in2="BackgroundImageFix" result="shape"/>
<feGaussianBlur stdDeviation="0.333982" result="effect1_foregroundBlur_3120_8219"/>
</filter>
<filter id="filter15_f_3120_8219" x="206.119" y="65.4509" width="1.66992" height="1.66992" filterUnits="userSpaceOnUse" color-interpolation-filters="sRGB">
<feFlood flood-opacity="0" result="BackgroundImageFix"/>
<feBlend mode="normal" in="SourceGraphic" in2="BackgroundImageFix" result="shape"/>
<feGaussianBlur stdDeviation="0.166991" result="effect1_foregroundBlur_3120_8219"/>
</filter>
<filter id="filter16_f_3120_8219" x="260.894" y="88.1355" width="3.00304" height="2.94982" filterUnits="userSpaceOnUse" color-interpolation-filters="sRGB">
<feFlood flood-opacity="0" result="BackgroundImageFix"/>
<feBlend mode="normal" in="SourceGraphic" in2="BackgroundImageFix" result="shape"/>
<feGaussianBlur stdDeviation="0.333982" result="effect1_foregroundBlur_3120_8219"/>
</filter>
<filter id="filter17_f_3120_8219" x="261.56" y="88.8297" width="1.66992" height="1.66992" filterUnits="userSpaceOnUse" color-interpolation-filters="sRGB">
<feFlood flood-opacity="0" result="BackgroundImageFix"/>
<feBlend mode="normal" in="SourceGraphic" in2="BackgroundImageFix" result="shape"/>
<feGaussianBlur stdDeviation="0.166991" result="effect1_foregroundBlur_3120_8219"/>
</filter>
<filter id="filter18_f_3120_8219" x="256.552" y="94.1475" width="3.00304" height="2.94982" filterUnits="userSpaceOnUse" color-interpolation-filters="sRGB">
<feFlood flood-opacity="0" result="BackgroundImageFix"/>
<feBlend mode="normal" in="SourceGraphic" in2="BackgroundImageFix" result="shape"/>
<feGaussianBlur stdDeviation="0.333982" result="effect1_foregroundBlur_3120_8219"/>
</filter>
<filter id="filter19_f_3120_8219" x="257.219" y="94.8417" width="1.66992" height="1.66992" filterUnits="userSpaceOnUse" color-interpolation-filters="sRGB">
<feFlood flood-opacity="0" result="BackgroundImageFix"/>
<feBlend mode="normal" in="SourceGraphic" in2="BackgroundImageFix" result="shape"/>
<feGaussianBlur stdDeviation="0.166991" result="effect1_foregroundBlur_3120_8219"/>
</filter>
<filter id="filter20_f_3120_8219" x="128.637" y="56.0732" width="3.00292" height="2.94982" filterUnits="userSpaceOnUse" color-interpolation-filters="sRGB">
<feFlood flood-opacity="0" result="BackgroundImageFix"/>
<feBlend mode="normal" in="SourceGraphic" in2="BackgroundImageFix" result="shape"/>
<feGaussianBlur stdDeviation="0.333982" result="effect1_foregroundBlur_3120_8219"/>
</filter>
<filter id="filter21_f_3120_8219" x="129.303" y="56.7676" width="1.66992" height="1.66992" filterUnits="userSpaceOnUse" color-interpolation-filters="sRGB">
<feFlood flood-opacity="0" result="BackgroundImageFix"/>
<feBlend mode="normal" in="SourceGraphic" in2="BackgroundImageFix" result="shape"/>
<feGaussianBlur stdDeviation="0.166991" result="effect1_foregroundBlur_3120_8219"/>
</filter>
<filter id="filter22_f_3120_8219" x="82.8816" y="34.6985" width="3.00292" height="2.94982" filterUnits="userSpaceOnUse" color-interpolation-filters="sRGB">
<feFlood flood-opacity="0" result="BackgroundImageFix"/>
<feBlend mode="normal" in="SourceGraphic" in2="BackgroundImageFix" result="shape"/>
<feGaussianBlur stdDeviation="0.333982" result="effect1_foregroundBlur_3120_8219"/>
</filter>
<filter id="filter23_f_3120_8219" x="83.5481" y="35.3927" width="1.66992" height="1.66992" filterUnits="userSpaceOnUse" color-interpolation-filters="sRGB">
<feFlood flood-opacity="0" result="BackgroundImageFix"/>
<feBlend mode="normal" in="SourceGraphic" in2="BackgroundImageFix" result="shape"/>
<feGaussianBlur stdDeviation="0.166991" result="effect1_foregroundBlur_3120_8219"/>
</filter>
<filter id="filter24_f_3120_8219" x="91.5652" y="39.7083" width="3.00292" height="2.94982" filterUnits="userSpaceOnUse" color-interpolation-filters="sRGB">
<feFlood flood-opacity="0" result="BackgroundImageFix"/>
<feBlend mode="normal" in="SourceGraphic" in2="BackgroundImageFix" result="shape"/>
<feGaussianBlur stdDeviation="0.333982" result="effect1_foregroundBlur_3120_8219"/>
</filter>
<filter id="filter25_f_3120_8219" x="92.2317" y="40.4025" width="1.66992" height="1.66992" filterUnits="userSpaceOnUse" color-interpolation-filters="sRGB">
<feFlood flood-opacity="0" result="BackgroundImageFix"/>
<feBlend mode="normal" in="SourceGraphic" in2="BackgroundImageFix" result="shape"/>
<feGaussianBlur stdDeviation="0.166991" result="effect1_foregroundBlur_3120_8219"/>
</filter>
<filter id="filter26_f_3120_8219" x="270.579" y="31.6924" width="3.00304" height="2.94982" filterUnits="userSpaceOnUse" color-interpolation-filters="sRGB">
<feFlood flood-opacity="0" result="BackgroundImageFix"/>
<feBlend mode="normal" in="SourceGraphic" in2="BackgroundImageFix" result="shape"/>
<feGaussianBlur stdDeviation="0.333982" result="effect1_foregroundBlur_3120_8219"/>
</filter>
<filter id="filter27_f_3120_8219" x="271.246" y="32.3867" width="1.66992" height="1.66992" filterUnits="userSpaceOnUse" color-interpolation-filters="sRGB">
<feFlood flood-opacity="0" result="BackgroundImageFix"/>
<feBlend mode="normal" in="SourceGraphic" in2="BackgroundImageFix" result="shape"/>
<feGaussianBlur stdDeviation="0.166991" result="effect1_foregroundBlur_3120_8219"/>
</filter>
<filter id="filter28_f_3120_8219" x="55.8289" y="84.4619" width="3.00292" height="2.94982" filterUnits="userSpaceOnUse" color-interpolation-filters="sRGB">
<feFlood flood-opacity="0" result="BackgroundImageFix"/>
<feBlend mode="normal" in="SourceGraphic" in2="BackgroundImageFix" result="shape"/>
<feGaussianBlur stdDeviation="0.333982" result="effect1_foregroundBlur_3120_8219"/>
</filter>
<filter id="filter29_f_3120_8219" x="56.4954" y="85.1561" width="1.66992" height="1.66992" filterUnits="userSpaceOnUse" color-interpolation-filters="sRGB">
<feFlood flood-opacity="0" result="BackgroundImageFix"/>
<feBlend mode="normal" in="SourceGraphic" in2="BackgroundImageFix" result="shape"/>
<feGaussianBlur stdDeviation="0.166991" result="effect1_foregroundBlur_3120_8219"/>
</filter>
<filter id="filter30_f_3120_8219" x="52.4893" y="81.4558" width="3.00292" height="2.94982" filterUnits="userSpaceOnUse" color-interpolation-filters="sRGB">
<feFlood flood-opacity="0" result="BackgroundImageFix"/>
<feBlend mode="normal" in="SourceGraphic" in2="BackgroundImageFix" result="shape"/>
<feGaussianBlur stdDeviation="0.333982" result="effect1_foregroundBlur_3120_8219"/>
</filter>
<filter id="filter31_f_3120_8219" x="53.1558" y="82.1501" width="1.66992" height="1.66992" filterUnits="userSpaceOnUse" color-interpolation-filters="sRGB">
<feFlood flood-opacity="0" result="BackgroundImageFix"/>
<feBlend mode="normal" in="SourceGraphic" in2="BackgroundImageFix" result="shape"/>
<feGaussianBlur stdDeviation="0.166991" result="effect1_foregroundBlur_3120_8219"/>
</filter>
<filter id="filter32_f_3120_8219" x="53.2874" y="5.07886" width="4.0786" height="3.97741" filterUnits="userSpaceOnUse" color-interpolation-filters="sRGB">
<feFlood flood-opacity="0" result="BackgroundImageFix"/>
<feBlend mode="normal" in="SourceGraphic" in2="BackgroundImageFix" result="shape"/>
<feGaussianBlur stdDeviation="0.333982" result="effect1_foregroundBlur_3120_8219"/>
</filter>
<filter id="filter33_f_3120_8219" x="54.269" y="6.11328" width="2.11523" height="2.11523" filterUnits="userSpaceOnUse" color-interpolation-filters="sRGB">
<feFlood flood-opacity="0" result="BackgroundImageFix"/>
<feBlend mode="normal" in="SourceGraphic" in2="BackgroundImageFix" result="shape"/>
<feGaussianBlur stdDeviation="0.166991" result="effect1_foregroundBlur_3120_8219"/>
</filter>
<filter id="filter34_f_3120_8219" x="303.644" y="50.7295" width="3.00304" height="2.94982" filterUnits="userSpaceOnUse" color-interpolation-filters="sRGB">
<feFlood flood-opacity="0" result="BackgroundImageFix"/>
<feBlend mode="normal" in="SourceGraphic" in2="BackgroundImageFix" result="shape"/>
<feGaussianBlur stdDeviation="0.333982" result="effect1_foregroundBlur_3120_8219"/>
</filter>
<filter id="filter35_f_3120_8219" x="304.31" y="51.4238" width="1.66992" height="1.66992" filterUnits="userSpaceOnUse" color-interpolation-filters="sRGB">
<feFlood flood-opacity="0" result="BackgroundImageFix"/>
<feBlend mode="normal" in="SourceGraphic" in2="BackgroundImageFix" result="shape"/>
<feGaussianBlur stdDeviation="0.166991" result="effect1_foregroundBlur_3120_8219"/>
</filter>
<filter id="filter36_f_3120_8219" x="292.956" y="71.4365" width="3.00304" height="2.94982" filterUnits="userSpaceOnUse" color-interpolation-filters="sRGB">
<feFlood flood-opacity="0" result="BackgroundImageFix"/>
<feBlend mode="normal" in="SourceGraphic" in2="BackgroundImageFix" result="shape"/>
<feGaussianBlur stdDeviation="0.333982" result="effect1_foregroundBlur_3120_8219"/>
</filter>
<filter id="filter37_f_3120_8219" x="293.623" y="72.1307" width="1.66992" height="1.66992" filterUnits="userSpaceOnUse" color-interpolation-filters="sRGB">
<feFlood flood-opacity="0" result="BackgroundImageFix"/>
<feBlend mode="normal" in="SourceGraphic" in2="BackgroundImageFix" result="shape"/>
<feGaussianBlur stdDeviation="0.166991" result="effect1_foregroundBlur_3120_8219"/>
</filter>
<filter id="filter38_f_3120_8219" x="292.956" y="71.4365" width="3.00304" height="2.94982" filterUnits="userSpaceOnUse" color-interpolation-filters="sRGB">
<feFlood flood-opacity="0" result="BackgroundImageFix"/>
<feBlend mode="normal" in="SourceGraphic" in2="BackgroundImageFix" result="shape"/>
<feGaussianBlur stdDeviation="0.333982" result="effect1_foregroundBlur_3120_8219"/>
</filter>
<filter id="filter39_f_3120_8219" x="293.623" y="72.1307" width="1.66992" height="1.66992" filterUnits="userSpaceOnUse" color-interpolation-filters="sRGB">
<feFlood flood-opacity="0" result="BackgroundImageFix"/>
<feBlend mode="normal" in="SourceGraphic" in2="BackgroundImageFix" result="shape"/>
<feGaussianBlur stdDeviation="0.166991" result="effect1_foregroundBlur_3120_8219"/>
</filter>
<filter id="filter40_f_3120_8219" x="356.413" y="106.986" width="2.3352" height="2.39464" filterUnits="userSpaceOnUse" color-interpolation-filters="sRGB">
<feFlood flood-opacity="0" result="BackgroundImageFix"/>
<feBlend mode="normal" in="SourceGraphic" in2="BackgroundImageFix" result="shape"/>
<feGaussianBlur stdDeviation="0.333982" result="effect1_foregroundBlur_3120_8219"/>
</filter>
<filter id="filter41_f_3120_8219" x="356.968" y="107.533" width="1.2246" height="1.33593" filterUnits="userSpaceOnUse" color-interpolation-filters="sRGB">
<feFlood flood-opacity="0" result="BackgroundImageFix"/>
<feBlend mode="normal" in="SourceGraphic" in2="BackgroundImageFix" result="shape"/>
<feGaussianBlur stdDeviation="0.166991" result="effect1_foregroundBlur_3120_8219"/>
</filter>
<filter id="filter42_f_3120_8219" x="268.575" y="130.698" width="2.3352" height="2.39464" filterUnits="userSpaceOnUse" color-interpolation-filters="sRGB">
<feFlood flood-opacity="0" result="BackgroundImageFix"/>
<feBlend mode="normal" in="SourceGraphic" in2="BackgroundImageFix" result="shape"/>
<feGaussianBlur stdDeviation="0.333982" result="effect1_foregroundBlur_3120_8219"/>
</filter>
<filter id="filter43_f_3120_8219" x="269.131" y="131.245" width="1.2246" height="1.33593" filterUnits="userSpaceOnUse" color-interpolation-filters="sRGB">
<feFlood flood-opacity="0" result="BackgroundImageFix"/>
<feBlend mode="normal" in="SourceGraphic" in2="BackgroundImageFix" result="shape"/>
<feGaussianBlur stdDeviation="0.166991" result="effect1_foregroundBlur_3120_8219"/>
</filter>
<filter id="filter44_f_3120_8219" x="281.935" y="161.09" width="2.3352" height="2.39464" filterUnits="userSpaceOnUse" color-interpolation-filters="sRGB">
<feFlood flood-opacity="0" result="BackgroundImageFix"/>
<feBlend mode="normal" in="SourceGraphic" in2="BackgroundImageFix" result="shape"/>
<feGaussianBlur stdDeviation="0.333982" result="effect1_foregroundBlur_3120_8219"/>
</filter>
<filter id="filter45_f_3120_8219" x="282.49" y="161.638" width="1.2246" height="1.33593" filterUnits="userSpaceOnUse" color-interpolation-filters="sRGB">
<feFlood flood-opacity="0" result="BackgroundImageFix"/>
<feBlend mode="normal" in="SourceGraphic" in2="BackgroundImageFix" result="shape"/>
<feGaussianBlur stdDeviation="0.166991" result="effect1_foregroundBlur_3120_8219"/>
</filter>
<filter id="filter46_f_3120_8219" x="341.94" y="119.859" width="2.00219" height="2.04174" filterUnits="userSpaceOnUse" color-interpolation-filters="sRGB">
<feFlood flood-opacity="0" result="BackgroundImageFix"/>
<feBlend mode="normal" in="SourceGraphic" in2="BackgroundImageFix" result="shape"/>
<feGaussianBlur stdDeviation="0.333982" result="effect1_foregroundBlur_3120_8219"/>
</filter>
<filter id="filter47_f_3120_8219" x="342.421" y="120.335" width="1.03906" height="1.11328" filterUnits="userSpaceOnUse" color-interpolation-filters="sRGB">
<feFlood flood-opacity="0" result="BackgroundImageFix"/>
<feBlend mode="normal" in="SourceGraphic" in2="BackgroundImageFix" result="shape"/>
<feGaussianBlur stdDeviation="0.166991" result="effect1_foregroundBlur_3120_8219"/>
</filter>
<filter id="filter48_f_3120_8219" x="306.537" y="120.527" width="2.00219" height="2.04174" filterUnits="userSpaceOnUse" color-interpolation-filters="sRGB">
<feFlood flood-opacity="0" result="BackgroundImageFix"/>
<feBlend mode="normal" in="SourceGraphic" in2="BackgroundImageFix" result="shape"/>
<feGaussianBlur stdDeviation="0.333982" result="effect1_foregroundBlur_3120_8219"/>
</filter>
<filter id="filter49_f_3120_8219" x="307.019" y="121.003" width="1.03906" height="1.11328" filterUnits="userSpaceOnUse" color-interpolation-filters="sRGB">
<feFlood flood-opacity="0" result="BackgroundImageFix"/>
<feBlend mode="normal" in="SourceGraphic" in2="BackgroundImageFix" result="shape"/>
<feGaussianBlur stdDeviation="0.166991" result="effect1_foregroundBlur_3120_8219"/>
</filter>
<filter id="filter50_f_3120_8219" x="292.51" y="108.838" width="2.00219" height="2.04174" filterUnits="userSpaceOnUse" color-interpolation-filters="sRGB">
<feFlood flood-opacity="0" result="BackgroundImageFix"/>
<feBlend mode="normal" in="SourceGraphic" in2="BackgroundImageFix" result="shape"/>
<feGaussianBlur stdDeviation="0.333982" result="effect1_foregroundBlur_3120_8219"/>
</filter>
<filter id="filter51_f_3120_8219" x="292.992" y="109.314" width="1.03906" height="1.11328" filterUnits="userSpaceOnUse" color-interpolation-filters="sRGB">
<feFlood flood-opacity="0" result="BackgroundImageFix"/>
<feBlend mode="normal" in="SourceGraphic" in2="BackgroundImageFix" result="shape"/>
<feGaussianBlur stdDeviation="0.166991" result="effect1_foregroundBlur_3120_8219"/>
</filter>
<filter id="filter52_f_3120_8219" x="256.106" y="161.273" width="2.00219" height="2.04174" filterUnits="userSpaceOnUse" color-interpolation-filters="sRGB">
<feFlood flood-opacity="0" result="BackgroundImageFix"/>
<feBlend mode="normal" in="SourceGraphic" in2="BackgroundImageFix" result="shape"/>
<feGaussianBlur stdDeviation="0.333982" result="effect1_foregroundBlur_3120_8219"/>
</filter>
<filter id="filter53_f_3120_8219" x="256.588" y="161.749" width="1.03906" height="1.11328" filterUnits="userSpaceOnUse" color-interpolation-filters="sRGB">
<feFlood flood-opacity="0" result="BackgroundImageFix"/>
<feBlend mode="normal" in="SourceGraphic" in2="BackgroundImageFix" result="shape"/>
<feGaussianBlur stdDeviation="0.166991" result="effect1_foregroundBlur_3120_8219"/>
</filter>
<filter id="filter54_f_3120_8219" x="233.395" y="153.257" width="2.00219" height="2.04174" filterUnits="userSpaceOnUse" color-interpolation-filters="sRGB">
<feFlood flood-opacity="0" result="BackgroundImageFix"/>
<feBlend mode="normal" in="SourceGraphic" in2="BackgroundImageFix" result="shape"/>
<feGaussianBlur stdDeviation="0.333982" result="effect1_foregroundBlur_3120_8219"/>
</filter>
<filter id="filter55_f_3120_8219" x="233.877" y="153.733" width="1.03906" height="1.11328" filterUnits="userSpaceOnUse" color-interpolation-filters="sRGB">
<feFlood flood-opacity="0" result="BackgroundImageFix"/>
<feBlend mode="normal" in="SourceGraphic" in2="BackgroundImageFix" result="shape"/>
<feGaussianBlur stdDeviation="0.166991" result="effect1_foregroundBlur_3120_8219"/>
</filter>
<filter id="filter56_f_3120_8219" x="193.318" y="158.267" width="2.00194" height="2.04174" filterUnits="userSpaceOnUse" color-interpolation-filters="sRGB">
<feFlood flood-opacity="0" result="BackgroundImageFix"/>
<feBlend mode="normal" in="SourceGraphic" in2="BackgroundImageFix" result="shape"/>
<feGaussianBlur stdDeviation="0.333982" result="effect1_foregroundBlur_3120_8219"/>
</filter>
<filter id="filter57_f_3120_8219" x="193.799" y="158.743" width="1.03906" height="1.11328" filterUnits="userSpaceOnUse" color-interpolation-filters="sRGB">
<feFlood flood-opacity="0" result="BackgroundImageFix"/>
<feBlend mode="normal" in="SourceGraphic" in2="BackgroundImageFix" result="shape"/>
<feGaussianBlur stdDeviation="0.166991" result="effect1_foregroundBlur_3120_8219"/>
</filter>
<filter id="filter58_f_3120_8219" x="195.99" y="147.246" width="2.00194" height="2.04174" filterUnits="userSpaceOnUse" color-interpolation-filters="sRGB">
<feFlood flood-opacity="0" result="BackgroundImageFix"/>
<feBlend mode="normal" in="SourceGraphic" in2="BackgroundImageFix" result="shape"/>
<feGaussianBlur stdDeviation="0.333982" result="effect1_foregroundBlur_3120_8219"/>
</filter>
<filter id="filter59_f_3120_8219" x="196.471" y="147.722" width="1.03906" height="1.11328" filterUnits="userSpaceOnUse" color-interpolation-filters="sRGB">
<feFlood flood-opacity="0" result="BackgroundImageFix"/>
<feBlend mode="normal" in="SourceGraphic" in2="BackgroundImageFix" result="shape"/>
<feGaussianBlur stdDeviation="0.166991" result="effect1_foregroundBlur_3120_8219"/>
</filter>
<filter id="filter60_f_3120_8219" x="196.991" y="145.91" width="2.00194" height="2.04174" filterUnits="userSpaceOnUse" color-interpolation-filters="sRGB">
<feFlood flood-opacity="0" result="BackgroundImageFix"/>
<feBlend mode="normal" in="SourceGraphic" in2="BackgroundImageFix" result="shape"/>
<feGaussianBlur stdDeviation="0.333982" result="effect1_foregroundBlur_3120_8219"/>
</filter>
<filter id="filter61_f_3120_8219" x="197.473" y="146.386" width="1.03906" height="1.11328" filterUnits="userSpaceOnUse" color-interpolation-filters="sRGB">
<feFlood flood-opacity="0" result="BackgroundImageFix"/>
<feBlend mode="normal" in="SourceGraphic" in2="BackgroundImageFix" result="shape"/>
<feGaussianBlur stdDeviation="0.166991" result="effect1_foregroundBlur_3120_8219"/>
</filter>
<filter id="filter62_f_3120_8219" x="200.665" y="147.913" width="2.00219" height="2.04174" filterUnits="userSpaceOnUse" color-interpolation-filters="sRGB">
<feFlood flood-opacity="0" result="BackgroundImageFix"/>
<feBlend mode="normal" in="SourceGraphic" in2="BackgroundImageFix" result="shape"/>
<feGaussianBlur stdDeviation="0.333982" result="effect1_foregroundBlur_3120_8219"/>
</filter>
<filter id="filter63_f_3120_8219" x="201.147" y="148.39" width="1.03906" height="1.11328" filterUnits="userSpaceOnUse" color-interpolation-filters="sRGB">
<feFlood flood-opacity="0" result="BackgroundImageFix"/>
<feBlend mode="normal" in="SourceGraphic" in2="BackgroundImageFix" result="shape"/>
<feGaussianBlur stdDeviation="0.166991" result="effect1_foregroundBlur_3120_8219"/>
</filter>
<filter id="filter64_f_3120_8219" x="122.18" y="160.271" width="2.00194" height="2.04174" filterUnits="userSpaceOnUse" color-interpolation-filters="sRGB">
<feFlood flood-opacity="0" result="BackgroundImageFix"/>
<feBlend mode="normal" in="SourceGraphic" in2="BackgroundImageFix" result="shape"/>
<feGaussianBlur stdDeviation="0.333982" result="effect1_foregroundBlur_3120_8219"/>
</filter>
<filter id="filter65_f_3120_8219" x="122.661" y="160.747" width="1.03906" height="1.11328" filterUnits="userSpaceOnUse" color-interpolation-filters="sRGB">
<feFlood flood-opacity="0" result="BackgroundImageFix"/>
<feBlend mode="normal" in="SourceGraphic" in2="BackgroundImageFix" result="shape"/>
<feGaussianBlur stdDeviation="0.166991" result="effect1_foregroundBlur_3120_8219"/>
</filter>
<filter id="filter66_f_3120_8219" x="126.855" y="170.624" width="2.00194" height="2.04174" filterUnits="userSpaceOnUse" color-interpolation-filters="sRGB">
<feFlood flood-opacity="0" result="BackgroundImageFix"/>
<feBlend mode="normal" in="SourceGraphic" in2="BackgroundImageFix" result="shape"/>
<feGaussianBlur stdDeviation="0.333982" result="effect1_foregroundBlur_3120_8219"/>
</filter>
<filter id="filter67_f_3120_8219" x="127.337" y="171.101" width="1.03906" height="1.11328" filterUnits="userSpaceOnUse" color-interpolation-filters="sRGB">
<feFlood flood-opacity="0" result="BackgroundImageFix"/>
<feBlend mode="normal" in="SourceGraphic" in2="BackgroundImageFix" result="shape"/>
<feGaussianBlur stdDeviation="0.166991" result="effect1_foregroundBlur_3120_8219"/>
</filter>
<filter id="filter68_f_3120_8219" x="129.527" y="169.288" width="2.00194" height="2.04174" filterUnits="userSpaceOnUse" color-interpolation-filters="sRGB">
<feFlood flood-opacity="0" result="BackgroundImageFix"/>
<feBlend mode="normal" in="SourceGraphic" in2="BackgroundImageFix" result="shape"/>
<feGaussianBlur stdDeviation="0.333982" result="effect1_foregroundBlur_3120_8219"/>
</filter>
<filter id="filter69_f_3120_8219" x="130.009" y="169.765" width="1.03906" height="1.11328" filterUnits="userSpaceOnUse" color-interpolation-filters="sRGB">
<feFlood flood-opacity="0" result="BackgroundImageFix"/>
<feBlend mode="normal" in="SourceGraphic" in2="BackgroundImageFix" result="shape"/>
<feGaussianBlur stdDeviation="0.166991" result="effect1_foregroundBlur_3120_8219"/>
</filter>
<filter id="filter70_f_3120_8219" x="92.1211" y="149.583" width="2.00194" height="2.04174" filterUnits="userSpaceOnUse" color-interpolation-filters="sRGB">
<feFlood flood-opacity="0" result="BackgroundImageFix"/>
<feBlend mode="normal" in="SourceGraphic" in2="BackgroundImageFix" result="shape"/>
<feGaussianBlur stdDeviation="0.333982" result="effect1_foregroundBlur_3120_8219"/>
</filter>
<filter id="filter71_f_3120_8219" x="92.6025" y="150.059" width="1.03906" height="1.11328" filterUnits="userSpaceOnUse" color-interpolation-filters="sRGB">
<feFlood flood-opacity="0" result="BackgroundImageFix"/>
<feBlend mode="normal" in="SourceGraphic" in2="BackgroundImageFix" result="shape"/>
<feGaussianBlur stdDeviation="0.166991" result="effect1_foregroundBlur_3120_8219"/>
</filter>
<filter id="filter72_f_3120_8219" x="74.7539" y="119.859" width="2.00194" height="2.04174" filterUnits="userSpaceOnUse" color-interpolation-filters="sRGB">
<feFlood flood-opacity="0" result="BackgroundImageFix"/>
<feBlend mode="normal" in="SourceGraphic" in2="BackgroundImageFix" result="shape"/>
<feGaussianBlur stdDeviation="0.333982" result="effect1_foregroundBlur_3120_8219"/>
</filter>
<filter id="filter73_f_3120_8219" x="75.2354" y="120.335" width="1.03906" height="1.11328" filterUnits="userSpaceOnUse" color-interpolation-filters="sRGB">
<feFlood flood-opacity="0" result="BackgroundImageFix"/>
<feBlend mode="normal" in="SourceGraphic" in2="BackgroundImageFix" result="shape"/>
<feGaussianBlur stdDeviation="0.166991" result="effect1_foregroundBlur_3120_8219"/>
</filter>
<filter id="filter74_f_3120_8219" x="79.4299" y="106.166" width="2.00194" height="2.04174" filterUnits="userSpaceOnUse" color-interpolation-filters="sRGB">
<feFlood flood-opacity="0" result="BackgroundImageFix"/>
<feBlend mode="normal" in="SourceGraphic" in2="BackgroundImageFix" result="shape"/>
<feGaussianBlur stdDeviation="0.333982" result="effect1_foregroundBlur_3120_8219"/>
</filter>
<filter id="filter75_f_3120_8219" x="79.9114" y="106.642" width="1.03906" height="1.11328" filterUnits="userSpaceOnUse" color-interpolation-filters="sRGB">
<feFlood flood-opacity="0" result="BackgroundImageFix"/>
<feBlend mode="normal" in="SourceGraphic" in2="BackgroundImageFix" result="shape"/>
<feGaussianBlur stdDeviation="0.166991" result="effect1_foregroundBlur_3120_8219"/>
</filter>
<filter id="filter76_f_3120_8219" x="18.6453" y="76.4413" width="2.00194" height="2.04174" filterUnits="userSpaceOnUse" color-interpolation-filters="sRGB">
<feFlood flood-opacity="0" result="BackgroundImageFix"/>
<feBlend mode="normal" in="SourceGraphic" in2="BackgroundImageFix" result="shape"/>
<feGaussianBlur stdDeviation="0.333982" result="effect1_foregroundBlur_3120_8219"/>
</filter>
<filter id="filter77_f_3120_8219" x="19.1267" y="76.9174" width="1.03906" height="1.11328" filterUnits="userSpaceOnUse" color-interpolation-filters="sRGB">
<feFlood flood-opacity="0" result="BackgroundImageFix"/>
<feBlend mode="normal" in="SourceGraphic" in2="BackgroundImageFix" result="shape"/>
<feGaussianBlur stdDeviation="0.166991" result="effect1_foregroundBlur_3120_8219"/>
</filter>
<filter id="filter78_f_3120_8219" x="250.762" y="148.582" width="2.00219" height="2.04174" filterUnits="userSpaceOnUse" color-interpolation-filters="sRGB">
<feFlood flood-opacity="0" result="BackgroundImageFix"/>
<feBlend mode="normal" in="SourceGraphic" in2="BackgroundImageFix" result="shape"/>
<feGaussianBlur stdDeviation="0.333982" result="effect1_foregroundBlur_3120_8219"/>
</filter>
<filter id="filter79_f_3120_8219" x="251.244" y="149.058" width="1.03906" height="1.11328" filterUnits="userSpaceOnUse" color-interpolation-filters="sRGB">
<feFlood flood-opacity="0" result="BackgroundImageFix"/>
<feBlend mode="normal" in="SourceGraphic" in2="BackgroundImageFix" result="shape"/>
<feGaussianBlur stdDeviation="0.166991" result="effect1_foregroundBlur_3120_8219"/>
</filter>
<filter id="filter80_f_3120_8219" x="345.279" y="126.539" width="2.00219" height="2.04174" filterUnits="userSpaceOnUse" color-interpolation-filters="sRGB">
<feFlood flood-opacity="0" result="BackgroundImageFix"/>
<feBlend mode="normal" in="SourceGraphic" in2="BackgroundImageFix" result="shape"/>
<feGaussianBlur stdDeviation="0.333982" result="effect1_foregroundBlur_3120_8219"/>
</filter>
<filter id="filter81_f_3120_8219" x="345.761" y="127.015" width="1.03906" height="1.11328" filterUnits="userSpaceOnUse" color-interpolation-filters="sRGB">
<feFlood flood-opacity="0" result="BackgroundImageFix"/>
<feBlend mode="normal" in="SourceGraphic" in2="BackgroundImageFix" result="shape"/>
<feGaussianBlur stdDeviation="0.166991" result="effect1_foregroundBlur_3120_8219"/>
</filter>
<filter id="filter82_f_3120_8219" x="331.586" y="132.55" width="2.00219" height="2.04174" filterUnits="userSpaceOnUse" color-interpolation-filters="sRGB">
<feFlood flood-opacity="0" result="BackgroundImageFix"/>
<feBlend mode="normal" in="SourceGraphic" in2="BackgroundImageFix" result="shape"/>
<feGaussianBlur stdDeviation="0.333982" result="effect1_foregroundBlur_3120_8219"/>
</filter>
<filter id="filter83_f_3120_8219" x="332.068" y="133.026" width="1.03906" height="1.11328" filterUnits="userSpaceOnUse" color-interpolation-filters="sRGB">
<feFlood flood-opacity="0" result="BackgroundImageFix"/>
<feBlend mode="normal" in="SourceGraphic" in2="BackgroundImageFix" result="shape"/>
<feGaussianBlur stdDeviation="0.166991" result="effect1_foregroundBlur_3120_8219"/>
</filter>
<filter id="filter84_f_3120_8219" x="404.84" y="75.4446" width="3.00304" height="2.94982" filterUnits="userSpaceOnUse" color-interpolation-filters="sRGB">
<feFlood flood-opacity="0" result="BackgroundImageFix"/>
<feBlend mode="normal" in="SourceGraphic" in2="BackgroundImageFix" result="shape"/>
<feGaussianBlur stdDeviation="0.333982" result="effect1_foregroundBlur_3120_8219"/>
</filter>
<filter id="filter85_f_3120_8219" x="405.507" y="76.1388" width="1.66992" height="1.66992" filterUnits="userSpaceOnUse" color-interpolation-filters="sRGB">
<feFlood flood-opacity="0" result="BackgroundImageFix"/>
<feBlend mode="normal" in="SourceGraphic" in2="BackgroundImageFix" result="shape"/>
<feGaussianBlur stdDeviation="0.166991" result="effect1_foregroundBlur_3120_8219"/>
</filter>
<filter id="filter86_f_3120_8219" x="354.531" y="64.8616" width="3.76098" height="3.67528" filterUnits="userSpaceOnUse" color-interpolation-filters="sRGB">
<feFlood flood-opacity="0" result="BackgroundImageFix"/>
<feBlend mode="normal" in="SourceGraphic" in2="BackgroundImageFix" result="shape"/>
<feGaussianBlur stdDeviation="0.333982" result="effect1_foregroundBlur_3120_8219"/>
</filter>
<filter id="filter87_f_3120_8219" x="355.409" y="65.7848" width="2.0039" height="2.0039" filterUnits="userSpaceOnUse" color-interpolation-filters="sRGB">
<feFlood flood-opacity="0" result="BackgroundImageFix"/>
<feBlend mode="normal" in="SourceGraphic" in2="BackgroundImageFix" result="shape"/>
<feGaussianBlur stdDeviation="0.166991" result="effect1_foregroundBlur_3120_8219"/>
</filter>
<linearGradient id="paint0_linear_3120_8219" x1="207" y1="-92" x2="207" y2="896" gradientUnits="userSpaceOnUse">
<stop stop-color="#FBBDB5"/>
<stop offset="0.3" stop-color="#323858"/>
</linearGradient>
<linearGradient id="paint1_linear_3120_8219" x1="323.52" y1="100.829" x2="323.52" y2="195.134" gradientUnits="userSpaceOnUse">
<stop stop-color="#333959"/>
<stop offset="1" stop-color="#333959" stop-opacity="0"/>
</linearGradient>
<linearGradient id="paint2_linear_3120_8219" x1="128.535" y1="81" x2="128.535" y2="178.025" gradientUnits="userSpaceOnUse">
<stop stop-color="#333959"/>
<stop offset="1" stop-color="#5E679C" stop-opacity="0.15"/>
</linearGradient>
<linearGradient id="paint3_linear_3120_8219" x1="258.79" y1="109.4" x2="258.79" y2="122.798" gradientUnits="userSpaceOnUse">
<stop stop-color="#494B7C"/>
<stop offset="1" stop-color="#EDEEF0" stop-opacity="0"/>
</linearGradient>
<linearGradient id="paint4_linear_3120_8219" x1="-66.2103" y1="107" x2="-66.2103" y2="120.397" gradientUnits="userSpaceOnUse">
<stop stop-color="#494B7C"/>
<stop offset="1" stop-color="#EDEEF0" stop-opacity="0"/>
</linearGradient>
<linearGradient id="paint5_linear_3120_8219" x1="364.2" y1="85" x2="364.2" y2="110.6" gradientUnits="userSpaceOnUse">
<stop stop-color="#494B7C"/>
<stop offset="1" stop-color="#EDEEF0" stop-opacity="0"/>
</linearGradient>
<linearGradient id="paint6_linear_3120_8219" x1="22" y1="79" x2="22" y2="104.6" gradientUnits="userSpaceOnUse">
<stop stop-color="#494B7C"/>
<stop offset="1" stop-color="#EDEEF0" stop-opacity="0"/>
</linearGradient>
<linearGradient id="paint7_linear_3120_8219" x1="4" y1="170" x2="83" y2="170" gradientUnits="userSpaceOnUse">
<stop offset="0.36972" stop-color="#50433C"/>
<stop offset="1" stop-color="#FFFEF2" stop-opacity="0.32"/>
</linearGradient>
<linearGradient id="paint8_linear_3120_8219" x1="381" y1="183.5" x2="324.5" y2="172" gradientUnits="userSpaceOnUse">
<stop offset="0.180152" stop-color="#50433C"/>
<stop offset="1" stop-color="#FFFEF2" stop-opacity="0.32"/>
</linearGradient>
<clipPath id="clip0_3120_8219">
<rect width="414" height="896" fill="white"/>
</clipPath>
</defs>
</svg>
