<svg width="492" height="648" viewBox="0 0 492 648" fill="none" xmlns="http://www.w3.org/2000/svg">
<rect opacity="0.8" x="16.5" y="14.5" width="475" height="633.333" rx="34.4922" fill="#CA750F"/>
<g clip-path="url(#clip0_5564_2712)">
<rect width="475" height="633.333" rx="34.4922" fill="url(#paint0_linear_5564_2712)"/>
<g filter="url(#filter0_f_5564_2712)">
<path d="M48.4915 526.326L48.4915 636.093" stroke="#96C9F3" stroke-width="4.12749"/>
<path d="M5.84119 505.919L5.84117 636.095" stroke="#96C9F3" stroke-width="4.12749"/>
<path d="M-115.92 458.9C-28.423 457.915 11.0002 526.076 79.5224 533.913C112.703 537.708 159.772 507.716 188.482 507.716C233.541 507.716 241.884 554.288 302.331 554.288C362.777 554.288 405.066 487.8 458.833 487.307C512.601 486.814 567.081 549.922 605.015 567.839C630.124 579.699 698.572 606.999 796.944 533.913C815.976 518.283 862.296 496.402 895.316 533.913C928.336 571.424 968.579 576.941 993 575.01" stroke="#96C9F3" stroke-width="6.87916"/>
<path d="M468.809 489.846L468.809 636.372" stroke="#96C9F3" stroke-width="4.12749"/>
<path d="M426.846 498.748L426.846 636.094" stroke="#96C9F3" stroke-width="4.12749"/>
<path d="M384.195 521.914L384.195 636.094" stroke="#96C9F3" stroke-width="4.12749"/>
<path d="M342.231 543.978L342.231 636.094" stroke="#96C9F3" stroke-width="4.12749"/>
<path d="M300.269 552.251L300.269 636.093" stroke="#96C9F3" stroke-width="4.12749"/>
<path d="M258.307 542.873L258.307 636.092" stroke="#96C9F3" stroke-width="4.12749"/>
<path d="M216.343 516.95L216.343 636.094" stroke="#96C9F3" stroke-width="4.12749"/>
<path d="M173.692 512.537L173.692 636.093" stroke="#96C9F3" stroke-width="4.12749"/>
<path d="M131.73 525.223L131.73 636.093" stroke="#96C9F3" stroke-width="4.12749"/>
<path d="M91.1417 533.498L91.1417 636.093" stroke="#96C9F3" stroke-width="4.12749"/>
<path d="M200.865 505.325L203.617 499.133L206.025 492.942L210.84 495.35L247.644 519.427C256.243 525.618 254.867 536.51 252.459 537.657L234.917 524.242L218.063 511.86L200.865 505.325Z" fill="#96C9F3"/>
</g>
<path d="M19.0998 504.101C14.5019 533.133 -26.4347 565.63 -47.7478 569.726L81.0726 570.671C50.6904 561.084 21.1184 528.542 19.0998 504.101Z" fill="#75AEE2"/>
<mask id="mask0_5564_2712" style="mask-type:alpha" maskUnits="userSpaceOnUse" x="-48" y="503" width="130" height="68">
<path d="M19.1017 503.833C14.5038 532.864 -26.4328 565.362 -47.7458 569.458L81.0745 570.403C50.6923 560.816 21.1204 528.273 19.1017 503.833Z" fill="#B3B3B3"/>
</mask>
<g mask="url(#mask0_5564_2712)">
<path d="M37.0091 567.406C30.5794 563.635 22.1713 526.11 18.9564 508.56C16.2607 527.464 3.00581 553.805 -4.53674 569.291C11.9909 570.234 43.4388 571.176 37.0091 567.406Z" fill="#75AEE2"/>
<path d="M52.2614 565.843C46.2357 565.843 19.3596 530.173 21.2095 513.149L74.5924 552.196C70.32 557.646 58.6291 565.843 52.2614 565.843Z" fill="#75AEE2"/>
<path d="M-21.1351 567.521C-15.5476 564.499 11.8103 538.514 17.6086 512.339L-42.6155 552.14C-38.3546 557.582 -26.7227 570.544 -21.1351 567.521Z" fill="#75AEE2"/>
<path d="M19.3649 497.756L25.5763 517.605C25.5763 517.605 22.9817 522.59 18.9631 522.525C13.8776 522.443 11.8031 517.605 11.8031 517.605L19.3649 497.756Z" fill="#75AEE2"/>
</g>
<path d="M19.095 493.974V503.831C21.0755 504.866 24.9014 509.046 29.7625 507.207C34.7587 505.317 37.1893 506.352 38.5396 507.207V499.78C38.2695 498.43 36.136 496.107 29.7625 497.62C23.389 499.132 19.9952 495.819 19.095 493.974Z" fill="#75AEE2"/>
<path d="M-47.7476 569.727C-34.8295 567.071 -3.37614 561.76 19.0932 561.76C41.5624 561.76 69.7751 567.791 81.0728 570.807C83.3094 591.563 101.131 632.548 127.439 633.052C129.672 633.055 129.965 633.057 127.929 633.057C127.765 633.057 127.602 633.055 127.439 633.052C110.126 633.029 -23.8488 632.937 -92.9832 633.057C-55.8495 617.123 -50.8803 596.733 -47.7476 569.727Z" fill="#75AEE2"/>
<mask id="mask1_5564_2712" style="mask-type:alpha" maskUnits="userSpaceOnUse" x="-93" y="561" width="223" height="73">
<path d="M-47.7478 569.727C-34.8298 567.071 -3.37638 561.76 19.0929 561.76C41.5622 561.76 69.7748 567.791 81.0725 570.807C83.3092 591.564 101.131 632.549 127.439 633.052C129.671 633.055 129.964 633.057 127.929 633.057C127.765 633.057 127.602 633.055 127.439 633.052C110.126 633.029 -23.8491 632.937 -92.9835 633.057C-55.8497 617.123 -50.8806 596.733 -47.7478 569.727Z" fill="#BFBFBF"/>
</mask>
<g mask="url(#mask1_5564_2712)">
<path d="M82.5511 641.912C46.228 640.83 31.5784 590.162 28.794 564.964C21.3839 549.096 6.29417 526.881 5.21634 564.964C4.1385 603.046 -30.8912 632.13 -41.1306 641.912C10.4708 642.363 118.874 642.994 82.5511 641.912Z" fill="#75AEE2"/>
<path d="M113.616 641.566C87.3079 641.026 46.6398 592.954 51.0959 567.046C52.5238 549.811 57.598 525.889 65.9494 567.046C76.4946 619.015 115.641 640.216 146.698 640.216C147.58 640.891 139.923 642.106 113.616 641.566Z" fill="#75AEE2"/>
</g>
<path d="M80.9115 586.99L85.4316 580.741L89.1242 585.919L80.9115 586.99Z" fill="#75AEE2"/>
<path d="M90.0323 598.698L93.7272 591.621L98.4083 596.809L90.0323 598.698Z" fill="#75AEE2"/>
<path d="M102.693 611.45L105.334 603.805L110.191 608.236L102.693 611.45Z" fill="#75AEE2"/>
<path d="M115.189 622.161L117.018 614.248L121.914 617.886L115.189 622.161Z" fill="#75AEE2"/>
<path d="M128.936 630.374L129.669 622.834L134.865 626.029L128.936 630.374Z" fill="#75AEE2"/>
<path d="M143.838 638.42L145.198 630.829L150.528 633.795L143.838 638.42Z" fill="#75AEE2"/>
<path d="M80.9104 571.815C92.3368 595.56 128.723 632.16 174.285 640.73" stroke="#75AEE2" stroke-width="2.92457"/>
<path d="M-39.9156 570.267C-40.8878 572.752 -46.9374 579.044 -49.0978 579.044C-51.2582 579.044 -50.3761 575.307 -49.6379 573.778L-47.7474 569.862C-43.8315 566.891 7.75067 563.65 18.1481 563.65C28.5456 563.65 74.609 563.428 81.883 572.157C83.2332 573.778 83.507 583.853 82.6968 580.207C82.0486 577.29 78.1923 573.688 74.8615 571.212C74.7265 573.958 73.4032 579.503 69.1902 579.719C64.9772 579.935 55.822 571.437 51.7711 567.161C51.9061 570.267 50.9879 576.559 46.2348 576.884C41.4816 577.208 33.2717 569.277 29.7609 565.271C28.6318 570.462 24.2622 575.648 17.2029 575.533C11.0226 575.433 7.43557 569.457 6.40033 566.081C3.83472 569.277 -3.0519 575.884 -10.0736 576.749C-18.8506 577.829 -16.42 565.406 -17.0952 567.161C-17.7703 568.917 -28.0328 579.584 -35.1895 579.584C-42.3461 579.584 -38.7003 567.161 -39.9156 570.267Z" fill="#75AEE2"/>
<path d="M-47.7517 559.787C-48.3824 560.97 -49.1971 567.449 -47.7517 570.003C-32.1603 568.345 2.57005 564.976 16.76 564.761C34.4975 564.492 78.5796 570.944 81.2073 571.482C84.6234 565.299 82.7084 562.021 82.3228 560.594C82.0175 559.464 74.2917 563.123 69.9997 566.08C69.9559 563.034 68.1854 558.228 63.6657 555.755C59.1459 553.282 50.3954 558.936 46.5852 562.073C46.3662 560.37 44.6932 556.158 39.753 552.932C34.8128 549.706 22.3659 556.158 16.76 559.787C13.2125 556.875 4.30437 551.266 -2.94827 552.126C-10.2009 552.986 -12.8024 558.488 -13.1966 561.132C-15.0798 558.757 -20.3704 554.25 -26.4668 555.217C-34.0873 556.427 -36.7151 567.718 -36.8465 565.433C-36.9779 563.148 -46.9634 558.309 -47.7517 559.787Z" fill="#75AEE2"/>
<path d="M78.2371 633.214L-52.2036 633.326C-26.6562 631.556 -7.23805 611.315 -7.23805 595.517C-2.51194 595.517 8.83073 591.871 18.0129 579.748C26.925 592.006 33.1365 592.681 42.0486 595.517C42.0486 625.629 78.2371 633.214 78.2371 633.214Z" fill="#75AEE2"/>
<path d="M62.8412 633.213C55.9068 632.992 21.0127 598.694 18.0127 579.854C13.8267 599.164 -16.3162 630.765 -34.6497 633.327C4.00148 633.215 63.2402 633.226 62.8412 633.213Z" fill="#75AEE2"/>
<path d="M438.084 585.926L419.76 585.926L423.733 627.588H434.551L438.084 585.926Z" fill="#75AEE2"/>
<path d="M438.084 585.926L434.551 588.522L432.533 627.588H434.551L438.084 585.926Z" fill="#75AEE2"/>
<path d="M436.305 617.926L440.483 622.827H417.83L422.008 617.926H436.305Z" fill="#75AEE2"/>
<path d="M436.781 616.839H421.752L422.023 617.928H436.347L436.781 616.839Z" fill="#75AEE2"/>
<path d="M421.206 601.591L416.197 597.888L429.157 596.091L442.008 597.888L436.726 601.591H421.206Z" fill="#75AEE2"/>
<path d="M416.172 597.887L411.841 588.957H446.147L442.044 597.887H416.172Z" fill="#75AEE2"/>
<rect width="1.35018" height="35.1047" transform="matrix(-1 0 0 1 456.781 589.012)" fill="#75AEE2"/>
<rect width="1.35018" height="35.1047" transform="matrix(-1 0 0 1 402.993 589.012)" fill="#75AEE2"/>
<rect width="1.35018" height="35.1047" transform="matrix(-1 0 0 1 429.79 589.012)" fill="#75AEE2"/>
<path d="M388.031 592.87H470.392C471.084 592.87 471.646 592.308 471.646 591.616C471.646 590.923 471.084 590.362 470.392 590.362H388.031C387.339 590.362 386.777 590.923 386.777 591.616C386.777 592.308 387.339 592.87 388.031 592.87Z" fill="#75AEE2"/>
<path d="M382.447 590.844H475.241L481.869 580.403C481.869 580.403 433.841 580.403 428.844 559.308C424.293 580.403 376.555 580.403 376.555 580.403L382.447 590.844Z" fill="#75AEE2"/>
<path d="M382.447 590.844H475.241L481.869 580.403C481.869 580.403 433.841 580.403 428.844 559.308C424.293 580.403 376.555 580.403 376.555 580.403L382.447 590.844Z" fill="#75AEE2"/>
<path d="M483.728 577.444L475.756 590.302C475.56 590.618 475.215 590.81 474.843 590.81H382.459C382.104 590.81 381.772 590.635 381.572 590.342L373.256 578.184C373.134 578.006 373.065 577.784 373.181 577.601C373.904 576.466 378.112 574.144 385.105 574.144C389.993 574.144 392.94 575.57 394.564 576.807C395.291 577.36 396.872 577.229 397.555 576.622C398.892 575.432 401.328 574.144 405.458 574.144C410.68 574.144 413.885 576.394 415.484 577.799C416.022 578.272 416.859 578.14 417.292 577.571C418.715 575.702 422.031 572.731 428.309 572.731C434.056 572.731 437.566 575.219 439.396 577.074C440.026 577.713 441.446 577.618 442.095 576.999C443.484 575.674 446.139 574.144 450.804 574.144C455.969 574.144 458.785 575.861 460.142 577.161C460.702 577.698 461.722 577.78 462.289 577.25C463.962 575.687 466.688 574.144 472.585 574.144C478.923 574.144 481.598 575.108 483.268 575.879C483.857 576.151 484.07 576.892 483.728 577.444Z" fill="#75AEE2"/>
<path d="M472.797 625.119C473.18 623.961 472.318 622.767 471.098 622.767H388.655C387.387 622.767 386.522 624.048 386.994 625.224L389.896 632.446C390.168 633.124 390.826 633.569 391.557 633.569H468.708C469.48 633.569 470.165 633.074 470.408 632.341L472.797 625.119Z" fill="#75AEE2"/>
<path d="M385.694 625.273H473.858C474.312 625.273 474.73 625.028 474.952 624.632C475.42 623.796 474.816 622.765 473.858 622.765H385.694C384.706 622.765 384.106 623.855 384.634 624.689C384.864 625.053 385.264 625.273 385.694 625.273Z" fill="#75AEE2"/>
<path d="M428.968 541.982C428.968 555.073 430.43 561.272 431.526 564.128L426.319 564.128C428.968 559.597 428.968 541.03 428.968 541.982Z" fill="#75AEE2"/>
<path d="M432.362 564.578C432.546 564.159 432.239 563.69 431.782 563.69H426.151C425.709 563.69 425.402 564.132 425.558 564.547L425.736 565.021C425.828 565.269 426.065 565.432 426.329 565.432H431.574C431.826 565.432 432.054 565.283 432.155 565.053L432.362 564.578Z" fill="#75AEE2"/>
<circle cx="0.771531" cy="0.771531" r="0.771531" transform="matrix(-1 0 0 1 429.7 541.8)" fill="#75AEE2"/>
<path d="M422.529 617.942C422.278 617.273 423.47 616.199 424.098 615.746H425.353C424.83 616.199 423.784 617.273 423.784 617.942C423.784 618.779 425.562 619.407 425.562 619.93C425.562 620.452 425.039 620.766 424.516 620.766C423.993 620.766 422.843 618.779 422.529 617.942Z" fill="#75AEE2"/>
<path d="M424.583 619.885C424.844 619.58 424.91 619.322 424.91 619.231C425.345 619.395 426.031 619.885 425.291 620.538C424.55 621.192 423.966 620.556 423.766 620.157C423.929 620.193 424.321 620.19 424.583 619.885Z" fill="#75AEE2"/>
<path d="M436.051 609.971C434.247 608.502 433.045 609.009 432.669 609.446C431.716 610.682 431.542 613.345 435.231 613.555C438.92 613.765 439.979 611.486 440.047 610.321C439.467 610.816 437.854 611.439 436.051 609.971Z" fill="#75AEE2"/>
<path d="M427.099 605.406C426.175 604.153 424.692 603.767 422.023 604.91C422.249 606.368 425.27 609.388 425.744 610.802C426.337 612.569 430.157 612.138 428.286 611.772C425.676 611.261 429.102 608.123 427.099 605.406Z" fill="#75AEE2"/>
<path d="M432.587 617.877C432.751 617.218 430.3 617.327 429.973 615.094C430.23 615.094 432.883 616.51 433.156 616.51C433.498 616.51 433.84 617.706 433.84 617.877C433.84 618.048 432.678 620.125 432.587 620.269C432.315 620.703 430.908 620.818 431.276 620.269C431.716 619.614 432.508 618.198 432.587 617.877Z" fill="#75AEE2"/>
<path d="M431.499 619.885C431.884 619.885 432.533 619.885 432.805 619.939C432.642 620.865 431.756 620.644 431.375 620.644C430.994 620.644 431.335 619.885 431.499 619.885H431.499Z" fill="#75AEE2"/>
<path d="M418.601 609.562C417.964 608.648 421.299 606.396 423.327 605.204C423.471 605.119 423.644 605.085 423.808 605.116C427.708 605.864 425.408 610.84 426.197 611.404C426.734 611.788 428.534 611.665 429.785 611.502C430.168 611.453 430.448 611.096 430.644 610.764C431.093 610.001 432.302 609.208 433.907 609.562C437.174 610.285 434.943 614.856 435.058 615.202C435.173 615.547 435.864 615.202 436.554 615.202C437.245 615.202 438.05 616.583 438.28 617.158C438.441 617.56 437.795 618.458 437.323 619.012C437.201 619.154 437.026 619.24 436.839 619.249C436.38 619.272 435.741 619.263 435.518 619.114C435.173 618.884 436.554 617.503 436.784 617.158C437.014 616.813 435.749 616.007 435.518 616.352C435.334 616.629 434.494 617.043 433.907 617.043C432.292 617.043 431.397 616.574 430.869 616.104C430.456 615.737 429.863 615.793 429.482 616.193C428.88 616.824 427.836 617.445 426.197 617.503C422.974 617.618 422.629 615.202 421.37 615.202C420.376 615.202 420.589 616.594 420.741 617.69C420.8 618.115 420.469 618.47 420.041 618.47H419.765C419.426 618.47 419.133 618.242 419.124 617.904C419.084 616.535 419.589 613.869 420.327 613.475C420.636 613.311 421.022 613.309 421.403 613.392C421.98 613.517 422.683 613.179 422.725 612.589L422.884 610.364C422.925 609.793 422.338 609.379 421.796 609.56C420.586 609.965 419.087 610.26 418.601 609.562Z" fill="#75AEE2"/>
<path d="M419.192 618.415C419.061 618.328 419.065 617.635 419.083 617.435C419.083 617.435 419.301 617.326 419.9 617.38C420.499 617.435 420.771 617.707 420.771 617.707C420.826 617.852 420.913 618.186 420.826 618.361C420.717 618.578 419.355 618.524 419.192 618.415Z" fill="#75AEE2"/>
<path d="M435.423 619.227C435.092 619.028 435.582 618.469 435.745 618.36C435.745 618.36 435.871 618.199 436.508 618.251C437.145 618.304 437.706 618.578 437.706 618.578C437.649 618.879 437.48 619.099 437.318 619.227C437.097 619.402 435.632 619.353 435.423 619.227Z" fill="#75AEE2"/>
<path d="M423.972 604.151C423.678 604.397 423.458 605.124 423.384 605.456C423.654 605.661 424.251 605.948 424.486 605.456C424.78 604.842 424.339 603.844 423.972 604.151Z" fill="#75AEE2"/>
<path d="M429.508 616.184C429.572 616.102 429.51 614.585 429.471 614.09L428.775 614.113C428.812 614.778 428.89 616.603 428.993 616.618C429.121 616.636 429.429 616.286 429.508 616.184Z" fill="#75AEE2"/>
<path d="M425.998 611.145C425.998 610.927 428.308 612.758 431.136 610.192C431.346 611.596 431.224 614.107 429.211 614.33C426.595 614.621 425.998 613.127 425.998 611.145Z" fill="#75AEE2"/>
<mask id="mask2_5564_2712" style="mask-type:alpha" maskUnits="userSpaceOnUse" x="425" y="610" width="7" height="5">
<path d="M425.998 611.144C425.998 610.926 428.308 612.757 431.136 610.191C431.346 611.596 431.224 614.106 429.211 614.33C426.595 614.62 425.998 613.127 425.998 611.144Z" fill="#BEBEBE"/>
</mask>
<g mask="url(#mask2_5564_2712)">
<path d="M426.325 611.095C426.325 610.913 428.256 612.441 430.619 610.299C430.795 611.472 430.693 613.568 429.01 613.754C426.824 613.997 426.325 612.75 426.325 611.095Z" fill="#75AEE2"/>
</g>
<path d="M422.032 606.312C422.005 606.138 421.809 606.046 421.659 606.138C421.574 606.19 421.528 606.288 421.543 606.387L421.981 609.265C422.003 609.407 422.141 609.502 422.282 609.47C422.409 609.441 422.492 609.318 422.472 609.19L422.032 606.312Z" fill="#75AEE2"/>
<path d="M419.714 608.023C419.644 607.877 419.456 607.836 419.331 607.939C419.241 608.014 419.215 608.141 419.27 608.245L420.103 609.843C420.144 609.923 420.23 609.969 420.32 609.959C420.469 609.943 420.558 609.784 420.493 609.648L419.714 608.023Z" fill="#75AEE2"/>
<path d="M421.925 608.814C422.076 608.756 422.132 608.572 422.04 608.44C421.973 608.345 421.85 608.309 421.742 608.353L420.07 609.038C419.969 609.079 419.912 609.186 419.932 609.292C419.959 609.432 420.105 609.513 420.238 609.462L421.925 608.814Z" fill="#75AEE2"/>
<path d="M396.213 619.106C395.984 618.496 397.07 617.518 397.641 617.105H398.784C398.308 617.518 397.356 618.496 397.356 619.106C397.356 619.868 398.975 620.439 398.975 620.915C398.975 621.392 398.499 621.677 398.022 621.677C397.546 621.677 396.498 619.868 396.213 619.106Z" fill="#75AEE2"/>
<path d="M398.083 620.874C398.321 620.596 398.38 620.361 398.38 620.279C398.777 620.427 399.402 620.874 398.727 621.469C398.053 622.064 397.521 621.485 397.339 621.122C397.487 621.155 397.845 621.151 398.083 620.874Z" fill="#75AEE2"/>
<path d="M408.527 611.846C406.884 610.509 405.789 610.971 405.447 611.369C404.579 612.494 404.421 614.919 407.78 615.11C411.14 615.301 412.104 613.226 412.166 612.165C411.637 612.616 410.169 613.184 408.527 611.846Z" fill="#75AEE2"/>
<path d="M400.375 607.687C399.533 606.545 398.182 606.194 395.752 607.235C395.958 608.562 398.709 611.313 399.141 612.6C399.681 614.21 403.159 613.817 401.455 613.483C399.079 613.019 402.199 610.161 400.375 607.687Z" fill="#75AEE2"/>
<path d="M405.373 619.045C405.522 618.445 403.29 618.544 402.992 616.511C403.226 616.511 405.642 617.8 405.891 617.8C406.202 617.8 406.513 618.889 406.513 619.045C406.513 619.201 405.456 621.092 405.373 621.224C405.125 621.618 403.844 621.724 404.179 621.224C404.579 620.627 405.3 619.337 405.373 619.045Z" fill="#75AEE2"/>
<path d="M404.381 620.873C404.732 620.873 405.323 620.873 405.571 620.923C405.423 621.766 404.616 621.565 404.269 621.565C403.922 621.565 404.232 620.873 404.381 620.873H404.381Z" fill="#75AEE2"/>
<path d="M392.635 611.472C392.054 610.639 395.092 608.588 396.939 607.503C397.07 607.426 397.227 607.394 397.376 607.423C400.928 608.104 398.833 612.636 399.552 613.149C400.041 613.498 401.68 613.387 402.82 613.239C403.168 613.193 403.424 612.868 403.602 612.566C404.011 611.872 405.112 611.149 406.573 611.472C409.548 612.13 407.517 616.293 407.621 616.607C407.726 616.922 408.355 616.607 408.984 616.607C409.613 616.607 410.346 617.865 410.556 618.389C410.702 618.755 410.114 619.573 409.684 620.077C409.573 620.207 409.414 620.285 409.243 620.293C408.825 620.314 408.244 620.306 408.041 620.171C407.726 619.961 408.984 618.703 409.193 618.389C409.403 618.075 408.25 617.341 408.041 617.655C407.873 617.907 407.107 618.284 406.573 618.284C405.102 618.284 404.287 617.857 403.806 617.429C403.431 617.095 402.89 617.146 402.544 617.51C401.996 618.085 401.045 618.65 399.552 618.703C396.617 618.808 396.303 616.607 395.156 616.607C394.251 616.607 394.445 617.876 394.583 618.873C394.637 619.26 394.336 619.584 393.946 619.584H393.695C393.386 619.584 393.12 619.376 393.111 619.068C393.075 617.822 393.535 615.394 394.207 615.035C394.488 614.885 394.84 614.884 395.186 614.959C395.712 615.073 396.352 614.765 396.39 614.229L396.535 612.202C396.572 611.682 396.038 611.305 395.544 611.47C394.442 611.839 393.078 612.107 392.635 611.472Z" fill="#75AEE2"/>
<path d="M393.173 619.535C393.054 619.456 393.058 618.825 393.074 618.643C393.074 618.643 393.273 618.544 393.818 618.593C394.364 618.643 394.611 618.891 394.611 618.891C394.661 619.023 394.74 619.327 394.661 619.486C394.562 619.684 393.322 619.635 393.173 619.535Z" fill="#75AEE2"/>
<path d="M407.955 620.275C407.653 620.093 408.1 619.585 408.249 619.485C408.249 619.485 408.363 619.339 408.943 619.386C409.523 619.434 410.034 619.684 410.034 619.684C409.982 619.957 409.828 620.159 409.681 620.275C409.48 620.434 408.145 620.389 407.955 620.275Z" fill="#75AEE2"/>
<path d="M397.527 606.545C397.259 606.769 397.059 607.43 396.992 607.733C397.237 607.92 397.781 608.181 397.995 607.733C398.263 607.174 397.862 606.265 397.527 606.545Z" fill="#75AEE2"/>
<path d="M402.57 617.503C402.628 617.429 402.571 616.047 402.535 615.595L401.902 615.617C401.936 616.222 402.007 617.885 402.1 617.898C402.217 617.914 402.497 617.596 402.57 617.503Z" fill="#75AEE2"/>
<path d="M399.373 612.914C399.373 612.716 401.476 614.383 404.051 612.047C404.243 613.325 404.131 615.612 402.298 615.815C399.917 616.08 399.373 614.72 399.373 612.914Z" fill="#75AEE2"/>
<mask id="mask3_5564_2712" style="mask-type:alpha" maskUnits="userSpaceOnUse" x="399" y="612" width="6" height="4">
<path d="M399.372 612.914C399.372 612.716 401.475 614.383 404.05 612.046C404.242 613.325 404.13 615.611 402.297 615.815C399.916 616.079 399.372 614.719 399.372 612.914Z" fill="#BEBEBE"/>
</mask>
<g mask="url(#mask3_5564_2712)">
<path d="M399.668 612.87C399.668 612.705 401.427 614.096 403.579 612.146C403.739 613.213 403.646 615.122 402.114 615.292C400.123 615.513 399.668 614.377 399.668 612.87Z" fill="#75AEE2"/>
</g>
<path d="M395.759 608.513C395.735 608.354 395.556 608.271 395.419 608.355C395.342 608.402 395.3 608.491 395.314 608.581L395.713 611.202C395.732 611.332 395.859 611.418 395.987 611.389C396.103 611.362 396.178 611.251 396.16 611.134L395.759 608.513Z" fill="#75AEE2"/>
<path d="M393.648 610.071C393.584 609.938 393.413 609.901 393.299 609.995C393.217 610.063 393.194 610.179 393.243 610.273L394.002 611.729C394.04 611.801 394.118 611.843 394.2 611.834C394.336 611.82 394.417 611.674 394.357 611.551L393.648 610.071Z" fill="#75AEE2"/>
<path d="M395.662 610.793C395.799 610.74 395.85 610.573 395.766 610.452C395.705 610.366 395.593 610.333 395.495 610.373L393.972 610.997C393.881 611.034 393.828 611.131 393.847 611.228C393.871 611.355 394.005 611.429 394.125 611.383L395.662 610.793Z" fill="#75AEE2"/>
<path d="M449.987 612.871C449.759 612.261 450.844 611.283 451.416 610.87H452.559C452.083 611.283 451.13 612.261 451.13 612.871C451.13 613.633 452.749 614.204 452.749 614.68C452.749 615.156 452.273 615.442 451.797 615.442C451.321 615.442 450.273 613.633 449.987 612.871Z" fill="#75AEE2"/>
<path d="M451.857 614.639C452.095 614.361 452.155 614.126 452.155 614.043C452.551 614.192 453.176 614.639 452.502 615.234C451.827 615.829 451.295 615.25 451.113 614.886C451.262 614.92 451.619 614.916 451.857 614.639Z" fill="#75AEE2"/>
<path d="M462.301 605.611C460.659 604.274 459.564 604.736 459.222 605.134C458.353 606.259 458.195 608.684 461.555 608.875C464.914 609.066 465.878 606.991 465.941 605.93C465.412 606.381 463.944 606.948 462.301 605.611Z" fill="#75AEE2"/>
<path d="M454.149 601.454C453.307 600.312 451.957 599.961 449.527 601.002C449.733 602.329 452.483 605.079 452.915 606.367C453.455 607.977 456.934 607.583 455.23 607.25C452.853 606.785 455.973 603.928 454.149 601.454Z" fill="#75AEE2"/>
<path d="M459.147 612.81C459.296 612.21 457.064 612.309 456.767 610.276C457 610.276 459.416 611.565 459.665 611.565C459.977 611.565 460.288 612.654 460.288 612.81C460.288 612.966 459.23 614.857 459.147 614.989C458.899 615.383 457.618 615.489 457.953 614.989C458.354 614.392 459.075 613.102 459.147 612.81Z" fill="#75AEE2"/>
<path d="M458.156 614.638C458.507 614.638 459.098 614.638 459.346 614.688C459.197 615.531 458.39 615.33 458.043 615.33C457.696 615.33 458.007 614.638 458.156 614.638H458.156Z" fill="#75AEE2"/>
<path d="M446.409 605.237C445.829 604.404 448.866 602.353 450.713 601.268C450.844 601.19 451.001 601.159 451.151 601.188C454.703 601.869 452.608 606.401 453.326 606.914C453.815 607.263 455.455 607.151 456.594 607.003C456.942 606.958 457.198 606.633 457.376 606.331C457.785 605.636 458.886 604.914 460.348 605.237C463.322 605.895 461.291 610.058 461.396 610.372C461.501 610.687 462.13 610.372 462.758 610.372C463.387 610.372 464.121 611.63 464.33 612.154C464.477 612.52 463.889 613.338 463.458 613.842C463.347 613.972 463.188 614.05 463.018 614.058C462.599 614.079 462.018 614.071 461.815 613.936C461.501 613.726 462.758 612.468 462.968 612.154C463.178 611.839 462.025 611.106 461.815 611.42C461.647 611.672 460.882 612.049 460.348 612.049C458.877 612.049 458.062 611.622 457.581 611.194C457.205 610.86 456.665 610.911 456.318 611.275C455.77 611.85 454.819 612.415 453.326 612.468C450.392 612.573 450.077 610.372 448.931 610.372C448.026 610.372 448.219 611.64 448.358 612.638C448.412 613.025 448.111 613.349 447.72 613.349H447.469C447.161 613.349 446.894 613.141 446.885 612.833C446.849 611.587 447.309 609.159 447.981 608.8C448.262 608.65 448.614 608.649 448.961 608.724C449.487 608.838 450.126 608.53 450.165 607.993L450.31 605.967C450.347 605.447 449.813 605.07 449.319 605.235C448.216 605.604 446.852 605.872 446.409 605.237Z" fill="#75AEE2"/>
<path d="M446.948 613.3C446.829 613.221 446.832 612.59 446.849 612.408C446.849 612.408 447.047 612.309 447.593 612.358C448.138 612.408 448.386 612.656 448.386 612.656C448.436 612.788 448.515 613.092 448.436 613.251C448.336 613.449 447.097 613.399 446.948 613.3Z" fill="#75AEE2"/>
<path d="M461.729 614.04C461.428 613.858 461.874 613.349 462.023 613.25C462.023 613.25 462.137 613.103 462.717 613.151C463.297 613.199 463.808 613.449 463.808 613.449C463.756 613.722 463.603 613.923 463.455 614.04C463.254 614.199 461.92 614.154 461.729 614.04Z" fill="#75AEE2"/>
<path d="M451.301 600.31C451.034 600.533 450.833 601.195 450.766 601.498C451.012 601.685 451.556 601.946 451.77 601.498C452.037 600.939 451.636 600.03 451.301 600.31Z" fill="#75AEE2"/>
<path d="M456.344 611.268C456.402 611.193 456.345 609.812 456.31 609.36L455.676 609.382C455.71 609.987 455.781 611.65 455.875 611.663C455.992 611.679 456.271 611.36 456.344 611.268Z" fill="#75AEE2"/>
<path d="M453.146 606.679C453.146 606.481 455.25 608.148 457.825 605.812C458.016 607.09 457.905 609.377 456.072 609.58C453.69 609.845 453.146 608.485 453.146 606.679Z" fill="#75AEE2"/>
<mask id="mask4_5564_2712" style="mask-type:alpha" maskUnits="userSpaceOnUse" x="453" y="605" width="5" height="5">
<path d="M453.146 606.679C453.146 606.481 455.25 608.148 457.825 605.811C458.016 607.09 457.905 609.376 456.072 609.58C453.69 609.845 453.146 608.484 453.146 606.679Z" fill="#BEBEBE"/>
</mask>
<g mask="url(#mask4_5564_2712)">
<path d="M453.443 606.635C453.443 606.47 455.201 607.861 457.354 605.911C457.514 606.978 457.421 608.887 455.889 609.057C453.898 609.278 453.443 608.142 453.443 606.635Z" fill="#75AEE2"/>
</g>
<path d="M449.533 602.278C449.509 602.119 449.331 602.036 449.194 602.12C449.116 602.167 449.075 602.256 449.088 602.346L449.487 604.967C449.507 605.097 449.633 605.183 449.761 605.153C449.877 605.127 449.953 605.016 449.935 604.898L449.533 602.278Z" fill="#75AEE2"/>
<path d="M447.422 603.836C447.358 603.703 447.187 603.666 447.074 603.76C446.992 603.828 446.968 603.944 447.018 604.038L447.776 605.494C447.814 605.566 447.893 605.608 447.974 605.599C448.11 605.584 448.191 605.439 448.132 605.316L447.422 603.836Z" fill="#75AEE2"/>
<path d="M449.436 604.557C449.573 604.505 449.625 604.337 449.54 604.217C449.48 604.13 449.367 604.097 449.27 604.137L447.747 604.762C447.655 604.799 447.603 604.896 447.621 604.993C447.646 605.12 447.779 605.194 447.9 605.148L449.436 604.557Z" fill="#75AEE2"/>
<path d="M233.547 610.552V615.004H264.178V610.552C251.265 602.492 238.377 607.194 233.547 610.552Z" fill="#75AEE2"/>
<rect x="226.345" y="607.95" width="0.36418" height="5.22607" transform="rotate(-4.32632 226.345 607.95)" fill="#75AEE2"/>
<rect x="232.779" y="606.615" width="0.36418" height="5.22607" transform="rotate(-4.32632 232.779 606.615)" fill="#75AEE2"/>
<rect width="0.36418" height="5.22607" transform="matrix(-0.997151 -0.0754368 -0.0754368 0.997151 264.937 606.654)" fill="#75AEE2"/>
<rect width="0.36418" height="5.22607" transform="matrix(-0.997151 -0.0754368 -0.0754368 0.997151 270.723 607.909)" fill="#75AEE2"/>
<path d="M224.482 612.979V616.419H273.324V612.979C252.734 606.75 232.183 610.383 224.482 612.979Z" fill="#75AEE2"/>
<path d="M224.057 608.896L226.368 607.971L226.47 609.51L224.057 608.896Z" fill="#75AEE2"/>
<path d="M273.052 608.896L270.741 607.971L270.64 609.51L273.052 608.896Z" fill="#75AEE2"/>
<path d="M230.471 607.628L232.763 606.657L232.896 608.193L230.471 607.628Z" fill="#75AEE2"/>
<path d="M230.468 607.623L232.76 606.652L232.893 608.188L230.468 607.623Z" fill="#75AEE2"/>
<path d="M230.468 607.623L232.76 606.652L232.893 608.188L230.468 607.623Z" fill="#75AEE2"/>
<path d="M267.239 607.623L264.946 606.652L264.814 608.188L267.239 607.623Z" fill="#75AEE2"/>
<rect x="226.798" y="616.194" width="43.7209" height="20.1789" fill="#75AEE2"/>
<path d="M183.809 610.554V615.006H214.441V610.554C201.528 602.494 188.639 607.196 183.809 610.554Z" fill="#75AEE2"/>
<rect x="176.607" y="607.951" width="0.36418" height="5.22607" transform="rotate(-4.32632 176.607 607.951)" fill="#75AEE2"/>
<rect x="183.04" y="606.616" width="0.36418" height="5.22607" transform="rotate(-4.32632 183.04 606.616)" fill="#75AEE2"/>
<rect width="0.36418" height="5.22607" transform="matrix(-0.997151 -0.0754368 -0.0754368 0.997151 215.199 606.656)" fill="#75AEE2"/>
<rect width="0.36418" height="5.22607" transform="matrix(-0.997151 -0.0754368 -0.0754368 0.997151 220.984 607.911)" fill="#75AEE2"/>
<path d="M174.947 612.98V616.42H223.789V612.98C203.199 606.752 182.649 610.385 174.947 612.98Z" fill="#75AEE2"/>
<path d="M174.318 608.898L176.63 607.973L176.731 609.511L174.318 608.898Z" fill="#75AEE2"/>
<path d="M223.314 608.898L221.003 607.973L220.901 609.511L223.314 608.898Z" fill="#75AEE2"/>
<path d="M180.733 607.63L183.025 606.658L183.157 608.195L180.733 607.63Z" fill="#75AEE2"/>
<path d="M180.729 607.625L183.022 606.654L183.154 608.19L180.729 607.625Z" fill="#75AEE2"/>
<path d="M180.729 607.625L183.022 606.654L183.154 608.19L180.729 607.625Z" fill="#75AEE2"/>
<path d="M217.5 607.625L215.208 606.654L215.075 608.19L217.5 607.625Z" fill="#75AEE2"/>
<rect x="177.062" y="616.194" width="43.7209" height="20.1789" fill="#75AEE2"/>
<path d="M282.871 610.554V615.006H313.502V610.554C300.589 602.494 287.701 607.196 282.871 610.554Z" fill="#75AEE2"/>
<rect x="275.669" y="607.951" width="0.36418" height="5.22607" transform="rotate(-4.32632 275.669 607.951)" fill="#75AEE2"/>
<rect x="282.103" y="606.616" width="0.36418" height="5.22607" transform="rotate(-4.32632 282.103 606.616)" fill="#75AEE2"/>
<rect width="0.36418" height="5.22607" transform="matrix(-0.997151 -0.0754368 -0.0754368 0.997151 314.262 606.656)" fill="#75AEE2"/>
<rect width="0.36418" height="5.22607" transform="matrix(-0.997151 -0.0754368 -0.0754368 0.997151 320.047 607.911)" fill="#75AEE2"/>
<path d="M274.01 612.98V616.42H322.852V612.98C302.262 606.752 281.712 610.385 274.01 612.98Z" fill="#75AEE2"/>
<path d="M273.381 608.898L275.692 607.973L275.794 609.511L273.381 608.898Z" fill="#75AEE2"/>
<path d="M322.377 608.898L320.065 607.973L319.964 609.511L322.377 608.898Z" fill="#75AEE2"/>
<path d="M279.796 607.63L282.088 606.658L282.22 608.195L279.796 607.63Z" fill="#75AEE2"/>
<path d="M279.792 607.625L282.084 606.654L282.217 608.19L279.792 607.625Z" fill="#75AEE2"/>
<path d="M279.792 607.625L282.084 606.654L282.217 608.19L279.792 607.625Z" fill="#75AEE2"/>
<path d="M316.563 607.625L314.271 606.654L314.138 608.19L316.563 607.625Z" fill="#75AEE2"/>
<rect x="276.124" y="616.193" width="43.7209" height="20.1789" fill="#75AEE2"/>
<path d="M417.783 421.937C412.83 417.535 408.84 417.81 407.464 418.498C413.312 421.937 414.573 423.084 416.407 425.377C417.783 423.313 425.006 419.874 423.63 419.874C422.53 419.874 419.159 421.135 417.783 421.937Z" fill="#75AEE2"/>
<path d="M470.065 392.013C461.81 390.637 457.682 391.44 456.65 392.013C456.421 392.701 458.37 392.701 461.81 392.701C465.749 392.701 469.262 393.848 471.097 394.765C473.848 394.077 470.065 393.389 476.256 392.013C481.209 390.912 482.906 390.408 483.135 390.293C478.457 388.092 472.472 390.523 470.065 392.013Z" fill="#75AEE2"/>
<path d="M228.22 567.024L250.312 565.552V669.639H228.22V567.024Z" fill="url(#paint1_linear_5564_2712)"/>
<path d="M187.026 570.953C102.743 603.178 5.97913 605.817 -35.805 600.434L-35.805 613.816C66.603 622.968 150.435 595.243 193.186 579.238C276.88 547.904 373.159 451.207 381.179 444.138C393.712 433.092 451.519 373.667 482.93 369.79C516.492 365.649 565.612 419.943 576.744 426.254L576.744 418.86C561.951 409.938 516.594 356.569 478.196 365.118C449.58 371.49 406.67 410.151 370.983 444.138C347.78 466.236 271.309 538.729 187.026 570.953Z" fill="#AD242B"/>
<path d="M2.6286 605.261L24.7205 603.788V707.875H2.6286V605.261Z" fill="url(#paint2_linear_5564_2712)"/>
<path d="M138.578 598.1H94.1819L104.591 595.763H147.712L138.578 598.1Z" fill="#ED565E"/>
<rect x="95.2444" y="598.1" width="42.9092" height="5.52296" fill="#BA2F36"/>
<path d="M180.001 590.241H135.604L146.013 588.754H189.135L180.001 590.241Z" fill="#ED565E"/>
<rect x="136.666" y="590.241" width="42.9092" height="5.52296" fill="#BA2F36"/>
<path d="M220.099 579.619H173.859L183.751 578.132H229.071L220.099 579.619Z" fill="#ED565E"/>
<rect x="173.629" y="579.619" width="46.4701" height="5.52296" fill="#BA2F36"/>
<path d="M261.358 567.889L210.589 565.128L216.324 563.428L265.819 565.765L261.358 567.889Z" fill="#ED565E"/>
<path d="M210.801 565.128L263.907 567.677L264.756 571.5L210.801 570.226V565.128Z" fill="#BA2F36"/>
<path d="M287.122 553.279L235.442 551.107L243.939 548.511L295.77 550.258L287.122 553.279Z" fill="#ED565E"/>
<path d="M235.442 551.108L289.185 553.232V558.33L235.442 556.206V551.108Z" fill="#BA2F36"/>
<path d="M342.378 522.848L290.518 516.905L296.195 513.509L348.82 519.045L342.378 522.848Z" fill="#ED565E"/>
<path d="M290.519 516.905L344.803 522.643L344.803 526.679L291.015 520.749L290.519 516.905Z" fill="#BA2F36"/>
<path d="M366.52 501.578L314.491 497.356L320.053 493.774L372.832 497.564L366.52 501.578Z" fill="#ED565E"/>
<path d="M314.491 497.356L368.936 501.293L369.07 505.327L315.115 501.182L314.491 497.356Z" fill="#BA2F36"/>
<path d="M390.373 482.025L338.345 477.804L343.906 474.221L396.685 478.012L390.373 482.025Z" fill="#ED565E"/>
<path d="M338.345 477.804L392.79 481.741L392.923 485.775L338.968 481.63L338.345 477.804Z" fill="#BA2F36"/>
<path d="M413.306 460.055L361.168 457.511L366.611 453.751L419.485 455.841L413.306 460.055Z" fill="#ED565E"/>
<path d="M361.168 457.512L415.712 459.693L415.975 463.721L361.915 461.315L361.168 457.512Z" fill="#BA2F36"/>
<path d="M434.673 439.578L383.817 436.997L389.123 433.241L440.697 435.368L434.673 439.578Z" fill="#ED565E"/>
<path d="M383.817 436.998L437.019 439.218L437.279 443.245L384.547 440.802L383.817 436.998Z" fill="#BA2F36"/>
<path d="M456.015 417.97L407.182 415.331L412.273 411.582L461.794 413.767L456.015 417.97Z" fill="#ED565E"/>
<path d="M407.182 415.332L458.267 417.612L458.521 421.64L407.888 419.136L407.182 415.332Z" fill="#BA2F36"/>
<path d="M479.262 398.006L430.549 395.363L435.627 391.614L485.027 393.803L479.262 398.006Z" fill="#ED565E"/>
<path d="M430.549 395.364L476.065 397.545L476.329 401.573L431.295 399.168L430.549 395.364Z" fill="#BA2F36"/>
<path d="M316.451 539.425L265.607 533.689L272.192 531.14L322.749 535.389L316.451 539.425Z" fill="#ED565E"/>
<path d="M265.607 533.689L316.588 538.15L312.977 541.974L265.607 538.15V533.689Z" fill="#BA2F36"/>
<path d="M493.804 380.192L453.913 378.307L460.971 375.947L497.735 377.178L493.804 380.192Z" fill="#ED565E"/>
<path d="M453.724 378.077L494.005 379.98L493.765 385.072L453.484 383.169L453.724 378.077Z" fill="#BA2F36"/>
<path d="M196.357 586.415C109.179 609.697 5.38988 596.116 -35.6075 586.415V602.135C65.2927 621.89 152.173 610.419 196.357 598.948C311.702 569.003 374.863 503.359 383.076 496.515C399.645 482.708 495.659 380.108 518.601 371.657C533.399 366.206 566.814 386.314 577.23 393.749V386.314C548.552 368.046 531.558 362.057 516.901 364.86C489.074 370.183 417.628 457.493 380.739 489.93C356.098 511.597 287.698 562.022 196.357 586.415Z" fill="url(#paint3_linear_5564_2712)"/>
<path d="M459.638 408.196L392.971 408.152V379.963C393.337 376.534 394.983 374.862 399.921 374.862H453.328C456.986 374.862 459.638 375.391 459.638 380.195V408.196Z" fill="#B7000A"/>
<path d="M379.669 396.065L397.315 383.028C399.585 381.351 402.732 383.334 402.198 386.105L398.544 405.078C398.409 405.781 398.035 406.415 397.485 406.873L383.492 418.525C381.474 420.205 378.412 418.77 378.412 416.144V398.557C378.412 397.574 378.878 396.649 379.669 396.065Z" fill="#C5C5C5"/>
<path d="M456.189 380.909C456.189 378.627 454.34 376.778 452.058 376.778H397.101C394.82 376.778 392.971 378.627 392.971 380.909V414.326H456.189V380.909Z" fill="#F31D28"/>
<path d="M383.009 398.938L392.971 391.415V409.92L383.009 418.54V398.938Z" fill="#989898"/>
<path d="M457.617 413.942H433.201V437.314L457.617 413.942Z" fill="#45171A"/>
<rect x="431.285" y="410.494" width="16.4751" height="10.728" fill="#A70E17"/>
<path d="M393.023 403.215H447.76V410.495H385.308L393.023 403.215Z" fill="#CD111B"/>
<path d="M410.568 404.771C410.475 393.148 412.543 384.692 413.886 382.016L428.755 382.016C430.817 386.829 432.266 391.908 432.453 404.445C432.6 414.286 432.127 420.256 428.546 419.944C427.627 419.864 425.113 419.906 424.655 419.562C423.734 418.873 423.26 407.702 423.633 405.587C423.633 405.587 422.992 406.083 421.614 406.104C420.236 406.125 420.151 405.883 419.606 405.648C419.939 407.635 420.004 418.752 417.851 419.887C417.181 420.239 415.974 419.944 415.257 419.944C413.146 419.944 410.684 419.3 410.568 404.771Z" fill="#C39979"/>
<ellipse cx="421.412" cy="394.271" rx="6.89038" ry="8.10632" fill="#E4C7B0"/>
<path d="M431.953 417.392C431.953 415.556 423.981 415.721 423.722 416.795C423.185 419.026 423.809 420.908 424.671 421.01C425.764 421.14 425.593 420.146 426.692 420.202C427.823 420.26 427.764 421.01 428.897 421.01C430.018 421.01 431.953 419.523 431.953 417.392Z" fill="#BEBEBE"/>
<path d="M411.537 417.212C411.252 415.654 415.954 415.816 419.002 416.465C420.395 416.761 419.698 420.742 418.827 420.842C417.724 420.969 417.761 420.057 416.65 420.112C415.509 420.17 415.902 421.022 414.759 421.022C413.627 421.022 411.915 419.273 411.537 417.212Z" fill="#BEBEBE"/>
<path d="M438.419 369.272C438.419 376.376 435.513 380.631 426.356 382.735C423.204 383.459 419.911 383.505 416.741 382.861C407.051 380.891 405.021 376.434 405.021 369.272C405.021 361.052 412.497 354.388 421.72 354.388C430.942 354.388 438.419 361.052 438.419 369.272Z" fill="#C99D7B"/>
<path d="M420.36 356.988C420.337 357.383 420.054 357.754 419.392 357.911C418.795 358.052 418.186 357.306 418.209 356.911C418.233 356.515 418.887 356.183 419.426 356.214C419.965 356.246 420.384 356.592 420.36 356.988Z" fill="#BC8C67"/>
<path d="M422.424 356.735C422.401 357.13 422.639 357.531 423.278 357.765C423.854 357.975 424.546 357.306 424.57 356.91C424.593 356.515 423.982 356.108 423.443 356.076C422.904 356.044 422.448 356.339 422.424 356.735Z" fill="#BC8C67"/>
<path d="M422.627 358.664C422.651 359.059 422.413 359.46 421.773 359.694C421.198 359.904 420.481 359.317 420.458 358.921C420.434 358.526 421.069 358.037 421.609 358.005C422.148 357.974 422.604 358.268 422.627 358.664Z" fill="#BC8C67"/>
<path d="M436.367 334.436C443.502 336.845 434.624 350.47 431.969 357.53C430.158 358.522 426.487 357.797 428.001 354.217C429.893 349.743 424.379 345.382 425.858 342.355C427.337 339.329 431.166 350.154 431.527 345.88C432.445 335.009 433.741 333.549 436.367 334.436Z" fill="#815D5D"/>
<path d="M406.657 333.955C399.463 336.18 408.133 350.396 410.605 357.522C412.391 358.56 416.079 357.929 414.658 354.312C412.881 349.79 418.361 345.205 416.96 342.141C415.559 339.078 411.453 349.801 411.202 345.519C410.563 334.628 409.306 333.135 406.657 333.955Z" fill="#815D5D"/>
<path d="M405.434 354.272C402.938 359.768 405.844 359.931 406.632 361.677C407.668 363.97 413.851 358.801 412.211 357.991C410.571 357.181 411.752 354.531 405.434 354.272Z" fill="#C99D7B"/>
<path d="M406.517 356.217C406.647 355.698 407.371 355.337 408.911 356.217C409.1 356.325 410.765 357.157 410.894 358C411.056 359.054 408.787 360.432 407.895 360.351C407.003 360.27 407.652 359.702 406.679 358.973C405.706 358.243 406.355 356.865 406.517 356.217Z" fill="#E4C7B0"/>
<path d="M438.09 354.401C440.359 359.994 437.449 360.038 436.59 361.75C435.461 363.999 429.495 358.581 431.167 357.839C432.838 357.097 431.767 354.401 438.09 354.401Z" fill="#C99D7B"/>
<path d="M436.77 356.029C436.644 355.507 435.458 355.522 434.284 356.465C433.882 356.788 432.554 357.093 432.428 357.941C432.27 359.002 434.563 360.272 435.43 360.191C436.297 360.109 435.667 359.538 436.612 358.804C437.558 358.069 436.927 356.682 436.77 356.029Z" fill="#E4C7B0"/>
<ellipse cx="421.733" cy="372.979" rx="6.74629" ry="4.20041" transform="rotate(-1.05377 421.733 372.979)" fill="#E4C7B0"/>
<path d="M431.305 367.853L428.896 368.885C428.71 368.964 428.73 369.233 428.925 369.285L431.517 369.977" stroke="#45171A" stroke-width="0.849687" stroke-linecap="round"/>
<path d="M411.762 368.065L414.171 369.097C414.356 369.177 414.337 369.446 414.142 369.498L411.549 370.189" stroke="#45171A" stroke-width="0.849687" stroke-linecap="round"/>
<path d="M421.748 372.222C420.545 372.222 419.571 371.351 420.179 370.844C420.457 370.696 421.362 371.346 421.748 371.33C422.115 371.315 423.081 370.658 423.421 370.844C424.151 371.492 422.951 372.222 421.748 372.222Z" fill="#45171A" stroke="#45171A" stroke-width="0.849687" stroke-linecap="round"/>
<path d="M421.8 372.141V373.438M421.8 373.438C422.097 373.654 422.838 374.054 423.422 373.925C424.005 373.795 424.259 373.546 424.313 373.438M421.8 373.438C421.611 373.6 421.119 373.925 420.341 373.925C419.563 373.925 419.287 373.6 419.206 373.438" stroke="#45171A" stroke-width="0.424843" stroke-linecap="round"/>
<path d="M428.328 376.348C430.179 381.105 434.18 387.997 430.667 390.369C429.325 389.24 427.092 387.074 424.932 382.509C422.791 377.986 422.116 378.14 421.958 376.774C421.741 375.556 422.944 375.538 423.962 375.093C426.809 373.847 426.116 370.665 428.328 376.348Z" fill="#BC906E"/>
<path d="M426.371 372.651C427.228 373.215 427.835 375.009 427.835 375.009C427.835 375.009 426.246 375.923 425.148 376.32C423.963 376.748 422.007 377.06 422.007 377.06C421.832 376.06 421.945 376.592 421.86 374.794C421.775 372.996 423.222 374.298 424.28 373.799C425.139 373.393 425.678 372.194 426.371 372.651Z" fill="#826868"/>
<path d="M415.468 376.348C413.617 381.105 409.616 387.997 413.128 390.369C414.471 389.24 416.703 387.074 418.864 382.509C421.005 377.986 421.68 378.14 421.838 376.774C422.055 375.556 420.852 375.538 419.833 375.093C416.987 373.847 417.68 370.665 415.468 376.348Z" fill="#BC906E"/>
<path d="M417.425 372.651C416.568 373.215 415.961 375.009 415.961 375.009C415.961 375.009 417.55 375.923 418.647 376.32C419.833 376.748 421.789 377.06 421.789 377.06C421.964 376.06 421.851 376.592 421.936 374.794C422.021 372.996 420.574 374.298 419.516 373.799C418.657 373.393 418.118 372.194 417.425 372.651Z" fill="#826868"/>
<path d="M463.168 406.089L420.946 445.832C421.594 444.799 420.964 442.994 406.876 445.811C403.69 446.449 404.964 449.712 405.389 450.736C405.814 451.759 407.685 454.397 410.912 454.772C420.046 455.834 421.418 453.574 422.595 452.397C425.357 449.635 461.681 415.435 468.478 408.425C469.54 405.451 460.194 402.478 463.168 406.089Z" fill="url(#paint4_linear_5564_2712)"/>
<path d="M444.85 400.169L458.658 387.483C460.644 385.658 463.852 387.067 463.852 389.765V406.541C463.852 407.381 463.51 408.186 462.905 408.77L449.097 422.095C447.13 423.993 443.848 422.599 443.848 419.866V402.45C443.848 401.583 444.211 400.756 444.85 400.169Z" fill="url(#paint5_linear_5564_2712)"/>
<path d="M448.526 403.214L463.852 389.012V406.663C463.852 407.388 463.594 408.195 462.838 408.87L448.526 422.793V403.214Z" fill="url(#paint6_linear_5564_2712)"/>
<path d="M435.975 430.134L365.367 430.087V400.231C365.755 396.6 367.498 394.83 372.728 394.83H429.292C433.166 394.83 435.975 395.39 435.975 400.478V430.134Z" fill="#B7000A"/>
<path d="M351.204 417.341L370.345 403.198C372.615 401.521 375.762 403.505 375.228 406.276L371.258 426.895C371.122 427.598 370.748 428.232 370.198 428.69L355.028 441.323C353.01 443.003 349.947 441.568 349.947 438.942V419.832C349.947 418.849 350.414 417.925 351.204 417.341Z" fill="url(#paint7_linear_5564_2712)"/>
<path d="M432.323 400.989C432.323 398.708 430.474 396.858 428.192 396.858H369.498C367.217 396.858 365.367 398.707 365.367 400.989V436.626H432.323V400.989Z" fill="#F31D28"/>
<path d="M354.817 420.328L365.368 412.36V431.959L354.817 441.089V420.328Z" fill="#E9E9E9"/>
<path d="M433.835 436.22H407.975V448.597H420.905L433.835 436.22Z" fill="#45171A"/>
<rect x="405.946" y="432.569" width="17.4491" height="11.3622" fill="#A70E17"/>
<path d="M365.422 424.859H423.395V432.569H357.251L365.422 424.859Z" fill="#CD111B"/>
<path d="M376.555 386.004L391.16 382.933L403.088 384.508L406.223 386.004L409.357 388.499L409.426 390.726C409.426 390.726 409.245 392.731 406.835 393.799C401.819 396.02 392.51 397.803 392.51 397.803C392.51 397.803 379.151 395.169 374.032 393.799C370.962 392.977 371.194 390.646 371.194 390.646L371.662 388.445L373.65 386.004H376.555Z" fill="#937320"/>
<path d="M369.574 402.461C372.076 408.053 380.495 412.81 384.004 411.919C383.808 409.967 382.323 405.007 380.267 399.746C378.21 394.486 375.303 391.184 374.106 390.191C373.399 390.111 371.93 390.345 370.84 391.02C367.792 392.906 366.787 396.233 369.574 402.461Z" fill="#A98469"/>
<path d="M412.674 400.751C410.756 406.545 401.435 412.948 397.127 411.608C397.173 409.653 401.098 404.873 402.629 399.452C404.16 394.032 406.606 390.468 407.637 389.363C408.281 389.213 409.647 389.299 410.695 389.859C413.624 391.425 414.81 394.298 412.674 400.751Z" fill="#A98469"/>
<path d="M376.734 425.351C376.836 414.357 382.131 406.585 383.873 404.073H399.349C401.856 408.654 406.564 413.493 406.564 425.351C406.564 434.661 401.534 439.931 398.741 440.645C397.64 440.927 393.503 440.977 392.932 440.645C391.785 439.98 392.422 433.442 392.932 431.447H389.745C390.128 433.331 390.629 439.759 388.717 440.645C387.906 441.021 384.766 440.756 383.873 440.645C382.981 440.534 376.607 439.094 376.734 425.351Z" fill="#BC9171"/>
<ellipse cx="391.562" cy="419.88" rx="9.07908" ry="8.67377" fill="#EBC9B0"/>
<path d="M409.72 392.56C409.72 400.798 405.616 407.476 391.481 407.476C375.521 407.476 373.242 400.798 373.242 392.56C373.242 384.322 381.408 377.645 391.481 377.645C401.554 377.645 409.72 384.322 409.72 392.56Z" fill="#CA9C79"/>
<path d="M384.102 373.702C382.046 374.176 377.753 379.342 375.863 381.866C387.173 383.073 408.871 384.263 405.186 379.364C400.583 373.246 398.015 373.701 394.299 374.358L394.289 374.36C390.569 375.019 386.671 373.109 384.102 373.702Z" fill="#D8AD40"/>
<path d="M377.553 378.658C373.178 381.122 376.134 385.658 376.134 385.658L385.457 380.942C385.457 380.942 381.928 376.194 377.553 378.658Z" fill="#CA9C79"/>
<path d="M378.553 380.365C375.657 382.099 377.731 385.108 377.731 385.108L383.913 381.772C383.913 381.772 381.449 378.631 378.553 380.365Z" fill="#EBC9B0"/>
<path d="M405.063 378.31C409.561 380.541 406.848 385.225 406.848 385.225L397.291 381.005C397.291 381.005 400.565 376.078 405.063 378.31Z" fill="#CA9C79"/>
<path d="M404.155 380.067C407.138 381.647 405.225 384.76 405.225 384.76L398.877 381.754C398.877 381.754 401.172 378.487 404.155 380.067Z" fill="#EBC9B0"/>
<ellipse cx="6.16558" cy="4.20029" rx="6.16558" ry="4.20029" transform="matrix(0.999798 -0.0201229 0.0168076 0.999859 383.407 392.16)" fill="#EBC9B0"/>
<path d="M389.657 395.478C388.557 395.478 387.63 394.911 388.186 394.404C388.653 394.053 389.367 394.053 389.657 394.053L389.657 394.053C390.18 394.053 390.756 394.16 391.067 394.346C391.993 394.9 390.756 395.478 389.657 395.478Z" fill="#45171A" stroke="#45171A" stroke-width="0.849687" stroke-linecap="round"/>
<path d="M389.202 398.56C388.516 398.444 388.024 397.762 388.448 397.298C388.733 397.092 389.198 397.071 389.421 397.092C389.632 397.112 390.091 397.318 390.257 397.542C390.75 398.21 389.889 398.676 389.202 398.56Z" fill="#45171A" stroke="#45171A" stroke-width="0.849687" stroke-linecap="round"/>
<path d="M401.205 386.966C397.28 386.726 394.746 385.219 390.913 385.219C386.207 385.219 383.761 386.617 379.924 387.133C375.824 387.684 372.033 386.071 371.189 390.792C370.51 385.903 374.254 383.183 380.796 381.608C384.633 380.684 385.595 379.959 390.913 379.958C395.352 379.958 397.864 380.922 400.595 381.766C407.054 383.762 411.111 386.461 409.495 391.854C409.495 388.242 406.526 387.29 401.205 386.966Z" fill="#EEC250"/>
<path d="M383.965 392.504C383.907 392.93 383.746 393.29 383.542 393.53C383.336 393.772 383.109 393.87 382.909 393.843C382.709 393.816 382.516 393.662 382.382 393.374C382.248 393.089 382.188 392.698 382.245 392.273C382.302 391.847 382.464 391.487 382.668 391.247C382.874 391.005 383.101 390.907 383.3 390.934C383.5 390.961 383.693 391.115 383.828 391.403C383.961 391.688 384.022 392.079 383.965 392.504Z" fill="#45171A" stroke="#45171A" stroke-width="0.424843"/>
<path d="M398.749 392.699C398.781 393.127 398.697 393.514 398.546 393.79C398.395 394.07 398.193 394.212 397.992 394.227C397.791 394.242 397.571 394.131 397.38 393.877C397.19 393.625 397.05 393.256 397.018 392.828C396.987 392.399 397.071 392.013 397.221 391.736C397.372 391.457 397.574 391.315 397.775 391.3C397.976 391.285 398.197 391.396 398.388 391.65C398.577 391.902 398.717 392.271 398.749 392.699Z" fill="#45171A" stroke="#45171A" stroke-width="0.424843"/>
<path d="M420.255 421.686L435.245 407.914C437.232 406.089 440.439 407.498 440.439 410.195V428.458C440.439 429.299 440.097 430.103 439.493 430.687L424.502 445.153C422.535 447.052 419.253 445.658 419.253 442.924V423.968C419.253 423.1 419.616 422.273 420.255 421.686Z" fill="url(#paint8_linear_5564_2712)"/>
<path d="M424.208 424.857L440.439 409.815V428.509C440.439 429.277 440.167 430.132 439.366 430.847L424.208 445.593V424.857Z" fill="url(#paint9_linear_5564_2712)"/>
<path d="M414.099 453.458L363.118 502.527C362.916 502.428 310.848 492.249 292.381 495.942C289.195 496.58 291.107 502.386 291.956 502.952C292.806 503.519 300.665 509.59 320.42 511.237C338.264 512.724 365.551 508.166 366.728 506.988C369.49 504.227 412.612 462.804 419.409 455.794C420.471 452.821 411.125 449.847 414.099 453.458Z" fill="url(#paint10_linear_5564_2712)"/>
<path d="M409.85 453.458L335.927 453.409V422.152C336.333 418.35 338.158 416.497 343.634 416.497H402.853C406.91 416.497 409.85 417.083 409.85 422.41V453.458Z" fill="#B7000A"/>
<path d="M321.04 440.108L341.439 425.037C343.709 423.36 346.856 425.343 346.322 428.114L342.084 450.119C341.949 450.822 341.575 451.456 341.025 451.914L324.864 465.372C322.846 467.052 319.783 465.617 319.783 462.991V442.6C319.783 441.617 320.25 440.692 321.04 440.108Z" fill="url(#paint11_linear_5564_2712)"/>
<path d="M406.027 422.751C406.027 420.47 404.177 418.621 401.896 418.621H340.058C337.777 418.621 335.927 420.47 335.927 422.751V460.256H406.027V422.751Z" fill="#F31D28"/>
<path d="M324.881 443.193L335.927 434.851V455.37L324.881 464.929V443.193Z" fill="#E9E9E9"/>
<path d="M407.61 459.831H380.536V485.746L407.61 459.831Z" fill="#45171A"/>
<rect x="378.413" y="456.007" width="18.2683" height="11.8956" fill="#A70E17"/>
<path d="M335.986 447.935H396.681V456.007H327.431L335.986 447.935Z" fill="#CD111B"/>
<path d="M369.919 464.833C372.594 464.277 373.017 460.934 372.927 459.859C370.177 460.212 364.688 462.202 364.481 463.12C364.221 464.268 366.575 465.528 369.919 464.833Z" fill="#B6B6B6"/>
<path d="M352.271 464.884C349.509 464.413 349.147 461.682 349.077 460.351C351.921 460.22 358.013 461.268 358.363 462.346C358.8 463.694 356.216 465.557 352.271 464.884Z" fill="#B6B6B6"/>
<path d="M368.161 459.231C372.698 461.487 388.528 446.501 386.997 439.561C385.827 434.257 375.392 425.593 371.251 432.294C366.074 440.671 362.49 456.41 368.161 459.231Z" fill="#543A3A"/>
<path d="M381.722 436.359C380.263 438.884 374.294 440.658 371.758 439.402C371.886 438.465 374.507 436.713 375.713 434.312C376.918 431.912 378.582 430.537 379.263 430.15C379.66 430.169 380.482 430.403 381.086 430.822C382.778 431.991 383.347 433.545 381.722 436.359Z" fill="#B78E78"/>
<path d="M340.473 432.615C341.139 435.455 346.352 438.882 349.153 438.415C349.302 437.481 347.296 435.044 346.836 432.398C346.377 429.751 345.18 427.953 344.639 427.385C344.252 427.288 343.395 427.275 342.693 427.5C340.729 428.129 339.731 429.452 340.473 432.615Z" fill="#B78E78"/>
<path d="M344.54 447.599C345.262 437.454 347.933 427.725 349.874 424.872C349.874 424.872 353.262 420.591 358.033 420.157C366.712 419.369 369.207 423.116 369.207 423.116C373.623 428.084 375.793 435.066 376.931 447.599C377.824 457.438 374.118 460.519 370.689 461.591C369.338 462.014 366.923 463.293 361.205 463.293C354.578 463.293 355.234 462.78 351.34 461.778C346.518 460.537 343.826 457.644 344.54 447.599Z" fill="#C2947C"/>
<rect x="359.832" y="413.521" width="0.486379" height="4.86379" fill="white"/>
<ellipse cx="356.022" cy="413.196" rx="3.9721" ry="0.486379" fill="#B7D5DD"/>
<ellipse cx="363.967" cy="413.196" rx="3.9721" ry="0.486379" fill="#B7D5DD"/>
<circle cx="360.076" cy="413.116" r="0.567443" fill="white"/>
<path d="M360.397 424.377C355.05 424.305 351.091 423.806 349.781 423.566C351.406 420.83 353.634 415.629 360.397 415.629C367.475 415.629 369.913 420.83 370.857 423.566C369.599 423.866 365.745 424.45 360.397 424.377Z" fill="#00A3E0"/>
<mask id="mask5_5564_2712" style="mask-type:alpha" maskUnits="userSpaceOnUse" x="349" y="415" width="22" height="10">
<path d="M360.398 424.376C355.05 424.304 351.091 423.805 349.781 423.564C351.406 420.829 353.634 415.627 360.398 415.627C367.476 415.627 369.914 420.829 370.857 423.564C369.599 423.865 365.745 424.448 360.398 424.376Z" fill="#B9B9B9"/>
</mask>
<g mask="url(#mask5_5564_2712)">
<path d="M364.859 423.653C364.534 419.438 362.319 416.492 359.995 415.547C360.832 415.222 362.556 414.574 362.751 414.574C362.946 414.574 371.127 420.221 374.262 422.275C372.722 425.004 365.183 427.868 364.859 423.653Z" fill="#F9C745"/>
<path d="M355.455 424.139C355.779 419.924 357.914 416.492 360.238 415.547C359.4 415.222 357.676 414.574 357.482 414.574C357.287 414.574 350.726 419.005 347.592 421.059C349.132 423.788 355.131 428.355 355.455 424.139Z" fill="#DD313A"/>
</g>
<path d="M350.52 423.248C349.213 423.38 348.305 424.921 348.565 426.004C348.565 427.261 370.516 426.359 371.563 426.004C372.61 425.649 371.539 423.603 370.491 423.248C369.444 422.893 351.853 423.113 350.52 423.248Z" fill="#17846D"/>
<path d="M370.142 418.892C368.935 417.878 367.816 418.925 367.408 419.576C367.942 420.486 369.237 422.249 370.142 422.015C371.273 421.722 371.65 420.161 370.142 418.892Z" fill="#B78E78"/>
<path d="M350.85 418.892C352.057 417.878 353.176 418.925 353.584 419.576C353.05 420.486 351.755 422.249 350.85 422.015C349.719 421.722 349.342 420.161 350.85 418.892Z" fill="#B78E78"/>
<path d="M355.683 429.799C355.673 430.182 355.555 430.52 355.383 430.757C355.21 430.994 354.996 431.114 354.785 431.114C354.575 431.114 354.366 430.994 354.204 430.757C354.043 430.52 353.941 430.182 353.95 429.799C353.959 429.416 354.077 429.078 354.25 428.842C354.423 428.605 354.637 428.484 354.847 428.484C355.058 428.484 355.266 428.605 355.428 428.842C355.59 429.078 355.692 429.416 355.683 429.799Z" fill="#45171A" stroke="#45171A" stroke-width="0.424843"/>
<path d="M366.683 429.73C366.691 430.112 366.587 430.45 366.425 430.687C366.262 430.924 366.053 431.044 365.842 431.044C365.632 431.044 365.418 430.924 365.246 430.687C365.074 430.45 364.957 430.112 364.95 429.73C364.942 429.347 365.046 429.009 365.208 428.772C365.371 428.535 365.58 428.415 365.791 428.415C366.001 428.415 366.215 428.535 366.387 428.772C366.559 429.009 366.676 429.347 366.683 429.73Z" fill="#45171A" stroke="#45171A" stroke-width="0.424843"/>
<path d="M360.287 431.888C359.579 431.891 358.973 431.42 359.324 430.996C359.486 430.872 360.114 430.773 360.341 430.759C360.557 430.745 360.976 430.785 361.179 430.94C361.784 431.399 360.995 431.885 360.287 431.888Z" fill="#45171A" stroke="#45171A" stroke-width="0.500136" stroke-linecap="round"/>
<path d="M359.239 433.671L359.232 433.021L360.498 432.622L361.501 432.994L361.509 433.644C361.512 433.879 361.324 434.071 361.089 434.074L359.669 434.091C359.435 434.094 359.242 433.906 359.239 433.671Z" fill="white"/>
<path d="M360.353 431.826L360.365 432.555M360.365 432.555C360.666 432.767 361.413 433.154 361.995 433.014C362.576 432.875 362.826 432.622 362.878 432.513M360.365 432.555C360.179 432.721 359.693 433.053 358.915 433.067C358.136 433.08 357.855 432.76 357.772 432.6" stroke="#45171A" stroke-width="0.424843" stroke-linecap="round"/>
<path fill-rule="evenodd" clip-rule="evenodd" d="M384.806 451.758L367.294 485.926C366.586 486.036 365.888 486.144 365.198 486.251L363.788 502.751C321.76 509.232 307.181 505.142 291.743 498.341V484.619L291.745 484.619C291.953 468.589 308.37 457.807 315.696 452.996C316.156 452.694 316.58 452.415 316.963 452.16L384.806 451.758Z" fill="url(#paint12_linear_5564_2712)"/>
<path d="M384.806 483.329V451.758C379.69 455.607 377.274 457.102 370.787 465.749C364.3 474.397 363.788 502.751 363.788 502.751L384.806 483.329Z" fill="#F5F5F5"/>
<path d="M393.769 445.083L409.754 430.397C411.741 428.572 414.948 429.981 414.948 432.678V452.191C414.948 453.032 414.607 453.837 414.002 454.421L398.016 469.847C396.049 471.745 392.767 470.351 392.767 467.618V447.365C392.767 446.497 393.13 445.67 393.769 445.083Z" fill="url(#paint13_linear_5564_2712)"/>
<path d="M397.955 448.359L414.948 432.612V452.183C414.948 452.987 414.663 453.882 413.824 454.631L397.955 470.069V448.359Z" fill="url(#paint14_linear_5564_2712)"/>
<path d="M328.917 462.973C324.032 467.265 320.633 472.104 317.237 477.908C317.237 477.91 317.236 477.913 317.234 477.916C320.635 476.002 324.077 474.175 327.559 472.434C327.266 471.879 326.975 471.318 326.686 470.752C325.58 471.2 324.472 471.651 323.362 472.104C324.663 470.315 326.071 468.635 327.587 467.064C329.283 470.678 331.183 474.286 333.286 477.885C333.674 477.035 334.061 476.187 334.448 475.341C334.449 475.343 334.45 475.345 334.45 475.346C336.176 472.029 338.235 469.009 340.627 466.285C339.24 466.987 337.868 467.701 336.511 468.426C335.529 469.69 334.592 470.995 333.699 472.343C332.151 469.06 329.654 466.05 328.917 462.973Z" fill="#45171A"/>
<path d="M342.098 464.429C342.63 463.941 343.158 463.455 343.681 462.973C342.915 463.286 341.383 463.76 340.627 464.078C340.433 464.271 340.239 464.462 340.045 464.652C339.571 464.669 339.095 464.685 338.619 464.699C338.345 464.986 338.071 465.273 337.797 465.561C338.263 465.542 338.727 465.52 339.188 465.496C338.647 466.037 337.946 466.713 337.414 467.265C338.109 466.92 339.746 466.293 340.453 465.955C340.703 465.72 340.953 465.486 341.204 465.254C341.653 465.214 342.1 465.173 342.545 465.13C342.859 464.865 343.174 464.6 343.491 464.335C343.028 464.368 342.564 464.399 342.098 464.429Z" fill="#45171A"/>
<path opacity="0.1" fill-rule="evenodd" clip-rule="evenodd" d="M408.252 351.865C405.039 344.616 401.078 335.68 406.657 333.955C409.306 333.136 410.563 334.628 411.202 345.52C411.325 347.614 412.37 346.119 413.569 344.403C414.822 342.61 416.244 340.576 416.96 342.141C417.605 343.552 416.791 345.285 415.899 347.186C414.853 349.414 413.698 351.872 414.657 354.312C414.855 354.816 414.954 355.262 414.973 355.653C417.036 354.84 419.318 354.388 421.719 354.388C423.816 354.388 425.822 354.733 427.67 355.361C427.717 355.018 427.823 354.637 428.001 354.217C429.022 351.801 427.885 349.418 426.854 347.26C425.977 345.422 425.177 343.747 425.858 342.355C426.613 340.809 427.982 342.879 429.189 344.703C430.344 346.45 431.35 347.97 431.527 345.88C432.445 335.009 433.74 333.549 436.367 334.436C441.896 336.303 437.81 344.903 434.455 351.965C433.686 353.585 432.955 355.123 432.387 356.481C433.034 355.495 434.062 354.401 438.089 354.401C439.777 358.56 438.601 359.651 437.533 360.641C437.165 360.982 436.81 361.311 436.589 361.751C436.522 361.885 436.438 361.991 436.339 362.074C437.664 364.207 438.418 366.661 438.418 369.273C438.418 371.381 438.163 373.238 437.563 374.862H453.327C456.985 374.862 459.637 375.391 459.637 380.195V386.866C461.349 386.197 463.374 387.218 463.779 389.079L463.851 389.012V389.765V404.461C465.776 404.727 469.138 406.576 468.478 408.425C463.951 413.094 446.326 429.824 434.243 441.293L434.241 441.295L434.232 441.303C428.178 447.05 423.517 451.475 422.595 452.396C422.552 452.439 422.509 452.483 422.466 452.529C422.441 452.555 422.415 452.582 422.389 452.609L422.339 452.662C421.753 453.279 421.006 454.066 419.305 454.564C419.502 454.962 419.558 455.378 419.409 455.794C414.76 460.589 393.12 481.479 379.022 495.09L379.019 495.092L379.017 495.095C372.504 501.383 367.601 506.116 366.728 506.988C365.55 508.166 338.264 512.724 320.42 511.237C301.561 509.665 293.543 504.06 292.115 503.062C292.047 503.015 291.994 502.978 291.956 502.952C291.17 502.429 289.478 497.428 291.743 496.171V484.619L291.745 484.619C291.792 480.971 292.679 477.594 294.107 474.498L294.08 474.488C294.383 473.887 294.617 473.432 294.865 472.974C300.03 463.285 310.315 456.53 315.695 452.996L315.695 452.996L315.698 452.995L315.699 452.994C316.158 452.692 316.581 452.414 316.963 452.16L319.783 452.143V442.6C319.783 441.617 320.25 440.692 321.04 440.108L335.927 429.109V418.621H337.155C338.28 417.197 340.267 416.497 343.634 416.497H352.346L356.155 413.682L356.022 413.683C353.828 413.683 352.05 413.465 352.05 413.196C352.05 412.928 353.828 412.71 356.022 412.71C356.518 412.71 356.992 412.721 357.429 412.741L365.367 406.877V396.858H366.54C366.908 396.393 367.373 396.008 367.954 395.703C368.098 393.54 369.158 392.061 370.84 391.02C370.953 390.95 371.07 390.885 371.19 390.824L371.19 390.79L371.189 390.792C370.734 387.517 372.265 385.215 375.292 383.579C374.953 382.061 375.108 380.036 377.553 378.658C378.024 378.393 378.486 378.211 378.934 378.098C380.79 375.998 382.856 373.989 384.101 373.702C385.312 373.423 386.817 373.699 388.459 374C390.304 374.338 392.321 374.708 394.289 374.36L394.299 374.358C396.587 373.953 398.44 373.626 400.601 374.862H405.681C405.194 373.226 405.02 371.365 405.02 369.273C405.02 366.689 405.759 364.258 407.059 362.141C406.877 362.047 406.731 361.896 406.632 361.677C406.43 361.23 406.088 360.886 405.734 360.53C404.708 359.497 403.577 358.359 405.434 354.272C407.605 354.361 408.891 354.733 409.71 355.215C409.272 354.168 408.772 353.038 408.252 351.865L408.252 351.865Z" fill="url(#paint15_linear_5564_2712)"/>
<g opacity="0.6">
<path d="M481.476 167.489C481.893 166.668 482.252 165.791 482.566 164.871C488.046 165.076 493.09 165.58 498.485 166.59C504.114 167.644 504.968 159.949 509.723 159.738C511.724 159.649 522.647 162.711 524.86 156.925C526.839 151.753 527.193 153.22 531.972 150.652C543.853 144.266 539.613 149.775 550.45 147.231C561.669 144.598 584.956 126.703 584.618 116.79C584.314 107.88 568.384 83 553.679 91.3798C544.36 84.9578 529.259 85.0656 518.569 84.8066C511.693 84.64 504.919 84.9672 498.098 85.9892C497.423 86.0902 495.298 86.6808 494.359 86.2923C493.107 85.7742 491.976 83.4113 490.964 82.576C486.934 79.2485 481.58 77.1737 476.71 75.6803C465.177 72.1439 452.464 71.4318 441.015 76.2338C432.866 79.6515 427.259 85.6216 420.612 91.2564C418.069 93.4119 415.9 92.2211 413.297 91.2565C397.437 85.3799 356.348 89.1608 361.858 107.911C363.681 114.118 367.188 119.333 372.737 122.271C375.301 123.628 374.457 124.63 374.03 127.385C371.748 142.095 384.073 149.039 396.012 151.274C403.217 152.623 410.21 153.723 417.476 151.71C419.072 151.268 422.621 148.399 424.106 149.799C436.579 161.557 445.035 171.488 463.122 172.292C468.059 172.512 478.593 173.166 481.476 167.489Z" fill="url(#paint16_linear_5564_2712)" fill-opacity="0.76"/>
</g>
<g opacity="0.6">
<path d="M340.131 48.4683C344.1 46.641 348.202 42.567 349.72 38.3222C352.769 39.2377 358.226 40.472 365.375 40.472C376.679 41.2927 400.873 38.5067 407.218 20.7975C437.041 17.7228 441.461 9.59541 440.201 1.61814C439.068 -5.55262 420.984 -25.0149 407.219 -17.7134C397.399 -22.5433 382.469 -21.8947 371.868 -21.7058C365.05 -21.5843 358.378 -21.0686 351.725 -19.9912C351.067 -19.8847 349.02 -19.3296 348.055 -19.6078C346.767 -19.9788 345.427 -21.8414 344.349 -22.4771C340.051 -25.0093 334.56 -26.4825 329.602 -27.5052C317.861 -29.9267 305.218 -30.0278 294.339 -25.7313C286.596 -22.6734 281.606 -17.6526 275.556 -12.8634C273.242 -11.0314 268.491 -12.5384 265.733 -12.7189C256.836 -13.3012 211.781 -12.1623 218.983 2.74685C221.367 7.68197 225.323 11.7551 231.088 13.9169C233.751 14.9153 233.01 15.7544 232.844 17.9908C231.961 29.9328 244.803 35.0716 256.824 36.4292C264.078 37.2484 271.099 37.8748 278.1 35.9824C279.637 35.5667 282.881 33.1219 284.481 34.1953C297.919 43.2089 307.213 50.8996 325.183 50.8747L325.264 50.8746C330.14 50.868 334.934 50.8614 340.131 48.4683Z" fill="url(#paint17_linear_5564_2712)" fill-opacity="0.76"/>
<path d="M-11.2585 141.6C-11.5176 141.079 -11.736 140.523 -11.9221 139.941C-15.6433 140.009 -19.0779 140.269 -22.7644 140.844C-26.6108 141.443 -26.9693 136.596 -30.1867 136.41C-31.541 136.332 -39.0343 138.134 -40.3692 134.472C-41.5626 131.198 -41.8445 132.117 -45.0108 130.449C-52.8833 126.301 -50.1664 129.811 -57.4407 128.091C-64.9712 126.31 -80.2464 114.799 -79.7334 108.571C-79.2723 102.973 -67.7599 87.5106 -58.0303 92.9435C-51.5285 89.0108 -41.2934 89.2479 -34.0385 89.2049C-29.3721 89.1773 -24.7887 89.459 -20.1934 90.1779C-19.7391 90.249 -18.3153 90.6441 -17.6675 90.4104C-16.8035 90.0987 -15.9689 88.6259 -15.2592 88.1122C-12.432 86.0655 -8.74245 84.8212 -5.39766 83.937C2.52257 81.8432 11.1615 81.5381 18.7862 84.6852C24.2128 86.9251 27.8437 90.7411 32.1888 94.358C33.8508 95.7416 37.0331 94.4843 38.9103 94.2945C44.9671 93.6822 75.8175 93.7612 71.5454 105.487C70.1313 109.369 67.6044 112.608 63.758 114.392C61.9814 115.217 62.5244 115.856 62.7352 117.593C63.8608 126.866 55.3059 131.093 47.1479 132.364C42.2247 133.131 37.4522 133.744 32.5836 132.398C31.5143 132.102 29.1903 130.258 28.1431 131.122C19.3503 138.374 13.3332 144.522 1.04724 144.825C-2.30564 144.907 -9.46644 145.2 -11.2585 141.6Z" fill="url(#paint18_linear_5564_2712)" fill-opacity="0.76"/>
<path d="M89.6624 24.4209C89.367 24.9977 89.1164 25.6143 88.9016 26.2602C84.7561 26.1373 80.9324 25.8029 76.832 25.1154C72.5539 24.3981 72.092 29.7941 68.5045 29.9599C66.9945 30.0296 58.6681 27.9253 57.1336 31.9883C55.7617 35.6207 55.4595 34.5939 51.9099 36.412C43.0845 40.9324 46.157 37.0556 38.0293 38.8793C29.6155 40.7672 12.9383 44.7799 12.9383 60.3427C12.9383 68.4537 26.0091 83.9636 36.9203 78.0351C44.1145 82.5008 55.6485 84.915 63.7319 85.0562C68.931 85.1469 73.9154 82.3454 79.0451 81.6034C79.5522 81.53 81.1437 81.1081 81.8626 81.3768C82.8213 81.7352 83.7323 83.387 84.5165 83.9686C87.6404 86.2855 91.7356 87.7194 95.4512 88.7477C104.249 91.1827 113.872 91.6337 122.408 88.2251C128.484 85.799 132.578 81.5937 137.466 77.6194C139.336 76.0991 142.866 77.541 144.955 77.7766C151.696 78.5368 186.073 78.8456 181.463 65.7249C179.938 61.3818 177.164 57.74 172.901 55.7019C170.932 54.7605 171.545 54.055 171.802 52.1227C173.176 41.8045 163.698 36.9842 154.624 35.4628C149.148 34.5447 143.838 33.8003 138.396 35.2382C137.2 35.554 134.587 37.5783 133.431 36.6025C123.727 28.409 117.102 21.4805 103.416 20.9854C99.6808 20.8503 91.7055 20.4316 89.6624 24.4209Z" fill="url(#paint19_linear_5564_2712)" fill-opacity="0.76"/>
</g>
<g filter="url(#filter1_d_5564_2712)">
<path d="M443.371 41.0508L160.16 40.6021L160.515 69.9109C171.781 77.9653 173.56 82.4731 160.764 90.4894L161.118 119.798L444.329 120.247L443.975 90.9382C429.334 82.8782 430.246 78.375 443.726 70.3596L443.371 41.0508Z" fill="url(#paint20_linear_5564_2712)"/>
<path d="M350.949 119.901L300.642 82.0745L384.199 120.113L350.949 119.901Z" fill="#DB2C17" fill-opacity="0.4"/>
<path d="M299.724 119.551L301.136 82.1126L313.614 119.641L299.724 119.551Z" fill="#8F2415" fill-opacity="0.4"/>
<path d="M443.675 90.8636C437.264 87.1403 433.594 85.0086 433.16 79.1736L303.823 82.7198L301.082 82.795L443.921 91.0065L443.675 90.8636Z" fill="#8F2415" fill-opacity="0.4"/>
<path d="M303.235 83.8801L160.405 40.6384L207.42 40.4285L303.235 83.8801Z" fill="#8F2415" fill-opacity="0.4"/>
<path d="M245.695 40.6791L303.217 84.1078L207.667 40.448L245.695 40.6791Z" fill="#DB2C17" fill-opacity="0.4"/>
<path d="M269.546 40.9443L303.217 84.1075L245.924 40.9257L269.546 40.9443Z" fill="#8F2415" fill-opacity="0.4"/>
<path d="M288.455 40.8224L302.741 83.841L269.317 40.6972L288.455 40.8224Z" fill="#DB2C17" fill-opacity="0.4"/>
<path d="M304.362 40.924L302.741 83.8415L288.455 40.8229L304.362 40.924Z" fill="#8F2415" fill-opacity="0.4"/>
<path d="M304.362 40.924L302.741 83.8414L321.028 40.8556L304.362 40.924Z" fill="#DB2C17" fill-opacity="0.4"/>
<path d="M321.028 40.856L302.759 83.6143L340.907 41.0393L321.028 40.856Z" fill="#8F2415" fill-opacity="0.4"/>
<path d="M340.413 40.9998L302.759 83.6135L366.771 41.0038L340.413 40.9998Z" fill="#DB2C17" fill-opacity="0.4"/>
<path d="M366.524 40.985L302.759 83.6141L406.053 41.1047L366.524 40.985Z" fill="#8F2415" fill-opacity="0.4"/>
<path d="M405.806 41.0848L303.024 83.4054L442.863 41.0109L405.806 41.0848Z" fill="#DB2C17" fill-opacity="0.4"/>
<path d="M300.641 82.0741L425.468 120.228L384.385 120.23L300.641 82.0741Z" fill="#8F2415" fill-opacity="0.4"/>
<path d="M330.194 119.65L300.641 82.0749L350.911 119.679L330.194 119.65Z" fill="#8F2415" fill-opacity="0.4"/>
<path d="M313.698 119.73L301.136 82.113L330.507 119.846L313.698 119.73Z" fill="#DB2C17" fill-opacity="0.4"/>
<path d="M299.682 119.718L301.121 82.1117L285.254 119.792L299.682 119.718Z" fill="#DB2C17" fill-opacity="0.4"/>
<path d="M285.169 119.958L301.099 82.5682L267.845 119.803L285.169 119.958Z" fill="#8F2415" fill-opacity="0.4"/>
<path d="M268.363 119.872L301.1 82.5683L245.46 119.881L268.363 119.872Z" fill="#DB2C17" fill-opacity="0.4"/>
<path d="M245.59 119.595L301.1 82.5688L211.174 119.485L245.59 119.595Z" fill="#8F2415" fill-opacity="0.4"/>
<path d="M211.231 119.63L301.1 82.5675L178.831 119.698L211.231 119.63Z" fill="#DB2C17" fill-opacity="0.4"/>
<path d="M161.441 119.482L300.57 82.985L185.575 119.312L161.441 119.482Z" fill="#8F2415" fill-opacity="0.4"/>
<path d="M443.899 119.855L418.529 119.928L302.747 82.7967L443.899 119.855Z" fill="#DB2C17" fill-opacity="0.4"/>
<path d="M161.423 119.71L301.823 82.8542L161.17 103.892L161.423 119.71Z" fill="#DB2C17" fill-opacity="0.4"/>
<path d="M160.721 90.576L160.923 103.871L300.57 82.9841L160.721 90.576Z" fill="#8F2415" fill-opacity="0.4"/>
<path d="M301.559 83.0615L169.539 79.5896C170.439 83.8647 166.073 86.288 160.968 90.5953L301.559 83.0615Z" fill="#DB2C17" fill-opacity="0.4"/>
<path d="M301.806 83.0814L160.631 69.5051C165.533 73.448 167.862 75.6459 169.786 79.6096L301.806 83.0814Z" fill="#8F2415" fill-opacity="0.4"/>
<path d="M301.559 83.0621L160.536 54.8442L160.878 69.5245L301.559 83.0621Z" fill="#DB2C17" fill-opacity="0.4"/>
<path d="M160.518 55.0725L160.158 40.6199L301.047 83.2516L160.518 55.0725Z" fill="#DB2C17" fill-opacity="0.4"/>
<path d="M444.192 106.598L302.318 82.8926L444.376 120.121L444.192 106.598Z" fill="#8F2415" fill-opacity="0.4"/>
<path d="M443.656 91.2156L303.06 82.9507L443.909 107.034L443.656 91.2156Z" fill="#DB2C17" fill-opacity="0.4"/>
<path d="M444.289 70.4294C437.31 73.7637 435.277 75.8154 433.619 79.6679L304.807 82.8582L443.357 41.0496L443.203 58.8964L305.717 82.7771L444.289 70.4294Z" fill="#8F2415" fill-opacity="0.4"/>
<path d="M443.595 53.8909L304.542 83.0673L443.741 71.0743L443.595 53.8909Z" fill="#DB2C17" fill-opacity="0.4"/>
<path d="M170.492 66.6009L170.276 48.7246L434.182 49.1428L434.399 67.0191C426.181 77.3965 425.562 83.221 434.721 93.6257L434.942 111.918L171.035 111.5L170.814 93.2075C178.785 82.8296 179.986 77.0067 170.492 66.6009Z" stroke="url(#paint21_linear_5564_2712)" stroke-width="1.98327"/>
</g>
<path d="M212.555 88.701L212.379 72.0845L216.123 72.0953L216.189 78.4129L222.65 78.4317L222.584 72.1141L226.327 72.1249L226.502 88.7414L222.759 88.7305L222.686 81.8646L216.225 81.8459L216.298 88.7118L212.555 88.701ZM234.308 76.749C237.646 76.7587 239.667 78.5287 239.697 81.3179L239.776 88.7798L236.485 88.7703L236.235 87.6015C235.294 88.8622 234.033 89.0254 233.174 89.0229C230.528 89.0153 228.603 87.3648 228.578 84.957C228.564 83.5981 229.173 82.6224 230.169 82.077C230.903 81.6739 231.831 81.4859 232.88 81.4889L236.123 81.4983L236.121 81.3076C236.112 80.4732 235.39 79.8751 234.079 79.8713C233.197 79.8687 232.294 80.1284 231.255 81.1266L228.634 78.9496C230.095 77.4043 232.258 76.7431 234.308 76.749ZM233.716 86.14C235.003 86.1437 236.091 85.3125 236.151 84.1445L233.433 84.1366C233.051 84.1355 232.742 84.2062 232.529 84.3486C232.292 84.5148 232.176 84.7528 232.179 85.0389C232.185 85.6349 232.691 86.137 233.716 86.14ZM247.136 89.0634C243.036 89.0515 241.167 85.947 241.136 82.9432C241.103 79.844 242.978 76.7741 246.983 76.7858C249.462 76.7929 251.358 77.9666 252.266 80.377L248.895 81.726C248.716 80.6289 247.97 79.9116 247.016 79.9088C245.347 79.904 244.815 81.4281 244.831 82.9539C244.847 84.4558 245.363 85.9353 247.056 85.9402C247.986 85.9429 248.741 85.2538 248.945 84.2054L252.2 85.4784C251.437 87.6932 249.592 89.0705 247.136 89.0634ZM253.942 88.8209L253.766 72.2044L257.366 72.2149L257.459 80.9641L260.803 77.088L265.595 77.1019L261.351 81.5237L266.125 88.8562L261.857 88.8438L258.754 83.924L257.506 85.4222L257.542 88.8313L253.942 88.8209ZM274.735 89.3103C269.704 89.2957 266.33 85.8292 266.274 80.5606C266.218 75.2443 269.495 71.7732 274.478 71.7877C278.197 71.7985 280.959 73.7136 282.208 76.864L278.766 78.2129C278.102 76.3276 276.542 75.3696 274.516 75.3637C271.655 75.3554 269.982 77.21 270.017 80.5238C270.052 83.8375 271.812 85.7259 274.697 85.7343C276.771 85.7403 278.263 84.7672 278.815 82.8378L282.333 84.183C281.2 87.4934 278.43 89.321 274.735 89.3103ZM288.33 76.9056C291.667 76.9153 293.689 78.6852 293.718 81.4745L293.797 88.9364L290.507 88.9269L290.256 87.758C289.316 89.0188 288.054 89.182 287.195 89.1795C284.549 89.1718 282.624 87.5213 282.599 85.1135C282.585 83.7546 283.194 82.779 284.19 82.2336C284.925 81.8304 285.852 81.6424 286.901 81.6455L290.144 81.6548L290.142 81.4641C290.133 80.6297 289.411 80.0317 288.1 80.0279C287.218 80.0253 286.315 80.2849 285.276 81.2832L282.655 79.1062C284.117 77.5609 286.279 76.8996 288.33 76.9056ZM287.737 86.2965C289.025 86.3003 290.113 85.469 290.172 84.3011L287.454 84.2932C287.072 84.2921 286.763 84.3627 286.55 84.5051C286.314 84.6713 286.197 84.9094 286.2 85.1955C286.206 85.7915 286.712 86.2936 287.737 86.2965ZM309.92 76.9682C312.757 76.9764 314.116 79.2927 314.139 81.4145L314.219 88.9956L310.619 88.9852L310.55 82.5245C310.541 81.6424 310.334 80.0923 308.856 80.088C306.448 80.081 307.003 82.9672 307.026 85.1843L307.066 88.9749L303.49 88.9645L303.421 82.4323C303.418 82.1463 303.563 80.0727 301.823 80.0676C299.343 80.0604 299.874 82.9465 299.898 85.1636L299.938 88.9542L296.338 88.9438L296.19 77.1906L299.647 77.2006L299.663 78.7264C300.435 77.3221 301.671 76.9442 302.743 76.9474C303.935 76.9508 305.395 77.408 306.177 79.2936C307.182 77.3655 308.561 76.9642 309.92 76.9682ZM323.312 77.007C326.46 77.0161 328.133 79.7386 328.17 83.1954C328.212 87.2244 325.993 89.2919 323.442 89.2845C322.321 89.2813 321.101 88.8248 320.354 88.0836L320.415 93.8767L316.815 93.8663L316.64 77.2499L320.24 77.2603L320.249 78.1424C321.051 77.3103 322.287 77.004 323.312 77.007ZM322.408 86.1586C323.886 86.1629 324.615 85.1876 324.593 83.1374C324.572 81.111 323.823 80.1552 322.392 80.1511C320.485 80.1456 319.95 81.4552 319.968 83.124C319.985 84.7928 320.62 86.1534 322.408 86.1586ZM341.812 85.6904L347.796 85.7077L347.832 89.093L336.102 89.059L336.071 86.1982C338.417 84.7985 343.531 81.4043 343.493 77.8521C343.481 76.7078 342.946 75.7527 341.588 75.7488C339.776 75.7435 339.389 77.4827 339.307 78.7697L335.775 78.4734C335.745 75.565 337.784 72.2572 341.646 72.2684C344.746 72.2774 347.033 74.4534 347.068 77.7433C347.098 80.5803 344.94 83.8877 341.812 85.6904ZM356.317 89.356C350.762 89.3399 350.23 84.046 350.194 80.6846C350.161 77.5139 350.534 72.1988 356.136 72.2151C361.763 72.2314 362.225 77.5965 362.258 80.7196C362.293 84.081 361.872 89.3721 356.317 89.356ZM356.281 85.923C358.379 85.9291 358.616 83.522 358.587 80.8281C358.558 78.015 358.271 75.6779 356.173 75.6718C354.075 75.6658 353.837 78.0013 353.867 80.8144C353.895 83.5084 354.183 85.9169 356.281 85.923ZM370.627 85.7739L376.611 85.7912L376.646 89.1765L364.917 89.1425L364.886 86.2817C367.232 84.882 372.346 81.4878 372.308 77.9357C372.296 76.7913 371.761 75.8362 370.403 75.8323C368.591 75.827 368.204 77.5662 368.122 78.8533L364.59 78.5569C364.56 75.6485 366.599 72.3407 370.461 72.3519C373.561 72.3609 375.848 74.5369 375.883 77.8268C375.913 80.6638 373.755 83.9712 370.627 85.7739ZM389.201 81.8942L391.823 81.9018L391.86 85.3348L389.237 85.3272L389.278 89.2131L385.678 89.2027L385.637 85.3168L378.199 85.2952L378.176 83.1973L386.003 72.5877L389.103 72.5967L389.201 81.8942ZM382.645 81.8752L385.601 81.8838L385.557 77.7357L382.645 81.8752Z" fill="#FFECC5"/>
<path d="M185.774 99.8095L186.906 102.684L190.457 102.689L187.606 104.46L188.738 107.335L185.844 105.555L182.993 107.326L184.055 104.455L181.161 102.675L184.712 102.68L185.774 99.8095Z" fill="#FBB910"/>
<path d="M197.014 99.8271L198.146 102.701L201.697 102.707L198.846 104.478L199.978 107.352L197.084 105.572L194.233 107.343L195.295 104.472L192.401 102.692L195.952 102.698L197.014 99.8271Z" fill="#FBB910"/>
<path d="M208.255 99.8447L209.387 102.719L212.937 102.725L210.086 104.495L211.218 107.37L208.324 105.59L205.473 107.361L206.535 104.49L203.641 102.71L207.192 102.716L208.255 99.8447Z" fill="#FBB910"/>
<path d="M219.495 99.8622L220.627 102.737L224.178 102.742L221.327 104.513L222.459 107.387L219.565 105.607L216.714 107.378L217.776 104.507L214.882 102.727L218.433 102.733L219.495 99.8622Z" fill="#FBB910"/>
<path d="M230.736 99.8798L231.868 102.754L235.419 102.76L232.568 104.531L233.7 107.405L230.806 105.625L227.955 107.396L229.017 104.525L226.123 102.745L229.674 102.751L230.736 99.8798Z" fill="#FBB910"/>
<path d="M241.977 99.8984L243.109 102.773L246.659 102.778L243.808 104.549L244.94 107.424L242.046 105.644L239.195 107.414L240.258 104.544L237.363 102.764L240.914 102.769L241.977 99.8984Z" fill="#FBB910"/>
<path d="M253.217 99.9152L254.349 102.79L257.9 102.795L255.048 104.566L256.18 107.44L253.286 105.66L250.435 107.431L251.498 104.56L248.604 102.78L252.154 102.786L253.217 99.9152Z" fill="#FBB910"/>
<path d="M264.458 99.9335L265.59 102.808L269.141 102.813L266.289 104.584L267.421 107.459L264.527 105.679L261.676 107.45L262.739 104.579L259.845 102.799L263.395 102.804L264.458 99.9335Z" fill="#FBB910"/>
<path d="M275.698 99.9511L276.83 102.825L280.381 102.831L277.53 104.602L278.662 107.476L275.768 105.696L272.916 107.467L273.979 104.596L271.085 102.816L274.636 102.822L275.698 99.9511Z" fill="#FBB910"/>
<path d="M286.939 99.9697L288.071 102.844L291.622 102.85L288.771 104.62L289.903 107.495L287.008 105.715L284.157 107.486L285.22 104.615L282.326 102.835L285.876 102.841L286.939 99.9697Z" fill="#FBB910"/>
<path d="M298.179 99.9872L299.311 102.862L302.862 102.867L300.011 104.638L301.143 107.512L298.249 105.732L295.398 107.503L296.46 104.632L293.566 102.852L297.117 102.858L298.179 99.9872Z" fill="#FBB910"/>
<path d="M309.419 100.006L310.551 102.88L314.102 102.886L311.251 104.656L312.383 107.531L309.489 105.751L306.638 107.522L307.7 104.651L304.806 102.871L308.357 102.876L309.419 100.006Z" fill="#FBB910"/>
<path d="M320.66 100.022L321.792 102.897L325.343 102.902L322.492 104.673L323.624 107.548L320.73 105.768L317.879 107.538L318.941 104.668L316.047 102.888L319.598 102.893L320.66 100.022Z" fill="#FBB910"/>
<path d="M331.9 100.041L333.032 102.915L336.583 102.921L333.732 104.692L334.864 107.566L331.97 105.786L329.119 107.557L330.181 104.686L327.287 102.906L330.838 102.912L331.9 100.041Z" fill="#FBB910"/>
<path d="M343.141 100.059L344.273 102.933L347.823 102.938L344.972 104.709L346.104 107.584L343.21 105.804L340.359 107.575L341.422 104.704L338.527 102.924L342.078 102.929L343.141 100.059Z" fill="#FBB910"/>
<path d="M354.382 100.077L355.514 102.951L359.064 102.957L356.213 104.728L357.345 107.602L354.451 105.822L351.6 107.593L352.662 104.722L349.768 102.942L353.319 102.948L354.382 100.077Z" fill="#FBB910"/>
<path d="M365.621 100.094L366.753 102.968L370.304 102.974L367.453 104.744L368.585 107.619L365.691 105.839L362.84 107.61L363.902 104.739L361.008 102.959L364.559 102.965L365.621 100.094Z" fill="#FBB910"/>
<path d="M376.862 100.111L377.994 102.986L381.545 102.991L378.694 104.762L379.826 107.636L376.932 105.856L374.081 107.627L375.143 104.756L372.249 102.977L375.8 102.982L376.862 100.111Z" fill="#FBB910"/>
<path d="M388.103 100.13L389.235 103.004L392.785 103.01L389.934 104.781L391.066 107.655L388.172 105.875L385.321 107.646L386.383 104.775L383.489 102.995L387.04 103.001L388.103 100.13Z" fill="#FBB910"/>
<path d="M399.344 100.147L400.476 103.022L404.026 103.027L401.175 104.798L402.307 107.673L399.413 105.893L396.562 107.663L397.624 104.793L394.73 103.013L398.281 103.018L399.344 100.147Z" fill="#FBB910"/>
<path d="M410.584 100.165L411.716 103.039L415.267 103.045L412.416 104.816L413.548 107.69L410.654 105.91L407.802 107.681L408.865 104.81L405.971 103.03L409.522 103.036L410.584 100.165Z" fill="#FBB910"/>
<path d="M421.824 100.184L422.956 103.058L426.507 103.063L423.656 104.834L424.788 107.709L421.894 105.929L419.043 107.7L420.105 104.829L417.211 103.049L420.762 103.054L421.824 100.184Z" fill="#FBB910"/>
<path d="M184.503 52.5436L185.635 55.418L189.186 55.4236L186.335 57.1944L187.467 60.0688L184.573 58.2889L181.722 60.0597L182.784 57.1888L179.89 55.4089L183.441 55.4145L184.503 52.5436Z" fill="#FBB910"/>
<path d="M195.744 52.5612L196.876 55.4356L200.427 55.4412L197.576 57.212L198.708 60.0864L195.814 58.3064L192.963 60.0772L194.025 57.2064L191.131 55.4265L194.682 55.4321L195.744 52.5612Z" fill="#FBB910"/>
<path d="M206.984 52.5788L208.116 55.4531L211.666 55.4588L208.815 57.2296L209.947 60.1039L207.053 58.324L204.202 60.0948L205.264 57.224L202.37 55.444L205.921 55.4497L206.984 52.5788Z" fill="#FBB910"/>
<path d="M218.225 52.5964L219.356 55.4707L222.907 55.4763L220.056 57.2472L221.188 60.1215L218.294 58.3416L215.443 60.1124L216.505 57.2415L213.611 55.4616L217.162 55.4672L218.225 52.5964Z" fill="#FBB910"/>
<path d="M229.466 52.6139L230.598 55.4883L234.148 55.4939L231.297 57.2647L232.429 60.1391L229.535 58.3592L226.684 60.13L227.746 57.2591L224.852 55.4792L228.403 55.4848L229.466 52.6139Z" fill="#FBB910"/>
<path d="M240.706 52.6325L241.838 55.5068L245.388 55.5125L242.537 57.2833L243.669 60.1576L240.775 58.3777L237.924 60.1485L238.987 57.2777L236.092 55.4977L239.643 55.5034L240.706 52.6325Z" fill="#FBB910"/>
<path d="M251.947 52.6493L253.079 55.5237L256.629 55.5293L253.778 57.3001L254.91 60.1745L252.016 58.3946L249.165 60.1654L250.228 57.2945L247.333 55.5146L250.884 55.5202L251.947 52.6493Z" fill="#FBB910"/>
<path d="M263.187 52.6677L264.319 55.542L267.87 55.5476L265.018 57.3184L266.15 60.1928L263.256 58.4129L260.405 60.1837L261.468 57.3128L258.574 55.5329L262.124 55.5385L263.187 52.6677Z" fill="#FBB910"/>
<path d="M274.427 52.6852L275.559 55.5596L279.11 55.5652L276.259 57.336L277.391 60.2104L274.497 58.4305L271.645 60.2013L272.708 57.3304L269.814 55.5505L273.365 55.5561L274.427 52.6852Z" fill="#FBB910"/>
<path d="M285.668 52.7038L286.8 55.5781L290.351 55.5838L287.5 57.3546L288.632 60.2289L285.737 58.449L282.886 60.2198L283.949 57.349L281.055 55.569L284.606 55.5747L285.668 52.7038Z" fill="#FBB910"/>
<path d="M296.908 52.7214L298.04 55.5957L301.591 55.6013L298.74 57.3722L299.872 60.2465L296.978 58.4666L294.127 60.2374L295.189 57.3665L292.295 55.5866L295.846 55.5922L296.908 52.7214Z" fill="#FBB910"/>
<path d="M308.149 52.7397L309.281 55.614L312.832 55.6197L309.981 57.3905L311.113 60.2648L308.219 58.4849L305.368 60.2557L306.43 57.3848L303.536 55.6049L307.087 55.6105L308.149 52.7397Z" fill="#FBB910"/>
<path d="M319.389 52.7565L320.521 55.6309L324.072 55.6365L321.221 57.4073L322.353 60.2817L319.459 58.5017L316.608 60.2726L317.67 57.4017L314.776 55.6218L318.327 55.6274L319.389 52.7565Z" fill="#FBB910"/>
<path d="M330.629 52.7751L331.761 55.6494L335.312 55.6551L332.461 57.4259L333.593 60.3002L330.699 58.5203L327.848 60.2911L328.91 57.4202L326.016 55.6403L329.567 55.6459L330.629 52.7751Z" fill="#FBB910"/>
<path d="M341.87 52.7927L343.002 55.667L346.553 55.6726L343.702 57.4434L344.834 60.3178L341.94 58.5379L339.089 60.3087L340.151 57.4378L337.257 55.6579L340.808 55.6635L341.87 52.7927Z" fill="#FBB910"/>
<path d="M353.111 52.811L354.243 55.6853L357.793 55.6909L354.942 57.4618L356.074 60.3361L353.18 58.5562L350.329 60.327L351.391 57.4561L348.497 55.6762L352.048 55.6818L353.111 52.811Z" fill="#FBB910"/>
<path d="M364.35 52.8278L365.482 55.7022L369.033 55.7078L366.182 57.4786L367.314 60.353L364.42 58.573L361.569 60.3439L362.631 57.473L359.737 55.6931L363.288 55.6987L364.35 52.8278Z" fill="#FBB910"/>
<path d="M375.591 52.8454L376.723 55.7197L380.274 55.7254L377.423 57.4962L378.555 60.3705L375.661 58.5906L372.81 60.3614L373.872 57.4906L370.978 55.7106L374.529 55.7163L375.591 52.8454Z" fill="#FBB910"/>
<path d="M386.832 52.8639L387.964 55.7383L391.514 55.7439L388.663 57.5147L389.795 60.3891L386.901 58.6092L384.05 60.38L385.112 57.5091L382.218 55.7292L385.769 55.7348L386.832 52.8639Z" fill="#FBB910"/>
<path d="M398.073 52.8815L399.205 55.7559L402.755 55.7615L399.904 57.5323L401.036 60.4067L398.142 58.6267L395.291 60.3976L396.353 57.5267L393.459 55.7468L397.01 55.7524L398.073 52.8815Z" fill="#FBB910"/>
<path d="M409.313 52.8991L410.445 55.7734L413.996 55.7791L411.145 57.5499L412.277 60.4242L409.383 58.6443L406.531 60.4151L407.594 57.5443L404.7 55.7643L408.251 55.77L409.313 52.8991Z" fill="#FBB910"/>
<path d="M420.553 52.9177L421.685 55.792L425.236 55.7976L422.385 57.5684L423.517 60.4428L420.623 58.6629L417.772 60.4337L418.834 57.5628L415.94 55.7829L419.491 55.7885L420.553 52.9177Z" fill="#FBB910"/>
<g filter="url(#filter2_d_5564_2712)">
<path d="M140.519 95.1676C141.686 96.3323 140.861 98.3262 139.212 98.3262H61.8533C60.2047 98.3262 59.3798 96.3323 60.5466 95.1676L93.6696 62.1031C94.3952 61.3788 95.5714 61.3829 96.292 62.1121L99.1917 65.0468C99.9127 65.7765 101.09 65.78 101.815 65.0546L104.773 62.0964C105.495 61.3746 106.666 61.374 107.388 62.0953L140.519 95.1676Z" fill="#FF9D66"/>
<path d="M84.9111 98.3253L100.76 82.4766L116.704 98.3253H84.9111Z" fill="#DB693B"/>
<path d="M120.828 54.0122C122.445 54.9721 121.764 57.4523 119.883 57.4523H101.773C100.752 57.4523 99.9238 56.6242 99.9238 55.6027V44.8525C99.9238 43.4186 101.485 42.5301 102.718 43.2619L120.828 54.0122Z" fill="#DB693B"/>
</g>
</g>
<defs>
<filter id="filter0_f_5564_2712" x="-253.503" y="452.011" width="1250.21" height="189.177" filterUnits="userSpaceOnUse" color-interpolation-filters="sRGB">
<feFlood flood-opacity="0" result="BackgroundImageFix"/>
<feBlend mode="normal" in="SourceGraphic" in2="BackgroundImageFix" result="shape"/>
<feGaussianBlur stdDeviation="1.71979" result="effect1_foregroundBlur_5564_2712"/>
</filter>
<filter id="filter1_d_5564_2712" x="159.709" y="40.4046" width="289.374" height="84.9751" filterUnits="userSpaceOnUse" color-interpolation-filters="sRGB">
<feFlood flood-opacity="0" result="BackgroundImageFix"/>
<feColorMatrix in="SourceAlpha" type="matrix" values="0 0 0 0 0 0 0 0 0 0 0 0 0 0 0 0 0 0 127 0" result="hardAlpha"/>
<feOffset dx="2.12869" dy="2.55442"/>
<feGaussianBlur stdDeviation="1.28913"/>
<feComposite in2="hardAlpha" operator="out"/>
<feColorMatrix type="matrix" values="0 0 0 0 0 0 0 0 0 0 0 0 0 0 0 0 0 0 0.25 0"/>
<feBlend mode="normal" in2="BackgroundImageFix" result="effect1_dropShadow_5564_2712"/>
<feBlend mode="normal" in="SourceGraphic" in2="effect1_dropShadow_5564_2712" result="shape"/>
</filter>
<filter id="filter2_d_5564_2712" x="44" y="27" width="113.065" height="87.3262" filterUnits="userSpaceOnUse" color-interpolation-filters="sRGB">
<feFlood flood-opacity="0" result="BackgroundImageFix"/>
<feColorMatrix in="SourceAlpha" type="matrix" values="0 0 0 0 0 0 0 0 0 0 0 0 0 0 0 0 0 0 127 0" result="hardAlpha"/>
<feOffset/>
<feGaussianBlur stdDeviation="8"/>
<feComposite in2="hardAlpha" operator="out"/>
<feColorMatrix type="matrix" values="0 0 0 0 0.137255 0 0 0 0 0.294118 0 0 0 0 0.360784 0 0 0 0.4 0"/>
<feBlend mode="normal" in2="BackgroundImageFix" result="effect1_dropShadow_5564_2712"/>
<feBlend mode="normal" in="SourceGraphic" in2="effect1_dropShadow_5564_2712" result="shape"/>
</filter>
<linearGradient id="paint0_linear_5564_2712" x1="237.5" y1="0" x2="237.5" y2="633.333" gradientUnits="userSpaceOnUse">
<stop stop-color="#00A3E0"/>
<stop offset="1" stop-color="#DAF5FF"/>
</linearGradient>
<linearGradient id="paint1_linear_5564_2712" x1="232.681" y1="630.049" x2="256.047" y2="630.049" gradientUnits="userSpaceOnUse">
<stop offset="0.085" stop-color="#65114D"/>
<stop offset="1" stop-color="#960B36"/>
</linearGradient>
<linearGradient id="paint2_linear_5564_2712" x1="7.08946" y1="668.285" x2="30.4558" y2="668.285" gradientUnits="userSpaceOnUse">
<stop offset="0.085" stop-color="#65114D"/>
<stop offset="1" stop-color="#960B36"/>
</linearGradient>
<linearGradient id="paint3_linear_5564_2712" x1="276.015" y1="599.54" x2="482.277" y2="342.934" gradientUnits="userSpaceOnUse">
<stop stop-color="#DD313A"/>
<stop offset="1" stop-color="#AF1119"/>
</linearGradient>
<linearGradient id="paint4_linear_5564_2712" x1="439.164" y1="447.086" x2="478.714" y2="424.333" gradientUnits="userSpaceOnUse">
<stop stop-color="#0072CF"/>
<stop offset="1" stop-color="#00569C"/>
</linearGradient>
<linearGradient id="paint5_linear_5564_2712" x1="453.85" y1="382.711" x2="453.85" y2="427.161" gradientUnits="userSpaceOnUse">
<stop offset="0.395" stop-color="#F1F1F1"/>
<stop offset="1" stop-color="#B1B1B1"/>
</linearGradient>
<linearGradient id="paint6_linear_5564_2712" x1="456.764" y1="401.682" x2="463.277" y2="405.896" gradientUnits="userSpaceOnUse">
<stop stop-color="#F5F5F5"/>
<stop offset="1" stop-color="#D0D0D0"/>
</linearGradient>
<linearGradient id="paint7_linear_5564_2712" x1="363.338" y1="398.482" x2="363.338" y2="445.554" gradientUnits="userSpaceOnUse">
<stop offset="0.42" stop-color="#F2F2F2"/>
<stop offset="0.935" stop-color="#C6C6C6"/>
</linearGradient>
<linearGradient id="paint8_linear_5564_2712" x1="429.846" y1="403.142" x2="429.846" y2="450.219" gradientUnits="userSpaceOnUse">
<stop offset="0.395" stop-color="#F1F1F1"/>
<stop offset="1" stop-color="#B1B1B1"/>
</linearGradient>
<linearGradient id="paint9_linear_5564_2712" x1="432.932" y1="423.233" x2="439.831" y2="427.697" gradientUnits="userSpaceOnUse">
<stop stop-color="#F5F5F5"/>
<stop offset="1" stop-color="#D0D0D0"/>
</linearGradient>
<linearGradient id="paint10_linear_5564_2712" x1="387.546" y1="483.834" x2="414.736" y2="449.634" gradientUnits="userSpaceOnUse">
<stop stop-color="#0076D6"/>
<stop offset="1" stop-color="#00569C"/>
</linearGradient>
<linearGradient id="paint11_linear_5564_2712" x1="333.803" y1="420.32" x2="333.803" y2="469.602" gradientUnits="userSpaceOnUse">
<stop offset="0.42" stop-color="#F2F2F2"/>
<stop offset="0.935" stop-color="#C6C6C6"/>
</linearGradient>
<linearGradient id="paint12_linear_5564_2712" x1="338.476" y1="455.369" x2="335.927" y2="497.216" gradientUnits="userSpaceOnUse">
<stop stop-color="#F3F3F3"/>
<stop offset="0.425" stop-color="white"/>
<stop offset="0.575184" stop-color="white"/>
<stop offset="1" stop-color="#D6D6D6"/>
</linearGradient>
<linearGradient id="paint13_linear_5564_2712" x1="403.858" y1="425.625" x2="403.858" y2="474.912" gradientUnits="userSpaceOnUse">
<stop offset="0.395" stop-color="#F1F1F1"/>
<stop offset="1" stop-color="#B1B1B1"/>
</linearGradient>
<linearGradient id="paint14_linear_5564_2712" x1="407.089" y1="446.66" x2="414.311" y2="451.333" gradientUnits="userSpaceOnUse">
<stop stop-color="#F5F5F5"/>
<stop offset="1" stop-color="#D0D0D0"/>
</linearGradient>
<linearGradient id="paint15_linear_5564_2712" x1="491.632" y1="366.79" x2="293.868" y2="503.59" gradientUnits="userSpaceOnUse">
<stop stop-color="#ACD7FB"/>
<stop offset="1" stop-color="white"/>
</linearGradient>
<linearGradient id="paint16_linear_5564_2712" x1="478.383" y1="74.5861" x2="461.72" y2="172.501" gradientUnits="userSpaceOnUse">
<stop stop-color="#FCFCFC" stop-opacity="0"/>
<stop offset="1" stop-color="#FCFCFC"/>
</linearGradient>
<linearGradient id="paint17_linear_5564_2712" x1="340.049" y1="52.9314" x2="346.735" y2="-32.6586" gradientUnits="userSpaceOnUse">
<stop stop-color="#FCFCFC"/>
<stop offset="1" stop-color="#FCFCFC" stop-opacity="0"/>
</linearGradient>
<linearGradient id="paint18_linear_5564_2712" x1="29.9129" y1="82.9024" x2="2.85708" y2="147.16" gradientUnits="userSpaceOnUse">
<stop stop-color="#FCFCFC" stop-opacity="0"/>
<stop offset="1" stop-color="#FCFCFC"/>
</linearGradient>
<linearGradient id="paint19_linear_5564_2712" x1="134.783" y1="90.3547" x2="105.462" y2="18.4068" gradientUnits="userSpaceOnUse">
<stop stop-color="#FCFCFC" stop-opacity="0"/>
<stop offset="1" stop-color="#FCFCFC"/>
</linearGradient>
<linearGradient id="paint20_linear_5564_2712" x1="160.639" y1="80.2002" x2="443.803" y2="76.7742" gradientUnits="userSpaceOnUse">
<stop stop-color="#E62813"/>
<stop offset="0.805" stop-color="#8F2115"/>
</linearGradient>
<linearGradient id="paint21_linear_5564_2712" x1="170.656" y1="80.1121" x2="434.519" y2="76.9196" gradientUnits="userSpaceOnUse">
<stop stop-color="#D5910F"/>
<stop offset="1" stop-color="#DB6F03"/>
</linearGradient>
<clipPath id="clip0_5564_2712">
<rect width="475" height="633.333" rx="34.49" fill="white"/>
</clipPath>
</defs>
</svg>
