<svg width="1440" height="900" viewBox="0 0 1440 900" fill="none" xmlns="http://www.w3.org/2000/svg">
<rect width="1440" height="900" fill="url(#paint0_linear_5623_18443)"/>
<path fill-rule="evenodd" clip-rule="evenodd" d="M547.773 78.7222C548.825 77.3851 549.453 75.6992 549.453 73.867C549.453 69.5223 545.925 66.0002 541.573 66.0002C537.221 66.0002 533.693 69.5223 533.693 73.867C533.693 75.6992 534.321 77.3851 535.373 78.7222H534.886H526.537H518.188H511.697C508.325 84.73 497.985 98.866 483.599 107.348H498.31H502.683V132.397C451.654 139.982 405.401 162.204 368.331 194.656C354.76 186.104 345.044 172.772 341.796 166.984H336.498H327.751H319.799H318.637L317.773 166.12C318.464 164.95 318.86 163.585 318.86 162.129C318.86 157.784 315.333 154.262 310.981 154.262C306.629 154.262 303.101 157.784 303.101 162.129C303.101 163.961 303.728 165.647 304.78 166.984H304.294H295.945H287.596H281.105C277.733 172.992 267.393 187.128 253.007 195.609H267.717H272.091V236.163H276.067V195.609H283.62H295.945H311.053H327.751H340.076H341.64L347.63 201.599V214.88C341.411 221.657 335.542 228.761 330.053 236.163H323.776V245L323.775 245.001V240.022C314.322 247.186 305.508 243.722 299.921 238.888V236.163H264.139L280.978 266.379H299.921V266.378H310.684C290.391 303.358 278.719 345.74 278.371 390.817H221.377C220.274 387.802 217.376 385.649 213.974 385.649C209.622 385.649 206.094 389.171 206.094 393.516C206.094 395.348 206.721 397.034 207.773 398.371H207.287H198.938H190.589H184.098C180.726 404.379 170.386 418.515 156 426.996H170.71H175.084V467.55H179.06V426.996H186.613H198.938H214.046H230.744H243.069H250.623V467.55H254.598V426.996H257.978H272.887C258.501 418.515 248.161 404.379 244.789 398.371H239.49H230.744H222.792H220.174C220.976 397.351 221.532 396.128 221.75 394.793H278.369C278.872 466.008 307.64 530.506 354.014 577.625L314.002 617.637C313.071 617.251 312.051 617.038 310.981 617.038C306.629 617.038 303.101 620.56 303.101 624.905C303.101 626.737 303.728 628.423 304.78 629.76H304.294H295.945H287.596H281.105C277.733 635.768 267.393 649.904 253.007 658.385H267.717H272.091V698.938H264.139L280.978 729.153H299.921V698.938H276.067V658.385H283.62H295.945H311.053H327.751H340.076H347.63V698.938H323.775L323.775 702.798C314.322 709.962 305.507 706.498 299.921 701.663V729.154L323.775 729.153H343.841L359.557 698.938H351.606V658.385H354.985H369.894C355.508 649.904 345.168 635.768 341.796 629.76H336.498H327.751H319.799H317.181C318.233 628.423 318.86 626.737 318.86 624.905C318.86 623.08 318.238 621.401 317.194 620.066L356.824 580.437C385.766 608.975 421.281 630.864 460.893 643.626L387.802 933.998H694.643L622.625 643.61C662.177 630.859 697.642 609.008 726.556 580.525L766.017 619.986C764.934 621.333 764.286 623.044 764.286 624.905C764.286 626.738 764.914 628.423 765.966 629.761H765.479H757.13H748.781H742.29C738.918 635.768 728.578 649.904 714.192 658.386H728.903H733.276V698.938H725.325L742.163 729.153H761.106V698.938H737.252V658.386H744.806H757.13H772.238H788.936H801.261H808.815V698.938H784.961V702.798C775.508 709.962 766.693 706.498 761.107 701.663V729.154H784.961L805.027 729.153L820.743 698.938H812.791V658.386H816.17H831.079C816.693 649.904 806.353 635.768 802.981 629.761H797.683H788.936H780.985H778.366C779.418 628.423 780.046 626.738 780.046 624.905C780.046 620.561 776.518 617.039 772.166 617.039C771.135 617.039 770.151 617.236 769.249 617.595L729.367 577.714C775.792 530.587 804.596 466.053 805.099 394.793H859.808C860.026 396.128 860.581 397.351 861.384 398.371H860.897H852.548H844.199H837.708C834.336 404.379 823.997 418.515 809.61 426.996H824.321H828.694V467.55H832.67V426.996H840.224H852.548H867.656H884.354H896.679H904.233V467.55H908.209V426.996H911.588H926.497C912.111 418.515 901.771 404.379 898.399 398.371H893.101H884.354H876.403H873.784C874.836 397.034 875.464 395.348 875.464 393.516C875.464 389.171 871.936 385.649 867.584 385.649C864.182 385.649 861.284 387.802 860.18 390.817H805.098C804.75 345.739 793.077 303.358 772.785 266.378H784.961V266.379H805.027L820.743 236.163H784.961V240.022C775.508 247.186 766.693 243.722 761.107 238.887V247.102L761.106 247.101V236.163H753.416C748.344 229.324 742.948 222.74 737.252 216.432V200.009L741.652 195.609H744.806H757.13H772.238H788.936H801.261H808.815V236.163H812.791V195.609H816.17H831.079C816.693 187.128 806.353 172.992 802.981 166.984H797.683H788.936H780.985H778.366C779.418 165.647 780.046 163.961 780.046 162.129C780.046 157.784 776.518 154.262 772.166 154.262C767.814 154.262 764.286 157.784 764.286 162.129C764.286 163.623 764.704 165.02 765.428 166.21L764.654 166.984H757.13H748.781H742.29C739.013 172.823 729.154 186.34 715.395 194.882C678.623 162.607 632.786 140.411 582.198 132.611V107.348H585.577H600.486C586.1 98.866 575.76 84.73 572.388 78.7222H567.09H558.343H550.392H547.773ZM354.985 195.609H367.249C363.718 198.734 360.272 201.953 356.914 205.261L351.606 199.952V195.609H354.985ZM347.262 195.609H347.63V195.977L347.262 195.609ZM321.632 266.378C300.5 303.062 288.276 345.527 287.913 390.817H371.561C372.287 386.389 376.131 383.011 380.764 383.011C380.804 383.011 380.844 383.011 380.884 383.011C382.906 345.938 397.544 312.222 420.579 286.084C419 284.413 418.032 282.159 418.032 279.679C418.032 277.524 418.763 275.54 419.991 273.96L360.85 214.819C357.682 218.037 354.599 221.338 351.606 224.72V236.163H347.63V229.321C345.734 231.569 343.876 233.85 342.058 236.163H359.557L343.841 266.379H323.776V262.726L323.775 262.728V266.378H321.632ZM351.606 210.641V205.575L354.103 208.072C353.264 208.923 352.432 209.779 351.606 210.641ZM660.235 271.403L719.718 211.92C683.007 175.811 635.359 150.787 582.198 142.271V147.9H590.149L574.434 178.115H554.368V178.116H543.634V222.904C547.721 223.894 550.757 227.577 550.757 231.969C550.757 232 550.757 232.032 550.757 232.063L550.756 232.112C588.427 234.445 622.571 249.807 648.735 273.747C650.446 271.674 653.034 270.353 655.932 270.353C657.484 270.353 658.948 270.732 660.235 271.403ZM539.658 178.116V222.811C535.355 223.639 532.105 227.425 532.105 231.969L532.105 232.029C494.347 234.03 460.059 249.115 433.694 272.834C432.03 271.294 429.804 270.353 427.359 270.353C425.807 270.353 424.343 270.732 423.056 271.403L363.661 212.008C400.709 175.532 448.91 150.352 502.683 142.049V147.9H494.732L511.57 178.115H530.513V147.9H506.659V141.467C517.457 139.975 528.471 139.161 539.658 139.072V155.449C536.123 154.656 532.999 152.776 530.514 150.625V178.116H539.658ZM543.634 155.845C547.006 155.76 550.637 154.588 554.367 151.761V147.9H578.222V141.666C566.916 140.039 555.37 139.156 543.634 139.07V155.845ZM578.222 132.029C566.907 130.461 555.361 129.611 543.634 129.528V107.348H558.343H570.668H578.222V132.029ZM514.213 107.348H506.659V131.837C517.465 130.399 528.479 129.616 539.658 129.53V107.348H526.537H514.213ZM661.672 287.031C663.855 285.324 665.258 282.665 665.258 279.679C665.258 277.524 664.527 275.54 663.3 273.961L722.531 214.73C726.231 218.484 729.814 222.353 733.276 226.33V236.163H737.252V231.011C738.66 232.71 740.047 234.427 741.411 236.163H725.325L742.163 266.379H761.106V265.118L761.107 265.119V266.378H761.837C782.969 303.062 795.193 345.527 795.556 390.817H709.863C709.137 386.389 705.293 383.011 700.66 383.011C700.62 383.011 700.579 383.011 700.539 383.011C698.541 346.384 684.229 313.034 661.672 287.031ZM726.466 205.173C723.136 201.896 719.72 198.707 716.22 195.609H728.903H733.276V198.362L726.466 205.173ZM733.276 212.126V203.985L729.278 207.983C730.626 209.349 731.959 210.731 733.276 212.126ZM694.29 385.524C692.784 348.434 678.134 314.73 654.873 288.946C653.129 288.749 651.53 288.071 650.213 287.047L604.345 332.916C605.583 334.526 606.319 336.542 606.319 338.73C606.319 340.862 605.62 342.83 604.44 344.419C612.78 355.46 618.26 368.781 619.78 383.281C619.977 383.269 620.175 383.262 620.375 383.262C624.965 383.262 628.799 386.5 629.718 390.817H691.457C691.797 388.743 692.821 386.899 694.29 385.524ZM601.45 347.058C609.391 357.661 614.563 370.458 615.894 384.377C613.442 385.681 611.627 388.023 611.032 390.817H573.414C573.059 383.44 570.253 376.714 565.803 371.458L590.952 346.309C592.562 347.547 594.579 348.282 596.767 348.282C598.468 348.282 600.066 347.837 601.45 347.058ZM573.366 394.793H611.028C611.597 397.491 613.304 399.77 615.624 401.102C613.859 414.823 608.35 427.372 600.154 437.69C599.101 437.291 597.96 437.072 596.767 437.072C594.514 437.072 592.443 437.852 590.81 439.157L565.69 414.036L565.584 413.612C569.999 408.507 572.846 401.977 573.366 394.793ZM606.319 446.624C606.319 448.877 605.539 450.948 604.234 452.581L649.553 497.9C650.821 496.71 652.421 495.872 654.199 495.538C677.662 469.866 692.531 436.207 694.251 399.113C693.027 397.954 692.116 396.467 691.66 394.793H629.722C628.811 399.119 624.972 402.366 620.375 402.366C620.071 402.366 619.769 402.352 619.472 402.324C617.535 416.369 611.87 429.223 603.509 439.858C605.244 441.587 606.319 443.98 606.319 446.624ZM596.767 456.176C594.105 456.176 591.697 455.087 589.965 453.331C586.06 456.368 581.859 459.044 577.413 461.307L595.792 535.415C614.903 528.077 632.176 517.032 646.732 503.162C646.843 502.494 647.025 501.851 647.27 501.239L601.146 455.115C599.834 455.793 598.345 456.176 596.767 456.176ZM587.215 446.624C587.215 445.046 587.598 443.557 588.276 442.245L567.544 421.513L576.429 457.34C580.456 455.226 584.266 452.753 587.815 449.965C587.427 448.925 587.215 447.799 587.215 446.624ZM550.754 317.78C565.001 319.459 578.013 325.172 588.619 333.744C587.728 335.195 587.215 336.903 587.215 338.73C587.215 340.376 587.631 341.924 588.363 343.275L563.051 368.588C557.858 363.801 551.094 360.732 543.634 360.266V324.212C547.003 323.502 549.718 321.017 550.754 317.78ZM551.15 313.823C566.301 315.594 580.129 321.694 591.365 330.852C592.901 329.796 594.762 329.179 596.767 329.179C598.412 329.179 599.96 329.595 601.311 330.327L647.656 283.983C647.103 282.922 646.748 281.743 646.64 280.492C620.764 255.874 586.319 240.18 548.238 238.344C547.017 239.647 545.427 240.6 543.634 241.034L543.634 305.519C547.628 306.36 550.703 309.698 551.15 313.823ZM597.335 541.636C616.367 534.436 633.668 523.713 648.442 510.262C650.142 512.548 652.864 514.03 655.932 514.03C657.156 514.03 658.325 513.794 659.396 513.365L719.809 573.778C692.105 601.054 658.165 622.013 620.322 634.323L597.335 541.636ZM722.62 570.967L662.735 511.082C664.3 509.414 665.258 507.171 665.258 504.703C665.258 501.566 663.709 498.79 661.333 497.099C683.894 471.26 698.287 438.106 700.486 401.662C700.544 401.663 700.602 401.663 700.66 401.663C704.961 401.663 708.582 398.752 709.66 394.793H795.557C795.054 463.418 767.318 525.567 722.62 570.967ZM539.658 305.523L539.658 241.127C537.661 240.743 535.891 239.722 534.568 238.284C496.844 239.767 462.614 254.845 436.64 278.754C436.67 279.059 436.685 279.367 436.685 279.679C436.685 281.231 436.306 282.695 435.635 283.982L481.714 330.061C482.935 329.495 484.295 329.179 485.729 329.179C488.071 329.179 490.216 330.021 491.878 331.42C503.081 322.075 516.937 315.803 532.151 313.899C532.569 309.745 535.648 306.376 539.658 305.523ZM478.818 345.324C477.182 343.609 476.177 341.287 476.177 338.73C476.177 336.339 477.056 334.153 478.508 332.478L433.078 287.047C431.498 288.275 429.514 289.006 427.359 289.006C427.079 289.006 426.802 288.993 426.529 288.969C403.28 314.75 388.639 348.444 387.133 385.523C388.603 386.898 389.627 388.742 389.968 390.817H453.57C454.488 386.5 458.322 383.262 462.912 383.262C463.33 383.262 463.741 383.289 464.145 383.341C465.615 369.212 470.846 356.2 478.818 345.324ZM468.004 384.731C469.26 370.899 474.309 358.163 482.102 347.569C483.22 348.029 484.445 348.282 485.729 348.282C488.12 348.282 490.307 347.404 491.982 345.951L517.489 371.458C513.038 376.714 510.232 383.44 509.878 390.817H472.255C471.711 388.261 470.145 386.083 468.004 384.731ZM472.259 394.793H509.926C510.451 402.057 513.357 408.653 517.856 413.782L492.116 439.522C490.424 437.999 488.185 437.072 485.729 437.072C484.961 437.072 484.213 437.163 483.497 437.335C475.382 426.99 469.953 414.438 468.261 400.729C470.275 399.366 471.741 397.254 472.259 394.793ZM479.838 439.105C471.781 428.598 466.33 415.989 464.448 402.243C463.948 402.324 463.435 402.366 462.912 402.366C458.315 402.366 454.477 399.119 453.566 394.793H389.764C389.308 396.468 388.397 397.955 387.172 399.114C388.889 436.14 403.707 469.744 427.096 495.398C427.304 495.384 427.513 495.377 427.724 495.377C430.099 495.377 432.266 496.264 433.913 497.726L478.627 453.011C477.104 451.319 476.177 449.08 476.177 446.624C476.177 443.572 477.609 440.853 479.838 439.105ZM494.971 449.047C498.914 452.272 503.194 455.1 507.751 457.47L517.157 420.104L494.477 442.784C494.994 443.959 495.281 445.258 495.281 446.624C495.281 447.461 495.173 448.273 494.971 449.047ZM493.126 452.668C491.375 454.809 488.712 456.176 485.729 456.176C484.363 456.176 483.064 455.889 481.888 455.372L436.279 500.982C436.775 502.122 437.051 503.381 437.051 504.703C437.051 504.919 437.043 505.132 437.029 505.344C451.673 518.732 468.917 529.323 487.916 536.271L506.755 461.427C501.9 458.977 497.336 456.035 493.126 452.668ZM494.399 342.746L520.241 368.588C525.434 363.801 532.198 360.732 539.658 360.266V324.208C536.322 323.499 533.631 321.048 532.579 317.853C518.121 319.676 504.958 325.656 494.324 334.557C494.937 335.818 495.281 337.234 495.281 338.73C495.281 340.165 494.965 341.525 494.399 342.746ZM287.911 394.793H371.765C372.843 398.752 376.464 401.663 380.764 401.663C380.822 401.663 380.88 401.663 380.937 401.662C383.168 438.62 397.938 472.195 421.05 498.189C419.409 499.87 418.398 502.169 418.398 504.703C418.398 507.078 419.285 509.245 420.747 510.892L360.761 570.877C316.114 525.485 288.414 463.373 287.911 394.793ZM424.003 513.258L363.571 573.69C391.311 601.028 425.312 622.03 463.228 634.35L486.355 542.474C466.966 535.474 449.316 524.837 434.229 511.387C432.549 513.022 430.255 514.03 427.724 514.03C426.402 514.03 425.143 513.754 424.003 513.258ZM820.743 467.55L837.581 497.766H856.524L856.524 497.765H880.378L880.378 497.766H900.444L916.16 467.55H880.378L880.378 471.409C870.925 478.574 862.11 475.109 856.524 470.274L856.524 467.55H820.743ZM167.133 467.55L183.971 497.766H202.914V497.765H226.767V471.409C217.315 478.573 208.5 475.11 202.914 470.275V467.55H167.133ZM226.768 467.55V497.766H246.834L262.55 467.55H226.768Z" fill="url(#paint1_linear_5623_18443)"/>
<path d="M201.285 6.6335C201.159 5.20437 202.935 4.44878 203.877 5.53084L213.066 16.0862C213.488 16.5701 214.173 16.7277 214.763 16.4765L227.642 10.9986C228.962 10.437 230.229 11.8929 229.491 13.1232L222.292 25.1248C221.962 25.675 222.024 26.3751 222.445 26.859L231.635 37.4144C232.577 38.4964 231.584 40.1518 230.186 39.8301L216.547 36.6922C215.922 36.5483 215.275 36.8234 214.945 37.3736L207.746 49.3752C207.008 50.6055 205.127 50.1727 205.001 48.7435L203.77 34.8026C203.714 34.1635 203.253 33.6334 202.627 33.4895L188.989 30.3516C187.59 30.0299 187.421 28.107 188.741 27.5454L201.619 22.0674C202.21 21.8163 202.571 21.2135 202.515 20.5744L201.285 6.6335Z" fill="#FFF0A9"/>
<path d="M331.222 24.0288C331.346 22.5995 333.227 22.1648 333.966 23.3943L339.378 32.3962C339.709 32.9461 340.356 33.2205 340.981 33.076L351.215 30.7104C352.613 30.3873 353.607 32.0416 352.667 33.1247L345.778 41.0537C345.357 41.5381 345.296 42.2383 345.626 42.7882L351.039 51.79C351.778 53.0196 350.512 54.4768 349.191 53.9166L339.521 49.8152C338.931 49.5646 338.246 49.7229 337.825 50.2073L330.936 58.1364C329.995 59.2194 328.218 58.4656 328.343 57.0364L329.255 46.5725C329.311 45.9333 328.949 45.3309 328.358 45.0804L318.689 40.979C317.368 40.4188 317.536 38.4957 318.933 38.1726L329.167 35.807C329.792 35.6625 330.253 35.1319 330.309 34.4927L331.222 24.0288Z" fill="#FDECA5"/>
<path d="M387.06 86.5752C386.633 85.2054 388.209 84.09 389.359 84.9474L403.606 95.5669C404.12 95.9503 404.823 95.9589 405.347 95.5882L419.849 85.3203C421.02 84.4912 422.568 85.6449 422.108 87.0038L416.41 103.835C416.205 104.443 416.414 105.114 416.928 105.497L431.175 116.117C432.325 116.974 431.706 118.803 430.272 118.785L412.504 118.568C411.862 118.56 411.289 118.966 411.083 119.574L405.386 136.405C404.926 137.764 402.995 137.74 402.569 136.37L397.285 119.405C397.094 118.792 396.531 118.372 395.889 118.365L378.121 118.147C376.687 118.13 376.113 116.287 377.283 115.458L391.786 105.19C392.309 104.819 392.535 104.153 392.344 103.541L387.06 86.5752Z" fill="#FFE497"/>
<path d="M326.925 77.9445C326.591 76.5491 328.238 75.5422 329.328 76.4751L335.645 81.8816C336.133 82.2988 336.833 82.3546 337.381 82.0199L344.475 77.6828C345.699 76.9344 347.165 78.1896 346.615 79.5145L343.425 87.193C343.179 87.7856 343.342 88.4692 343.83 88.8864L350.147 94.2928C351.237 95.2257 350.496 97.0084 349.066 96.8943L340.778 96.2335C340.138 96.1825 339.538 96.5491 339.292 97.1416L336.103 104.82C335.552 106.145 333.628 105.992 333.294 104.596L331.362 96.5093C331.213 95.8852 330.679 95.4282 330.039 95.3772L321.751 94.7163C320.32 94.6023 319.872 92.7248 321.096 91.9764L328.19 87.6393C328.737 87.3046 329.007 86.6555 328.858 86.0315L326.925 77.9445Z" fill="#FFE8A2"/>
<path d="M1388.47 516.816C1387.99 515.605 1386.24 515.715 1385.91 516.976L1381.5 534.168C1381.35 534.731 1380.86 535.138 1380.28 535.174L1362.56 536.285C1361.26 536.367 1360.83 538.063 1361.93 538.761L1376.91 548.276C1377.4 548.588 1377.64 549.181 1377.49 549.745L1373.08 566.937C1372.75 568.198 1374.23 569.137 1375.23 568.307L1388.91 556.996C1389.36 556.624 1390 556.585 1390.49 556.897L1405.48 566.411C1406.57 567.109 1407.92 565.992 1407.45 564.782L1400.91 548.276C1400.7 547.735 1400.86 547.117 1401.31 546.746L1414.99 535.435C1415.99 534.605 1415.35 532.976 1414.05 533.057L1396.33 534.168C1395.75 534.204 1395.21 533.863 1395 533.321L1388.47 516.816Z" fill="#FFD780"/>
<path d="M1318.37 679.328C1317.69 678.219 1315.99 678.632 1315.89 679.93L1314.82 693.821C1314.78 694.402 1314.37 694.888 1313.8 695.025L1300.26 698.304C1298.99 698.611 1298.86 700.357 1300.06 700.853L1312.95 706.159C1313.48 706.381 1313.82 706.924 1313.77 707.505L1312.71 721.396C1312.61 722.694 1314.23 723.361 1315.07 722.369L1324.1 711.757C1324.48 711.314 1325.1 711.164 1325.64 711.385L1338.52 716.691C1339.72 717.187 1340.86 715.853 1340.17 714.744L1332.87 702.879C1332.57 702.383 1332.61 701.747 1332.99 701.304L1342.02 690.692C1342.86 689.7 1341.94 688.208 1340.68 688.515L1327.14 691.794C1326.57 691.931 1325.98 691.688 1325.68 691.192L1318.37 679.328Z" fill="#FFD780"/>
<path d="M1248.35 713.034C1247.99 711.782 1246.24 711.723 1245.8 712.947L1235.19 742.179C1234.99 742.727 1234.46 743.084 1233.88 743.064L1202.8 742.004C1201.49 741.96 1200.9 743.606 1201.92 744.407L1226.45 763.534C1226.91 763.892 1227.08 764.505 1226.88 765.052L1216.27 794.285C1215.83 795.509 1217.21 796.587 1218.29 795.858L1244.05 778.446C1244.54 778.12 1245.17 778.142 1245.63 778.5L1270.16 797.626C1271.18 798.427 1272.63 797.446 1272.27 796.195L1263.68 766.307C1263.52 765.748 1263.73 765.148 1264.22 764.822L1289.99 747.41C1291.06 746.681 1290.58 744.998 1289.28 744.953L1258.2 743.893C1257.62 743.873 1257.11 743.481 1256.95 742.922L1248.35 713.034Z" fill="#FFD27D"/>
<path d="M1402.45 583.334C1402.1 582.082 1400.35 582.017 1399.9 583.239L1397.3 590.325C1397.1 590.872 1396.57 591.227 1395.99 591.206L1388.45 590.926C1387.15 590.878 1386.55 592.523 1387.57 593.327L1393.51 597.985C1393.97 598.345 1394.14 598.958 1393.94 599.505L1391.34 606.591C1390.9 607.813 1392.27 608.895 1393.36 608.169L1399.62 603.963C1400.1 603.638 1400.74 603.662 1401.2 604.021L1407.14 608.68C1408.16 609.483 1409.62 608.507 1409.26 607.254L1407.19 599.996C1407.03 599.436 1407.25 598.837 1407.74 598.513L1414 594.306C1415.08 593.58 1414.6 591.895 1413.3 591.847L1405.76 591.568C1405.18 591.546 1404.68 591.152 1404.52 590.592L1402.45 583.334Z" fill="#FFD780"/>
<path d="M1343.5 827.642C1343.46 826.34 1341.78 825.847 1341.05 826.922L1336.79 833.15C1336.46 833.631 1335.86 833.845 1335.3 833.681L1328.06 831.555C1326.81 831.188 1325.82 832.634 1326.62 833.665L1331.22 839.641C1331.58 840.102 1331.6 840.74 1331.27 841.221L1327.01 847.449C1326.27 848.524 1327.34 849.912 1328.57 849.474L1335.68 846.939C1336.23 846.743 1336.84 846.923 1337.19 847.384L1341.8 853.36C1342.6 854.391 1344.25 853.803 1344.21 852.501L1343.99 844.958C1343.98 844.376 1344.34 843.85 1344.89 843.654L1351.99 841.119C1353.22 840.681 1353.17 838.93 1351.92 838.563L1344.68 836.436C1344.12 836.272 1343.73 835.767 1343.72 835.185L1343.5 827.642Z" fill="#FFD27D"/>
<defs>
<linearGradient id="paint0_linear_5623_18443" x1="720" y1="0" x2="720" y2="995.016" gradientUnits="userSpaceOnUse">
<stop offset="0.0734517" stop-color="#EAE5A1"/>
<stop offset="0.398693" stop-color="#FDB84B"/>
<stop offset="0.953336" stop-color="#FB9C31"/>
</linearGradient>
<linearGradient id="paint1_linear_5623_18443" x1="725" y1="184.5" x2="541.249" y2="933.998" gradientUnits="userSpaceOnUse">
<stop stop-color="#FCA237"/>
<stop offset="1" stop-color="#FF8B0F"/>
</linearGradient>
</defs>
</svg>
