<svg width="1800" height="900" viewBox="0 0 1800 900" fill="none" xmlns="http://www.w3.org/2000/svg">
<g clip-path="url(#clip0_4744_257)">
<path d="M0 -0.201172H1800V899.799H0V-0.201172Z" fill="#DFEDFF"/>
<path opacity="0.34" d="M469.473 762.647C459.923 759.811 361.656 669.918 296.111 633.091C190.023 573.484 205.29 593.131 147.241 658.298C127.309 680.674 39.5398 731.292 24.4414 776.368C9.34298 821.445 -2.25854 760.592 -2.25854 823.733L-2.25847 899.799L1801.26 899.799L1801.26 644.901C1687.45 650.606 1633.69 546.411 1579.93 546.411C1562.35 546.411 1533.45 599.073 1502.52 624.745C1438.87 677.579 1365.31 724.661 1354.82 723.774C1324.27 723.202 1310.38 733.108 1295.31 723.774C1291.35 721.323 1287.85 718.754 1283.77 715.068C1271.46 703.958 1263.64 697.131 1256.37 691.511L1256.33 691.484C1249.95 686.554 1236.73 676.337 1223.34 669.233C1206.27 660.172 1190.56 652.376 1180.05 644.901C1168.07 636.377 1151.16 639.587 1141.59 639.655C1139.19 639.672 1125.37 622.029 1117.78 624.745C1084.08 636.796 1088.24 644.67 1063.57 658.74C1049.7 666.647 1045.07 675.294 1035.41 677.576C1027.43 679.461 1011.83 686.738 958.998 681.148C939.207 679.053 931.2 674.505 922.134 671.327C912.978 668.118 903.368 663.64 891.112 658.298C876.399 651.885 859.08 648.649 843.839 639.054C836.674 634.543 827.226 630.981 813.628 631.911C808.084 632.29 802.823 633.173 798.534 635.131C788.173 639.863 780.031 645.532 772.316 650.606C765.139 655.327 756.14 664.811 705.181 685.076C682.635 694.041 648.799 706.369 630.665 713.302C612.531 720.236 610.367 721.85 607.369 722.862C595.029 727.028 583.886 731.747 575.154 738.558C558.498 751.547 555.877 758.318 545.372 760.592C531.411 763.615 515.992 769.196 501.259 767.939C490.111 766.988 478.379 765.291 469.473 762.647Z" fill="url(#paint0_linear_4744_257)"/>
<path d="M503.603 617.994C506.467 618.01 509.157 618.386 510.979 619.624C516.784 623.567 564.311 652.988 636.881 681.083C661.928 690.779 685.402 698.06 706.149 704.673C726.871 711.277 744.917 717.227 759.005 724.252C764.503 726.993 769.784 730.856 775.217 735.081C780.672 739.324 786.274 743.927 792.502 748.258C804.921 756.893 819.714 764.353 840.112 765.165C859.316 765.93 869.244 765.614 876.563 763.547C883.843 761.49 888.586 757.694 897.464 751.156C936.003 722.776 958.705 707.479 986.502 671.925C987.83 670.226 990.449 668.185 993.559 666.123C996.702 664.039 1000.46 661.866 1004.15 659.914C1007.85 657.963 1011.5 656.222 1014.46 655.009C1015.93 654.403 1017.25 653.922 1018.32 653.611C1018.85 653.456 1019.34 653.338 1019.77 653.271C1020.17 653.208 1020.61 653.175 1020.99 653.252C1024.3 653.914 1027.72 654.632 1030.47 656.639C1033.93 659.166 1037.03 663.265 1040.53 668.194C1044.06 673.165 1048.04 679.063 1053.31 685.404C1063.82 698.057 1079.45 712.463 1106.49 724.23C1127.66 733.437 1146.48 730.366 1163.1 726.475C1171.37 724.537 1179.19 722.369 1186.38 721.489C1193.59 720.605 1200.33 720.993 1206.46 724.265C1251.52 748.294 1299.34 772.651 1342.53 789.818C1364.13 798.402 1384.54 805.179 1402.87 809.221C1421.21 813.265 1437.38 814.556 1450.51 812.226C1453.45 811.704 1457.88 809.972 1463.57 807.265C1469.23 804.57 1476.05 800.955 1483.72 796.727C1498.99 788.31 1517.84 777.364 1537.39 766.658C1557 755.919 1577.53 745.302 1596.5 737.368C1615.43 729.446 1632.93 724.147 1646.44 724.147C1673.38 724.148 1686.91 734.216 1706.2 747.089C1725.45 759.93 1750.66 775.747 1801.16 787.688L1801.93 787.87V788.661L1801.93 900.796V901.797L1800.93 901.795L-0.941018 898.575L-1.93907 898.573V897.575C-1.93901 891.731 -2.21401 880.393 -2.50938 866.57C-2.80454 852.758 -3.11903 836.482 -3.19688 820.79C-3.2747 805.102 -3.11641 789.978 -2.4625 778.474C-2.13577 772.726 -1.68402 767.851 -1.06992 764.253C-0.763462 762.457 -0.410251 760.944 0.00136437 759.785C0.20728 759.206 0.436744 758.688 0.69863 758.26C0.955773 757.839 1.28013 757.444 1.69961 757.184L1.74746 757.154L1.79726 757.131C23.1631 746.941 54.5576 743.689 80.5766 747.572L81.8119 747.763L81.9418 747.783L82.0629 747.837C97.5057 754.737 110.221 759.858 126.445 761.354C142.679 762.852 162.505 760.726 192.129 752.972C224.157 744.588 275.517 730.459 303.763 720.293C320.975 714.098 330.392 708.645 342.767 700.366C355.171 692.069 370.568 680.917 399.647 663.405C423.109 649.277 439.297 636.67 451.512 628.356C457.592 624.218 462.73 621.115 467.265 619.492C471.834 617.857 475.892 617.689 479.717 619.552C480.136 619.756 480.815 619.9 481.791 619.95C482.749 619.999 483.902 619.955 485.21 619.846C487.838 619.627 490.95 619.163 494.184 618.748C497.388 618.337 500.694 617.978 503.603 617.994Z" fill="black"/>
<path d="M503.603 617.994C506.467 618.01 509.157 618.386 510.979 619.624C516.784 623.567 564.311 652.988 636.881 681.083C661.928 690.779 685.402 698.06 706.149 704.673C726.871 711.277 744.917 717.227 759.005 724.252C764.503 726.993 769.784 730.856 775.217 735.081C780.672 739.324 786.274 743.927 792.502 748.258C804.921 756.893 819.714 764.353 840.112 765.165C859.316 765.93 869.244 765.614 876.563 763.547C883.843 761.49 888.586 757.694 897.464 751.156C936.003 722.776 958.705 707.479 986.502 671.925C987.83 670.226 990.449 668.185 993.559 666.123C996.702 664.039 1000.46 661.866 1004.15 659.914C1007.85 657.963 1011.5 656.222 1014.46 655.009C1015.93 654.403 1017.25 653.922 1018.32 653.611C1018.85 653.456 1019.34 653.338 1019.77 653.271C1020.17 653.208 1020.61 653.175 1020.99 653.252C1024.3 653.914 1027.72 654.632 1030.47 656.639C1033.93 659.166 1037.03 663.265 1040.53 668.194C1044.06 673.165 1048.04 679.063 1053.31 685.404C1063.82 698.057 1079.45 712.463 1106.49 724.23C1127.66 733.437 1146.48 730.366 1163.1 726.475C1171.37 724.537 1179.19 722.369 1186.38 721.489C1193.59 720.605 1200.33 720.993 1206.46 724.265C1251.52 748.294 1299.34 772.651 1342.53 789.818C1364.13 798.402 1384.54 805.179 1402.87 809.221C1421.21 813.265 1437.38 814.556 1450.51 812.226C1453.45 811.704 1457.88 809.972 1463.57 807.265C1469.23 804.57 1476.05 800.955 1483.72 796.727C1498.99 788.31 1517.84 777.364 1537.39 766.658C1557 755.919 1577.53 745.302 1596.5 737.368C1615.43 729.446 1632.93 724.147 1646.44 724.147C1673.38 724.148 1686.91 734.216 1706.2 747.089C1725.45 759.93 1750.66 775.747 1801.16 787.688L1801.93 787.87V788.661L1801.93 900.796V901.797L1800.93 901.795L-0.941018 898.575L-1.93907 898.573V897.575C-1.93901 891.731 -2.21401 880.393 -2.50938 866.57C-2.80454 852.758 -3.11903 836.482 -3.19688 820.79C-3.2747 805.102 -3.11641 789.978 -2.4625 778.474C-2.13577 772.726 -1.68402 767.851 -1.06992 764.253C-0.763462 762.457 -0.410251 760.944 0.00136437 759.785C0.20728 759.206 0.436744 758.688 0.69863 758.26C0.955773 757.839 1.28013 757.444 1.69961 757.184L1.74746 757.154L1.79726 757.131C23.1631 746.941 54.5576 743.689 80.5766 747.572L81.8119 747.763L81.9418 747.783L82.0629 747.837C97.5057 754.737 110.221 759.858 126.445 761.354C142.679 762.852 162.505 760.726 192.129 752.972C224.157 744.588 275.517 730.459 303.763 720.293C320.975 714.098 330.392 708.645 342.767 700.366C355.171 692.069 370.568 680.917 399.647 663.405C423.109 649.277 439.297 636.67 451.512 628.356C457.592 624.218 462.73 621.115 467.265 619.492C471.834 617.857 475.892 617.689 479.717 619.552C480.136 619.756 480.815 619.9 481.791 619.95C482.749 619.999 483.902 619.955 485.21 619.846C487.838 619.627 490.95 619.163 494.184 618.748C497.388 618.337 500.694 617.978 503.603 617.994Z" fill="url(#paint1_linear_4744_257)"/>
</g>
<defs>
<linearGradient id="paint0_linear_4744_257" x1="950.239" y1="610.906" x2="944.329" y2="808.219" gradientUnits="userSpaceOnUse">
<stop stop-color="#FCFE96"/>
<stop offset="0.377107" stop-color="#7CBB6A"/>
<stop offset="1" stop-color="#054E44"/>
</linearGradient>
<linearGradient id="paint1_linear_4744_257" x1="1056.03" y1="617.994" x2="1026.87" y2="1004.9" gradientUnits="userSpaceOnUse">
<stop offset="0.0850634" stop-color="#FCFE96"/>
<stop offset="0.524038" stop-color="#599263"/>
<stop offset="1" stop-color="#275963"/>
</linearGradient>
<clipPath id="clip0_4744_257">
<rect width="1800" height="900" fill="white"/>
</clipPath>
</defs>
</svg>
