<svg width="1437" height="900" viewBox="0 0 1437 900" fill="none" xmlns="http://www.w3.org/2000/svg">
<path d="M0 0H1437V900H0V0Z" fill="#DFEDFF"/>
<path opacity="0.58" d="M1267.78 637.284C1275.37 634.568 1289.19 652.21 1291.6 652.193C1301.16 652.126 1318.07 648.916 1330.05 657.439C1340.56 664.914 1356.27 672.711 1373.34 681.772C1386.73 688.876 1399.95 699.093 1406.33 704.022L1406.37 704.05C1413.64 709.669 1421.46 716.497 1433.77 727.607C1437.85 731.293 1441.35 733.862 1445.31 736.312C1460.38 745.647 1508.07 738.774 1538.61 739.346C1554.21 740.664 1566.87 741.423 1580.02 739.923C1582.82 739.17 1585.18 738.05 1590 739.159V912.338H1019.03V920.219H8V774.209C19.8509 775.703 38.9511 780.232 48.501 783.067C57.4069 785.712 69.1388 787.408 80.2861 788.359C95.0192 789.616 110.438 784.035 124.399 781.013C134.904 778.738 137.526 771.967 154.182 758.978C162.914 752.167 174.057 747.448 186.396 743.282C189.395 742.27 191.559 740.656 209.692 733.723C227.826 726.789 261.663 714.462 284.208 705.496C335.167 685.231 344.166 675.747 351.344 671.026C359.058 665.953 367.201 660.284 377.562 655.552C381.851 653.593 387.111 652.71 392.655 652.331C406.253 651.401 415.701 654.964 422.866 659.475C438.107 669.07 455.427 672.306 470.14 678.719C482.395 684.061 492.005 688.539 501.161 691.748C510.227 694.926 518.234 699.474 538.025 701.568C590.858 707.159 606.46 699.881 614.437 697.996C624.092 695.714 628.732 687.067 642.598 679.16C667.27 665.091 663.113 657.216 696.806 645.166C704.399 642.45 718.214 660.092 720.622 660.075C730.187 660.008 747.098 656.797 759.08 665.321C769.587 672.796 785.298 680.592 802.371 689.653C812.497 695.028 822.531 702.185 829.579 707.485C838.707 704.036 847.585 700.635 855.182 697.614C906.141 677.35 915.14 667.865 922.317 663.145C930.032 658.071 938.175 652.402 948.535 647.67C952.824 645.711 958.085 644.828 963.629 644.449C977.227 643.519 986.674 647.082 993.84 651.593C1009.08 661.188 1026.4 664.424 1041.11 670.837C1053.37 676.179 1062.98 680.657 1072.13 683.866C1081.2 687.044 1089.21 691.592 1109 693.687C1161.83 699.277 1177.43 692 1185.41 690.115C1195.07 687.833 1199.71 679.185 1213.57 671.278C1238.24 657.209 1234.09 649.334 1267.78 637.284Z" fill="url(#paint0_linear_4706_878)"/>
<path opacity="0.95" d="M1482.12 930.497C1492.93 927.355 1514.56 922.338 1527.97 920.683L1372.38 1030.2L227.807 1030.2L227.807 838.336C233.26 837.107 235.933 838.349 239.105 839.183C253.992 840.844 268.326 840.004 285.981 838.543C320.561 837.91 374.543 845.524 391.611 835.182C396.092 832.466 400.056 829.621 404.677 825.537C418.606 813.228 427.459 805.664 435.694 799.438C442.901 793.989 481.808 789.469 473.081 774.756C431.098 703.973 448.884 695.336 460.779 687.055C474.344 677.611 485.031 664.65 495.859 664.724C498.585 664.743 522.683 661.716 531.28 664.724C569.423 678.075 564.716 686.799 592.647 702.387C608.345 711.147 613.596 720.728 624.528 723.256C633.558 725.344 651.22 733.407 772.343 787.956C792.882 797.206 814.591 788.011 824.855 784.491C835.221 780.935 860.34 765.824 874.215 759.905C890.871 752.8 910.477 749.215 927.732 738.584C935.844 733.587 946.54 729.64 961.934 730.671C968.21 731.091 974.166 732.068 979.022 734.239C990.751 739.481 1023.27 744.458 1032 750.079C1040.13 755.309 1056.41 762.769 1099.86 795.371C1121.77 811.808 1308.5 863.794 1329.03 871.476C1349.56 879.158 1322.62 885.298 1326.01 886.419C1339.98 891.034 1352.6 896.263 1362.48 903.808C1381.34 918.2 1384.31 925.701 1396.2 928.22C1412 931.569 1429.46 937.752 1446.14 936.36C1458.76 935.306 1472.04 933.426 1482.12 930.497Z" fill="url(#paint1_linear_4706_878)"/>
<defs>
<linearGradient id="paint0_linear_4706_878" x1="859.902" y1="627.096" x2="839.488" y2="787.359" gradientUnits="userSpaceOnUse">
<stop stop-color="#FCFE96"/>
<stop offset="0.5" stop-color="#9DC070"/>
<stop offset="1" stop-color="#3E8149"/>
</linearGradient>
<linearGradient id="paint1_linear_4706_878" x1="795.935" y1="673.562" x2="750.919" y2="1018.57" gradientUnits="userSpaceOnUse">
<stop stop-color="#FCFE96"/>
<stop offset="0.524038" stop-color="#599263"/>
<stop offset="1" stop-color="#275963"/>
</linearGradient>
</defs>
</svg>
