<svg width="171" height="45" viewBox="0 0 171 45" fill="none" xmlns="http://www.w3.org/2000/svg">
<path d="M170.707 4.68898L169.981 0.315899L2.21345 1.08092L2.23768 6.39499L8.91927 17.3055L1.8315 41.0953L1.84576 44.2212L169.473 43.4569L169.882 40.329L164.591 25.0358L170.707 4.68898Z" fill="#785340"/>
<path d="M2.57584 3.727C1.84015 2.39752 2.79721 0.765587 4.31666 0.758658L167.987 0.012321C169.286 0.00639397 170.247 1.22243 169.939 2.48534L164.598 24.4265C164.501 24.8235 164.529 25.2406 164.676 25.6217L169.683 38.554C170.189 39.861 169.229 41.2697 167.827 41.2761L3.82491 42.024C2.48313 42.0301 1.51606 40.7393 1.89894 39.4533L8.81193 16.2338C8.96515 15.7191 8.905 15.1645 8.64502 14.6947L2.57584 3.727Z" fill="#AD795E"/>
<path d="M7.24716 22.0023C11.2643 22.9157 19.2538 25.5968 20.0969 27.0679C23.1591 32.411 6.33205 33.2601 4.19432 33.2698" stroke="#CC9477"/>
<path d="M53.0854 42.1347L52.866 42.584L53.7646 43.0228L53.984 42.5735L53.0854 42.1347ZM94.6268 35.9227L94.3989 35.4777L94.6268 35.9227ZM116.667 34.666L116.759 35.1573L116.667 34.666ZM137.004 35.7295L137.188 36.1942L137.004 35.7295ZM154.703 34.4925L154.513 34.0299L154.513 34.0299L154.703 34.4925ZM8.48923 43.6559C9.74164 42.725 12.0893 40.9866 14.3384 39.4807C15.4638 38.7272 16.5559 38.0378 17.4689 37.5381C17.9258 37.2881 18.3292 37.0904 18.6638 36.9563C19.0121 36.8168 19.2372 36.7665 19.3555 36.766L19.351 35.766C19.0353 35.7674 18.6643 35.8788 18.2919 36.0281C17.906 36.1827 17.4641 36.4008 16.9889 36.6609C16.0375 37.1815 14.9171 37.8898 13.782 38.6497C11.5102 40.1708 9.14477 41.9227 7.8927 42.8533L8.48923 43.6559ZM19.3555 36.766C19.5203 36.7652 19.8152 36.837 20.254 37.0204C20.6773 37.1974 21.1824 37.4555 21.7471 37.7736C22.876 38.4096 24.2021 39.2622 25.5206 40.124C26.8321 40.9813 28.1387 41.8495 29.2072 42.5005C29.7414 42.8261 30.2274 43.1043 30.6328 43.3024C30.8354 43.4014 31.0263 43.4846 31.1988 43.5439C31.3632 43.6004 31.5469 43.6481 31.7233 43.6473L31.7188 42.6473C31.7196 42.6473 31.7156 42.6474 31.706 42.6462C31.6965 42.6451 31.6832 42.6429 31.6657 42.6392C31.63 42.6316 31.5831 42.6186 31.5238 42.5982C31.4045 42.5572 31.2539 42.4929 31.0719 42.4039C30.708 42.2261 30.2528 41.9667 29.7275 41.6466C28.6769 41.0064 27.3913 40.1521 26.0677 39.287C24.7511 38.4263 23.3994 37.5567 22.2379 36.9023C21.6574 36.5753 21.1142 36.2962 20.6398 36.0978C20.1809 35.9059 19.7288 35.7643 19.351 35.766L19.3555 36.766ZM53.984 42.5735C53.9492 42.6447 53.9064 42.6812 53.9002 42.6865C53.8898 42.6955 53.8882 42.695 53.9035 42.6859C53.9341 42.6677 53.9921 42.6388 54.0865 42.6C54.2729 42.5235 54.5481 42.4302 54.9089 42.3219C55.6273 42.1063 56.6388 41.845 57.8542 41.5527C60.2827 40.9687 63.4936 40.2687 66.732 39.5746C69.9672 38.8811 73.2305 38.1933 75.7537 37.6357C77.0152 37.357 78.0965 37.1097 78.8996 36.9097C79.3007 36.8099 79.6374 36.7206 79.8945 36.6441C80.0228 36.6059 80.1362 36.5695 80.2302 36.5353C80.3156 36.5042 80.4149 36.4644 80.4961 36.4145L79.9731 35.5622C79.9831 35.5561 79.9643 35.5678 79.8878 35.5957C79.82 35.6204 79.7277 35.6504 79.6094 35.6856C79.3734 35.7558 79.0534 35.8409 78.658 35.9394C77.8683 36.136 76.7976 36.3809 75.5379 36.6593C73.0188 37.216 69.7632 37.9021 66.5224 38.5968C63.2848 39.2908 60.0626 39.9932 57.6204 40.5805C56.4005 40.8738 55.3672 41.1403 54.6215 41.3641C54.2502 41.4755 53.9384 41.5798 53.7067 41.6749C53.5921 41.722 53.4832 41.7724 53.3922 41.8265C53.3466 41.8536 53.2955 41.8875 53.2473 41.9292C53.2033 41.9671 53.1343 42.0345 53.0854 42.1347L53.984 42.5735ZM80.4961 36.4145C80.4855 36.421 80.5194 36.4004 80.6434 36.3786C80.7565 36.3588 80.9087 36.3439 81.1022 36.3355C81.4885 36.3185 81.996 36.3288 82.5978 36.3577C83.8027 36.4157 85.3236 36.545 86.9099 36.659C88.4864 36.7724 90.1199 36.87 91.5156 36.8599C92.2136 36.8549 92.8625 36.8229 93.4213 36.7502C93.9711 36.6785 94.4738 36.5627 94.8546 36.3678L94.3989 35.4777C94.1716 35.594 93.8042 35.6918 93.2921 35.7585C92.7892 35.8241 92.1848 35.8551 91.5084 35.86C90.1556 35.8697 88.5566 35.7748 86.9816 35.6616C85.4162 35.5491 83.8663 35.4176 82.6459 35.3589C82.0351 35.3295 81.4913 35.3174 81.0583 35.3364C80.8421 35.3459 80.6427 35.3635 80.4709 35.3936C80.3101 35.4218 80.126 35.4684 79.9731 35.5622L80.4961 36.4145ZM94.8546 36.3678C98.371 34.5679 102.192 34.5379 105.989 34.8371C107.848 34.9837 109.791 35.2188 111.567 35.3361C113.373 35.4554 115.128 35.4652 116.759 35.1573L116.574 34.1746C115.066 34.4592 113.41 34.4556 111.633 34.3383C109.828 34.219 108.022 33.9943 106.067 33.8402C102.236 33.5383 98.176 33.5443 94.3989 35.4777L94.8546 36.3678ZM116.759 35.1573C117.529 35.012 118.932 35.0749 120.736 35.2555C122.519 35.4339 124.61 35.717 126.727 35.9789C128.835 36.2399 130.964 36.4793 132.791 36.5644C133.705 36.607 134.553 36.6116 135.29 36.5591C136.022 36.5072 136.677 36.3974 137.188 36.1942L136.819 35.2648C136.447 35.4125 135.911 35.5126 135.22 35.5617C134.535 35.6103 133.73 35.6071 132.838 35.5655C131.053 35.4823 128.958 35.2474 126.85 34.9865C124.75 34.7267 122.634 34.4404 120.836 34.2605C119.059 34.0826 117.509 33.998 116.574 34.1746L116.759 35.1573ZM137.188 36.1942C137.989 35.8761 139.286 35.698 140.888 35.6077C142.473 35.5182 144.293 35.5169 146.108 35.5231C147.916 35.5293 149.722 35.5429 151.252 35.4813C152.758 35.4206 154.087 35.2858 154.893 34.9551L154.513 34.0299C153.894 34.2838 152.74 34.4205 151.212 34.4821C149.709 34.5427 147.931 34.5293 146.112 34.5231C144.3 34.5169 142.451 34.5179 140.831 34.6093C139.228 34.6997 137.786 34.8811 136.819 35.2648L137.188 36.1942ZM154.893 34.9551C155.665 34.6385 156.538 34.069 157.44 33.4156C158.345 32.7605 159.323 31.9858 160.287 31.253C161.259 30.5131 162.226 29.8073 163.143 29.258C164.066 28.7044 164.896 28.3359 165.598 28.2312L165.45 27.2422C164.553 27.3761 163.588 27.8252 162.629 28.4003C161.662 28.9797 160.658 29.7138 159.681 30.4571C158.695 31.2074 157.746 31.9592 156.854 32.6058C155.959 33.2542 155.167 33.7619 154.513 34.0299L154.893 34.9551Z" fill="#CC9477"/>
<path d="M9.97241 0.733032C19.8647 4.12053 40.2878 10.9384 42.8413 11.1098C46.0333 11.3241 63.1265 11.0173 67.457 10.9976C71.7876 10.9778 84.637 4.74053 87.7109 4.03999C90.7847 3.33945 95.9161 4.00257 100.019 3.98387C104.121 3.96516 115.08 8.03431 117.469 7.10805C119.858 6.1818 131.826 6.58491 135.239 5.1963C138.652 3.8077 144.014 5.15629 148.573 5.1355C153.131 5.11471 162.934 5.52769 165.547 3.68506C167.637 2.21095 169.332 2.0345 170.129 1.87831" stroke="#CC9477"/>
<path d="M4.9187 6.38269C12.3458 7.16582 25.1396 12.5658 32.6557 17.8256C42.0507 24.4004 69.8518 20.9546 71.9547 20.3425C75.3764 19.3465 86.0794 12.1899 90.9902 12.1675C95.901 12.1451 109.85 15.5128 112.02 15.5029C114.19 15.493 129.259 14.1988 131.999 13.9412C134.739 13.6837 143.191 13.8902 146.735 14.6093C150.279 15.3285 157.804 12.5981 158.376 12.8406C158.948 13.0831 166.585 12.8031 167.499 12.799" stroke="#CC9477"/>
<path d="M7.48486 12.3104C13.7861 12.9084 20.7113 17.7284 23.9242 23.354C27.9403 30.386 32.1712 34.5969 36.7285 35.5162C41.2859 36.4355 46.4962 30.7714 51.3918 30.9841C56.2875 31.1968 74.8338 29.4672 79.3815 28.2714C83.9292 27.0756 94.4969 23.0322 97.3426 23.0193C100.188 23.0063 117.497 24.5724 120.915 25.2619C124.334 25.9513 131.377 22.8641 134.564 22.8495C137.751 22.835 151.297 22.7732 152.662 22.767C154.028 22.7608 157.999 19.9225 160.618 19.9106C162.712 19.901 162.665 19.9013 165.131 19.89" stroke="#CC9477"/>
</svg>
