<svg width="171" height="45" viewBox="0 0 171 45" fill="none" xmlns="http://www.w3.org/2000/svg">
<path d="M170.707 4.68873L169.981 0.315655L2.21345 1.08068L2.23768 6.39475L8.91927 17.3052L1.8315 41.0951L1.84576 44.221L169.473 43.4566L169.882 40.3288L164.591 25.0355L170.707 4.68873Z" fill="#785340"/>
<path d="M2.57584 3.72687C1.84015 2.39739 2.79721 0.765465 4.31666 0.758536L167.987 0.0121989C169.286 0.0062719 170.247 1.22231 169.939 2.48522L164.598 24.4264C164.501 24.8234 164.529 25.2405 164.676 25.6216L169.683 38.5539C170.189 39.8609 169.229 41.2696 167.827 41.276L3.82491 42.0238C2.48313 42.03 1.51606 40.7392 1.89894 39.4532L8.81193 16.2336C8.96515 15.719 8.905 15.1644 8.64502 14.6946L2.57584 3.72687Z" fill="#AD795E"/>
<path d="M7.24716 22.0022C11.2643 22.9156 19.2538 25.5967 20.0969 27.0678C23.1591 32.4109 6.33205 33.2599 4.19432 33.2697" stroke="#CC9477"/>
<path d="M53.0854 42.1346L52.866 42.5839L53.7646 43.0226L53.984 42.5733L53.0854 42.1346ZM94.6268 35.9226L94.3989 35.4775L94.6268 35.9226ZM116.667 34.6658L116.759 35.1572L116.667 34.6658ZM137.004 35.7294L137.188 36.1941L137.004 35.7294ZM154.703 34.4924L154.513 34.0298L154.513 34.0298L154.703 34.4924ZM8.48923 43.6558C9.74164 42.7249 12.0893 40.9864 14.3384 39.4806C15.4638 38.727 16.5559 38.0377 17.4689 37.538C17.9258 37.288 18.3292 37.0903 18.6638 36.9562C19.0121 36.8167 19.2372 36.7664 19.3555 36.7659L19.351 35.7659C19.0353 35.7673 18.6643 35.8787 18.2919 36.0279C17.906 36.1826 17.4641 36.4007 16.9889 36.6608C16.0375 37.1814 14.9171 37.8897 13.782 38.6496C11.5102 40.1707 9.14477 41.9226 7.8927 42.8532L8.48923 43.6558ZM19.3555 36.7659C19.5203 36.7651 19.8152 36.8368 20.254 37.0203C20.6773 37.1972 21.1824 37.4553 21.7471 37.7735C22.876 38.4095 24.2021 39.2621 25.5206 40.1239C26.8321 40.9812 28.1387 41.8494 29.2072 42.5004C29.7414 42.8259 30.2274 43.1042 30.6328 43.3023C30.8354 43.4013 31.0263 43.4845 31.1988 43.5438C31.3632 43.6003 31.5469 43.648 31.7233 43.6472L31.7188 42.6472C31.7196 42.6472 31.7156 42.6472 31.706 42.6461C31.6965 42.6449 31.6832 42.6428 31.6657 42.6391C31.63 42.6314 31.5831 42.6184 31.5238 42.5981C31.4045 42.557 31.2539 42.4928 31.0719 42.4038C30.708 42.226 30.2528 41.9665 29.7275 41.6465C28.6769 41.0063 27.3913 40.152 26.0677 39.2868C24.7511 38.4262 23.3994 37.5566 22.2379 36.9022C21.6574 36.5752 21.1142 36.296 20.6398 36.0977C20.1809 35.9058 19.7288 35.7641 19.351 35.7659L19.3555 36.7659ZM53.984 42.5733C53.9492 42.6446 53.9064 42.6811 53.9002 42.6864C53.8898 42.6954 53.8882 42.6949 53.9035 42.6858C53.9341 42.6676 53.9921 42.6386 54.0865 42.5999C54.2729 42.5234 54.5481 42.4301 54.9089 42.3218C55.6273 42.1062 56.6388 41.8449 57.8542 41.5526C60.2827 40.9686 63.4936 40.2686 66.732 39.5744C69.9672 38.881 73.2305 38.1932 75.7537 37.6356C77.0152 37.3568 78.0965 37.1096 78.8996 36.9096C79.3007 36.8098 79.6374 36.7205 79.8945 36.644C80.0228 36.6058 80.1362 36.5694 80.2302 36.5351C80.3156 36.504 80.4149 36.4642 80.4961 36.4144L79.9731 35.5621C79.9831 35.5559 79.9643 35.5677 79.8878 35.5956C79.82 35.6203 79.7277 35.6503 79.6094 35.6855C79.3734 35.7557 79.0534 35.8408 78.658 35.9392C77.8683 36.1359 76.7976 36.3808 75.5379 36.6592C73.0188 37.2158 69.7632 37.902 66.5224 38.5967C63.2848 39.2907 60.0626 39.9931 57.6204 40.5803C56.4005 40.8737 55.3672 41.1402 54.6215 41.364C54.2502 41.4754 53.9384 41.5797 53.7067 41.6748C53.5921 41.7219 53.4832 41.7722 53.3922 41.8264C53.3466 41.8535 53.2955 41.8874 53.2473 41.929C53.2033 41.967 53.1343 42.0343 53.0854 42.1346L53.984 42.5733ZM80.4961 36.4144C80.4855 36.4209 80.5194 36.4002 80.6434 36.3785C80.7565 36.3587 80.9087 36.3438 81.1022 36.3353C81.4885 36.3184 81.996 36.3287 82.5978 36.3576C83.8027 36.4156 85.3236 36.5449 86.9099 36.6589C88.4864 36.7723 90.1199 36.8699 91.5156 36.8598C92.2136 36.8548 92.8625 36.8228 93.4213 36.75C93.9711 36.6784 94.4738 36.5626 94.8546 36.3677L94.3989 35.4775C94.1716 35.5939 93.8042 35.6917 93.2921 35.7584C92.7892 35.8239 92.1848 35.855 91.5084 35.8598C90.1556 35.8696 88.5566 35.7747 86.9816 35.6615C85.4162 35.5489 83.8663 35.4175 82.6459 35.3588C82.0351 35.3294 81.4913 35.3173 81.0583 35.3363C80.8421 35.3458 80.6427 35.3634 80.4709 35.3935C80.3101 35.4217 80.126 35.4683 79.9731 35.5621L80.4961 36.4144ZM94.8546 36.3677C98.371 34.5677 102.192 34.5378 105.989 34.837C107.848 34.9835 109.791 35.2186 111.567 35.336C113.373 35.4553 115.128 35.465 116.759 35.1572L116.574 34.1745C115.066 34.4591 113.41 34.4555 111.633 34.3382C109.828 34.2189 108.022 33.9942 106.067 33.8401C102.236 33.5381 98.176 33.5442 94.3989 35.4775L94.8546 36.3677ZM116.759 35.1572C117.529 35.0119 118.932 35.0748 120.736 35.2554C122.519 35.4338 124.61 35.7168 126.727 35.9788C128.835 36.2398 130.964 36.4791 132.791 36.5643C133.705 36.6069 134.553 36.6114 135.29 36.559C136.022 36.5071 136.677 36.3973 137.188 36.1941L136.819 35.2647C136.447 35.4124 135.911 35.5124 135.22 35.5615C134.535 35.6102 133.73 35.607 132.838 35.5654C131.053 35.4822 128.958 35.2472 126.85 34.9864C124.75 34.7266 122.634 34.4403 120.836 34.2603C119.059 34.0825 117.509 33.9979 116.574 34.1745L116.759 35.1572ZM137.188 36.1941C137.989 35.876 139.286 35.6979 140.888 35.6076C142.473 35.5181 144.293 35.5168 146.108 35.523C147.916 35.5291 149.722 35.5428 151.252 35.4812C152.758 35.4205 154.087 35.2857 154.893 34.955L154.513 34.0298C153.894 34.2837 152.74 34.4204 151.212 34.482C149.709 34.5425 147.931 34.5292 146.112 34.523C144.3 34.5168 142.451 34.5178 140.831 34.6092C139.228 34.6996 137.786 34.881 136.819 35.2647L137.188 36.1941ZM154.893 34.955C155.665 34.6384 156.538 34.0689 157.44 33.4155C158.345 32.7604 159.323 31.9857 160.287 31.2528C161.259 30.513 162.226 29.8072 163.143 29.2579C164.066 28.7042 164.896 28.3358 165.598 28.2311L165.45 27.2421C164.553 27.3759 163.588 27.8251 162.629 28.4002C161.662 28.9796 160.658 29.7137 159.681 30.457C158.695 31.2073 157.746 31.959 156.854 32.6057C155.959 33.254 155.167 33.7617 154.513 34.0298L154.893 34.955Z" fill="#CC9477"/>
<path d="M9.97241 0.73291C19.8647 4.12041 40.2878 10.9383 42.8413 11.1097C46.0333 11.324 63.1265 11.0172 67.457 10.9974C71.7876 10.9777 84.637 4.7404 87.7109 4.03987C90.7847 3.33933 95.9161 4.00245 100.019 3.98374C104.121 3.96504 115.08 8.03419 117.469 7.10793C119.858 6.18168 131.826 6.58478 135.239 5.19618C138.652 3.80758 144.014 5.15617 148.573 5.13538C153.131 5.11459 162.934 5.52757 165.547 3.68494C167.637 2.21083 169.332 2.03438 170.129 1.87819" stroke="#CC9477"/>
<path d="M4.9187 6.38257C12.3458 7.16569 25.1396 12.5657 32.6557 17.8255C42.0507 24.4003 69.8518 20.9545 71.9547 20.3424C75.3764 19.3464 86.0794 12.1897 90.9902 12.1673C95.901 12.1449 109.85 15.5127 112.02 15.5028C114.19 15.4929 129.259 14.1987 131.999 13.9411C134.739 13.6835 143.191 13.8901 146.735 14.6092C150.279 15.3284 157.804 12.598 158.376 12.8405C158.948 13.0829 166.585 12.803 167.499 12.7989" stroke="#CC9477"/>
<path d="M7.48486 12.3103C13.7861 12.9083 20.7113 17.7283 23.9242 23.3539C27.9403 30.3859 32.1712 34.5968 36.7285 35.5161C41.2859 36.4353 46.4962 30.7713 51.3918 30.984C56.2875 31.1967 74.8338 29.4671 79.3815 28.2713C83.9292 27.0755 94.4969 23.0321 97.3426 23.0191C100.188 23.0062 117.497 24.5723 120.915 25.2617C124.334 25.9512 131.377 22.8639 134.564 22.8494C137.751 22.8349 151.297 22.7731 152.662 22.7669C154.028 22.7606 157.999 19.9224 160.618 19.9105C162.712 19.9009 162.665 19.9011 165.131 19.8899" stroke="#CC9477"/>
</svg>
