<svg width="148" height="58" viewBox="0 0 148 58" fill="none" xmlns="http://www.w3.org/2000/svg">
<path d="M95.367 25.2087H50.8145L70.2269 5.83057L73.0736 8.71157L75.9546 5.83057L95.367 25.2087Z" fill="#FFBC96"/>
<path d="M67.3462 25.2086L73.0739 19.481L78.8359 25.2086H67.3462Z" fill="#DB693B"/>
<path d="M83.5336 4.45869H76.0225V0L83.5336 4.45869Z" fill="#DB693B"/>
<path d="M0 32.2356H4.48596V39.8181H12.2272V32.2356H16.7132V52.1644H12.2272V43.9467H4.48596V52.1644H0V32.2356Z" fill="white"/>
<path d="M32.1558 39.2224C33.3071 40.2149 33.8629 41.525 33.8629 43.1923V52.1245H29.9327L29.6548 50.7351C28.7814 51.8863 27.5508 52.4421 25.9628 52.4421C24.9306 52.4421 23.9779 52.2436 23.1442 51.8466C22.3105 51.4496 21.6753 50.8542 21.199 50.1396C20.7226 49.425 20.4844 48.5516 20.4844 47.5989C20.4844 46.8049 20.6432 46.0903 21.0005 45.5345C21.3577 44.939 21.8341 44.5024 22.4296 44.1451C23.303 43.6687 24.3749 43.4305 25.6849 43.4305H29.5754V43.1923C29.5754 42.6762 29.3769 42.2792 28.9402 41.9616C28.5035 41.6441 27.908 41.4853 27.1538 41.4853C26.5583 41.4853 26.0025 41.6044 25.4467 41.8028C24.8909 42.041 24.3352 42.3983 23.7397 42.9938L20.6432 40.3737C21.5165 39.4606 22.5487 38.8254 23.7397 38.3888C24.9306 37.9521 26.201 37.7139 27.4714 37.7139C29.4563 37.7536 31.0045 38.23 32.1558 39.2224ZM28.6623 48.3134C29.2181 47.8371 29.5357 47.2813 29.5754 46.6064H26.3201C25.8437 46.6064 25.4864 46.6858 25.2482 46.8446C24.9703 47.0431 24.8115 47.321 24.8115 47.6783C24.8115 48.0752 24.9703 48.3928 25.2879 48.631C25.6055 48.8692 26.0422 48.9883 26.6377 48.9883C27.4317 48.9883 28.1065 48.7898 28.6623 48.3134Z" fill="white"/>
<path d="M39.9768 51.41C38.9049 50.6955 38.111 49.8221 37.5949 48.7105C37.0788 47.599 36.8009 46.408 36.8009 45.1376C36.8009 43.8276 37.0788 42.6366 37.5949 41.525C38.111 40.4135 38.9446 39.5004 39.9768 38.7858C41.0487 38.0713 42.3587 37.7537 43.8673 37.7537C45.3758 37.7537 46.6859 38.111 47.7578 38.8255C48.8296 39.5401 49.6633 40.612 50.1397 42.0411L46.0904 43.6688C46.011 43.0336 45.7331 42.4778 45.3361 42.0808C44.9392 41.6838 44.4231 41.4853 43.8673 41.4853C42.9145 41.4853 42.2396 41.8426 41.8426 42.5572C41.406 43.2718 41.2075 44.1452 41.2075 45.1773C41.2075 46.2095 41.406 47.0432 41.803 47.7181C42.1999 48.3929 42.8748 48.7502 43.8276 48.7502C44.3834 48.7502 44.8598 48.5517 45.2964 48.1944C45.7331 47.7974 46.011 47.3211 46.1301 46.6859L50.0206 48.1944C49.5442 49.5442 48.7502 50.5764 47.6784 51.3703C46.6065 52.1246 45.3361 52.5216 43.907 52.5216C42.3587 52.4819 41.009 52.1246 39.9768 51.41Z" fill="white"/>
<path d="M53.2759 32.2356H57.603V42.7161L61.6523 38.0713H67.4086L62.2478 43.391L67.885 52.1644H62.7639L59.1116 46.289L57.603 48.0754V52.1644H53.2759V32.2356Z" fill="white"/>
<path d="M74.1573 51.3704C72.6487 50.497 71.4578 49.2664 70.6241 47.6784C69.7904 46.0905 69.3934 44.2643 69.3934 42.2C69.3934 40.096 69.7904 38.2698 70.6241 36.6422C71.4578 35.0542 72.609 33.8236 74.1176 32.9502C75.6261 32.0768 77.3332 31.6401 79.3181 31.6401C81.5413 31.6401 83.4468 32.1562 85.0347 33.2281C86.6227 34.3 87.774 35.7688 88.5282 37.6743L84.3996 39.302C84.0026 38.1904 83.4071 37.3568 82.494 36.7613C81.6207 36.1658 80.5488 35.8879 79.3181 35.8879C77.6111 35.8879 76.2613 36.4437 75.3085 37.5156C74.3558 38.5874 73.8794 40.1357 73.8794 42.1206C73.8794 44.1055 74.3558 45.6538 75.3482 46.7257C76.3407 47.7975 77.6905 48.3533 79.4372 48.3533C80.7076 48.3533 81.7398 48.0754 82.6131 47.4799C83.4865 46.8845 84.082 46.0111 84.3996 44.8598L88.6076 46.4478C87.8931 48.4327 86.7418 49.9413 85.1538 51.0131C83.5659 52.085 81.6604 52.6011 79.4372 52.6011C77.4126 52.6805 75.6658 52.2438 74.1573 51.3704Z" fill="white"/>
<path d="M101.788 39.2224C102.939 40.2149 103.495 41.525 103.495 43.1923V52.1245H99.5645L99.2866 50.7351C98.4133 51.8863 97.1826 52.4421 95.5946 52.4421C94.5625 52.4421 93.6097 52.2436 92.776 51.8466C91.9424 51.4496 91.3072 50.8542 90.8308 50.1396C90.3544 49.425 90.1162 48.5516 90.1162 47.5989C90.1162 46.8049 90.275 46.0903 90.6323 45.5345C90.9896 44.939 91.466 44.5024 92.0614 44.1451C92.9348 43.6687 94.0067 43.4305 95.3168 43.4305H99.2072V43.1923C99.2072 42.6762 99.0087 42.2792 98.5721 41.9616C98.1354 41.6441 97.5399 41.4853 96.7856 41.4853C96.1901 41.4853 95.6343 41.6044 95.0786 41.8028C94.5228 42.041 93.967 42.3983 93.3715 42.9938L90.275 40.3737C91.1484 39.4606 92.1805 38.8254 93.3715 38.3888C94.5625 37.9521 95.8328 37.7139 97.1032 37.7139C99.0881 37.7536 100.636 38.23 101.788 39.2224ZM98.2942 48.3134C98.8499 47.8371 99.1675 47.2813 99.2072 46.6064H95.9519C95.4755 46.6064 95.1183 46.6858 94.8801 46.8446C94.6022 47.0431 94.4434 47.321 94.4434 47.6783C94.4434 48.0752 94.6022 48.3928 94.9198 48.631C95.2374 48.8692 95.674 48.9883 96.2695 48.9883C97.0635 48.9883 97.7384 48.7898 98.2942 48.3134Z" fill="white"/>
<path d="M126.957 38.5078C127.711 39.0239 128.267 39.6988 128.624 40.4928C128.982 41.2868 129.18 42.1601 129.18 43.0335V52.1245H124.853V44.3833C124.853 43.629 124.734 42.9541 124.456 42.3586C124.178 41.7631 123.662 41.4853 122.868 41.4853C121.955 41.4853 121.32 41.8028 121.042 42.438C120.724 43.0732 120.565 43.9466 120.565 45.0978L120.605 46.3682C120.605 46.6461 120.645 47.0828 120.645 47.5989V52.1245H116.318V44.3039C116.318 43.8672 116.318 43.4702 116.278 43.1129C116.238 42.7556 116.079 42.3983 115.802 42.041C115.524 41.644 115.087 41.4853 114.452 41.4853C113.499 41.4853 112.824 41.8028 112.507 42.438C112.189 43.0732 112.03 43.9863 112.03 45.1772L112.07 46.4079C112.07 46.6858 112.11 47.0828 112.11 47.5989V52.1245H107.782L107.743 38.0315H111.871V39.8576C112.665 38.4284 113.896 37.7139 115.603 37.7139C116.437 37.7139 117.231 37.9124 117.945 38.349C118.66 38.7857 119.255 39.5003 119.692 40.5325C120.248 39.4606 120.923 38.746 121.677 38.349C122.431 37.9521 123.265 37.7536 124.218 37.7536C125.29 37.7536 126.203 37.9918 126.957 38.5078Z" fill="white"/>
<path d="M144.623 38.7064C145.496 39.3416 146.131 40.2547 146.568 41.3662C147.005 42.4778 147.243 43.7482 147.243 45.1376C147.243 46.6859 146.965 47.9959 146.449 49.1075C145.933 50.2191 145.218 51.0527 144.345 51.6085C143.471 52.1643 142.519 52.4422 141.486 52.4422C140.812 52.4422 140.137 52.3231 139.462 52.0452C138.787 51.807 138.231 51.4497 137.794 51.013V58H133.467V38.0712H137.794V39.1431C138.271 38.6667 138.827 38.3094 139.462 38.1109C140.137 37.8727 140.772 37.7934 141.486 37.7934C142.717 37.7537 143.749 38.0712 144.623 38.7064ZM142.955 45.0979C142.955 42.716 142.082 41.525 140.335 41.525C138.39 41.525 137.397 42.716 137.397 45.0979C137.397 46.1698 137.636 47.0432 138.072 47.718C138.549 48.3929 139.263 48.7105 140.256 48.7105C142.042 48.7105 142.955 47.5196 142.955 45.0979Z" fill="white"/>
</svg>
