<svg width="602" height="471" viewBox="0 0 602 471" fill="none" xmlns="http://www.w3.org/2000/svg">
<mask id="mask0_4706_875" style="mask-type:alpha" maskUnits="userSpaceOnUse" x="23" y="374" width="20" height="93">
<rect x="23.9004" y="374" width="19" height="93" fill="#A6754F"/>
</mask>
<g mask="url(#mask0_4706_875)">
<g filter="url(#filter0_i_4706_875)">
<rect x="23.9004" y="374" width="19" height="93" fill="#A6754F"/>
</g>
<path opacity="0.42" d="M38.5325 781.751C38.5877 776.351 38.3543 769.702 38.5254 764.409C38.5278 764.331 38.5302 764.254 38.5326 764.176C38.6022 762.124 38.7011 759.722 38.8196 757.164C38.8347 756.83 38.8506 756.484 38.8663 756.128C39.007 752.882 39.1756 748.986 39.3657 743.762C40.0049 725.877 39.6557 711.987 39.5475 707.465C39.4005 701.672 39.3627 695.532 39.3634 688.087C39.3632 684.665 39.3725 680.818 39.3826 676.591C39.3854 675.452 39.3892 674.276 39.3919 673.058C39.3941 672.072 39.5938 671.248 39.8385 671.226C40.0834 671.205 40.2801 671.994 40.2779 672.981C40.2752 674.174 40.2726 675.326 40.2699 676.439C40.2699 676.444 40.2699 676.449 40.2699 676.454C40.2596 680.754 40.2502 684.655 40.2506 688.09C40.2502 695.424 40.2878 701.363 40.4303 707.008C40.5409 711.598 40.8975 725.848 40.2426 744.17C40.0504 749.477 39.881 753.427 39.7396 756.655C39.7242 757.001 39.7088 757.335 39.6941 757.658C39.6937 757.665 39.6933 757.673 39.6929 757.68C39.5734 760.342 39.4786 762.514 39.4118 764.549C39.4106 764.594 39.4093 764.64 39.4081 764.686C39.2352 769.999 39.4716 776.574 39.4181 781.79C39.4078 782.8 39.2011 783.55 38.9565 783.541C38.7121 783.529 38.5225 782.761 38.5325 781.751ZM36.6884 419.416C36.3792 414.214 36.4353 407.325 36.5976 401.255C36.7612 395.125 37.0393 389.538 37.2076 386.96C37.3721 384.419 37.4313 381.588 37.4725 378.197C37.482 377.42 37.4905 376.613 37.4993 375.777C37.5285 373.008 37.5611 369.958 37.6409 366.616C37.9343 354.294 37.9688 346.242 37.9623 340.509C37.961 339.327 37.9576 338.226 37.9546 337.195C37.9546 337.193 37.9546 337.192 37.9546 337.19C37.9431 333.293 37.9349 330.388 38.0435 327.742C38.2371 323.017 38.4076 319.144 38.7324 314.457C39.1803 307.99 39.1562 298.869 38.879 292.858C38.8637 292.529 38.8475 292.192 38.8317 291.851C38.6293 287.516 38.3802 282.221 38.2064 274.204C38.0621 267.521 38.0919 261.795 38.1532 256.654C38.1707 255.184 38.1913 253.781 38.2104 252.432C38.2585 249.02 38.3017 245.997 38.2901 243.139C38.2185 225.374 38.4088 215.165 38.6688 208.71C38.8688 203.749 39.1154 201.007 39.2936 199.011C39.3475 198.409 39.3958 197.877 39.4338 197.376C39.7735 192.912 39.9324 188.8 40.1234 183.861C40.1658 182.768 40.2101 181.631 40.258 180.442C40.4182 176.466 40.4012 173.498 40.3453 171.17C40.3209 170.151 40.2897 169.255 40.2595 168.41C40.2588 168.394 40.2581 168.378 40.2575 168.363C40.2533 168.245 40.2495 168.128 40.2454 168.012C40.2423 167.924 40.2383 167.837 40.2352 167.749C40.2309 167.715 40.2281 167.684 40.2257 167.661C40.2237 167.643 40.2223 167.628 40.2214 167.619C40.2211 167.617 40.2207 167.616 40.2203 167.614C40.2038 167.448 40.1975 167.305 40.1962 167.276C40.1939 167.225 40.1929 167.18 40.1922 167.156C40.1885 167.034 40.1866 166.876 40.1857 166.771C40.1833 166.502 40.181 166.034 40.1791 165.31C40.1681 164.679 40.1481 164.075 40.1227 163.317C40.121 163.269 40.1193 163.222 40.1176 163.174C40.0927 162.438 40.0643 161.577 40.037 160.495C40.0123 159.512 40.1894 158.607 40.4329 158.476C40.6764 158.345 40.8939 159.037 40.9187 160.021C40.9444 161.04 40.9715 161.847 40.9964 162.583C40.9981 162.63 40.9997 162.676 41.0014 162.723C41.0274 163.49 41.0516 164.223 41.0646 165.008C41.069 165.271 41.0721 165.543 41.0743 165.796C41.0839 166.253 41.1012 166.772 41.1231 167.393C41.1275 167.518 41.1315 167.646 41.1362 167.778C41.1663 168.622 41.2014 169.605 41.228 170.712C41.2903 173.306 41.3069 176.59 41.1325 180.917C41.0868 182.051 41.0442 183.151 41.0026 184.224C40.8112 189.185 40.6412 193.6 40.2807 198.339C40.2313 198.989 40.1751 199.613 40.1156 200.279C39.9391 202.26 39.7282 204.595 39.5433 209.188C39.2956 215.337 39.1052 225.302 39.1764 242.967C39.1885 245.968 39.1422 249.194 39.0933 252.664C39.0746 253.985 39.0563 255.339 39.0398 256.719C38.9795 261.778 38.9508 267.328 39.0901 273.777C39.26 281.615 39.5018 286.776 39.7033 291.079C39.7105 291.229 39.7177 291.378 39.7249 291.528C39.7336 291.714 39.7421 291.898 39.7506 292.081C40.0461 298.491 40.0799 308.187 39.585 315.34C39.2745 319.82 39.1105 323.525 38.918 328.223C38.8234 330.526 38.8306 333.012 38.8414 336.831C38.8444 337.902 38.847 339.078 38.8484 340.382C38.855 346.218 38.8204 354.394 38.5238 366.852C38.4465 370.087 38.4152 373.006 38.3862 375.759C38.3772 376.611 38.368 377.447 38.3581 378.265C38.3166 381.672 38.256 384.831 38.0658 387.767C37.9096 390.154 37.6383 395.576 37.4793 401.533C37.3191 407.521 37.279 413.885 37.5507 418.465C37.579 418.939 37.6069 419.417 37.635 419.895C37.8771 424.016 38.1242 428.141 38.5455 431.541C41.2111 446.684 40.0986 474.078 39.8821 492.134C39.8793 492.372 39.8764 492.609 39.8735 492.847C39.624 513.659 39.6032 528.885 39.5964 533.988C39.5961 534.227 39.5958 534.444 39.5956 534.639C39.5953 534.813 39.5955 534.971 39.5953 535.109C39.5915 537.162 39.6173 539.097 39.6444 541.049C39.6459 541.156 39.6474 541.263 39.6489 541.37C39.6775 543.444 39.705 545.61 39.6945 548.153C39.6557 557.608 39.6732 565.387 39.6962 572.104C39.7005 573.357 39.7041 574.571 39.7084 575.75C39.7084 575.754 39.7084 575.757 39.7084 575.761C39.7276 580.934 39.7453 585.433 39.7325 589.852C39.7097 597.762 39.75 603.128 39.7981 607.306C39.8132 608.61 39.829 609.805 39.8442 610.929C39.8772 613.329 39.9059 615.524 39.9115 617.756C39.9222 621.978 39.9722 625.66 40.0201 629.498C40.0244 629.839 40.0282 630.179 40.0324 630.519C40.0839 634.687 40.1316 638.583 40.1204 642.93C40.1178 643.94 39.9164 644.77 39.6716 644.791C39.4269 644.81 39.2308 644.013 39.2334 643.004C39.2443 638.77 39.1984 634.983 39.1469 630.819C39.1426 630.478 39.1378 630.134 39.1335 629.79C39.0858 625.94 39.0362 622.21 39.0254 617.908C39.0199 615.764 38.993 613.666 38.9606 611.321C38.9452 610.186 38.9285 608.959 38.9126 607.586C38.8638 603.351 38.8225 597.904 38.8455 589.922C38.8581 585.559 38.8413 581.111 38.8221 575.945C38.8177 574.759 38.8132 573.534 38.8089 572.266C38.7858 565.524 38.7685 557.717 38.8075 548.205C38.8174 545.802 38.7918 543.75 38.7634 541.686C38.7619 541.571 38.7604 541.455 38.7589 541.339C38.732 539.408 38.7042 537.361 38.7082 535.192C38.7087 534.898 38.7098 534.522 38.7104 534.07C38.7172 528.961 38.7375 513.673 38.9879 492.784C38.9889 492.719 38.9898 492.654 38.9907 492.589C39.1588 478.504 39.2534 470.651 39.052 464.678C38.8929 460.011 38.8591 456.492 38.8465 453.596C38.8441 453.044 38.8418 452.521 38.8402 452.022C38.8333 449.865 38.8278 448.155 38.7713 446.484C38.6004 441.398 38.3068 437.723 37.7519 433.256C37.2816 429.428 37.0101 424.902 36.7727 420.848C36.7723 420.842 36.772 420.836 36.7716 420.83C36.7434 420.35 36.7159 419.878 36.6884 419.416ZM39.4903 146.234C39.5005 145.24 39.7066 144.443 39.951 144.452C40.1956 144.463 40.3861 145.279 40.3759 146.273C40.3515 148.643 40.3271 151.011 40.3026 153.378C40.2923 154.371 40.0863 155.167 39.842 155.158C39.5974 155.147 39.4069 154.332 39.417 153.339C39.4414 150.972 39.4659 148.604 39.4903 146.234ZM32.2672 423.544C32.2205 422.577 32.3783 421.613 32.6187 421.393C32.8588 421.175 33.0911 421.785 33.1378 422.751C33.1625 423.262 33.2075 424.103 33.2681 425.231C33.705 433.392 34.9526 456.699 35.2644 481.408C35.2906 483.477 35.3172 485.312 35.3426 487.118C35.4512 494.788 36.063 500.795 35.9946 515.364C35.7237 572.99 34.5474 630.668 34.9126 688.074C34.9342 691.647 34.9618 695.087 34.9957 698.457C35.1664 716.226 35.1485 733.658 35.0819 751.311C35.0268 765.9 34.4932 792.904 34.4288 799.239C34.4187 800.235 34.212 801.023 33.9677 801C33.7228 800.997 33.5331 800.201 33.5432 799.198C33.6071 792.907 34.1397 766.01 34.1947 751.458C34.2611 733.84 34.2795 716.442 34.1091 698.719C34.0745 695.238 34.0427 691.739 34.0141 688.071C33.5425 630.667 33.7636 572.888 34.0344 515.278C34.1022 500.851 34.5662 495.085 34.4581 487.448C34.4326 485.642 34.4054 483.783 34.3788 481.699C34.0715 457.326 32.8442 434.404 32.4027 426.123C32.3402 424.96 32.2933 424.084 32.2672 423.544ZM32.7733 377.324C32.739 366.21 32.9047 350.456 33.0501 336.673C33.1213 329.89 33.1878 323.733 33.2231 318.705C33.2778 310.918 33.5041 306.079 33.7288 301.238C33.7311 301.186 33.7335 301.134 33.7358 301.082C33.9604 296.255 34.1818 291.367 34.2374 283.533C34.2936 275.596 34.1817 264.618 34.069 253.531C34.069 253.523 34.069 253.514 34.069 253.505C33.9568 242.481 33.3946 231.298 33.4525 223.229C33.6544 195.071 34.3141 177.742 34.8178 168.96C35.6989 153.61 34.8125 136.207 35.9159 120.519C36.1552 118.789 36.8207 121.711 36.6173 124.9C36.6115 125.015 36.6057 125.131 36.5999 125.246C36.5459 126.343 36.5018 127.302 36.4643 128.654C36.4311 130.612 36.425 132.069 36.4198 133.398C36.406 136.881 36.1738 161.097 35.6818 169.675C35.2039 178.007 35.6158 194.978 35.4127 223.316C35.3559 231.234 34.8427 242.192 34.9555 253.274C34.9557 253.304 34.956 253.334 34.9563 253.365C35.0682 264.372 35.1814 275.455 35.1243 283.525C35.0666 291.641 34.8343 296.755 34.6068 301.643C34.6045 301.69 34.6022 301.738 34.5998 301.786C34.3772 306.579 34.1615 311.199 34.1089 318.697C34.0728 323.834 34.0069 330.068 33.9352 336.892C33.7903 350.612 33.6255 366.151 33.6595 377.168C33.6625 378.164 33.4663 379.006 33.2215 379.049C32.9769 379.091 32.7765 378.32 32.7733 377.324ZM27.2532 377.079C26.3628 345.866 26.7306 314.551 27.8584 283.815C27.9152 275.793 28.0169 264.6 28.1192 253.41C28.1207 253.283 28.1222 253.156 28.1236 253.03C28.2248 241.969 28.3255 230.945 28.3822 223.051C28.584 194.894 28.7951 177.497 29.2988 168.715C29.7685 160.516 29.7764 158.267 29.7894 154.897C29.79 154.805 29.7907 154.714 29.7913 154.622C29.7906 154.616 29.7899 154.61 29.7892 154.604C29.7781 154.488 29.7719 154.391 29.7692 154.341C29.7637 154.24 29.7618 154.157 29.7611 154.126C29.7594 154.054 29.7594 153.994 29.7593 153.973C29.759 153.885 29.7594 153.785 29.7601 153.721C29.7663 153.121 29.7986 151.244 29.8395 149.755C29.8814 148.23 29.9327 147.143 29.9892 145.996C29.995 145.88 30.0008 145.764 30.0066 145.648C30.0578 144.614 30.1134 143.489 30.175 141.868C30.2126 140.881 30.439 140.183 30.6809 140.305C30.9226 140.428 31.0881 141.322 31.0507 142.31C30.9859 144.015 30.9267 145.212 30.8753 146.25C30.8695 146.366 30.8637 146.481 30.8579 146.596C30.8038 147.694 30.7598 148.655 30.7223 150.007C30.6891 151.965 30.683 153.42 30.6778 154.749C30.664 158.238 30.6536 160.842 30.1617 169.427C29.6836 177.76 29.4711 194.705 29.2679 223.044C29.2112 230.952 29.1105 241.989 29.0093 253.04C29.0082 253.17 29.0071 253.3 29.006 253.431C28.9036 264.627 28.8008 275.804 28.7441 283.807C28.5232 315.007 28.8771 345.532 28.1394 376.92C28.1572 382.716 28.1556 387.941 28.1538 392.831C28.1483 407.252 28.1447 418.301 28.6521 428.762C28.7634 431.049 28.8455 437.187 28.9448 445.862C28.9739 448.384 29.0039 451.239 29.0369 454.282C29.1179 461.728 29.2135 470.547 29.3389 480.466C29.3651 482.544 29.3918 484.356 29.4172 486.163C29.5256 493.854 29.6126 499.716 29.5441 514.319C29.46 532.216 29.152 562.143 28.9359 578.182C28.828 586.079 28.7358 590.786 28.6613 593.938C28.6405 594.826 28.6207 595.604 28.603 596.317C28.5568 598.177 28.5214 599.608 28.4947 601.565C28.3036 615.342 28.3788 625.051 28.5488 640.779C28.5593 641.785 28.3692 642.668 28.1247 642.742C27.8802 642.817 27.6729 642.062 27.6622 641.049C27.492 625.302 27.4155 615.436 27.6093 601.473C27.6371 599.425 27.6755 597.907 27.7225 596.008C27.7399 595.305 27.7587 594.553 27.7784 593.71C27.8517 590.607 27.9431 585.955 28.0504 578.097C28.2661 562.087 28.5733 532.202 28.6571 514.361C28.725 499.903 28.6407 494.151 28.5326 486.493C28.5073 484.674 28.4799 482.857 28.4534 480.76C28.3278 470.835 28.2314 461.983 28.1504 454.537C28.1174 451.502 28.0873 448.644 28.0582 446.135C27.957 437.282 27.8768 431.53 27.7815 429.551C27.2563 418.733 27.2605 407.197 27.2664 392.643C27.2683 387.811 27.2705 382.688 27.2532 377.079ZM28.1837 697.774C28.174 696.811 28.365 695.965 28.6097 695.897C28.8543 695.829 29.0604 696.565 29.0701 697.529C29.1206 702.89 29.1648 706.467 29.1988 709.494C29.2621 715.02 29.2934 717.535 29.2749 721.542C29.2275 731.717 29.1898 741.538 29.1564 750.373C29.101 765.068 29.0562 776.995 28.9912 783.338C28.981 784.307 28.7739 785.166 28.5294 785.14C28.2849 785.145 28.0955 784.261 28.1055 783.301C28.1701 776.998 28.215 765.167 28.2703 750.523C28.3036 741.679 28.3402 731.825 28.3879 721.586C28.4059 717.71 28.3771 715.312 28.3151 709.934C28.2812 706.852 28.2354 703.314 28.1837 697.774Z" fill="#875732"/>
</g>
<mask id="mask1_4706_875" style="mask-type:alpha" maskUnits="userSpaceOnUse" x="561" y="375" width="20" height="93">
<rect x="561.9" y="375" width="19" height="93" fill="#A6754F"/>
</mask>
<g mask="url(#mask1_4706_875)">
<g filter="url(#filter1_i_4706_875)">
<rect x="561.9" y="375" width="19" height="93" fill="#A6754F"/>
</g>
<path opacity="0.42" d="M576.533 782.751C576.588 777.351 576.354 770.702 576.525 765.409C576.528 765.331 576.53 765.254 576.533 765.176C576.602 763.124 576.701 760.722 576.82 758.164C576.835 757.83 576.851 757.484 576.866 757.128C577.007 753.882 577.176 749.986 577.366 744.762C578.005 726.877 577.656 712.987 577.548 708.465C577.401 702.672 577.363 696.532 577.363 689.087C577.363 685.665 577.372 681.818 577.383 677.591C577.385 676.452 577.389 675.276 577.392 674.058C577.394 673.072 577.594 672.248 577.839 672.226C578.083 672.205 578.28 672.994 578.278 673.981C578.275 675.174 578.273 676.326 578.27 677.439C578.27 677.444 578.27 677.449 578.27 677.454C578.26 681.754 578.25 685.655 578.251 689.09C578.25 696.424 578.288 702.363 578.43 708.008C578.541 712.598 578.898 726.848 578.243 745.17C578.05 750.477 577.881 754.427 577.74 757.655C577.724 758.001 577.709 758.335 577.694 758.658C577.694 758.665 577.693 758.673 577.693 758.68C577.573 761.342 577.479 763.514 577.412 765.549C577.411 765.594 577.409 765.64 577.408 765.686C577.235 770.999 577.472 777.574 577.418 782.79C577.408 783.8 577.201 784.55 576.957 784.541C576.712 784.529 576.522 783.761 576.533 782.751ZM574.688 420.416C574.379 415.214 574.435 408.325 574.598 402.255C574.761 396.125 575.039 390.538 575.208 387.96C575.372 385.419 575.431 382.588 575.473 379.197C575.482 378.42 575.49 377.613 575.499 376.777C575.528 374.008 575.561 370.958 575.641 367.616C575.934 355.294 575.969 347.242 575.962 341.509C575.961 340.327 575.958 339.226 575.955 338.195C575.955 338.193 575.955 338.192 575.955 338.19C575.943 334.293 575.935 331.388 576.044 328.742C576.237 324.017 576.408 320.144 576.732 315.457C577.18 308.99 577.156 299.869 576.879 293.858C576.864 293.529 576.848 293.192 576.832 292.851C576.629 288.516 576.38 283.221 576.206 275.204C576.062 268.521 576.092 262.795 576.153 257.654C576.171 256.184 576.191 254.781 576.21 253.432C576.259 250.02 576.302 246.997 576.29 244.139C576.219 226.374 576.409 216.165 576.669 209.71C576.869 204.749 577.115 202.007 577.294 200.011C577.347 199.409 577.396 198.877 577.434 198.376C577.773 193.912 577.932 189.8 578.123 184.861C578.166 183.768 578.21 182.631 578.258 181.442C578.418 177.466 578.401 174.498 578.345 172.17C578.321 171.151 578.29 170.255 578.26 169.41C578.259 169.394 578.258 169.378 578.257 169.363C578.253 169.245 578.249 169.128 578.245 169.012C578.242 168.924 578.238 168.837 578.235 168.749C578.231 168.715 578.228 168.684 578.226 168.661C578.224 168.643 578.222 168.628 578.221 168.619C578.221 168.617 578.221 168.616 578.22 168.614C578.204 168.448 578.198 168.305 578.196 168.276C578.194 168.225 578.193 168.18 578.192 168.156C578.188 168.034 578.187 167.876 578.186 167.771C578.183 167.502 578.181 167.034 578.179 166.31C578.168 165.679 578.148 165.075 578.123 164.317C578.121 164.269 578.119 164.222 578.118 164.174C578.093 163.438 578.064 162.577 578.037 161.495C578.012 160.512 578.189 159.607 578.433 159.476C578.676 159.345 578.894 160.037 578.919 161.021C578.944 162.04 578.971 162.847 578.996 163.583C578.998 163.63 579 163.676 579.001 163.723C579.027 164.49 579.052 165.223 579.065 166.008C579.069 166.271 579.072 166.543 579.074 166.796C579.084 167.253 579.101 167.772 579.123 168.393C579.128 168.518 579.131 168.646 579.136 168.778C579.166 169.622 579.201 170.605 579.228 171.712C579.29 174.306 579.307 177.59 579.132 181.917C579.087 183.051 579.044 184.151 579.003 185.224C578.811 190.185 578.641 194.6 578.281 199.339C578.231 199.989 578.175 200.613 578.116 201.279C577.939 203.26 577.728 205.595 577.543 210.188C577.296 216.337 577.105 226.302 577.176 243.967C577.189 246.968 577.142 250.194 577.093 253.664C577.075 254.985 577.056 256.339 577.04 257.719C576.979 262.778 576.951 268.328 577.09 274.777C577.26 282.615 577.502 287.776 577.703 292.079C577.711 292.229 577.718 292.378 577.725 292.528C577.734 292.714 577.742 292.898 577.751 293.081C578.046 299.491 578.08 309.187 577.585 316.34C577.274 320.82 577.11 324.525 576.918 329.223C576.823 331.526 576.831 334.012 576.841 337.831C576.844 338.902 576.847 340.078 576.848 341.382C576.855 347.218 576.82 355.394 576.524 367.852C576.446 371.087 576.415 374.006 576.386 376.759C576.377 377.611 576.368 378.447 576.358 379.265C576.317 382.672 576.256 385.831 576.066 388.767C575.91 391.154 575.638 396.576 575.479 402.533C575.319 408.521 575.279 414.885 575.551 419.465C575.579 419.939 575.607 420.417 575.635 420.895C575.877 425.016 576.124 429.141 576.545 432.541C579.211 447.684 578.099 475.078 577.882 493.134C577.879 493.372 577.876 493.609 577.873 493.847C577.624 514.659 577.603 529.885 577.596 534.988C577.596 535.227 577.596 535.444 577.596 535.639C577.595 535.813 577.596 535.971 577.595 536.109C577.592 538.162 577.617 540.097 577.644 542.049C577.646 542.156 577.647 542.263 577.649 542.37C577.677 544.444 577.705 546.61 577.695 549.153C577.656 558.608 577.673 566.387 577.696 573.104C577.7 574.357 577.704 575.571 577.708 576.75C577.708 576.754 577.708 576.757 577.708 576.761C577.728 581.934 577.745 586.433 577.733 590.852C577.71 598.762 577.75 604.128 577.798 608.306C577.813 609.61 577.829 610.805 577.844 611.929C577.877 614.329 577.906 616.524 577.912 618.756C577.922 622.978 577.972 626.66 578.02 630.498C578.024 630.839 578.028 631.179 578.032 631.519C578.084 635.687 578.132 639.583 578.12 643.93C578.118 644.94 577.916 645.77 577.672 645.791C577.427 645.81 577.231 645.013 577.233 644.004C577.244 639.77 577.198 635.983 577.147 631.819C577.143 631.478 577.138 631.134 577.134 630.79C577.086 626.94 577.036 623.21 577.025 618.908C577.02 616.764 576.993 614.666 576.961 612.321C576.945 611.186 576.929 609.959 576.913 608.586C576.864 604.351 576.822 598.904 576.845 590.922C576.858 586.559 576.841 582.111 576.822 576.945C576.818 575.759 576.813 574.534 576.809 573.266C576.786 566.524 576.768 558.717 576.808 549.205C576.817 546.802 576.792 544.75 576.763 542.686C576.762 542.571 576.76 542.455 576.759 542.339C576.732 540.408 576.704 538.361 576.708 536.192C576.709 535.898 576.71 535.522 576.71 535.07C576.717 529.961 576.737 514.673 576.988 493.784C576.989 493.719 576.99 493.654 576.991 493.589C577.159 479.504 577.253 471.651 577.052 465.678C576.893 461.011 576.859 457.492 576.846 454.596C576.844 454.044 576.842 453.521 576.84 453.022C576.833 450.865 576.828 449.155 576.771 447.484C576.6 442.398 576.307 438.723 575.752 434.256C575.282 430.428 575.01 425.902 574.773 421.848C574.772 421.842 574.772 421.836 574.772 421.83C574.743 421.35 574.716 420.878 574.688 420.416ZM577.49 147.234C577.501 146.24 577.707 145.443 577.951 145.452C578.196 145.463 578.386 146.279 578.376 147.273C578.351 149.643 578.327 152.011 578.303 154.378C578.292 155.371 578.086 156.167 577.842 156.158C577.597 156.147 577.407 155.332 577.417 154.339C577.441 151.972 577.466 149.604 577.49 147.234ZM570.267 424.544C570.22 423.577 570.378 422.613 570.619 422.393C570.859 422.175 571.091 422.785 571.138 423.751C571.163 424.262 571.207 425.103 571.268 426.231C571.705 434.392 572.953 457.699 573.264 482.408C573.291 484.477 573.317 486.312 573.343 488.118C573.451 495.788 574.063 501.795 573.995 516.364C573.724 573.99 572.547 631.668 572.913 689.074C572.934 692.647 572.962 696.087 572.996 699.457C573.166 717.226 573.149 734.658 573.082 752.311C573.027 766.9 572.493 793.904 572.429 800.239C572.419 801.235 572.212 802.023 571.968 802C571.723 801.997 571.533 801.201 571.543 800.198C571.607 793.907 572.14 767.01 572.195 752.458C572.261 734.84 572.28 717.442 572.109 699.719C572.075 696.238 572.043 692.739 572.014 689.071C571.543 631.667 571.764 573.888 572.034 516.278C572.102 501.851 572.566 496.085 572.458 488.448C572.433 486.642 572.405 484.783 572.379 482.699C572.071 458.326 570.844 435.404 570.403 427.123C570.34 425.96 570.293 425.084 570.267 424.544ZM570.773 378.324C570.739 367.21 570.905 351.456 571.05 337.673C571.121 330.89 571.188 324.733 571.223 319.705C571.278 311.918 571.504 307.079 571.729 302.238C571.731 302.186 571.733 302.134 571.736 302.082C571.96 297.255 572.182 292.367 572.237 284.533C572.294 276.596 572.182 265.618 572.069 254.531C572.069 254.523 572.069 254.514 572.069 254.505C571.957 243.481 571.395 232.298 571.453 224.229C571.654 196.071 572.314 178.742 572.818 169.96C573.699 154.61 572.812 137.207 573.916 121.519C574.155 119.789 574.821 122.711 574.617 125.9C574.612 126.015 574.606 126.131 574.6 126.246C574.546 127.343 574.502 128.302 574.464 129.654C574.431 131.612 574.425 133.069 574.42 134.398C574.406 137.881 574.174 162.097 573.682 170.675C573.204 179.007 573.616 195.978 573.413 224.316C573.356 232.234 572.843 243.192 572.955 254.274C572.956 254.304 572.956 254.334 572.956 254.365C573.068 265.372 573.181 276.455 573.124 284.525C573.067 292.641 572.834 297.755 572.607 302.643C572.604 302.69 572.602 302.738 572.6 302.786C572.377 307.579 572.162 312.199 572.109 319.697C572.073 324.834 572.007 331.068 571.935 337.892C571.79 351.612 571.625 367.151 571.66 378.168C571.663 379.164 571.466 380.006 571.222 380.049C570.977 380.091 570.776 379.32 570.773 378.324ZM565.253 378.079C564.363 346.866 564.731 315.551 565.858 284.815C565.915 276.793 566.017 265.6 566.119 254.41C566.121 254.283 566.122 254.156 566.124 254.03C566.225 242.969 566.325 231.945 566.382 224.051C566.584 195.894 566.795 178.497 567.299 169.715C567.769 161.516 567.776 159.267 567.789 155.897C567.79 155.805 567.791 155.714 567.791 155.622C567.791 155.616 567.79 155.61 567.789 155.604C567.778 155.488 567.772 155.391 567.769 155.341C567.764 155.24 567.762 155.157 567.761 155.126C567.759 155.054 567.759 154.994 567.759 154.973C567.759 154.885 567.759 154.785 567.76 154.721C567.766 154.121 567.799 152.244 567.839 150.755C567.881 149.23 567.933 148.143 567.989 146.996C567.995 146.88 568.001 146.764 568.007 146.648C568.058 145.614 568.113 144.489 568.175 142.868C568.213 141.881 568.439 141.183 568.681 141.305C568.923 141.428 569.088 142.322 569.051 143.31C568.986 145.015 568.927 146.212 568.875 147.25C568.87 147.366 568.864 147.481 568.858 147.596C568.804 148.694 568.76 149.655 568.722 151.007C568.689 152.965 568.683 154.42 568.678 155.749C568.664 159.238 568.654 161.842 568.162 170.427C567.684 178.76 567.471 195.705 567.268 224.044C567.211 231.952 567.11 242.989 567.009 254.04C567.008 254.17 567.007 254.3 567.006 254.431C566.904 265.627 566.801 276.804 566.744 284.807C566.523 316.007 566.877 346.532 566.139 377.92C566.157 383.716 566.156 388.941 566.154 393.831C566.148 408.252 566.145 419.301 566.652 429.762C566.763 432.049 566.846 438.187 566.945 446.862C566.974 449.384 567.004 452.239 567.037 455.282C567.118 462.728 567.214 471.547 567.339 481.466C567.365 483.544 567.392 485.356 567.417 487.163C567.526 494.854 567.613 500.716 567.544 515.319C567.46 533.216 567.152 563.143 566.936 579.182C566.828 587.079 566.736 591.786 566.661 594.938C566.641 595.826 566.621 596.604 566.603 597.317C566.557 599.177 566.521 600.608 566.495 602.565C566.304 616.342 566.379 626.051 566.549 641.779C566.559 642.785 566.369 643.668 566.125 643.742C565.88 643.817 565.673 643.062 565.662 642.049C565.492 626.302 565.416 616.436 565.609 602.473C565.637 600.425 565.676 598.907 565.723 597.008C565.74 596.305 565.759 595.553 565.778 594.71C565.852 591.607 565.943 586.955 566.05 579.097C566.266 563.087 566.573 533.202 566.657 515.361C566.725 500.903 566.641 495.151 566.533 487.493C566.507 485.674 566.48 483.857 566.453 481.76C566.328 471.835 566.231 462.983 566.15 455.537C566.117 452.502 566.087 449.644 566.058 447.135C565.957 438.282 565.877 432.53 565.782 430.551C565.256 419.733 565.261 408.197 565.266 393.643C565.268 388.811 565.27 383.688 565.253 378.079ZM566.184 698.774C566.174 697.811 566.365 696.965 566.61 696.897C566.854 696.829 567.06 697.565 567.07 698.529C567.121 703.89 567.165 707.467 567.199 710.494C567.262 716.02 567.293 718.535 567.275 722.542C567.227 732.717 567.19 742.538 567.156 751.373C567.101 766.068 567.056 777.995 566.991 784.338C566.981 785.307 566.774 786.166 566.529 786.14C566.285 786.145 566.096 785.261 566.106 784.301C566.17 777.998 566.215 766.167 566.27 751.523C566.304 742.679 566.34 732.825 566.388 722.586C566.406 718.71 566.377 716.312 566.315 710.934C566.281 707.852 566.235 704.314 566.184 698.774Z" fill="#875732"/>
</g>
<g filter="url(#filter2_i_4706_875)">
<mask id="mask2_4706_875" style="mask-type:alpha" maskUnits="userSpaceOnUse" x="5" y="0" width="594" height="377">
<path d="M5.90039 3.99999C5.90039 1.79085 7.69125 1.4723e-09 9.90039 3.28847e-09L594.9 4.84227e-07C597.11 4.86043e-07 598.9 1.79086 598.9 4L598.9 372.892C598.9 375.102 597.11 376.892 594.9 376.892L9.90038 376.892C7.69124 376.892 5.90039 375.102 5.90039 372.892L5.90039 3.99999Z" fill="#A6754F"/>
</mask>
<g mask="url(#mask2_4706_875)">
<rect x="5.90039" width="593" height="377" fill="#A6754F"/>
<g opacity="0.28">
<path d="M1.36133 70.3286C16.7935 76.4915 47.4171 93.5559 50.5549 101.963C61.9516 132.496 8.88336 136.909 0.631996 136.386" stroke="#875732" stroke-width="2.07046"/>
<path d="M651.229 133.323C648.05 132.281 639.251 130.545 629.489 131.945C617.287 133.694 598.719 160.267 587.78 165.88C576.84 171.493 533.878 161.201 520.316 167.91C506.754 174.618 456.019 154.1 442.991 156.7C419.007 161.487 387.055 139.279 359.005 157.683C349.651 163.82 308.61 150.703 304.22 154.209C299.959 157.612 209.442 175.751 202.497 181.322C202.179 181.577 201.92 181.915 201.578 182.138C176.557 198.504 138.307 193.51 121.987 188.878C121.84 188.836 121.72 188.82 121.572 188.786C115.328 187.375 80.6399 140.034 72.4717 139.516C65.8924 139.099 43.542 167.353 29.9035 173.874C29.7776 173.934 29.6455 173.977 29.5082 174.008C0.889049 180.417 -8.06431 169.726 -12.7499 168.17" stroke="#875732" stroke-width="2.07046"/>
<path d="M38.1328 -43.2792C75.4758 -22.6124 152.585 19.1188 162.278 20.7093C174.395 22.6975 239.39 25.5982 255.852 26.6419C272.314 27.6856 321.63 -2.12635 333.367 -5.04207C345.104 -7.95779 364.558 -3.06454 380.154 -2.07577C395.749 -1.08701 437.095 23.4934 446.246 19.1938C455.398 14.8942 500.858 20.2163 513.935 13.7257C527.012 7.23511 547.292 15.8406 564.62 16.9392C581.949 18.0378 619.178 22.8381 629.25 13.717C637.307 6.42016 645.404 3.35501 648.445 2.73454" stroke="#875732" stroke-width="2.07046"/>
<path d="M2.11523 -3.60669C30.3584 2.29737 93.9087 21.2171 122.164 49.6636C157.484 85.2216 263.668 75.243 271.726 72.7202C284.837 68.6153 326.141 35.4472 344.855 36.6336C363.569 37.8201 416.474 58.4507 424.743 58.975C433.012 59.4992 490.528 56.9756 500.986 56.4046C511.445 55.8337 543.637 59.1087 557.088 63.6636C570.538 68.2184 599.412 56.4747 601.574 57.8458C603.737 59.2169 646.781 65.6481 650.263 65.8688" stroke="#875732" stroke-width="2.07046"/>
<path d="M1.88477 16.2292C25.8807 21.0915 76.8299 38.5205 88.6594 69.3388C103.446 107.862 119.267 131.416 136.585 137.525C153.903 143.634 174.214 114.854 192.876 117.29C211.538 119.726 282.431 115.451 299.873 110.292C317.315 105.134 357.943 86.4114 368.801 87.0998C379.659 87.7882 445.58 100.738 458.568 105.32C471.557 109.902 498.665 95.3333 510.826 96.1043C522.987 96.8753 574.672 100.152 579.884 100.483C585.096 100.813 600.463 86.7532 610.453 87.3866C618.444 87.8932 639.263 89.2132 648.674 89.8098" stroke="#875732" stroke-width="2.07046"/>
<path d="M-0.119141 220.176C8.66047 223.523 28.1763 228.208 36.0027 220.176C45.7857 210.137 76.2635 202.105 87.5515 220.176C98.8396 238.248 186.134 243.268 198.551 243.268C210.968 243.268 288.479 223.188 324.977 243.268C361.475 263.348 445.383 196.375 485.644 209.427C525.905 222.479 595.138 189.347 609.437 189.347" stroke="#875732" stroke-width="2.07"/>
<path d="M3.64258 265.246C4.77139 268.252 13.5008 272.459 39.3881 265.246C71.7473 256.23 82.6591 280.574 107.117 291.394C131.574 302.214 282.458 273.361 314.065 291.394C345.671 309.427 415.657 322.051 448.393 312.132C481.128 302.214 530.043 299.509 559.768 312.132C583.548 322.231 602.537 316.34 609.059 312.132" stroke="#875732" stroke-width="2.07"/>
<path d="M634.4 214.956C635.278 214.956 630.508 206.48 597.396 223.071C556.007 243.809 504.458 221.268 489.783 235.694C475.109 250.121 447.771 227.579 423.69 260.94C399.608 294.302 475.991 265.449 496.686 260.94C517.38 256.432 552.373 273.564 572.316 273.564C592.258 273.564 621.607 261.842 632.519 254.629" stroke="#875732" stroke-width="2.07"/>
<path d="M2.13867 308.867C13.6776 308.867 39.8408 308.867 52.1825 308.867C67.6095 308.867 81.9077 304.359 112.009 322.392C142.111 340.425 231.663 308.867 264.774 322.392C297.886 335.917 442.373 335.917 468.336 335.917C494.299 335.917 586.484 308.867 604.169 335.917" stroke="#875732" stroke-width="2.07"/>
<path d="M-1.24805 354.351C6.27733 354.351 25.8433 354.351 43.9042 354.351C66.4804 354.351 150.012 365.171 178.609 365.171C207.205 365.171 374.645 375.991 405.875 365.171C437.105 354.351 595.515 348.941 606.05 365.171" stroke="#875732" stroke-width="2.07"/>
</g>
</g>
</g>
<path d="M9.58685 462.958C5.45805 455.889 -13.6831 381.797 17.5327 449.904C15.83 439.31 13.6732 420.505 18.6678 430.04C24.4096 441.001 30.1514 452.443 30.1535 455.976C32.1242 448.676 49.6541 394.624 47.0457 443.661C50.6403 428.148 58.0564 400.526 58.9645 414.148C59.8726 427.769 57.8294 441.769 56.6943 447.066C58.9645 439.31 63.732 425.045 64.6401 430.04C65.5482 435.034 62.3699 448.769 60.6672 455.012C57.6736 471.213 17.0598 475.753 9.58685 462.958Z" fill="url(#paint0_linear_4706_875)"/>
<path d="M546.487 462.474C542.358 455.405 523.217 381.313 554.433 449.42C552.73 438.826 550.574 420.021 555.568 429.556C561.31 440.517 567.052 451.959 567.054 455.492C569.025 448.192 586.554 394.141 583.946 443.177C587.541 427.664 594.957 400.043 595.865 413.664C596.773 427.285 594.73 441.285 593.595 446.582C595.865 438.826 600.632 424.561 601.54 429.556C602.449 434.55 599.27 448.285 597.568 454.528C594.574 470.729 553.96 475.269 546.487 462.474Z" fill="url(#paint1_linear_4706_875)"/>
<g filter="url(#filter3_i_4706_875)">
<path d="M34.9004 299.87C34.9004 300.036 34.9004 304.369 34.9004 308.514C34.9004 313.196 34.9837 298.53 35.1515 297.48C35.2805 296.673 35.5716 296.087 35.9489 295.625C36.138 295.394 36.4094 295.247 36.7463 295.244C39.0106 295.227 40.8609 301.692 41.9637 304.825C42.2993 305.749 42.5542 306.512 42.6803 307.141C42.7232 307.438 42.7232 307.688 42.7232 307.945" stroke="#875732" stroke-width="2" stroke-linecap="round"/>
<path d="M44.2373 295.327C44.2373 297.495 44.4039 302.217 44.5313 303.65C44.6738 305.252 46.0012 306.512 46.5463 307.016C46.7969 307.248 47.1747 307.188 47.4712 307.105C48.608 306.183 49.6174 304.17 50.4174 299.303C50.546 297.783 50.546 296.2 50.546 294.57" stroke="#875732" stroke-width="2" stroke-linecap="round"/>
<path d="M58.8732 295.579C58.7066 295.579 57.9546 295.579 56.8203 295.663C55.4271 295.765 54.9214 297.341 54.3751 298.686C53.3585 301.188 54.1618 304.157 54.5378 304.66C55.0996 305.412 56.3447 305.421 57.2683 305.296C57.7062 305.237 58.0253 304.921 58.2802 304.584C60.1031 302.175 60.1349 297.189 59.9255 295.459C59.8696 294.998 59.8826 294.413 59.9242 295.279C59.9659 296.145 60.0491 298.476 60.5084 302.342C60.9677 306.208 61.8005 311.538 62.2294 314.575C62.7393 318.184 62.5752 319.212 62.2824 320.093C61.9335 321.142 60.9803 321.904 60.1829 322.409C57.7931 320.998 54.9214 317.536 54.669 316.991C54.5832 316.696 54.5832 316.363 54.5832 316.02" stroke="#875732" stroke-width="2" stroke-linecap="round"/>
<path d="M68.2101 295.327C68.0435 295.161 67.4581 295.075 66.5345 295.241C65.6418 295.402 65.2677 296.834 65.0153 298.594C64.6944 300.832 65.1793 302.474 65.6828 303.062C66.1098 303.56 67.1098 303.655 68.2858 303.488C70.2321 303.212 70.562 300.132 71.1941 298.654C71.3211 298.358 71.4048 298.108 71.4477 297.854C71.532 297.356 71.5739 300.341 72.3663 307.427C72.8 311.306 74.4078 315.596 75.1358 318.076C76.2888 322.005 75.8664 323.752 75.2367 325.058C74.9264 325.701 74.1857 325.945 73.5145 326.071C72.8432 326.114 72.2502 325.947 71.7467 325.528C71.4931 325.276 71.2433 324.943 70.9859 324.6" stroke="#875732" stroke-width="2" stroke-linecap="round"/>
<path d="M76.0332 303.15C76.1997 303.15 76.6186 303.067 77.2899 302.691C79.4223 301.496 78.809 297.694 78.433 296.214C78.1118 294.95 76.1215 295.58 75.3657 295.788C73.6204 296.269 74.4333 301.52 75.5651 304.825C75.9605 305.979 77.2899 306.345 78.2551 306.597C79.9825 306.6 81.1609 306.181 81.8322 305.636C82.1703 305.341 82.5034 305.007 82.8466 304.664" stroke="#875732" stroke-width="2" stroke-linecap="round"/>
<path d="M83.8555 287C83.8555 290.604 84.1886 294.475 85.198 299.472C85.3696 300.955 85.4528 301.717 85.579 302.472C85.6219 302.893 85.6219 303.393 85.6219 303.907" stroke="#875732" stroke-width="2" stroke-linecap="round"/>
<path d="M81.5849 294.066C81.4183 294.066 81.6656 294.066 83.0031 293.941C84.0074 293.816 85.6729 293.566 87.1138 293.437C88.5548 293.309 89.7206 293.309 90.9218 293.309" stroke="#875732" stroke-width="2" stroke-linecap="round"/>
<path d="M83.3516 319.805C83.4348 321.218 83.8537 325.1 84.3572 325.94C84.5754 326.304 84.8606 326.447 85.1559 326.533C85.4511 326.619 85.7842 326.619 86.1224 326.41C88.2974 325.071 87.8939 320.492 87.9355 318.681C87.9623 317.514 90.3215 322.732 91.717 324.093C91.9606 324.33 92.3453 324.428 92.6418 324.514C92.9383 324.6 93.1882 324.6 93.3169 323.517C93.3623 317.539 93.0267 316.192 92.7327 315.52C92.6052 315.182 92.522 314.849 92.4362 314.506" stroke="#875732" stroke-width="2" stroke-linecap="round"/>
<path d="M95.2119 313.245C95.2119 314.58 95.545 317.277 96.6793 318.456C97.6607 319.475 98.8256 319.889 99.4552 319.932C99.7537 319.952 100.002 319.725 100.172 319.473C101.267 317.85 100.178 313.85 99.5044 312.03C99.3353 311.733 99.1688 311.483 98.9997 311.23C98.8306 310.976 98.6641 310.726 98.4925 310.469" stroke="#875732" stroke-width="2" stroke-linecap="round"/>
<path d="M103.034 306.683C103.034 306.767 103.034 306.85 103.034 307.018C103.034 307.185 103.034 307.435 103.492 307.397C107.619 307.056 111.107 305.505 111.444 305.756C112.358 306.438 108.939 309.858 106.783 313.485C106.189 314.484 106.231 315.261 106.105 315.764C106.043 316.014 106.062 316.267 106.52 316.313C106.978 316.358 107.894 316.192 108.908 315.815C109.921 315.437 111.003 314.854 112.119 314.254" stroke="#875732" stroke-width="2" stroke-linecap="round"/>
<path d="M68.9668 330.151C68.9668 331.817 68.9668 336.672 68.9668 342.312C68.9668 343.955 68.9668 343.122 69.0501 342.277C69.3452 339.281 70.1427 337.813 71.0651 336.632C71.2978 336.334 71.8183 336.46 72.1578 336.668C73.2542 339.054 73.928 342.093 74.222 342.722C74.3494 343.019 74.4327 343.269 74.7708 343.778" stroke="#875732" stroke-width="2" stroke-linecap="round"/>
<path d="M77.5474 339.741C78.3827 339.741 79.8161 339.574 80.2362 339.197C80.6274 338.846 80.5756 338.146 80.534 337.516C80.497 336.957 80.1567 336.463 79.6962 336.043C79.139 335.534 78.1405 335.703 77.343 335.786C76.9551 335.827 76.6289 336.036 76.4157 336.247C75.5723 337.08 75.1955 339.473 75.0656 341.208C75.0237 341.767 75.6094 342.262 76.3639 342.724C78.9657 343.44 82.0822 343.612 83.301 343.235C83.7704 343.024 83.9369 342.774 84.1085 342.264" stroke="#875732" stroke-width="2" stroke-linecap="round"/>
<path d="M83.6031 334.189C83.6031 338.888 83.7696 341.921 83.8971 343.017C83.9267 343.273 84.022 343.521 84.0232 343.441C84.0465 341.978 83.1842 339.67 83.1816 336.513C83.1811 335.869 83.4315 335.541 83.8087 335.203C84.7689 334.532 85.6193 334.106 86.1228 333.979C86.3764 333.937 86.6262 333.937 86.8836 333.937" stroke="#875732" stroke-width="2" stroke-linecap="round"/>
<path d="M87.6414 336.46C89.6451 336.46 93.0215 336.377 93.5678 336.126C93.8144 336.013 93.8644 335.708 93.5742 335.33C92.7842 334.299 91.2652 333.77 89.9227 333.518C88.6006 333.27 87.6439 333.599 87.1405 333.976C86.5945 334.385 86.2964 335.11 86.1702 335.866C85.9621 337.113 86.7128 338.807 87.972 339.99C89.9908 340.917 93.506 341.588 97.0528 341.635C97.5663 341.51 97.6496 341.26 97.7354 341.003" stroke="#875732" stroke-width="2" stroke-linecap="round"/>
</g>
<g filter="url(#filter4_i_4706_875)">
<path d="M503.39 59.7511C503.39 63.3282 503.594 70.7796 503.75 72.1242C503.787 72.4372 503.903 72.7415 503.956 73.1036C504.211 74.856 504.213 64.7084 504.42 62.9554C504.61 61.3502 505.964 60.0667 507.098 59.2885C507.359 59.1098 507.716 59.3364 507.976 59.5933C509.263 63.4365 510.507 69.8513 511.072 72.48C511.228 73.0541 511.33 73.3604 511.435 73.676" stroke="#875732" stroke-width="2" stroke-linecap="round"/>
<path d="M513.91 64.3929C514.319 64.3929 516.061 64.3929 518.535 64.3419C519.783 64.1887 520.507 63.9814 521.28 63.6735C521.643 63.4677 521.95 63.1613 522.265 62.8457" stroke="#875732" stroke-width="2" stroke-linecap="round"/>
<path d="M517.005 58.8223C517.005 59.0265 517.005 59.2307 517.005 61.7357C517.005 64.2406 517.005 69.0401 517.314 74.6039" stroke="#875732" stroke-width="2" stroke-linecap="round"/>
<path d="M524.741 60.3699C524.741 63.3282 525.048 70.3711 525.665 71.0921C525.952 71.4271 526.282 71.6089 526.593 71.4588C528.384 70.5948 527.836 67.7037 528.092 64.9234C528.206 63.6944 528.145 61.75 528.196 61.0058C528.247 60.2616 528.349 60.7722 528.402 61.1884C528.584 62.6318 529.172 64.2813 530.101 65.7279C531.324 67.6341 532.784 68.0008 533.401 68.2592C533.692 68.3811 534.018 68.2112 534.278 67.8523C535.466 66.2122 535.157 64.5041 535.16 60.6964C534.854 58.4328 534.541 56.9691 534.387 56.3518C534.334 56.0408 534.334 55.7345 534.025 55.1094" stroke="#875732" stroke-width="2" stroke-linecap="round"/>
<path d="M518.862 48.9204C519.066 48.1004 520.298 46.2468 521.18 44.8002C522.549 42.5542 524.729 39.5505 527.054 37.0656C528.341 35.691 529.996 34.8964 532.155 33.917C536.783 31.8186 539.068 32.0062 544.987 32.0031C547.987 32.0016 549.695 34.1661 551.039 35.0434C552.419 35.9434 553.922 37.9723 555.064 39.8893C555.868 41.2389 556.404 42.7254 556.871 44.5294C557.326 46.2852 557.233 50.8452 553.849 59.457C551.459 65.5394 547.133 69.124 545.64 71.4417C544.559 73.1184 543.518 74.2886 541.266 76.6976C536.496 81.7983 532.276 84.8128 531.043 85.6344C526.305 88.7909 522.581 93.6784 520.623 95.7934C520.001 96.5686 519.382 97.2927 518.661 98.1158C518.348 98.5304 518.144 98.9389 517.624 99.9786" stroke="#875732" stroke-width="2" stroke-linecap="round"/>
<path d="M518.862 48.3012C518.246 48.3012 516.194 47.6885 514.175 46.5002C512.442 45.4803 510.927 44.7983 509.532 44.1778C507.921 43.4617 506.595 42.6322 500.945 41.6512C491.67 40.0411 489.681 42.2113 487.923 42.7807C486.229 43.3294 484.934 44.8911 481.895 47.9778C478.855 51.0666 479.253 54.3786 478.996 56.2353C478.628 58.8964 480.07 61.3845 481.363 63.5088C482.48 65.3434 483.579 66.8616 484.818 67.8441C486.222 68.9567 487.806 70.4697 493.67 75.1531C495.515 76.6271 496.681 77.1785 498.933 78.9206C507.348 85.4278 509.157 85.7377 510.502 86.6691C511.892 87.6323 513.49 89.3458 514.218 90.9472C514.78 92.1817 514.839 93.8822 515.096 95.9957C515.148 96.9705 515.148 98.6043 515.25 99.5992C515.352 100.594 515.557 100.9 515.767 101.216" stroke="#875732" stroke-width="2" stroke-linecap="round"/>
<path d="M471.207 78.9368C472.231 78.7326 474.704 77.9094 480.263 76.6717C482.317 76.2143 483.987 75.3349 485.95 74.0925C487.295 73.5741 488.223 73.1626 488.841 72.8531C489.152 72.7479 489.458 72.7479 490.083 72.4385" stroke="#875732" stroke-width="2" stroke-linecap="round"/>
<path d="M557.852 50.7767C559.891 50.164 565.476 48.92 566.872 48.5611C567.234 48.4063 567.642 48.2021 568.108 47.9437C568.574 47.6853 569.084 47.379 570.229 46.7539" stroke="#875732" stroke-width="2" stroke-linecap="round"/>
<path d="M569.61 43.66C569.61 43.8643 569.61 46.5224 569.764 50.2373C569.812 51.4083 570.223 51.0929 570.585 50.7308C573.002 48.3141 575.898 45.2134 576.469 44.0762C574.676 43.66 572.089 43.5579 571.421 43.4032C571.059 43.3506 570.65 43.3506 570.229 43.3506" stroke="#875732" stroke-width="2" stroke-linecap="round"/>
<path d="M464.9 75.4482C464.959 75.5066 465.076 75.5658 466.128 76.0912C467.097 76.5758 468.929 77.5499 469.933 78.0894C470.938 78.6289 471.055 78.7164 471.159 78.7907C471.263 78.8649 471.35 78.9232 471.44 78.9833" stroke="#875732" stroke-width="2" stroke-linecap="round"/>
<path d="M471.441 78.9834C471.383 79.2459 471.324 79.5084 471.046 80.8393C470.768 82.1703 470.273 84.5618 469.585 87.2025" stroke="#875732" stroke-width="2" stroke-linecap="round"/>
<path d="M472.943 73.415C473.499 73.7942 475.377 75.0889 476.3 75.6086C476.778 75.8779 477.184 76.183 477.45 76.5069C477.509 76.5957 477.567 76.6832 477.612 76.7721C477.657 76.8609 477.686 76.9484 477.716 77.1269" stroke="#875732" stroke-width="2" stroke-linecap="round"/>
<path d="M477.715 77.127C477.715 77.3019 477.715 77.9462 477.672 79.1795C477.619 80.6511 477.304 82.2157 477.054 83.4521C476.892 84.1052 476.832 84.4022 476.817 84.6227C476.802 84.7265 476.773 84.814 476.743 84.9042" stroke="#875732" stroke-width="2" stroke-linecap="round"/>
<path d="M465.392 80.5236C465.745 80.5236 467.586 80.4056 468.68 80.1818C469.386 80.0373 469.976 79.898 470.795 79.7202C471.378 79.5111 471.646 79.3922 471.854 79.3028C471.973 79.2725 472.121 79.2725 472.273 79.2725" stroke="#875732" stroke-width="2" stroke-linecap="round"/>
</g>
<path d="M158.579 165.28L158.221 138.649L164.221 138.649L164.357 148.774L174.712 148.774L174.576 138.649L180.575 138.649L180.934 165.28L174.934 165.28L174.786 154.276L164.431 154.276L164.579 165.28L158.579 165.28ZM193.39 146.023C198.739 146.023 201.987 148.851 202.047 153.321L202.208 165.28L196.935 165.28L196.528 163.408C195.026 165.433 193.005 165.701 191.629 165.701C187.388 165.701 184.295 163.064 184.243 159.205C184.214 157.027 185.186 155.461 186.779 154.582C187.955 153.933 189.441 153.627 191.123 153.627L196.32 153.627L196.316 153.321C196.298 151.984 195.138 151.029 193.037 151.029C191.623 151.029 190.176 151.449 188.517 153.054L184.305 149.577C186.641 147.093 190.103 146.023 193.39 146.023ZM192.484 161.078C194.547 161.078 196.287 159.74 196.377 157.868L192.021 157.868C191.409 157.868 190.914 157.983 190.573 158.212C190.195 158.479 190.009 158.861 190.015 159.32C190.028 160.275 190.841 161.078 192.484 161.078ZM214.007 165.701C207.435 165.701 204.426 160.734 204.361 155.919C204.294 150.952 207.285 146.023 213.704 146.023C217.678 146.023 220.722 147.896 222.188 151.755L216.791 153.933C216.5 152.175 215.3 151.029 213.772 151.029C211.097 151.029 210.251 153.474 210.284 155.919C210.316 158.327 211.15 160.695 213.863 160.695C215.354 160.695 216.562 159.587 216.883 157.906L222.107 159.931C220.894 163.485 217.943 165.701 214.007 165.701ZM224.914 165.28L224.555 138.649L230.325 138.649L230.514 152.672L235.856 146.444L243.537 146.444L236.754 153.55L244.44 165.28L237.6 165.28L232.603 157.41L230.61 159.817L230.684 165.28L224.914 165.28ZM258.242 165.968C250.179 165.968 244.755 160.428 244.641 151.984C244.527 143.463 249.763 137.885 257.749 137.885C263.71 137.885 268.146 140.942 270.163 145.985L264.651 148.163C263.579 145.145 261.074 143.616 257.826 143.616C253.241 143.616 250.568 146.596 250.639 151.907C250.711 157.218 253.541 160.237 258.165 160.237C261.489 160.237 263.875 158.67 264.751 155.575L270.397 157.715C268.596 163.026 264.165 165.968 258.242 165.968ZM279.974 146.023C285.323 146.023 288.571 148.851 288.631 153.321L288.792 165.28L283.519 165.28L283.112 163.408C281.61 165.433 279.589 165.701 278.213 165.701C273.971 165.701 270.879 163.064 270.827 159.205C270.798 157.027 271.77 155.461 273.363 154.582C274.539 153.933 276.025 153.627 277.707 153.627L282.904 153.627L282.899 153.321C282.881 151.984 281.722 151.029 279.621 151.029C278.207 151.029 276.76 151.449 275.101 153.054L270.889 149.577C273.224 147.093 276.687 146.023 279.974 146.023ZM279.068 161.078C281.131 161.078 282.871 159.74 282.961 157.868L278.604 157.868C277.993 157.868 277.498 157.983 277.157 158.212C276.778 158.479 276.593 158.861 276.599 159.32C276.612 160.275 277.425 161.078 279.068 161.078ZM314.578 146.023C319.125 146.023 321.315 149.73 321.36 153.13L321.524 165.28L315.754 165.28L315.615 154.926C315.596 153.512 315.256 151.029 312.887 151.029C309.028 151.029 309.931 155.652 309.979 159.205L310.06 165.28L304.328 165.28L304.188 154.811C304.181 154.353 304.404 151.029 301.615 151.029C297.641 151.029 298.505 155.652 298.553 159.205L298.635 165.28L292.865 165.28L292.573 146.444L298.114 146.444L298.147 148.889C299.378 146.635 301.356 146.023 303.076 146.023C304.986 146.023 307.327 146.749 308.591 149.768C310.192 146.673 312.4 146.023 314.578 146.023ZM336.043 146.023C341.087 146.023 343.783 150.379 343.857 155.919C343.944 162.377 340.397 165.701 336.308 165.701C334.512 165.701 332.554 164.975 331.353 163.79L331.478 173.075L325.708 173.075L325.35 146.444L331.12 146.444L331.139 147.857C332.42 146.52 334.4 146.023 336.043 146.023ZM334.636 160.695C337.005 160.695 338.169 159.129 338.124 155.843C338.081 152.595 336.876 151.067 334.583 151.067C331.526 151.067 330.675 153.168 330.711 155.843C330.747 158.518 331.77 160.695 334.636 160.695ZM365.734 159.855L375.325 159.855L375.398 165.28L356.597 165.28L356.536 160.695C360.288 158.441 368.469 152.977 368.392 147.284C368.368 145.45 367.506 143.922 365.328 143.922C362.424 143.922 361.812 146.711 361.687 148.774L356.025 148.316C355.963 143.654 359.216 138.343 365.406 138.343C370.374 138.343 374.051 141.82 374.121 147.093C374.183 151.64 370.739 156.951 365.734 159.855ZM389 165.663C380.096 165.663 379.218 157.18 379.146 151.793C379.077 146.711 379.65 138.191 388.63 138.191C397.648 138.191 398.414 146.787 398.481 151.793C398.553 157.18 397.903 165.663 389 165.663ZM388.926 160.161C392.288 160.161 392.657 156.301 392.599 151.984C392.538 147.475 392.067 143.731 388.705 143.731C385.342 143.731 384.972 147.475 385.033 151.984C385.091 156.301 385.563 160.161 388.926 160.161ZM411.918 159.855L421.509 159.855L421.582 165.28L402.782 165.28L402.72 160.695C406.473 158.441 414.653 152.977 414.576 147.284C414.552 145.45 413.69 143.922 411.512 143.922C408.608 143.922 407.996 146.711 407.871 148.774L402.209 148.316C402.147 143.654 405.4 138.343 411.59 138.343C416.558 138.343 420.235 141.82 420.306 147.093C420.367 151.64 416.923 156.951 411.918 159.855ZM435.463 146.673C441.042 146.673 444.846 151.029 444.91 155.843C444.979 160.925 440.916 165.701 434.993 165.701C429.72 165.701 425.543 161.995 424.908 157.41L430.551 156.454C430.648 158.021 431.9 160.199 434.843 160.199C437.861 160.199 438.823 157.83 438.796 155.843C438.771 153.971 437.79 152.06 434.733 152.06C432.67 152.06 431.537 153.092 430.94 154.124L425.611 152.824L428.095 138.649L443.533 138.649L443.607 144.151L432.869 144.151L432.3 147.284C433.439 146.749 434.546 146.673 435.463 146.673Z" fill="#FFE4D0"/>
<path d="M143.162 252.998L137.825 236.271L141.761 236.271L145.124 247.19L148.231 237.279L151.423 237.279L154.844 247.19L157.889 236.271L161.849 236.271L156.938 252.998L153.29 252.998L149.919 243.254L146.786 252.998L143.162 252.998ZM172.979 247.19C172.983 247.526 172.963 247.838 172.922 248.342L165.146 248.342C165.303 249.278 166.032 249.998 167.592 249.998C168.48 249.998 169.412 249.662 170.073 248.846L172.599 251.054C171.37 252.47 169.7 253.262 167.612 253.262C163.244 253.262 161.547 250.19 161.506 247.142C161.466 244.19 163.03 240.903 167.254 240.903C170.95 240.903 172.93 243.542 172.979 247.19ZM165.062 245.678L169.502 245.678C169.44 244.574 168.447 243.902 167.247 243.902C165.735 243.902 165.196 244.91 165.062 245.678ZM169.461 246.134L169.484 246.11L169.461 246.134ZM177.985 253.262C176.257 253.262 174.876 252.278 174.845 249.998L174.661 236.271L178.285 236.271L178.463 249.518C178.47 250.07 178.711 250.142 179.167 250.142C179.359 250.142 179.647 250.118 179.934 250.046L179.972 252.878C179.232 253.166 178.513 253.262 177.985 253.262ZM186.883 253.262C182.755 253.262 180.865 250.142 180.824 247.118C180.782 243.998 182.66 240.903 186.692 240.903C189.188 240.903 191.1 242.079 192.021 244.502L188.631 245.87C188.448 244.766 187.695 244.046 186.735 244.046C185.055 244.046 184.523 245.582 184.544 247.118C184.564 248.63 185.088 250.118 186.792 250.118C187.728 250.118 188.487 249.422 188.689 248.366L191.97 249.638C191.208 251.87 189.355 253.262 186.883 253.262ZM198.712 253.262C194.872 253.262 192.577 250.31 192.533 247.07C192.49 243.83 194.682 240.903 198.546 240.903C202.362 240.903 204.657 243.806 204.701 247.07C204.745 250.31 202.504 253.262 198.712 253.262ZM198.67 250.118C200.614 250.118 201.097 248.558 201.077 247.07C201.057 245.582 200.557 244.046 198.589 244.046C196.621 244.046 196.137 245.558 196.157 247.07C196.177 248.51 196.678 250.118 198.67 250.118ZM220.33 240.903C223.186 240.903 224.562 243.23 224.59 245.366L224.693 252.998L221.069 252.998L220.982 246.494C220.97 245.606 220.757 244.046 219.269 244.046C216.845 244.046 217.412 246.95 217.442 249.182L217.493 252.998L213.893 252.998L213.805 246.422C213.801 246.134 213.941 244.046 212.189 244.046C209.693 244.046 210.236 246.95 210.266 249.182L210.317 252.998L206.693 252.998L206.51 241.167L209.99 241.167L210.011 242.702C210.783 241.287 212.026 240.903 213.106 240.903C214.306 240.903 215.776 241.359 216.57 243.254C217.576 241.311 218.962 240.903 220.33 240.903ZM237.718 247.19C237.723 247.526 237.703 247.838 237.662 248.342L229.886 248.342C230.043 249.278 230.772 249.998 232.332 249.998C233.22 249.998 234.152 249.662 234.813 248.846L237.338 251.054C236.109 252.47 234.44 253.262 232.352 253.262C227.984 253.262 226.287 250.19 226.246 247.142C226.206 244.19 227.77 240.903 231.994 240.903C235.69 240.903 237.669 243.542 237.718 247.19ZM229.802 245.678L234.242 245.678C234.179 244.574 233.186 243.902 231.986 243.902C230.474 243.902 229.936 244.91 229.802 245.678ZM234.2 246.134L234.224 246.11L234.2 246.134ZM252.885 243.974L249.861 243.974L249.927 248.894C249.933 249.35 249.947 250.334 251.435 250.334C251.915 250.334 252.441 250.238 252.967 250.07L252.981 252.878C252.216 253.142 251.45 253.262 250.61 253.262C248.378 253.262 246.372 252.254 246.332 249.23L246.261 243.974L244.365 243.974L244.327 241.167L246.223 241.167L246.2 239.415L249.764 236.751L249.823 241.167L252.847 241.167L252.885 243.974ZM260.194 253.262C256.354 253.262 254.059 250.31 254.015 247.07C253.972 243.83 256.164 240.903 260.028 240.903C263.844 240.903 266.139 243.806 266.183 247.07C266.227 250.31 263.986 253.262 260.194 253.262ZM260.152 250.118C262.096 250.118 262.579 248.558 262.559 247.07C262.539 245.582 262.038 244.046 260.07 244.046C258.102 244.046 257.619 245.558 257.639 247.07C257.658 248.51 258.16 250.118 260.152 250.118ZM274.62 252.998L274.395 236.271L278.163 236.271L278.248 242.63L284.752 242.63L284.667 236.271L288.435 236.271L288.66 252.998L284.892 252.998L284.799 246.086L278.295 246.086L278.388 252.998L274.62 252.998ZM296.585 240.903C299.945 240.903 301.985 242.678 302.022 245.486L302.123 252.998L298.811 252.998L298.556 251.822C297.613 253.094 296.343 253.262 295.479 253.262C292.815 253.262 290.873 251.606 290.84 249.182C290.822 247.814 291.432 246.83 292.433 246.278C293.171 245.87 294.105 245.678 295.161 245.678L298.425 245.678L298.422 245.486C298.411 244.646 297.683 244.046 296.363 244.046C295.475 244.046 294.566 244.31 293.524 245.318L290.879 243.134C292.346 241.575 294.521 240.903 296.585 240.903ZM296.016 250.358C297.312 250.358 298.405 249.518 298.461 248.342L295.725 248.342C295.341 248.342 295.03 248.414 294.816 248.558C294.578 248.726 294.461 248.966 294.465 249.254C294.473 249.854 294.984 250.358 296.016 250.358ZM309.635 253.262C305.507 253.262 303.617 250.142 303.577 247.118C303.535 243.998 305.413 240.903 309.445 240.903C311.941 240.903 313.853 242.079 314.774 244.502L311.384 245.87C311.201 244.766 310.448 244.046 309.488 244.046C307.808 244.046 307.276 245.582 307.297 247.118C307.317 248.63 307.841 250.118 309.545 250.118C310.481 250.118 311.24 249.422 311.442 248.366L314.723 249.638C313.961 251.87 312.107 253.262 309.635 253.262ZM316.587 252.998L316.362 236.271L319.986 236.271L320.104 245.078L323.46 241.167L328.284 241.167L324.024 245.63L328.851 252.998L324.555 252.998L321.416 248.054L320.165 249.566L320.211 252.998L316.587 252.998ZM337.621 253.43C332.557 253.43 329.15 249.95 329.079 244.646C329.007 239.295 332.296 235.791 337.312 235.791C341.056 235.791 343.842 237.711 345.108 240.879L341.647 242.247C340.973 240.351 339.4 239.391 337.36 239.391C334.48 239.391 332.801 241.263 332.846 244.598C332.891 247.934 334.669 249.83 337.573 249.83C339.661 249.83 341.159 248.846 341.709 246.902L345.255 248.246C344.124 251.582 341.341 253.43 337.621 253.43ZM351.372 240.903C354.732 240.903 356.772 242.678 356.809 245.486L356.91 252.998L353.598 252.998L353.343 251.822C352.4 253.094 351.13 253.262 350.266 253.262C347.602 253.262 345.66 251.606 345.627 249.182C345.609 247.814 346.219 246.83 347.22 246.278C347.959 245.87 348.892 245.678 349.948 245.678L353.212 245.678L353.209 245.486C353.198 244.646 352.47 244.046 351.15 244.046C350.262 244.046 349.354 244.31 348.311 245.318L345.666 243.134C347.133 241.575 349.308 240.903 351.372 240.903ZM350.803 250.358C352.099 250.358 353.192 249.518 353.248 248.342L350.512 248.342C350.128 248.342 349.817 248.414 349.603 248.558C349.365 248.726 349.248 248.966 349.252 249.254C349.26 249.854 349.771 250.358 350.803 250.358ZM373.207 240.903C376.063 240.903 377.439 243.23 377.467 245.366L377.57 252.998L373.946 252.998L373.858 246.494C373.846 245.606 373.633 244.046 372.145 244.046C369.721 244.046 370.289 246.95 370.319 249.182L370.37 252.998L366.77 252.998L366.681 246.422C366.678 246.134 366.817 244.046 365.065 244.046C362.569 244.046 363.113 246.95 363.143 249.182L363.194 252.998L359.57 252.998L359.387 241.167L362.867 241.167L362.887 242.702C363.66 241.287 364.903 240.903 365.983 240.903C367.183 240.903 368.653 241.359 369.447 243.254C370.453 241.311 371.839 240.903 373.207 240.903ZM386.791 240.903C389.959 240.903 391.652 243.638 391.698 247.118C391.753 251.174 389.525 253.262 386.957 253.262C385.829 253.262 384.599 252.806 383.845 252.062L383.923 257.893L380.299 257.893L380.074 241.167L383.698 241.167L383.71 242.055C384.515 241.215 385.759 240.903 386.791 240.903ZM385.907 250.118C387.395 250.118 388.125 249.134 388.098 247.07C388.07 245.03 387.313 244.07 385.873 244.07C383.953 244.07 383.419 245.39 383.442 247.07C383.464 248.75 384.107 250.118 385.907 250.118ZM405.641 249.59L411.665 249.59L411.711 252.998L399.903 252.998L399.864 250.118C402.221 248.702 407.359 245.27 407.311 241.695C407.296 240.543 406.755 239.583 405.387 239.583C403.563 239.583 403.178 241.335 403.1 242.63L399.544 242.343C399.504 239.415 401.548 236.079 405.436 236.079C408.556 236.079 410.865 238.263 410.91 241.575C410.948 244.43 408.785 247.766 405.641 249.59ZM420.356 253.238C414.764 253.238 414.212 247.91 414.166 244.526C414.124 241.335 414.484 235.983 420.124 235.983C425.788 235.983 426.268 241.383 426.31 244.526C426.356 247.91 425.948 253.238 420.356 253.238ZM420.309 249.782C422.421 249.782 422.653 247.358 422.616 244.646C422.578 241.815 422.282 239.463 420.17 239.463C418.058 239.463 417.826 241.815 417.864 244.646C417.901 247.358 418.197 249.782 420.309 249.782ZM434.851 249.59L440.875 249.59L440.921 252.998L429.113 252.998L429.074 250.118C431.431 248.702 436.569 245.27 436.521 241.695C436.506 240.543 435.965 239.583 434.597 239.583C432.773 239.583 432.388 241.335 432.31 242.63L428.754 242.343C428.714 239.415 430.758 236.079 434.646 236.079C437.766 236.079 440.075 238.263 440.119 241.575C440.158 244.43 437.995 247.766 434.851 249.59ZM449.741 241.311C453.245 241.311 455.634 244.046 455.675 247.07C455.718 250.262 453.166 253.262 449.446 253.262C446.134 253.262 443.511 250.934 443.112 248.054L446.656 247.454C446.717 248.438 447.503 249.806 449.351 249.806C451.247 249.806 451.851 248.318 451.835 247.07C451.819 245.894 451.203 244.694 449.283 244.694C447.987 244.694 447.275 245.342 446.9 245.99L443.553 245.174L445.113 236.271L454.809 236.271L454.856 239.727L448.112 239.727L447.754 241.695C448.47 241.359 449.165 241.311 449.741 241.311ZM459.116 247.742L458.554 236.271L462.13 236.271L461.852 247.742L459.116 247.742ZM458.683 252.998L458.637 249.59L462.381 249.59L462.427 252.998L458.683 252.998Z" fill="#FFE4D0"/>
<path d="M360.979 114.251C362.73 115.998 361.492 118.989 359.019 118.989H242.981C240.508 118.989 239.271 115.998 241.021 114.251L290.706 64.6547C291.794 63.5682 293.558 63.5743 294.639 64.6682L298.989 69.0701C300.07 70.1647 301.836 70.17 302.924 69.0819L307.361 64.6446C308.444 63.5618 310.2 63.5611 311.283 64.6429L360.979 114.251Z" fill="#FF9D66"/>
<path d="M277.568 118.988L301.341 95.2148L325.257 118.988H277.568Z" fill="#DB693B"/>
<path d="M331.443 52.5183C333.868 53.9581 332.847 57.6785 330.026 57.6785H302.861C301.329 57.6785 300.087 56.4363 300.087 54.904V38.7787C300.087 36.628 302.428 35.2951 304.278 36.3929L331.443 52.5183Z" fill="#DB693B"/>
<defs>
<filter id="filter0_i_4706_875" x="23.9004" y="374" width="19" height="95" filterUnits="userSpaceOnUse" color-interpolation-filters="sRGB">
<feFlood flood-opacity="0" result="BackgroundImageFix"/>
<feBlend mode="normal" in="SourceGraphic" in2="BackgroundImageFix" result="shape"/>
<feColorMatrix in="SourceAlpha" type="matrix" values="0 0 0 0 0 0 0 0 0 0 0 0 0 0 0 0 0 0 127 0" result="hardAlpha"/>
<feOffset dy="2"/>
<feGaussianBlur stdDeviation="4"/>
<feComposite in2="hardAlpha" operator="arithmetic" k2="-1" k3="1"/>
<feColorMatrix type="matrix" values="0 0 0 0 0 0 0 0 0 0 0 0 0 0 0 0 0 0 0.25 0"/>
<feBlend mode="normal" in2="shape" result="effect1_innerShadow_4706_875"/>
</filter>
<filter id="filter1_i_4706_875" x="561.9" y="375" width="19" height="95" filterUnits="userSpaceOnUse" color-interpolation-filters="sRGB">
<feFlood flood-opacity="0" result="BackgroundImageFix"/>
<feBlend mode="normal" in="SourceGraphic" in2="BackgroundImageFix" result="shape"/>
<feColorMatrix in="SourceAlpha" type="matrix" values="0 0 0 0 0 0 0 0 0 0 0 0 0 0 0 0 0 0 127 0" result="hardAlpha"/>
<feOffset dy="2"/>
<feGaussianBlur stdDeviation="4"/>
<feComposite in2="hardAlpha" operator="arithmetic" k2="-1" k3="1"/>
<feColorMatrix type="matrix" values="0 0 0 0 0 0 0 0 0 0 0 0 0 0 0 0 0 0 0.25 0"/>
<feBlend mode="normal" in2="shape" result="effect1_innerShadow_4706_875"/>
</filter>
<filter id="filter2_i_4706_875" x="5.90039" y="0" width="593" height="380.892" filterUnits="userSpaceOnUse" color-interpolation-filters="sRGB">
<feFlood flood-opacity="0" result="BackgroundImageFix"/>
<feBlend mode="normal" in="SourceGraphic" in2="BackgroundImageFix" result="shape"/>
<feColorMatrix in="SourceAlpha" type="matrix" values="0 0 0 0 0 0 0 0 0 0 0 0 0 0 0 0 0 0 127 0" result="hardAlpha"/>
<feOffset dy="4"/>
<feGaussianBlur stdDeviation="5.15"/>
<feComposite in2="hardAlpha" operator="arithmetic" k2="-1" k3="1"/>
<feColorMatrix type="matrix" values="0 0 0 0 0 0 0 0 0 0 0 0 0 0 0 0 0 0 0.25 0"/>
<feBlend mode="normal" in2="shape" result="effect1_innerShadow_4706_875"/>
</filter>
<filter id="filter3_i_4706_875" x="33.9004" y="286" width="79.2188" height="58.7784" filterUnits="userSpaceOnUse" color-interpolation-filters="sRGB">
<feFlood flood-opacity="0" result="BackgroundImageFix"/>
<feBlend mode="normal" in="SourceGraphic" in2="BackgroundImageFix" result="shape"/>
<feColorMatrix in="SourceAlpha" type="matrix" values="0 0 0 0 0 0 0 0 0 0 0 0 0 0 0 0 0 0 127 0" result="hardAlpha"/>
<feOffset dy="-1"/>
<feComposite in2="hardAlpha" operator="arithmetic" k2="-1" k3="1"/>
<feColorMatrix type="matrix" values="0 0 0 0 1 0 0 0 0 0.894118 0 0 0 0 0.815686 0 0 0 0.5 0"/>
<feBlend mode="normal" in2="shape" result="effect1_innerShadow_4706_875"/>
</filter>
<filter id="filter4_i_4706_875" x="463.9" y="30.9996" width="114.032" height="71.2166" filterUnits="userSpaceOnUse" color-interpolation-filters="sRGB">
<feFlood flood-opacity="0" result="BackgroundImageFix"/>
<feBlend mode="normal" in="SourceGraphic" in2="BackgroundImageFix" result="shape"/>
<feColorMatrix in="SourceAlpha" type="matrix" values="0 0 0 0 0 0 0 0 0 0 0 0 0 0 0 0 0 0 127 0" result="hardAlpha"/>
<feOffset dy="-1"/>
<feComposite in2="hardAlpha" operator="arithmetic" k2="-1" k3="1"/>
<feColorMatrix type="matrix" values="0 0 0 0 1 0 0 0 0 0.894118 0 0 0 0 0.815686 0 0 0 0.5 0"/>
<feBlend mode="normal" in2="shape" result="effect1_innerShadow_4706_875"/>
</filter>
<linearGradient id="paint0_linear_4706_875" x1="32.4001" y1="410.484" x2="32.4001" y2="470.356" gradientUnits="userSpaceOnUse">
<stop stop-color="#CBEB92"/>
<stop offset="1" stop-color="#89A26E"/>
</linearGradient>
<linearGradient id="paint1_linear_4706_875" x1="569.3" y1="410" x2="569.3" y2="469.872" gradientUnits="userSpaceOnUse">
<stop stop-color="#CBEB92"/>
<stop offset="1" stop-color="#89A26E"/>
</linearGradient>
</defs>
</svg>
