<svg width="671" height="303" viewBox="0 0 671 303" fill="none" xmlns="http://www.w3.org/2000/svg">
<g filter="url(#filter0_d_3916_4541)">
<path d="M650.864 73.9933L7.75732 95.4043L10.8837 161.926C37.1032 179.323 41.4995 189.417 13.0789 208.633L16.2053 275.155L659.312 253.744L656.186 187.222C622.304 170.08 624.017 159.783 653.991 140.515L650.864 73.9933Z" fill="url(#paint0_linear_3916_4541)"/>
<path d="M447.253 260.352L330.028 178.446L522.769 258.201L447.253 260.352Z" fill="#DB2C17" fill-opacity="0.4"/>
<path d="M330.911 263.617L331.153 178.495L362.458 262.72L330.911 263.617Z" fill="#8F2415" fill-opacity="0.4"/>
<path d="M655.501 187.077C640.651 179.13 632.149 174.58 630.701 161.366L337.304 179.661L331.086 180.049L656.071 187.382L655.501 187.077Z" fill="#8F2415" fill-opacity="0.4"/>
<path d="M336.06 182.341L8.31952 95.4659L115.057 91.266L336.06 182.341Z" fill="#8F2415" fill-opacity="0.4"/>
<path d="M201.986 88.8033L336.037 182.859L115.619 91.2903L201.986 88.8033Z" fill="#DB2C17" fill-opacity="0.4"/>
<path d="M256.165 87.517L336.038 182.859L202.526 89.3457L256.165 87.517Z" fill="#8F2415" fill-opacity="0.4"/>
<path d="M299.089 85.7434L334.934 182.292L255.624 86.9747L299.089 85.7434Z" fill="#DB2C17" fill-opacity="0.4"/>
<path d="M335.217 84.7133L334.935 182.292L299.09 85.7435L335.217 84.7133Z" fill="#8F2415" fill-opacity="0.4"/>
<path d="M335.216 84.7131L334.935 182.292L373.054 83.238L335.216 84.7131Z" fill="#DB2C17" fill-opacity="0.4"/>
<path d="M373.054 83.238L334.957 181.774L418.207 82.0798L373.054 83.238Z" fill="#8F2415" fill-opacity="0.4"/>
<path d="M417.081 82.0316L334.957 181.774L476.932 79.953L417.081 82.0316Z" fill="#DB2C17" fill-opacity="0.4"/>
<path d="M476.369 79.9286L334.957 181.774L566.135 77.0698L476.369 79.9286Z" fill="#8F2415" fill-opacity="0.4"/>
<path d="M565.573 77.0451L335.543 181.28L649.711 73.9424L565.573 77.0451Z" fill="#DB2C17" fill-opacity="0.4"/>
<path d="M330.028 178.445L616.488 255.192L523.201 258.451L330.028 178.445Z" fill="#8F2415" fill-opacity="0.4"/>
<path d="M400.107 261.423L330.027 178.445L447.15 259.849L400.107 261.423Z" fill="#8F2415" fill-opacity="0.4"/>
<path d="M362.656 262.915L331.153 178.494L400.834 261.847L362.656 262.915Z" fill="#DB2C17" fill-opacity="0.4"/>
<path d="M330.831 263.998L331.119 178.493L298.075 265.308L330.831 263.998Z" fill="#DB2C17" fill-opacity="0.4"/>
<path d="M297.896 265.692L331.107 179.531L258.548 266.711L297.896 265.692Z" fill="#8F2415" fill-opacity="0.4"/>
<path d="M259.727 266.827L331.108 179.531L207.724 268.661L259.727 266.827Z" fill="#DB2C17" fill-opacity="0.4"/>
<path d="M207.996 268L331.107 179.53L129.842 270.477L207.996 268Z" fill="#8F2415" fill-opacity="0.4"/>
<path d="M129.982 270.804L331.108 179.53L56.4185 273.525L129.982 270.804Z" fill="#DB2C17" fill-opacity="0.4"/>
<path d="M16.9159 274.409L329.938 180.518L71.7025 272.111L16.9159 274.409Z" fill="#8F2415" fill-opacity="0.4"/>
<path d="M658.307 252.886L600.707 255.062L334.865 179.92L658.307 252.886Z" fill="#DB2C17" fill-opacity="0.4"/>
<path d="M16.8924 274.927L332.773 180.121L15.065 239.03L16.8924 274.927Z" fill="#DB2C17" fill-opacity="0.4"/>
<path d="M12.9916 208.832L14.5032 239.005L329.938 180.517L12.9916 208.832Z" fill="#8F2415" fill-opacity="0.4"/>
<path d="M332.189 180.616L32.1441 183.188C34.5261 192.824 24.8043 198.672 13.5546 208.857L332.189 180.616Z" fill="#DB2C17" fill-opacity="0.4"/>
<path d="M332.751 180.64L11.1177 160.994C22.5608 169.558 28.0233 174.365 32.7063 183.212L332.751 180.64Z" fill="#8F2415" fill-opacity="0.4"/>
<path d="M332.188 180.616L9.74072 127.712L11.6803 161.019L332.188 180.616Z" fill="#DB2C17" fill-opacity="0.4"/>
<path d="M9.71886 128.231L7.75684 95.4424L331.041 181.086L9.71886 128.231Z" fill="#DB2C17" fill-opacity="0.4"/>
<path d="M657.921 222.761L333.899 180.171L659.41 253.452L657.921 222.761Z" fill="#8F2415" fill-opacity="0.4"/>
<path d="M655.486 187.875L335.588 180.244L657.314 223.772L655.486 187.875Z" fill="#DB2C17" fill-opacity="0.4"/>
<path d="M655.279 140.628C639.697 148.752 635.243 153.571 631.782 162.45L339.549 179.896L650.837 73.9908L651.899 114.527L341.61 179.64L655.279 140.628Z" fill="#8F2415" fill-opacity="0.4"/>
<path d="M652.393 103.128L338.964 180.39L654.085 142.134L652.393 103.128Z" fill="#DB2C17" fill-opacity="0.4"/>
<path d="M33.2794 153.62L31.3726 113.047L630.644 93.0949L632.551 133.669C614.712 157.883 613.768 171.157 635.389 194.057L637.34 235.574L38.0688 255.526L36.1176 214.009C53.3939 189.813 55.6614 176.496 33.2794 153.62Z" stroke="url(#paint1_linear_3916_4541)" stroke-width="4.50605"/>
</g>
<path d="M130.563 201.032L128.849 163.316L137.349 163.044L138.001 177.383L152.673 176.914L152.021 162.575L160.521 162.303L162.235 200.019L153.735 200.291L153.027 184.706L138.355 185.176L139.063 200.76L130.563 201.032ZM179.011 172.17C186.591 171.928 191.321 175.787 191.608 182.118L192.378 199.055L184.907 199.294L184.245 196.66C182.209 199.597 179.357 200.067 177.408 200.13C171.399 200.322 166.898 196.727 166.649 191.261C166.509 188.177 167.816 185.913 170.033 184.596C171.67 183.623 173.762 183.122 176.144 183.046L183.507 182.81L183.487 182.378C183.401 180.484 181.715 179.183 178.738 179.278C176.735 179.342 174.704 180.003 172.425 182.352L166.3 177.617C169.497 173.992 174.355 172.319 179.011 172.17ZM178.41 193.541C181.334 193.447 183.738 191.474 183.78 188.817L177.608 189.014C176.742 189.042 176.045 189.227 175.573 189.567C175.048 189.963 174.802 190.513 174.832 191.162C174.893 192.515 176.082 193.615 178.41 193.541ZM209.114 199.116C199.802 199.414 195.314 192.512 195.004 185.694C194.684 178.66 198.698 171.541 207.794 171.25C213.424 171.07 217.822 173.585 220.073 178.986L212.526 182.316C212.033 179.839 210.281 178.269 208.116 178.339C204.326 178.46 203.238 181.963 203.395 185.426C203.55 188.835 204.84 192.154 208.684 192.031C210.795 191.963 212.456 190.339 212.836 187.942L220.329 190.574C218.771 195.664 214.691 198.938 209.114 199.116ZM224.548 198.026L222.834 160.31L231.009 160.049L231.911 179.908L239.198 170.842L250.081 170.494L240.793 180.87L252.214 197.142L242.522 197.451L235.086 186.526L232.371 190.027L232.723 197.765L224.548 198.026ZM271.8 197.491C260.376 197.856 252.44 190.252 251.896 178.293C251.348 166.226 258.514 158.085 269.83 157.723C278.275 157.453 284.698 161.583 287.784 168.638L280.074 171.973C278.418 167.745 274.8 165.693 270.198 165.84C263.702 166.048 260.049 170.392 260.391 177.913C260.733 185.435 264.88 189.583 271.431 189.374C276.141 189.223 279.451 186.896 280.551 182.471L288.647 185.247C286.336 192.853 280.191 197.222 271.8 197.491ZM301.686 168.247C309.266 168.005 313.996 171.864 314.284 178.195L315.053 195.132L307.582 195.371L306.92 192.737C304.885 195.674 302.033 196.145 300.084 196.207C294.074 196.399 289.573 192.804 289.325 187.339C289.184 184.254 290.491 181.99 292.709 180.673C294.345 179.7 296.437 179.199 298.819 179.123L306.182 178.888L306.163 178.455C306.076 176.561 304.391 175.26 301.413 175.355C299.41 175.419 297.38 176.08 295.101 178.429L288.976 173.694C292.172 170.069 297.03 168.396 301.686 168.247ZM301.085 189.618C304.009 189.524 306.413 187.551 306.455 184.894L300.283 185.091C299.417 185.119 298.72 185.304 298.248 185.644C297.724 186.04 297.478 186.59 297.507 187.239C297.569 188.592 298.757 189.692 301.085 189.618ZM350.715 166.68C357.158 166.474 360.428 171.625 360.647 176.441L361.429 193.649L353.254 193.911L352.587 179.246C352.496 177.244 351.903 173.741 348.547 173.848C343.078 174.023 344.567 180.532 344.796 185.565L345.187 194.168L337.066 194.428L336.392 179.601C336.362 178.952 336.527 174.232 332.575 174.359C326.945 174.539 328.379 181.05 328.608 186.082L328.999 194.686L320.824 194.948L319.557 168.272L327.407 168.021L327.565 171.484C329.206 168.234 331.982 167.279 334.419 167.201C337.126 167.114 340.475 168.037 342.402 172.256C344.531 167.799 347.629 166.778 350.715 166.68ZM381.128 165.707C388.275 165.478 392.291 171.528 392.647 179.374C393.063 188.519 388.188 193.389 382.395 193.575C379.85 193.656 377.042 192.716 375.288 191.092L375.885 204.242L367.71 204.503L365.996 166.787L374.171 166.526L374.262 168.528C376.017 166.575 378.8 165.781 381.128 165.707ZM379.799 186.559C383.156 186.451 384.733 184.179 384.522 179.525C384.312 174.926 382.536 172.815 379.287 172.919C374.956 173.058 373.846 176.074 374.018 179.861C374.19 183.649 375.738 186.689 379.799 186.559ZM423.821 183.959L437.41 183.524L437.76 191.208L411.122 192.06L410.827 185.567C416.042 182.203 427.385 174.091 427.018 166.028C426.9 163.43 425.611 161.304 422.525 161.403C418.41 161.534 417.669 165.514 417.586 168.443L409.543 168.05C409.243 161.448 413.612 153.776 422.382 153.495C429.421 153.27 434.788 158.03 435.127 165.498C435.42 171.937 430.781 179.618 423.821 183.959ZM457.048 191.133C444.434 191.537 442.805 179.558 442.458 171.929C442.131 164.732 442.557 152.633 455.28 152.227C468.057 151.818 469.531 163.964 469.853 171.053C470.2 178.682 469.663 190.73 457.048 191.133ZM456.694 183.341C461.459 183.189 461.806 177.704 461.528 171.59C461.238 165.204 460.401 159.921 455.637 160.073C450.872 160.225 450.518 165.547 450.808 171.933C451.086 178.047 451.93 183.493 456.694 183.341ZM489.256 181.866L502.846 181.432L503.195 189.116L476.558 189.967L476.263 183.474C481.477 180.11 492.82 171.998 492.454 163.935C492.335 161.338 491.046 159.212 487.96 159.31C483.845 159.442 483.105 163.421 483.021 166.35L474.978 165.957C474.678 159.356 479.047 151.683 487.818 151.403C494.856 151.178 500.223 155.938 500.562 163.405C500.855 169.844 496.216 177.525 489.256 181.866ZM531.124 171.586L537.08 171.396L537.434 179.188L531.479 179.378L531.879 188.198L523.704 188.46L523.303 179.64L506.412 180.18L506.195 175.418L523.127 150.707L530.165 150.482L531.124 171.586ZM516.236 172.062L522.949 171.847L522.521 162.432L516.236 172.062Z" fill="#FFECC5"/>
<path d="M70.6074 227.816L73.4054 234.253L81.4683 233.985L75.1346 238.231L77.9326 244.668L71.2202 240.856L64.8866 245.103L67.0717 238.5L60.3593 234.687L68.4222 234.419L70.6074 227.816Z" fill="#FBB910"/>
<path d="M96.1323 226.966L98.9303 233.403L106.993 233.134L100.66 237.381L103.458 243.818L96.7451 240.006L90.4115 244.252L92.5966 237.65L85.8842 233.837L93.9471 233.569L96.1323 226.966Z" fill="#FBB910"/>
<path d="M121.656 226.116L124.454 232.553L132.517 232.284L126.183 236.531L128.981 242.968L122.269 239.155L115.935 243.402L118.12 236.799L111.408 232.987L119.471 232.719L121.656 226.116Z" fill="#FBB910"/>
<path d="M147.182 225.267L149.98 231.703L158.042 231.435L151.709 235.682L154.507 242.119L147.794 238.306L141.461 242.553L143.646 235.95L136.934 232.138L144.996 231.869L147.182 225.267Z" fill="#FBB910"/>
<path d="M172.707 224.416L175.504 230.853L183.567 230.585L177.234 234.832L180.032 241.269L173.319 237.456L166.986 241.703L169.171 235.1L162.458 231.288L170.521 231.019L172.707 224.416Z" fill="#FBB910"/>
<path d="M198.23 223.567L201.028 230.004L209.091 229.736L202.757 233.982L205.555 240.419L198.843 236.607L192.509 240.854L194.694 234.251L187.982 230.438L196.045 230.17L198.23 223.567Z" fill="#FBB910"/>
<path d="M223.755 222.717L226.553 229.154L234.616 228.885L228.282 233.132L231.08 239.569L224.368 235.757L218.034 240.004L220.219 233.401L213.507 229.588L221.57 229.32L223.755 222.717Z" fill="#FBB910"/>
<path d="M249.279 221.867L252.077 228.304L260.14 228.035L253.807 232.282L256.605 238.719L249.892 234.907L243.558 239.153L245.744 232.55L239.031 228.738L247.094 228.47L249.279 221.867Z" fill="#FBB910"/>
<path d="M274.804 221.017L277.602 227.453L285.665 227.185L279.331 231.432L282.129 237.869L275.417 234.056L269.083 238.303L271.269 231.7L264.556 227.888L272.619 227.619L274.804 221.017Z" fill="#FBB910"/>
<path d="M300.329 220.167L303.127 226.604L311.19 226.336L304.856 230.583L307.654 237.02L300.942 233.207L294.608 237.454L296.793 230.851L290.081 227.039L298.144 226.77L300.329 220.167Z" fill="#FBB910"/>
<path d="M325.852 219.317L328.65 225.754L336.713 225.486L330.38 229.732L333.178 236.169L326.465 232.357L320.132 236.604L322.317 230.001L315.604 226.188L323.667 225.92L325.852 219.317Z" fill="#FBB910"/>
<path d="M351.377 218.468L354.175 224.905L362.238 224.637L355.904 228.883L358.702 235.32L351.99 231.508L345.656 235.755L347.841 229.152L341.129 225.339L349.192 225.071L351.377 218.468Z" fill="#FBB910"/>
<path d="M376.902 217.618L379.7 224.055L387.763 223.786L381.429 228.033L384.227 234.47L377.515 230.658L371.181 234.904L373.366 228.302L366.654 224.489L374.717 224.221L376.902 217.618Z" fill="#FBB910"/>
<path d="M402.427 216.769L405.225 223.206L413.288 222.937L406.954 227.184L409.752 233.621L403.04 229.809L396.706 234.055L398.891 227.453L392.179 223.64L400.242 223.372L402.427 216.769Z" fill="#FBB910"/>
<path d="M427.951 215.918L430.749 222.355L438.812 222.087L432.478 226.334L435.276 232.771L428.564 228.958L422.23 233.205L424.415 226.602L417.703 222.79L425.766 222.521L427.951 215.918Z" fill="#FBB910"/>
<path d="M453.476 215.069L456.274 221.506L464.337 221.238L458.003 225.485L460.801 231.922L454.089 228.109L447.755 232.356L449.94 225.753L443.228 221.941L451.291 221.672L453.476 215.069Z" fill="#FBB910"/>
<path d="M478.999 214.219L481.797 220.656L489.86 220.388L483.527 224.635L486.325 231.071L479.612 227.259L473.279 231.506L475.464 224.903L468.751 221.091L476.814 220.822L478.999 214.219Z" fill="#FBB910"/>
<path d="M504.525 213.369L507.323 219.806L515.386 219.537L509.052 223.784L511.85 230.221L505.138 226.409L498.804 230.655L500.989 224.053L494.277 220.24L502.34 219.972L504.525 213.369Z" fill="#FBB910"/>
<path d="M530.048 212.52L532.846 218.957L540.909 218.688L534.575 222.935L537.373 229.372L530.661 225.56L524.327 229.806L526.512 223.204L519.8 219.391L527.863 219.123L530.048 212.52Z" fill="#FBB910"/>
<path d="M555.574 211.67L558.372 218.107L566.435 217.838L560.101 222.085L562.899 228.522L556.187 224.71L549.853 228.956L552.038 222.353L545.326 218.541L553.389 218.273L555.574 211.67Z" fill="#FBB910"/>
<path d="M581.099 210.819L583.897 217.256L591.959 216.988L585.626 221.235L588.424 227.672L581.711 223.859L575.378 228.106L577.563 221.503L570.851 217.691L578.913 217.422L581.099 210.819Z" fill="#FBB910"/>
<path d="M606.623 209.97L609.421 216.407L617.483 216.139L611.15 220.386L613.948 226.823L607.235 223.01L600.902 227.257L603.087 220.654L596.374 216.842L604.437 216.573L606.623 209.97Z" fill="#FBB910"/>
<path d="M63.9785 120.594L66.7765 127.031L74.8394 126.762L68.5057 131.009L71.3037 137.446L64.5913 133.634L58.2577 137.88L60.4428 131.277L53.7304 127.465L61.7933 127.197L63.9785 120.594Z" fill="#FBB910"/>
<path d="M89.5034 119.744L92.3014 126.181L100.364 125.912L94.0306 130.159L96.8286 136.596L90.1162 132.783L83.7826 137.03L85.9677 130.427L79.2553 126.615L87.3182 126.346L89.5034 119.744Z" fill="#FBB910"/>
<path d="M115.027 118.893L117.825 125.33L125.888 125.062L119.554 129.309L122.352 135.746L115.64 131.933L109.306 136.18L111.491 129.577L104.779 125.765L112.842 125.496L115.027 118.893Z" fill="#FBB910"/>
<path d="M140.553 118.044L143.351 124.481L151.414 124.213L145.08 128.459L147.878 134.896L141.166 131.084L134.832 135.331L137.017 128.728L130.305 124.916L138.368 124.647L140.553 118.044Z" fill="#FBB910"/>
<path d="M166.078 117.194L168.876 123.631L176.938 123.363L170.605 127.609L173.403 134.046L166.69 130.234L160.357 134.481L162.542 127.878L155.83 124.065L163.892 123.797L166.078 117.194Z" fill="#FBB910"/>
<path d="M191.602 116.345L194.4 122.782L202.462 122.513L196.129 126.76L198.927 133.197L192.214 129.385L185.881 133.631L188.066 127.029L181.353 123.216L189.416 122.948L191.602 116.345Z" fill="#FBB910"/>
<path d="M217.126 115.495L219.924 121.932L227.987 121.663L221.653 125.91L224.451 132.347L217.739 128.535L211.405 132.781L213.59 126.178L206.878 122.366L214.941 122.098L217.126 115.495Z" fill="#FBB910"/>
<path d="M242.651 114.644L245.449 121.081L253.512 120.813L247.178 125.06L249.976 131.497L243.264 127.684L236.93 131.931L239.115 125.328L232.403 121.516L240.466 121.247L242.651 114.644Z" fill="#FBB910"/>
<path d="M268.176 113.794L270.974 120.231L279.037 119.963L272.703 124.209L275.501 130.646L268.789 126.834L262.455 131.081L264.64 124.478L257.928 120.666L265.991 120.397L268.176 113.794Z" fill="#FBB910"/>
<path d="M293.7 112.945L296.498 119.382L304.561 119.114L298.227 123.36L301.025 129.797L294.313 125.985L287.979 130.232L290.165 123.629L283.452 119.816L291.515 119.548L293.7 112.945Z" fill="#FBB910"/>
<path d="M319.224 112.095L322.022 118.532L330.085 118.263L323.751 122.51L326.549 128.947L319.837 125.135L313.503 129.381L315.688 122.779L308.976 118.966L317.039 118.698L319.224 112.095Z" fill="#FBB910"/>
<path d="M344.748 111.246L347.546 117.683L355.609 117.414L349.276 121.661L352.074 128.098L345.361 124.286L339.028 128.532L341.213 121.929L334.5 118.117L342.563 117.849L344.748 111.246Z" fill="#FBB910"/>
<path d="M370.273 110.396L373.071 116.833L381.134 116.564L374.801 120.811L377.599 127.248L370.886 123.435L364.553 127.682L366.738 121.079L360.025 117.267L368.088 116.998L370.273 110.396Z" fill="#FBB910"/>
<path d="M395.798 109.547L398.596 115.984L406.659 115.715L400.326 119.962L403.124 126.399L396.411 122.586L390.078 126.833L392.263 120.23L385.55 116.418L393.613 116.149L395.798 109.547Z" fill="#FBB910"/>
<path d="M421.323 108.696L424.121 115.133L432.184 114.865L425.85 119.111L428.648 125.548L421.936 121.736L415.602 125.983L417.787 119.38L411.075 115.568L419.138 115.299L421.323 108.696Z" fill="#FBB910"/>
<path d="M446.847 107.847L449.645 114.284L457.708 114.016L451.374 118.262L454.172 124.699L447.46 120.887L441.126 125.134L443.311 118.531L436.599 114.719L444.662 114.45L446.847 107.847Z" fill="#FBB910"/>
<path d="M472.371 106.997L475.169 113.434L483.232 113.166L476.898 117.412L479.696 123.849L472.984 120.037L466.65 124.284L468.835 117.681L462.123 113.868L470.186 113.6L472.371 106.997Z" fill="#FBB910"/>
<path d="M497.896 106.147L500.694 112.584L508.757 112.315L502.423 116.562L505.221 122.999L498.509 119.186L492.175 123.433L494.36 116.83L487.648 113.018L495.711 112.75L497.896 106.147Z" fill="#FBB910"/>
<path d="M523.419 105.298L526.217 111.735L534.28 111.466L527.947 115.713L530.745 122.15L524.032 118.337L517.699 122.584L519.884 115.981L513.171 112.169L521.234 111.901L523.419 105.298Z" fill="#FBB910"/>
<path d="M548.945 104.447L551.743 110.884L559.806 110.616L553.472 114.863L556.27 121.3L549.558 117.487L543.224 121.734L545.409 115.131L538.697 111.319L546.76 111.05L548.945 104.447Z" fill="#FBB910"/>
<path d="M574.47 103.597L577.268 110.034L585.331 109.766L578.997 114.012L581.795 120.449L575.083 116.637L568.749 120.884L570.935 114.281L564.222 110.468L572.285 110.2L574.47 103.597Z" fill="#FBB910"/>
<path d="M599.994 102.748L602.792 109.185L610.854 108.917L604.521 113.163L607.319 119.6L600.606 115.788L594.273 120.035L596.458 113.432L589.746 109.619L597.808 109.351L599.994 102.748Z" fill="#FBB910"/>
<path d="M435.107 25.9385L158.99 60.3002L149.238 63.4479L158.742 70.4536L151.843 75.6064L158.612 75.7721L153.104 83.3778L165.061 88.9923L155.803 91.6683L164.883 96.2447L157.996 100.914L168.562 104.075L164.434 114.618L448.227 82.8629L439.171 77.3195L444.738 67.2962L434.101 67.0358L439.585 60.397L434.349 56.8823L439.822 50.7271L434.598 46.7289L434.776 39.4764L429.068 35.4664L435.107 25.9385Z" fill="#FFEFB9" fill-opacity="0.71"/>
<path d="M258.818 69.0505C258.83 69.1803 258.819 69.2977 258.784 69.4027C258.462 69.214 258.157 68.9872 257.871 68.7224C257.598 68.4418 257.307 68.1993 256.997 67.9949C256.701 67.7747 256.381 67.622 256.039 67.5369C255.711 67.4505 255.33 67.4999 254.896 67.685C254.669 67.5894 254.467 67.6078 254.29 67.7404C254.113 67.873 253.951 68.0042 253.802 68.1341L253.814 68.2639C253.684 68.2758 253.546 68.2739 253.399 68.2582C253.267 68.2413 253.137 68.2531 253.01 68.2938C252.896 68.3188 252.8 68.3857 252.723 68.4946C252.66 68.6022 252.64 68.7859 252.664 69.0455C252.371 69.0286 252.131 69.1087 251.944 69.2859C251.771 69.4617 251.621 69.6572 251.496 69.8724C251.384 70.0862 251.271 70.2856 251.157 70.4706C251.042 70.6412 250.904 70.7193 250.742 70.7049C250.744 70.7194 250.731 70.7423 250.705 70.7738C250.605 70.9575 250.484 71.1359 250.339 71.3091C250.208 71.4666 250.085 71.6306 249.97 71.8011C249.436 72.65 248.957 73.5303 248.531 74.442C248.12 75.3525 247.761 76.2799 247.454 77.2244C247.135 77.399 246.907 77.609 246.77 77.8543C246.631 78.0852 246.537 78.3338 246.489 78.6001C246.453 78.8506 246.434 79.1142 246.43 79.391C246.439 79.652 246.427 79.915 246.393 80.1799C246.372 80.4291 246.307 80.6679 246.197 80.8961C246.085 81.11 245.892 81.3022 245.617 81.4729L245.737 81.8328C245.876 81.7619 245.985 81.7593 246.063 81.8248C246.142 81.8903 246.195 81.9874 246.221 82.1159C246.247 82.2444 246.253 82.3821 246.237 82.529C246.234 82.6602 246.223 82.7704 246.202 82.8596C245.913 83.206 245.778 83.553 245.795 83.9005C245.811 84.2337 245.855 84.5641 245.929 84.892C246.003 85.2199 246.04 85.5438 246.04 85.8638C246.053 86.1681 245.906 86.4725 245.599 86.7769C245.463 86.7166 245.33 86.6924 245.2 86.7043C245.085 86.7149 244.957 86.7556 244.818 86.8265C244.706 86.8659 244.62 86.8882 244.563 86.8935C244.505 86.8988 244.428 86.8548 244.332 86.7618C244.252 86.6818 244.191 86.571 244.149 86.4294C244.109 86.3022 244.074 86.1671 244.047 86.0241C244.034 85.8799 244.013 85.7363 243.986 85.5933C243.972 85.449 243.954 85.3271 243.93 85.2274C244.249 84.7328 244.422 84.2369 244.449 83.7398C244.491 83.2414 244.481 82.7404 244.421 82.2368C244.375 81.7318 244.336 81.2262 244.304 80.72C244.272 80.2137 244.357 79.7041 244.557 79.1912C244.543 79.0325 244.512 78.9335 244.464 78.8942C244.432 78.8535 244.381 78.7781 244.313 78.668L244.478 78.5656C244.36 78.0673 244.297 77.6148 244.289 77.2082C244.294 76.7859 244.317 76.3255 244.359 75.8271L244.369 75.6953L244.274 75.6166C244.164 75.5249 244.103 75.4213 244.093 75.3059C244.097 75.1891 244.115 75.0711 244.148 74.9517C244.195 74.831 244.236 74.7182 244.27 74.6133C244.317 74.4926 244.321 74.3758 244.281 74.2631C244.222 74.0939 244.156 73.9254 244.082 73.7575C244.022 73.5739 243.969 73.3897 243.923 73.2048C243.784 72.7956 243.655 72.4219 243.537 72.0836C243.418 71.7452 243.22 71.4069 242.942 71.0687C242.674 71.1659 242.41 71.2919 242.147 71.4468C241.884 71.5873 241.637 71.7553 241.408 71.9508C241.193 72.145 241.002 72.3661 240.836 72.6141C240.669 72.862 240.555 73.127 240.494 73.4091L240.478 73.476C240.494 73.4891 240.503 73.51 240.506 73.5389C240.529 73.6386 240.51 73.7422 240.447 73.8498C240.397 73.9416 240.334 74.0492 240.258 74.1725C240.181 74.2814 240.113 74.4113 240.054 74.5621C239.993 74.6986 239.979 74.8599 240.011 75.0461C240.038 75.1891 240.032 75.357 239.991 75.5498C239.95 75.7426 239.896 75.9368 239.826 76.1322C239.757 76.3277 239.672 76.5172 239.573 76.7009C239.487 76.8833 239.407 77.0361 239.331 77.1594L239.333 77.1811C239.189 77.5143 239.082 77.8586 239.013 78.2141C238.943 78.5696 238.882 78.9316 238.828 79.3002C238.773 79.6543 238.697 80.0104 238.598 80.3686C238.513 80.7109 238.369 81.0441 238.166 81.3682C238.362 81.7576 238.442 82.1576 238.407 82.5682C238.385 82.963 238.313 83.3696 238.191 83.788C238.082 84.1908 237.967 84.6013 237.845 85.0198C237.737 85.4225 237.701 85.8258 237.738 86.2298C237.744 86.3019 237.75 86.3668 237.755 86.4245C237.775 86.4809 237.788 86.5452 237.795 86.6173C237.733 86.7393 237.639 86.8207 237.512 86.8614C237.398 86.8864 237.267 86.891 237.12 86.8754C236.972 86.8453 236.83 86.8073 236.695 86.7615C236.559 86.7012 236.445 86.6462 236.353 86.5964C236.152 86.4692 236.037 86.3198 236.006 86.148C235.975 85.9617 235.972 85.7729 235.998 85.5814C236.024 85.3899 236.043 85.199 236.055 85.0088C236.067 84.8187 236.022 84.6482 235.921 84.4974C235.986 84.0986 236.067 83.713 236.164 83.3404C236.274 82.9522 236.37 82.5652 236.451 82.1796C236.545 81.7782 236.618 81.386 236.671 81.003C236.736 80.6042 236.757 80.195 236.733 79.7753C236.886 79.5431 236.987 79.2938 237.036 79.0275C237.084 78.7613 237.118 78.4963 237.138 78.2327C237.157 77.969 237.184 77.7047 237.218 77.4398C237.252 77.1748 237.323 76.9138 237.43 76.6567C237.443 76.6409 237.45 76.6331 237.45 76.6331C237.448 76.6186 237.454 76.6035 237.467 76.5878C237.52 76.2048 237.525 75.8625 237.483 75.5608C237.439 75.2448 237.379 74.9011 237.301 74.53C237.295 74.4579 237.279 74.3648 237.254 74.2507C237.243 74.1352 237.232 74.0126 237.22 73.8828C237.208 73.7529 237.191 73.6382 237.167 73.5385C237.156 73.4231 237.142 73.3444 237.124 73.3024C237.12 73.2592 237.108 73.2165 237.09 73.1746C237.072 73.1326 237.06 73.09 237.057 73.0467C237.031 72.7726 237.058 72.5011 237.135 72.2322C237.211 71.9489 237.236 71.6629 237.209 71.3744C237.187 71.1291 237.094 70.9049 236.929 70.7017C236.779 70.4827 236.59 70.3254 236.363 70.2298C236.332 70.218 236.289 70.2147 236.231 70.22C236.029 70.2385 235.867 70.2969 235.745 70.3953C235.636 70.478 235.552 70.5876 235.491 70.724C235.43 70.846 235.385 70.9883 235.356 71.151C235.34 71.2979 235.325 71.452 235.311 71.6133C235.316 71.671 235.31 71.7589 235.291 71.877C235.287 71.9937 235.272 72.0678 235.246 72.0993C235.187 72.2502 235.1 72.4109 234.985 72.5814C234.884 72.7507 234.789 72.912 234.702 73.0655C234.463 73.4801 234.261 73.8986 234.096 74.321C233.944 74.7277 233.817 75.1684 233.715 75.6433C233.541 75.6447 233.398 75.6723 233.286 75.7261C233.189 75.7786 233.109 75.8514 233.044 75.9446C232.98 76.0378 232.917 76.1453 232.856 76.2673C232.794 76.3893 232.717 76.5055 232.626 76.6157L232.488 76.781L232.606 76.8793C232.375 77.0604 232.221 77.2854 232.144 77.5543C232.067 77.8233 232.02 78.104 232.003 78.3964C231.994 78.6155 231.981 78.7985 231.966 78.9454C231.936 79.0936 231.889 79.2143 231.824 79.3074C231.759 79.3861 231.662 79.4459 231.535 79.4866C231.392 79.5142 231.204 79.5241 230.971 79.5164L230.906 79.5223L230.866 79.5695C230.646 79.706 230.529 79.855 230.514 80.0163C230.484 80.1645 230.483 80.3101 230.511 80.4531C230.524 80.5973 230.536 80.7272 230.546 80.8426C230.542 80.9593 230.447 81.0335 230.261 81.065C230.076 81.111 229.875 81.1367 229.657 81.142C229.439 81.1474 229.239 81.1075 229.057 81.0223C229.045 80.8925 229.029 80.7922 229.008 80.7213C228.925 80.1325 228.981 79.5527 229.176 78.9821C229.357 78.4128 229.577 77.8762 229.836 77.3725L229.834 77.3508L229.856 77.3489L229.852 77.3056C229.917 76.9068 230.018 76.4903 230.152 76.0561C230.273 75.6233 230.424 75.2022 230.604 74.7929C230.785 74.3836 230.997 73.9933 231.239 73.622C231.467 73.252 231.729 72.9299 232.024 72.6556C231.97 72.5442 231.933 72.4602 231.913 72.4039C231.907 72.3317 231.917 72.2799 231.943 72.2484C231.968 72.2025 232.008 72.1625 232.063 72.1284C232.132 72.0929 232.222 72.0338 232.33 71.9512C232.376 71.8161 232.457 71.6632 232.572 71.4927C232.686 71.3077 232.815 71.1214 232.957 70.9337C233.099 70.7317 233.235 70.5447 233.364 70.3728C233.509 70.1996 233.626 70.0507 233.716 69.9261C234.031 69.5482 234.304 69.1887 234.534 68.8476C234.778 68.4907 234.995 68.0781 235.185 67.6098C235.437 67.6595 235.709 67.6928 236.001 67.7097C236.308 67.7253 236.581 67.6858 236.82 67.5913C236.864 67.7618 236.943 67.9001 237.054 68.0063C237.18 68.1112 237.325 68.1852 237.489 68.2284C237.553 68.4553 237.67 68.692 237.838 68.9385C238.006 69.185 238.174 69.4387 238.344 69.6996C238.513 69.9605 238.645 70.2175 238.741 70.4706C238.852 70.7224 238.888 70.9591 238.85 71.1808C238.82 71.329 238.801 71.4471 238.795 71.5349C238.803 71.6215 238.803 71.7015 238.795 71.775C238.786 71.834 238.762 71.8943 238.724 71.956C238.686 72.0177 238.621 72.1036 238.53 72.2138C238.669 72.3029 238.822 72.3835 238.988 72.4556C239.155 72.5276 239.315 72.5276 239.468 72.4554C239.593 72.3858 239.679 72.2907 239.726 72.17C239.773 72.0493 239.805 71.9227 239.822 71.7902C239.853 71.6564 239.878 71.5305 239.897 71.4124C239.928 71.2787 239.983 71.1645 240.062 71.07C240.287 70.8312 240.498 70.5865 240.693 70.3359C240.888 70.0853 241.092 69.8485 241.304 69.6254C241.517 69.4023 241.753 69.2061 242.014 69.0368C242.275 68.8675 242.577 68.7454 242.919 68.6705C243.187 68.7333 243.388 68.8604 243.521 69.0518C243.67 69.242 243.798 69.4485 243.905 69.6714C244.013 69.8943 244.121 70.1172 244.228 70.3401C244.336 70.5631 244.499 70.7519 244.716 70.9065C244.71 71.1544 244.724 71.3859 244.758 71.601C244.807 71.8147 244.979 71.9445 245.274 71.9903C245.332 72.305 245.372 72.585 245.394 72.8303C245.417 73.0755 245.446 73.3129 245.481 73.5424C245.53 73.7562 245.601 73.9824 245.696 74.2211C245.789 74.4453 245.929 74.7017 246.115 74.9901L246.282 74.6694C246.356 74.5172 246.445 74.3781 246.55 74.2521C246.655 74.1262 246.752 74.0009 246.843 73.8762C246.948 73.7503 247.037 73.6184 247.112 73.4807C247.185 73.3285 247.236 73.1639 247.263 72.9868C247.463 72.9395 247.594 72.862 247.657 72.7545C247.718 72.6324 247.801 72.5085 247.906 72.3825C247.875 72.1963 247.903 71.9536 247.993 71.6545C248.095 71.3397 248.218 71.0157 248.362 70.6825C248.506 70.3493 248.651 70.0233 248.796 69.7045C248.942 69.3857 249.04 69.1076 249.091 68.8702C249.483 68.7034 249.824 68.4541 250.114 68.1221C250.418 67.7888 250.715 67.4634 251.006 67.1458C251.31 66.8126 251.634 66.5357 251.978 66.3151C252.32 66.0802 252.741 65.9908 253.241 66.047C253.63 66.0114 253.972 66.0093 254.266 66.0406C254.573 66.0562 254.867 66.0947 255.149 66.1563C255.431 66.2178 255.716 66.3081 256.003 66.4273C256.289 66.5321 256.606 66.6559 256.954 66.7987C256.968 66.7974 257.013 66.8151 257.089 66.8518C257.164 66.874 257.24 66.9035 257.316 66.9402C257.392 66.9769 257.461 67.0142 257.522 67.0523C257.597 67.0745 257.634 67.0856 257.634 67.0856C257.863 67.3557 258.109 67.6605 258.373 68.0001C258.635 68.3253 258.783 68.6754 258.818 69.0505ZM267.808 77.4155C267.69 77.5572 267.598 77.6674 267.533 77.7461C267.482 77.8235 267.431 77.9009 267.38 77.9784C267.342 78.04 267.29 78.1102 267.224 78.1889C267.173 78.2663 267.089 78.3831 266.973 78.5393C266.868 78.6652 266.771 78.7977 266.682 78.9368C266.592 79.0759 266.488 79.2018 266.367 79.3147C266.19 79.2872 266.055 79.3214 265.962 79.4172C265.883 79.5117 265.806 79.6205 265.73 79.7439C265.667 79.8515 265.604 79.959 265.541 80.0666C265.491 80.1584 265.415 80.2018 265.313 80.1966C264.984 80.4158 264.653 80.6133 264.32 80.7892C263.985 80.9507 263.671 81.1758 263.378 81.4645L263.189 81.3072L261.037 82.5949C260.967 82.6303 260.899 82.6802 260.832 82.7445C260.766 82.8088 260.698 82.8659 260.63 82.9157C260.328 83.1179 260.011 83.3069 259.678 83.4828C259.358 83.643 259.037 83.7959 258.716 83.9416L258.443 84.0539C258.584 84.3319 258.603 84.5339 258.498 84.6598C258.393 84.7858 258.235 84.8875 258.024 84.965C257.812 85.0281 257.576 85.0787 257.318 85.1168C257.059 85.155 256.862 85.2239 256.726 85.3237C256.55 85.3107 256.368 85.3127 256.181 85.3298C256.009 85.3601 255.831 85.3982 255.646 85.4442C255.446 85.4915 255.26 85.5231 255.087 85.5389C254.914 85.5547 254.724 85.5502 254.518 85.5254L254.475 85.5294C254.24 85.6672 254.026 85.7086 253.832 85.6536C253.654 85.6117 253.486 85.5252 253.328 85.3942C253.169 85.2486 253.016 85.0808 252.868 84.8907C252.732 84.6849 252.592 84.5013 252.446 84.3401C252.349 84.2326 252.226 84.0765 252.076 83.872C251.927 83.6675 251.797 83.4465 251.688 83.2092C251.565 82.9732 251.485 82.7332 251.448 82.4892C251.395 82.2322 251.425 82.004 251.538 81.8045C251.651 81.6051 251.741 81.3933 251.807 81.169C251.86 80.946 251.873 80.6902 251.846 80.4017C251.837 80.3007 251.828 80.2069 251.821 80.1203C251.798 80.0351 251.782 79.942 251.773 79.841C251.845 79.8344 251.925 79.8344 252.013 79.8409C252.1 79.833 252.179 79.8257 252.251 79.8191C252.337 79.7968 252.399 79.762 252.438 79.7148C252.491 79.6518 252.511 79.5554 252.499 79.4255C252.492 79.3534 252.458 79.2983 252.397 79.2603C252.349 79.221 252.317 79.1804 252.298 79.1384C252.373 79.0006 252.443 78.8924 252.509 78.8137C252.587 78.7192 252.652 78.6333 252.703 78.5559C252.753 78.464 252.788 78.3663 252.807 78.2627C252.826 78.1446 252.805 77.9938 252.744 77.8102C252.89 77.4914 253.067 77.2061 253.277 76.9541C253.5 76.6865 253.732 76.4398 253.973 76.2141C254.213 75.9739 254.461 75.7404 254.716 75.5133C254.972 75.2863 255.212 75.0462 255.436 74.7929C255.721 74.8833 255.937 74.8635 256.085 74.7336C256.248 74.6024 256.388 74.4659 256.506 74.3242C256.623 74.1681 256.742 74.0408 256.864 73.9424C256.986 73.8439 257.162 73.8642 257.393 74.0031L257.44 74.0424C257.794 73.6173 258.168 73.4086 258.562 73.4163C258.969 73.4226 259.32 73.5215 259.614 73.7128C259.923 73.9029 260.133 74.1382 260.246 74.4188C260.358 74.685 260.296 74.8798 260.059 75.0032C260.233 75.1474 260.329 75.3277 260.349 75.5441C260.369 75.7605 260.328 75.9533 260.227 76.1226C260.113 76.3076 260.014 76.4985 259.93 76.6952C259.86 76.8763 259.783 77.0724 259.701 77.2836C259.587 77.6286 259.457 77.9605 259.311 78.2793C259.165 78.5836 258.942 78.8513 258.643 79.0823C258.377 79.0339 258.199 79.0792 258.11 79.2183C258.035 79.356 257.983 79.5062 257.955 79.6689C257.925 79.8171 257.885 79.9371 257.835 80.029C257.785 80.1208 257.66 80.1031 257.459 79.976L257.412 79.9367L257.372 79.9839C257.268 80.1099 257.186 80.2483 257.127 80.3992C257.082 80.5487 257.006 80.6648 256.897 80.7475C256.763 80.7161 256.623 80.6925 256.476 80.6769C256.329 80.6612 256.189 80.6449 256.057 80.6279C256.084 80.9308 256.048 81.1742 255.949 81.3578C255.849 81.5415 255.711 81.6996 255.534 81.8322C255.37 81.949 255.176 82.054 254.952 82.1472C254.726 82.226 254.503 82.3265 254.281 82.4485C254.072 82.5549 253.874 82.6894 253.685 82.8521C253.509 82.9991 253.375 83.2005 253.282 83.4563C253.441 83.6018 253.63 83.6791 253.849 83.6882C254.066 83.6828 254.29 83.6624 254.52 83.6269C254.748 83.5769 254.97 83.5421 255.186 83.5223C255.417 83.5012 255.624 83.5405 255.808 83.6401L255.832 83.6597L255.851 83.6361C256.194 83.5612 256.518 83.4515 256.825 83.3071C257.145 83.1469 257.451 82.9881 257.742 82.8305C258.046 82.6573 258.351 82.4984 258.658 82.354C258.978 82.1938 259.309 82.0691 259.65 81.9797C259.732 82.0886 259.832 82.1449 259.949 82.1488C260.08 82.1513 260.202 82.1329 260.315 82.0935L260.332 82.0483C260.352 81.9446 260.373 81.8554 260.395 81.7807C260.416 81.6915 260.451 81.5937 260.499 81.4875C260.586 81.3196 260.697 81.1857 260.834 81.086C260.97 80.9862 261.115 80.9075 261.27 80.8497C261.439 80.7906 261.617 80.7453 261.803 80.7137C261.99 80.6821 262.175 80.6433 262.36 80.5973L262.403 80.5934L262.419 80.5265C262.461 80.3481 262.523 80.2261 262.604 80.1605C262.698 80.0791 262.795 80.0194 262.893 79.9813C263.006 79.9419 263.119 79.9097 263.233 79.8847C263.362 79.8584 263.48 79.804 263.589 79.7213C263.857 79.7841 264.071 79.7355 264.231 79.5754C264.39 79.4153 264.543 79.2487 264.687 79.0755L264.88 79.276L264.937 79.1835C265.135 78.9618 265.279 78.7958 265.371 78.6856C265.477 78.5741 265.578 78.4776 265.672 78.3962C265.765 78.3005 265.873 78.2106 265.997 78.1266C266.133 78.0268 266.316 77.8864 266.547 77.7053C266.737 77.557 266.92 77.4093 267.096 77.2624C267.286 77.1141 267.468 76.952 267.641 76.7762C267.715 76.7984 267.757 76.8528 267.765 76.9394C267.771 77.0115 267.778 77.0837 267.784 77.1558C267.773 77.186 267.762 77.2306 267.753 77.2896C267.758 77.3473 267.777 77.3893 267.808 77.4155ZM258.602 75.5292C258.586 75.5161 258.571 75.5102 258.557 75.5115C258.557 75.5115 258.549 75.505 258.533 75.4919C258.216 75.3608 257.957 75.3118 257.756 75.3447C257.554 75.3631 257.372 75.438 257.209 75.5692C257.06 75.6847 256.921 75.8356 256.792 76.0219C256.677 76.1925 256.546 76.3571 256.401 76.5159C256.268 76.6589 256.105 76.7757 255.909 76.8663C255.714 76.9569 255.468 76.9721 255.171 76.9119C255.149 77.1467 255.127 77.3815 255.105 77.6163C255.096 77.8353 255.095 78.0609 255.101 78.2931C254.864 78.402 254.68 78.5425 254.551 78.7143C254.435 78.8849 254.336 79.0686 254.252 79.2653C254.182 79.4608 254.114 79.6707 254.048 79.895C253.994 80.1036 253.911 80.3076 253.798 80.507L253.894 80.6073C253.95 80.5731 254.016 80.5888 254.095 80.6544C254.174 80.7199 254.229 80.7658 254.26 80.792C254.398 80.5467 254.589 80.3328 254.835 80.1504C255.094 79.9666 255.355 79.7973 255.617 79.6424C255.893 79.4718 256.153 79.2953 256.398 79.1128C256.643 78.9304 256.819 78.7034 256.925 78.4319C257.375 78.2598 257.697 77.9685 257.893 77.5579C258.088 77.1473 258.246 76.7255 258.366 76.2927C258.387 76.2035 258.426 76.0762 258.484 75.9109C258.555 75.7299 258.594 75.6027 258.602 75.5292ZM278.995 75.913C279.03 76.1281 279.005 76.3413 278.923 76.5525C278.855 76.7624 278.792 76.95 278.734 77.1152L278.109 77.9143L277.811 79.1854C277.662 79.3153 277.5 79.4465 277.323 79.5791C277.159 79.6959 277.01 79.8186 276.876 79.9472C276.73 80.0915 276.599 80.249 276.483 80.4195C276.382 80.5888 276.265 80.7377 276.131 80.8663C275.998 80.9949 275.834 81.1117 275.64 81.2167C275.459 81.306 275.293 81.4084 275.144 81.5239C274.871 81.7234 274.614 81.9287 274.371 82.14C274.143 82.35 273.9 82.554 273.641 82.7522C273.572 82.7877 273.518 82.829 273.478 82.8762C273.452 82.9077 273.404 82.9412 273.335 82.9766C273.294 83.0095 273.112 83.0843 272.788 83.2012C272.464 83.3181 272.105 83.4527 271.712 83.605C271.332 83.7416 270.972 83.869 270.634 83.9872C270.296 84.1054 270.105 84.1665 270.062 84.1704C269.804 84.223 269.539 84.2618 269.265 84.2869C268.991 84.3119 268.717 84.3442 268.444 84.3837L268.138 84.6081C267.968 84.5072 267.785 84.4148 267.589 84.331C267.392 84.2471 267.223 84.1534 267.083 84.0499C266.927 83.9332 266.769 83.8021 266.611 83.6566C266.45 83.4967 266.306 83.3498 266.177 83.2161C266.087 83.0207 265.997 82.8326 265.908 82.6516C265.817 82.4562 265.742 82.2667 265.681 82.0832L265.498 81.2707C265.444 80.9992 265.391 80.735 265.338 80.4779C265.3 80.2196 265.254 79.9547 265.2 79.6832C265.383 78.9827 265.538 78.2849 265.663 77.5897C265.802 76.8787 265.985 76.1783 266.213 75.4883C266.271 75.323 266.321 75.1583 266.364 74.9944C266.421 74.8147 266.478 74.6422 266.535 74.4769C266.606 74.2958 266.685 74.1286 266.773 73.9751C266.86 73.8072 266.932 73.6406 266.989 73.4753C267.046 73.2956 267.088 73.1172 267.115 72.9401C267.141 72.7486 267.183 72.5702 267.241 72.4049C267.276 72.3144 267.337 72.1852 267.423 72.0172C267.509 71.8349 267.601 71.6519 267.701 71.4682C267.799 71.2701 267.891 71.0799 267.976 70.8975C268.075 70.7139 268.157 70.5682 268.219 70.4607C268.322 70.3058 268.425 70.1582 268.528 70.0179C268.632 69.8775 268.712 69.7246 268.77 69.5593C268.892 69.3009 269 68.9782 269.096 68.5912C269.192 68.2043 269.306 67.8593 269.438 67.5562C269.582 67.223 269.757 66.9088 269.963 66.6136C270.182 66.3027 270.378 65.9865 270.552 65.6651C270.741 65.3423 270.92 64.9914 271.089 64.6123L271.978 63.8328L272.45 64.226L273.473 63.958L274.211 64.8724C274.202 65.0915 274.189 65.34 274.17 65.6181C274.167 65.8948 274.163 66.1788 274.161 66.47C274.172 66.7454 274.182 67.0208 274.193 67.2963C274.217 67.5559 274.252 67.7854 274.299 67.9848C274.251 68.2511 274.168 68.5351 274.05 68.8368C273.945 69.1228 273.815 69.3746 273.661 69.5924L273.681 70.7689L272.887 71.6271L272.879 72.7406L272.223 73.6735C272.198 73.8794 272.174 74.0925 272.15 74.3129C272.125 74.5188 272.085 74.7189 272.03 74.913C271.974 75.0927 271.904 75.281 271.82 75.4777C271.735 75.6601 271.651 75.8496 271.567 76.0464C271.301 76.318 271.03 76.6192 270.755 76.9498C270.479 77.2805 270.233 77.6085 270.015 77.9339C269.9 78.1044 269.793 78.2888 269.695 78.4869C269.61 78.6692 269.517 78.845 269.416 79.0142C269.084 79.5246 268.721 80.0088 268.327 80.4667C267.932 80.9246 267.546 81.3963 267.168 81.8818L267.722 82.6822C268.034 82.7555 268.353 82.821 268.678 82.8785C269.003 82.9361 269.328 82.9864 269.652 83.0295C269.793 82.9875 269.957 82.9435 270.142 82.8975C270.325 82.8371 270.516 82.776 270.714 82.7143C270.911 82.6381 271.1 82.5626 271.282 82.4877C271.479 82.4116 271.64 82.3387 271.764 82.2691C272.042 82.1274 272.359 81.9311 272.714 81.6804C273.068 81.4153 273.367 81.1843 273.611 80.9875C274.046 80.6568 274.488 80.3182 274.937 79.9717C275.385 79.6252 275.811 79.2663 276.213 78.8949C276.482 78.6522 276.76 78.3504 277.047 77.9896C277.334 77.6287 277.601 77.2915 277.849 76.9779C278.11 76.6486 278.34 76.3803 278.539 76.173C278.753 75.9643 278.905 75.8777 278.995 75.913ZM272.174 66.2152C271.917 66.7478 271.637 67.268 271.335 67.7757C271.045 68.2677 270.779 68.7793 270.536 69.3106C270.451 69.493 270.381 69.6812 270.326 69.8754C270.27 70.0551 270.192 70.2368 270.092 70.4204C270.006 70.5884 269.912 70.7569 269.811 70.9262C269.71 71.0954 269.625 71.2778 269.556 71.4732C269.413 71.8209 269.287 72.1888 269.177 72.5771C269.08 72.9496 268.968 73.3163 268.841 73.677C268.699 74.0391 268.527 74.3822 268.324 74.7062C268.121 75.0303 267.941 75.374 267.785 75.7374L267.502 76.4615C267.48 76.5363 267.456 76.5966 267.432 76.6425C267.405 76.674 267.381 76.7272 267.359 76.8019C267.316 76.9659 267.303 77.1416 267.32 77.3292C267.337 77.5167 267.331 77.6918 267.302 77.8545C267.275 78.0316 267.225 78.2034 267.153 78.37C267.081 78.5366 267.016 78.7026 266.958 78.8679C266.901 79.0331 266.858 79.2043 266.831 79.3814C266.802 79.5441 266.766 79.7074 266.723 79.8713C266.828 79.7454 266.941 79.6332 267.063 79.5347C267.198 79.4206 267.325 79.2998 267.445 79.1726C267.562 79.0309 267.673 78.8826 267.775 78.7278C267.877 78.573 267.995 78.4313 268.129 78.3027C268.248 78.1754 268.376 78.0619 268.512 77.9621C268.662 77.8466 268.804 77.7318 268.939 77.6176C269.141 77.2791 269.313 76.9361 269.456 76.5884C269.528 76.4218 269.584 76.2349 269.623 76.0277C269.677 75.8191 269.747 75.6309 269.833 75.4629C269.905 75.2963 270 75.135 270.116 74.9788C270.247 74.8214 270.356 74.6587 270.443 74.4908C270.543 74.3215 270.622 74.147 270.678 73.9673C270.749 73.7863 270.828 73.6118 270.914 73.4439C271.087 73.108 271.283 72.7846 271.502 72.4737L271.486 71.1005L272.182 70.1204L272.215 69.2882L272.686 68.4813L272.641 67.2635L272.174 66.2152ZM292.507 75.7257C292.41 76.0982 292.238 76.4485 291.992 76.7765C291.76 77.1032 291.505 77.4247 291.229 77.7409C290.952 78.0571 290.676 78.3733 290.399 78.6895C290.136 78.99 289.917 79.301 289.742 79.6224C289.609 79.591 289.495 79.616 289.4 79.6973C289.32 79.7774 289.249 79.8784 289.188 80.0004C289.034 80.0726 288.874 80.1527 288.708 80.2406C288.554 80.3129 288.402 80.3995 288.252 80.5006C288.115 80.6003 287.987 80.7138 287.868 80.8411C287.763 80.9671 287.69 81.1192 287.648 81.2976C287.375 81.3371 287.142 81.4166 286.95 81.536C286.756 81.641 286.569 81.7526 286.391 81.8707C286.213 81.9889 286.019 82.0939 285.809 82.1858C285.598 82.2633 285.339 82.2942 285.032 82.2786C284.994 82.5003 284.924 82.6085 284.821 82.6033C284.735 82.6112 284.639 82.5982 284.534 82.5641C284.428 82.5156 284.324 82.496 284.223 82.5053C284.121 82.5001 284.051 82.6083 284.013 82.83C283.912 82.8392 283.803 82.8419 283.686 82.838C283.585 82.8472 283.484 82.8565 283.383 82.8657C283.298 82.888 283.214 82.9248 283.132 82.976C283.064 83.0258 283.013 83.1105 282.98 83.2298C282.562 83.2681 282.125 83.3371 281.668 83.437C281.212 83.5369 280.753 83.608 280.291 83.6502C279.844 83.691 279.399 83.6735 278.955 83.5977C278.528 83.5349 278.133 83.3528 277.771 83.0513C277.645 82.9464 277.54 82.8396 277.458 82.7308C277.375 82.622 277.284 82.4994 277.184 82.363C277.134 82.2948 277.085 82.2339 277.036 82.1801C276.987 82.1119 276.936 82.0365 276.885 81.9539C276.746 81.7048 276.656 81.4438 276.617 81.171C276.577 80.8983 276.552 80.6241 276.542 80.3487C276.517 80.0746 276.492 79.8077 276.469 79.548C276.443 79.2739 276.369 79.0116 276.244 78.7612C276.221 78.5159 276.259 78.2943 276.358 78.0962C276.44 77.885 276.538 77.6797 276.651 77.4802C276.763 77.2808 276.869 77.0821 276.967 76.884C277.064 76.6714 277.109 76.4491 277.102 76.217C276.979 75.9809 276.964 75.7422 277.059 75.5009C277.153 75.2595 277.249 75.0325 277.346 74.82C277.382 74.7439 277.412 74.6685 277.434 74.5937C277.47 74.5032 277.505 74.4127 277.54 74.3222C277.576 74.2317 277.625 74.1398 277.69 74.0467C277.754 73.9535 277.812 73.8682 277.863 73.7908C278.026 73.514 278.191 73.2444 278.356 72.982C278.521 72.7196 278.686 72.45 278.849 72.1732C278.964 71.9882 279.07 71.8039 279.17 71.6202C279.284 71.4352 279.39 71.2437 279.488 71.0456C279.538 70.9537 279.587 70.8547 279.636 70.7484C279.683 70.6277 279.732 70.5287 279.783 70.4513C279.847 70.3581 279.961 70.2532 280.125 70.1363C280.288 70.0051 280.417 69.906 280.513 69.8391C280.788 69.6684 281.089 69.5391 281.416 69.4511C281.741 69.3486 282.05 69.3131 282.344 69.3444C282.638 69.3757 282.903 69.4897 283.139 69.6864C283.388 69.8672 283.567 70.1491 283.675 70.5321C283.721 70.717 283.745 70.9039 283.748 71.0927C283.764 71.2659 283.787 71.4383 283.817 71.6101C283.862 71.7806 283.927 71.9419 284.014 72.094C284.099 72.2317 284.242 72.3569 284.441 72.4696C284.305 72.7293 284.191 72.9943 284.099 73.2646C284.022 73.5335 283.93 73.8037 283.824 74.0752C283.972 74.1053 284.038 74.1866 284.021 74.3191C284.017 74.4358 284.027 74.544 284.05 74.6437C283.863 74.8209 283.744 75.0281 283.693 75.2656C283.642 75.503 283.606 75.7463 283.585 75.9955C283.563 76.2303 283.525 76.4592 283.473 76.6822C283.434 76.8894 283.334 77.0659 283.172 77.2115C283.301 77.6653 283.184 77.9814 282.823 78.16C282.572 78.2847 282.401 78.3222 282.309 78.2724C282.216 78.2081 282.142 78.1203 282.089 78.0088C282.048 77.8816 281.993 77.763 281.925 77.6528C281.857 77.5427 281.729 77.4962 281.541 77.5133C281.554 77.3376 281.56 77.1625 281.559 76.988C281.571 76.7978 281.59 76.6142 281.618 76.4371C281.645 76.2601 281.695 76.0882 281.767 75.9216C281.839 75.755 281.948 75.5995 282.095 75.4552C281.959 75.3949 281.898 75.2913 281.914 75.1444C281.928 74.9831 281.915 74.8388 281.875 74.7116C281.949 74.4139 282.073 74.0971 282.246 73.7612C282.419 73.4254 282.57 73.0915 282.7 72.7596C282.828 72.4133 282.899 72.0722 282.912 71.7365C282.925 71.4007 282.816 71.0833 282.585 70.7844C282.519 70.7031 282.426 70.6389 282.305 70.5917C282.199 70.5433 282.096 70.5236 281.995 70.5329C281.894 70.5421 281.81 70.5861 281.745 70.6648C281.679 70.7435 281.661 70.8616 281.69 71.019L281.877 71.1546C281.611 71.2662 281.379 71.4329 281.181 71.6547C280.997 71.8751 280.823 72.1165 280.658 72.3789C280.491 72.6269 280.325 72.882 280.16 73.1444C280.01 73.4055 279.841 73.6318 279.655 73.8234C279.591 74.2366 279.466 74.6262 279.282 74.9922C279.111 75.3569 278.941 75.7216 278.771 76.0863C278.675 76.3133 278.605 76.5015 278.56 76.6511C278.53 76.7993 278.481 76.9783 278.413 77.1882C278.391 77.263 278.361 77.3384 278.325 77.4145C278.301 77.4749 278.278 77.5424 278.256 77.6172C278.198 77.9425 278.147 78.2599 278.103 78.5695C278.073 78.8777 277.931 79.1526 277.676 79.394C277.73 79.5055 277.776 79.6104 277.814 79.7087C277.867 79.8058 277.948 79.9001 278.058 79.9919C277.908 80.093 277.824 80.2097 277.807 80.3422C277.803 80.459 277.822 80.5881 277.864 80.7298C277.919 80.8557 277.982 80.9881 278.053 81.1271C278.137 81.2503 278.185 81.3769 278.197 81.5067C278.371 81.5053 278.536 81.5557 278.691 81.658C278.846 81.7602 279 81.8624 279.155 81.9647C279.324 82.0656 279.484 82.1455 279.635 82.2045C279.785 82.249 279.942 82.2128 280.105 82.096C280.224 82.1143 280.332 82.1117 280.432 82.088C280.532 82.0643 280.632 82.0479 280.733 82.0387C280.833 82.015 280.928 82.0209 281.018 82.0562C281.123 82.0903 281.232 82.1676 281.345 82.2882C281.426 82.0626 281.551 81.9202 281.721 81.8611C281.89 81.802 282.068 81.7639 282.256 81.7468C282.458 81.7283 282.644 81.704 282.816 81.6737C283.003 81.6422 283.153 81.5411 283.269 81.3705C283.455 81.499 283.612 81.5428 283.739 81.5021C283.881 81.4601 284.004 81.3833 284.111 81.2718C284.231 81.1589 284.352 81.0461 284.472 80.9332C284.593 80.8203 284.733 80.7567 284.891 80.7422C285.238 80.7105 285.536 80.6323 285.786 80.5076C286.037 80.3829 286.279 80.2444 286.512 80.0922C286.744 79.9255 286.977 79.766 287.21 79.6138C287.458 79.4602 287.745 79.3394 288.072 79.2514C288.196 79.0218 288.349 78.8551 288.528 78.7514C288.721 78.632 288.915 78.527 289.11 78.4364C289.319 78.33 289.512 78.2106 289.689 78.078C289.879 77.9297 290.041 77.7113 290.174 77.4227C290.464 77.4107 290.695 77.3096 290.867 77.1194C291.037 76.9147 291.2 76.7034 291.354 76.4856C291.508 76.2534 291.664 76.0573 291.824 75.8972C291.997 75.7213 292.225 75.6642 292.507 75.7257ZM304.211 73.9141C304.289 74.1253 304.284 74.3148 304.198 74.4827C304.11 74.6362 303.985 74.7786 303.822 74.9098C303.674 75.0397 303.504 75.1644 303.311 75.2838C303.131 75.3875 302.982 75.503 302.862 75.6303C302.226 75.8339 301.645 75.9962 301.118 76.1171C300.604 76.2223 300.034 76.3543 299.408 76.5133C299.223 76.5593 299.043 76.5758 298.867 76.5628C298.704 76.534 298.537 76.5347 298.365 76.565C298.264 76.5742 298.171 76.5828 298.084 76.5907C297.996 76.5842 297.91 76.5921 297.824 76.6144C297.495 76.6736 297.289 76.8088 297.207 77.02C297.123 77.2168 297.057 77.4483 297.009 77.7146C296.973 77.9651 296.916 78.2104 296.836 78.4505C296.769 78.6748 296.588 78.844 296.293 78.9583C296.271 79.0331 296.284 79.0973 296.332 79.1511C296.395 79.2035 296.443 79.2501 296.476 79.2907C296.237 79.3852 296.083 79.5302 296.014 79.7257C295.959 79.9198 295.911 80.1133 295.871 80.3061C295.83 80.499 295.758 80.6656 295.654 80.806C295.565 80.945 295.367 81.0068 295.06 80.9912C294.657 81.5081 294.165 81.9386 293.585 82.2825C293.007 82.6408 292.397 82.8929 291.756 83.0388C291.636 82.9917 291.513 82.9301 291.39 82.8541C291.281 82.7767 291.166 82.7073 291.044 82.6457C290.936 82.5828 290.816 82.5356 290.682 82.5042C290.564 82.4859 290.427 82.4984 290.271 82.5418C290.228 82.2401 290.145 81.9641 290.02 81.7136C289.881 81.4645 289.715 81.2324 289.52 81.0174C289.468 80.7604 289.482 80.519 289.563 80.2934C289.629 80.0547 289.702 79.8225 289.783 79.5968C289.864 79.3712 289.931 79.1469 289.984 78.9239C290.02 78.6878 289.982 78.4294 289.869 78.1488C290.005 78.0491 290.09 77.9395 290.123 77.8201C290.17 77.6995 290.195 77.5807 290.199 77.464C290.216 77.3315 290.242 77.2128 290.276 77.1079C290.309 76.9885 290.401 76.8855 290.553 76.7989C290.406 76.4632 290.397 76.2094 290.527 76.0375C290.67 75.8499 290.844 75.6813 291.048 75.5317C291.253 75.382 291.442 75.2193 291.615 75.0435C291.788 74.8676 291.838 74.623 291.766 74.3096C291.844 74.2151 291.939 74.1337 292.049 74.0655C292.159 73.9972 292.263 73.9368 292.36 73.8843C292.47 73.8161 292.573 73.7485 292.669 73.6815C292.764 73.6146 292.851 73.5267 292.928 73.4178C292.821 73.3549 292.763 73.2874 292.757 73.2152C292.765 73.1418 292.78 73.0677 292.802 72.9929C292.823 72.9037 292.844 72.8145 292.865 72.7253C292.9 72.6348 292.892 72.5482 292.841 72.4656C293.236 72.4877 293.57 72.4063 293.844 72.2212C294.131 72.0204 294.397 71.8216 294.641 71.6247C294.899 71.4265 295.162 71.2789 295.43 71.1817C295.697 71.0845 296.022 71.142 296.405 71.3543C296.444 71.4527 296.501 71.6002 296.577 71.7969C296.666 71.9779 296.749 72.1667 296.825 72.3634C296.916 72.5588 296.998 72.7476 297.073 72.9299C297.148 73.1122 297.197 73.2459 297.219 73.3312C297.226 73.4033 297.236 73.5187 297.251 73.6774C297.265 73.8361 297.281 74.0092 297.298 74.1968C297.314 74.3699 297.329 74.5358 297.344 74.6945C297.358 74.8532 297.369 74.9758 297.377 75.0624C297.818 75.2694 298.25 75.3826 298.674 75.4021C299.096 75.4072 299.505 75.2679 299.901 74.9845C300.073 75.1142 300.229 75.1437 300.368 75.0728C300.505 74.9874 300.635 74.8956 300.757 74.7971C300.893 74.6974 301.034 74.6409 301.178 74.6278C301.321 74.6001 301.476 74.7024 301.642 74.9344C301.827 74.7284 302.026 74.5939 302.238 74.5308C302.449 74.4534 302.67 74.4041 302.901 74.383C303.131 74.3475 303.352 74.3054 303.566 74.2568C303.794 74.2068 304.009 74.0926 304.211 73.9141ZM295.935 75.0414C295.915 74.825 295.93 74.5909 295.98 74.339C296.03 74.0872 296.066 73.8439 296.088 73.6091C296.109 73.3599 296.08 73.1297 296.003 72.9186C295.94 72.7061 295.785 72.5239 295.538 72.3719C295.388 72.4729 295.269 72.6074 295.182 72.7754C295.095 72.9289 295.007 73.0896 294.921 73.2575C294.833 73.411 294.722 73.5448 294.587 73.659C294.466 73.7719 294.296 73.8165 294.075 73.793C294.019 73.9727 294.032 74.117 294.115 74.2258C294.196 74.3202 294.292 74.4133 294.402 74.5051C294.511 74.5824 294.613 74.6676 294.709 74.7607C294.819 74.8524 294.867 74.979 294.853 75.1403C294.915 75.1783 294.998 75.2143 295.103 75.2484C295.207 75.268 295.31 75.2804 295.412 75.2856C295.527 75.2751 295.634 75.2508 295.732 75.2127C295.831 75.1746 295.898 75.1175 295.935 75.0414ZM295.942 76.7865C295.653 76.8129 295.395 76.771 295.167 76.6609C294.951 76.5351 294.728 76.3956 294.495 76.2422C294.278 76.0875 294.047 75.9486 293.803 75.8255C293.572 75.6865 293.296 75.6171 292.976 75.6173C292.862 75.8023 292.726 75.982 292.567 76.1566C292.407 76.3166 292.271 76.4892 292.156 76.6742C292.042 76.8592 291.966 77.0553 291.927 77.2625C291.902 77.4685 291.959 77.696 292.098 77.9451C291.781 78.1341 291.578 78.3854 291.491 78.6989C291.401 78.998 291.351 79.3226 291.339 79.6728C291.342 80.0217 291.345 80.3706 291.348 80.7195C291.351 81.0684 291.285 81.3871 291.152 81.6757L291.598 81.3076C291.658 81.3312 291.706 81.3705 291.74 81.4256C291.788 81.4793 291.801 81.5436 291.779 81.6184C291.884 81.4924 292.006 81.394 292.145 81.3231C292.283 81.2378 292.422 81.1741 292.564 81.132C292.719 81.0743 292.867 81.0244 293.008 80.9823C293.164 80.939 293.312 80.8818 293.451 80.8109C293.83 80.98 294.094 80.9995 294.242 80.8696C294.39 80.7397 294.504 80.5547 294.584 80.3146C294.664 80.0746 294.75 79.8266 294.843 79.5708C294.935 79.3006 295.108 79.1248 295.362 79.0433L295.197 78.9057C295.415 78.5803 295.603 78.2504 295.761 77.9158C295.933 77.5656 295.993 77.1891 295.942 76.7865ZM325.63 75.0116C325.511 75.1389 325.344 75.3069 325.131 75.5155C324.93 75.7084 324.8 75.8803 324.741 76.0312C324.668 76.1833 324.608 76.3198 324.561 76.4405C324.528 76.5598 324.479 76.6661 324.415 76.7592C324.364 76.8367 324.283 76.9023 324.171 76.9561C324.074 77.0086 323.932 77.0434 323.744 77.0606C323.748 77.1038 323.678 77.2049 323.532 77.3636C323.4 77.5067 323.254 77.6654 323.095 77.84C322.936 78 322.79 78.1588 322.659 78.3163C322.527 78.4593 322.462 78.5524 322.466 78.5957L322.262 78.5053C322.231 78.4935 322.146 78.5087 322.004 78.5507C321.875 78.577 321.721 78.6348 321.54 78.724C321.372 78.7976 321.207 78.9 321.044 79.0312C320.881 79.1624 320.758 79.3264 320.674 79.5232L320.586 79.5095C320.364 79.4716 320.139 79.4776 319.911 79.5275C319.699 79.5906 319.484 79.632 319.268 79.6518C318.809 79.7228 318.463 79.6817 318.231 79.5283C318 79.3894 317.741 79.1003 317.453 78.6611C317.386 78.5653 317.326 78.4618 317.272 78.3503C317.218 78.2388 317.172 78.1267 317.132 78.0139L317.125 77.9274C317.316 77.7935 317.41 77.6321 317.408 77.4433C317.404 77.24 317.377 77.0315 317.329 76.8177C317.28 76.6039 317.239 76.3967 317.206 76.1961C317.188 75.9941 317.252 75.8209 317.399 75.6766C317.291 75.4537 317.279 75.2366 317.361 75.0254C317.457 74.7984 317.547 74.5866 317.63 74.3898C317.714 74.193 317.748 74.0081 317.732 73.835C317.717 73.6618 317.541 73.496 317.207 73.3375C316.887 73.4976 316.585 73.6925 316.3 73.9222C316.029 74.1361 315.752 74.3651 315.468 74.6092C315.198 74.8376 314.921 75.0666 314.637 75.2962C314.366 75.5246 314.071 75.7188 313.751 75.879C313.479 76.2385 313.188 76.556 312.878 76.8316C312.568 77.0928 312.266 77.3677 311.972 77.6564C311.693 77.9437 311.438 78.2652 311.209 78.6207C310.993 78.9605 310.841 79.3744 310.755 79.8624C310.675 79.7824 310.598 79.7313 310.523 79.709C310.448 79.6868 310.352 79.6665 310.234 79.6482C310.071 79.6194 309.952 79.5867 309.876 79.55C309.798 79.4989 309.697 79.4281 309.572 79.3376L309.59 79.2924C309.686 78.9054 309.802 78.5093 309.94 78.1039C310.077 77.6986 310.128 77.3011 310.093 76.9116C310.079 76.7674 310.053 76.6388 310.014 76.5261C309.973 76.3989 309.946 76.2631 309.933 76.1188C309.909 75.8592 309.931 75.6172 309.997 75.3929C310.064 75.1685 310.14 74.958 310.223 74.7612C310.322 74.5631 310.406 74.3736 310.477 74.1925C310.561 73.9958 310.594 73.7964 310.575 73.5944C310.561 73.4357 310.51 73.2803 310.423 73.1282C310.337 72.9761 310.23 72.8476 310.104 72.7428C309.887 72.7481 309.687 72.7954 309.506 72.8847C309.324 72.9595 309.143 73.0488 308.964 73.1525C308.784 73.2562 308.596 73.3534 308.401 73.4439C308.204 73.5201 307.99 73.5615 307.758 73.5682C307.482 73.8988 307.2 74.2302 306.91 74.5621C306.619 74.8797 306.328 75.1972 306.037 75.5147C305.428 76.1669 304.834 76.8394 304.258 77.5322C303.695 78.2236 303.264 78.9904 302.962 79.8326C302.905 79.9979 302.855 80.1698 302.813 80.3482C302.784 80.5108 302.741 80.6748 302.683 80.8401C302.686 80.8689 302.674 80.8991 302.648 80.9306L302.54 80.9405C302.381 80.955 302.277 81.0081 302.227 81.1C302.192 81.1905 302.164 81.2876 302.145 81.3912C302.141 81.5079 302.129 81.6181 302.109 81.7217C302.09 81.8253 302.031 81.8962 301.932 81.9343C301.82 81.9737 301.709 81.9619 301.602 81.899C301.48 81.8374 301.379 81.7739 301.301 81.7083L301.277 81.6887C301.112 81.471 301.011 81.2402 300.974 80.9963C300.937 80.7524 300.944 80.5117 300.995 80.2743C301.03 80.0237 301.102 79.7771 301.211 79.5344C301.306 79.293 301.401 79.0661 301.498 78.8536C301.644 78.5348 301.774 78.2101 301.889 77.8795C302.018 77.5332 302.065 77.1797 302.032 76.819C302.018 76.6604 301.984 76.5253 301.93 76.4138C301.889 76.2866 301.848 76.1594 301.808 76.0322L302.254 75.6641C302.173 75.5697 302.121 75.4871 302.1 75.4163C302.093 75.3297 302.085 75.2504 302.079 75.1782C302.087 75.1048 302.088 75.0392 302.083 74.9815C302.09 74.908 302.077 74.8366 302.041 74.7671L302.035 74.7022L302.191 74.4916C302.118 74.0181 302.063 73.5722 302.025 73.1538C301.986 72.7355 301.86 72.3033 301.644 71.8575C301.829 71.6515 302.02 71.5904 302.217 71.6743C302.412 71.7437 302.609 71.8275 302.807 71.9258L302.809 71.9475L302.833 71.9671C302.964 72.1297 303.084 72.3297 303.193 72.567C303.302 72.8043 303.391 73.0581 303.459 73.3282C303.54 73.5827 303.607 73.8384 303.66 74.0954C303.713 74.3525 303.748 74.582 303.767 74.784C303.772 74.8417 303.77 74.9 303.761 74.9591C303.765 75.0023 303.769 75.0528 303.775 75.1105L303.657 75.2522C303.735 75.3178 303.821 75.3827 303.914 75.4469C304.008 75.5111 304.104 75.5314 304.204 75.5077C304.266 75.2402 304.388 75.0617 304.569 74.9724C304.749 74.8687 304.931 74.7867 305.114 74.7263C305.312 74.6645 305.48 74.591 305.618 74.5057C305.768 74.4046 305.832 74.2242 305.808 73.9646C305.803 73.9069 305.792 73.8642 305.775 73.8367L305.814 73.7895C306.181 73.3486 306.559 72.9504 306.949 72.5947C307.351 72.2234 307.776 71.9372 308.223 71.7363C308.685 71.5341 309.169 71.4244 309.677 71.4071C310.199 71.3885 310.769 71.4964 311.387 71.7309L311.432 71.7486L311.751 72.6141L311.613 72.7794C311.776 72.9682 311.848 73.2016 311.83 73.4797C311.825 73.742 311.791 74.007 311.728 74.2746C311.665 74.5422 311.608 74.7947 311.557 75.0321C311.505 75.2551 311.527 75.4131 311.623 75.5062C311.704 75.6006 311.838 75.632 312.024 75.6004C312.225 75.5676 312.382 75.5386 312.496 75.5136C312.597 75.3444 312.743 75.1928 312.935 75.059C313.14 74.9238 313.34 74.7965 313.533 74.677C313.74 74.5563 313.918 74.4381 314.067 74.3226C314.216 74.1927 314.291 74.0622 314.294 73.931C314.528 73.9532 314.715 73.9289 314.854 73.858C314.992 73.7726 315.098 73.6611 315.173 73.5234C315.247 73.3856 315.314 73.2413 315.373 73.0904C315.431 72.9252 315.497 72.7736 315.572 72.6359C315.66 72.4824 315.772 72.363 315.91 72.2777C316.048 72.1923 316.24 72.1529 316.488 72.1593C316.79 71.7972 317.158 71.5236 317.592 71.3384C318.039 71.1375 318.493 71.0088 318.953 70.9522C319.283 70.9074 319.523 70.9873 319.673 71.1919C319.821 71.382 319.909 71.6213 319.935 71.9098C319.969 72.2849 319.916 72.6535 319.774 73.0156C319.633 73.3776 319.47 73.7489 319.287 74.1293C319.103 74.5098 318.943 74.9027 318.805 75.308C318.668 75.7134 318.621 76.1541 318.664 76.6302C318.668 76.6734 318.676 76.7528 318.686 76.8682C318.695 76.9692 318.712 77.0767 318.737 77.1908C318.761 77.2905 318.785 77.3902 318.808 77.4898C318.845 77.5738 318.886 77.6282 318.932 77.6531C318.993 77.6766 319.045 77.6937 319.09 77.7041L318.99 77.8006C319.325 77.8135 319.627 77.8514 319.895 77.9143C320.161 77.9627 320.44 77.9081 320.731 77.7506C320.815 77.7138 320.899 77.6843 320.984 77.6619C321.084 77.6383 321.176 77.6081 321.26 77.5713C321.388 77.545 321.463 77.4873 321.484 77.3981C321.504 77.2944 321.546 77.1961 321.61 77.1029C321.687 76.994 321.809 76.8956 321.976 76.8076C322.155 76.7039 322.454 76.6329 322.873 76.5947L322.841 76.2485C323.122 76.1355 323.357 76.0049 323.547 75.8566C323.736 75.6939 323.919 75.5463 324.096 75.4137C324.287 75.2798 324.496 75.1735 324.721 75.0947C324.961 75.0146 325.264 74.9869 325.63 75.0116ZM340.17 70.8025C340.052 70.9442 339.961 71.0544 339.895 71.1331C339.844 71.2105 339.793 71.2879 339.742 71.3653C339.704 71.427 339.652 71.4972 339.586 71.5759C339.535 71.6533 339.451 71.7701 339.335 71.9262C339.23 72.0522 339.133 72.1847 339.044 72.3238C338.955 72.4629 338.85 72.5888 338.729 72.7017C338.552 72.6742 338.417 72.7084 338.324 72.8042C338.245 72.8986 338.168 73.0075 338.092 73.1309C338.029 73.2384 337.966 73.346 337.903 73.4536C337.853 73.5454 337.777 73.5888 337.675 73.5836C337.346 73.8027 337.015 74.0003 336.682 74.1762C336.348 74.3377 336.033 74.5628 335.74 74.8515L335.551 74.6942L333.399 75.9818C333.33 76.0173 333.262 76.0672 333.195 76.1315C333.128 76.1958 333.06 76.2528 332.992 76.3027C332.691 76.5048 332.373 76.6939 332.04 76.8698C331.72 77.0299 331.4 77.1829 331.078 77.3286L330.805 77.4409C330.947 77.7189 330.965 77.9209 330.86 78.0468C330.755 78.1728 330.597 78.2745 330.386 78.352C330.174 78.4151 329.938 78.4657 329.68 78.5038C329.422 78.542 329.224 78.6109 329.088 78.7107C328.912 78.6976 328.731 78.6997 328.543 78.7168C328.371 78.7471 328.193 78.7852 328.008 78.8312C327.809 78.8785 327.622 78.9101 327.449 78.9259C327.276 78.9417 327.087 78.9372 326.881 78.9124L326.837 78.9163C326.603 79.0542 326.388 79.0956 326.194 79.0406C326.016 78.9987 325.848 78.9122 325.69 78.7811C325.532 78.6356 325.378 78.4678 325.23 78.2777C325.095 78.0719 324.954 77.8883 324.808 77.7271C324.711 77.6195 324.588 77.4635 324.438 77.259C324.289 77.0545 324.159 76.8335 324.051 76.5962C323.927 76.3601 323.847 76.1202 323.81 75.8762C323.758 75.6192 323.788 75.3909 323.9 75.1915C324.013 74.9921 324.103 74.7803 324.17 74.5559C324.222 74.333 324.235 74.0772 324.209 73.7887C324.199 73.6877 324.191 73.5939 324.183 73.5073C324.16 73.4221 324.145 73.329 324.135 73.228C324.208 73.2214 324.288 73.2214 324.376 73.2279C324.462 73.22 324.541 73.2127 324.614 73.2061C324.699 73.1838 324.761 73.149 324.8 73.1018C324.853 73.0388 324.873 72.9424 324.861 72.8125C324.855 72.7404 324.821 72.6853 324.759 72.6473C324.712 72.608 324.679 72.5673 324.66 72.5254C324.735 72.3876 324.805 72.2794 324.871 72.2007C324.949 72.1062 325.014 72.0203 325.065 71.9428C325.115 71.851 325.15 71.7533 325.17 71.6497C325.188 71.5316 325.167 71.3808 325.106 71.1972C325.252 70.8784 325.429 70.5931 325.639 70.3411C325.862 70.0735 326.094 69.8268 326.335 69.6011C326.575 69.3609 326.823 69.1274 327.079 68.9003C327.334 68.6733 327.574 68.4332 327.798 68.1799C328.083 68.2703 328.299 68.2505 328.448 68.1206C328.61 67.9894 328.75 67.8529 328.868 67.7112C328.985 67.5551 329.104 67.4278 329.226 67.3293C329.348 67.2309 329.525 67.2512 329.755 67.3901L329.803 67.4294C330.157 67.0043 330.53 66.7956 330.924 66.8032C331.332 66.8096 331.683 66.9085 331.976 67.0998C332.285 67.2899 332.495 67.5252 332.608 67.8058C332.72 68.072 332.658 68.2668 332.422 68.3902C332.595 68.5344 332.691 68.7147 332.711 68.9311C332.731 69.1475 332.69 69.3403 332.589 69.5096C332.475 69.6946 332.377 69.8854 332.293 70.0822C332.222 70.2632 332.145 70.4594 332.063 70.6706C331.949 71.0156 331.819 71.3475 331.674 71.6662C331.527 71.9706 331.304 72.2383 331.005 72.4693C330.739 72.4208 330.561 72.4662 330.472 72.6053C330.397 72.743 330.346 72.8932 330.317 73.0559C330.287 73.2041 330.247 73.3241 330.197 73.4159C330.147 73.5078 330.022 73.4901 329.821 73.363L329.774 73.3237L329.735 73.3709C329.63 73.4969 329.548 73.6353 329.489 73.7861C329.444 73.9357 329.368 74.0518 329.259 74.1345C329.125 74.1031 328.985 74.0795 328.838 74.0639C328.691 74.0482 328.551 74.0319 328.419 74.0149C328.447 74.3178 328.411 74.5611 328.311 74.7448C328.211 74.9285 328.073 75.0866 327.896 75.2191C327.732 75.336 327.538 75.441 327.314 75.5342C327.088 75.613 326.865 75.7135 326.643 75.8355C326.435 75.9419 326.236 76.0764 326.047 76.2391C325.872 76.3861 325.737 76.5875 325.644 76.8433C325.803 76.9888 325.992 77.0661 326.211 77.0752C326.429 77.0698 326.652 77.0494 326.882 77.0139C327.11 76.9639 327.332 76.9291 327.549 76.9093C327.779 76.8882 327.987 76.9274 328.17 77.027L328.194 77.0467L328.214 77.0231C328.556 76.9482 328.881 76.8385 329.187 76.6941C329.507 76.5339 329.813 76.3751 330.104 76.2175C330.408 76.0443 330.714 75.8854 331.021 75.741C331.34 75.5808 331.671 75.4561 332.012 75.3667C332.095 75.4755 332.194 75.5319 332.311 75.5358C332.442 75.5383 332.564 75.5199 332.677 75.4805L332.695 75.4353C332.714 75.3316 332.735 75.2424 332.757 75.1677C332.778 75.0785 332.813 74.9807 332.862 74.8745C332.948 74.7065 333.059 74.5727 333.196 74.473C333.332 74.3732 333.478 74.2945 333.632 74.2367C333.802 74.1776 333.979 74.1322 334.166 74.1007C334.352 74.0691 334.537 74.0303 334.722 73.9843L334.766 73.9804L334.781 73.9135C334.823 73.7351 334.885 73.6131 334.966 73.5475C335.06 73.4661 335.157 73.4064 335.255 73.3683C335.368 73.3289 335.481 73.2967 335.595 73.2717C335.724 73.2454 335.843 73.1909 335.951 73.1083C336.219 73.1711 336.433 73.1225 336.593 72.9624C336.753 72.8023 336.905 72.6356 337.049 72.4624L337.242 72.663L337.299 72.5705C337.497 72.3488 337.642 72.1828 337.733 72.0726C337.84 71.961 337.94 71.8646 338.034 71.7832C338.127 71.6874 338.236 71.5976 338.359 71.5136C338.495 71.4138 338.679 71.2734 338.909 71.0923C339.1 70.944 339.282 70.7963 339.458 70.6494C339.648 70.5011 339.83 70.339 340.003 70.1632C340.078 70.1854 340.119 70.2398 340.127 70.3264C340.133 70.3985 340.14 70.4707 340.147 70.5428C340.135 70.573 340.124 70.6176 340.115 70.6766C340.121 70.7343 340.139 70.7763 340.17 70.8025ZM330.964 68.9162C330.948 68.9031 330.933 68.8972 330.919 68.8985C330.919 68.8985 330.911 68.892 330.895 68.8788C330.578 68.7478 330.319 68.6988 330.118 68.7317C329.916 68.7501 329.734 68.825 329.571 68.9562C329.422 69.0717 329.283 69.2226 329.154 69.4089C329.039 69.5795 328.909 69.7441 328.763 69.9029C328.631 70.0459 328.467 70.1627 328.271 70.2533C328.076 70.3439 327.83 70.3591 327.534 70.2989C327.512 70.5337 327.489 70.7685 327.467 71.0033C327.458 71.2223 327.457 71.4479 327.464 71.68C327.226 71.789 327.043 71.9294 326.913 72.1013C326.798 72.2719 326.698 72.4556 326.614 72.6523C326.545 72.8478 326.477 73.0577 326.41 73.282C326.356 73.4906 326.273 73.6945 326.16 73.894L326.257 73.9943C326.312 73.9601 326.379 73.9758 326.457 74.0414C326.536 74.1069 326.591 74.1528 326.623 74.179C326.76 73.9337 326.952 73.7198 327.197 73.5374C327.456 73.3536 327.717 73.1843 327.98 73.0294C328.255 72.8588 328.515 72.6823 328.76 72.4998C329.006 72.3174 329.181 72.0904 329.287 71.8189C329.737 71.6468 330.06 71.3555 330.255 70.9449C330.45 70.5343 330.608 70.1125 330.728 69.6796C330.749 69.5904 330.789 69.4632 330.846 69.2979C330.917 69.1169 330.956 68.9896 330.964 68.9162ZM359.34 59.9513C359.158 60.1861 358.945 60.322 358.701 60.3588C358.456 60.3812 358.209 60.382 357.959 60.3611C357.725 60.3389 357.492 60.3456 357.263 60.3811C357.046 60.4009 356.869 60.5335 356.732 60.7788C356.496 60.7422 356.257 60.7567 356.016 60.8224C355.773 60.8737 355.525 60.9473 355.272 61.0431C355.018 61.1246 354.763 61.206 354.509 61.2874C354.255 61.3689 353.997 61.4142 353.736 61.4235L353.334 61.0893C353.248 61.2572 353.113 61.3714 352.929 61.4318C352.759 61.4765 352.582 61.449 352.398 61.3494C352.114 61.5791 351.819 61.7005 351.515 61.7138C351.211 61.7271 350.914 61.7469 350.626 61.7733C350.336 61.7852 350.067 61.8679 349.819 62.0215C349.584 62.1594 349.402 62.4742 349.273 62.9661C349.173 63.3098 349.081 63.66 348.998 64.0168C348.913 64.3592 348.828 64.7016 348.742 65.0439C348.504 65.9385 348.258 66.8266 348.004 67.7081C347.763 68.5739 347.478 69.4364 347.149 70.2956C347.18 70.9474 347.254 71.6025 347.373 72.2609C347.491 72.9193 347.616 73.5697 347.747 74.2124C347.705 74.3908 347.7 74.5731 347.732 74.7593C347.778 74.9442 347.846 75.1271 347.935 75.3081C348.024 75.4891 348.127 75.6615 348.244 75.8254C348.359 75.9748 348.481 76.1092 348.608 76.2285L348.964 75.825L349.574 76.533C349.701 76.3323 349.849 76.1223 350.019 75.9032C350.201 75.6684 350.392 75.4545 350.593 75.2616C350.792 75.0543 351.002 74.8823 351.222 74.7458C351.455 74.5936 351.693 74.4846 351.934 74.4189C352.026 74.3087 352.11 74.1919 352.186 74.0686C352.262 73.9453 352.347 73.8429 352.441 73.7616C352.534 73.6658 352.637 73.5982 352.75 73.5588C352.876 73.5036 353.028 73.497 353.207 73.5389C353.644 73.237 354.026 72.8748 354.351 72.4524C354.675 72.0155 354.999 71.5858 355.324 71.1633C355.648 70.7264 355.989 70.3242 356.349 69.9568C356.722 69.5881 357.17 69.3144 357.692 69.1357C357.422 70.0041 357.057 70.8595 356.595 71.7017C356.133 72.5296 355.598 73.284 354.991 73.965C354.836 74.1828 354.637 74.3829 354.391 74.5653C354.283 74.648 354.167 74.7385 354.045 74.837C353.922 74.921 353.806 75.0043 353.697 75.087C353.331 75.3823 352.982 75.6979 352.649 76.0338C352.315 76.3553 351.998 76.7115 351.699 77.1025C351.648 77.0199 351.585 76.9675 351.51 76.9452C351.436 76.923 351.348 76.9165 351.247 76.9257C351.16 76.9336 351.067 76.9494 350.967 76.973C350.882 76.9954 350.803 77.0026 350.729 76.9948C350.474 77.2218 350.127 77.4135 349.691 77.5697C349.27 77.7391 348.883 77.8036 348.53 77.7631C348.426 77.7435 348.284 77.6983 348.103 77.6276C347.923 77.5712 347.788 77.5182 347.696 77.4684C347.099 77.1447 346.631 76.722 346.292 76.2001C345.967 75.6625 345.759 75.0632 345.67 74.4022L345.481 74.2449C345.653 74.0547 345.752 73.871 345.78 73.6939C345.822 73.5155 345.82 73.3411 345.776 73.1706C345.744 72.9844 345.691 72.8001 345.616 72.6178C345.554 72.4198 345.507 72.2205 345.474 72.0198C345.448 71.8913 345.438 71.7831 345.444 71.6952C345.465 71.606 345.485 71.5024 345.503 71.3843C345.576 70.9121 345.644 70.455 345.705 70.013C345.765 69.5565 345.833 69.0994 345.907 68.6416C346.096 67.5188 346.328 66.4065 346.606 65.3046C346.897 64.187 347.203 63.0825 347.525 61.9911C347.286 61.9257 347.051 61.8963 346.819 61.9029C346.585 61.8952 346.346 61.9025 346.101 61.9249C345.87 61.946 345.631 61.9606 345.385 61.9685C345.152 61.9752 344.917 61.9458 344.678 61.8803C344.573 61.8463 344.521 61.8293 344.521 61.8293C344.52 61.8148 344.461 61.8129 344.346 61.8234C344.274 61.83 344.174 61.8537 344.047 61.8944C343.918 61.9207 343.789 61.9398 343.659 61.9517C343.529 61.9635 343.413 61.9596 343.309 61.94C343.191 61.9217 343.12 61.8627 343.096 61.7631L343.077 61.5467C343.07 61.3145 343.107 61.1584 343.187 61.0784C343.265 60.9839 343.369 60.9235 343.497 60.8972C343.625 60.8565 343.768 60.8289 343.926 60.8144C344.084 60.7855 344.231 60.7211 344.367 60.6214C344.779 60.671 345.167 60.701 345.532 60.7113C345.895 60.7072 346.24 60.6684 346.568 60.5948C346.911 60.5198 347.234 60.3957 347.538 60.2225C347.857 60.0479 348.162 59.8018 348.453 59.4843C348.643 59.0159 348.772 58.524 348.841 58.0085C348.909 57.4786 348.993 56.9618 349.092 56.4581C349.205 55.9387 349.365 55.4586 349.572 55.0178C349.778 54.5626 350.12 54.1676 350.598 53.8329C350.826 53.783 351.031 53.7934 351.212 53.8641C351.393 53.9349 351.575 54.0128 351.757 54.098C351.703 54.3066 351.665 54.521 351.641 54.7414C351.618 54.9617 351.587 55.1827 351.549 55.4044C351.526 55.6248 351.487 55.8392 351.433 56.0478C351.38 56.2564 351.289 56.4538 351.16 56.6401C351.354 56.6951 351.471 56.7718 351.509 56.8701C351.547 56.9685 351.542 57.078 351.495 57.1987C351.448 57.3194 351.387 57.4486 351.312 57.5864C351.238 57.7241 351.198 57.8441 351.192 57.9464C351.035 57.9754 350.907 58.0889 350.809 58.287C350.725 58.4838 350.63 58.6379 350.524 58.7494C350.431 59.0052 350.472 59.2125 350.646 59.3711C350.821 59.5297 350.98 59.6824 351.124 59.8292C351.258 59.8607 351.389 59.856 351.516 59.8153C351.642 59.7601 351.753 59.7063 351.85 59.6538C351.962 59.6 352.068 59.5685 352.169 59.5592C352.27 59.55 352.369 59.5991 352.466 59.7066C352.596 59.5348 352.734 59.4566 352.881 59.4723C353.027 59.4736 353.174 59.4964 353.324 59.541C353.472 59.5711 353.618 59.5795 353.763 59.5663C353.905 59.5387 354.032 59.4108 354.142 59.1825C354.307 59.0801 354.464 59.044 354.612 59.0741C354.775 59.1029 354.924 59.1474 355.061 59.2077C355.196 59.2535 355.323 59.2928 355.443 59.3255C355.575 59.3425 355.702 59.3018 355.824 59.2034C356.043 59.2124 356.282 59.1979 356.54 59.1597C356.813 59.1203 357.077 59.067 357.333 59C357.603 58.9317 357.865 58.8568 358.12 58.7753C358.387 58.6782 358.627 58.598 358.84 58.535C359.068 58.6451 359.209 58.7486 359.261 58.8456C359.314 58.9427 359.33 59.043 359.31 59.1466C359.305 59.2489 359.287 59.367 359.255 59.5008C359.237 59.6188 359.265 59.769 359.34 59.9513ZM369.54 67.9438C369.618 68.155 369.613 68.3445 369.527 68.5124C369.439 68.6659 369.314 68.8083 369.151 68.9395C369.003 69.0694 368.833 69.1941 368.64 69.3136C368.46 69.4173 368.311 69.5328 368.192 69.66C367.556 69.8636 366.974 70.0259 366.447 70.1468C365.933 70.252 365.363 70.3841 364.737 70.5431C364.552 70.5891 364.372 70.6055 364.196 70.5925C364.034 70.5637 363.866 70.5645 363.695 70.5947C363.594 70.6039 363.5 70.6125 363.413 70.6204C363.325 70.6139 363.239 70.6218 363.154 70.6441C362.824 70.7033 362.619 70.8385 362.536 71.0497C362.452 71.2465 362.386 71.478 362.338 71.7443C362.302 71.9948 362.245 72.2401 362.165 72.4802C362.098 72.7045 361.917 72.8738 361.622 72.988C361.6 73.0628 361.613 73.1271 361.662 73.1808C361.725 73.2332 361.772 73.2798 361.805 73.3204C361.567 73.415 361.413 73.56 361.343 73.7554C361.288 73.9496 361.24 74.143 361.2 74.3359C361.159 74.5287 361.087 74.6953 360.984 74.8357C360.895 74.9748 360.697 75.0365 360.39 75.0209C359.986 75.5379 359.494 75.9683 358.915 76.3122C358.336 76.6705 357.727 76.9226 357.085 77.0685C356.965 77.0214 356.843 76.9598 356.719 76.8838C356.61 76.8064 356.495 76.737 356.373 76.6754C356.265 76.6125 356.145 76.5653 356.011 76.5339C355.893 76.5156 355.756 76.5281 355.6 76.5715C355.558 76.2699 355.474 75.9938 355.35 75.7434C355.21 75.4942 355.044 75.2621 354.849 75.0471C354.797 74.7901 354.811 74.5488 354.892 74.3231C354.958 74.0844 355.031 73.8522 355.112 73.6266C355.194 73.4009 355.26 73.1766 355.313 72.9536C355.349 72.7175 355.311 72.4592 355.198 72.1785C355.335 72.0788 355.419 71.9692 355.452 71.8499C355.499 71.7292 355.525 71.6105 355.529 71.4937C355.545 71.3613 355.571 71.2425 355.605 71.1376C355.638 71.0182 355.73 70.9152 355.882 70.8286C355.735 70.4929 355.727 70.2391 355.856 70.0672C355.999 69.8796 356.173 69.711 356.377 69.5614C356.582 69.4118 356.771 69.249 356.944 69.0732C357.117 68.8974 357.167 68.6527 357.095 68.3393C357.174 68.2448 357.268 68.1635 357.378 68.0952C357.488 68.0269 357.592 67.9666 357.689 67.9141C357.799 67.8458 357.902 67.7782 357.998 67.7113C358.093 67.6443 358.18 67.5564 358.257 67.4475C358.15 67.3846 358.093 67.3171 358.086 67.245C358.094 67.1715 358.109 67.0974 358.131 67.0226C358.152 66.9334 358.173 66.8442 358.194 66.755C358.229 66.6645 358.221 66.578 358.17 66.4954C358.565 66.5175 358.899 66.436 359.174 66.2509C359.461 66.0501 359.726 65.8513 359.97 65.6544C360.228 65.4563 360.491 65.3086 360.759 65.2114C361.026 65.1142 361.352 65.1718 361.735 65.3841C361.773 65.4824 361.83 65.6299 361.906 65.8266C361.995 66.0076 362.078 66.1964 362.154 66.3931C362.245 66.5885 362.327 66.7773 362.402 66.9596C362.477 67.1419 362.526 67.2756 362.548 67.3609C362.555 67.433 362.565 67.5484 362.58 67.7071C362.594 67.8658 362.61 68.0389 362.627 68.2265C362.643 68.3996 362.658 68.5655 362.673 68.7242C362.687 68.8829 362.698 69.0055 362.706 69.0921C363.147 69.2991 363.579 69.4124 364.003 69.4318C364.425 69.4369 364.834 69.2977 365.23 69.0142C365.402 69.1439 365.558 69.1734 365.697 69.1025C365.834 69.0172 365.964 68.9253 366.086 68.8269C366.222 68.7271 366.363 68.6707 366.507 68.6575C366.65 68.6299 366.805 68.7321 366.972 68.9642C367.156 68.7582 367.355 68.6236 367.567 68.5606C367.779 68.4831 368 68.4338 368.23 68.4127C368.46 68.3772 368.682 68.3351 368.895 68.2865C369.123 68.2365 369.339 68.1223 369.54 67.9438ZM361.264 69.0711C361.244 68.8547 361.259 68.6206 361.309 68.3688C361.359 68.1169 361.395 67.8736 361.417 67.6388C361.438 67.3896 361.41 67.1594 361.332 66.9483C361.269 66.7359 361.114 66.5536 360.868 66.4016C360.717 66.5027 360.598 66.6372 360.512 66.8051C360.424 66.9586 360.337 67.1193 360.25 67.2872C360.162 67.4407 360.051 67.5745 359.916 67.6887C359.795 67.8016 359.625 67.8462 359.404 67.8227C359.348 68.0025 359.361 68.1467 359.444 68.2555C359.525 68.3499 359.621 68.443 359.731 68.5348C359.84 68.6121 359.943 68.6973 360.038 68.7904C360.149 68.8821 360.197 69.0087 360.182 69.17C360.244 69.208 360.327 69.2441 360.432 69.2781C360.536 69.2977 360.639 69.3101 360.741 69.3153C360.856 69.3048 360.963 69.2805 361.062 69.2424C361.16 69.2043 361.228 69.1472 361.264 69.0711ZM361.271 70.8162C360.982 70.8426 360.724 70.8007 360.496 70.6907C360.281 70.5648 360.057 70.4253 359.825 70.2719C359.607 70.1173 359.376 69.9783 359.132 69.8552C358.901 69.7163 358.626 69.6469 358.306 69.647C358.192 69.832 358.055 70.0118 357.897 70.1863C357.737 70.3464 357.6 70.5189 357.486 70.7039C357.372 70.8889 357.295 71.085 357.256 71.2922C357.231 71.4982 357.288 71.7257 357.427 71.9748C357.11 72.1639 356.907 72.4151 356.82 72.7286C356.731 73.0277 356.68 73.3524 356.669 73.7026C356.671 74.0514 356.674 74.4003 356.677 74.7492C356.68 75.0981 356.614 75.4168 356.481 75.7054L356.927 75.3373C356.988 75.3609 357.035 75.4002 357.069 75.4553C357.117 75.5091 357.131 75.5733 357.108 75.6481C357.213 75.5221 357.335 75.4237 357.474 75.3528C357.612 75.2675 357.751 75.2038 357.893 75.1618C358.048 75.104 358.196 75.0541 358.338 75.012C358.494 74.9687 358.641 74.9116 358.78 74.8407C359.159 75.0097 359.423 75.0292 359.571 74.8993C359.719 74.7694 359.833 74.5844 359.913 74.3444C359.993 74.1043 360.08 73.8564 360.173 73.6006C360.264 73.3303 360.437 73.1545 360.692 73.0731L360.526 72.9354C360.744 72.61 360.932 72.2801 361.09 71.9456C361.262 71.5953 361.322 71.2188 361.271 70.8162Z" fill="black"/>
<defs>
<filter id="filter0_d_3916_4541" x="6.73541" y="73.8882" width="663.37" height="212.928" filterUnits="userSpaceOnUse" color-interpolation-filters="sRGB">
<feFlood flood-opacity="0" result="BackgroundImageFix"/>
<feColorMatrix in="SourceAlpha" type="matrix" values="0 0 0 0 0 0 0 0 0 0 0 0 0 0 0 0 0 0 127 0" result="hardAlpha"/>
<feOffset dx="4.83643" dy="5.80372"/>
<feGaussianBlur stdDeviation="2.92893"/>
<feComposite in2="hardAlpha" operator="out"/>
<feColorMatrix type="matrix" values="0 0 0 0 0 0 0 0 0 0 0 0 0 0 0 0 0 0 0.25 0"/>
<feBlend mode="normal" in2="BackgroundImageFix" result="effect1_dropShadow_3916_4541"/>
<feBlend mode="normal" in="SourceGraphic" in2="effect1_dropShadow_3916_4541" result="shape"/>
</filter>
<linearGradient id="paint0_linear_3916_4541" x1="11.9813" y1="185.28" x2="654.675" y2="155.074" gradientUnits="userSpaceOnUse">
<stop stop-color="#E62813"/>
<stop offset="0.805" stop-color="#8F2115"/>
</linearGradient>
<linearGradient id="paint1_linear_3916_4541" x1="34.7207" y1="184.286" x2="633.607" y2="156.14" gradientUnits="userSpaceOnUse">
<stop stop-color="#D5910F"/>
<stop offset="1" stop-color="#DB6F03"/>
</linearGradient>
</defs>
</svg>
