<svg width="180" height="124" viewBox="0 0 180 124" fill="none" xmlns="http://www.w3.org/2000/svg">
<g filter="url(#filter0_d_4639_1327)">
<path d="M16.8687 80.4269H21.623V88.4518H29.8295V80.4269H34.5838V101.534H29.8295V92.8124H21.623V101.534H16.8687V80.4269Z" fill="#F0EEF2"/>
<path d="M44.5652 86.2714C46.6647 86.2714 48.3202 86.7963 49.5315 87.8461C50.7428 88.8757 51.3484 90.2788 51.3484 92.0554V101.534H47.1694L46.8666 100.05C45.9581 101.261 44.656 101.867 42.9602 101.867C41.8498 101.867 40.8505 101.655 39.9622 101.231C39.0942 100.787 38.4078 100.181 37.903 99.414C37.4185 98.6266 37.1763 97.7282 37.1763 96.7188C37.1763 95.8709 37.358 95.1442 37.7214 94.5385C38.0847 93.9127 38.5894 93.4181 39.2355 93.0547C40.1641 92.55 41.3149 92.2976 42.6877 92.2976H46.8061V92.0554C46.8061 91.5103 46.5739 91.0762 46.1096 90.7532C45.6654 90.41 45.0396 90.2384 44.2321 90.2384C43.6062 90.2384 43.0006 90.3595 42.4151 90.6018C41.8498 90.8239 41.2543 91.2377 40.6285 91.8434L37.3277 89.0877C38.2362 88.1388 39.3263 87.4322 40.5982 86.9679C41.87 86.5036 43.1924 86.2714 44.5652 86.2714ZM43.687 98.2027C44.5147 98.2027 45.2314 97.9604 45.837 97.4759C46.4427 96.9914 46.7657 96.3857 46.8061 95.6589H43.3539C42.8492 95.6589 42.4656 95.7498 42.2031 95.9315C41.9003 96.1334 41.7489 96.4261 41.7489 96.8097C41.7489 97.2134 41.9104 97.5465 42.2334 97.809C42.5766 98.0714 43.0611 98.2027 43.687 98.2027Z" fill="#F0EEF2"/>
<path d="M60.5992 101.867C58.9437 101.867 57.5508 101.503 56.4202 100.777C55.2897 100.03 54.4418 99.0708 53.8765 97.8998C53.3314 96.7087 53.0589 95.447 53.0589 94.1146C53.0589 92.7418 53.3415 91.4598 53.9068 90.2687C54.4721 89.0776 55.32 88.1186 56.4505 87.3919C57.581 86.6449 58.9538 86.2714 60.5689 86.2714C62.1638 86.2714 63.5366 86.655 64.6873 87.4222C65.838 88.1691 66.6859 89.2997 67.231 90.8138L62.9309 92.5399C62.83 91.8535 62.5574 91.2983 62.1133 90.8743C61.6893 90.4504 61.1745 90.2384 60.5689 90.2384C59.5797 90.2384 58.863 90.6119 58.4188 91.3589C57.9747 92.1058 57.7526 93.0244 57.7526 94.1146C57.7526 95.2047 57.9646 96.1132 58.3886 96.84C58.8327 97.5465 59.5494 97.8998 60.5386 97.8998C61.1241 97.8998 61.6389 97.698 62.083 97.2942C62.5272 96.8904 62.8199 96.3554 62.9612 95.6892L67.0796 97.2942C66.5749 98.7074 65.7472 99.8278 64.5964 100.656C63.4659 101.463 62.1335 101.867 60.5992 101.867Z" fill="#F0EEF2"/>
<path d="M69.1516 80.4269H73.7242V91.5406L78.0243 86.6045H84.111L78.6602 92.237L84.6258 101.534H79.2053L75.3292 95.2956L73.7242 97.2033V101.534H69.1516V80.4269Z" fill="#F0EEF2"/>
<path d="M95.461 102.079C93.3412 102.079 91.4738 101.625 89.8588 100.716C88.2639 99.7874 87.0223 98.4853 86.134 96.8097C85.266 95.1341 84.8319 93.196 84.8319 90.9955C84.8319 88.7748 85.266 86.8165 86.134 85.1207C87.0223 83.4249 88.2538 82.1227 89.8285 81.2143C91.4234 80.2856 93.2706 79.8213 95.3702 79.8213C97.712 79.8213 99.7207 80.3866 101.396 81.5171C103.092 82.6476 104.334 84.2223 105.121 86.2411L100.73 87.9672C100.326 86.7963 99.6602 85.908 98.7315 85.3024C97.8028 84.6766 96.6824 84.3636 95.3702 84.3636C93.5532 84.3636 92.13 84.939 91.1003 86.0897C90.0909 87.2203 89.5862 88.8353 89.5862 90.9349C89.5862 93.0345 90.101 94.6596 91.1306 95.8104C92.1804 96.9611 93.6239 97.5365 95.461 97.5365C96.7934 97.5365 97.9139 97.2235 98.8223 96.5977C99.7308 95.9719 100.367 95.0533 100.73 93.842L105.182 95.5378C104.435 97.6374 103.213 99.2525 101.517 100.383C99.8419 101.514 97.823 102.079 95.461 102.079Z" fill="#F0EEF2"/>
<path d="M112.8 86.2714C114.9 86.2714 116.555 86.7963 117.767 87.8461C118.978 88.8757 119.584 90.2788 119.584 92.0554V101.534H115.405L115.102 100.05C114.193 101.261 112.891 101.867 111.196 101.867C110.085 101.867 109.086 101.655 108.198 101.231C107.329 100.787 106.643 100.181 106.138 99.414C105.654 98.6266 105.412 97.7282 105.412 96.7188C105.412 95.8709 105.593 95.1442 105.957 94.5385C106.32 93.9127 106.825 93.4181 107.471 93.0547C108.399 92.55 109.55 92.2976 110.923 92.2976H115.041V92.0554C115.041 91.5103 114.809 91.0762 114.345 90.7532C113.901 90.41 113.275 90.2384 112.467 90.2384C111.842 90.2384 111.236 90.3595 110.65 90.6018C110.085 90.8239 109.49 91.2377 108.864 91.8434L105.563 89.0877C106.471 88.1388 107.562 87.4322 108.833 86.9679C110.105 86.5036 111.428 86.2714 112.8 86.2714ZM111.922 98.2027C112.75 98.2027 113.467 97.9604 114.072 97.4759C114.678 96.9914 115.001 96.3857 115.041 95.6589H111.589C111.084 95.6589 110.701 95.7498 110.438 95.9315C110.136 96.1334 109.984 96.4261 109.984 96.8097C109.984 97.2134 110.146 97.5465 110.469 97.809C110.812 98.0714 111.296 98.2027 111.922 98.2027Z" fill="#F0EEF2"/>
<path d="M140.128 86.2714C141.279 86.2714 142.248 86.544 143.035 87.089C143.843 87.6341 144.439 88.3407 144.822 89.2088C145.226 90.0567 145.428 90.9551 145.428 91.9039V101.534H140.855V93.3272C140.855 92.5197 140.704 91.803 140.401 91.1772C140.118 90.5513 139.563 90.2384 138.735 90.2384C137.766 90.2384 137.11 90.5816 136.767 91.268C136.444 91.9342 136.283 92.8629 136.283 94.054L136.313 95.4167C136.333 95.7195 136.343 96.1536 136.343 96.7188V101.534H131.801V93.2364C131.801 92.772 131.781 92.3582 131.74 91.9948C131.7 91.6314 131.528 91.2478 131.225 90.8441C130.943 90.4403 130.468 90.2384 129.802 90.2384C128.773 90.2384 128.086 90.5816 127.743 91.268C127.4 91.9544 127.228 92.9234 127.228 94.1751L127.258 95.4773C127.279 95.7599 127.289 96.1737 127.289 96.7188V101.534H122.716L122.686 86.6045H127.077V88.5426C127.925 87.0285 129.237 86.2714 131.013 86.2714C131.902 86.2714 132.729 86.4935 133.497 86.9376C134.284 87.3818 134.9 88.1489 135.344 89.2391C135.949 88.1086 136.646 87.3313 137.433 86.9074C138.241 86.4834 139.139 86.2714 140.128 86.2714Z" fill="#F0EEF2"/>
<path d="M157.044 86.2714C158.336 86.2714 159.437 86.6146 160.345 87.301C161.274 87.9874 161.97 88.9262 162.435 90.1173C162.899 91.2882 163.131 92.6206 163.131 94.1146C163.131 95.7498 162.848 97.1529 162.283 98.3238C161.738 99.4947 161.001 100.383 160.073 100.989C159.164 101.574 158.155 101.867 157.044 101.867C156.318 101.867 155.601 101.736 154.894 101.473C154.188 101.191 153.602 100.817 153.138 100.353V107.711H148.565V86.6045H153.138V87.725C153.622 87.2203 154.208 86.8569 154.894 86.6348C155.601 86.3926 156.318 86.2714 157.044 86.2714ZM155.773 97.8998C157.65 97.8998 158.589 96.6179 158.589 94.054C158.589 91.5305 157.67 90.2687 155.833 90.2687C153.754 90.2687 152.714 91.5305 152.714 94.054C152.714 95.2047 152.956 96.1334 153.441 96.84C153.925 97.5465 154.703 97.8998 155.773 97.8998Z" fill="#F0EEF2"/>
<path d="M126.388 68.879C127.554 70.0437 126.729 72.0376 125.081 72.0376H47.722C46.0734 72.0376 45.2485 70.0437 46.4153 68.879L79.5382 35.8145C80.2638 35.0902 81.4401 35.0943 82.1607 35.8236L85.0603 38.7582C85.7814 39.4879 86.9585 39.4914 87.6839 38.7661L90.6421 35.8079C91.364 35.086 92.5342 35.0855 93.2567 35.8067L126.388 68.879Z" fill="#FF9D66"/>
<path d="M70.7798 72.0367L86.6285 56.188L102.572 72.0367H70.7798Z" fill="#DB693B"/>
<path d="M106.696 27.7236C108.313 28.6835 107.633 31.1637 105.752 31.1637H87.6421C86.6206 31.1637 85.7925 30.3356 85.7925 29.3141V18.5639C85.7925 17.1301 87.3533 16.2415 88.5862 16.9734L106.696 27.7236Z" fill="#DB693B"/>
</g>
<defs>
<filter id="filter0_d_4639_1327" x="0.868652" y="0.711426" width="178.262" height="123" filterUnits="userSpaceOnUse" color-interpolation-filters="sRGB">
<feFlood flood-opacity="0" result="BackgroundImageFix"/>
<feColorMatrix in="SourceAlpha" type="matrix" values="0 0 0 0 0 0 0 0 0 0 0 0 0 0 0 0 0 0 127 0" result="hardAlpha"/>
<feOffset/>
<feGaussianBlur stdDeviation="8"/>
<feComposite in2="hardAlpha" operator="out"/>
<feColorMatrix type="matrix" values="0 0 0 0 0.137255 0 0 0 0 0.294118 0 0 0 0 0.360784 0 0 0 0.4 0"/>
<feBlend mode="normal" in2="BackgroundImageFix" result="effect1_dropShadow_4639_1327"/>
<feBlend mode="normal" in="SourceGraphic" in2="effect1_dropShadow_4639_1327" result="shape"/>
</filter>
</defs>
</svg>
