<svg width="475" height="634" viewBox="0 0 475 634" fill="none" xmlns="http://www.w3.org/2000/svg">
<g clip-path="url(#clip0_4573_12643)">
<rect width="475" height="633.333" rx="34.49" fill="#263D47"/>
<rect width="475" height="633.333" rx="34.4922" fill="#A6754F"/>
<rect x="-137" y="-28" width="2147" height="897" fill="url(#paint0_linear_4573_12643)"/>
<path opacity="0.58" d="M121.332 60.4504C133.378 56.142 155.294 84.1307 159.115 84.1038C174.288 83.9967 201.118 78.9034 220.126 92.426C236.795 104.284 261.719 116.652 288.803 131.028C310.035 142.297 331.015 158.505 341.137 166.325L341.195 166.369C343.683 168.292 346.211 170.306 348.842 172.455C392.758 152.429 403.549 141.809 412.538 135.898C424.776 127.849 437.693 118.855 454.129 111.348C460.934 108.24 469.28 106.84 478.075 106.239C499.647 104.763 514.636 110.414 526.003 117.571C550.182 132.793 577.658 137.926 600.998 148.1C620.44 156.575 635.686 163.679 650.211 168.77C664.594 173.811 677.297 181.027 708.694 184.349C792.509 193.218 817.261 181.673 829.915 178.683C845.233 175.063 852.592 161.344 874.589 148.8C913.73 126.48 907.135 113.988 960.585 94.8713C972.632 90.5629 994.548 118.551 998.369 118.524C1013.54 118.417 1040.37 113.323 1059.38 126.846C1076.05 138.704 1100.97 151.072 1128.06 165.448C1149.29 176.717 1170.27 192.925 1180.39 200.745L1180.45 200.79C1191.99 209.705 1204.39 220.535 1223.91 238.161C1230.39 244.008 1235.94 248.084 1242.22 251.972C1266.14 266.781 1341.79 255.878 1390.24 256.784C1414.98 258.877 1435.07 260.08 1455.93 257.7C1460.38 256.506 1464.12 254.729 1471.76 256.489V531.222H-132.15V496.801H-971.404V265.168C-952.603 267.539 -922.303 274.721 -907.153 279.22C-893.024 283.415 -874.413 286.107 -856.728 287.615C-833.355 289.609 -808.894 280.756 -786.746 275.961C-770.081 272.353 -765.921 261.612 -739.499 241.005C-725.646 230.201 -707.968 222.714 -688.392 216.106C-683.636 214.5 -680.202 211.939 -651.434 200.94C-622.666 189.94 -568.988 170.383 -533.221 156.16C-452.379 124.012 -438.103 108.965 -426.716 101.477C-414.478 93.4279 -401.561 84.4346 -385.125 76.928C-378.32 73.8204 -369.974 72.4202 -361.179 71.8186C-339.607 70.343 -324.618 75.9942 -313.25 83.1506C-289.072 98.3724 -261.596 103.507 -238.256 113.68C-218.814 122.155 -203.568 129.259 -189.042 134.35C-174.66 139.391 -161.957 146.607 -130.56 149.929C-46.7448 158.798 -21.9929 147.253 -9.33936 144.263C5.97894 140.643 13.3386 126.924 35.3354 114.38C74.4758 92.0601 67.8804 79.5672 121.332 60.4504Z" fill="url(#paint1_linear_4573_12643)"/>
<path opacity="0.95" d="M1367.17 513.106C1384.33 508.122 1418.63 500.163 1439.91 497.537L1193.08 671.279L-622.696 671.279L-622.696 366.9C-614.046 364.95 -609.806 366.92 -604.774 368.243C-581.156 370.879 -558.416 369.546 -530.409 367.229C-475.55 366.224 -389.911 378.303 -362.835 361.896C-355.726 357.589 -349.438 353.074 -342.107 346.596C-320.01 327.068 -305.965 315.069 -292.901 305.192C-281.467 296.547 -219.745 289.377 -233.589 266.036C-300.192 153.745 -271.976 140.042 -253.106 126.905C-231.586 111.923 -214.631 91.3608 -197.454 91.4793C-193.129 91.5092 -154.9 86.7059 -141.262 91.4793C-80.7501 112.659 -88.217 126.499 -43.9066 151.228C-19.0039 165.125 -10.6724 180.325 6.66956 184.335C20.9945 187.648 49.015 200.438 241.167 286.977C273.75 301.651 308.19 287.064 324.472 281.479C340.917 275.839 380.767 251.865 402.778 242.476C429.201 231.205 460.306 225.517 487.678 208.652C500.547 200.723 517.516 194.463 541.938 196.098C551.894 196.764 561.343 198.315 569.046 201.758C587.653 210.075 639.24 217.97 653.095 226.887C665.985 235.184 691.818 247.019 760.748 298.739C795.502 324.816 1091.74 407.288 1124.31 419.474C1156.88 431.66 1114.13 441.401 1119.52 443.18C1141.68 450.502 1161.69 458.797 1177.37 470.767C1207.29 493.598 1212 505.498 1230.86 509.495C1255.94 514.807 1283.63 524.616 1310.09 522.407C1330.11 520.736 1351.18 517.754 1367.17 513.106Z" fill="url(#paint2_linear_4573_12643)"/>
<mask id="mask0_4573_12643" style="mask-type:alpha" maskUnits="userSpaceOnUse" x="-468" y="505" width="960" height="516">
<path d="M-317.735 513.647C-389.852 518.561 -449.207 526.413 -468 529.295V964.342L491.149 1020.67L477.467 536.913C444.913 531.56 399.386 529.295 292.525 513.647C233.471 505 44.3638 505 -0.608246 505H-0.6922C-45.5122 505 -190.823 505 -317.735 513.647Z" fill="#CFB584"/>
</mask>
<g mask="url(#mask0_4573_12643)">
<g filter="url(#filter0_n_4573_12643)">
<path d="M-317.735 513.647C-389.852 518.561 -449.207 526.413 -468 529.295V964.342L491.149 1020.67L477.467 536.913C444.913 531.56 399.386 529.295 292.525 513.647C233.471 505 44.3638 505 -0.608246 505H-0.6922C-45.5122 505 -190.823 505 -317.735 513.647Z" fill="#CFB584"/>
</g>
<path d="M248.244 551.638C247.3 523.331 259.331 490.778 264.757 478.039H292.592L399.217 556.12L465.975 744.836V779.041L491.452 818.907V1081.93L387.894 1064.24C478.949 1006.21 463.38 913.03 465.975 842.733C467.686 796.375 413.213 734.929 381.525 708.98C344.017 684.447 315.71 669.114 300.613 654.017C285.515 638.92 276.112 630.191 271.598 621.463C262.119 603.138 249.423 587.023 248.244 551.638Z" fill="#9B8154"/>
<path d="M-241.946 552.818C-262.894 543.571 -287.159 495.024 -296.674 471.906H-332.53L-341.258 1023.43L96.5633 1098.44L47.0253 1028.85C53.709 1035.46 116.001 1017.63 152.234 967.049C188.468 916.474 163.793 852.247 141.147 811.123C123.058 779.515 -22.3278 656.683 -107.25 630.427C-217.885 596.223 -215.762 564.377 -241.946 552.818Z" fill="#9B8154"/>
</g>
<path d="M31.4173 544.649C31.7833 542.758 31.5698 541.675 31.4173 541.37C31.0869 540.964 30.1364 539.891 28.9775 538.854C27.8185 537.817 26.8172 538.219 26.4614 538.549C25.3177 539.235 26.6139 542.514 26.9951 544.649C27.3763 546.784 31.4173 549.071 31.4173 548.309C31.4173 547.546 30.9598 547.012 31.4173 544.649Z" fill="#9DAEB4"/>
<path d="M31.4936 541.904C31.4936 539.159 34.7975 537.939 36.3733 538.168C37.6694 536.872 41.6342 539.159 43.3878 540.455C44.7907 541.492 44.8365 544.598 44.684 546.021C39.0418 550.139 32.7897 548.69 31.4936 548.385C30.1974 548.08 31.4936 545.335 31.4936 541.904Z" fill="#909BA0"/>
<path d="M45.9038 541.142C45.1719 536.689 41.9899 532.628 40.4904 531.153C39.2095 532.495 36.6527 537.177 36.9831 538.244C42.3966 537.177 43.5097 546.89 44.9127 545.793C46.3156 544.695 46.158 542.234 45.9038 541.142Z" fill="#859197"/>
<path d="M40.6428 531.23C39.1789 529.4 36.6273 530.01 35.5344 530.543C35.6361 530.499 34.8024 531.091 30.6547 533.822C26.507 536.553 25.9691 538.279 26.3249 538.844C28.3835 538.234 30.0447 541.523 31.3409 541.523C34.9895 541.523 33.247 540.76 36.7543 538.625C40.2616 536.491 42.4727 533.517 40.6428 531.23Z" fill="#BAC3C9"/>
<path d="M478.713 500.449C378.93 485.352 265.5 492 257.5 514.5C247.828 527.553 243.516 575.186 277.966 623.822C326.089 691.76 444.508 706.622 470.221 838.723C494.915 965.591 419.661 1059.99 393.791 1060.46L499 1082.87L478.713 500.449Z" fill="url(#paint3_linear_4573_12643)"/>
<path d="M451.564 165.867H459.448L468.962 528.017H464.069L451.564 165.867Z" fill="#484848"/>
<path d="M404.009 393.997C436.413 380.004 464.54 355.729 472.786 346.696C482.301 371.086 502.418 387.099 521.719 399.663C541.02 412.228 521.719 407.547 517.913 406.069C514.868 404.886 511.207 402.784 509.758 401.881C517.913 407.547 533.408 425.285 526.34 431.69C520.686 436.815 508.942 427.913 503.777 422.821C508.398 436.864 499.699 431.69 496.981 431.69C494.806 431.69 489.007 424.3 486.379 420.604C490.946 441.89 487.557 445.076 485.291 444.008C475.94 444.008 465.628 422.493 461.64 411.735C459.919 417.401 455.497 428.931 451.582 429.72C447.667 430.508 447.051 423.971 447.233 420.604C445.511 424.3 441.361 431.69 438.533 431.69C435.706 431.69 436.449 425.778 437.174 422.821C436.177 424.217 433.586 426.96 431.193 426.763C428.801 426.566 429.472 419.454 430.106 415.923C418.145 426.27 407.271 426.517 402.921 425.285C399.442 424.3 401.471 420.276 402.921 418.387C408.141 415.825 421.226 403.852 427.116 398.185C404.063 403.113 402.106 397.446 404.009 393.997Z" fill="#304428"/>
<path d="M452.27 299.395C461.622 291.511 463.688 271.145 463.144 266.382C465.971 290.624 484.801 309.988 493.863 316.64C511.533 332.161 526.213 335.363 522.679 338.32C519.852 340.685 502.29 335.692 493.863 332.9C502.018 337.827 524.582 366.158 516.698 369.607C510.391 372.367 495.947 360.41 489.513 354.087C490.873 357.7 492.504 365.419 488.154 367.39C483.805 369.361 478.368 362.627 476.193 359.014C477.371 363.859 477.77 373.599 469.94 373.796C462.111 373.993 456.892 362.709 455.261 357.043C455.442 358.603 454.554 361.675 449.552 361.478C444.55 361.28 444.387 352.198 444.93 347.681C441.396 353.348 433.513 364.188 429.163 364.188C425.684 364.188 426.445 359.425 427.26 357.043C414.212 370.051 409.499 367.226 408.774 364.188C406.382 347.435 430.975 326.33 443.571 317.872C437.59 316.64 440.581 309.249 452.27 299.395Z" fill="#4B664B"/>
<path d="M449.577 220.12C449.686 220.358 449.797 220.608 449.909 220.871C453.121 227.637 461.142 231.922 480.166 255.09C499.882 279.102 534.919 300.229 518.91 304.883C508.575 307.887 486.554 294.46 482.512 287.54C478.47 280.621 479.964 286.21 480.071 287.685C480.177 289.16 479.683 293.634 474.534 290.236C470.415 287.518 465.697 276.03 463.853 270.625C464.367 278.989 463.334 295.839 455.087 296.329C446.841 296.819 446.514 288.279 447.381 283.948C438.074 299.907 434.84 296.379 434.387 292.62C428.174 300.89 414.819 323.409 413.121 307.462C411.423 291.515 440.556 261.146 449.268 249.765C455.966 241.016 452.663 227.328 449.909 220.871C449.792 220.624 449.681 220.374 449.577 220.12Z" fill="#304428"/>
<path d="M442.057 214.93C452.938 198.658 450.856 184.912 449.734 181.176C448.982 167.535 449.594 148.536 458.06 181.673C468.641 223.095 497.539 231.076 487.616 241.06C477.692 251.044 469.381 224.42 468.881 231.31C468.257 239.906 463.715 250.642 457.292 241.195C448.577 228.373 451.916 225.982 440.364 238.243C428.812 250.504 428.455 235.27 442.057 214.93Z" fill="#4B664B"/>
<path d="M433.769 180.734C438.702 164.69 443.06 145.963 445.747 133.262C446.232 130.967 449.918 130.864 450.702 133.074C459.604 158.143 475.528 163.766 470.832 180.734C467.102 194.215 456.571 188.798 450.1 182.975C448.961 181.951 447.102 182.25 446.358 183.588C439.183 196.502 426.129 205.581 433.769 180.734Z" fill="#304428"/>
<path d="M388.18 154.942H396.003L405.446 551.522H400.59L388.18 154.942Z" fill="#484848"/>
<path d="M340.986 404.76C373.144 389.437 401.057 362.854 409.241 352.962C418.683 379.671 438.647 397.206 457.802 410.965C476.956 424.724 457.802 419.598 454.025 417.98C451.003 416.685 447.37 414.382 445.931 413.393C454.025 419.598 469.402 439.023 462.388 446.037C456.776 451.648 445.122 441.9 439.996 436.325C444.582 451.702 435.949 446.037 433.251 446.037C431.093 446.037 425.338 437.943 422.73 433.897C427.262 457.206 423.899 460.695 421.651 459.526C412.37 459.526 402.137 435.965 398.18 424.185C396.471 430.39 392.083 443.015 388.198 443.879C384.313 444.742 383.702 437.584 383.881 433.897C382.173 437.943 378.054 446.037 375.248 446.037C372.443 446.037 373.18 439.562 373.899 436.325C372.91 437.854 370.338 440.857 367.964 440.641C365.59 440.425 366.256 432.638 366.885 428.771C355.015 440.102 344.223 440.371 339.907 439.023C336.454 437.943 338.468 433.537 339.907 431.469C345.087 428.663 358.072 415.552 363.917 409.347C341.04 414.742 339.097 408.537 340.986 404.76Z" fill="url(#paint4_linear_4573_12643)"/>
<path d="M388.881 301.164C398.161 292.531 400.212 270.229 399.672 265.013C402.478 291.56 421.165 312.765 430.157 320.049C447.693 337.045 462.262 340.552 458.754 343.79C455.949 346.379 438.521 340.912 430.157 337.854C438.251 343.25 460.643 374.275 452.819 378.052C446.56 381.073 432.226 367.98 425.841 361.056C427.19 365.012 428.809 373.466 424.492 375.624C420.176 377.782 414.78 370.408 412.622 366.451C413.791 371.757 414.186 382.422 406.417 382.638C398.647 382.854 393.467 370.498 391.848 364.293C392.028 366.002 391.147 369.365 386.183 369.149C381.219 368.933 381.057 358.987 381.597 354.041C378.09 360.246 370.266 372.117 365.949 372.117C362.496 372.117 363.252 366.901 364.061 364.293C351.111 378.537 346.435 375.444 345.716 372.117C343.342 353.771 367.748 330.66 380.248 321.398C374.313 320.049 377.28 311.955 388.881 301.164Z" fill="url(#paint5_linear_4573_12643)"/>
<path d="M386.208 214.353C386.316 214.613 386.426 214.888 386.537 215.175C389.725 222.585 397.685 227.277 416.564 252.648C436.131 278.942 470.902 302.078 455.014 307.174C444.758 310.464 422.904 295.76 418.893 288.183C414.882 280.605 416.364 286.726 416.47 288.341C416.576 289.957 416.086 294.855 410.975 291.135C406.887 288.158 402.206 275.578 400.376 269.66C400.886 278.819 399.86 297.27 391.676 297.807C383.493 298.343 383.168 288.992 384.029 284.249C374.792 301.725 371.583 297.862 371.133 293.746C364.968 302.801 351.714 327.462 350.029 309.999C348.344 292.536 377.256 259.279 385.902 246.817C392.549 237.236 389.27 222.247 386.537 215.175C386.421 214.905 386.311 214.631 386.208 214.353Z" fill="url(#paint6_linear_4573_12643)"/>
<path d="M378.745 208.67C389.544 190.851 387.477 175.798 386.364 171.707C385.617 156.768 386.226 135.963 394.626 172.251C405.127 217.61 433.805 226.351 423.958 237.284C414.11 248.217 405.862 219.062 405.366 226.607C404.746 236.02 400.238 247.777 393.865 237.431C385.216 223.39 388.53 220.772 377.065 234.199C365.601 247.625 365.246 230.943 378.745 208.67Z" fill="url(#paint7_linear_4573_12643)"/>
<path d="M370.52 171.223C375.401 153.707 379.715 133.271 382.382 119.365C382.832 117.017 386.64 116.916 387.376 119.19C396.219 146.508 411.952 152.677 407.302 171.223C403.623 185.891 393.284 180.128 386.851 173.8C385.703 172.67 383.706 172.978 382.979 174.416C375.851 188.521 362.951 198.388 370.52 171.223Z" fill="url(#paint8_linear_4573_12643)"/>
<path d="M383.589 450.376C395.428 458.727 423.454 473.099 431.943 465.161C429.662 460.715 416.819 452.451 405.681 443.39C394.646 434.412 391.014 434.48 387.396 433.101C384.214 431.664 384.531 435.127 382.726 437.596C377.681 444.498 369.444 440.399 383.589 450.376Z" fill="url(#paint9_linear_4573_12643)"/>
<path d="M374.69 442.478C375.724 445.204 380.243 448.104 380.243 448.104C380.243 448.104 383.65 444.402 385.367 441.681C387.221 438.744 389.207 433.623 389.207 433.623C386.591 432.453 387.97 433.129 383.136 431.652C378.302 430.176 380.997 435.024 379.025 437.566C377.424 439.63 373.854 440.27 374.69 442.478Z" fill="url(#paint10_linear_4573_12643)"/>
<path d="M408.858 516.844C408.604 483.702 418.452 460.114 422.131 452.483L455.778 451.961C461.427 465.684 468.316 480.168 468.829 515.913C469.232 543.975 467.936 560.997 458.123 560.108C455.604 559.879 450.017 559.999 448.761 559.019C446.239 557.054 443.638 525.202 444.66 519.172C444.66 519.172 442.903 520.586 439.127 520.645C435.351 520.704 435.119 520.014 433.624 519.343C434.538 525.01 432.583 556.872 426.683 560.108C424.849 561.113 423.673 560.108 421.706 560.108C415.923 560.108 409.175 558.273 408.858 516.844Z" fill="url(#paint11_linear_4573_12643)"/>
<path d="M485.027 491.215C480.498 477.453 466.56 449.209 455.013 450.523C454.194 455.453 459.582 469.743 463.124 483.658C466.633 497.444 469.59 499.553 471.674 502.817C473.372 505.868 475.182 502.898 478.102 501.991C486.267 499.456 490.438 507.657 485.027 491.215Z" fill="url(#paint12_linear_4573_12643)"/>
<path d="M487.464 502.865C488.261 500.06 486.363 495.038 486.363 495.038C486.363 495.038 481.42 495.977 478.419 497.137C475.179 498.388 470.531 501.314 470.531 501.314C471.933 503.814 471.229 502.448 474.228 506.517C477.228 510.585 477.956 505.086 481.056 504.222C483.572 503.521 486.819 505.136 487.464 502.865Z" fill="url(#paint13_linear_4573_12643)"/>
<ellipse cx="438.574" cy="486.903" rx="18.882" ry="23.1142" fill="#F8DCBF"/>
<path d="M485.178 415.622C485.178 437.814 475.619 450.257 444.434 455.566C440.825 456.18 437.108 456.229 433.484 455.713C400.269 450.982 393.655 437.885 393.655 415.622C393.655 392.183 414.143 373.182 439.416 373.182C464.69 373.182 485.178 392.183 485.178 415.622Z" fill="url(#paint14_linear_4573_12643)"/>
<path d="M435.691 380.595C435.627 381.722 434.851 382.778 433.036 383.226C431.402 383.629 429.732 381.502 429.796 380.375C429.86 379.247 431.653 378.299 433.13 378.389C434.608 378.48 435.755 379.467 435.691 380.595Z" fill="#F8DCBF"/>
<path d="M441.347 379.872C441.283 381 441.935 382.143 443.687 382.81C445.264 383.409 447.162 381.501 447.226 380.373C447.29 379.245 445.616 378.085 444.138 377.994C442.66 377.904 441.411 378.745 441.347 379.872Z" fill="#F8DCBF"/>
<path d="M441.903 385.373C441.967 386.501 441.316 387.644 439.563 388.311C437.986 388.91 436.021 387.235 435.958 386.107C435.894 384.98 437.634 383.586 439.112 383.495C440.59 383.405 441.84 384.246 441.903 385.373Z" fill="#F8DCBF"/>
<path d="M479.556 316.291C499.109 323.161 474.778 362.01 467.504 382.141C462.539 384.969 452.48 382.901 456.629 372.694C461.815 359.936 446.703 347.501 450.756 338.872C454.809 330.243 465.302 361.11 466.291 348.923C468.809 317.925 472.358 313.762 479.556 316.291Z" fill="url(#paint15_linear_4573_12643)"/>
<path d="M398.14 314.919C378.425 321.263 402.184 361.798 408.959 382.117C413.853 385.077 423.959 383.278 420.064 372.964C415.194 360.072 430.212 346.996 426.373 338.262C422.535 329.527 411.283 360.103 410.595 347.894C408.844 316.839 405.399 312.583 398.14 314.919Z" fill="url(#paint16_linear_4573_12643)"/>
<path d="M394.791 372.855C387.949 388.525 395.913 388.991 398.074 393.969C400.911 400.508 417.855 385.768 413.361 383.459C408.867 381.149 412.104 373.593 394.791 372.855Z" fill="url(#paint17_linear_4573_12643)"/>
<path d="M397.758 378.4C398.113 376.921 400.098 375.891 404.318 378.4C404.837 378.708 409.398 381.082 409.753 383.485C410.198 386.49 403.978 390.42 401.534 390.189C399.09 389.957 400.868 388.339 398.202 386.259C395.536 384.179 397.313 380.249 397.758 378.4Z" fill="#F8DCBF"/>
<path d="M484.276 373.218C490.496 389.167 482.52 389.293 480.166 394.175C477.073 400.587 460.723 385.138 465.304 383.022C469.885 380.906 466.949 373.218 484.276 373.218Z" fill="url(#paint18_linear_4573_12643)"/>
<path d="M480.66 377.864C480.314 376.375 477.066 376.416 473.849 379.107C472.748 380.028 469.106 380.896 468.761 383.315C468.329 386.34 474.613 389.961 476.989 389.728C479.364 389.496 477.636 387.867 480.228 385.774C482.819 383.68 481.091 379.725 480.66 377.864Z" fill="#F8DCBF"/>
<ellipse cx="18.4874" cy="11.9768" rx="18.4874" ry="11.9768" transform="matrix(0.999817 -0.0191356 0.0176749 0.999844 413.314 414.453)" fill="#F8DCBF"/>
<path d="M410.621 413.267C411.086 413.307 411.513 413.652 411.814 414.24C412.112 414.825 412.269 415.624 412.2 416.496C412.13 417.367 411.849 418.129 411.462 418.655C411.072 419.183 410.596 419.449 410.131 419.409C409.666 419.369 409.24 419.025 408.939 418.437C408.64 417.852 408.483 417.053 408.553 416.181C408.622 415.31 408.904 414.549 409.291 414.023C409.681 413.494 410.156 413.227 410.621 413.267Z" fill="#4F2F22" stroke="#4F2F22" stroke-width="0.390474"/>
<path d="M452.393 412.349C451.914 412.39 451.475 412.745 451.166 413.35C450.859 413.951 450.698 414.771 450.77 415.666C450.841 416.561 451.129 417.342 451.527 417.883C451.927 418.426 452.416 418.701 452.896 418.66C453.375 418.618 453.815 418.263 454.123 417.659C454.431 417.057 454.591 416.237 454.52 415.342C454.448 414.448 454.16 413.666 453.762 413.126C453.362 412.582 452.872 412.307 452.393 412.349Z" fill="#4F2F22" stroke="#4F2F22" stroke-width="0.390474"/>
<path d="M432.053 423.915C428.756 423.915 426.088 421.432 427.753 419.986C428.517 419.565 430.995 421.419 432.053 421.373C433.058 421.329 435.705 419.455 436.639 419.986C438.638 421.835 435.35 423.915 432.053 423.915Z" fill="#4F2F22" stroke="#4F2F22" stroke-width="0.924567" stroke-linecap="round"/>
<path d="M432.196 423.684V427.382M432.196 427.382C433.01 427.999 435.039 429.139 436.639 428.769C438.238 428.399 438.934 427.691 439.082 427.382M432.196 427.382C431.678 427.845 430.33 428.769 428.197 428.769C426.065 428.769 425.31 427.845 425.087 427.382" stroke="#4F2F22" stroke-width="0.924567" stroke-linecap="round"/>
<path opacity="0.44" d="M445.476 375.544C439.111 375.544 439.341 378.427 439.341 380.692C439.341 383.3 439.855 389.299 441.913 392.429C444.486 396.342 465.464 402.52 464.672 388.517C463.881 374.514 453.788 375.544 445.476 375.544Z" fill="#948301"/>
<path opacity="0.44" d="M418.868 375.544C425.232 375.544 425.003 378.427 425.003 380.692C425.003 383.3 424.488 389.299 422.43 392.429C419.857 396.342 398.88 402.52 399.671 388.517C400.463 374.514 410.556 375.544 418.868 375.544Z" fill="#948301"/>
<path d="M438.153 374.514C439.262 371.879 449.038 372.455 451.017 372.456C452.914 372.456 459.174 373.818 465.266 377.702C465.76 378.016 466.38 378.025 466.96 377.951C467.792 377.844 468.716 378.137 468.829 379.663C469.026 382.339 468.037 382.133 467.047 382.133C466.058 382.133 469.026 392.223 467.047 395.724C465.068 399.225 458.537 402.725 445.673 398.401C437.439 395.632 436.101 387.97 436.565 381.95C433.003 380.338 429.567 381.125 427.778 381.957C428.241 387.977 426.901 395.634 418.669 398.401C405.806 402.725 399.275 399.225 397.296 395.724C395.318 392.223 398.285 382.135 397.296 382.133C396.307 382.133 395.317 382.339 395.515 379.663C395.628 378.137 396.552 377.844 397.383 377.951C397.964 378.025 398.583 378.016 399.077 377.702C405.169 373.818 411.43 372.456 413.327 372.456C415.306 372.455 425.081 371.879 426.19 374.514C426.538 375.341 427.046 376.985 427.412 379.051C429.116 378.136 432.979 377.065 436.932 379.036C437.297 376.976 437.806 375.339 438.153 374.514ZM418.868 375.543C410.556 375.543 400.463 374.515 399.671 388.517C398.88 402.519 419.857 396.342 422.43 392.429C424.488 389.299 425.002 383.3 425.002 380.692C425.002 378.427 425.232 375.543 418.868 375.543ZM464.672 388.517C463.881 374.515 453.788 375.543 445.476 375.543C439.112 375.543 439.34 378.427 439.34 380.692C439.34 383.3 439.855 389.299 441.914 392.429C444.486 396.342 465.464 402.519 464.672 388.517Z" fill="#CC7F34"/>
<mask id="mask1_4573_12643" style="mask-type:alpha" maskUnits="userSpaceOnUse" x="410" y="536" width="21" height="23">
<path d="M416.103 537.505C414.986 537.617 414.216 538.218 413.971 538.505C412.241 538.993 411.676 540.787 411.609 541.624C412.764 545.961 412.05 547.08 412.155 548.38C412.26 549.679 411.536 550.669 410.696 552.718C410.024 554.357 411.102 556.912 411.127 558.044C421.618 558.459 426.078 558.072 428.556 557.212L430.309 554.024C429.27 553.604 429.318 549.224 429.259 548.497C429.186 547.587 429.207 542.87 429.185 540.122C429.169 537.923 427.435 537.547 426.571 537.633C425.227 535.935 422.623 536.065 420.828 536.245C419.032 536.425 417.499 537.365 416.103 537.505Z" fill="#BF5C5C"/>
</mask>
<g mask="url(#mask1_4573_12643)">
<path d="M416.103 537.505C414.986 537.617 414.216 538.218 413.971 538.505C412.241 538.993 411.676 540.787 411.609 541.624C412.764 545.961 412.05 547.08 412.155 548.38C412.26 549.679 411.536 550.669 410.696 552.718C410.024 554.357 411.102 556.912 411.127 558.044C421.618 558.459 426.078 558.072 428.556 557.212L430.309 554.024C429.27 553.604 429.318 549.224 429.259 548.497C429.186 547.587 429.207 542.87 429.185 540.122C429.169 537.923 427.435 537.547 426.571 537.633C425.227 535.935 422.623 536.065 420.828 536.245C419.032 536.425 417.499 537.365 416.103 537.505Z" fill="#754C23"/>
<path d="M415.584 539.229C414.139 539.108 413.815 539.493 413.834 539.701L413.003 557.831L421.436 559.426L429.714 556.797L428.198 539.977L427.169 538.499C424.28 538.76 424.467 540.316 425.07 547.013C425.673 553.71 423.659 553.734 421.436 553.935C419.214 554.135 417.352 553.36 417.485 547.382C417.619 541.404 417.39 539.38 415.584 539.229Z" fill="#694624"/>
</g>
<path d="M415.794 552.394C415.642 548.922 415.33 545.047 415.357 542.146C414.805 541.869 409.046 544.715 409.116 546.307C409.204 548.296 409.81 553.411 409.81 557.17C409.81 560.879 410.176 561.678 410.224 562.764C410.272 563.849 426.42 562.777 428.037 562.706C429.653 562.635 433.704 563.29 432.924 561.331C432.144 559.372 432.74 556.175 432.693 555.09C432.655 554.222 432.419 547.46 432.481 545.344C431.382 543.157 427.695 539.355 427.377 540.528C426.978 541.995 427.575 550.605 427.001 553.348C426.428 556.091 415.985 556.734 415.794 552.394Z" fill="#754C23"/>
<path d="M430.561 556.536C431.004 555.931 432.22 556.398 432.773 556.707C432.812 558.756 432.945 559.81 433.007 560.082L429.393 558.843C430.93 558.163 430.008 557.292 430.561 556.536Z" fill="#754C23" stroke="#5C3915" stroke-width="0.231142"/>
<path d="M409.116 560.175C409.671 559.256 409.656 556.402 409.578 555.089C409.656 555.254 409.948 555.582 410.503 555.582C411.196 555.582 411.659 556.074 411.89 557.714C412.445 558.764 413.123 559.081 413.277 559.19L409.116 560.175Z" fill="#754C23" stroke="#5C3915" stroke-width="0.231142"/>
<path d="M409.355 559.64C408.064 560.458 408.817 562.79 409.355 563.642H433.386C433.616 559.38 433.326 560.151 429.407 558.617C425.489 557.082 419.957 556.571 414.886 558.276C409.815 559.981 410.968 558.617 409.355 559.64Z" fill="#754C23" stroke="#5C3915" stroke-width="0.231142"/>
<mask id="mask2_4573_12643" style="mask-type:alpha" maskUnits="userSpaceOnUse" x="427" y="537" width="7" height="16">
<path d="M427.21 547.434L427.157 539.571C427.521 538.727 428.915 537.23 431.58 537.995C434.911 538.952 431.586 542.653 432.731 548.213L432.759 552.376C432.616 552.506 431.902 552.539 430.193 551.624C429.077 550.457 427.222 549.283 427.21 547.434Z" fill="#D9D9D9"/>
</mask>
<g mask="url(#mask2_4573_12643)">
<path d="M427.21 547.434L427.157 539.571C427.521 538.727 428.915 537.23 431.58 537.995C434.911 538.952 431.586 542.653 432.731 548.213L432.759 552.376C432.616 552.506 431.933 552.599 430.27 551.427L430.259 551.419C428.895 550.458 427.222 549.278 427.21 547.434Z" fill="#754C23" stroke="#5C3915" stroke-width="0.462283"/>
<path d="M433.273 544.285C432.077 540.272 428.709 539.889 427.175 540.198L425.891 539.338L428.211 536.211L434.181 537.758L433.273 544.285Z" fill="#553F2B"/>
</g>
<mask id="mask3_4573_12643" style="mask-type:alpha" maskUnits="userSpaceOnUse" x="408" y="538" width="8" height="15">
<path d="M415.401 547.691V540.073C414.995 539.226 412.935 537.685 410.007 538.423C406.346 539.347 408.726 542.15 409.239 547.691V547.889V552.539C409.613 552.594 411.026 552.572 411.634 552.044C412.854 550.89 415.401 549.538 415.401 547.691Z" fill="#D9D9D9"/>
</mask>
<g mask="url(#mask3_4573_12643)">
<path d="M415.401 547.691V540.073C414.995 539.226 412.935 537.685 410.007 538.423C406.346 539.347 408.726 542.15 409.239 547.691V547.889V552.539C409.613 552.594 411.026 552.572 411.634 552.044C412.854 550.89 415.401 549.538 415.401 547.691Z" fill="#754C23" stroke="#5C3915" stroke-width="0.462283"/>
<path d="M407.976 544.425C409.148 540.357 413.103 539.802 414.934 540.033L416.399 539.108L413.469 536.104L406.511 537.953L407.976 544.425Z" fill="#553F2B"/>
</g>
<path d="M428.763 541.453C425.99 544.369 418.22 541.598 413.894 544.369" stroke="black" stroke-width="0.462283"/>
<path d="M427.587 550.703C428.065 551.069 427.318 552.01 420.505 552.85C418.202 553.1 414.11 553.589 415.819 554.628" stroke="black" stroke-width="0.462283"/>
<path d="M415.126 551.623C416.744 552.779 420.471 553.02 422.141 553.135C424.229 553.279 427.54 553.011 427.608 554.628" stroke="black" stroke-width="0.462283"/>
<path d="M428.071 547.462C428.386 547.771 427.692 548.496 421.743 549.131C415.795 549.765 414.497 550.525 414.675 551.16" stroke="black" stroke-width="0.462283"/>
<path d="M414.664 547.925C416.513 549.543 421.593 548.987 424.934 549.218C428.275 549.448 428.533 550.455 428.244 550.93" stroke="black" stroke-width="0.462283"/>
<path d="M413.739 541.457C415.126 543.533 428.301 541.457 428.763 543.995" stroke="black" stroke-width="0.462283"/>
<path d="M413.739 540.991C412.583 539.142 429.226 538.679 428.994 540.991" stroke="black" stroke-width="0.462283"/>
<path d="M414.201 544.689C415.357 546.769 426.199 545.191 428.301 546.769" stroke="black" stroke-width="0.462283"/>
<path d="M414.432 547.231C415.106 546.74 415.768 546.269 421.367 546.076C425.621 545.929 428.394 544.628 428.763 544.227" stroke="black" stroke-width="0.462283"/>
<path d="M428.59 551.181C428.53 550.259 427.448 550.253 426.915 550.365L426.745 551.303C427.274 550.898 427.909 551.381 428.159 551.673L428.59 551.181Z" fill="#A4A9A3"/>
<path d="M428.126 555.244C428.317 554.34 427.278 554.041 426.734 554.005L426.317 554.861C426.936 554.614 427.415 555.251 427.578 555.601L428.126 555.244Z" fill="#A4A9A3"/>
<path d="M414.225 551.645C414.272 550.721 415.353 550.699 415.887 550.803L416.071 551.738C415.536 551.341 414.909 551.834 414.663 552.13L414.225 551.645Z" fill="#A4A9A3"/>
<path d="M415.248 555.113C415.129 554.196 416.188 553.98 416.733 553.987L417.082 554.874C416.484 554.579 415.956 555.176 415.767 555.512L415.248 555.113Z" fill="#A4A9A3"/>
<path d="M408.735 563.142C410.745 563.303 414.065 562.069 415.588 561.331C413.075 564.148 408.278 564.35 407.821 563.947C407.455 563.625 408.278 563.209 408.735 563.142Z" fill="#5C4A36"/>
<path d="M433.617 562.876C430.844 563.679 427.531 561.872 426.221 560.869C428.07 564.723 432.23 564.348 434.08 563.679C434.08 563.358 433.771 563.01 433.617 562.876Z" fill="#5C4A36"/>
<path d="M415.623 561.011C413.581 563.399 409.356 563.747 407.731 563.622C407.709 564.555 407.957 566.496 409.124 566.794C412.466 567.988 413.147 566.297 413.07 565.302C415.113 567.988 417.171 567.043 417.945 566.234C419.802 568.287 421.891 566.608 422.123 566.234C422.309 565.936 423.284 566.11 423.748 566.234C425.419 568.324 428.159 566.981 429.319 566.048C429.876 566.943 431.099 567.167 431.641 567.167C434.612 567.316 434.736 564.866 434.426 563.622C432.337 563.622 429.087 564.555 426.302 561.011C423.516 557.466 418.177 558.025 415.623 561.011Z" fill="#735E48"/>
<path d="M412.891 541.462C413.045 540.551 414.122 540.654 414.641 540.82L414.715 541.77C414.229 541.313 413.55 541.73 413.27 541.995L412.891 541.462Z" fill="#A4A9A3"/>
<path d="M429.547 541.315C429.314 540.42 428.251 540.617 427.749 540.828L427.758 541.781C428.202 541.283 428.915 541.638 429.217 541.878L429.547 541.315Z" fill="#A4A9A3"/>
<path d="M429.557 544.242C429.446 543.324 428.366 543.378 427.84 543.519L427.722 544.465C428.228 544.031 428.888 544.479 429.154 544.757L429.557 544.242Z" fill="#A4A9A3"/>
<path d="M429.023 547.485C428.994 546.56 427.914 546.517 427.377 546.611L427.175 547.543C427.718 547.156 428.335 547.66 428.576 547.961L429.023 547.485Z" fill="#A4A9A3"/>
<path d="M413.269 544.532C413.474 543.63 414.543 543.793 415.051 543.988L415.073 544.94C414.613 544.457 413.911 544.835 413.618 545.085L413.269 544.532Z" fill="#A4A9A3"/>
<path d="M413.754 547.947C413.785 547.023 414.866 546.982 415.402 547.077L415.603 548.009C415.061 547.621 414.442 548.124 414.201 548.424L413.754 547.947Z" fill="#A4A9A3"/>
<mask id="mask4_4573_12643" style="mask-type:alpha" maskUnits="userSpaceOnUse" x="447" y="536" width="21" height="23">
<path d="M461.764 537.505C462.881 537.617 463.651 538.218 463.896 538.505C465.626 538.993 466.191 540.787 466.258 541.624C465.103 545.961 465.817 547.08 465.712 548.38C465.606 549.679 466.331 550.669 467.171 552.718C467.843 554.357 466.765 556.912 466.74 558.044C456.249 558.459 451.789 558.072 449.311 557.212L447.557 554.024C448.597 553.604 448.549 549.224 448.608 548.497C448.681 547.587 448.66 542.87 448.682 540.122C448.698 537.923 450.432 537.547 451.296 537.633C452.64 535.935 455.244 536.065 457.039 536.245C458.835 536.425 460.368 537.365 461.764 537.505Z" fill="#BF5C5C"/>
</mask>
<g mask="url(#mask4_4573_12643)">
<path d="M461.764 537.505C462.881 537.617 463.651 538.218 463.896 538.505C465.626 538.993 466.191 540.787 466.258 541.624C465.103 545.961 465.817 547.08 465.712 548.38C465.606 549.679 466.331 550.669 467.171 552.718C467.843 554.357 466.765 556.912 466.74 558.044C456.249 558.459 451.789 558.072 449.311 557.212L447.557 554.024C448.597 553.604 448.549 549.224 448.608 548.497C448.681 547.587 448.66 542.87 448.682 540.122C448.698 537.923 450.432 537.547 451.296 537.633C452.64 535.935 455.244 536.065 457.039 536.245C458.835 536.425 460.368 537.365 461.764 537.505Z" fill="#754C23"/>
<path d="M462.283 539.229C463.728 539.108 464.052 539.493 464.033 539.701L464.864 557.831L456.43 559.426L448.153 556.797L449.668 539.977L450.698 538.499C453.587 538.76 453.4 540.316 452.797 547.013C452.194 553.71 454.208 553.734 456.43 553.935C458.653 554.135 460.515 553.36 460.382 547.382C460.248 541.404 460.477 539.38 462.283 539.229Z" fill="#694624"/>
</g>
<path d="M462.072 552.394C462.225 548.922 462.536 545.047 462.51 542.146C463.062 541.869 468.82 544.715 468.75 546.307C468.663 548.296 468.057 553.411 468.057 557.17C468.057 560.879 467.69 561.678 467.643 562.764C467.595 563.849 451.446 562.777 449.83 562.706C448.214 562.635 444.163 563.29 444.943 561.331C445.723 559.372 445.126 556.175 445.174 555.09C445.212 554.222 445.447 547.46 445.386 545.344C446.485 543.157 450.172 539.355 450.49 540.528C450.888 541.995 450.292 550.605 450.865 553.348C451.439 556.091 461.882 556.734 462.072 552.394Z" fill="#754C23"/>
<path d="M447.306 556.536C446.863 555.931 445.646 556.398 445.093 556.707C445.054 558.756 444.922 559.81 444.86 560.082L448.474 558.843C446.937 558.163 447.859 557.292 447.306 556.536Z" fill="#754C23" stroke="#5C3915" stroke-width="0.231142"/>
<path d="M468.75 560.175C468.196 559.256 468.211 556.402 468.288 555.089C468.211 555.254 467.918 555.582 467.364 555.582C466.67 555.582 466.208 556.074 465.977 557.714C465.422 558.764 464.744 559.081 464.59 559.19L468.75 560.175Z" fill="#754C23" stroke="#5C3915" stroke-width="0.231142"/>
<path d="M468.512 559.64C469.803 560.458 469.05 562.79 468.512 563.642H444.481C444.25 559.38 444.541 560.151 448.459 558.617C452.378 557.082 457.909 556.571 462.98 558.276C468.051 559.981 466.899 558.617 468.512 559.64Z" fill="#754C23" stroke="#5C3915" stroke-width="0.231142"/>
<mask id="mask5_4573_12643" style="mask-type:alpha" maskUnits="userSpaceOnUse" x="444" y="537" width="7" height="16">
<path d="M450.657 547.434L450.709 539.571C450.345 538.727 448.951 537.23 446.287 537.995C442.955 538.952 446.281 542.653 445.135 548.213L445.108 552.376C445.251 552.506 445.965 552.539 447.673 551.624C448.789 550.457 450.644 549.283 450.657 547.434Z" fill="#D9D9D9"/>
</mask>
<g mask="url(#mask5_4573_12643)">
<path d="M450.657 547.434L450.709 539.571C450.345 538.727 448.951 537.23 446.287 537.995C442.955 538.952 446.281 542.653 445.135 548.213L445.108 552.376C445.251 552.506 445.934 552.599 447.596 551.427L447.608 551.419C448.971 550.458 450.644 549.278 450.657 547.434Z" fill="#754C23" stroke="#5C3915" stroke-width="0.462283"/>
<path d="M444.593 544.285C445.79 540.272 449.158 539.889 450.692 540.198L451.976 539.338L449.656 536.211L443.686 537.758L444.593 544.285Z" fill="#553F2B"/>
</g>
<mask id="mask6_4573_12643" style="mask-type:alpha" maskUnits="userSpaceOnUse" x="462" y="538" width="8" height="15">
<path d="M462.465 547.691V540.073C462.872 539.226 464.931 537.685 467.86 538.423C471.521 539.347 469.141 542.15 468.627 547.691V547.889V552.539C468.254 552.594 466.841 552.572 466.233 552.044C465.012 550.89 462.465 549.538 462.465 547.691Z" fill="#D9D9D9"/>
</mask>
<g mask="url(#mask6_4573_12643)">
<path d="M462.465 547.691V540.073C462.872 539.226 464.931 537.685 467.86 538.423C471.521 539.347 469.141 542.15 468.627 547.691V547.889V552.539C468.254 552.594 466.841 552.572 466.233 552.044C465.012 550.89 462.465 549.538 462.465 547.691Z" fill="#754C23" stroke="#5C3915" stroke-width="0.462283"/>
<path d="M469.891 544.425C468.719 540.357 464.764 539.802 462.933 540.033L461.468 539.108L464.398 536.104L471.356 537.953L469.891 544.425Z" fill="#553F2B"/>
</g>
<path d="M449.103 541.453C451.877 544.369 459.647 541.598 463.973 544.369" stroke="black" stroke-width="0.462283"/>
<path d="M450.279 550.703C449.801 551.069 450.548 552.01 457.361 552.85C459.664 553.1 463.756 553.589 462.047 554.628" stroke="black" stroke-width="0.462283"/>
<path d="M462.74 551.623C461.122 552.779 457.396 553.02 455.725 553.135C453.637 553.279 450.326 553.011 450.259 554.628" stroke="black" stroke-width="0.462283"/>
<path d="M449.795 547.462C449.48 547.771 450.175 548.496 456.123 549.131C462.072 549.765 463.369 550.525 463.191 551.16" stroke="black" stroke-width="0.462283"/>
<path d="M463.203 547.925C461.354 549.543 456.274 548.987 452.933 549.218C449.592 549.448 449.334 550.455 449.622 550.93" stroke="black" stroke-width="0.462283"/>
<path d="M464.127 541.457C462.74 543.533 449.565 541.457 449.103 543.995" stroke="black" stroke-width="0.462283"/>
<path d="M464.127 540.991C465.283 539.141 448.641 538.679 448.872 540.991" stroke="black" stroke-width="0.462283"/>
<path d="M463.665 544.689C462.509 546.769 451.667 545.191 449.565 546.769" stroke="black" stroke-width="0.462283"/>
<path d="M463.434 547.231C462.76 546.74 462.098 546.269 456.499 546.076C452.245 545.929 449.472 544.628 449.103 544.227" stroke="black" stroke-width="0.462283"/>
<path d="M449.276 551.181C449.337 550.259 450.418 550.253 450.951 550.365L451.121 551.303C450.592 550.898 449.958 551.381 449.707 551.673L449.276 551.181Z" fill="#A4A9A3"/>
<path d="M449.741 555.244C449.549 554.34 450.589 554.041 451.132 554.005L451.55 554.861C450.931 554.614 450.451 555.251 450.289 555.601L449.741 555.244Z" fill="#A4A9A3"/>
<path d="M463.642 551.645C463.595 550.721 462.514 550.699 461.979 550.803L461.795 551.738C462.33 551.341 462.957 551.834 463.203 552.13L463.642 551.645Z" fill="#A4A9A3"/>
<path d="M462.618 555.113C462.738 554.196 461.678 553.98 461.133 553.987L460.784 554.874C461.382 554.579 461.911 555.176 462.1 555.512L462.618 555.113Z" fill="#A4A9A3"/>
<path d="M469.132 563.142C467.122 563.303 463.801 562.069 462.278 561.331C464.792 564.148 469.589 564.35 470.046 563.947C470.412 563.625 469.589 563.209 469.132 563.142Z" fill="#5C4A36"/>
<path d="M444.249 562.876C447.023 563.679 450.336 561.872 451.646 560.869C449.797 564.723 445.636 564.348 443.787 563.679C443.787 563.358 444.095 563.01 444.249 562.876Z" fill="#5C4A36"/>
<path d="M462.243 561.011C464.286 563.399 468.511 563.747 470.136 563.622C470.158 564.555 469.91 566.496 468.743 566.794C465.4 567.988 464.719 566.297 464.797 565.302C462.754 567.988 460.696 567.043 459.922 566.234C458.065 568.287 455.976 566.608 455.744 566.234C455.558 565.936 454.583 566.11 454.119 566.234C452.447 568.324 449.708 566.981 448.547 566.048C447.99 566.943 446.768 567.167 446.226 567.167C443.255 567.316 443.131 564.866 443.44 563.622C445.53 563.622 448.78 564.555 451.565 561.011C454.351 557.466 459.69 558.025 462.243 561.011Z" fill="#735E4A"/>
<path d="M464.975 541.462C464.821 540.551 463.745 540.654 463.226 540.82L463.152 541.77C463.637 541.313 464.317 541.73 464.596 541.995L464.975 541.462Z" fill="#A4A9A3"/>
<path d="M448.319 541.315C448.552 540.42 449.615 540.617 450.118 540.828L450.108 541.781C449.665 541.283 448.951 541.638 448.65 541.878L448.319 541.315Z" fill="#A4A9A3"/>
<path d="M448.309 544.242C448.42 543.324 449.5 543.378 450.026 543.519L450.144 544.465C449.638 544.031 448.979 544.479 448.712 544.757L448.309 544.242Z" fill="#A4A9A3"/>
<path d="M448.843 547.485C448.872 546.561 449.953 546.517 450.489 546.611L450.691 547.543C450.148 547.156 449.531 547.66 449.291 547.961L448.843 547.485Z" fill="#A4A9A3"/>
<path d="M464.597 544.532C464.393 543.63 463.324 543.793 462.815 543.988L462.794 544.94C463.253 544.457 463.955 544.835 464.249 545.085L464.597 544.532Z" fill="#A4A9A3"/>
<path d="M464.112 547.947C464.081 547.023 463 546.982 462.464 547.077L462.264 548.009C462.806 547.621 463.424 548.124 463.665 548.424L464.112 547.947Z" fill="#A4A9A3"/>
<path d="M350.262 560.43C358.077 558.806 359.315 549.037 359.051 545.897C351.015 546.928 334.979 552.742 334.371 555.425C333.612 558.778 340.492 562.46 350.262 560.43Z" fill="url(#paint19_linear_4573_12643)"/>
<path d="M298.693 560.58C290.623 559.203 289.566 551.223 289.36 547.334C297.671 546.951 315.471 550.013 316.493 553.164C317.77 557.104 310.22 562.548 298.693 560.58Z" fill="url(#paint20_linear_4573_12643)"/>
<path d="M344.079 548.343C357.335 554.937 403.592 511.148 399.117 490.867C395.698 475.37 365.209 450.053 353.108 469.634C337.981 494.11 327.508 540.101 344.079 548.343Z" fill="#46281C"/>
<path d="M263.353 493.236C267.968 500.402 285.678 504.729 292.929 500.7C292.424 497.982 284.514 493.239 280.657 486.403C276.8 479.568 271.744 475.792 269.698 474.758C268.538 474.869 266.166 475.671 264.453 476.979C259.665 480.636 258.212 485.255 263.353 493.236Z" fill="url(#paint21_linear_4573_12643)"/>
<path d="M275.599 513.974C277.903 486.474 285.89 460.063 291.612 452.295C291.612 452.295 301.589 440.63 315.53 439.364C340.889 437.061 348.103 447.165 348.103 447.165C360.903 460.539 367.105 479.413 370.187 513.348C372.606 539.989 361.722 548.408 351.689 551.379C347.735 552.55 340.657 556.064 323.959 556.175C304.607 556.303 306.535 554.9 295.181 552.26C281.125 548.991 273.317 541.204 275.599 513.974Z" fill="url(#paint22_linear_4573_12643)"/>
<path d="M386.184 482.792C384.216 491.084 368.993 501.05 360.84 499.659C360.416 496.928 366.284 489.827 367.648 482.098C369.013 474.369 372.517 469.127 374.099 467.472C375.227 467.191 377.724 467.16 379.768 467.824C385.481 469.682 388.376 473.555 386.184 482.792Z" fill="url(#paint23_linear_4573_12643)"/>
<path d="M314.589 473.642C312.519 473.651 310.75 472.275 311.775 471.035C312.248 470.673 314.082 470.385 314.746 470.342C315.376 470.302 316.602 470.42 317.196 470.871C318.962 472.214 316.659 473.633 314.589 473.642Z" fill="#4F2F22"/>
<circle cx="313.624" cy="478.475" r="2.55056" fill="#4F2F22"/>
<ellipse cx="300.943" cy="469.556" rx="2.24442" ry="2.98654" transform="rotate(7.65988 300.943 469.556)" fill="#4F2F22"/>
<ellipse cx="2.24442" cy="2.98654" rx="2.24442" ry="2.98654" transform="matrix(-0.991077 0.133292 0.133292 0.991077 329.298 466.297)" fill="#4F2F22"/>
<path d="M287.494 457.364C286.664 465.452 287.826 482.431 299.111 485.641C302.784 486.686 303.103 488.677 309.479 489.634C313.382 490.219 308.649 498.422 310.516 500.333C312.383 502.244 313.006 500.906 313.213 499.569C313.421 498.231 312.383 490.207 314.665 489.634C316.947 489.06 346.569 486.302 350.926 473.692C355.282 461.082 356.703 455.82 355.251 453.145" stroke="black" stroke-width="0.827875"/>
<rect x="308.937" y="487.402" width="4.96725" height="5.38119" rx="1.24181" fill="url(#paint24_linear_4573_12643)"/>
<rect x="308.523" y="489.471" width="0.827875" height="1.24181" rx="0.413937" fill="#C9C9C9"/>
<rect x="313.49" y="489.471" width="0.827875" height="1.24181" rx="0.413937" fill="#C9C9C9"/>
<path d="M292.848 433.195C290.516 438.85 290.625 449.264 290.972 453.764C294.618 452.067 305.776 447.532 321.328 447.698C336.235 447.858 350.165 450.925 354.876 453.026C354.83 449.949 354.237 441.944 352.233 434.539C349.729 425.283 325.847 423.371 321.588 423.326C317.329 423.281 295.763 426.127 292.848 433.195Z" fill="url(#paint25_linear_4573_12643)"/>
<path d="M283.931 470.116C285.463 464.725 287.548 459.797 288.399 458.112C286.414 459.095 282.059 461.903 280.527 464.43C278.995 466.957 282.158 469.274 283.931 470.116Z" fill="#121111"/>
<path d="M361.873 470.116C361.045 467.633 357.734 460.596 356.285 457.698C363.57 461.01 365.53 464.597 365.599 465.977C365.268 468.792 362.977 469.909 361.873 470.116Z" fill="#121111"/>
<path d="M281.67 462.943C279.46 465.119 279.936 467.958 284.053 469.909L283.432 471.772C281.494 470.603 282.692 471.425 279.5 468.668C275.508 465.221 275.803 457.12 295.049 447.577C314.295 438.033 343.56 445.237 349.869 447.577C356.177 449.916 368.902 456.351 369.738 462.943C370.359 467.84 367.179 470.349 362.494 471.772L361.873 470.116C361.873 469.978 362.37 471.068 365.185 467.426C367.999 463.783 357.734 458.55 352.973 455.629C341.176 448.39 334.553 461.424 314.684 455.629C298.789 450.993 286.052 458.573 281.67 462.943Z" fill="url(#paint26_linear_4573_12643)"/>
<path d="M279.086 461.837C282.398 456.456 293.987 449.834 305.784 450.868C317.581 451.903 317.789 455.835 333.519 452.524C349.248 449.212 355.664 453.351 366.22 461.837C367.248 462.663 369.908 467.973 362.237 471.087L361.873 470.116C361.873 469.978 362.37 471.068 365.185 467.426C367.999 463.783 357.734 458.549 352.974 455.628C341.176 448.389 334.553 461.423 314.685 455.628C298.789 450.992 286.052 458.573 281.67 462.943C279.46 465.118 279.936 467.958 284.053 469.909L283.669 471.059C280.955 469.676 276.494 466.048 279.086 461.837Z" fill="#334633"/>
<path d="M329.061 437.017C329.26 437.204 329.119 437.524 328.837 437.524H315.623C315.341 437.524 315.2 437.204 315.4 437.017L321.058 431.701C321.182 431.584 321.383 431.585 321.506 431.702L322.001 432.174C322.124 432.291 322.325 432.292 322.449 432.175L322.954 431.7C323.078 431.584 323.278 431.584 323.401 431.7L329.061 437.017Z" fill="#FF9D66"/>
<path d="M319.545 437.524L322.293 435.028L325.056 437.524H319.545Z" fill="#DB693B"/>
<path d="M325.745 430.524C326.028 430.681 325.909 431.087 325.58 431.087H322.412C322.234 431.087 322.089 430.952 322.089 430.785V429.026C322.089 428.791 322.362 428.646 322.578 428.766L325.745 430.524Z" fill="#DB693B"/>
<path d="M289.554 443.889C293.109 442.84 294.532 446.149 294.799 447.935C292.791 449.394 288.342 451.972 286.613 450.615C284.452 448.919 285.11 445.201 289.554 443.889Z" fill="#D6AA80"/>
<path d="M356.284 443.967C352.782 442.753 351.206 445.993 350.856 447.765C352.795 449.315 357.119 452.097 358.909 450.822C361.147 449.228 360.662 445.484 356.284 443.967Z" fill="#D6AA80"/>
<g filter="url(#filter1_d_4573_12643)">
<path d="M154.164 103.228C155.511 104.572 154.559 106.874 152.656 106.874H63.3445C61.4412 106.874 60.4888 104.572 61.8359 103.228L100.076 65.0546C100.914 64.2184 102.272 64.2231 103.104 65.065L106.452 68.4531C107.284 69.2955 108.643 69.2996 109.481 68.4621L112.896 65.0469C113.729 64.2135 115.08 64.2129 115.915 65.0456L154.164 103.228Z" fill="#FF9D66"/>
<path d="M89.9648 106.873L108.262 88.5758L126.669 106.873H89.9648Z" fill="#DB693B"/>
<path d="M131.431 55.7136C133.298 56.8218 132.512 59.6852 130.341 59.6852H109.433C108.253 59.6852 107.297 58.7292 107.297 57.5498V45.1387C107.297 43.4833 109.099 42.4575 110.523 43.3024L131.431 55.7136Z" fill="#DB693B"/>
</g>
<g filter="url(#filter2_f_4573_12643)">
<ellipse cx="400.715" cy="-27.6857" rx="97.7152" ry="96.3143" fill="#FFD586"/>
</g>
<circle cx="402.563" cy="-28.8571" r="67.9453" fill="#F6EAB9"/>
<path d="M426.134 544.306C428.996 548.91 434.795 568.571 435.094 610.382" stroke="#4C8169" stroke-width="1.52381"/>
<path d="M437.065 533.098C433.631 528.469 429.288 535.027 427.546 538.884C427.297 534.653 425.38 526.864 419.706 529.551C414.032 532.239 419.457 538.635 422.879 541.497C418.586 540.813 410 540.676 410 545.604C410 550.532 418.586 548.279 422.879 546.537C419.893 551.515 415.488 561.432 421.759 561.283C428.031 561.134 428.23 552.51 427.546 548.217C431.154 551.515 439.006 556.728 441.545 551.203C444.083 545.678 435.385 543.053 430.719 542.431C434.265 541.249 440.5 537.727 437.065 533.098Z" fill="#F6E06E"/>
<circle cx="2.79365" cy="2.79365" r="2.79365" transform="matrix(-1 0 0 1 429.302 541.19)" fill="#DF8973"/>
</g>
<defs>
<filter id="filter0_n_4573_12643" x="-468" y="505" width="959.149" height="515.667" filterUnits="userSpaceOnUse" color-interpolation-filters="sRGB">
<feFlood flood-opacity="0" result="BackgroundImageFix"/>
<feBlend mode="normal" in="SourceGraphic" in2="BackgroundImageFix" result="shape"/>
<feTurbulence type="fractalNoise" baseFrequency="1.4130581617355347 1.4130581617355347" stitchTiles="stitch" numOctaves="3" result="noise" seed="1014" />
<feColorMatrix in="noise" type="luminanceToAlpha" result="alphaNoise" />
<feComponentTransfer in="alphaNoise" result="coloredNoise1">
<feFuncA type="discrete" tableValues="1 1 1 1 1 1 1 1 1 1 1 1 1 1 1 1 1 1 1 1 1 1 1 1 1 1 1 1 1 1 1 1 1 1 1 1 1 1 1 1 1 1 1 1 1 1 1 1 1 1 1 0 0 0 0 0 0 0 0 0 0 0 0 0 0 0 0 0 0 0 0 0 0 0 0 0 0 0 0 0 0 0 0 0 0 0 0 0 0 0 0 0 0 0 0 0 0 0 0 0 "/>
</feComponentTransfer>
<feComposite operator="in" in2="shape" in="coloredNoise1" result="noise1Clipped" />
<feFlood flood-color="#9F7E5D" result="color1Flood" />
<feComposite operator="in" in2="noise1Clipped" in="color1Flood" result="color1" />
<feMerge result="effect1_noise_4573_12643">
<feMergeNode in="shape" />
<feMergeNode in="color1" />
</feMerge>
</filter>
<filter id="filter1_d_4573_12643" x="42.7328" y="24.5279" width="130.534" height="100.818" filterUnits="userSpaceOnUse" color-interpolation-filters="sRGB">
<feFlood flood-opacity="0" result="BackgroundImageFix"/>
<feColorMatrix in="SourceAlpha" type="matrix" values="0 0 0 0 0 0 0 0 0 0 0 0 0 0 0 0 0 0 127 0" result="hardAlpha"/>
<feOffset/>
<feGaussianBlur stdDeviation="9.23603"/>
<feComposite in2="hardAlpha" operator="out"/>
<feColorMatrix type="matrix" values="0 0 0 0 0.137255 0 0 0 0 0.294118 0 0 0 0 0.360784 0 0 0 0.4 0"/>
<feBlend mode="normal" in2="BackgroundImageFix" result="effect1_dropShadow_4573_12643"/>
<feBlend mode="normal" in="SourceGraphic" in2="effect1_dropShadow_4573_12643" result="shape"/>
</filter>
<filter id="filter2_f_4573_12643" x="258.871" y="-168.129" width="283.689" height="280.887" filterUnits="userSpaceOnUse" color-interpolation-filters="sRGB">
<feFlood flood-opacity="0" result="BackgroundImageFix"/>
<feBlend mode="normal" in="SourceGraphic" in2="BackgroundImageFix" result="shape"/>
<feGaussianBlur stdDeviation="22.0647" result="effect1_foregroundBlur_4573_12643"/>
</filter>
<linearGradient id="paint0_linear_4573_12643" x1="936.5" y1="-28" x2="936.5" y2="869" gradientUnits="userSpaceOnUse">
<stop stop-color="#93D9FA"/>
<stop offset="0.336538" stop-color="white"/>
<stop offset="0.639423" stop-color="#ACC67E"/>
</linearGradient>
<linearGradient id="paint1_linear_4573_12643" x1="380.071" y1="31.7846" x2="347.685" y2="286.03" gradientUnits="userSpaceOnUse">
<stop stop-color="#FCFE96"/>
<stop offset="0.5" stop-color="#9DC070"/>
<stop offset="1" stop-color="#3E8149"/>
</linearGradient>
<linearGradient id="paint2_linear_4573_12643" x1="278.593" y1="105.499" x2="207.178" y2="652.831" gradientUnits="userSpaceOnUse">
<stop stop-color="#FCFE96"/>
<stop offset="0.524038" stop-color="#599263"/>
<stop offset="1" stop-color="#275963"/>
</linearGradient>
<linearGradient id="paint3_linear_4573_12643" x1="374.63" y1="494" x2="374.447" y2="1216.63" gradientUnits="userSpaceOnUse">
<stop offset="0.636291" stop-color="#B3CD85"/>
<stop offset="1" stop-color="#75B089"/>
</linearGradient>
<linearGradient id="paint4_linear_4573_12643" x1="388.484" y1="465.461" x2="398.736" y2="370.228" gradientUnits="userSpaceOnUse">
<stop offset="0.100962" stop-color="#ECDD9E"/>
<stop offset="0.302885" stop-color="#78AA64"/>
<stop offset="0.514423" stop-color="#547746"/>
<stop offset="1" stop-color="#304428"/>
</linearGradient>
<linearGradient id="paint5_linear_4573_12643" x1="401.135" y1="382.641" x2="402.513" y2="328.412" gradientUnits="userSpaceOnUse">
<stop offset="0.0673077" stop-color="#D4D392"/>
<stop offset="0.558559" stop-color="#719971"/>
<stop offset="1" stop-color="#4B664B"/>
</linearGradient>
<linearGradient id="paint6_linear_4573_12643" x1="404.015" y1="312.81" x2="399.815" y2="251.524" gradientUnits="userSpaceOnUse">
<stop stop-color="#D4D392"/>
<stop offset="0.332198" stop-color="#78AA64"/>
<stop offset="0.606566" stop-color="#547746"/>
<stop offset="1" stop-color="#304428"/>
</linearGradient>
<linearGradient id="paint7_linear_4573_12643" x1="396.765" y1="241.34" x2="394.15" y2="203.773" gradientUnits="userSpaceOnUse">
<stop stop-color="#D3D292"/>
<stop offset="0.5" stop-color="#719971"/>
<stop offset="1" stop-color="#4B664B"/>
</linearGradient>
<linearGradient id="paint8_linear_4573_12643" x1="388.18" y1="188.395" x2="387.944" y2="131.201" gradientUnits="userSpaceOnUse">
<stop stop-color="#D4D392"/>
<stop offset="0.432211" stop-color="#547746"/>
<stop offset="0.75" stop-color="#425E37"/>
<stop offset="1" stop-color="#304428"/>
</linearGradient>
<linearGradient id="paint9_linear_4573_12643" x1="429.286" y1="434.572" x2="392.809" y2="507.627" gradientUnits="userSpaceOnUse">
<stop stop-color="#D6AA80"/>
<stop offset="0.915339" stop-color="#966036"/>
</linearGradient>
<linearGradient id="paint10_linear_4573_12643" x1="386.18" y1="429.772" x2="350.703" y2="498.018" gradientUnits="userSpaceOnUse">
<stop stop-color="#7B573C"/>
<stop offset="1" stop-color="#2A1D13"/>
</linearGradient>
<linearGradient id="paint11_linear_4573_12643" x1="437.919" y1="452.238" x2="438.578" y2="869.211" gradientUnits="userSpaceOnUse">
<stop stop-color="#D6AA80"/>
<stop offset="1" stop-color="#966036"/>
</linearGradient>
<linearGradient id="paint12_linear_4573_12643" x1="454.033" y1="485.835" x2="517.071" y2="458.033" gradientUnits="userSpaceOnUse">
<stop stop-color="#D6AA80"/>
<stop offset="0.838809" stop-color="#966036"/>
</linearGradient>
<linearGradient id="paint13_linear_4573_12643" x1="470.645" y1="505.508" x2="544.015" y2="472.677" gradientUnits="userSpaceOnUse">
<stop stop-color="#7B573C"/>
<stop offset="1" stop-color="#2A1D13"/>
</linearGradient>
<linearGradient id="paint14_linear_4573_12643" x1="439.416" y1="373.182" x2="439.487" y2="536.594" gradientUnits="userSpaceOnUse">
<stop offset="0.296015" stop-color="#D6AA80"/>
<stop offset="1" stop-color="#966036"/>
</linearGradient>
<linearGradient id="paint15_linear_4573_12643" x1="555.629" y1="119.731" x2="455.527" y2="392" gradientUnits="userSpaceOnUse">
<stop stop-color="#2A1D13"/>
<stop offset="1" stop-color="#796658"/>
</linearGradient>
<linearGradient id="paint16_linear_4573_12643" x1="325.736" y1="113.192" x2="419.869" y2="392.742" gradientUnits="userSpaceOnUse">
<stop stop-color="#2A1D13"/>
<stop offset="1" stop-color="#796658"/>
</linearGradient>
<linearGradient id="paint17_linear_4573_12643" x1="398.098" y1="382.659" x2="243.826" y2="338.71" gradientUnits="userSpaceOnUse">
<stop stop-color="#D6AA80"/>
<stop offset="1" stop-color="#966036"/>
</linearGradient>
<linearGradient id="paint18_linear_4573_12643" x1="475.404" y1="382.428" x2="554.36" y2="324.454" gradientUnits="userSpaceOnUse">
<stop stop-color="#D6AA80"/>
<stop offset="1" stop-color="#966036"/>
</linearGradient>
<linearGradient id="paint19_linear_4573_12643" x1="346.123" y1="548.482" x2="345.167" y2="562.248" gradientUnits="userSpaceOnUse">
<stop offset="0.288798" stop-color="#D6AA80"/>
<stop offset="1" stop-color="#B0814F"/>
</linearGradient>
<linearGradient id="paint20_linear_4573_12643" x1="302.848" y1="547.792" x2="302.587" y2="563.621" gradientUnits="userSpaceOnUse">
<stop offset="0.288798" stop-color="#D6AA80"/>
<stop offset="1" stop-color="#B0814F"/>
</linearGradient>
<linearGradient id="paint21_linear_4573_12643" x1="283.673" y1="478.806" x2="252.676" y2="503.102" gradientUnits="userSpaceOnUse">
<stop stop-color="#D6AA80"/>
<stop offset="1" stop-color="#B0814F"/>
</linearGradient>
<linearGradient id="paint22_linear_4573_12643" x1="320.764" y1="490.271" x2="320.764" y2="583.048" gradientUnits="userSpaceOnUse">
<stop stop-color="#D6AA80"/>
<stop offset="1" stop-color="#B0814F"/>
</linearGradient>
<linearGradient id="paint23_linear_4573_12643" x1="360.936" y1="487.402" x2="387.079" y2="496.329" gradientUnits="userSpaceOnUse">
<stop stop-color="#D6AA80"/>
<stop offset="1" stop-color="#B0814F"/>
</linearGradient>
<linearGradient id="paint24_linear_4573_12643" x1="311.42" y1="487.402" x2="311.42" y2="498.992" gradientUnits="userSpaceOnUse">
<stop stop-color="#8A8A8A"/>
<stop offset="1" stop-color="#242424"/>
</linearGradient>
<linearGradient id="paint25_linear_4573_12643" x1="323.119" y1="423.342" x2="323.119" y2="454.387" gradientUnits="userSpaceOnUse">
<stop stop-color="#495F49"/>
<stop offset="1" stop-color="#2C3A2C"/>
</linearGradient>
<linearGradient id="paint26_linear_4573_12643" x1="324.18" y1="442.88" x2="326.216" y2="472.915" gradientUnits="userSpaceOnUse">
<stop stop-color="#495F49"/>
<stop offset="1" stop-color="#2C3A2C"/>
</linearGradient>
<clipPath id="clip0_4573_12643">
<rect width="475" height="633.333" rx="34.49" fill="white"/>
</clipPath>
</defs>
</svg>
