<svg width="589" height="227" viewBox="0 0 589 227" fill="none" xmlns="http://www.w3.org/2000/svg">
<path d="M319.244 31.5033C349.74 47.2449 361.83 84.9612 346.176 115.717C330.567 146.472 293.169 158.665 262.673 142.878C262.132 142.605 261.636 142.332 261.094 142.059L317.62 30.6843C318.161 30.9573 318.702 31.2303 319.244 31.5033Z" fill="#9E9E9E"/>
<path d="M258.884 149.748C228.208 138.556 212.373 104.388 223.471 73.4507C234.568 42.5133 268.448 26.5442 299.124 37.7362C299.665 37.9182 300.161 38.1457 300.703 38.3277L260.463 150.248C259.966 150.112 259.425 149.93 258.884 149.748Z" fill="#9E9E9E"/>
<g filter="url(#filter0_f)">
<path d="M258.884 149.748C228.208 138.556 212.373 104.388 223.471 73.4507C234.568 42.5133 268.448 26.5442 299.124 37.7362C299.665 37.9182 300.161 38.1457 300.703 38.3277L260.463 150.248C259.966 150.112 259.425 149.93 258.884 149.748Z" fill="#ED811E"/>
<path d="M319.244 31.5033C349.74 47.2449 361.83 84.9612 346.176 115.717C330.567 146.472 293.169 158.665 262.673 142.878C262.132 142.605 261.636 142.332 261.094 142.059L317.62 30.6843C318.161 30.9573 318.702 31.2303 319.244 31.5033Z" fill="#ED811E"/>
</g>
<path d="M584.937 79.0408C588.559 90.5397 581.691 101.323 569.694 103.136C511.83 115.876 453.919 128.663 396.055 141.45C395.819 134.579 395.631 127.708 395.396 120.838C458.576 106.905 521.757 92.9731 584.937 79.0408Z" fill="#675CA9" stroke="#41377A" stroke-width="6" stroke-miterlimit="3"/>
<path d="M536.246 110.77C537.94 119.502 532.153 126.754 523.497 128.329C481.158 137.681 438.865 146.985 396.525 156.337C396.337 150.468 396.243 147.557 396.055 141.689C442.77 131.382 489.531 121.076 536.246 110.77Z" fill="#675CA9" stroke="#41377A" stroke-width="6" stroke-miterlimit="3"/>
<path d="M516.911 130.094C518.181 139.112 511.877 146.269 503.127 147.891C467.75 155.716 432.373 163.493 396.995 171.318C396.807 165.45 396.713 162.539 396.525 156.67C436.654 147.796 476.782 138.969 516.911 130.094Z" fill="#675CA9" stroke="#41377A" stroke-width="6" stroke-miterlimit="3"/>
<path d="M258.884 149.748C228.208 138.556 212.373 104.388 223.471 73.4507C234.568 42.5133 268.448 26.5442 299.124 37.7362C299.665 37.9182 300.161 38.1457 300.703 38.3277L260.463 150.248C259.966 150.112 259.425 149.93 258.884 149.748Z" fill="#FFECD6"/>
<path d="M319.244 31.5033C349.74 47.2449 361.83 84.9612 346.176 115.717C330.567 146.472 293.169 158.665 262.673 142.878C262.132 142.605 261.636 142.332 261.094 142.059L317.62 30.6843C318.161 30.9573 318.702 31.2303 319.244 31.5033Z" fill="#FFECD6"/>
<path d="M161.802 137.1L165.141 136.69C169.832 136.099 187.561 130.958 251.079 95.7437C257.169 92.377 261.049 90.1477 261.094 90.1477L261.861 89.7382L279.094 94.7883L304.312 72.0857L409.513 132.323L414.115 130.457L416.551 150.521L179.847 163.578L161.802 137.1Z" fill="#4B4182"/>
<path d="M304.492 74.5425L340.041 94.9248L409.243 134.552L412.31 133.323L414.16 148.565L180.84 161.486L165.321 138.738C179.712 136.963 230.283 109.575 251.982 97.518C258.162 94.1058 261.997 91.8765 261.997 91.8765L279.455 97.0176L304.492 74.5425ZM303.996 69.4924L301.831 71.4488L278.508 92.4225L263.215 87.9184L261.591 87.4179L260.102 88.2823C260.057 88.2823 256.222 90.5116 250.132 93.8783C206.283 118.219 174.434 133.414 164.915 134.597L158.284 135.416L162.073 140.967L177.592 163.715L178.9 165.626L181.156 165.489L414.386 152.659L418.716 152.432L418.175 148.11L416.325 132.869L415.694 127.591L410.777 129.593L409.559 130.093L342.026 91.4216L306.477 71.0393L303.996 69.4924Z" fill="#41377A"/>
<path d="M3.98883 72.0266C0.413477 83.4778 7.28192 94.3088 19.2311 96.0742C77.1425 108.861 135.007 121.649 192.918 134.436C193.153 127.565 193.342 120.694 193.577 113.824C130.396 99.8913 67.2162 85.9589 3.98883 72.0266Z" fill="#675CA9" stroke="#41377A" stroke-width="6" stroke-miterlimit="3"/>
<path d="M52.7268 103.756C51.0332 112.488 56.8196 119.74 65.4757 121.315C107.815 130.666 150.108 139.971 192.448 149.322C192.636 143.454 192.73 140.543 192.918 134.674C146.156 124.368 99.4416 114.062 52.7268 103.756Z" fill="#675CA9" stroke="#41377A" stroke-width="6" stroke-miterlimit="3"/>
<path d="M72.0145 123.08C70.7443 132.098 77.0482 139.255 85.7984 140.877C121.176 148.702 156.553 156.479 191.93 164.304C192.118 158.435 192.212 155.525 192.4 149.656C152.319 140.782 112.143 131.955 72.0145 123.08Z" fill="#675CA9" stroke="#41377A" stroke-width="6" stroke-miterlimit="3"/>
<path d="M339.905 99.7473L342.748 100.202L343.875 106.481L354.477 103.978C354.477 103.978 354.432 110.257 344.823 112.441L350.146 140.785L344.281 140.512L340.176 113.169L334.627 109.483L339.499 107.618L338.868 104.57L334.582 105.252C334.582 105.252 336.748 102.477 339.545 101.886L339.905 99.7473Z" fill="#382E73"/>
<path d="M465.498 197.064L474.655 189.739H465.498V197.064Z" fill="#4B4182"/>
<path d="M465.498 197.064L474.655 189.739H465.498V197.064Z" fill="#382E73"/>
<path d="M79.4727 177.955L103.382 197.064H112.856V176.135C112.856 176.135 79.4727 178.001 79.4727 177.955Z" fill="#382E73"/>
<path d="M465.633 197.064V189.784H111.277V197.064H465.633Z" fill="#382E73"/>
<path d="M340.041 94.8794C324.342 101.249 310.627 107.345 310.627 107.345L298.492 102.432L279.049 116.763L251.937 97.4727C258.117 94.0605 261.951 91.8312 261.951 91.8312L279.41 96.9722L304.402 74.4517L340.041 94.8794Z" fill="#958AD6"/>
<path d="M393.093 107.436L380.867 135.962L397.468 153.342C397.468 153.342 400.13 141.786 400.13 140.648C400.13 139.466 393.093 107.436 393.093 107.436Z" fill="#382E73"/>
<path d="M483.227 142.013V182.96H93.9087V142.013H338.101C338.372 143.105 338.507 144.242 338.597 145.38C338.597 145.562 338.642 145.744 338.642 145.926C338.642 146.199 338.687 146.472 338.687 146.745L340.357 144.424L342.071 142.013H483.227Z" fill="#382E73"/>
<path d="M474.61 177.955H94.3599V189.784H474.61V177.955Z" fill="#382E73"/>
<path d="M474.57 189.784L492.34 176.226L474.57 177.955V189.784Z" fill="#382E73"/>
<path d="M136.765 130.184L148.494 142.013L140.374 150.203" fill="#382E73"/>
<path d="M167.441 126.09L172.855 133.824L168.795 142.013L167.441 126.09Z" fill="#4B4182"/>
<path d="M219.997 125.953L225.907 135.962L223.697 144.561L210.073 143.424L219.997 125.953Z" fill="#382E73"/>
<path d="M191.125 125.953L197.306 132.232L192.569 142.605L191.125 125.953Z" fill="#382E73"/>
<path d="M297.725 117.127L302.101 108.756L305.034 118.219H303.635L307.38 128.228L301.244 127.955L300.703 132.004L297.951 131.595L298.673 127.136L293.124 126.863L299.665 117.673L297.725 117.127Z" fill="#382E73"/>
<path d="M247.425 107.482L257.034 132.368L243.5 134.279L247.425 107.482Z" fill="#382E73"/>
<path d="M284.102 107.482L292.312 144.061L281.124 144.925" fill="#382E73"/>
<path d="M291.049 137.327L285.455 145.653L298.718 145.198L298.898 141.74L291.049 137.327Z" fill="#382E73"/>
<path d="M349.83 131.231C349.83 131.231 349.83 131.276 349.785 131.322C349.469 132.095 347.439 137.145 345.77 141.285C345.68 141.513 345.545 141.786 345.454 142.013C344.823 143.56 344.236 144.925 343.875 145.789C343.65 146.335 343.469 146.699 343.469 146.745C343.424 146.79 343.154 146.836 342.793 146.881C342.206 146.927 341.304 146.972 340.492 146.972C339.725 146.972 339.048 147.018 338.687 147.018C338.552 147.018 338.462 147.018 338.462 147.018L338.687 146.745L340.357 144.425L342.071 142.013L342.612 141.285L345.454 137.327L347.123 135.007L349.65 131.504L349.695 131.413L349.83 131.231Z" fill="#382E73"/>
<path d="M453.453 130.639L437.664 143.56L454.039 144.743L453.453 130.639Z" fill="#382E73"/>
<path d="M423.498 125.953L416.235 132.232L417.95 135.962L423.498 125.953Z" fill="#4B4182"/>
<path d="M205.651 213.124C208.448 203.706 211.245 194.288 213.997 184.916H373.649C373.649 184.916 379.739 205.435 381.995 213.124H205.651Z" fill="#4B4182"/>
<path d="M372.115 186.918L373.604 191.968C375.499 198.337 377.394 204.707 379.243 211.031H208.358C210.749 202.978 213.14 194.925 215.531 186.872H372.115V186.918ZM375.138 182.823H212.509C209.306 193.606 206.148 204.388 202.945 215.171H384.747C381.544 204.388 378.341 193.606 375.138 182.823Z" fill="#382E73"/>
<path d="M372.206 215.08H216.839V220.722H372.206V215.08Z" fill="#382E73"/>
<path d="M217.787 227L202.9 215.171H217.787V227Z" fill="#382E73"/>
<path d="M317.62 112.213L324.973 98.2461L329.8 114.079H327.454L333.77 130.776L323.53 130.321L322.627 137.054L317.981 136.372L319.244 128.91L309.906 128.456L320.823 113.123L317.62 112.213Z" fill="#382E73"/>
<path d="M369.86 227L384.747 215.171H369.86V227Z" fill="#382E73"/>
<path d="M135.502 144.561C133.292 154.479 131.036 164.397 128.826 174.27H114.615C116.6 166.035 118.63 157.846 120.615 149.611C121.021 147.928 121.247 146.472 121.337 145.198C121.382 143.969 121.021 142.878 120.254 141.877C119.488 140.921 117.999 140.421 115.834 140.421C113.262 140.421 111.187 141.103 109.608 142.468C108.029 143.833 106.856 145.38 106.134 147.154C105.413 148.883 104.691 150.976 104.059 153.387C102.21 160.348 100.36 167.263 98.5555 174.224H84.3452C88.5858 159.347 92.8263 144.424 97.0668 129.547H110.42C109.969 131.231 109.743 132.049 109.337 133.733C113.037 130.23 117.999 128.501 123.097 128.546C128.104 128.546 131.668 130.002 133.878 132.868C135.999 135.78 136.585 139.647 135.502 144.561Z" fill="#4B4182"/>
<path d="M136.901 130.321C133.833 126.363 128.735 124.861 123.908 124.998C120.615 124.998 117.503 125.544 114.706 126.681C114.796 126.408 114.796 126.272 114.886 125.999H94.5404C94.1344 127.455 93.9088 128.182 93.5028 129.638C89.1721 144.561 84.8864 159.438 80.5556 174.315C80.1496 175.771 79.9241 176.499 79.5181 177.955H101.352C101.713 176.499 101.894 175.771 102.3 174.315C104.104 167.355 105.909 160.439 107.713 153.478C108.3 151.249 108.931 149.338 109.563 147.791C110.014 146.745 110.691 145.835 111.638 145.016C112.45 144.288 113.894 144.152 114.931 144.152C116.69 144.152 117.097 144.561 117.142 144.607C117.593 145.198 117.638 145.653 117.638 145.971C117.593 146.972 117.367 148.246 117.006 149.657C114.976 157.891 112.946 166.081 110.871 174.315C110.51 175.771 110.33 176.499 109.969 177.955H131.803C132.119 176.499 132.299 175.771 132.615 174.315C134.78 164.397 136.946 154.479 139.156 144.607C139.337 143.788 139.517 142.923 139.607 142.059C140.059 137.919 139.427 133.642 136.901 130.321ZM135.773 143.242C135.728 143.651 135.638 144.106 135.502 144.516C133.292 154.434 131.036 164.352 128.826 174.224H114.615C116.6 165.99 118.63 157.8 120.615 149.566C121.021 147.882 121.247 146.426 121.337 145.152C121.382 144.516 121.292 143.879 121.066 143.333C121.021 143.196 120.976 143.105 120.931 142.969C120.886 142.878 120.841 142.741 120.751 142.65V142.605C120.705 142.514 120.66 142.423 120.57 142.332C120.57 142.332 120.525 142.286 120.525 142.241C120.435 142.15 120.39 142.013 120.299 141.922C120.299 141.877 120.254 141.877 120.254 141.831C119.487 140.876 117.999 140.375 115.833 140.375C115.653 140.375 115.518 140.375 115.337 140.375C115.202 140.375 115.021 140.375 114.886 140.375C114.706 140.375 114.525 140.421 114.345 140.421C114.254 140.421 114.119 140.421 114.029 140.466C113.803 140.512 113.623 140.512 113.442 140.557C113.307 140.557 113.217 140.603 113.082 140.648C112.856 140.694 112.585 140.785 112.36 140.83C112.27 140.876 112.224 140.876 112.134 140.921C111.999 140.967 111.818 141.012 111.683 141.103C111.593 141.149 111.457 141.194 111.367 141.24C111.277 141.285 111.187 141.331 111.051 141.376C110.736 141.513 110.465 141.695 110.149 141.922C110.104 141.968 110.059 141.968 110.059 142.013C109.969 142.059 109.879 142.104 109.833 142.195C109.743 142.286 109.653 142.332 109.518 142.423C107.939 143.788 106.766 145.334 106.044 147.109C105.322 148.838 104.6 150.93 103.969 153.342C102.119 160.303 100.27 167.218 98.4652 174.179H84.2548C88.4954 159.302 92.7359 144.379 96.9765 129.502H110.33C109.879 131.185 109.653 132.004 109.247 133.687C112.946 130.184 117.909 128.455 123.006 128.501C128.014 128.501 131.578 129.957 133.788 132.823C134.42 133.642 134.961 134.597 135.322 135.598C135.367 135.735 135.412 135.871 135.457 136.053C135.547 136.372 135.638 136.645 135.683 136.963C135.728 137.1 135.773 137.282 135.773 137.418C135.953 138.374 135.999 139.329 135.999 140.421C135.999 140.603 135.999 140.739 135.999 140.921C135.999 141.103 135.953 141.24 135.953 141.422C135.953 141.604 135.908 141.74 135.908 141.922C135.863 142.423 135.818 142.832 135.773 143.242Z" fill="#382E73"/>
<path d="M214.764 129.593C208.313 144.606 201.682 159.484 194.78 174.27H182.238C181.111 165.899 180.073 157.482 179.081 149.065C175.427 157.482 171.682 165.899 167.938 174.27H155.261C153.231 159.393 151.427 144.515 149.893 129.593H164.058C164.69 137.509 165.367 145.38 166.088 153.251C169.652 145.38 173.171 137.509 176.599 129.593H187.832C188.735 137.418 189.682 145.243 190.72 153.069C194.013 145.243 197.306 137.418 200.509 129.593H214.764Z" fill="#4B4182"/>
<path d="M198.343 125.953C197.892 126.999 197.712 127.545 197.261 128.592C195.456 132.914 194.554 135.098 192.749 139.42C192.208 135.098 191.937 132.914 191.441 128.592C191.306 127.545 191.261 126.999 191.125 125.907H174.569C174.118 126.999 173.847 127.5 173.396 128.592C171.502 132.914 170.554 135.052 168.614 139.374C168.208 135.052 168.028 132.914 167.667 128.592C167.577 127.545 167.532 126.999 167.442 125.907H145.878C146.058 127.818 146.149 128.728 146.329 130.639C146.69 134.415 147.096 138.191 147.502 141.968C148.675 153.114 150.028 164.215 151.517 175.316C151.652 176.317 151.743 176.818 151.878 177.864H170.329C170.825 176.772 171.051 176.272 171.547 175.18C173.396 171.04 175.246 166.945 177.05 162.805C177.637 167.764 177.953 170.266 178.629 175.225C178.765 176.272 178.855 176.818 178.99 177.864H197.216C197.667 176.863 197.937 176.363 198.388 175.362C203.486 164.306 208.449 153.16 213.321 141.968C214.945 138.191 216.569 134.415 218.193 130.639C219.005 128.728 219.411 127.818 220.178 125.907H198.343V125.953ZM212.103 135.78C211.2 137.827 210.298 139.92 209.396 141.968C208.809 143.332 208.223 144.652 207.591 146.017C207.095 147.154 206.554 148.337 206.058 149.474C205.922 149.793 205.787 150.066 205.652 150.384C205.246 151.34 204.794 152.295 204.388 153.205C202.809 156.754 201.185 160.303 199.561 163.851C198.93 165.262 198.298 166.672 197.622 168.082C196.674 170.13 195.727 172.177 194.78 174.224H182.238C181.111 165.853 180.073 157.436 179.08 149.019C175.426 157.436 171.682 165.853 167.938 174.224H155.261C154.991 172.132 154.675 170.039 154.404 167.946C154.269 166.808 154.088 165.626 153.953 164.488C153.863 163.715 153.727 162.896 153.637 162.122C153.186 158.574 152.735 154.979 152.329 151.431C152.149 150.111 152.013 148.838 151.878 147.518C151.652 145.653 151.427 143.787 151.246 141.922C151.021 139.875 150.795 137.782 150.57 135.735C150.344 133.687 150.118 131.594 149.893 129.502H164.058C164.374 133.642 164.735 137.782 165.096 141.922C165.411 145.653 165.772 149.429 166.088 153.16C167.802 149.429 169.472 145.653 171.141 141.922C172.99 137.782 174.795 133.642 176.644 129.502H187.877C188.374 133.642 188.825 137.782 189.366 141.922C189.817 145.607 190.268 149.292 190.765 152.978C192.343 149.292 193.877 145.607 195.411 141.922C197.125 137.782 198.84 133.642 200.554 129.502H214.809C213.907 131.64 213.005 133.733 212.103 135.78Z" fill="#382E73"/>
<path d="M280.583 111.076C280.087 132.141 279.636 153.205 279.14 174.27H264.343C264.704 165.58 265.065 156.845 265.471 148.155H240.839C240.163 156.845 239.486 165.535 238.854 174.27H224.058C226.088 153.205 228.118 132.141 230.148 111.076H243.681C243.05 119.083 242.463 127.091 241.832 135.098H266.012C266.373 127.091 266.689 119.083 267.05 111.076H280.583Z" fill="#4B4182"/>
<path d="M263.801 107.482C263.711 108.938 263.711 109.666 263.621 111.121C263.305 117.9 262.989 124.725 262.629 131.504H245.666C246.163 124.725 246.659 117.9 247.11 111.121C247.2 109.666 247.29 108.938 247.381 107.482H227.08C226.945 108.938 226.855 109.666 226.719 111.121C225.682 121.404 224.644 131.731 223.561 142.013C222.479 152.75 221.396 163.533 220.268 174.27C220.133 175.726 220.043 176.454 219.907 177.91H242.328C242.418 176.454 242.463 175.726 242.599 174.27C243.14 166.763 243.681 159.302 244.223 151.795H261.681C261.32 159.302 260.959 166.763 260.598 174.27C260.508 175.726 260.508 176.454 260.418 177.91H282.839C282.839 176.454 282.884 175.726 282.884 174.27C283.064 163.533 283.29 152.75 283.47 142.013C283.651 131.731 283.831 121.404 284.012 111.121C284.057 109.666 284.057 108.938 284.102 107.482H263.801ZM279.14 174.27H264.343C264.704 165.58 265.065 156.845 265.471 148.155H240.839C240.163 156.845 239.486 165.535 238.854 174.27H224.058C225.095 163.533 226.133 152.75 227.17 142.013C228.163 131.731 229.155 121.404 230.148 111.121H243.681C243.05 119.129 242.463 127.136 241.832 135.143H266.012C266.373 127.136 266.689 119.129 267.05 111.121H280.583C280.358 121.404 280.132 131.731 279.861 142.013C279.636 152.75 279.41 163.533 279.14 174.27Z" fill="#382E73"/>
<path d="M335.078 145.88C335.033 144.561 334.808 143.242 334.492 141.968C333.59 138.601 331.74 135.507 329.033 133.232C324.928 129.82 319.56 128.501 314.282 128.546C310.267 128.546 306.432 129.229 302.733 130.639C299.034 132.05 295.831 134.142 293.169 137.009C295.154 138.692 297.139 140.33 299.079 141.968C300.387 143.06 301.695 144.151 303.004 145.243C304.447 143.787 305.891 142.696 307.244 141.968C307.605 141.786 307.921 141.604 308.282 141.467C309.996 140.785 311.755 140.421 313.605 140.421C315.996 140.421 317.891 140.921 319.289 141.922L319.334 141.968C320.688 142.969 321.409 144.242 321.455 145.88C321.455 146.153 321.455 146.335 321.5 146.608H309.184C305.079 146.608 301.65 147.382 298.853 148.883C296.914 149.975 295.425 151.431 294.297 153.296C293.214 155.162 292.628 157.345 292.628 159.848C292.628 162.85 293.395 165.535 294.929 167.855C296.462 170.175 298.583 171.995 301.335 173.314C304.086 174.588 307.199 175.271 310.628 175.271C315.229 175.362 319.785 173.633 322.582 169.811C323.034 171.586 323.259 172.496 323.71 174.27H336.703C336.161 164.807 335.62 155.344 335.078 145.88ZM319.154 162.122C317.349 163.578 315.184 164.306 312.658 164.306C310.718 164.306 309.274 163.897 308.237 163.123C307.199 162.35 306.658 161.349 306.658 160.121C306.613 158.983 307.064 158.073 307.966 157.482C308.733 156.936 309.906 156.663 311.44 156.663H321.906C321.861 158.847 320.958 160.667 319.154 162.122Z" fill="#4B4182"/>
<path d="M321.906 156.709C321.861 158.892 320.958 160.712 319.154 162.123C317.349 163.533 315.184 164.306 312.658 164.306C310.718 164.306 309.274 163.897 308.237 163.124C307.199 162.35 306.658 161.349 306.658 160.121C306.613 158.983 307.064 158.073 307.966 157.482C308.733 156.936 309.906 156.663 311.44 156.663H321.906V156.709Z" fill="#382E73"/>
<path d="M318.297 143.424C317.259 142.65 315.68 142.286 313.695 142.286C312.071 142.286 310.492 142.605 309.049 143.196C308.101 143.56 307.154 144.151 306.116 144.97C307.109 144.879 308.101 144.834 309.184 144.834H319.515C319.244 144.288 318.838 143.833 318.297 143.424Z" fill="#382E73"/>
<path d="M340.492 174.27C339.951 165.535 339.364 156.845 338.823 148.11C338.823 147.746 338.778 147.382 338.733 146.972C338.733 146.881 338.733 146.79 338.733 146.699C338.733 146.426 338.687 146.153 338.687 145.88C338.687 145.698 338.642 145.516 338.642 145.334C338.552 144.197 338.372 143.06 338.146 141.968C337.109 137.509 334.718 133.46 331.154 130.457C326.417 126.499 320.237 124.861 314.146 124.907C310.041 124.816 305.259 125.68 301.47 127.227C297.59 128.592 293.35 131.413 290.598 134.461C289.56 135.598 289.019 136.144 287.936 137.282C289.109 138.283 289.696 138.783 290.869 139.784C291.861 140.648 292.718 141.331 293.485 141.968C294.748 143.06 295.921 144.015 297.635 145.425C297.5 145.516 297.32 145.607 297.184 145.653C297.184 145.653 297.184 145.653 297.139 145.653C294.658 147.063 292.673 148.974 291.229 151.385C289.786 153.797 289.064 156.618 289.019 159.802C289.019 163.487 289.921 166.854 291.861 169.766C293.756 172.632 296.417 174.907 299.801 176.499C300.974 177.045 302.192 177.5 303.5 177.864C305.801 178.501 308.237 178.82 310.808 178.82C313.244 178.82 315.455 178.501 317.485 177.864C318.567 177.5 319.605 177.091 320.552 176.545C320.688 177.045 320.733 177.318 320.868 177.819H340.808C340.627 176.454 340.582 175.726 340.492 174.27ZM323.71 174.27C323.259 172.496 323.034 171.586 322.582 169.811C319.786 173.633 315.229 175.316 310.628 175.271C307.154 175.271 304.041 174.634 301.335 173.315C298.583 171.995 296.462 170.221 294.929 167.855C293.395 165.535 292.628 162.85 292.628 159.848C292.628 157.3 293.169 155.116 294.297 153.296C295.38 151.431 296.914 149.975 298.853 148.883C301.605 147.382 305.079 146.608 309.184 146.608H321.5C321.5 146.335 321.5 146.153 321.455 145.88C321.41 144.288 320.688 142.969 319.334 141.968L319.289 141.922C317.891 140.921 315.996 140.421 313.605 140.421C311.756 140.421 309.996 140.785 308.282 141.467C307.921 141.604 307.605 141.786 307.244 141.968C305.891 142.696 304.447 143.788 303.004 145.243C301.696 144.152 300.387 143.06 299.079 141.968C297.094 140.33 295.109 138.647 293.169 137.009C295.831 134.188 299.034 132.05 302.733 130.639C306.432 129.274 310.267 128.546 314.282 128.546C319.515 128.501 324.883 129.82 329.034 133.232C331.785 135.507 333.635 138.601 334.492 141.968C334.808 143.242 335.033 144.561 335.079 145.88C335.62 155.344 336.206 164.807 336.748 174.27H323.71ZM313.65 142.286C315.635 142.286 317.214 142.65 318.252 143.424C318.838 143.833 319.199 144.288 319.425 144.834H309.094C308.056 144.834 307.019 144.879 306.026 144.97C307.019 144.152 308.011 143.56 308.959 143.196C310.492 142.559 312.071 142.286 313.65 142.286Z" fill="#382E73"/>
<path d="M390.025 161.713C389.078 165.944 386.957 169.265 383.754 171.722C380.642 174.224 375.634 175.589 371.709 175.407C367.424 175.589 362.055 174.406 358.401 172.086C354.702 169.902 351.86 166.99 349.875 163.487C347.89 159.939 346.762 156.208 346.447 152.204C346.131 148.11 346.672 144.242 348.071 140.694C349.469 137.145 351.725 134.233 354.838 132.049C357.95 129.82 361.83 128.728 366.567 128.728C370.582 128.592 375.634 129.911 379.018 132.14C382.672 134.279 386.145 138.464 387.86 142.332C383.799 144.06 379.739 145.789 375.679 147.518C375.138 145.471 374.146 143.787 372.702 142.559C371.258 141.285 369.634 140.648 367.83 140.648C364.898 140.648 362.867 141.786 361.785 144.015C360.702 146.244 360.296 149.019 360.612 152.25C360.928 155.525 361.83 158.21 363.364 160.348C364.898 162.486 367.198 163.578 370.221 163.578C372.025 163.578 373.514 162.987 374.732 161.758C375.95 160.53 376.672 158.938 376.852 156.936C381.228 158.528 385.604 160.121 390.025 161.713Z" fill="#4B4182"/>
<path d="M390.882 158.346C386.506 156.754 382.13 155.162 377.755 153.524C376.311 152.978 375.589 152.705 374.146 152.204C375.454 151.658 376.085 151.385 377.394 150.839C381.454 149.111 385.559 147.427 389.619 145.653C390.837 145.152 391.469 144.879 392.687 144.334C392.19 143.333 391.875 142.741 391.469 141.922C391.333 141.649 391.198 141.376 391.018 141.012C388.627 136.19 385.108 131.868 380.506 129.001C376.085 126.09 369.905 124.952 366.116 124.998C362.326 125.043 356.597 125.908 352.582 128.91C351.635 129.547 350.687 130.321 349.785 131.231C349.74 131.276 349.695 131.322 349.695 131.322C349.65 131.367 349.65 131.367 349.605 131.413C348.522 132.55 347.484 133.824 346.627 135.143C346.221 135.826 345.815 136.508 345.499 137.191C345.184 137.782 344.958 138.419 344.732 139.01C344.372 139.92 344.056 140.876 343.74 141.877C343.334 143.424 343.018 145.061 342.838 146.699C342.657 148.565 342.612 150.385 342.793 152.068C342.973 156.299 344.462 161.258 346.627 164.898C348.702 168.856 352.717 172.86 356.642 174.998C358.762 176.226 361.018 177.182 363.364 177.819C366.206 178.592 369.183 178.956 372.116 178.911C374.642 178.683 377.168 178.41 379.559 177.819C381.95 177.227 384.251 176.226 386.326 174.588C389.89 172.086 392.957 167.127 393.679 162.85C393.995 161.531 394.13 160.849 394.446 159.529C393.002 159.12 392.281 158.847 390.882 158.346ZM383.709 171.722C380.597 174.224 375.589 175.589 371.664 175.407C367.379 175.589 362.01 174.406 358.356 172.086C354.657 169.902 351.815 166.991 349.83 163.487C347.845 159.939 346.717 156.208 346.402 152.204C346.311 151.249 346.311 150.339 346.311 149.429C346.311 149.247 346.311 149.065 346.311 148.929C346.311 148.565 346.356 148.246 346.356 147.928V147.882C346.356 147.7 346.402 147.564 346.402 147.382C346.402 147.2 346.447 147.063 346.447 146.881C346.537 146.244 346.627 145.562 346.762 144.97C346.762 144.925 346.762 144.879 346.762 144.879C346.808 144.743 346.808 144.561 346.853 144.425C346.943 144.106 346.988 143.788 347.078 143.469C347.123 143.287 347.168 143.151 347.214 142.969C347.304 142.65 347.394 142.332 347.529 142.013C347.575 141.786 347.665 141.558 347.755 141.376C347.845 141.149 347.89 140.921 347.981 140.739C349.379 137.191 351.635 134.279 354.747 132.095C357.86 129.911 361.74 128.774 366.477 128.774C370.491 128.637 375.544 129.957 378.927 132.186C379.153 132.323 379.379 132.459 379.604 132.596C379.694 132.686 379.83 132.732 379.965 132.823C380.191 132.959 380.371 133.096 380.597 133.278C382.221 134.506 383.754 136.099 385.063 137.828C385.153 137.919 385.243 138.055 385.333 138.192C385.424 138.283 385.514 138.419 385.604 138.556C386.416 139.693 387.138 140.921 387.679 142.104C387.724 142.195 387.769 142.332 387.815 142.423C383.754 144.152 379.694 145.88 375.634 147.564C375.093 145.516 374.1 143.833 372.657 142.605C372.431 142.423 372.251 142.241 372.025 142.104C371.394 141.649 370.762 141.285 370.085 141.058C369.905 141.012 369.679 140.921 369.499 140.876C369.364 140.83 369.183 140.785 369.048 140.785C368.958 140.785 368.913 140.785 368.822 140.739C368.597 140.694 368.371 140.694 368.146 140.694C368.055 140.694 367.92 140.694 367.83 140.694C367.649 140.694 367.469 140.694 367.334 140.694C367.289 140.694 367.289 140.694 367.243 140.694C367.108 140.694 366.928 140.694 366.792 140.739H366.747C366.612 140.739 366.431 140.785 366.296 140.785C366.116 140.83 365.935 140.83 365.755 140.876C365.619 140.921 365.484 140.967 365.349 140.967C365.258 141.012 365.123 141.058 364.988 141.058C364.898 141.103 364.762 141.149 364.672 141.194C364.582 141.24 364.537 141.24 364.446 141.285C364.356 141.331 364.266 141.376 364.176 141.422C364.131 141.467 364.086 141.467 364.04 141.513C363.995 141.558 363.95 141.558 363.905 141.604C363.77 141.695 363.68 141.74 363.544 141.831L363.499 141.877C363.454 141.922 363.364 141.968 363.319 142.013C363.228 142.059 363.183 142.15 363.093 142.195C363.003 142.286 362.913 142.377 362.822 142.468C362.822 142.468 362.822 142.468 362.777 142.514C362.687 142.605 362.642 142.65 362.552 142.741C362.507 142.787 362.507 142.832 362.462 142.878C362.371 142.969 362.281 143.105 362.236 143.196C362.146 143.287 362.101 143.378 362.056 143.469C361.965 143.606 361.875 143.788 361.785 143.97C360.702 146.199 360.296 148.974 360.612 152.204C360.928 155.48 361.83 158.164 363.364 160.303C364.898 162.441 367.198 163.533 370.221 163.533C372.025 163.533 373.514 162.941 374.732 161.713C375.95 160.485 376.672 158.892 376.852 156.89C381.228 158.483 385.604 160.121 390.025 161.713C389.033 165.944 386.957 169.311 383.709 171.722ZM365.078 145.835C365.484 145.016 366.116 144.243 368.236 144.243C369.093 144.243 369.77 144.515 370.446 145.107C371.258 145.835 371.8 146.79 372.116 148.019C372.612 149.839 372.837 150.748 373.334 152.568C373.424 152.523 373.469 152.523 373.559 152.477C373.424 153.933 373.334 154.707 373.198 156.163C373.063 157.391 372.657 158.346 371.98 159.029C371.394 159.62 370.717 159.893 369.86 159.893C367.695 159.893 366.883 159.165 366.341 158.437C365.213 156.89 364.537 154.798 364.266 152.204C363.995 149.611 364.266 147.473 365.078 145.835Z" fill="#382E73"/>
<path d="M454.942 174.27H438.115C432.927 168.082 427.784 161.849 422.687 155.617C421.153 157.891 420.386 159.029 418.807 161.349C419.574 165.671 420.341 169.993 421.063 174.315H406.852C403.559 153.251 400.311 132.186 397.018 111.121H410.01C411.95 122.222 413.89 133.323 415.83 144.379C419.213 139.511 422.551 134.552 425.799 129.593H443.574C439.423 135.28 435.228 140.876 430.942 146.472C438.882 155.799 446.867 165.08 454.942 174.27Z" fill="#4B4182"/>
<path d="M457.694 172.314C450.25 163.942 442.942 155.435 435.679 146.927C436.942 145.289 438.16 143.651 439.423 142.013C441.904 138.738 444.34 135.462 446.731 132.141C448.536 129.684 449.393 128.455 451.152 125.999H423.544C423.228 126.499 423.047 126.772 422.732 127.227C420.747 130.23 419.754 131.731 417.724 134.688C416.326 126.818 414.882 118.947 413.484 111.121C413.213 109.666 413.078 108.938 412.852 107.482H393.003C393.228 108.938 393.318 109.666 393.544 111.121C395.078 121.404 396.657 131.731 398.191 142.013C399.815 152.75 401.439 163.533 403.063 174.27C403.288 175.726 403.378 176.454 403.604 177.91H425.483C425.213 176.454 425.077 175.726 424.852 174.27C423.995 169.629 423.589 167.309 422.777 162.623C423.002 162.259 423.138 162.077 423.363 161.759C427.333 166.581 431.303 171.404 435.318 176.181C435.904 176.863 436.175 177.227 436.761 177.91H462.701C460.671 175.68 459.678 174.543 457.694 172.314ZM438.115 174.27C432.927 168.083 427.784 161.85 422.686 155.617C421.153 157.891 420.386 159.029 418.807 161.349C419.574 165.671 420.341 169.993 421.062 174.316H406.852C405.183 163.578 403.514 152.796 401.845 142.059C400.221 131.777 398.642 121.449 397.018 111.167H410.01C411.814 121.449 413.619 131.777 415.423 142.059C415.559 142.832 415.694 143.651 415.829 144.425C416.371 143.651 416.912 142.832 417.453 142.059C417.499 142.013 417.544 141.968 417.544 141.877C418.175 140.921 418.852 140.011 419.484 139.056C419.529 138.965 419.619 138.874 419.664 138.783C420.205 137.964 420.747 137.191 421.288 136.372C422.777 134.142 424.265 131.913 425.754 129.638H443.528C442.491 131.049 441.453 132.459 440.461 133.824C440.416 133.869 440.416 133.915 440.37 133.915C439.468 135.143 438.566 136.372 437.619 137.6C436.536 139.056 435.408 140.557 434.28 142.013C433.153 143.515 432.025 144.97 430.897 146.472C438.792 155.844 446.776 165.125 454.897 174.316H438.115V174.27Z" fill="#382E73"/>
<path d="M494.505 159.484C493.603 156.208 492.069 153.615 490.039 151.704C488.009 149.793 485.844 148.383 483.588 147.518C483.498 147.473 483.407 147.427 483.317 147.427C481.107 146.608 478.49 145.835 475.377 145.107C472.896 144.561 471.047 144.015 469.829 143.469C468.972 143.105 468.34 142.605 467.979 142.013C467.799 141.74 467.708 141.513 467.618 141.194C467.438 140.421 467.573 139.784 468.16 139.329C468.701 138.874 469.558 138.646 470.776 138.646C472.671 138.646 474.295 139.147 475.558 140.193C476.19 140.694 476.866 141.331 477.543 142.013C478.22 142.696 478.851 143.424 479.528 144.288C480.881 143.424 481.964 142.696 483.001 142.013C484.671 140.921 486.204 139.92 488.37 138.464C485.663 135.371 482.595 132.959 479.212 131.231C475.829 129.456 472.22 128.592 468.34 128.592C463.874 128.592 460.31 129.775 457.603 132.095C455.032 134.324 454.13 137.646 455.032 142.013C455.077 142.195 455.122 142.377 455.167 142.559C455.844 145.516 457.107 147.928 458.957 149.793C460.806 151.658 462.791 153.069 465.002 154.024C467.167 154.98 469.874 155.889 473.032 156.799C475.738 157.573 477.768 158.301 479.077 158.938C480.385 159.575 481.152 160.394 481.423 161.44C481.648 162.213 481.423 162.896 480.791 163.533C480.159 164.124 478.986 164.443 477.182 164.443C475.287 164.443 473.663 164.079 472.355 163.351C471.047 162.623 470.099 161.849 469.468 160.985C468.836 160.121 468.024 158.983 467.122 157.527C463.197 159.438 461.257 160.394 457.288 162.35C458.551 164.579 460.31 166.718 462.611 168.674C464.911 170.676 467.573 172.268 470.596 173.496C473.618 174.725 476.776 175.316 480.024 175.316C481.152 175.316 482.235 175.225 483.272 175.089C485.122 174.816 486.926 174.361 488.595 173.633C491.212 172.541 493.107 170.767 494.28 168.401C495.407 165.944 495.498 162.987 494.505 159.484Z" fill="#4B4182"/>
<path d="M498.159 159.484C496.986 155.435 495.001 152.022 492.249 149.475C490.219 147.564 488.054 146.062 485.844 144.97C487.874 143.651 488.911 142.969 490.896 141.649C492.024 140.921 492.565 140.557 493.648 139.829C492.475 138.556 491.934 137.873 490.761 136.599C487.964 133.278 483.949 130.048 480.024 128.091C476.415 126.09 471.408 124.861 467.257 124.952C463.152 124.725 457.784 126.272 454.716 129.092C451.062 132.323 450.295 137.418 451.288 141.968C451.333 142.15 451.378 142.332 451.423 142.514C452.28 146.244 453.949 149.429 456.385 151.931C457.874 153.478 459.543 154.798 461.257 155.844C458.686 157.118 457.423 157.709 454.851 158.983C453.769 159.529 453.227 159.802 452.1 160.303C452.776 161.531 453.137 162.168 453.814 163.396C455.303 166.126 457.468 168.674 460.22 171.04C462.927 173.406 466.13 175.316 469.648 176.727C470.821 177.182 472.039 177.591 473.302 177.91C473.708 178.001 474.114 178.092 474.52 178.183C476.596 178.638 478.671 178.865 480.791 178.865C481.558 178.865 482.325 178.82 483.092 178.774C485.798 178.547 488.37 177.955 490.716 176.954C493.919 175.589 496.264 173.406 497.708 170.494C499.287 167.491 499.422 163.76 498.159 159.484ZM494.234 168.355C493.061 170.721 491.167 172.496 488.55 173.588C486.881 174.315 485.122 174.77 483.227 175.043C482.189 175.18 481.107 175.271 479.979 175.271C476.731 175.271 473.573 174.679 470.551 173.451C467.528 172.223 464.866 170.63 462.566 168.628C460.265 166.627 458.46 164.534 457.242 162.304C461.212 160.394 463.197 159.438 467.077 157.482C467.979 158.938 468.746 160.075 469.423 160.94C470.054 161.804 471.047 162.577 472.31 163.305C473.618 164.033 475.197 164.397 477.137 164.397C478.941 164.397 480.159 164.079 480.746 163.487C481.377 162.896 481.558 162.168 481.377 161.395C481.107 160.348 480.295 159.529 479.032 158.892C477.723 158.255 475.738 157.527 472.987 156.754C469.829 155.844 467.122 154.934 464.957 153.979C462.791 153.023 460.761 151.658 458.912 149.748C457.062 147.882 455.799 145.471 455.122 142.514C455.077 142.332 455.032 142.15 454.987 141.968C454.085 137.6 454.942 134.279 457.558 132.05C460.265 129.729 463.829 128.546 468.295 128.546C472.175 128.546 475.784 129.411 479.167 131.185C482.55 132.914 485.573 135.371 488.325 138.419C486.159 139.875 484.671 140.83 482.956 141.968C481.919 142.65 480.836 143.378 479.483 144.243C478.806 143.424 478.129 142.65 477.498 141.968C476.821 141.285 476.19 140.694 475.513 140.148C474.205 139.147 472.626 138.601 470.731 138.601C469.558 138.601 468.656 138.828 468.114 139.283C467.573 139.738 467.393 140.375 467.573 141.149C467.663 141.422 467.754 141.695 467.934 141.968C468.295 142.559 468.926 143.06 469.784 143.424C471.002 143.97 472.851 144.516 475.332 145.061C478.4 145.835 481.062 146.608 483.272 147.382C483.362 147.427 483.453 147.473 483.543 147.473C485.798 148.337 487.964 149.702 489.994 151.658C492.024 153.615 493.558 156.208 494.46 159.438C495.498 162.987 495.407 165.944 494.234 168.355Z" fill="#382E73"/>
<g filter="url(#filter1_f)">
<path d="M134.872 144.561C132.662 154.479 130.406 164.397 128.195 174.27H113.985C115.97 166.035 118 157.846 119.985 149.611C120.391 147.928 120.617 146.472 120.707 145.198C120.752 143.969 120.391 142.878 119.624 141.877C118.857 140.921 117.369 140.421 115.203 140.421C112.632 140.421 110.557 141.103 108.978 142.468C107.399 143.833 106.226 145.38 105.504 147.154C104.782 148.883 104.06 150.976 103.429 153.387C101.579 160.348 99.7297 167.264 97.9252 174.224H83.7148C87.9554 159.347 92.1959 144.424 96.4365 129.547H109.79C109.339 131.231 109.113 132.049 108.707 133.733C112.406 130.23 117.369 128.501 122.466 128.546C127.474 128.546 131.038 130.002 133.248 132.868C135.368 135.78 135.955 139.647 134.872 144.561Z" fill="#1EEDC8"/>
<path d="M214.134 129.593C207.683 144.606 201.051 159.484 194.149 174.27H181.608C180.48 165.899 179.443 157.482 178.45 149.065C174.796 157.482 171.052 165.899 167.308 174.27H154.631C152.601 159.393 150.797 144.515 149.263 129.593H163.428C164.059 137.509 164.736 145.38 165.458 153.251C169.022 145.38 172.541 137.509 175.969 129.593H187.202C188.104 137.418 189.052 145.243 190.089 153.069C193.382 145.243 196.676 137.418 199.879 129.593H214.134Z" fill="#1EEDC8"/>
<path d="M279.953 111.076C279.457 132.14 279.005 153.205 278.509 174.27H263.712C264.073 165.58 264.434 156.845 264.84 148.155H240.209C239.532 156.845 238.856 165.535 238.224 174.27H223.427C225.457 153.205 227.487 132.14 229.517 111.076H243.051C242.419 119.083 241.833 127.09 241.201 135.098H265.382C265.742 127.09 266.058 119.083 266.419 111.076H279.953Z" fill="#1EEDC8"/>
<path d="M334.448 145.88C334.403 144.561 334.178 143.242 333.862 141.968C332.96 138.601 331.11 135.507 328.403 133.232C324.298 129.82 318.93 128.501 313.652 128.546C309.637 128.546 305.802 129.229 302.103 130.639C298.404 132.05 295.201 134.142 292.539 137.009C294.524 138.692 296.509 140.33 298.449 141.968C299.757 143.06 301.065 144.151 302.374 145.243C303.817 143.788 305.261 142.696 306.614 141.968C306.975 141.786 307.291 141.604 307.652 141.467C309.366 140.785 311.125 140.421 312.975 140.421C315.366 140.421 317.261 140.921 318.659 141.922L318.704 141.968C320.058 142.969 320.779 144.242 320.825 145.88C320.825 146.153 320.824 146.335 320.87 146.608H308.554C304.449 146.608 301.02 147.382 298.223 148.883C296.283 149.975 294.795 151.431 293.667 153.296C292.584 155.162 291.998 157.345 291.998 159.848C291.998 162.85 292.765 165.535 294.299 167.855C295.832 170.175 297.953 171.995 300.704 173.314C303.456 174.588 306.569 175.271 309.998 175.271C314.599 175.362 319.155 173.633 321.952 169.811C322.403 171.586 322.629 172.496 323.08 174.27H336.072C335.531 164.807 334.99 155.344 334.448 145.88ZM318.524 162.122C316.719 163.578 314.554 164.306 312.028 164.306C310.088 164.306 308.644 163.897 307.607 163.123C306.569 162.35 306.028 161.349 306.028 160.121C305.983 158.983 306.434 158.073 307.336 157.482C308.103 156.936 309.276 156.663 310.81 156.663H321.276C321.231 158.847 320.328 160.667 318.524 162.122Z" fill="#1EEDC8"/>
<path d="M389.395 161.713C388.448 165.944 386.327 169.265 383.124 171.722C380.012 174.224 375.004 175.589 371.079 175.407C366.794 175.589 361.425 174.406 357.771 172.086C354.072 169.902 351.23 166.99 349.245 163.487C347.26 159.939 346.132 156.208 345.817 152.204C345.501 148.11 346.042 144.242 347.441 140.694C348.839 137.145 351.095 134.233 354.207 132.049C357.32 129.82 361.2 128.728 365.937 128.728C369.952 128.592 375.004 129.911 378.388 132.14C382.042 134.279 385.515 138.464 387.23 142.332C383.17 144.06 379.109 145.789 375.049 147.518C374.508 145.471 373.515 143.787 372.072 142.559C370.628 141.285 369.004 140.648 367.2 140.648C364.267 140.648 362.237 141.786 361.155 144.015C360.072 146.244 359.666 149.019 359.982 152.25C360.298 155.525 361.2 158.21 362.734 160.348C364.267 162.486 366.568 163.578 369.591 163.578C371.395 163.578 372.884 162.987 374.102 161.758C375.32 160.53 376.042 158.938 376.222 156.936C380.598 158.528 384.974 160.121 389.395 161.713Z" fill="#1EEDC8"/>
<path d="M454.311 174.27H437.484C432.297 168.082 427.154 161.849 422.056 155.617C420.522 157.891 419.755 159.029 418.176 161.349C418.943 165.671 419.71 169.993 420.432 174.315H406.222C402.928 153.251 399.68 132.186 396.387 111.121H409.38C411.319 122.222 413.259 133.323 415.199 144.379C418.582 139.511 421.921 134.552 425.169 129.593H442.943C438.793 135.28 434.597 140.876 430.312 146.472C438.251 155.798 446.236 165.08 454.311 174.27Z" fill="#1EEDC8"/>
<path d="M493.875 159.484C492.973 156.208 491.439 153.615 489.409 151.704C487.379 149.793 485.213 148.383 482.958 147.518C482.867 147.473 482.777 147.427 482.687 147.427C480.476 146.608 477.86 145.835 474.747 145.107C472.266 144.561 470.417 144.015 469.199 143.469C468.341 143.105 467.71 142.605 467.349 142.013C467.168 141.74 467.078 141.513 466.988 141.194C466.808 140.421 466.943 139.784 467.529 139.329C468.071 138.874 468.928 138.646 470.146 138.646C472.041 138.646 473.665 139.147 474.928 140.193C475.559 140.694 476.236 141.331 476.913 142.013C477.589 142.696 478.221 143.424 478.898 144.288C480.251 143.424 481.334 142.696 482.371 142.013C484.04 140.921 485.574 139.92 487.74 138.464C485.033 135.371 481.965 132.959 478.582 131.231C475.198 129.456 471.589 128.592 467.71 128.592C463.244 128.592 459.68 129.775 456.973 132.095C454.402 134.324 453.5 137.646 454.402 142.013C454.447 142.195 454.492 142.377 454.537 142.559C455.214 145.516 456.477 147.928 458.327 149.793C460.176 151.658 462.161 153.069 464.372 154.024C466.537 154.98 469.244 155.889 472.401 156.799C475.108 157.573 477.138 158.301 478.447 158.938C479.755 159.575 480.522 160.394 480.792 161.44C481.018 162.213 480.792 162.896 480.161 163.533C479.529 164.124 478.356 164.443 476.552 164.443C474.657 164.443 473.033 164.079 471.725 163.351C470.417 162.623 469.469 161.849 468.838 160.985C468.206 160.121 467.394 158.983 466.492 157.527C462.567 159.438 460.627 160.394 456.657 162.35C457.921 164.579 459.68 166.718 461.981 168.674C464.281 170.676 466.943 172.268 469.965 173.496C472.988 174.725 476.146 175.316 479.394 175.316C480.522 175.316 481.604 175.225 482.642 175.089C484.491 174.816 486.296 174.361 487.965 173.633C490.582 172.541 492.476 170.767 493.649 168.401C494.777 165.944 494.867 162.987 493.875 159.484Z" fill="#1EEDC8"/>
</g>
<path d="M134.872 144.561C132.662 154.479 130.406 164.397 128.195 174.27H113.985C115.97 166.035 118 157.846 119.985 149.611C120.391 147.928 120.617 146.472 120.707 145.198C120.752 143.969 120.391 142.878 119.624 141.877C118.857 140.921 117.369 140.421 115.203 140.421C112.632 140.421 110.557 141.103 108.978 142.468C107.399 143.833 106.226 145.38 105.504 147.154C104.782 148.883 104.06 150.976 103.429 153.387C101.579 160.348 99.7297 167.264 97.9252 174.224H83.7148C87.9554 159.347 92.1959 144.424 96.4365 129.547H109.79C109.339 131.231 109.113 132.049 108.707 133.733C112.406 130.23 117.369 128.501 122.466 128.546C127.474 128.546 131.038 130.002 133.248 132.868C135.368 135.78 135.955 139.647 134.872 144.561Z" fill="#CAFFFF"/>
<path d="M214.134 129.593C207.683 144.606 201.051 159.484 194.149 174.27H181.608C180.48 165.899 179.443 157.482 178.45 149.065C174.796 157.482 171.052 165.899 167.308 174.27H154.631C152.601 159.393 150.797 144.515 149.263 129.593H163.428C164.059 137.509 164.736 145.38 165.458 153.251C169.022 145.38 172.541 137.509 175.969 129.593H187.202C188.104 137.418 189.052 145.243 190.089 153.069C193.382 145.243 196.676 137.418 199.879 129.593H214.134Z" fill="#CAFFFF"/>
<path d="M279.953 111.076C279.457 132.14 279.005 153.205 278.509 174.27H263.712C264.073 165.58 264.434 156.845 264.84 148.155H240.209C239.532 156.845 238.856 165.535 238.224 174.27H223.427C225.457 153.205 227.487 132.14 229.517 111.076H243.051C242.419 119.083 241.833 127.09 241.201 135.098H265.382C265.742 127.09 266.058 119.083 266.419 111.076H279.953Z" fill="#CAFFFF"/>
<path d="M334.448 145.88C334.403 144.561 334.178 143.242 333.862 141.968C332.96 138.601 331.11 135.507 328.403 133.232C324.298 129.82 318.93 128.501 313.652 128.546C309.637 128.546 305.802 129.229 302.103 130.639C298.404 132.05 295.201 134.142 292.539 137.009C294.524 138.692 296.509 140.33 298.449 141.968C299.757 143.06 301.065 144.151 302.374 145.243C303.817 143.788 305.261 142.696 306.614 141.968C306.975 141.786 307.291 141.604 307.652 141.467C309.366 140.785 311.125 140.421 312.975 140.421C315.366 140.421 317.261 140.921 318.659 141.922L318.704 141.968C320.058 142.969 320.779 144.242 320.825 145.88C320.825 146.153 320.824 146.335 320.87 146.608H308.554C304.449 146.608 301.02 147.382 298.223 148.883C296.283 149.975 294.795 151.431 293.667 153.296C292.584 155.162 291.998 157.345 291.998 159.848C291.998 162.85 292.765 165.535 294.299 167.855C295.832 170.175 297.953 171.995 300.704 173.314C303.456 174.588 306.569 175.271 309.998 175.271C314.599 175.362 319.155 173.633 321.952 169.811C322.403 171.586 322.629 172.496 323.08 174.27H336.072C335.531 164.807 334.99 155.344 334.448 145.88ZM318.524 162.122C316.719 163.578 314.554 164.306 312.028 164.306C310.088 164.306 308.644 163.897 307.607 163.123C306.569 162.35 306.028 161.349 306.028 160.121C305.983 158.983 306.434 158.073 307.336 157.482C308.103 156.936 309.276 156.663 310.81 156.663H321.276C321.231 158.847 320.328 160.667 318.524 162.122Z" fill="#CAFFFF"/>
<path d="M389.395 161.713C388.448 165.944 386.327 169.265 383.124 171.722C380.012 174.224 375.004 175.589 371.079 175.407C366.794 175.589 361.425 174.406 357.771 172.086C354.072 169.902 351.23 166.99 349.245 163.487C347.26 159.939 346.132 156.208 345.817 152.204C345.501 148.11 346.042 144.242 347.441 140.694C348.839 137.145 351.095 134.233 354.207 132.049C357.32 129.82 361.2 128.728 365.937 128.728C369.952 128.592 375.004 129.911 378.388 132.14C382.042 134.279 385.515 138.464 387.23 142.332C383.17 144.06 379.109 145.789 375.049 147.518C374.508 145.471 373.515 143.787 372.072 142.559C370.628 141.285 369.004 140.648 367.2 140.648C364.267 140.648 362.237 141.786 361.155 144.015C360.072 146.244 359.666 149.019 359.982 152.25C360.298 155.525 361.2 158.21 362.734 160.348C364.267 162.486 366.568 163.578 369.591 163.578C371.395 163.578 372.884 162.987 374.102 161.758C375.32 160.53 376.042 158.938 376.222 156.936C380.598 158.528 384.974 160.121 389.395 161.713Z" fill="#CAFFFF"/>
<path d="M454.311 174.27H437.484C432.297 168.082 427.154 161.849 422.056 155.617C420.522 157.891 419.755 159.029 418.176 161.349C418.943 165.671 419.71 169.993 420.432 174.315H406.222C402.928 153.251 399.68 132.186 396.387 111.121H409.38C411.319 122.222 413.259 133.323 415.199 144.379C418.582 139.511 421.921 134.552 425.169 129.593H442.943C438.793 135.28 434.597 140.876 430.312 146.472C438.251 155.798 446.236 165.08 454.311 174.27Z" fill="#CAFFFF"/>
<path d="M493.875 159.484C492.973 156.208 491.439 153.615 489.409 151.704C487.379 149.793 485.213 148.383 482.958 147.518C482.867 147.473 482.777 147.427 482.687 147.427C480.476 146.608 477.86 145.835 474.747 145.107C472.266 144.561 470.417 144.015 469.199 143.469C468.341 143.105 467.71 142.605 467.349 142.013C467.168 141.74 467.078 141.513 466.988 141.194C466.808 140.421 466.943 139.784 467.529 139.329C468.071 138.874 468.928 138.646 470.146 138.646C472.041 138.646 473.665 139.147 474.928 140.193C475.559 140.694 476.236 141.331 476.913 142.013C477.589 142.696 478.221 143.424 478.898 144.288C480.251 143.424 481.334 142.696 482.371 142.013C484.04 140.921 485.574 139.92 487.74 138.464C485.033 135.371 481.965 132.959 478.582 131.231C475.198 129.456 471.589 128.592 467.71 128.592C463.244 128.592 459.68 129.775 456.973 132.095C454.402 134.324 453.5 137.646 454.402 142.013C454.447 142.195 454.492 142.377 454.537 142.559C455.214 145.516 456.477 147.928 458.327 149.793C460.176 151.658 462.161 153.069 464.372 154.024C466.537 154.98 469.244 155.889 472.401 156.799C475.108 157.573 477.138 158.301 478.447 158.938C479.755 159.575 480.522 160.394 480.792 161.44C481.018 162.213 480.792 162.896 480.161 163.533C479.529 164.124 478.356 164.443 476.552 164.443C474.657 164.443 473.033 164.079 471.725 163.351C470.417 162.623 469.469 161.849 468.838 160.985C468.206 160.121 467.394 158.983 466.492 157.527C462.567 159.438 460.627 160.394 456.657 162.35C457.921 164.579 459.68 166.718 461.981 168.674C464.281 170.676 466.943 172.268 469.965 173.496C472.988 174.725 476.146 175.316 479.394 175.316C480.522 175.316 481.604 175.225 482.642 175.089C484.491 174.816 486.296 174.361 487.965 173.633C490.582 172.541 492.476 170.767 493.649 168.401C494.777 165.944 494.867 162.987 493.875 159.484Z" fill="#CAFFFF"/>
<g filter="url(#filter2_f)">
<path d="M275.53 202.934C275.395 204.117 275.305 204.709 275.169 205.892C271.606 205.892 268.087 205.892 264.523 205.892C264.703 204.891 264.794 204.39 264.974 203.389C266.824 202.434 268.538 201.297 270.117 200.023C271.696 198.749 272.553 197.429 272.733 196.11C272.824 195.564 272.733 195.109 272.553 194.791C272.327 194.472 271.967 194.29 271.425 194.29C270.252 194.29 269.44 195.155 269.034 196.929C267.861 196.838 267.23 196.792 266.057 196.701C266.237 195.837 266.598 194.973 267.139 194.154C267.681 193.335 268.403 192.607 269.215 192.106C270.072 191.56 270.974 191.287 271.967 191.287C272.824 191.287 273.545 191.469 274.177 191.879C274.809 192.288 275.26 192.834 275.53 193.562C275.801 194.29 275.891 195.109 275.801 196.064C275.711 196.883 275.395 197.748 274.899 198.612C274.403 199.477 273.726 200.296 272.914 201.069C272.102 201.842 271.2 202.479 270.162 203.025C272.327 202.934 273.365 202.934 275.53 202.934Z" fill="#1EEDC8"/>
<path d="M282.793 203.888C282.207 202.432 281.981 200.612 282.162 198.519C282.342 196.472 282.793 194.743 283.56 193.287C284.327 191.831 285.68 191.104 287.711 191.104C289.741 191.104 291.049 191.831 291.68 193.287C292.312 194.743 292.628 196.472 292.583 198.519C292.538 200.612 292.177 202.387 291.455 203.888C290.733 205.344 289.244 206.072 286.989 206.072C284.778 206.117 283.38 205.389 282.793 203.888ZM288.883 201.932C289.199 201.158 289.335 200.066 289.38 198.656C289.425 197.2 289.335 196.108 289.109 195.335C288.883 194.561 288.342 194.197 287.575 194.197C286.763 194.197 286.222 194.561 285.906 195.335C285.59 196.108 285.41 197.2 285.32 198.656C285.229 200.066 285.32 201.158 285.545 201.932C285.771 202.705 286.312 203.114 287.169 203.114C288.026 203.114 288.613 202.705 288.883 201.932Z" fill="#1EEDC8"/>
<path d="M309.364 202.932C309.5 204.115 309.545 204.707 309.635 205.89C306.071 205.89 302.553 205.89 298.989 205.89C298.944 204.889 298.944 204.388 298.898 203.387C300.523 202.432 302.011 201.295 303.319 200.021C304.628 198.747 305.169 197.427 305.079 196.108C305.034 195.562 304.853 195.107 304.583 194.789C304.312 194.47 303.906 194.288 303.365 194.288C302.192 194.288 301.605 195.153 301.56 196.927C300.342 196.836 299.756 196.79 298.538 196.699C298.492 195.835 298.673 194.971 299.034 194.152C299.395 193.333 299.936 192.605 300.658 192.104C301.38 191.558 302.237 191.285 303.229 191.285C304.086 191.285 304.853 191.467 305.53 191.877C306.252 192.286 306.793 192.832 307.244 193.56C307.695 194.288 307.966 195.107 308.056 196.062C308.146 196.881 308.011 197.746 307.695 198.61C307.38 199.475 306.883 200.294 306.252 201.067C305.62 201.841 304.808 202.477 303.951 203.023C306.162 202.932 307.244 202.932 309.364 202.932Z" fill="#1EEDC8"/>
<path d="M321.364 191.376C322.267 196.199 323.214 201.067 324.116 205.89C322.808 205.89 322.176 205.89 320.868 205.89C320.327 202.614 319.74 199.338 319.199 196.108C317.936 196.108 317.304 196.108 316.041 196.108C315.906 195.107 315.816 194.607 315.68 193.651C316.312 193.651 316.628 193.651 317.259 193.651C317.755 193.651 318.161 193.515 318.342 193.287C318.567 193.06 318.612 192.65 318.522 192.059C318.477 191.786 318.432 191.649 318.387 191.376C319.605 191.376 320.191 191.376 321.364 191.376Z" fill="#1EEDC8"/>
</g>
<path d="M275.53 202.934C275.395 204.117 275.305 204.709 275.169 205.892C271.606 205.892 268.087 205.892 264.523 205.892C264.703 204.891 264.794 204.39 264.974 203.389C266.824 202.434 268.538 201.297 270.117 200.023C271.696 198.749 272.553 197.429 272.733 196.11C272.824 195.564 272.733 195.109 272.553 194.791C272.327 194.472 271.967 194.29 271.425 194.29C270.252 194.29 269.44 195.155 269.034 196.929C267.861 196.838 267.23 196.792 266.057 196.701C266.237 195.837 266.598 194.973 267.139 194.154C267.681 193.335 268.403 192.607 269.215 192.106C270.072 191.56 270.974 191.287 271.967 191.287C272.824 191.287 273.545 191.469 274.177 191.879C274.809 192.288 275.26 192.834 275.53 193.562C275.801 194.29 275.891 195.109 275.801 196.064C275.711 196.883 275.395 197.748 274.899 198.612C274.403 199.477 273.726 200.296 272.914 201.069C272.102 201.842 271.2 202.479 270.162 203.025C272.327 202.934 273.365 202.934 275.53 202.934Z" fill="#D0FFFF"/>
<path d="M282.793 203.888C282.207 202.432 281.981 200.612 282.162 198.519C282.342 196.472 282.793 194.743 283.56 193.287C284.327 191.831 285.68 191.104 287.711 191.104C289.741 191.104 291.049 191.831 291.68 193.287C292.312 194.743 292.628 196.472 292.583 198.519C292.538 200.612 292.177 202.387 291.455 203.888C290.733 205.344 289.244 206.072 286.989 206.072C284.778 206.117 283.38 205.389 282.793 203.888ZM288.883 201.932C289.199 201.158 289.335 200.066 289.38 198.656C289.425 197.2 289.335 196.108 289.109 195.335C288.883 194.561 288.342 194.197 287.575 194.197C286.763 194.197 286.222 194.561 285.906 195.335C285.59 196.108 285.41 197.2 285.32 198.656C285.229 200.066 285.32 201.158 285.545 201.932C285.771 202.705 286.312 203.114 287.169 203.114C288.026 203.114 288.613 202.705 288.883 201.932Z" fill="#D0FFFF"/>
<path d="M309.364 202.932C309.5 204.115 309.545 204.707 309.635 205.89C306.071 205.89 302.553 205.89 298.989 205.89C298.944 204.889 298.944 204.388 298.898 203.387C300.523 202.432 302.011 201.295 303.319 200.021C304.628 198.747 305.169 197.427 305.079 196.108C305.034 195.562 304.853 195.107 304.583 194.789C304.312 194.47 303.906 194.288 303.365 194.288C302.192 194.288 301.605 195.153 301.56 196.927C300.342 196.836 299.756 196.79 298.538 196.699C298.492 195.835 298.673 194.971 299.034 194.152C299.395 193.333 299.936 192.605 300.658 192.104C301.38 191.558 302.237 191.285 303.229 191.285C304.086 191.285 304.853 191.467 305.53 191.877C306.252 192.286 306.793 192.832 307.244 193.56C307.695 194.288 307.966 195.107 308.056 196.062C308.146 196.881 308.011 197.746 307.695 198.61C307.38 199.475 306.883 200.294 306.252 201.067C305.62 201.841 304.808 202.477 303.951 203.023C306.162 202.932 307.244 202.932 309.364 202.932Z" fill="#D0FFFF"/>
<path d="M321.364 191.376C322.267 196.199 323.214 201.067 324.116 205.89C322.808 205.89 322.176 205.89 320.868 205.89C320.327 202.614 319.74 199.338 319.199 196.108C317.936 196.108 317.304 196.108 316.041 196.108C315.906 195.107 315.816 194.607 315.68 193.651C316.312 193.651 316.628 193.651 317.259 193.651C317.755 193.651 318.161 193.515 318.342 193.287C318.567 193.06 318.612 192.65 318.522 192.059C318.477 191.786 318.432 191.649 318.387 191.376C319.605 191.376 320.191 191.376 321.364 191.376Z" fill="#D0FFFF"/>
<defs>
<filter id="filter0_f" x="189.927" y="0.684326" width="193.099" height="179.564" filterUnits="userSpaceOnUse" color-interpolation-filters="sRGB">
<feFlood flood-opacity="0" result="BackgroundImageFix"/>
<feBlend mode="normal" in="SourceGraphic" in2="BackgroundImageFix" result="shape"/>
<feGaussianBlur stdDeviation="15" result="effect1_foregroundBlur"/>
</filter>
<filter id="filter1_f" x="73.7148" y="101.076" width="430.847" height="84.3498" filterUnits="userSpaceOnUse" color-interpolation-filters="sRGB">
<feFlood flood-opacity="0" result="BackgroundImageFix"/>
<feBlend mode="normal" in="SourceGraphic" in2="BackgroundImageFix" result="shape"/>
<feGaussianBlur stdDeviation="5" result="effect1_foregroundBlur"/>
</filter>
<filter id="filter2_f" x="254.523" y="181.104" width="79.5932" height="34.9702" filterUnits="userSpaceOnUse" color-interpolation-filters="sRGB">
<feFlood flood-opacity="0" result="BackgroundImageFix"/>
<feBlend mode="normal" in="SourceGraphic" in2="BackgroundImageFix" result="shape"/>
<feGaussianBlur stdDeviation="5" result="effect1_foregroundBlur"/>
</filter>
</defs>
</svg>
