<svg width="64" height="93" viewBox="0 0 64 93" fill="none" xmlns="http://www.w3.org/2000/svg">
<path d="M5.14504 84.8859V90.6339L1.87517 84.8859H0.530762V92.8693H1.78402V87.144L5.0539 92.8693H6.39831V84.8859H5.14504Z" fill="white"/>
<path d="M18.1766 84.8859L16.7183 91.0901L15.1346 85.7298H13.9953L12.4116 91.0901L10.9532 84.8859H9.63163L11.7394 92.8693H13.0154L14.5649 87.8055L16.1144 92.8693H17.3905L19.4982 84.8859H18.1766Z" fill="white"/>
<path d="M22.5088 92.8693H23.7621V89.1969H26.9978V92.8693H28.251V84.8859H26.9978V88.0108H23.7621V84.8859H22.5088V92.8693Z" fill="white"/>
<path d="M33.9517 84.8859L31.1832 92.8693H32.4592L33.12 90.8848H35.9683L36.6292 92.8693H37.9052L35.1366 84.8859H33.9517ZM34.5442 86.4711L35.5924 89.6987H33.496L34.5442 86.4711Z" fill="white"/>
<path d="M47.2744 87.2125C46.8643 85.707 45.7477 84.7946 44.0501 84.7946C42.1247 84.7946 40.3587 86.1746 40.3587 88.8776C40.3587 91.5805 42.1247 92.9605 44.0501 92.9605C45.7477 92.9605 46.8643 92.0481 47.2744 90.5427L46.0895 90.2462C45.6908 91.2612 45.1325 91.7744 44.0501 91.7744C42.7057 91.7744 41.6348 90.8278 41.6348 88.8776C41.6348 86.9273 42.7057 85.9807 44.0501 85.9807C45.1325 85.9807 45.6908 86.4939 46.0895 87.509L47.2744 87.2125Z" fill="white"/>
<path d="M50.5359 84.8859V92.8693H51.7891V88.9574L54.8198 92.8693H56.4262L52.9513 88.4556L56.1642 84.8859H54.6375L51.7891 87.9538V84.8859H50.5359Z" fill="white"/>
<path d="M63.6126 86.1404C63.1911 85.3877 62.5075 84.7946 61.4137 84.7946C60.2516 84.7946 59.3288 85.6842 59.3288 86.8931C59.3288 89.3566 62.724 89.0144 62.724 90.5769C62.724 91.284 62.2227 91.7744 61.5049 91.7744C60.5934 91.7744 60.1263 90.9761 59.8984 90.0865L58.873 90.7366C59.1579 92.0139 60.1035 92.9605 61.5049 92.9605C62.9404 92.9605 64 91.9911 64 90.5313C64 88.0678 60.582 88.3758 60.582 86.8019C60.582 86.3343 60.901 85.9351 61.4137 85.9351C61.8809 85.9351 62.2796 86.2088 62.5986 86.8133L63.6126 86.1404Z" fill="white"/>
<path fill-rule="evenodd" clip-rule="evenodd" d="M52.7838 10.8618L63.6345 0L63.6345 78.205L52.7838 67.3432L52.7838 10.8618Z" fill="url(#paint0_linear)"/>
<path fill-rule="evenodd" clip-rule="evenodd" d="M0.698181 0.542969L11.5489 10.8617L11.5489 67.3431L0.698181 78.2049L0.698181 0.542969Z" fill="url(#paint1_linear)"/>
<path fill-rule="evenodd" clip-rule="evenodd" d="M0.698696 78.205L27.283 52.1367L19.6875 44.5334L0.69916 62.4555L0.698696 78.205Z" fill="url(#paint2_linear)"/>
<path fill-rule="evenodd" clip-rule="evenodd" d="M0.698181 15.2065V0L63.6325 62.9985V78.205L0.698181 15.2065Z" fill="url(#paint3_linear)"/>
<defs>
<linearGradient id="paint0_linear" x1="50.0796" y1="-4.31804" x2="51.419" y2="74.9523" gradientUnits="userSpaceOnUse">
<stop stop-color="white" stop-opacity="0.86"/>
<stop offset="0.567704" stop-color="white"/>
</linearGradient>
<linearGradient id="paint1_linear" x1="2.14043" y1="4.99331" x2="2.14043" y2="78.5018" gradientUnits="userSpaceOnUse">
<stop stop-color="white"/>
<stop offset="1" stop-color="white" stop-opacity="0.8"/>
</linearGradient>
<linearGradient id="paint2_linear" x1="5.69213" y1="65.5458" x2="25.7894" y2="45.3789" gradientUnits="userSpaceOnUse">
<stop stop-color="white"/>
<stop offset="1" stop-color="white" stop-opacity="0.8"/>
</linearGradient>
<linearGradient id="paint3_linear" x1="2.87416" y1="24.5722" x2="2.87416" y2="78.3793" gradientUnits="userSpaceOnUse">
<stop stop-color="white"/>
<stop offset="1" stop-color="white" stop-opacity="0.8"/>
</linearGradient>
</defs>
</svg>
