<svg width="88" height="104" viewBox="0 0 88 104" fill="none" xmlns="http://www.w3.org/2000/svg">
<g filter="url(#filter0_d_10_38)">
<path fill-rule="evenodd" clip-rule="evenodd" d="M57.0919 26.8228L64.2018 20V69.1617L64.2018 69.1617V69.1618L30.0988 36.3838V52.8424L35.4312 47.9974L40.3993 52.7777L23.0215 69.141L23 69.1618V29.5608V20.0001L30.0988 26.8229V26.8231L57.0919 52.7674V26.8228Z" fill="url(#paint0_linear_10_38)"/>
</g>
<g filter="url(#filter1_d_10_38)">
<path d="M25.9933 72.5756C26.5832 72.5756 27.0431 72.7441 27.3731 73.0812C27.7032 73.4182 27.8682 73.8852 27.8682 74.482V77.8841H26.4462V74.935C26.4462 74.619 26.3936 74.3557 26.2883 74.145C26.1829 73.9273 25.9372 73.8185 25.551 73.8185C25.2209 73.8185 24.9752 73.9098 24.8137 74.0923C24.6592 74.2749 24.5644 74.4891 24.5293 74.7348C24.4942 74.9736 24.4766 75.272 24.4766 75.6301V77.8841H23.0442V72.6915H24.4766V73.2286C24.8207 72.7933 25.3263 72.5756 25.9933 72.5756Z" fill="url(#paint1_linear_10_38)"/>
<path d="M28.3454 72.6915H29.8622L30.6837 75.6933L31.5474 72.6915H32.7587L33.6224 75.6722L34.4439 72.6915H35.9712L34.3386 77.8841H33.0747L32.1583 74.7138L31.2525 77.8841H29.9675L28.3454 72.6915Z" fill="url(#paint2_linear_10_38)"/>
<path d="M36.7698 70.5428H38.2549V73.4182H41.2883V70.5428H42.7735V77.8841H41.2883V74.777H38.2549V77.8841H36.7698V70.5428Z" fill="url(#paint3_linear_10_38)"/>
<path d="M46.3079 72.5756C47.0171 72.5756 47.5753 72.7582 47.9826 73.1233C48.3969 73.4814 48.604 73.973 48.604 74.5979V77.8841H47.2979L47.1926 77.2838C47.0171 77.5295 46.7994 77.7121 46.5396 77.8315C46.2798 77.9438 46.0059 78 45.718 78C45.3459 78 45.0123 77.9263 44.7174 77.7788C44.4225 77.6313 44.1908 77.4242 44.0222 77.1574C43.8607 76.8905 43.78 76.5886 43.78 76.2516C43.78 75.9496 43.8432 75.6898 43.9696 75.4721C44.103 75.2474 44.2891 75.0754 44.5278 74.956C44.8508 74.7945 45.2792 74.7138 45.8128 74.7138H47.1821V74.5979C47.1821 74.3592 47.0978 74.1696 46.9293 74.0291C46.7678 73.8887 46.5396 73.8185 46.2447 73.8185C45.7602 73.8185 45.3178 74.0432 44.9175 74.4926L43.8853 73.6289C44.1943 73.2778 44.5559 73.0145 44.9702 72.8389C45.3845 72.6634 45.8304 72.5756 46.3079 72.5756ZM45.9497 76.8203C46.2868 76.8203 46.5747 76.7185 46.8134 76.5149C47.0522 76.3112 47.1751 76.062 47.1821 75.767H46.0129C45.718 75.767 45.5109 75.8127 45.3915 75.904C45.2651 75.9882 45.2019 76.1111 45.2019 76.2726C45.2019 76.4341 45.2651 76.5675 45.3915 76.6729C45.5249 76.7712 45.711 76.8203 45.9497 76.8203Z" fill="url(#paint4_linear_10_38)"/>
<path d="M51.8841 78C51.3223 78 50.8483 77.8736 50.4621 77.6208C50.0759 77.368 49.788 77.038 49.5984 76.6307C49.4089 76.2164 49.3141 75.7741 49.3141 75.3036C49.3141 74.8261 49.4089 74.3802 49.5984 73.9659C49.788 73.5516 50.0759 73.2181 50.4621 72.9653C50.8483 72.7055 51.3188 72.5756 51.8735 72.5756C52.4142 72.5756 52.8812 72.7055 53.2744 72.9653C53.6676 73.2251 53.959 73.6148 54.1486 74.1345L52.8004 74.6716C52.7442 74.4118 52.6319 74.2047 52.4634 74.0502C52.3019 73.8957 52.1053 73.8185 51.8735 73.8185C51.4943 73.8185 51.217 73.9624 51.0414 74.2503C50.8659 74.5312 50.7781 74.8823 50.7781 75.3036C50.7781 75.7179 50.8624 76.062 51.0309 76.3358C51.2065 76.6097 51.4838 76.7466 51.863 76.7466C52.0947 76.7466 52.2948 76.6729 52.4634 76.5254C52.6389 76.3779 52.7548 76.1778 52.8109 75.925L54.0959 76.4306C53.9204 76.9221 53.636 77.3083 53.2428 77.5892C52.8566 77.8631 52.4037 78 51.8841 78Z" fill="url(#paint5_linear_10_38)"/>
<path d="M54.9205 70.5428H56.3529V74.5979L58.0487 72.6915H59.9551L58.0382 74.6716L60.1553 77.8841H58.4595L57.027 75.5985L56.3529 76.3674V77.8841H54.9205V70.5428Z" fill="url(#paint6_linear_10_38)"/>
<path d="M62.3443 78C61.8106 78 61.3437 77.856 60.9434 77.5681C60.5432 77.2732 60.2798 76.9221 60.1534 76.5149L61.2805 76.0093C61.3717 76.2551 61.4876 76.4552 61.628 76.6097C61.7755 76.7571 62.0037 76.8309 62.3127 76.8309C62.5514 76.8309 62.727 76.7852 62.8393 76.6939C62.9587 76.5956 63.0184 76.4833 63.0184 76.3569C63.0184 76.2164 62.9481 76.1111 62.8077 76.0409C62.6743 75.9637 62.4496 75.8759 62.1336 75.7776C61.7966 75.6793 61.5122 75.5775 61.2805 75.4721C61.0487 75.3668 60.8486 75.2088 60.6801 74.9982C60.5186 74.7805 60.4378 74.4961 60.4378 74.145C60.4378 73.6324 60.6239 73.2427 60.9961 72.9759C61.3753 72.709 61.8317 72.5756 62.3653 72.5756C62.8147 72.5756 63.2115 72.6774 63.5555 72.8811C63.8996 73.0777 64.1735 73.355 64.3771 73.7132L63.2817 74.3241C63.1693 74.1274 63.0429 73.9695 62.9025 73.8501C62.7621 73.7237 62.5725 73.6605 62.3337 73.6605C62.1652 73.6605 62.0318 73.6956 61.9335 73.7658C61.8352 73.836 61.786 73.9238 61.786 74.0291C61.786 74.1555 61.8527 74.2538 61.9862 74.3241C62.1266 74.3943 62.3478 74.468 62.6497 74.5452C63.0008 74.6365 63.2957 74.7348 63.5345 74.8402C63.7732 74.9455 63.9804 75.1105 64.1559 75.3352C64.3315 75.5529 64.4192 75.8443 64.4192 76.2094C64.4192 76.6026 64.3174 76.9362 64.1138 77.21C63.9172 77.4769 63.6574 77.677 63.3343 77.8104C63.0184 77.9368 62.6883 78 62.3443 78Z" fill="url(#paint7_linear_10_38)"/>
</g>
<defs>
<filter id="filter0_d_10_38" x="0.321764" y="0.345529" width="86.5583" height="94.5182" filterUnits="userSpaceOnUse" color-interpolation-filters="sRGB">
<feFlood flood-opacity="0" result="BackgroundImageFix"/>
<feColorMatrix in="SourceAlpha" type="matrix" values="0 0 0 0 0 0 0 0 0 0 0 0 0 0 0 0 0 0 127 0" result="hardAlpha"/>
<feOffset dy="3.02376"/>
<feGaussianBlur stdDeviation="11.3391"/>
<feComposite in2="hardAlpha" operator="out"/>
<feColorMatrix type="matrix" values="0 0 0 0 0.0156863 0 0 0 0 0.0117647 0 0 0 0 0.109804 0 0 0 0.58 0"/>
<feBlend mode="normal" in2="BackgroundImageFix" result="effect1_dropShadow_10_38"/>
<feBlend mode="normal" in="SourceGraphic" in2="effect1_dropShadow_10_38" result="shape"/>
</filter>
<filter id="filter1_d_10_38" x="0.365923" y="50.8883" width="86.7315" height="52.8137" filterUnits="userSpaceOnUse" color-interpolation-filters="sRGB">
<feFlood flood-opacity="0" result="BackgroundImageFix"/>
<feColorMatrix in="SourceAlpha" type="matrix" values="0 0 0 0 0 0 0 0 0 0 0 0 0 0 0 0 0 0 127 0" result="hardAlpha"/>
<feOffset dy="3.02376"/>
<feGaussianBlur stdDeviation="11.3391"/>
<feComposite in2="hardAlpha" operator="out"/>
<feColorMatrix type="matrix" values="0 0 0 0 0.0156863 0 0 0 0 0.0117647 0 0 0 0 0.109804 0 0 0 0.58 0"/>
<feBlend mode="normal" in2="BackgroundImageFix" result="effect1_dropShadow_10_38"/>
<feBlend mode="normal" in="SourceGraphic" in2="effect1_dropShadow_10_38" result="shape"/>
</filter>
<linearGradient id="paint0_linear_10_38" x1="43.6009" y1="20" x2="43.6009" y2="69.1618" gradientUnits="userSpaceOnUse">
<stop stop-color="#FFD12C"/>
<stop offset="1" stop-color="#FE800B"/>
</linearGradient>
<linearGradient id="paint1_linear_10_38" x1="43.7317" y1="70.5428" x2="43.7317" y2="78" gradientUnits="userSpaceOnUse">
<stop stop-color="#FFD12C"/>
<stop offset="1" stop-color="#FE800B"/>
</linearGradient>
<linearGradient id="paint2_linear_10_38" x1="43.7317" y1="70.5428" x2="43.7317" y2="78" gradientUnits="userSpaceOnUse">
<stop stop-color="#FFD12C"/>
<stop offset="1" stop-color="#FE800B"/>
</linearGradient>
<linearGradient id="paint3_linear_10_38" x1="43.7317" y1="70.5428" x2="43.7317" y2="78" gradientUnits="userSpaceOnUse">
<stop stop-color="#FFD12C"/>
<stop offset="1" stop-color="#FE800B"/>
</linearGradient>
<linearGradient id="paint4_linear_10_38" x1="43.7317" y1="70.5428" x2="43.7317" y2="78" gradientUnits="userSpaceOnUse">
<stop stop-color="#FFD12C"/>
<stop offset="1" stop-color="#FE800B"/>
</linearGradient>
<linearGradient id="paint5_linear_10_38" x1="43.7317" y1="70.5428" x2="43.7317" y2="78" gradientUnits="userSpaceOnUse">
<stop stop-color="#FFD12C"/>
<stop offset="1" stop-color="#FE800B"/>
</linearGradient>
<linearGradient id="paint6_linear_10_38" x1="43.7317" y1="70.5428" x2="43.7317" y2="78" gradientUnits="userSpaceOnUse">
<stop stop-color="#FFD12C"/>
<stop offset="1" stop-color="#FE800B"/>
</linearGradient>
<linearGradient id="paint7_linear_10_38" x1="43.7317" y1="70.5428" x2="43.7317" y2="78" gradientUnits="userSpaceOnUse">
<stop stop-color="#FFD12C"/>
<stop offset="1" stop-color="#FE800B"/>
</linearGradient>
</defs>
</svg>
