<svg width="100" height="140" viewBox="0 0 100 140" fill="none" xmlns="http://www.w3.org/2000/svg">
<path fill-rule="evenodd" clip-rule="evenodd" d="M82.0593 16.4046L99.1727 0V118.204L99.1727 118.204V118.204L17.0868 39.393V78.9657L29.9219 67.3164L41.88 78.8103L0.0517763 118.154L0 118.204V22.9879V0.000193418L17.0868 16.4048V16.4053L82.0593 78.7855V16.4046Z" fill="url(#paint0_linear_1409_10624)"/>
<path d="M7.29552 126.333C8.71233 126.333 9.8171 126.744 10.6098 127.566C11.4026 128.388 11.7989 129.526 11.7989 130.982V139.278H8.38342V132.086C8.38342 131.316 8.25692 130.674 8.00392 130.16C7.75092 129.629 7.16059 129.364 6.23292 129.364C5.44018 129.364 4.84985 129.586 4.46191 130.031C4.09085 130.477 3.86315 130.999 3.77881 131.598C3.69448 132.18 3.65231 132.908 3.65231 133.781V139.278H0.211502V126.615H3.65231V127.925C4.47878 126.864 5.69318 126.333 7.29552 126.333Z" fill="url(#paint1_linear_1409_10624)"/>
<path d="M12.9453 126.615H16.5886L18.562 133.936L20.6366 126.615H23.5461L25.6207 133.884L27.5941 126.615H31.2626L27.3411 139.278H24.3051L22.104 131.547L19.9282 139.278H16.8416L12.9453 126.615Z" fill="url(#paint2_linear_1409_10624)"/>
<path d="M33.1809 121.375H36.7482V128.388H44.0346V121.375H47.6019V139.278H44.0346V131.701H36.7482V139.278H33.1809V121.375Z" fill="url(#paint3_linear_1409_10624)"/>
<path d="M56.0916 126.333C57.7952 126.333 59.1361 126.778 60.1144 127.668C61.1095 128.542 61.6071 129.74 61.6071 131.264V139.278H58.4699L58.2169 137.814C57.7952 138.413 57.2723 138.859 56.6483 139.15C56.0242 139.424 55.3664 139.561 54.6748 139.561C53.7809 139.561 52.9797 139.381 52.2713 139.021C51.5629 138.662 51.0063 138.157 50.6015 137.506C50.2136 136.855 50.0196 136.119 50.0196 135.297C50.0196 134.561 50.1714 133.927 50.475 133.396C50.7955 132.848 51.2425 132.429 51.8159 132.138C52.5918 131.744 53.6207 131.547 54.9025 131.547H58.1916V131.264C58.1916 130.682 57.9892 130.22 57.5844 129.877C57.1964 129.535 56.6482 129.364 55.9398 129.364C54.776 129.364 53.7134 129.912 52.752 131.007L50.2726 128.901C51.0148 128.045 51.8834 127.403 52.8785 126.975C53.8737 126.547 54.9447 126.333 56.0916 126.333ZM55.2314 136.684C56.041 136.684 56.7326 136.436 57.306 135.939C57.8795 135.442 58.1747 134.835 58.1916 134.115H55.3832C54.6748 134.115 54.1773 134.227 53.8905 134.449C53.5869 134.655 53.4351 134.954 53.4351 135.348C53.4351 135.742 53.5869 136.067 53.8905 136.324C54.211 136.564 54.658 136.684 55.2314 136.684Z" fill="url(#paint4_linear_1409_10624)"/>
<path d="M69.4859 139.561C68.1365 139.561 66.998 139.252 66.0704 138.636C65.1427 138.02 64.4511 137.215 63.9957 136.222C63.5403 135.211 63.3126 134.133 63.3126 132.985C63.3126 131.821 63.5403 130.734 63.9957 129.723C64.4511 128.713 65.1427 127.9 66.0704 127.283C66.998 126.65 68.1281 126.333 69.4606 126.333C70.7593 126.333 71.8809 126.65 72.8255 127.283C73.77 127.917 74.47 128.867 74.9254 130.134L71.687 131.444C71.552 130.811 71.2822 130.305 70.8774 129.929C70.4894 129.552 70.0172 129.364 69.4606 129.364C68.5498 129.364 67.8835 129.715 67.4619 130.417C67.0402 131.102 66.8293 131.958 66.8293 132.985C66.8293 133.996 67.0318 134.835 67.4366 135.502C67.8582 136.17 68.5245 136.504 69.4353 136.504C69.9919 136.504 70.4726 136.324 70.8774 135.965C71.299 135.605 71.5773 135.117 71.7123 134.501L74.7989 135.734C74.3772 136.932 73.6941 137.874 72.7496 138.559C71.8219 139.227 70.734 139.561 69.4859 139.561Z" fill="url(#paint5_linear_1409_10624)"/>
<path d="M76.7794 121.375H80.2202V131.264L84.2935 126.615H88.8728L84.2682 131.444L89.3535 139.278H85.2802L81.8394 133.704L80.2202 135.579V139.278H76.7794V121.375Z" fill="url(#paint6_linear_1409_10624)"/>
<path d="M94.6116 139.561C93.3297 139.561 92.2081 139.21 91.2467 138.508C90.2853 137.788 89.6528 136.932 89.3492 135.939L92.0563 134.706C92.2756 135.305 92.5539 135.794 92.8912 136.17C93.2454 136.53 93.7936 136.71 94.5357 136.71C95.1092 136.71 95.5308 136.598 95.8007 136.376C96.0874 136.136 96.2308 135.862 96.2308 135.554C96.2308 135.211 96.0621 134.954 95.7248 134.783C95.4043 134.595 94.8646 134.381 94.1056 134.141C93.296 133.901 92.6129 133.653 92.0563 133.396C91.4997 133.139 91.019 132.754 90.6142 132.24C90.2262 131.71 90.0323 131.016 90.0323 130.16C90.0323 128.91 90.4793 127.959 91.3732 127.309C92.284 126.658 93.3803 126.333 94.6622 126.333C95.7417 126.333 96.6946 126.581 97.5211 127.078C98.3476 127.557 99.0054 128.233 99.4945 129.107L96.8633 130.597C96.5934 130.117 96.2898 129.732 95.9525 129.441C95.6152 129.132 95.1598 128.978 94.5863 128.978C94.1815 128.978 93.861 129.064 93.6249 129.235C93.3888 129.406 93.2707 129.62 93.2707 129.877C93.2707 130.186 93.4309 130.425 93.7514 130.597C94.0887 130.768 94.62 130.948 95.3453 131.136C96.1886 131.359 96.897 131.598 97.4705 131.855C98.044 132.112 98.5415 132.514 98.9632 133.062C99.3849 133.593 99.5957 134.304 99.5957 135.194C99.5957 136.153 99.3511 136.966 98.862 137.634C98.3897 138.285 97.7657 138.773 96.9898 139.098C96.2308 139.407 95.4381 139.561 94.6116 139.561Z" fill="url(#paint7_linear_1409_10624)"/>
<defs>
<linearGradient id="paint0_linear_1409_10624" x1="49.5864" y1="0" x2="49.5864" y2="118.204" gradientUnits="userSpaceOnUse">
<stop stop-color="#C6C3EC"/>
<stop offset="1" stop-color="#989CEE"/>
</linearGradient>
<linearGradient id="paint1_linear_1409_10624" x1="49.9036" y1="121.375" x2="49.9036" y2="139.561" gradientUnits="userSpaceOnUse">
<stop stop-color="#C6C3EC"/>
<stop offset="1" stop-color="#989CEE"/>
</linearGradient>
<linearGradient id="paint2_linear_1409_10624" x1="49.9036" y1="121.375" x2="49.9036" y2="139.561" gradientUnits="userSpaceOnUse">
<stop stop-color="#C6C3EC"/>
<stop offset="1" stop-color="#989CEE"/>
</linearGradient>
<linearGradient id="paint3_linear_1409_10624" x1="49.9036" y1="121.375" x2="49.9036" y2="139.561" gradientUnits="userSpaceOnUse">
<stop stop-color="#C6C3EC"/>
<stop offset="1" stop-color="#989CEE"/>
</linearGradient>
<linearGradient id="paint4_linear_1409_10624" x1="49.9036" y1="121.375" x2="49.9036" y2="139.561" gradientUnits="userSpaceOnUse">
<stop stop-color="#C6C3EC"/>
<stop offset="1" stop-color="#989CEE"/>
</linearGradient>
<linearGradient id="paint5_linear_1409_10624" x1="49.9036" y1="121.375" x2="49.9036" y2="139.561" gradientUnits="userSpaceOnUse">
<stop stop-color="#C6C3EC"/>
<stop offset="1" stop-color="#989CEE"/>
</linearGradient>
<linearGradient id="paint6_linear_1409_10624" x1="49.9036" y1="121.375" x2="49.9036" y2="139.561" gradientUnits="userSpaceOnUse">
<stop stop-color="#C6C3EC"/>
<stop offset="1" stop-color="#989CEE"/>
</linearGradient>
<linearGradient id="paint7_linear_1409_10624" x1="49.9036" y1="121.375" x2="49.9036" y2="139.561" gradientUnits="userSpaceOnUse">
<stop stop-color="#C6C3EC"/>
<stop offset="1" stop-color="#989CEE"/>
</linearGradient>
</defs>
</svg>
