<svg width="55" height="76" viewBox="0 0 55 76" fill="none" xmlns="http://www.w3.org/2000/svg">
<g filter="url(#filter0_d_1432_26677)">
<path fill-rule="evenodd" clip-rule="evenodd" d="M0.76709 1L9.55674 9.4479V9.44814L42.9792 41.5721V9.448L51.7826 1.00009V50.0334L51.7826 50.0334V61.8714L51.7826 61.8714V61.8715L48.3295 58.5524L9.55674 21.2861V41.6653L16.1593 35.6662L22.3107 41.5852L0.778153 61.8607L0.76709 61.8714V12.838V1Z" fill="white"/>
<path d="M4.35588 66.1512C3.52122 66.1512 2.79089 66.4512 2.34748 67.0641V66.2686H1.0042V72.6981H2.34748V70.0245C2.34748 68.6552 2.58223 67.3249 3.96463 67.3249C5.07317 67.3249 5.21662 68.1987 5.21662 68.9551V72.6981H6.5599V68.6161C6.5599 67.038 5.77741 66.1512 4.35588 66.1512ZM9.51229 72.6981H10.7252L12.1467 68.1596L13.5552 72.6981H14.7811L16.7243 66.2686H15.3027L14.0899 70.6375L12.7205 66.2686H11.5598L10.1774 70.6505L8.99063 66.2686H7.55605L9.51229 72.6981ZM18.1528 72.6981H19.5483V68.6813H23.7737V72.6981H25.1692V63.6081H23.7737V67.3901H19.5483V63.6081H18.1528V72.6981ZM29.8054 66.1512C28.6577 66.1512 27.7448 66.5946 27.0014 67.5075L27.9795 68.3291C28.4621 67.664 29.0881 67.3249 29.7923 67.3249C30.64 67.3249 31.1486 67.8205 31.1486 68.6552V68.8769H29.6489C28.736 68.8769 28.136 68.9812 27.6926 69.2029C27.1188 69.4898 26.8058 70.0376 26.8058 70.7679C26.8058 71.9938 27.7187 72.8154 29.0881 72.8154C30.001 72.8154 30.7444 72.4372 31.1617 71.7852L31.266 72.6981H32.4919V68.6552C32.4919 67.0902 31.4747 66.1512 29.8054 66.1512ZM29.3359 71.6808C28.6055 71.6808 28.1491 71.3417 28.1491 70.794C28.1491 70.5201 28.2404 70.2984 28.436 70.168C28.6838 69.9724 29.062 69.9072 29.8054 69.9072H31.1486V69.9332C31.1486 70.9505 30.3792 71.6808 29.3359 71.6808ZM36.7995 72.8154C38.0385 72.8154 39.0166 72.1503 39.4469 70.9505L38.221 70.481C38.0254 71.1983 37.4777 71.6417 36.7995 71.6417C35.5997 71.6417 35.1302 70.6245 35.1302 69.5029C35.1302 68.3813 35.6127 67.3249 36.7865 67.3249C37.4907 67.3249 38.0254 67.7814 38.2341 68.4987L39.5121 68.0031C39.0166 66.7511 38.0254 66.1512 36.7865 66.1512C34.7389 66.1512 33.7608 67.8075 33.7608 69.5029C33.7608 71.2244 34.7781 72.8154 36.7995 72.8154ZM40.8296 72.6981H42.1729V70.8201L43.3206 69.5681L45.3159 72.6981H46.9201L44.2335 68.7334L46.6201 66.2686H44.8073L42.1729 69.1377V63.6081H40.8296V72.6981ZM49.9441 72.8154C51.17 72.8154 52.3828 72.1634 52.3828 70.7288C52.3828 68.3552 48.9007 69.0595 48.9007 67.8988C48.9007 67.5075 49.279 67.2336 49.8789 67.2336C50.6222 67.2336 51.0265 67.6379 51.2743 68.0944L52.3176 67.5206C51.8481 66.6337 51.0135 66.1512 49.931 66.1512C48.666 66.1512 47.6227 66.8033 47.6227 68.0031C47.6227 70.3506 51.0656 69.5159 51.0656 70.807C51.0656 71.2635 50.6614 71.6808 49.8919 71.6808C48.979 71.6808 48.5486 71.107 48.353 70.5723L47.2706 71.0548C47.5835 72.059 48.6138 72.8154 49.9441 72.8154Z" fill="white"/>
</g>
<defs>
<filter id="filter0_d_1432_26677" x="-0.575363" y="0.424637" width="54.8513" height="77.3015" filterUnits="userSpaceOnUse" color-interpolation-filters="sRGB">
<feFlood flood-opacity="0" result="BackgroundImageFix"/>
<feColorMatrix in="SourceAlpha" type="matrix" values="0 0 0 0 0 0 0 0 0 0 0 0 0 0 0 0 0 0 127 0" result="hardAlpha"/>
<feOffset dx="0.575363" dy="0.575363"/>
<feGaussianBlur stdDeviation="0.575363"/>
<feComposite in2="hardAlpha" operator="out"/>
<feColorMatrix type="matrix" values="0 0 0 0 0.160792 0 0 0 0 0.147865 0 0 0 0 0.2125 0 0 0 0.25 0"/>
<feBlend mode="normal" in2="BackgroundImageFix" result="effect1_dropShadow_1432_26677"/>
<feBlend mode="normal" in="SourceGraphic" in2="effect1_dropShadow_1432_26677" result="shape"/>
</filter>
</defs>
</svg>
