<svg width="69" height="100" viewBox="0 0 69 100" fill="none" xmlns="http://www.w3.org/2000/svg">
<path d="M5.50124 91.2826V97.43L2.00421 91.2826H0.566406V99.8207H1.90673V93.6977L5.40376 99.8207H6.84156V91.2826H5.50124Z" fill="#F1F6F9"/>
<path d="M19.4381 91.2826L17.8784 97.9179L16.1847 92.1852H14.9663L13.2726 97.9179L11.7129 91.2826H10.2995L12.5537 99.8207H13.9184L15.5755 94.4051L17.2326 99.8207H18.5973L20.8515 91.2826H19.4381Z" fill="#F1F6F9"/>
<path d="M24.0713 99.8207H25.4116V95.8932H28.8721V99.8207H30.2124V91.2826H28.8721V94.6247H25.4116V91.2826H24.0713V99.8207Z" fill="#F1F6F9"/>
<path d="M36.3091 91.2826L33.3482 99.8207H34.7129L35.4196 97.6984H38.4658L39.1725 99.8207H40.5372L37.5763 91.2826H36.3091ZM36.9427 92.978L38.0637 96.4298H35.8217L36.9427 92.978Z" fill="#F1F6F9"/>
<path d="M50.5573 93.7709C50.1187 92.1608 48.9245 91.1851 47.109 91.1851C45.0498 91.1851 43.1612 92.6609 43.1612 95.5516C43.1612 98.4424 45.0498 99.9182 47.109 99.9182C48.9245 99.9182 50.1187 98.9425 50.5573 97.3324L49.2901 97.0153C48.8636 98.1009 48.2666 98.6497 47.109 98.6497C45.6712 98.6497 44.5258 97.6374 44.5258 95.5516C44.5258 93.4659 45.6712 92.4536 47.109 92.4536C48.2666 92.4536 48.8636 93.0024 49.2901 94.088L50.5573 93.7709Z" fill="#F1F6F9"/>
<path d="M54.0453 91.2826V99.8207H55.3856V95.637L58.6268 99.8207H60.3449L56.6285 95.1004L60.0646 91.2826H58.4318L55.3856 94.5637V91.2826H54.0453Z" fill="#F1F6F9"/>
<path d="M68.0305 92.6243C67.5797 91.8193 66.8486 91.1851 65.6789 91.1851C64.436 91.1851 63.449 92.1364 63.449 93.4293C63.449 96.0639 67.0801 95.698 67.0801 97.369C67.0801 98.1253 66.544 98.6497 65.7763 98.6497C64.8016 98.6497 64.302 97.7959 64.0583 96.8445L62.9617 97.5398C63.2663 98.9059 64.2776 99.9182 65.7763 99.9182C67.3116 99.9182 68.4448 98.8815 68.4448 97.3202C68.4448 94.6856 64.7894 95.015 64.7894 93.3318C64.7894 92.8317 65.1305 92.4048 65.6789 92.4048C66.1784 92.4048 66.6049 92.6975 66.9461 93.344L68.0305 92.6243Z" fill="#F1F6F9"/>
<path fill-rule="evenodd" clip-rule="evenodd" d="M56.4512 12.1161L68.0557 0.499756L68.0557 84.1376L56.4512 72.5212L56.4512 12.1161Z" fill="url(#paint0_linear_5454_322)"/>
<path fill-rule="evenodd" clip-rule="evenodd" d="M0.74707 1.08057L12.3516 12.1161L12.3516 72.5212L0.74707 84.1376L0.74707 1.08057Z" fill="url(#paint1_linear_5454_322)"/>
<path fill-rule="evenodd" clip-rule="evenodd" d="M0.747626 84.1375L29.1787 56.2582L21.0556 48.1268L0.748122 67.2938L0.747626 84.1375Z" fill="url(#paint2_linear_5454_322)"/>
<path fill-rule="evenodd" clip-rule="evenodd" d="M0.74707 16.7627V0.499756L68.0534 67.8747V84.1376L0.74707 16.7627Z" fill="url(#paint3_linear_5454_322)"/>
<defs>
<linearGradient id="paint0_linear_5454_322" x1="53.5592" y1="-4.11826" x2="54.9916" y2="80.659" gradientUnits="userSpaceOnUse">
<stop stop-color="#F1F6F9" stop-opacity="0.86"/>
<stop offset="0.567704" stop-color="#F1F6F9"/>
</linearGradient>
<linearGradient id="paint1_linear_5454_322" x1="2.28951" y1="5.84007" x2="2.28951" y2="84.4551" gradientUnits="userSpaceOnUse">
<stop stop-color="#F1F6F9"/>
<stop offset="1" stop-color="#F1F6F9" stop-opacity="0.8"/>
</linearGradient>
<linearGradient id="paint2_linear_5454_322" x1="6.08795" y1="70.5988" x2="27.5814" y2="49.0309" gradientUnits="userSpaceOnUse">
<stop stop-color="#F1F6F9"/>
<stop offset="1" stop-color="#F1F6F9" stop-opacity="0.8"/>
</linearGradient>
<linearGradient id="paint3_linear_5454_322" x1="3.07421" y1="26.7789" x2="3.07421" y2="84.324" gradientUnits="userSpaceOnUse">
<stop stop-color="#F1F6F9"/>
<stop offset="1" stop-color="#F1F6F9" stop-opacity="0.8"/>
</linearGradient>
</defs>
</svg>