<svg width="30" height="43" viewBox="0 0 30 43" fill="none" xmlns="http://www.w3.org/2000/svg">
<path fill-rule="evenodd" clip-rule="evenodd" d="M24.7422 5.0243L29.8286 0L29.8288 36.1756L24.8713 31.2382L24.7422 5.0243Z" fill="url(#paint0_linear)"/>
<path fill-rule="evenodd" clip-rule="evenodd" d="M0.327637 7.03402V0L29.8286 29.1409V36.175L0.327637 7.03402Z" fill="url(#paint1_linear)"/>
<path fill-rule="evenodd" clip-rule="evenodd" d="M0.327637 0.250977L5.41401 5.02406L5.41401 31.1504L0.327637 36.1747L0.327637 0.250977Z" fill="url(#paint2_linear)"/>
<path fill-rule="evenodd" clip-rule="evenodd" d="M0.327768 36.1748L12.7894 24.1165L9.22893 20.5995L0.327986 28.8896L0.327768 36.1748Z" fill="url(#paint3_linear)"/>
<path d="M2.41103 39.2649V41.9237L0.878249 39.2649H0.248047V42.9577H0.835523V40.3094L2.3683 42.9577H2.99851V39.2649H2.41103Z" fill="#06C1C0"/>
<path d="M8.51967 39.2649L7.83606 42.1347L7.09371 39.6552H6.55964L5.81728 42.1347L5.13367 39.2649H4.51415L5.50218 42.9577H6.10034L6.82667 40.6154L7.55301 42.9577H8.15117L9.13919 39.2649H8.51967Z" fill="#06C1C0"/>
<path d="M10.5504 42.9577H11.1379V41.259H12.6547V42.9577H13.2422V39.2649H12.6547V40.7104H11.1379V39.2649H10.5504V42.9577Z" fill="#06C1C0"/>
<path d="M15.9144 39.2649L14.6166 42.9577H15.2148L15.5245 42.0398H16.8597L17.1695 42.9577H17.7676L16.4698 39.2649H15.9144ZM16.1921 39.9982L16.6835 41.4911H15.7008L16.1921 39.9982Z" fill="#06C1C0"/>
<path d="M22.1595 40.3411C21.9673 39.6447 21.4439 39.2227 20.6481 39.2227C19.7455 39.2227 18.9177 39.861 18.9177 41.1113C18.9177 42.3616 19.7455 42.9999 20.6481 42.9999C21.4439 42.9999 21.9673 42.5779 22.1595 41.8815L21.6041 41.7444C21.4172 42.2139 21.1555 42.4513 20.6481 42.4513C20.0179 42.4513 19.5159 42.0134 19.5159 41.1113C19.5159 40.2092 20.0179 39.7713 20.6481 39.7713C21.1555 39.7713 21.4172 40.0087 21.6041 40.4782L22.1595 40.3411Z" fill="#06C1C0"/>
<path d="M23.6883 39.2649V42.9577H24.2758V41.1482L25.6965 42.9577H26.4495L24.8206 40.9161L26.3267 39.2649H25.611L24.2758 40.684V39.2649H23.6883Z" fill="#06C1C0"/>
<path d="M29.8182 39.8452C29.6206 39.497 29.3001 39.2227 28.7874 39.2227C28.2427 39.2227 27.8101 39.6341 27.8101 40.1934C27.8101 41.3329 29.4016 41.1746 29.4016 41.8973C29.4016 42.2244 29.1666 42.4513 28.8302 42.4513C28.4029 42.4513 28.1839 42.082 28.0771 41.6705L27.5965 41.9712C27.73 42.5621 28.1733 42.9999 28.8302 42.9999C29.5031 42.9999 29.9998 42.5515 29.9998 41.8762C29.9998 40.7367 28.3976 40.8792 28.3976 40.1511C28.3976 39.9349 28.5471 39.7502 28.7874 39.7502C29.0064 39.7502 29.1933 39.8768 29.3429 40.1564L29.8182 39.8452Z" fill="#06C1C0"/>
<defs>
<linearGradient id="paint0_linear" x1="25.4183" y1="1.83453" x2="25.4183" y2="36.3149" gradientUnits="userSpaceOnUse">
<stop stop-color="#91E9EE"/>
<stop offset="1" stop-color="#06C1C0"/>
</linearGradient>
<linearGradient id="paint1_linear" x1="4.24881" y1="1.8345" x2="4.24881" y2="36.3142" gradientUnits="userSpaceOnUse">
<stop stop-color="#91E9EE"/>
<stop offset="1" stop-color="#06C1C0"/>
</linearGradient>
<linearGradient id="paint2_linear" x1="1.0037" y1="2.07273" x2="1.0037" y2="36.313" gradientUnits="userSpaceOnUse">
<stop stop-color="#91E9EE"/>
<stop offset="1" stop-color="#06C1C0"/>
</linearGradient>
<linearGradient id="paint3_linear" x1="2.30678" y1="21.1017" x2="1.6315" y2="36.2942" gradientUnits="userSpaceOnUse">
<stop stop-color="#91E9EE"/>
<stop offset="1" stop-color="#06C1C0"/>
</linearGradient>
</defs>
</svg>
