<svg width="136" height="171" viewBox="0 0 136 171" fill="none" xmlns="http://www.w3.org/2000/svg">
<g filter="url(#filter0_d_2425_1201)">
<path fill-rule="evenodd" clip-rule="evenodd" d="M96.8319 34.7052L112.156 20V125.958L112.156 125.958V125.958L38.6536 55.312V90.7852L50.1465 80.3427L60.8541 90.6459L23.3999 125.914L23.3535 125.958V40.6065V20.0002L38.6536 34.7053V34.7058L96.8319 90.6236V34.7052Z" fill="url(#paint0_linear_2425_1201)"/>
</g>
<g filter="url(#filter1_d_2425_1201)">
<path d="M29.8046 133.316C31.0759 133.316 32.0672 133.679 32.7785 134.406C33.4898 135.132 33.8454 136.138 33.8454 137.425V144.757H30.7808V138.401C30.7808 137.72 30.6673 137.152 30.4402 136.698C30.2132 136.229 29.6835 135.995 28.8512 135.995C28.1398 135.995 27.6101 136.191 27.2621 136.585C26.9291 136.978 26.7248 137.44 26.6491 137.97C26.5735 138.484 26.5356 139.127 26.5356 139.899V144.757H23.4482V133.566H26.5356V134.723C27.2772 133.785 28.3669 133.316 29.8046 133.316Z" fill="url(#paint1_linear_2425_1201)"/>
<path d="M34.8741 133.566H38.1431L39.9138 140.036L41.7753 133.566H44.3859L46.2474 139.99L48.0181 133.566H51.3098L47.7911 144.757H45.067L43.092 137.924L41.1397 144.757H38.3701L34.8741 133.566Z" fill="url(#paint2_linear_2425_1201)"/>
<path d="M53.0311 128.935H56.2319V135.132H62.7699V128.935H65.9708V144.757H62.7699V138.06H56.2319V144.757H53.0311V128.935Z" fill="url(#paint3_linear_2425_1201)"/>
<path d="M73.5885 133.316C75.1171 133.316 76.3202 133.709 77.198 134.496C78.0909 135.268 78.5374 136.328 78.5374 137.675V144.757H75.7224L75.4954 143.463C75.1171 143.993 74.6479 144.387 74.0879 144.644C73.528 144.886 72.9377 145.007 72.3172 145.007C71.5151 145.007 70.7962 144.848 70.1606 144.53C69.525 144.213 69.0255 143.766 68.6623 143.191C68.3142 142.616 68.1402 141.965 68.1402 141.239C68.1402 140.588 68.2764 140.028 68.5488 139.559C68.8364 139.074 69.2374 138.704 69.752 138.446C70.4482 138.098 71.3713 137.924 72.5215 137.924H75.4727V137.675C75.4727 137.16 75.2911 136.751 74.9279 136.449C74.5798 136.146 74.0879 135.995 73.4523 135.995C72.408 135.995 71.4546 136.479 70.5919 137.448L68.3672 135.586C69.0331 134.829 69.8125 134.262 70.7054 133.883C71.5984 133.505 72.5594 133.316 73.5885 133.316ZM72.8167 142.465C73.5431 142.465 74.1636 142.245 74.6782 141.806C75.1927 141.367 75.4576 140.83 75.4727 140.194H72.9529C72.3172 140.194 71.8708 140.293 71.6135 140.49C71.3411 140.671 71.2049 140.936 71.2049 141.284C71.2049 141.632 71.3411 141.92 71.6135 142.147C71.901 142.359 72.3021 142.465 72.8167 142.465Z" fill="url(#paint4_linear_2425_1201)"/>
<path d="M85.6069 145.007C84.3962 145.007 83.3746 144.735 82.5422 144.19C81.7098 143.645 81.0893 142.934 80.6807 142.056C80.2721 141.163 80.0678 140.21 80.0678 139.196C80.0678 138.166 80.2721 137.205 80.6807 136.312C81.0893 135.42 81.7098 134.701 82.5422 134.156C83.3746 133.596 84.3886 133.316 85.5842 133.316C86.7495 133.316 87.7559 133.596 88.6035 134.156C89.451 134.716 90.079 135.556 90.4877 136.676L87.5819 137.833C87.4608 137.274 87.2187 136.827 86.8555 136.494C86.5074 136.161 86.0836 135.995 85.5842 135.995C84.7669 135.995 84.1691 136.305 83.7908 136.925C83.4124 137.531 83.2233 138.288 83.2233 139.196C83.2233 140.088 83.4049 140.83 83.7681 141.42C84.1464 142.011 84.7442 142.306 85.5615 142.306C86.0609 142.306 86.4922 142.147 86.8555 141.829C87.2338 141.511 87.4835 141.08 87.6046 140.535L90.3742 141.625C89.9958 142.684 89.3829 143.516 88.5354 144.122C87.703 144.712 86.7268 145.007 85.6069 145.007Z" fill="url(#paint5_linear_2425_1201)"/>
<path d="M92.1512 128.935H95.2386V137.675L98.8935 133.566H103.002L98.8708 137.833L103.434 144.757H99.7789L96.6915 139.831L95.2386 141.488V144.757H92.1512V128.935Z" fill="url(#paint6_linear_2425_1201)"/>
<path d="M108.152 145.007C107.002 145.007 105.995 144.697 105.132 144.076C104.27 143.441 103.702 142.684 103.43 141.806L105.859 140.717C106.056 141.246 106.305 141.678 106.608 142.011C106.926 142.328 107.418 142.487 108.084 142.487C108.598 142.487 108.977 142.389 109.219 142.192C109.476 141.98 109.605 141.738 109.605 141.466C109.605 141.163 109.453 140.936 109.151 140.785C108.863 140.618 108.379 140.429 107.698 140.217C106.971 140.005 106.358 139.786 105.859 139.559C105.36 139.332 104.928 138.991 104.565 138.537C104.217 138.068 104.043 137.455 104.043 136.698C104.043 135.594 104.444 134.754 105.246 134.179C106.063 133.603 107.047 133.316 108.197 133.316C109.166 133.316 110.021 133.535 110.762 133.974C111.504 134.398 112.094 134.996 112.533 135.768L110.172 137.084C109.93 136.661 109.658 136.32 109.355 136.063C109.052 135.79 108.644 135.654 108.129 135.654C107.766 135.654 107.478 135.73 107.266 135.881C107.055 136.033 106.949 136.222 106.949 136.449C106.949 136.721 107.092 136.933 107.38 137.084C107.683 137.236 108.159 137.395 108.81 137.561C109.567 137.758 110.202 137.97 110.717 138.197C111.232 138.424 111.678 138.779 112.056 139.264C112.435 139.733 112.624 140.361 112.624 141.148C112.624 141.995 112.404 142.714 111.966 143.304C111.542 143.88 110.982 144.311 110.286 144.598C109.605 144.871 108.893 145.007 108.152 145.007Z" fill="url(#paint7_linear_2425_1201)"/>
</g>
<defs>
<filter id="filter0_d_2425_1201" x="0.67528" y="0.345529" width="134.158" height="151.314" filterUnits="userSpaceOnUse" color-interpolation-filters="sRGB">
<feFlood flood-opacity="0" result="BackgroundImageFix"/>
<feColorMatrix in="SourceAlpha" type="matrix" values="0 0 0 0 0 0 0 0 0 0 0 0 0 0 0 0 0 0 127 0" result="hardAlpha"/>
<feOffset dy="3.02376"/>
<feGaussianBlur stdDeviation="11.3391"/>
<feComposite in2="hardAlpha" operator="out"/>
<feColorMatrix type="matrix" values="0 0 0 0 0.0156863 0 0 0 0 0.0117647 0 0 0 0 0.109804 0 0 0 0.58 0"/>
<feBlend mode="normal" in2="BackgroundImageFix" result="effect1_dropShadow_2425_1201"/>
<feBlend mode="normal" in="SourceGraphic" in2="effect1_dropShadow_2425_1201" result="shape"/>
</filter>
<filter id="filter1_d_2425_1201" x="0.770006" y="109.28" width="134.532" height="61.4287" filterUnits="userSpaceOnUse" color-interpolation-filters="sRGB">
<feFlood flood-opacity="0" result="BackgroundImageFix"/>
<feColorMatrix in="SourceAlpha" type="matrix" values="0 0 0 0 0 0 0 0 0 0 0 0 0 0 0 0 0 0 127 0" result="hardAlpha"/>
<feOffset dy="3.02376"/>
<feGaussianBlur stdDeviation="11.3391"/>
<feComposite in2="hardAlpha" operator="out"/>
<feColorMatrix type="matrix" values="0 0 0 0 0.0156863 0 0 0 0 0.0117647 0 0 0 0 0.109804 0 0 0 0.58 0"/>
<feBlend mode="normal" in2="BackgroundImageFix" result="effect1_dropShadow_2425_1201"/>
<feBlend mode="normal" in="SourceGraphic" in2="effect1_dropShadow_2425_1201" result="shape"/>
</filter>
<linearGradient id="paint0_linear_2425_1201" x1="67.7546" y1="20" x2="67.7546" y2="125.958" gradientUnits="userSpaceOnUse">
<stop stop-color="#FFD12C"/>
<stop offset="1" stop-color="#FE800B"/>
</linearGradient>
<linearGradient id="paint1_linear_2425_1201" x1="68.0361" y1="128.935" x2="68.0361" y2="145.007" gradientUnits="userSpaceOnUse">
<stop stop-color="#FFD12C"/>
<stop offset="1" stop-color="#FE800B"/>
</linearGradient>
<linearGradient id="paint2_linear_2425_1201" x1="68.0361" y1="128.935" x2="68.0361" y2="145.007" gradientUnits="userSpaceOnUse">
<stop stop-color="#FFD12C"/>
<stop offset="1" stop-color="#FE800B"/>
</linearGradient>
<linearGradient id="paint3_linear_2425_1201" x1="68.0361" y1="128.935" x2="68.0361" y2="145.007" gradientUnits="userSpaceOnUse">
<stop stop-color="#FFD12C"/>
<stop offset="1" stop-color="#FE800B"/>
</linearGradient>
<linearGradient id="paint4_linear_2425_1201" x1="68.0361" y1="128.935" x2="68.0361" y2="145.007" gradientUnits="userSpaceOnUse">
<stop stop-color="#FFD12C"/>
<stop offset="1" stop-color="#FE800B"/>
</linearGradient>
<linearGradient id="paint5_linear_2425_1201" x1="68.0361" y1="128.935" x2="68.0361" y2="145.007" gradientUnits="userSpaceOnUse">
<stop stop-color="#FFD12C"/>
<stop offset="1" stop-color="#FE800B"/>
</linearGradient>
<linearGradient id="paint6_linear_2425_1201" x1="68.0361" y1="128.935" x2="68.0361" y2="145.007" gradientUnits="userSpaceOnUse">
<stop stop-color="#FFD12C"/>
<stop offset="1" stop-color="#FE800B"/>
</linearGradient>
<linearGradient id="paint7_linear_2425_1201" x1="68.0361" y1="128.935" x2="68.0361" y2="145.007" gradientUnits="userSpaceOnUse">
<stop stop-color="#FFD12C"/>
<stop offset="1" stop-color="#FE800B"/>
</linearGradient>
</defs>
</svg>
