<svg width="414" height="896" viewBox="0 0 414 896" fill="none" xmlns="http://www.w3.org/2000/svg">
<g clip-path="url(#clip0_3339_1733)">
<rect width="414" height="896" fill="url(#paint0_linear_3339_1733)"/>
<g filter="url(#filter0_i_3339_1733)">
<path d="M61.9297 728.061C60.1431 727.489 44.8332 725.316 37.4102 724.274C39.4862 726.919 44.0763 732.503 45.8283 733.684C47.5802 734.865 50.3554 735.388 51.524 735.502C52.5172 738.724 55.1175 744.637 57.5737 742.52C60.6439 739.873 66.7178 742.13 66.5575 743.186C66.3972 744.241 77.1655 754.072 77.2442 755.228C77.3228 756.383 74.8484 760.963 72.8731 764.348C70.8979 767.732 79.3614 770.987 80.7347 772.403C82.1079 773.818 88.1244 773.525 92.3471 774.166C96.5698 774.808 99.5221 770.428 99.4858 766.483C99.4496 762.539 95.8833 763.014 94.8488 761.459C94.0212 760.215 92.2898 756.835 91.5276 755.3C90.9367 755.147 89.2667 754.049 86.6304 751.571C76.957 742.478 70.5928 730.838 61.9297 728.061Z" fill="url(#paint1_linear_3339_1733)"/>
<path d="M73.5209 847.7C73.5209 845.835 70.2406 844.506 68.6004 844.074C67.0466 844.592 65.7517 848.736 65.7517 850.29C65.7517 851.843 68.0825 853.138 67.8235 853.656C67.5646 854.174 68.6004 855.21 70.1543 858.059C71.7081 860.908 78.9594 865.828 77.1466 864.274C75.3338 862.72 71.7081 855.728 72.2261 855.21C72.744 854.692 71.4491 851.843 72.2261 851.325C73.003 850.808 73.5209 850.031 73.5209 847.7Z" fill="url(#paint2_linear_3339_1733)"/>
<path d="M72.2262 856.505C70.3271 856.073 66.477 855.469 66.2698 856.505C66.0626 857.54 80.3408 880.934 87.5057 892.502C88.2826 893.106 90.1473 894.263 91.3903 894.056C92.9442 893.797 90.8724 897.164 96.5698 898.458C102.267 899.753 99.6775 898.717 101.749 900.789C103.407 902.447 103.821 900.962 103.821 900.012C104.512 900.358 105.893 901.307 105.893 902.343C105.893 903.379 107.965 901.739 109.001 900.789C110.382 901.825 113.196 904.156 113.403 905.192C113.662 906.487 113.403 898.199 107.965 896.128C104.486 894.802 103.424 894.603 103.271 894.709C103.034 893.902 102.1 892.502 99.9365 892.502C97.0877 892.502 98.1237 890.948 96.5698 890.689C95.0159 890.43 93.4621 888.617 93.2031 887.581C92.9441 886.546 91.1313 884.215 90.0954 884.215C89.0595 884.215 86.2108 880.33 86.2108 879.294C86.2108 878.4 84.4745 877.892 83.9991 878.103C84.3309 877.271 85.1603 874.069 83.88 873.856C82.3262 873.597 81.0313 872.82 80.5134 873.597C79.9954 874.374 82.0672 867.899 80.7724 867.899C79.4775 867.899 74.8159 865.051 74.298 863.756C73.8836 862.72 76.7151 861.08 78.1826 860.389C76.5425 860.13 73.055 858.991 72.2262 856.505Z" fill="url(#paint3_linear_3339_1733)"/>
<path d="M58.7583 858.836C60.4157 855.728 62.9019 856.332 63.9378 857.023C62.9019 858.577 67.0455 863.238 66.5275 864.792C66.0096 866.346 67.3045 872.043 68.0814 874.115C68.7029 875.773 67.4771 881.194 66.7865 883.697C65.8369 883.87 64.3521 884.578 66.0096 886.028C68.0814 887.841 63.1609 904.156 61.607 901.825C60.3639 899.961 59.1899 891.207 58.7583 887.064C59.4489 886.373 60.4157 884.578 58.7583 882.92C56.6865 880.849 58.7583 874.892 58.7583 873.079C58.7583 871.266 60.3121 869.713 60.0532 864.015C59.7942 858.318 56.6865 862.72 58.7583 858.836Z" fill="url(#paint4_linear_3339_1733)"/>
<path d="M63.6814 857.022C63.6814 855.264 66.7891 856.763 67.566 857.281C66.789 858.058 76.8891 873.855 77.1481 874.114C77.4071 874.373 77.666 876.445 78.9609 876.963C80.2558 877.481 80.2558 879.294 81.8096 880.589C83.3635 881.884 81.5507 884.991 82.5866 885.25C83.6225 885.509 82.0686 887.581 84.3994 887.581C86.7301 887.581 87.507 890.689 87.507 890.948C87.507 891.207 90.3558 892.501 90.6148 893.796C90.8737 895.091 88.025 895.868 92.6865 896.386C97.3479 896.904 98.125 903.637 98.3839 904.414C98.6429 905.191 95.5352 909.076 95.7942 906.745C96.0014 904.88 95.0173 904.414 94.4993 904.414C94.154 905.019 93.308 905.865 92.6865 904.414C91.9096 902.601 91.9096 902.343 90.0967 902.343C88.2839 902.343 89.3198 900.53 87.507 900.53C85.6942 900.53 84.9173 898.458 83.8814 898.458C83.0526 898.458 81.119 898.631 80.2558 898.717C80.5147 897.854 80.7219 896.075 79.4788 895.868C78.2358 895.661 78.6156 894.401 78.9609 893.796C78.2703 893.624 77.0445 893.175 77.666 892.76C78.4429 892.243 78.7019 889.912 77.4071 890.171C76.3712 890.378 74.213 888.531 73.2635 887.581C72.2276 887.84 70.4147 887.736 71.4506 885.25C72.7455 882.143 72.7455 880.33 70.9327 878.776C69.1198 877.222 73.7814 876.445 70.4147 875.668C67.7214 875.047 66.8754 868.158 66.7891 864.791C65.2352 862.806 63.6814 857.281 63.6814 857.022Z" fill="url(#paint5_linear_3339_1733)"/>
<path d="M73.2614 858.318C74.5045 858.111 73.0887 855.47 72.2255 854.175C70.1537 853.553 62.0392 854.434 58.2409 854.952C56.946 857.369 55.1332 861.789 58.2409 860.131C62.1255 858.059 71.7075 858.577 73.2614 858.318Z" fill="url(#paint6_linear_3339_1733)"/>
<path d="M96.0518 775.188C96.0518 773.807 95.5857 770.734 93.7211 769.49L85.4339 765.606C82.0672 765.347 74.5052 764.984 71.1903 765.606C67.0467 766.383 68.8595 770.785 69.6365 772.08C70.4134 773.375 70.4134 785.029 68.8595 787.619C67.3057 790.208 67.5647 796.424 67.0467 801.603C66.5288 806.783 57.7236 825.688 55.6518 830.608C53.5801 835.529 50.2134 840.449 51.7672 843.816C53.0103 846.509 61.7809 844.248 66.0108 842.78C69.1185 844.075 74.9713 845.111 73.5211 838.896C71.7083 831.126 74.557 830.867 75.3339 830.608C76.1108 830.349 75.0749 825.947 75.3339 825.17C75.5411 824.548 78.01 818.696 79.2185 815.847C79.4775 813.602 80.6688 808.492 83.3621 806.006C86.0554 803.52 87.4194 798.064 87.7647 795.647C87.333 793.834 86.8841 790.26 88.5416 790.467C90.6134 790.726 90.8723 782.957 92.9441 782.698C95.0159 782.439 99.4185 778.814 99.9365 777.26C100.351 776.017 97.5194 775.361 96.0518 775.188Z" fill="url(#paint7_linear_3339_1733)"/>
<path d="M67.8243 843.557C73.2109 843.35 74.2123 846.751 74.0396 848.477C74.454 849.099 72.6584 850.808 71.7088 851.585C72.3131 852.794 73.0037 855.211 70.9319 855.211C68.8601 855.211 61.7815 856.074 58.5011 856.506L56.6883 855.211C54.9618 854.434 51.5088 852.31 51.5088 850.031C51.5088 847.183 54.8755 845.37 55.3935 845.37C55.9114 845.37 61.0909 843.816 67.8243 843.557Z" fill="url(#paint8_linear_3339_1733)"/>
</g>
<path d="M180.995 776.485C184.517 766.333 174.693 724.259 169.341 704.49C168.219 704.49 165.187 705.131 165.974 706.821C172.45 720.722 181.925 768.826 178.664 777.78C177.973 781.578 177.473 786.637 180.995 776.485Z" fill="url(#paint9_linear_3339_1733)"/>
<path d="M171.185 770.529C176.327 758.847 171.185 723.395 161.053 710.188C159.931 710.188 155.176 710.845 156.392 712.259C169.081 727.021 173.785 762.719 168.855 771.823C168.164 775.622 166.857 780.364 171.185 770.529Z" fill="url(#paint10_linear_3339_1733)"/>
<path d="M163.476 779.577C172.203 762.994 169.09 722.541 154.837 712.517C153.88 712.517 149.224 713.894 150.863 714.819C166.526 723.662 169.263 765.323 161.488 781.016C160.9 785.237 158.103 789.786 163.476 779.577Z" fill="url(#paint11_linear_3339_1733)"/>
<path d="M157.748 777.507C166.475 760.924 163.362 720.471 149.11 710.446C148.153 710.446 143.497 711.823 145.136 712.749C160.799 721.592 163.536 763.252 155.761 778.946C155.172 783.167 152.376 787.716 157.748 777.507Z" fill="url(#paint12_linear_3339_1733)"/>
<path d="M145.835 775.436C154.562 758.852 151.45 718.399 137.197 708.375C136.24 708.375 131.584 709.752 133.223 710.677C148.886 719.52 151.623 761.181 143.848 776.875C143.26 781.096 140.463 785.645 145.835 775.436Z" fill="url(#paint13_linear_3339_1733)"/>
<path d="M123.287 782.074C133.583 766.417 134.415 725.853 121.204 714.491C120.252 714.398 115.484 715.316 117.025 716.397C131.755 726.72 130.432 768.449 121.169 783.313C120.173 787.457 116.948 791.713 123.287 782.074Z" fill="url(#paint14_linear_3339_1733)"/>
<path d="M114.66 767.357C123.666 750.924 121.238 710.424 107.157 700.16C106.2 700.144 101.521 701.442 103.145 702.395C118.655 711.502 120.688 753.203 112.649 768.763C111.989 772.973 109.115 777.474 114.66 767.357Z" fill="url(#paint15_linear_3339_1733)"/>
<path d="M106.373 759.589C115.379 743.156 112.951 702.656 98.8698 692.392C97.9132 692.376 93.234 693.674 94.8573 694.627C110.368 703.733 112.401 745.434 104.361 760.994C103.701 765.205 100.828 769.705 106.373 759.589Z" fill="url(#paint16_linear_3339_1733)"/>
<path d="M134.449 766.522C141.298 751.631 138.855 715.305 127.669 706.303C126.918 706.303 123.264 707.539 124.55 708.37C136.843 716.311 138.991 753.722 132.889 767.815C132.427 771.605 130.232 775.69 134.449 766.522Z" fill="url(#paint17_linear_3339_1733)"/>
<path d="M95.5334 749.292C101.127 738.518 102.698 722.876 102.785 716.402C99.2454 708.374 92.9954 696.979 96.3103 715.625C99.6252 734.271 95.6197 745.321 93.2026 748.515C91.6488 753.263 89.9395 760.065 95.5334 749.292Z" fill="url(#paint18_linear_3339_1733)"/>
<path d="M80.7712 745.919C86.365 735.145 87.9361 719.503 88.0225 713.029C84.4831 705.001 78.2332 693.606 81.5481 712.252C84.863 730.898 80.8575 741.948 78.4404 745.142C76.8866 749.89 75.1773 756.692 80.7712 745.919Z" fill="url(#paint19_linear_3339_1733)"/>
<path d="M153.803 667.971C155.668 666.935 159.587 667.54 161.313 667.971V687.135L7.48264 708.63C12.3168 700.861 27.3201 678.382 28.9775 677.553C30.6349 676.725 32.9484 677.899 33.898 678.589C33.898 678.244 34.1052 677.398 34.9339 676.777C35.7626 676.155 36.833 676.518 37.2647 676.777C37.8689 677.64 39.1811 678.745 39.5954 676.259C40.0098 673.772 45.4655 674.877 48.1416 675.741C48.3142 674.791 48.8149 672.788 49.4365 672.374C50.058 671.96 52.4578 671.856 53.5801 671.856C53.839 673.669 54.4088 676.88 54.616 675.223C54.8749 673.151 57.2057 672.374 58.2416 671.856C59.0703 671.442 62.3852 671.683 63.939 671.856L64.457 674.705C64.8023 673.928 65.5447 672.115 65.7518 671.079C65.959 670.043 69.6365 669.957 71.4493 670.043L70.1544 673.928C70.4997 675.223 71.2421 677.191 71.4493 674.705C71.7083 671.597 74.298 670.561 75.5929 670.043C76.6288 669.629 79.6501 670.216 81.0313 670.561L80.2544 676.777C80.686 674.877 81.9636 670.975 83.6211 670.561C85.2785 670.147 89.1459 670.734 90.8724 671.079L90.3544 676.259C90.786 674.964 91.7529 672.115 92.1672 671.079C92.6852 669.784 94.757 670.561 98.6416 669.007C101.749 667.764 102.181 668.489 102.008 669.007V673.928C102.44 672.719 103.717 670.043 105.375 669.007C107.032 667.971 110.727 668.576 112.367 669.007L111.59 672.374C112.281 671.424 113.973 669.422 115.216 669.007C116.459 668.593 118.842 668.835 119.877 669.007V673.928L121.69 669.007C122.813 668.662 125.212 668.179 125.834 669.007C126.455 669.836 128.683 672.633 129.718 673.928L131.79 671.079C131.877 670.388 132.205 669.007 132.826 669.007C133.603 669.007 139.042 667.453 138.524 669.007C138.109 670.25 139.042 672.288 139.56 673.151C140.768 671.597 143.496 668.386 144.739 667.971C145.982 667.557 148.537 668.489 149.66 669.007L148.883 674.705C149.746 672.892 151.938 669.007 153.803 667.971Z" fill="url(#paint20_linear_3339_1733)"/>
<path d="M109.259 669.008C109.467 670.873 111.763 672.202 112.885 672.634L36.2286 694.388L28.2004 693.093C28.4594 692.143 29.0291 689.985 29.2363 688.949C29.4953 687.654 32.344 687.654 33.1209 688.172C33.7425 688.587 36.3149 690.071 37.5235 690.762H40.3722C39.3363 689.899 37.2127 687.81 37.0055 686.36C36.7466 684.547 38.0414 684.288 40.3722 684.288C42.2368 684.288 44.2568 687.395 45.0337 688.949L54.8748 685.324C54.4431 685.324 53.7353 684.909 54.3568 683.252C55.1337 681.18 56.1696 680.662 57.4645 680.921C58.5004 681.128 61.8671 683.942 63.4209 685.324L64.7158 684.288C63.5072 683.597 61.0902 681.905 61.0902 680.662C61.0902 679.108 65.2337 677.036 65.7517 678.849C66.166 680.3 68.8594 682.734 70.1543 683.77L73.003 683.252C71.7081 681.957 69.3255 678.901 70.1543 677.036C71.1902 674.706 74.5568 674.706 75.5927 674.706C76.6286 674.706 78.4414 678.331 78.9594 678.849C79.4773 679.367 82.326 671.339 84.1389 671.339C85.9517 671.339 88.8004 676.26 89.0594 676.26C89.3183 676.26 89.5773 673.929 89.5773 672.634C89.5773 671.339 96.3107 669.008 97.3466 669.008C98.3825 669.008 99.1594 671.598 100.195 670.562C101.231 669.526 101.49 670.562 103.303 670.562C105.116 670.562 105.634 667.454 106.152 667.454C106.67 667.454 109 666.677 109.259 669.008Z" fill="url(#paint21_linear_3339_1733)"/>
<path d="M207.671 791.305C206.221 791.512 205.427 792.712 205.34 793.057C204.391 793.316 202.894 793.481 204.759 793.895C207.09 794.413 210.261 794.611 214.082 793.377C218.386 791.988 216.931 790.747 218.03 790.726C221.138 790.668 222.11 789.233 222.628 787.68C223.146 786.126 220.297 783.018 221.074 785.349C221.851 787.68 220.62 787.162 220.361 787.68C220.102 788.198 217.449 787.359 216.931 788.198C214.921 791.45 215.198 791.305 213.11 791.305C211.556 791.305 209.484 791.046 207.671 791.305Z" fill="url(#paint22_linear_3339_1733)"/>
<path d="M182.552 749.808C181.516 747.944 179.703 747.995 178.926 748.254L176.595 748.772C177.027 752.657 177.89 761.1 177.89 763.793C177.89 766.486 184.623 774.238 187.99 777.777C187.835 779.846 187.743 784.3 187.99 786.324C188.306 788.907 189.026 789.431 189.544 790.726C190.062 792.021 199.385 792.798 199.644 794.352C199.903 795.906 201.716 795.906 203.27 796.424C204.513 796.838 205.687 793.834 206.118 792.28C206.286 791.607 206.293 791.211 206.118 790.467C205.556 789.669 205.17 789.362 204.305 789.172C204.046 789.172 203.373 789.224 202.752 789.431C202.13 789.639 197.486 786.237 195.241 784.511C194.673 784.006 193.458 784.473 193.429 783.734C193.357 781.923 192.134 780.367 192.134 779.072C192.134 777.1 191.357 772.857 191.616 771.821C191.875 770.785 192.134 770.526 193.429 768.454C194.464 766.797 191.443 765.001 189.803 764.311L189.026 762.239C188.336 761.757 186.695 762.498 186.177 762.239C185.659 761.98 183.846 752.139 182.552 749.808Z" fill="url(#paint23_linear_3339_1733)"/>
<path d="M204.045 795.128V793.057C204.995 793.489 206.894 794.611 208.189 795.128C208.529 795.264 211.037 795.128 212.073 795.128C213.109 795.128 213.962 794.535 214.145 794.352C214.404 794.093 214.663 793.118 214.663 792.539C214.663 789.272 208.448 787.359 211.037 787.618C213.627 787.877 217.253 791.762 217.512 792.539C217.771 793.316 217.771 794.351 217.512 795.128C217.166 796.165 214.922 797.978 214.145 798.495C213.368 799.013 209.225 799.013 207.671 798.754C206.428 798.547 204.908 796.251 204.045 795.128Z" fill="url(#paint24_linear_3339_1733)"/>
<path d="M177.889 710.185C177.06 710.185 174.264 708.804 172.969 708.113C172.14 707.686 169.861 709.316 168.825 710.185C168.652 710.789 168.721 712.205 170.379 713.034C172.451 714.069 174.781 722.875 174.781 726.759C174.781 730.644 175.558 731.68 177.112 734.01C178.355 735.875 178.839 739.104 178.925 740.485C180.306 742.816 182.447 747.477 179.961 747.477C176.853 747.477 176.853 748.513 174.781 748.772C172.71 749.031 173.487 748.254 171.415 747.477C169.343 746.7 162.092 737.895 161.056 737.636C160.227 737.429 159.847 738.24 159.761 738.672L161.056 740.485L166.235 745.923C167.012 747.046 169.291 749.653 172.192 751.103C175.817 752.916 181.515 747.218 179.961 749.29C178.407 751.362 179.702 761.721 179.702 764.828C179.702 767.936 180.738 775.187 180.738 776.223C180.738 777.259 178.407 775.705 178.148 780.108C177.889 784.51 178.666 784.51 180.738 785.028C182.395 785.443 184.018 779.331 184.622 776.223L185.399 767.418C184.881 764.656 184.156 758.82 185.399 757.577C186.953 756.023 186.694 748.513 186.694 746.7C186.694 744.887 181.256 731.68 179.961 731.68C178.666 731.68 179.702 719.508 179.961 716.659C180.22 713.81 178.925 710.185 177.889 710.185Z" fill="url(#paint25_linear_3339_1733)"/>
<g filter="url(#filter1_i_3339_1733)">
<path d="M137.747 715.624C166.337 713.967 177.974 701.985 180.219 696.201C181.859 685.756 180.063 667.3 159.76 677.037C134.38 689.209 74.816 687.655 33.8981 698.273C17.9301 702.417 5.41089 715.624 -3.91219 721.581C-11.5878 726.485 -38.6147 746.442 -54.4122 749.55C-70.2096 752.658 -84.4532 756.024 -87.8198 763.276C-88.6716 765.11 -91.1865 771.304 -87.8198 766.124C-84.4532 760.945 -58.2968 759.391 -51.5635 759.391C-44.8301 759.391 7.02206 745.788 27.9416 734.789C53.0622 721.581 102.008 717.696 137.747 715.624Z" fill="url(#paint26_linear_3339_1733)"/>
</g>
<g filter="url(#filter2_i_3339_1733)">
<path d="M105.634 774.153L107.965 772.858L108.483 772.081C109.259 773.721 111.02 776.95 111.849 776.743C112.678 776.535 116.165 776.829 117.806 777.002C120.827 777.261 125.73 778.141 121.172 779.591C115.475 781.404 109.259 778.037 112.108 781.145C114.957 784.253 122.208 788.396 126.87 789.173C129.716 789.648 131.618 788.224 132.308 787.102C133.344 787.533 133.24 789.122 131.79 790.986C129.977 793.317 125.834 793.576 123.503 792.54C121.638 791.711 115.647 788.569 112.885 787.102C112.022 786.929 110.295 786.428 110.295 785.807C110.295 785.03 109 782.44 107.965 782.44C106.929 782.44 104.857 780.368 105.634 779.591C106.255 778.97 105.893 775.707 105.634 774.153Z" fill="url(#paint27_linear_3339_1733)"/>
<path d="M103.044 771.823C103.252 769.959 105.893 769.147 107.188 768.975C108.483 768.975 109.26 770.528 109.001 772.082C108.742 773.636 106.152 773.377 106.411 774.672C106.67 775.967 106.152 777.521 105.893 777.521C105.634 777.521 102.785 774.154 103.044 771.823Z" fill="url(#paint28_linear_3339_1733)"/>
<path d="M122.727 805.229C138.524 789.692 141.891 771.305 140.855 758.615L140.078 755.765C139.56 754.47 136.915 754.768 137.229 756.024C142.409 776.744 129.201 796.425 120.914 803.416C120.374 803.872 121.058 806.87 122.727 805.229Z" fill="url(#paint29_linear_3339_1733)"/>
<path d="M136.229 811.378C148.995 793.268 149.021 774.575 145.734 762.275L144.46 759.61C143.719 758.428 141.17 759.194 141.703 760.374C150.503 779.834 141.026 801.559 134.121 809.919C133.672 810.463 134.881 813.291 136.229 811.378Z" fill="url(#paint30_linear_3339_1733)"/>
<path d="M154.062 801.682C165.814 780.223 162.727 762.127 157.016 750.326L155.136 747.9C154.1 746.865 151.302 748.238 152.1 749.32C165.256 767.153 157.842 791.542 151.259 801.682C150.83 802.342 152.821 803.948 154.062 801.682Z" fill="url(#paint31_linear_3339_1733)"/>
<path d="M81.0316 674.966C83.3106 673.723 86.6427 674.794 88.0239 675.484C86.9881 676.002 87.247 678.851 88.0239 679.887C88.8009 680.923 93.9803 689.728 95.0162 691.023C96.0521 692.317 102.268 699.31 105.893 701.382C109.519 703.453 117.288 711.741 123.762 720.028C130.237 728.315 134.121 731.941 139.301 733.753C144.48 735.566 152.767 727.279 153.285 728.315C153.7 729.144 157.256 729.696 158.983 729.869C159.846 730.559 161.417 733.132 160.796 737.897C160.174 742.662 161.918 745.58 162.868 746.443C164.162 747.738 166.39 751.26 164.939 754.989C163.126 759.651 163.644 763.535 163.644 764.83C163.644 766.125 159.242 772.858 151.214 775.966C144.791 778.452 137.143 774.93 134.121 772.858C133.344 771.564 132.101 768.818 133.344 768.197C134.898 767.42 132.826 770.787 137.488 764.83C141.217 760.065 134.726 750.587 131.014 746.443C132.826 747.652 135.209 747.997 130.237 739.71C124.021 729.351 103.303 710.187 99.6778 707.338C96.7773 705.059 80.859 693.785 73.2624 688.433C71.4496 688.519 68.0311 688.174 68.8598 686.102C69.8957 683.512 78.1829 676.52 81.0316 674.966Z" fill="url(#paint32_linear_3339_1733)"/>
<path d="M107.311 769.514C105.9 769.134 105.095 763.797 104.858 760.945H97.8653C97.3474 761.981 96.8295 764.416 98.9012 765.866C101.491 767.679 104.34 774.671 103.563 772.599C103.053 771.24 105.886 769.993 107.311 769.514C107.438 769.549 107.57 769.543 107.706 769.491C108.419 769.224 108.059 769.263 107.311 769.514Z" fill="url(#paint33_linear_3339_1733)"/>
<path d="M135.415 751.364C133.077 747.468 129.372 748.515 127.387 749.551C126.869 751.105 120.395 750.587 117.546 750.587C114.697 750.587 108.482 753.177 106.928 753.177C102.503 753.177 99.1587 754.731 98.6408 755.508C98.2264 756.129 98.4682 758.529 98.6408 759.651C100.54 761.205 103.305 763.242 105.115 761.205C107.187 758.874 111.578 757.579 114.438 757.579C115.733 757.579 129.2 757.838 130.236 757.579C133.384 756.793 136.969 753.954 135.415 751.364Z" fill="url(#paint34_linear_3339_1733)"/>
<path d="M101.231 757.06C100.402 757.268 99.6773 759.046 99.4183 759.909C98.6414 759.046 96.9322 757.786 96.3107 759.65C95.6891 761.515 97.2602 764.571 98.1235 765.866C98.2961 765.866 98.5896 765.503 98.3825 764.053C98.1753 762.602 99.1594 762.585 99.6773 762.758C100.195 763.707 101.335 764.985 101.749 762.499C102.267 759.391 103.562 763.794 105.116 761.722C106.67 759.65 104.08 757.578 103.821 757.319C103.562 757.06 102.267 756.801 101.231 757.06Z" fill="url(#paint35_linear_3339_1733)"/>
</g>
<path d="M-11.8321 720.622C-9.23977 719.113 -0.842004 718.46 4.24763 718.655C6.81836 718.473 6.85853 728.367 3.75747 731.682C-0.118858 735.825 5.58425 740.399 5.65193 741.5C5.71961 742.601 5.40849 745.94 6.02415 747.555C3.26148 756.375 1.34857 758.297 0.73745 758.156C0.280794 757.727 -0.385596 756.687 0.602096 755.954C1.83671 755.038 3.12866 746.653 1.48469 745.111C-7.90009 736.926 -3.23775 728.489 0.266509 725.293C0.415333 724.914 0.0242835 723.873 -2.7305 722.74C-5.48529 721.607 -11.3889 723.632 -15.2112 724.454C-15.165 723.806 -14.4245 722.132 -11.8321 720.622Z" fill="url(#paint36_linear_3339_1733)"/>
<g filter="url(#filter3_i_3339_1733)">
<path d="M-10.1274 718.472C-5.36224 714.122 -3.65301 717.177 -3.39403 719.249C-3.2345 720.026 -3.39403 723.134 -3.39403 723.911C-3.39403 724.688 -1.32225 727.018 -1.32225 727.536C-1.32225 728.054 -3.39403 730.903 -2.09917 736.859C-0.804305 742.816 -0.101789 770.31 0.49058 774.411C3.85724 797.718 1.00853 800.049 0.49058 801.862C-0.0273681 803.675 -2.61711 805.747 -5.7248 805.747C-8.21096 805.747 -9.43678 802.812 -9.8684 801.344C-12.9856 804.222 -14.8044 804.762 -18.1556 803.934C-20.7453 802.639 -24.4357 795.647 -23.0761 792.539C-21.2633 788.395 -16.8607 782.957 -14.5299 780.626C-12.1992 778.295 -13.2351 764.311 -12.9761 764.052C-12.7171 763.793 -12.1992 751.103 -14.5299 745.147C-16.8607 739.19 -14.5299 741.003 -14.5299 734.27C-14.5299 727.536 -16.0838 723.911 -10.1274 718.472Z" fill="url(#paint37_linear_3339_1733)"/>
</g>
<path d="M241.654 676.002C248.491 678.902 257.624 689.641 261.336 694.648L241.654 688.95C235.784 685.497 223.837 678.073 223.008 676.002C220.936 670.822 223.675 665.708 225.08 664.866C227.67 663.312 240.359 663.312 245.798 663.053C251.236 662.794 249.682 662.017 248.905 659.945C248.284 658.288 241.223 650.45 237.77 646.738L254.603 643.63C259.005 650.104 266.516 664.089 261.336 668.232C256.157 672.376 241.568 672.894 234.921 672.635C234.317 672.549 234.817 673.101 241.654 676.002Z" fill="url(#paint38_linear_3339_1733)"/>
<path d="M239.006 662.275C284.326 663.052 275.607 648.29 278.37 643.888L175.298 648.808L172.449 664.088L203.267 673.929C200.937 669.44 202.076 663.311 208.706 662.275C216.993 660.98 228.388 662.093 239.006 662.275Z" fill="url(#paint39_linear_3339_1733)"/>
<path d="M229.165 678.85C273.612 687.74 256.963 695.024 258.947 699.827L187.988 674.189L196.039 669.441C196.008 669.073 196.548 668.41 197.817 668.392L198.088 668.232C198.046 668.288 198.005 668.341 197.964 668.393C198.712 668.411 199.693 668.647 200.937 669.268C211.814 674.707 220.101 677.038 229.165 678.85Z" fill="url(#paint40_linear_3339_1733)"/>
<g filter="url(#filter4_i_3339_1733)">
<path d="M269.568 666.938C270.863 662.536 271.64 652.436 271.381 645.185L260.245 647.515C259.727 648.551 258.588 662.847 259.209 666.161C259.986 670.305 260.504 664.64 260.504 663.572C260.504 662.536 260.818 657.91 261.54 665.126C262.058 670.305 263.094 670.305 263.094 669.269C263.094 666.938 264.907 655.285 264.648 666.161C264.574 669.268 265.166 671.6 265.683 670.046C266.46 667.715 266.719 667.715 267.237 663.831C268.014 664.608 267.556 673.779 269.568 666.938Z" fill="url(#paint41_linear_3339_1733)"/>
<path d="M270.862 673.207C273.555 674.45 275.178 661.369 275.524 655.24C273.538 654.549 269.994 653.307 270.344 654.463C272.416 661.294 270.301 672.948 270.862 673.207Z" fill="url(#paint42_linear_3339_1733)"/>
<path d="M275.029 673.065C277.71 674.399 279.325 660.356 279.669 653.777C277.693 653.036 274.165 651.702 274.514 652.943C276.576 660.276 274.471 672.787 275.029 673.065Z" fill="url(#paint43_linear_3339_1733)"/>
<path d="M277.596 670.616C280.289 671.859 281.912 658.778 282.257 652.649C280.272 651.958 276.727 650.716 277.078 651.872C279.149 658.703 277.034 670.357 277.596 670.616Z" fill="url(#paint44_linear_3339_1733)"/>
<path d="M256.959 677.489C259.85 676.823 258.765 689.959 257.85 696.03C255.765 696.3 252.041 696.791 252.621 695.731C256.045 689.468 256.357 677.628 256.959 677.489Z" fill="url(#paint45_linear_3339_1733)"/>
<path d="M260.585 674.899C263.475 674.233 262.39 687.37 261.475 693.44C259.39 693.71 255.666 694.202 256.246 693.142C259.67 686.878 259.982 675.038 260.585 674.899Z" fill="url(#paint46_linear_3339_1733)"/>
<path d="M255.923 680.079C258.814 679.413 257.729 692.549 256.814 698.62C254.729 698.89 251.005 699.381 251.585 698.321C255.009 692.058 255.321 680.218 255.923 680.079Z" fill="url(#paint47_linear_3339_1733)"/>
<path d="M253.86 683.68C251.006 682.872 251.445 696.047 252.061 702.154C254.13 702.527 257.825 703.2 257.298 702.113C254.185 695.689 254.455 683.848 253.86 683.68Z" fill="url(#paint48_linear_3339_1733)"/>
<path d="M249.708 676.454C252.598 675.788 251.513 688.924 250.598 694.995C248.513 695.265 244.79 695.756 245.369 694.696C248.794 688.433 249.106 676.593 249.708 676.454Z" fill="url(#paint49_linear_3339_1733)"/>
<path d="M244.495 674.05C248.303 673.575 247.771 686.828 246.973 692.922C244.212 693.051 239.281 693.291 239.98 692.256C244.11 686.139 243.702 674.149 244.495 674.05Z" fill="url(#paint50_linear_3339_1733)"/>
<path d="M239.833 677.011C243.641 676.536 243.109 689.788 242.311 695.883C239.55 696.012 234.619 696.252 235.318 695.216C239.448 689.1 239.04 677.11 239.833 677.011Z" fill="url(#paint51_linear_3339_1733)"/>
<path d="M235.69 673.901C239.498 673.427 238.966 686.679 238.168 692.774C235.407 692.903 230.476 693.142 231.175 692.107C235.305 685.991 234.897 674 235.69 673.901Z" fill="url(#paint52_linear_3339_1733)"/>
<path d="M231.027 677.528C234.835 677.054 234.303 690.306 233.506 696.401C230.745 696.53 225.813 696.769 226.512 695.734C230.643 689.618 230.234 677.627 231.027 677.528Z" fill="url(#paint53_linear_3339_1733)"/>
<path d="M227.225 682.649C229.639 681.883 228.266 694.96 227.29 701.017C225.557 701.361 222.461 701.983 222.978 700.91C226.036 694.57 226.722 682.808 227.225 682.649Z" fill="url(#paint54_linear_3339_1733)"/>
<path d="M224.637 676.951C227.05 676.185 225.678 689.262 224.702 695.32C222.969 695.663 219.873 696.286 220.39 695.213C223.448 688.873 224.134 677.111 224.637 676.951Z" fill="url(#paint55_linear_3339_1733)"/>
<path d="M221.011 676.951C223.424 676.185 222.052 689.262 221.076 695.32C219.343 695.663 216.246 696.286 216.764 695.213C219.821 688.873 220.508 677.111 221.011 676.951Z" fill="url(#paint56_linear_3339_1733)"/>
<path d="M216.35 675.915C218.763 675.149 217.391 688.226 216.414 694.284C214.681 694.627 211.585 695.25 212.103 694.177C215.16 687.837 215.847 676.075 216.35 675.915Z" fill="url(#paint57_linear_3339_1733)"/>
<path d="M213.241 675.915C215.655 675.149 214.282 688.226 213.306 694.284C211.573 694.627 208.477 695.25 208.994 694.177C212.052 687.837 212.739 676.075 213.241 675.915Z" fill="url(#paint58_linear_3339_1733)"/>
<path d="M275.007 662.847C277.701 664.09 279.324 651.009 279.669 644.879C277.683 644.189 274.139 642.947 274.489 644.103C276.561 650.934 274.446 662.588 275.007 662.847Z" fill="url(#paint59_linear_3339_1733)"/>
<path d="M272.416 661.813C275.109 663.056 276.732 649.974 277.078 643.845C275.092 643.155 271.547 641.912 271.898 643.068C273.97 649.9 271.855 661.554 272.416 661.813Z" fill="url(#paint60_linear_3339_1733)"/>
<path d="M268.79 660.775C271.483 662.019 273.106 648.937 273.452 642.808C271.466 642.118 267.921 640.875 268.272 642.031C270.344 648.863 268.229 660.516 268.79 660.775Z" fill="url(#paint61_linear_3339_1733)"/>
<path d="M265.683 659.223C268.377 660.466 269.999 647.385 270.345 641.255C268.359 640.565 264.815 639.322 265.165 640.479C267.237 647.31 265.122 658.964 265.683 659.223Z" fill="url(#paint62_linear_3339_1733)"/>
<path d="M263.093 656.115C265.787 657.358 267.409 644.277 267.755 638.148C265.769 637.457 262.225 636.215 262.575 637.371C264.647 644.202 262.532 655.856 263.093 656.115Z" fill="url(#paint63_linear_3339_1733)"/>
<path d="M260.504 655.078C263.197 656.321 264.82 643.24 265.165 637.111C263.18 636.42 259.635 635.178 259.986 636.334C262.057 643.165 259.943 654.819 260.504 655.078Z" fill="url(#paint64_linear_3339_1733)"/>
<path d="M253.77 661.293C256.463 662.536 258.086 649.455 258.431 643.326C256.446 642.635 252.901 641.393 253.252 642.549C255.324 649.38 253.209 661.034 253.77 661.293Z" fill="url(#paint65_linear_3339_1733)"/>
<path d="M248.073 660.257C250.766 661.5 252.389 648.419 252.734 642.29C250.749 641.599 247.204 640.357 247.555 641.513C249.626 648.344 247.511 659.998 248.073 660.257Z" fill="url(#paint66_linear_3339_1733)"/>
<path d="M242.375 665.955C245.068 667.198 246.691 654.117 247.036 647.988C245.051 647.297 241.506 646.055 241.857 647.211C243.929 654.042 241.814 665.696 242.375 665.955Z" fill="url(#paint67_linear_3339_1733)"/>
<path d="M242.375 665.955C245.068 667.198 246.691 654.117 247.036 647.988C245.051 647.297 241.506 646.055 241.857 647.211C243.929 654.042 241.814 665.696 242.375 665.955Z" fill="url(#paint68_linear_3339_1733)"/>
<path d="M213.383 666.217C215.786 667.956 219.898 655.432 221.417 649.484C219.602 648.424 216.363 646.522 216.484 647.724C217.202 654.827 212.882 665.855 213.383 666.217Z" fill="url(#paint69_linear_3339_1733)"/>
<path d="M209.238 666.217C211.641 667.956 215.753 655.432 217.272 649.484C215.457 648.424 212.218 646.522 212.339 647.724C213.057 654.827 208.737 665.855 209.238 666.217Z" fill="url(#paint70_linear_3339_1733)"/>
<path d="M206.13 664.146C208.534 665.884 212.645 653.361 214.164 647.413C212.349 646.353 209.11 644.451 209.232 645.653C209.949 652.755 205.629 663.784 206.13 664.146Z" fill="url(#paint71_linear_3339_1733)"/>
<path d="M202.792 661.454C205.15 663.254 209.583 650.84 211.255 644.933C209.467 643.827 206.278 641.842 206.369 643.047C206.903 650.166 202.3 661.079 202.792 661.454Z" fill="url(#paint72_linear_3339_1733)"/>
<path d="M200.491 658.36C202.849 660.16 207.282 647.746 208.954 641.84C207.167 640.733 203.978 638.749 204.068 639.953C204.603 647.072 200 657.985 200.491 658.36Z" fill="url(#paint73_linear_3339_1733)"/>
<path d="M231.586 668.511C234.235 670.48 238.841 656.004 240.549 649.135C238.547 647.939 234.975 645.794 235.104 647.176C235.863 655.344 231.034 668.101 231.586 668.511Z" fill="url(#paint74_linear_3339_1733)"/>
<path d="M226.924 667.061C229.573 669.029 234.179 654.554 235.887 647.685C233.885 646.489 230.313 644.344 230.442 645.726C231.201 653.894 226.372 666.65 226.924 667.061Z" fill="url(#paint75_linear_3339_1733)"/>
<path d="M216.015 670.693C218.443 672.928 224.543 659.016 226.962 652.364C225.097 650.965 221.77 648.457 221.752 649.845C221.65 658.047 215.509 670.227 216.015 670.693Z" fill="url(#paint76_linear_3339_1733)"/>
</g>
<g filter="url(#filter5_i_3339_1733)">
<path d="M264.386 701.123C265.007 700.294 264.904 695.426 264.386 692.577C263.92 690.015 261.278 692.577 259.465 692.577C258.015 692.577 255.753 691.196 254.804 690.505C253.379 689.469 253.043 694.7 248.07 689.728C241.855 683.513 237.97 686.62 231.237 686.879C224.504 687.138 217.511 689.728 207.152 674.19C198.693 661.5 192.779 666.052 190.578 665.126C185.658 663.054 178.147 656.062 173.745 656.062C169.515 656.148 160.9 658.392 160.278 666.679C159.501 677.038 161.832 675.226 168.306 679.887C173.466 683.602 179.397 693.793 181.746 698.48C181.622 698.316 181.24 698.648 180.478 701.123C179.649 703.816 184.276 703.799 186.693 703.454C188.42 704.921 192.857 707.546 196.793 706.303C201.714 704.749 216.217 706.044 217.511 707.856C218.806 709.669 239.524 716.92 245.222 717.438C250.919 717.956 256.358 715.367 258.688 713.036C260.556 711.168 263.609 702.159 264.386 701.123Z" fill="url(#paint77_linear_3339_1733)"/>
</g>
<g filter="url(#filter6_i_3339_1733)">
<path fill-rule="evenodd" clip-rule="evenodd" d="M270.861 622.653C274.573 626.279 281.479 633.996 279.407 636.896C279.281 637.073 279.646 637.547 280.217 638.29C281.995 640.601 285.776 645.514 283.032 652.176C283.032 652.176 282.763 653.899 277.076 652.694C276.179 652.504 275.237 652.084 274.135 651.593C271.305 650.331 267.418 648.598 260.502 649.068C254.562 649.472 249.958 649.722 246.297 649.92C233.519 650.613 232.241 650.682 225.799 654.507C219.169 658.443 206.117 656.147 200.42 654.507C197.053 655.543 189.18 657.304 184.622 656.061C182.538 655.492 182.083 656.275 181.431 657.395C180.3 659.338 178.579 662.295 166.753 660.981C165.933 660.89 165.133 662.183 164.275 663.569C162.694 666.123 160.917 668.992 158.466 664.089C156.394 659.945 156.826 655.629 158.466 652.953C158.552 650.795 158.984 646.012 160.02 644.148C160.497 643.288 160.235 642.957 159.857 642.479C159.21 641.66 158.221 640.411 160.02 635.343C161.49 631.199 163.127 629.386 163.904 628.609C163.386 626.883 163.231 622.342 166.753 617.991C170.275 613.641 174.781 607.719 176.594 605.302C177.63 603.921 181.722 602.349 184.622 602.971C185.956 603.257 186.273 602.421 186.645 601.444C187.282 599.764 188.079 597.667 194.463 600.122C200.751 602.54 202.321 601.948 203.923 601.343C204.894 600.977 205.877 600.606 207.93 600.899C209.204 601.081 210.904 601.382 214.094 601.948L214.094 601.948C219.251 602.862 228.301 604.467 245.74 607.373C249.324 607.971 251.837 607.917 253.808 607.876C256.962 607.809 258.728 607.771 261.279 610.481C261.755 610.987 261.956 611.023 263.163 611.239C263.544 611.307 264.024 611.393 264.645 611.517C266.199 612.208 269.307 614.003 269.307 615.661C269.307 615.993 269.294 616.345 269.28 616.708C269.207 618.61 269.122 620.858 270.861 622.653ZM263.611 619.028C264.388 621.618 264.641 626.557 264.129 628.092C263.611 629.646 262.057 631.977 257.396 629.905C252.734 627.833 247.037 624.725 246.001 620.064C244.965 615.402 244.965 611.777 251.698 612.813C257.085 613.641 262.85 616.491 263.611 619.028ZM223.989 630.164C224.15 629.12 225.313 620.841 224.507 617.733C222.694 610.741 209.486 608.151 205.602 610.482C202.607 612.279 199.008 613.429 196.132 614.347C194.311 614.929 192.78 615.418 191.876 615.92C189.545 617.215 183.848 623.69 194.207 626.02C203.804 628.18 203.621 636.118 203.542 639.54V639.54C203.536 639.811 203.53 640.054 203.53 640.264C203.53 642.543 205.602 642.04 207.156 641.3C208.968 640.437 212.024 639.073 215.961 637.415C220.881 635.344 223.471 633.531 223.989 630.164ZM177.632 615.922C180.222 612.814 184.521 609.499 180.999 621.101C176.596 635.604 176.855 638.452 179.704 641.301C182.553 644.15 181.776 650.365 176.078 646.481C170.381 642.596 169.863 641.042 170.122 633.532C170.368 626.386 172.725 622.992 176.968 616.879C177.185 616.567 177.406 616.248 177.632 615.922Z" fill="url(#paint78_linear_3339_1733)"/>
</g>
<path d="M264.126 628.091C264.638 626.556 264.385 621.617 263.608 619.027C262.847 616.49 257.082 613.64 251.695 612.812C244.962 611.776 244.962 615.402 245.998 620.063C247.034 624.725 252.731 627.832 257.393 629.904C262.054 631.976 263.608 629.645 264.126 628.091Z" fill="url(#paint79_radial_3339_1733)"/>
<path d="M223.985 630.163C224.146 629.118 225.309 620.84 224.503 617.732C222.691 610.74 209.483 608.15 205.598 610.481C200.708 613.415 194.203 614.624 191.873 615.919C189.542 617.214 183.844 623.688 194.203 626.019C204.562 628.35 203.526 637.414 203.526 640.263C203.526 642.542 205.598 642.038 207.152 641.298C208.965 640.435 212.021 639.071 215.957 637.414C220.878 635.342 223.468 633.529 223.985 630.163Z" fill="url(#paint80_radial_3339_1733)"/>
<path d="M180.996 621.099C184.518 609.497 180.219 612.812 177.629 615.92C172.968 622.653 170.378 626.02 170.119 633.53C169.86 641.04 170.378 642.594 176.075 646.479C181.773 650.363 182.55 644.148 179.701 641.299C176.852 638.45 176.593 635.602 180.996 621.099Z" fill="url(#paint81_radial_3339_1733)"/>
<path d="M40.3739 743.336C35.6087 742.714 22.8499 737.034 17.0662 734.271L16.2893 747.22C21.2777 751.795 29.6081 761.775 23.0226 765.089C16.4371 768.404 17.5162 794.44 18.879 807.043C12.3183 809.806 -1.01022 815.486 -1.83893 816.107C-2.87483 816.884 -1.57996 818.956 -0.803036 819.474C-0.0261154 819.992 2.56363 819.474 8.26106 819.474C13.9585 819.474 24.3175 822.323 26.9072 823.1C29.497 823.877 39.8559 819.474 41.1508 819.992C42.1867 820.406 44.3448 819.474 45.2943 818.956C45.8986 817.316 46.2266 813.932 42.7046 813.518C38.302 813 40.3739 814.554 34.4174 809.892C28.461 805.23 26.1302 765.607 29.2379 765.089C32.3456 764.571 30.5328 758.874 31.8277 759.392C33.1225 759.91 34.4174 758.097 35.4533 757.838C36.4892 757.579 40.3739 751.623 43.2226 749.551C46.0713 747.479 46.3303 744.113 40.3739 743.336Z" fill="url(#paint82_linear_3339_1733)"/>
<path d="M5.153 728.574C5.56736 726.087 20.3462 727.365 27.6838 728.315C31.6202 728.76 18.6197 737.651 11.6274 742.04C9.29659 738.587 4.73865 731.06 5.153 728.574Z" fill="url(#paint83_linear_3339_1733)"/>
<path d="M6.18916 731.164C5.06694 730.646 2.87429 730.232 3.08147 732.718C3.34045 735.826 5.67122 738.157 5.41224 743.077C5.15327 747.998 4.63532 752.918 6.18916 758.357C7.74301 763.795 11.3687 771.564 12.4045 778.039C13.4404 784.513 15.5122 800.052 13.9584 801.087C12.4045 802.123 3.08148 808.598 -1.83904 809.375C-6.75955 810.152 -8.83134 815.072 -6.50057 816.367C-4.1698 817.662 7.74302 819.475 8.26096 818.439C8.74514 817.47 9.68194 816.502 9.80203 815.745C9.80343 816.576 9.96491 819.216 11.3687 819.216C13.1815 819.216 28.7199 821.287 31.3097 820.511C33.8994 819.734 40.3738 818.18 38.043 814.036C35.7122 809.893 34.1584 813.518 30.0148 810.928C25.8712 808.339 20.6917 798.239 20.4328 793.577C20.1738 788.916 17.843 766.903 13.4404 759.652C9.91839 753.851 11.2823 746.703 12.4045 743.854C13.9584 743.595 16.9625 742.818 16.5481 741.782C16.0302 740.487 12.9225 736.344 10.0738 735.049C7.79481 734.013 6.53446 732.028 6.18916 731.164Z" fill="url(#paint84_linear_3339_1733)"/>
<path d="M20.1738 679.111C19.7595 680.561 18.62 682.65 18.102 683.513C14.2174 682.736 15.5123 685.844 14.2174 686.103C12.9225 686.362 7.22511 689.987 6.44819 691.541C5.67127 693.095 -3.39283 698.016 -3.39283 699.57C-3.39283 701.123 -14.2698 705.008 -16.8595 705.008C-19.4492 705.008 -24.8877 708.116 -26.7005 709.152C-28.5133 710.187 -33.1749 710.446 -33.6928 712.518C-34.2108 714.59 -33.1749 712.259 -36.0236 717.18C-38.8723 722.1 -34.7287 725.467 -33.1749 726.244C-31.621 727.021 -18.4133 720.805 -15.5646 719.77C-12.7159 718.734 -9.09027 720.805 -6.24155 720.805C-3.39283 720.805 -0.026165 717.957 2.3046 717.698C4.63537 717.439 6.18922 718.475 6.44819 719.77C6.70716 721.064 3.3405 724.949 4.89435 730.646C6.44819 736.344 10.8508 736.344 12.1456 737.898C13.4405 739.452 16.0302 740.228 18.102 739.711C19.7595 739.296 21.2097 731.423 21.7277 727.539C19.9149 719.597 16.2374 703.143 16.0302 700.864C15.7713 698.016 23.0225 690.764 24.5764 690.505C26.1302 690.246 30.7918 684.29 31.5687 681.182C32.3456 678.075 28.461 676.262 26.3892 675.744C24.3174 675.226 20.6918 677.298 20.1738 679.111Z" fill="url(#paint85_linear_3339_1733)"/>
<g filter="url(#filter7_i_3339_1733)">
<path d="M128.424 697.755C130.703 696.098 131.1 693.266 131.014 692.058L123.244 685.065C123.417 689.036 123.555 697.548 122.726 699.827C121.898 702.106 122.381 709.064 122.726 712.258C123.59 713.294 125.472 715.003 126.093 713.553C129.978 704.488 125.575 699.827 128.424 697.755Z" fill="url(#paint86_linear_3339_1733)"/>
<path d="M131.014 676.001C131.636 677.244 131.273 678.418 131.014 678.85C130.842 679.195 130.756 680.508 130.756 680.922C130.756 681.44 134.381 683.771 135.417 685.324C136.453 686.878 135.417 688.691 135.417 689.727C135.417 690.763 132.05 694.13 130.756 693.871C129.72 693.663 128.597 691.022 128.166 689.727C126.526 689.727 123.245 689.52 123.245 688.691C123.245 681.699 123.504 681.958 124.54 680.922C125.576 679.886 125.058 680.145 125.317 676.778C125.576 673.412 126.612 673.671 127.907 673.671C129.202 673.671 130.238 674.448 131.014 676.001Z" fill="url(#paint87_linear_3339_1733)"/>
<path d="M157.171 677.038C160.071 677.245 161.142 674.88 161.314 673.672C161.142 671.168 160.693 666.317 160.278 666.938C159.76 667.715 156.135 673.154 154.063 674.707C151.991 676.261 146.035 676.261 145.258 676.52C144.481 676.779 145.517 678.592 148.107 680.405C150.178 681.855 153.286 680.837 154.581 680.146C154.236 679.024 154.27 676.831 157.171 677.038Z" fill="url(#paint88_linear_3339_1733)"/>
<path d="M147.33 701.381C147.744 700.759 148.021 697.755 147.33 696.719C147.33 695.684 142.41 690.504 141.374 690.504C140.338 690.504 137.874 684.03 135.676 683.253C134.252 682.749 131.792 684.03 131.533 684.548C131.274 685.066 131.533 690.504 133.983 691.577C134.695 691.889 135.694 692.118 136.453 694.648C137.23 697.237 137.489 698.014 137.489 699.309C137.489 700.086 138.007 700.434 138.007 701.899V705.525C138.007 706.819 137.23 711.74 137.489 714.848C137.748 717.955 133.345 725.466 134.122 724.43C134.899 723.394 131.659 728.832 134.122 725.984C136.155 723.633 139.302 719.423 140.338 718.387C141.374 717.351 142.928 711.222 144.481 710.186C145.774 709.324 146.812 702.158 147.33 701.381Z" fill="url(#paint89_linear_3339_1733)"/>
<path d="M157.172 692.576C157.586 691.955 159.934 689.986 159.244 688.951C159.244 687.915 150.18 684.807 149.144 684.807C148.108 684.807 146.036 682.994 144.741 682.217C143.446 681.44 142.41 683.512 142.151 684.03C141.892 684.548 142.915 689.593 143.692 689.593C144.469 689.593 146.8 693.218 146.282 695.808C145.764 698.398 146.036 697.756 146.036 699.051C146.036 699.827 146.554 700.863 145.518 701.899C144.482 702.935 144.482 707.856 144.482 709.151C144.482 710.445 144.223 713.294 144.482 716.402C144.741 719.51 141.374 735.566 142.151 734.53C142.928 733.494 146.813 715.884 146.813 712.776C146.813 709.668 149.921 705.007 150.956 703.971C151.992 702.935 156.136 698.533 156.136 696.979C156.136 695.425 156.654 693.353 157.172 692.576Z" fill="url(#paint90_linear_3339_1733)"/>
<path d="M169.071 685.709C169.485 685.088 170.279 683.379 169.589 682.343C168.035 680.012 164.15 679.753 163.114 679.753C162.078 679.753 157.676 677.681 156.381 676.904C155.086 676.127 154.05 679.235 153.791 679.753C153.532 680.271 154.309 681.825 155.086 681.825C155.863 681.825 158.194 685.45 157.676 688.04C157.158 690.63 158.712 693.22 159.747 693.738C160.442 694.085 161.819 697.622 160.783 698.658C159.747 699.694 155.086 704.356 155.086 705.65C155.086 706.945 157.417 707.463 157.676 710.571C157.935 713.679 150.683 729.476 151.46 728.44C152.237 727.404 160.783 712.384 160.783 709.276C160.783 706.168 163.114 700.73 164.15 699.694C165.186 698.658 165.963 695.291 165.963 693.738C165.963 692.184 168.553 686.486 169.071 685.709Z" fill="url(#paint91_linear_3339_1733)"/>
<path d="M128.942 671.341C130.237 669.787 139.301 671.599 139.042 674.189C138.954 675.073 145.775 677.556 144.222 677.556C138.524 677.556 142.554 680.968 143.445 681.958C137.488 681.182 135.416 674.966 133.604 674.189C132.153 673.568 131.273 674.966 131.014 675.743C129.892 674.794 127.906 672.584 128.942 671.341Z" fill="url(#paint92_linear_3339_1733)"/>
</g>
<g filter="url(#filter8_i_3339_1733)">
<path d="M51.7381 690.079C53.1901 688.096 53.2261 684.702 53.0627 683.253C53.2515 680.953 52.1972 680.597 51.4498 681.072C50.7023 681.548 46.216 685.491 43.2216 687.397C40.3729 689.209 36.5534 691.119 33.6396 693.954C30.7258 696.79 21.7268 710.186 21.7268 721.84C21.7268 729.868 21.4679 737.379 22.5038 742.558C23.1867 745.973 26.6637 764.249 29.496 763.535C31.3662 763.064 30.7565 762.359 29.4961 759.651C27.1079 754.519 24.9004 743.341 24.5755 738.933C22.7626 714.33 27.706 706.874 32.4811 700.09C37.2562 693.307 39.8078 692.39 42.1368 692.448C44.4657 692.507 45.9892 693.776 46.5164 693.954C47.0435 694.132 48.4912 696.803 50.6759 698.449C52.4236 699.766 52.0283 697.147 51.6122 695.674C51.0492 694.635 50.2862 692.062 51.7381 690.079Z" fill="url(#paint93_linear_3339_1733)"/>
<path d="M44.472 689.751C45.7154 687.824 45.9399 684.667 45.8968 683.33C46.1767 681.182 45.3778 680.912 44.7693 681.397C44.1608 681.882 39.3095 685.248 36.8716 687.193C34.5523 689.043 29.2981 689.017 26.869 691.821C24.4399 694.625 16.6693 707.597 15.9946 718.427C15.5298 725.889 14.8936 732.884 15.3989 737.637C15.7321 740.771 17.3767 757.555 19.6196 756.728C21.1006 756.182 20.6675 755.562 19.8445 753.118C18.2853 748.487 17.2165 738.226 17.2192 734.148C17.2345 711.388 21.5087 704.172 25.6132 697.591C29.7177 691.01 35.0647 692.589 36.8716 692.509C38.6785 692.428 39.7893 693.52 40.1887 693.655C40.5882 693.789 41.5589 696.187 43.1617 697.591C44.444 698.714 44.2883 696.303 44.0502 694.957C43.6727 694.025 43.2286 691.678 44.472 689.751Z" fill="url(#paint94_linear_3339_1733)"/>
<path d="M62.8655 689.383C64.418 686.632 64.2878 682.275 64.0287 680.441C64.1277 677.465 62.9099 677.159 62.0832 677.875C61.2564 678.592 53.8964 683.904 49.8618 684.509C46.6341 684.992 40.0501 692.888 36.9817 697.932C33.9133 702.976 29.9736 711.728 28.4047 729.75C26.8359 747.771 35.22 764.653 38.3009 768.714C40.4761 771.58 40.788 775.502 42.4445 774.929C45.4297 772.894 44.4597 773.202 43.2214 772.08C33.6394 757.06 33.8477 753.548 32.7327 745.897C29.7548 725.465 34.8818 711.055 38.5155 704.528C44.0564 694.575 46.8756 692.068 49.529 691.81C52.1825 691.552 56.5093 694.945 57.1182 695.098C57.7271 695.25 59.5093 698.467 62.0786 700.265C64.1341 701.704 63.5522 698.403 63.0043 696.573C62.3112 695.322 61.3131 692.133 62.8655 689.383Z" fill="url(#paint95_linear_3339_1733)"/>
<path d="M79.0608 688.993C80.8804 685.805 80.5703 680.746 80.1877 678.615C80.2075 675.16 78.6955 674.802 77.7008 675.631C76.7061 676.46 73.4832 679.955 68.5294 680.645C64.5664 681.197 54.2849 686.852 50.5117 691.548C46.7385 696.243 41.6667 703.971 41.6667 728.055C41.6667 745.14 48.1708 770.78 50.4719 776.483C52.3807 781.214 53.3205 800.019 57.2052 798.496C59.7701 797.49 60.5502 797.144 58.5 793.317C54.6155 786.065 54.1324 777.296 52.2847 771.045C42.104 736.601 43.7385 713.812 49.6949 702.935C55.6513 692.058 59.1219 690.278 62.3846 689.986C65.6474 689.694 71.4148 695.433 72.1708 695.612C72.9269 695.791 75.2348 699.531 78.4645 701.627C81.0483 703.303 80.2174 699.469 79.479 697.343C78.5814 695.888 77.2412 692.182 79.0608 688.993Z" fill="url(#paint96_linear_3339_1733)"/>
<path d="M86.3594 684.582C87.7753 681.488 87.0701 676.842 86.5405 674.907C86.2726 671.715 84.8471 671.51 83.9973 672.358C83.1476 673.205 75.4469 679.617 70.9304 680.664C67.3172 681.501 60.8304 690.598 57.9817 696.295C55.133 701.993 51.7663 711.741 52.2843 731.164C52.9701 756.88 75.7086 782.291 79.7355 786.325C82.5787 789.174 83.6201 793.576 85.433 792.8C88.5716 790.327 88.5402 789.473 86.9869 788.397C70.6093 775.448 62.5993 755.75 59.2766 747.997C51.5074 729.869 57.2688 710.534 60.5714 703.195C65.6076 692.003 68.4969 689.042 71.4851 688.503C74.4732 687.963 79.8335 691.161 80.5463 691.263C81.2591 691.366 83.6996 694.628 86.8549 696.295C89.3792 697.629 88.2946 694.158 87.4368 692.256C86.4877 690.987 84.9435 687.677 86.3594 684.582Z" fill="url(#paint97_linear_3339_1733)"/>
<path d="M103.091 683.169C104.798 679.92 104.313 674.874 103.857 672.758C103.756 669.304 102.233 668.999 101.268 669.862C100.302 670.725 97.2026 674.33 92.2757 675.191C88.3342 675.88 78.2552 681.89 74.6472 686.713C71.0392 691.537 66.1341 703.066 66.7882 716.919C67.5939 733.985 73.3547 768.015 75.8523 773.634C77.9241 778.296 75.5295 785.506 81.0318 785.288C83.5603 784.194 84.5686 783.244 83.3625 779.073C83.1378 778.296 82.0676 777.811 78.96 772.081C71.7483 758.783 68.8874 707.672 75.0754 699.309C81.2633 690.946 83.586 686.92 86.8367 686.515C90.0873 686.11 95.6726 689.87 96.4344 690.023C97.1962 690.176 99.6325 693.834 102.933 695.816C105.573 697.401 104.61 693.599 103.798 691.499C102.851 690.077 101.383 686.419 103.091 683.169Z" fill="url(#paint98_linear_3339_1733)"/>
<path d="M115.52 683.688C117.228 680.438 116.742 675.393 116.286 673.276C116.186 669.823 114.662 669.517 113.697 670.38C112.732 671.243 109.632 674.848 104.705 675.71C100.764 676.399 90.6846 682.408 87.0766 687.231C83.4686 692.055 80.1119 704.865 80.766 718.718C81.5716 735.784 86.543 750.514 90.6427 755.098C97.0119 762.219 110.989 762.081 116.492 761.864L117.215 760.888C110.189 761.681 95.2744 760.981 90.4531 752.09C83.2414 738.793 84.5271 711.812 87.4773 701.046C90.9763 688.277 96.0154 687.438 99.266 687.033C102.517 686.628 108.102 690.389 108.864 690.542C109.626 690.694 112.062 694.352 115.362 696.334C118.003 697.92 117.039 694.117 116.228 692.017C115.28 690.595 113.812 686.938 115.52 683.688Z" fill="url(#paint99_linear_3339_1733)"/>
<path d="M124.539 681.698C125.575 678.176 124.108 673.325 123.244 671.339C122.467 667.973 120.914 667.973 120.137 669.009C119.36 670.045 117.029 674.188 112.367 676.001C108.638 677.451 99.9367 685.324 97.3469 690.763C94.7572 696.201 93.9833 709.421 97.3469 722.875C101.491 739.45 109.26 752.916 114.18 756.605C121.825 762.336 135.502 759.454 140.855 758.159L141.373 757.06C134.639 759.218 119.878 761.463 113.403 753.693C103.719 742.072 99.6777 715.365 100.455 704.229C101.376 691.022 106.152 689.209 109.26 688.173C112.367 687.137 118.583 689.727 119.36 689.727C120.137 689.727 123.244 692.834 126.87 694.129C129.771 695.165 128.079 691.626 126.87 689.727C125.661 688.518 123.503 685.22 124.539 681.698Z" fill="url(#paint100_linear_3339_1733)"/>
</g>
<path opacity="0.8" d="M285.374 136.21C293.119 120.243 314.799 128.606 324.671 134.784C305.877 128.369 293.917 131.933 286.513 143.338C273.984 133.358 266.011 140.487 252.342 146.189C264.302 134.784 269.428 126.23 285.374 136.21Z" fill="#60606A"/>
<path opacity="0.8" d="M315.891 78.1669C324.849 57.0728 349.924 68.1221 361.342 76.2835C339.605 67.8083 325.772 72.5165 317.208 87.5838C302.717 74.3999 293.495 83.8169 277.686 91.3505C291.519 76.2835 297.447 64.9831 315.891 78.1669Z" fill="#60606A"/>
<path opacity="0.8" d="M212.525 114.277C216.099 97.9588 232.474 104.271 240.214 109.467C226.119 104.813 218.068 109.344 214.188 121.163C204.107 112.472 199.309 120.15 190.303 126.924C197.414 114.71 200.021 105.884 212.525 114.277Z" fill="#60606A"/>
</g>
<defs>
<filter id="filter0_i_3339_1733" x="37.4103" y="724.273" width="76.0587" height="183.207" filterUnits="userSpaceOnUse" color-interpolation-filters="sRGB">
<feFlood flood-opacity="0" result="BackgroundImageFix"/>
<feBlend mode="normal" in="SourceGraphic" in2="BackgroundImageFix" result="shape"/>
<feColorMatrix in="SourceAlpha" type="matrix" values="0 0 0 0 0 0 0 0 0 0 0 0 0 0 0 0 0 0 127 0" result="hardAlpha"/>
<feOffset/>
<feGaussianBlur stdDeviation="3.10769"/>
<feComposite in2="hardAlpha" operator="arithmetic" k2="-1" k3="1"/>
<feColorMatrix type="matrix" values="0 0 0 0 0.420052 0 0 0 0 0.332122 0 0 0 0 0.228205 0 0 0 1 0"/>
<feBlend mode="normal" in2="shape" result="effect1_innerShadow_3339_1733"/>
</filter>
<filter id="filter1_i_3339_1733" x="-89.5239" y="674.288" width="270.207" height="93.8574" filterUnits="userSpaceOnUse" color-interpolation-filters="sRGB">
<feFlood flood-opacity="0" result="BackgroundImageFix"/>
<feBlend mode="normal" in="SourceGraphic" in2="BackgroundImageFix" result="shape"/>
<feColorMatrix in="SourceAlpha" type="matrix" values="0 0 0 0 0 0 0 0 0 0 0 0 0 0 0 0 0 0 127 0" result="hardAlpha"/>
<feOffset/>
<feGaussianBlur stdDeviation="5.17949"/>
<feComposite in2="hardAlpha" operator="arithmetic" k2="-1" k3="1"/>
<feColorMatrix type="matrix" values="0 0 0 0 0.319857 0 0 0 0 0.25184 0 0 0 0 0.156617 0 0 0 1 0"/>
<feBlend mode="normal" in2="shape" result="effect1_innerShadow_3339_1733"/>
</filter>
<filter id="filter2_i_3339_1733" x="68.7325" y="674.395" width="96.6799" height="137.64" filterUnits="userSpaceOnUse" color-interpolation-filters="sRGB">
<feFlood flood-opacity="0" result="BackgroundImageFix"/>
<feBlend mode="normal" in="SourceGraphic" in2="BackgroundImageFix" result="shape"/>
<feColorMatrix in="SourceAlpha" type="matrix" values="0 0 0 0 0 0 0 0 0 0 0 0 0 0 0 0 0 0 127 0" result="hardAlpha"/>
<feOffset/>
<feGaussianBlur stdDeviation="3.10769"/>
<feComposite in2="hardAlpha" operator="arithmetic" k2="-1" k3="1"/>
<feColorMatrix type="matrix" values="0 0 0 0 0.566081 0 0 0 0 0.465522 0 0 0 0 0.342108 0 0 0 1 0"/>
<feBlend mode="normal" in2="shape" result="effect1_innerShadow_3339_1733"/>
</filter>
<filter id="filter3_i_3339_1733" x="-62.1237" y="716.26" width="64.2324" height="198.096" filterUnits="userSpaceOnUse" color-interpolation-filters="sRGB">
<feFlood flood-opacity="0" result="BackgroundImageFix"/>
<feBlend mode="normal" in="SourceGraphic" in2="BackgroundImageFix" result="shape"/>
<feColorMatrix in="SourceAlpha" type="matrix" values="0 0 0 0 0 0 0 0 0 0 0 0 0 0 0 0 0 0 127 0" result="hardAlpha"/>
<feOffset/>
<feGaussianBlur stdDeviation="3.10769"/>
<feComposite in2="hardAlpha" operator="arithmetic" k2="-1" k3="1"/>
<feColorMatrix type="matrix" values="0 0 0 0 0.508366 0 0 0 0 0.432557 0 0 0 0 0.342965 0 0 0 1 0"/>
<feBlend mode="normal" in2="shape" result="effect1_innerShadow_3339_1733"/>
</filter>
<filter id="filter4_i_3339_1733" x="200.454" y="635.861" width="81.8026" height="66.8438" filterUnits="userSpaceOnUse" color-interpolation-filters="sRGB">
<feFlood flood-opacity="0" result="BackgroundImageFix"/>
<feBlend mode="normal" in="SourceGraphic" in2="BackgroundImageFix" result="shape"/>
<feColorMatrix in="SourceAlpha" type="matrix" values="0 0 0 0 0 0 0 0 0 0 0 0 0 0 0 0 0 0 127 0" result="hardAlpha"/>
<feOffset/>
<feGaussianBlur stdDeviation="1.0359"/>
<feComposite in2="hardAlpha" operator="arithmetic" k2="-1" k3="1"/>
<feColorMatrix type="matrix" values="0 0 0 0 0.339079 0 0 0 0 0.283511 0 0 0 0 0.216367 0 0 0 1 0"/>
<feBlend mode="normal" in2="shape" result="effect1_innerShadow_3339_1733"/>
</filter>
<filter id="filter5_i_3339_1733" x="160.134" y="656.062" width="104.68" height="61.4434" filterUnits="userSpaceOnUse" color-interpolation-filters="sRGB">
<feFlood flood-opacity="0" result="BackgroundImageFix"/>
<feBlend mode="normal" in="SourceGraphic" in2="BackgroundImageFix" result="shape"/>
<feColorMatrix in="SourceAlpha" type="matrix" values="0 0 0 0 0 0 0 0 0 0 0 0 0 0 0 0 0 0 127 0" result="hardAlpha"/>
<feOffset/>
<feGaussianBlur stdDeviation="2.07179"/>
<feComposite in2="hardAlpha" operator="arithmetic" k2="-1" k3="1"/>
<feColorMatrix type="matrix" values="0 0 0 0 0.505127 0 0 0 0 0.437296 0 0 0 0 0.357132 0 0 0 1 0"/>
<feBlend mode="normal" in2="shape" result="effect1_innerShadow_3339_1733"/>
</filter>
<filter id="filter6_i_3339_1733" x="157.069" y="599" width="126.931" height="67.7598" filterUnits="userSpaceOnUse" color-interpolation-filters="sRGB">
<feFlood flood-opacity="0" result="BackgroundImageFix"/>
<feBlend mode="normal" in="SourceGraphic" in2="BackgroundImageFix" result="shape"/>
<feColorMatrix in="SourceAlpha" type="matrix" values="0 0 0 0 0 0 0 0 0 0 0 0 0 0 0 0 0 0 127 0" result="hardAlpha"/>
<feOffset/>
<feGaussianBlur stdDeviation="2.07179"/>
<feComposite in2="hardAlpha" operator="arithmetic" k2="-1" k3="1"/>
<feColorMatrix type="matrix" values="0 0 0 0 0.505127 0 0 0 0 0.437296 0 0 0 0 0.357132 0 0 0 1 0"/>
<feBlend mode="normal" in2="shape" result="effect1_innerShadow_3339_1733"/>
</filter>
<filter id="filter7_i_3339_1733" x="122.269" y="666.884" width="47.5914" height="67.6943" filterUnits="userSpaceOnUse" color-interpolation-filters="sRGB">
<feFlood flood-opacity="0" result="BackgroundImageFix"/>
<feBlend mode="normal" in="SourceGraphic" in2="BackgroundImageFix" result="shape"/>
<feColorMatrix in="SourceAlpha" type="matrix" values="0 0 0 0 0 0 0 0 0 0 0 0 0 0 0 0 0 0 127 0" result="hardAlpha"/>
<feOffset/>
<feGaussianBlur stdDeviation="1.0359"/>
<feComposite in2="hardAlpha" operator="arithmetic" k2="-1" k3="1"/>
<feColorMatrix type="matrix" values="0 0 0 0 0.513509 0 0 0 0 0.45128 0 0 0 0 0.378228 0 0 0 1 0"/>
<feBlend mode="normal" in2="shape" result="effect1_innerShadow_3339_1733"/>
</filter>
<filter id="filter8_i_3339_1733" x="15.2133" y="668.401" width="126.159" height="130.183" filterUnits="userSpaceOnUse" color-interpolation-filters="sRGB">
<feFlood flood-opacity="0" result="BackgroundImageFix"/>
<feBlend mode="normal" in="SourceGraphic" in2="BackgroundImageFix" result="shape"/>
<feColorMatrix in="SourceAlpha" type="matrix" values="0 0 0 0 0 0 0 0 0 0 0 0 0 0 0 0 0 0 127 0" result="hardAlpha"/>
<feOffset/>
<feGaussianBlur stdDeviation="1.0359"/>
<feComposite in2="hardAlpha" operator="arithmetic" k2="-1" k3="1"/>
<feColorMatrix type="matrix" values="0 0 0 0 0.511719 0 0 0 0 0.441994 0 0 0 0 0.360144 0 0 0 1 0"/>
<feBlend mode="normal" in2="shape" result="effect1_innerShadow_3339_1733"/>
</filter>
<linearGradient id="paint0_linear_3339_1733" x1="587.356" y1="-547.793" x2="-44.0539" y2="912.403" gradientUnits="userSpaceOnUse">
<stop stop-color="#77CFDC"/>
<stop offset="0.844209" stop-color="#23A2CE"/>
</linearGradient>
<linearGradient id="paint1_linear_3339_1733" x1="8.79069" y1="710.142" x2="0.998338" y2="748.775" gradientUnits="userSpaceOnUse">
<stop stop-color="#BEA588"/>
<stop offset="1" stop-color="#685945"/>
</linearGradient>
<linearGradient id="paint2_linear_3339_1733" x1="60.7381" y1="846.495" x2="72.4818" y2="861.821" gradientUnits="userSpaceOnUse">
<stop stop-color="#BEA588"/>
<stop offset="1" stop-color="#685945"/>
</linearGradient>
<linearGradient id="paint3_linear_3339_1733" x1="46.0128" y1="861.767" x2="68.1777" y2="910.256" gradientUnits="userSpaceOnUse">
<stop stop-color="#BEA588"/>
<stop offset="1" stop-color="#685945"/>
</linearGradient>
<linearGradient id="paint4_linear_3339_1733" x1="53.3685" y1="861.851" x2="75.5862" y2="873.472" gradientUnits="userSpaceOnUse">
<stop stop-color="#BEA588"/>
<stop offset="1" stop-color="#685945"/>
</linearGradient>
<linearGradient id="paint5_linear_3339_1733" x1="48.7835" y1="862.249" x2="76.5143" y2="905.223" gradientUnits="userSpaceOnUse">
<stop stop-color="#BEA588"/>
<stop offset="1" stop-color="#685945"/>
</linearGradient>
<linearGradient id="paint6_linear_3339_1733" x1="49.1331" y1="854.733" x2="50.3832" y2="862.279" gradientUnits="userSpaceOnUse">
<stop stop-color="#BEA588"/>
<stop offset="1" stop-color="#685945"/>
</linearGradient>
<linearGradient id="paint7_linear_3339_1733" x1="30.5121" y1="774.689" x2="75.3677" y2="837.233" gradientUnits="userSpaceOnUse">
<stop stop-color="#BEA588"/>
<stop offset="1" stop-color="#685945"/>
</linearGradient>
<linearGradient id="paint8_linear_3339_1733" x1="41.8144" y1="845.078" x2="45.4395" y2="859.548" gradientUnits="userSpaceOnUse">
<stop stop-color="#BEA588"/>
<stop offset="1" stop-color="#685945"/>
</linearGradient>
<linearGradient id="paint9_linear_3339_1733" x1="175.5" y1="737.586" x2="155.615" y2="731.528" gradientUnits="userSpaceOnUse">
<stop stop-color="#8B7C68"/>
<stop offset="0.836904" stop-color="#BDA68A"/>
</linearGradient>
<linearGradient id="paint10_linear_3339_1733" x1="166.528" y1="738.281" x2="146.261" y2="730.496" gradientUnits="userSpaceOnUse">
<stop stop-color="#8B7C68"/>
<stop offset="0.836904" stop-color="#BDA68A"/>
</linearGradient>
<linearGradient id="paint11_linear_3339_1733" x1="161.341" y1="743.612" x2="139.822" y2="735.79" gradientUnits="userSpaceOnUse">
<stop stop-color="#8B7C68"/>
<stop offset="0.836904" stop-color="#BDA68A"/>
</linearGradient>
<linearGradient id="paint12_linear_3339_1733" x1="155.614" y1="741.542" x2="134.095" y2="733.72" gradientUnits="userSpaceOnUse">
<stop stop-color="#8B7C68"/>
<stop offset="0.836904" stop-color="#BDA68A"/>
</linearGradient>
<linearGradient id="paint13_linear_3339_1733" x1="143.701" y1="739.471" x2="122.182" y2="731.648" gradientUnits="userSpaceOnUse">
<stop stop-color="#8B7C68"/>
<stop offset="0.836904" stop-color="#BDA68A"/>
</linearGradient>
<linearGradient id="paint14_linear_3339_1733" x1="124.656" y1="746.072" x2="103.999" y2="736.196" gradientUnits="userSpaceOnUse">
<stop stop-color="#8B7C68"/>
<stop offset="0.836904" stop-color="#BDA68A"/>
</linearGradient>
<linearGradient id="paint15_linear_3339_1733" x1="113.134" y1="731.362" x2="91.7504" y2="723.176" gradientUnits="userSpaceOnUse">
<stop stop-color="#8B7C68"/>
<stop offset="0.836904" stop-color="#BDA68A"/>
</linearGradient>
<linearGradient id="paint16_linear_3339_1733" x1="104.847" y1="723.593" x2="83.4632" y2="715.408" gradientUnits="userSpaceOnUse">
<stop stop-color="#8B7C68"/>
<stop offset="0.836904" stop-color="#BDA68A"/>
</linearGradient>
<linearGradient id="paint17_linear_3339_1733" x1="132.773" y1="734.226" x2="115.406" y2="728.709" gradientUnits="userSpaceOnUse">
<stop stop-color="#8B7C68"/>
<stop offset="0.836904" stop-color="#BDA68A"/>
</linearGradient>
<linearGradient id="paint18_linear_3339_1733" x1="98.4267" y1="726.548" x2="84.7799" y2="721.975" gradientUnits="userSpaceOnUse">
<stop stop-color="#8B7C68"/>
<stop offset="0.836904" stop-color="#BDA68A"/>
</linearGradient>
<linearGradient id="paint19_linear_3339_1733" x1="83.6645" y1="723.175" x2="70.0177" y2="718.602" gradientUnits="userSpaceOnUse">
<stop stop-color="#8B7C68"/>
<stop offset="0.836904" stop-color="#BDA68A"/>
</linearGradient>
<linearGradient id="paint20_linear_3339_1733" x1="79.2185" y1="662.096" x2="79.9923" y2="677.603" gradientUnits="userSpaceOnUse">
<stop stop-color="#BFAD99"/>
<stop offset="1" stop-color="#786650"/>
</linearGradient>
<linearGradient id="paint21_linear_3339_1733" x1="66.198" y1="663.17" x2="67.0332" y2="675.306" gradientUnits="userSpaceOnUse">
<stop stop-color="#BFAD99"/>
<stop offset="1" stop-color="#786650"/>
</linearGradient>
<linearGradient id="paint22_linear_3339_1733" x1="206.967" y1="783.263" x2="209.304" y2="794.798" gradientUnits="userSpaceOnUse">
<stop stop-color="#D1C1AE"/>
<stop offset="1" stop-color="#988267"/>
</linearGradient>
<linearGradient id="paint23_linear_3339_1733" x1="181.476" y1="741.962" x2="208.317" y2="784.217" gradientUnits="userSpaceOnUse">
<stop stop-color="#D1C1AE"/>
<stop offset="1" stop-color="#988267"/>
</linearGradient>
<linearGradient id="paint24_linear_3339_1733" x1="206.294" y1="786.151" x2="210.361" y2="798.736" gradientUnits="userSpaceOnUse">
<stop stop-color="#D1C1AE"/>
<stop offset="1" stop-color="#988267"/>
</linearGradient>
<linearGradient id="paint25_linear_3339_1733" x1="164.197" y1="698.228" x2="211.163" y2="740.413" gradientUnits="userSpaceOnUse">
<stop stop-color="#D1C1AE"/>
<stop offset="1" stop-color="#988267"/>
</linearGradient>
<linearGradient id="paint26_linear_3339_1733" x1="45.5519" y1="683.512" x2="53.5801" y2="746.442" gradientUnits="userSpaceOnUse">
<stop stop-color="#B59D81"/>
<stop offset="1" stop-color="#4F4538"/>
</linearGradient>
<linearGradient id="paint27_linear_3339_1733" x1="119.23" y1="772.081" x2="119.23" y2="793.119" gradientUnits="userSpaceOnUse">
<stop stop-color="#D3B796"/>
<stop offset="1" stop-color="#8B7760"/>
</linearGradient>
<linearGradient id="paint28_linear_3339_1733" x1="106.039" y1="768.975" x2="106.039" y2="777.521" gradientUnits="userSpaceOnUse">
<stop stop-color="#D3B796"/>
<stop offset="1" stop-color="#8B7760"/>
</linearGradient>
<linearGradient id="paint29_linear_3339_1733" x1="130.879" y1="754.927" x2="130.879" y2="805.716" gradientUnits="userSpaceOnUse">
<stop stop-color="#D3B796"/>
<stop offset="1" stop-color="#8B7760"/>
</linearGradient>
<linearGradient id="paint30_linear_3339_1733" x1="135.26" y1="760.429" x2="144.338" y2="810.4" gradientUnits="userSpaceOnUse">
<stop stop-color="#D3B796"/>
<stop offset="1" stop-color="#8B7760"/>
</linearGradient>
<linearGradient id="paint31_linear_3339_1733" x1="144.762" y1="750.859" x2="162.8" y2="799.083" gradientUnits="userSpaceOnUse">
<stop stop-color="#D3B796"/>
<stop offset="1" stop-color="#8B7760"/>
</linearGradient>
<linearGradient id="paint32_linear_3339_1733" x1="90.8726" y1="705.007" x2="109.778" y2="686.62" gradientUnits="userSpaceOnUse">
<stop offset="0.0766518" stop-color="#AC9478"/>
<stop offset="1" stop-color="#D9C6B0"/>
</linearGradient>
<linearGradient id="paint33_linear_3339_1733" x1="102.747" y1="760.945" x2="102.747" y2="772.979" gradientUnits="userSpaceOnUse">
<stop stop-color="#D3B796"/>
<stop offset="1" stop-color="#8B7760"/>
</linearGradient>
<linearGradient id="paint34_linear_3339_1733" x1="117.101" y1="748.597" x2="117.101" y2="762.061" gradientUnits="userSpaceOnUse">
<stop stop-color="#D3B796"/>
<stop offset="1" stop-color="#8B7760"/>
</linearGradient>
<linearGradient id="paint35_linear_3339_1733" x1="100.889" y1="756.953" x2="100.889" y2="765.866" gradientUnits="userSpaceOnUse">
<stop stop-color="#D3B796"/>
<stop offset="1" stop-color="#8B7760"/>
</linearGradient>
<linearGradient id="paint36_linear_3339_1733" x1="-9.75452" y1="743.939" x2="3.2023" y2="742.192" gradientUnits="userSpaceOnUse">
<stop stop-color="#C4B098"/>
<stop offset="1" stop-color="#826E57"/>
</linearGradient>
<linearGradient id="paint37_linear_3339_1733" x1="22.7293" y1="767.447" x2="-27.6222" y2="734.437" gradientUnits="userSpaceOnUse">
<stop stop-color="#6D5F4D"/>
<stop offset="1" stop-color="#D1B99E"/>
</linearGradient>
<linearGradient id="paint38_linear_3339_1733" x1="242.891" y1="661.758" x2="242.675" y2="694.648" gradientUnits="userSpaceOnUse">
<stop stop-color="#2B2201"/>
<stop offset="1" stop-color="#100C00"/>
</linearGradient>
<linearGradient id="paint39_linear_3339_1733" x1="220.619" y1="653.988" x2="222.69" y2="666.936" gradientUnits="userSpaceOnUse">
<stop stop-color="#2D2300"/>
<stop offset="1" stop-color="#3B2F05"/>
</linearGradient>
<linearGradient id="paint40_linear_3339_1733" x1="207.171" y1="681.861" x2="211.387" y2="669.444" gradientUnits="userSpaceOnUse">
<stop stop-color="#2D2300"/>
<stop offset="1" stop-color="#3B2F05"/>
</linearGradient>
<linearGradient id="paint41_linear_3339_1733" x1="264.719" y1="656.061" x2="264.719" y2="670.892" gradientUnits="userSpaceOnUse">
<stop stop-color="#322B24"/>
<stop offset="1" stop-color="#52412F"/>
</linearGradient>
<linearGradient id="paint42_linear_3339_1733" x1="272.922" y1="653.99" x2="272.922" y2="673.29" gradientUnits="userSpaceOnUse">
<stop stop-color="#5E4B36"/>
<stop offset="1" stop-color="#AA8D6D"/>
</linearGradient>
<linearGradient id="paint43_linear_3339_1733" x1="277.079" y1="652.436" x2="277.079" y2="673.153" gradientUnits="userSpaceOnUse">
<stop stop-color="#5E4B36"/>
<stop offset="1" stop-color="#AA8D6D"/>
</linearGradient>
<linearGradient id="paint44_linear_3339_1733" x1="279.655" y1="651.399" x2="279.655" y2="670.699" gradientUnits="userSpaceOnUse">
<stop stop-color="#5E4B36"/>
<stop offset="1" stop-color="#AA8D6D"/>
</linearGradient>
<linearGradient id="paint45_linear_3339_1733" x1="255.047" y1="696.721" x2="258.993" y2="677.829" gradientUnits="userSpaceOnUse">
<stop stop-color="#5E4B36"/>
<stop offset="1" stop-color="#AA8D6D"/>
</linearGradient>
<linearGradient id="paint46_linear_3339_1733" x1="258.673" y1="694.131" x2="262.618" y2="675.239" gradientUnits="userSpaceOnUse">
<stop stop-color="#5E4B36"/>
<stop offset="1" stop-color="#AA8D6D"/>
</linearGradient>
<linearGradient id="paint47_linear_3339_1733" x1="254.011" y1="699.311" x2="257.956" y2="680.419" gradientUnits="userSpaceOnUse">
<stop stop-color="#5E4B36"/>
<stop offset="1" stop-color="#AA8D6D"/>
</linearGradient>
<linearGradient id="paint48_linear_3339_1733" x1="254.826" y1="702.983" x2="251.813" y2="683.92" gradientUnits="userSpaceOnUse">
<stop stop-color="#5E4B36"/>
<stop offset="1" stop-color="#AA8D6D"/>
</linearGradient>
<linearGradient id="paint49_linear_3339_1733" x1="247.796" y1="695.686" x2="251.741" y2="676.794" gradientUnits="userSpaceOnUse">
<stop stop-color="#5E4B36"/>
<stop offset="1" stop-color="#AA8D6D"/>
</linearGradient>
<linearGradient id="paint50_linear_3339_1733" x1="243.285" y1="693.429" x2="247.23" y2="674.536" gradientUnits="userSpaceOnUse">
<stop stop-color="#5E4B36"/>
<stop offset="1" stop-color="#AA8D6D"/>
</linearGradient>
<linearGradient id="paint51_linear_3339_1733" x1="238.623" y1="696.389" x2="242.568" y2="677.497" gradientUnits="userSpaceOnUse">
<stop stop-color="#5E4B36"/>
<stop offset="1" stop-color="#AA8D6D"/>
</linearGradient>
<linearGradient id="paint52_linear_3339_1733" x1="234.48" y1="693.28" x2="238.425" y2="674.388" gradientUnits="userSpaceOnUse">
<stop stop-color="#5E4B36"/>
<stop offset="1" stop-color="#AA8D6D"/>
</linearGradient>
<linearGradient id="paint53_linear_3339_1733" x1="229.817" y1="696.907" x2="233.762" y2="678.015" gradientUnits="userSpaceOnUse">
<stop stop-color="#5E4B36"/>
<stop offset="1" stop-color="#AA8D6D"/>
</linearGradient>
<linearGradient id="paint54_linear_3339_1733" x1="224.948" y1="701.805" x2="228.893" y2="682.913" gradientUnits="userSpaceOnUse">
<stop stop-color="#5E4B36"/>
<stop offset="1" stop-color="#AA8D6D"/>
</linearGradient>
<linearGradient id="paint55_linear_3339_1733" x1="222.36" y1="696.107" x2="226.305" y2="677.215" gradientUnits="userSpaceOnUse">
<stop stop-color="#5E4B36"/>
<stop offset="1" stop-color="#AA8D6D"/>
</linearGradient>
<linearGradient id="paint56_linear_3339_1733" x1="218.734" y1="696.107" x2="222.679" y2="677.215" gradientUnits="userSpaceOnUse">
<stop stop-color="#5E4B36"/>
<stop offset="1" stop-color="#AA8D6D"/>
</linearGradient>
<linearGradient id="paint57_linear_3339_1733" x1="214.073" y1="695.071" x2="218.018" y2="676.179" gradientUnits="userSpaceOnUse">
<stop stop-color="#5E4B36"/>
<stop offset="1" stop-color="#AA8D6D"/>
</linearGradient>
<linearGradient id="paint58_linear_3339_1733" x1="210.965" y1="695.071" x2="214.91" y2="676.179" gradientUnits="userSpaceOnUse">
<stop stop-color="#5E4B36"/>
<stop offset="1" stop-color="#AA8D6D"/>
</linearGradient>
<linearGradient id="paint59_linear_3339_1733" x1="277.067" y1="643.63" x2="277.067" y2="662.929" gradientUnits="userSpaceOnUse">
<stop stop-color="#5E4B36"/>
<stop offset="1" stop-color="#AA8D6D"/>
</linearGradient>
<linearGradient id="paint60_linear_3339_1733" x1="274.476" y1="642.596" x2="274.476" y2="661.895" gradientUnits="userSpaceOnUse">
<stop stop-color="#5E4B36"/>
<stop offset="1" stop-color="#AA8D6D"/>
</linearGradient>
<linearGradient id="paint61_linear_3339_1733" x1="270.85" y1="641.559" x2="270.85" y2="660.858" gradientUnits="userSpaceOnUse">
<stop stop-color="#5E4B36"/>
<stop offset="1" stop-color="#AA8D6D"/>
</linearGradient>
<linearGradient id="paint62_linear_3339_1733" x1="267.743" y1="640.006" x2="267.743" y2="659.305" gradientUnits="userSpaceOnUse">
<stop stop-color="#5E4B36"/>
<stop offset="1" stop-color="#AA8D6D"/>
</linearGradient>
<linearGradient id="paint63_linear_3339_1733" x1="265.153" y1="636.898" x2="265.153" y2="656.198" gradientUnits="userSpaceOnUse">
<stop stop-color="#5E4B36"/>
<stop offset="1" stop-color="#AA8D6D"/>
</linearGradient>
<linearGradient id="paint64_linear_3339_1733" x1="262.563" y1="635.861" x2="262.563" y2="655.161" gradientUnits="userSpaceOnUse">
<stop stop-color="#5E4B36"/>
<stop offset="1" stop-color="#AA8D6D"/>
</linearGradient>
<linearGradient id="paint65_linear_3339_1733" x1="255.83" y1="642.076" x2="255.83" y2="661.376" gradientUnits="userSpaceOnUse">
<stop stop-color="#5E4B36"/>
<stop offset="1" stop-color="#AA8D6D"/>
</linearGradient>
<linearGradient id="paint66_linear_3339_1733" x1="250.132" y1="641.04" x2="250.132" y2="660.34" gradientUnits="userSpaceOnUse">
<stop stop-color="#5E4B36"/>
<stop offset="1" stop-color="#AA8D6D"/>
</linearGradient>
<linearGradient id="paint67_linear_3339_1733" x1="244.435" y1="646.738" x2="244.435" y2="666.038" gradientUnits="userSpaceOnUse">
<stop stop-color="#5E4B36"/>
<stop offset="1" stop-color="#AA8D6D"/>
</linearGradient>
<linearGradient id="paint68_linear_3339_1733" x1="244.435" y1="646.738" x2="244.435" y2="666.038" gradientUnits="userSpaceOnUse">
<stop stop-color="#5E4B36"/>
<stop offset="1" stop-color="#AA8D6D"/>
</linearGradient>
<linearGradient id="paint69_linear_3339_1733" x1="219.105" y1="647.757" x2="215.388" y2="666.695" gradientUnits="userSpaceOnUse">
<stop stop-color="#5E4B36"/>
<stop offset="1" stop-color="#AA8D6D"/>
</linearGradient>
<linearGradient id="paint70_linear_3339_1733" x1="214.96" y1="647.757" x2="211.243" y2="666.695" gradientUnits="userSpaceOnUse">
<stop stop-color="#5E4B36"/>
<stop offset="1" stop-color="#AA8D6D"/>
</linearGradient>
<linearGradient id="paint71_linear_3339_1733" x1="211.852" y1="645.685" x2="208.135" y2="664.624" gradientUnits="userSpaceOnUse">
<stop stop-color="#5E4B36"/>
<stop offset="1" stop-color="#AA8D6D"/>
</linearGradient>
<linearGradient id="paint72_linear_3339_1733" x1="208.987" y1="643.147" x2="204.784" y2="661.983" gradientUnits="userSpaceOnUse">
<stop stop-color="#5E4B36"/>
<stop offset="1" stop-color="#AA8D6D"/>
</linearGradient>
<linearGradient id="paint73_linear_3339_1733" x1="206.687" y1="640.053" x2="202.484" y2="658.89" gradientUnits="userSpaceOnUse">
<stop stop-color="#5E4B36"/>
<stop offset="1" stop-color="#AA8D6D"/>
</linearGradient>
<linearGradient id="paint74_linear_3339_1733" x1="238.001" y1="647.178" x2="233.801" y2="669.034" gradientUnits="userSpaceOnUse">
<stop stop-color="#5E4B36"/>
<stop offset="1" stop-color="#AA8D6D"/>
</linearGradient>
<linearGradient id="paint75_linear_3339_1733" x1="233.339" y1="645.728" x2="229.138" y2="667.583" gradientUnits="userSpaceOnUse">
<stop stop-color="#5E4B36"/>
<stop offset="1" stop-color="#AA8D6D"/>
</linearGradient>
<linearGradient id="paint76_linear_3339_1733" x1="224.633" y1="650.15" x2="218.163" y2="671.445" gradientUnits="userSpaceOnUse">
<stop stop-color="#5E4B36"/>
<stop offset="1" stop-color="#AA8D6D"/>
</linearGradient>
<linearGradient id="paint77_linear_3339_1733" x1="196.276" y1="715.885" x2="209.224" y2="686.62" gradientUnits="userSpaceOnUse">
<stop stop-color="#715D44"/>
<stop offset="1" stop-color="#CDB395"/>
</linearGradient>
<linearGradient id="paint78_linear_3339_1733" x1="220.62" y1="604.266" x2="226.058" y2="660.463" gradientUnits="userSpaceOnUse">
<stop stop-color="#DEC8AF"/>
<stop offset="0.483024" stop-color="#E6CFB5"/>
<stop offset="1" stop-color="#977D60"/>
</linearGradient>
<radialGradient id="paint79_radial_3339_1733" cx="0" cy="0" r="1" gradientUnits="userSpaceOnUse" gradientTransform="translate(254.945 621.678) rotate(90) scale(9.04443 9.44817)">
<stop stop-color="#453A1D"/>
<stop offset="1" stop-color="#3F3302"/>
</radialGradient>
<radialGradient id="paint80_radial_3339_1733" cx="0" cy="0" r="1" gradientUnits="userSpaceOnUse" gradientTransform="translate(206.493 625.784) rotate(90) scale(16.1381 18.2922)">
<stop stop-color="#453A1D"/>
<stop offset="1" stop-color="#3F3302"/>
</radialGradient>
<radialGradient id="paint81_radial_3339_1733" cx="0" cy="0" r="1" gradientUnits="userSpaceOnUse" gradientTransform="translate(176.196 630.346) rotate(90) scale(17.3748 6.12951)">
<stop stop-color="#453A1D"/>
<stop offset="1" stop-color="#3F3302"/>
</radialGradient>
<linearGradient id="paint82_linear_3339_1733" x1="3.89236" y1="767.256" x2="70.6212" y2="802.189" gradientUnits="userSpaceOnUse">
<stop stop-color="#BAA48A"/>
<stop offset="1" stop-color="#5D472D"/>
</linearGradient>
<linearGradient id="paint83_linear_3339_1733" x1="8.10005" y1="732.66" x2="20.6121" y2="751.648" gradientUnits="userSpaceOnUse">
<stop stop-color="#CDB9A2"/>
<stop offset="1" stop-color="#5D472D"/>
</linearGradient>
<linearGradient id="paint84_linear_3339_1733" x1="-1.58308" y1="764.124" x2="63.8779" y2="796.67" gradientUnits="userSpaceOnUse">
<stop stop-color="#BAA48A"/>
<stop offset="1" stop-color="#5D472D"/>
</linearGradient>
<linearGradient id="paint85_linear_3339_1733" x1="-28.2299" y1="699.48" x2="30.3575" y2="760.376" gradientUnits="userSpaceOnUse">
<stop stop-color="#CDB9A2"/>
<stop offset="1" stop-color="#5D472D"/>
</linearGradient>
<linearGradient id="paint86_linear_3339_1733" x1="116.826" y1="686.644" x2="135.838" y2="690.158" gradientUnits="userSpaceOnUse">
<stop stop-color="#EBD9C4"/>
<stop offset="1" stop-color="#826D4F"/>
</linearGradient>
<linearGradient id="paint87_linear_3339_1733" x1="115.393" y1="674.765" x2="140.129" y2="684.241" gradientUnits="userSpaceOnUse">
<stop stop-color="#EBD9C4"/>
<stop offset="1" stop-color="#826D4F"/>
</linearGradient>
<linearGradient id="paint88_linear_3339_1733" x1="134.868" y1="667.659" x2="159.417" y2="684.874" gradientUnits="userSpaceOnUse">
<stop stop-color="#EBD9C4"/>
<stop offset="1" stop-color="#826D4F"/>
</linearGradient>
<linearGradient id="paint89_linear_3339_1733" x1="121.321" y1="685.512" x2="156.099" y2="693.468" gradientUnits="userSpaceOnUse">
<stop stop-color="#EBD9C4"/>
<stop offset="1" stop-color="#826D4F"/>
</linearGradient>
<linearGradient id="paint90_linear_3339_1733" x1="131.259" y1="684.901" x2="168.655" y2="692.467" gradientUnits="userSpaceOnUse">
<stop stop-color="#EBD9C4"/>
<stop offset="1" stop-color="#826D4F"/>
</linearGradient>
<linearGradient id="paint91_linear_3339_1733" x1="139.928" y1="679.591" x2="179.482" y2="688.248" gradientUnits="userSpaceOnUse">
<stop stop-color="#EBD9C4"/>
<stop offset="1" stop-color="#826D4F"/>
</linearGradient>
<linearGradient id="paint92_linear_3339_1733" x1="118.83" y1="671.374" x2="139.115" y2="688.93" gradientUnits="userSpaceOnUse">
<stop stop-color="#EBD9C4"/>
<stop offset="1" stop-color="#826D4F"/>
</linearGradient>
<linearGradient id="paint93_linear_3339_1733" x1="38.4264" y1="676.749" x2="58.8389" y2="691.219" gradientUnits="userSpaceOnUse">
<stop stop-color="#DFC9B0"/>
<stop offset="1" stop-color="#8F7B62"/>
</linearGradient>
<linearGradient id="paint94_linear_3339_1733" x1="31.5756" y1="677.004" x2="50.3477" y2="690.162" gradientUnits="userSpaceOnUse">
<stop stop-color="#DFC9B0"/>
<stop offset="1" stop-color="#8F7B62"/>
</linearGradient>
<linearGradient id="paint95_linear_3339_1733" x1="44.5856" y1="673.511" x2="70.6414" y2="689.582" gradientUnits="userSpaceOnUse">
<stop stop-color="#DFC9B0"/>
<stop offset="1" stop-color="#8F7B62"/>
</linearGradient>
<linearGradient id="paint96_linear_3339_1733" x1="56.769" y1="670.756" x2="90.3158" y2="691.147" gradientUnits="userSpaceOnUse">
<stop stop-color="#DFC9B0"/>
<stop offset="1" stop-color="#8F7B62"/>
</linearGradient>
<linearGradient id="paint97_linear_3339_1733" x1="65.1221" y1="669.734" x2="105.77" y2="694.309" gradientUnits="userSpaceOnUse">
<stop stop-color="#DFC9B0"/>
<stop offset="1" stop-color="#8F7B62"/>
</linearGradient>
<linearGradient id="paint98_linear_3339_1733" x1="79.8441" y1="665.61" x2="112.25" y2="683.872" gradientUnits="userSpaceOnUse">
<stop stop-color="#DFC9B0"/>
<stop offset="1" stop-color="#8F7B62"/>
</linearGradient>
<linearGradient id="paint99_linear_3339_1733" x1="94.8676" y1="666.501" x2="129.524" y2="696.317" gradientUnits="userSpaceOnUse">
<stop stop-color="#DFC9B0"/>
<stop offset="1" stop-color="#8F7B62"/>
</linearGradient>
<linearGradient id="paint100_linear_3339_1733" x1="100.912" y1="668.905" x2="140.752" y2="691.33" gradientUnits="userSpaceOnUse">
<stop stop-color="#DFC9B0"/>
<stop offset="1" stop-color="#8F7B62"/>
</linearGradient>
<clipPath id="clip0_3339_1733">
<rect width="414" height="896" fill="white"/>
</clipPath>
</defs>
</svg>
