<svg width="1440" height="900" viewBox="0 0 1440 900" fill="none" xmlns="http://www.w3.org/2000/svg">
<g clip-path="url(#clip0_121_2667)">
<rect width="1440" height="900" fill="#193545"/>
<path d="M28.5438 275.224C31.249 272.169 35.9623 271.865 39.0712 274.545L167.856 385.557C170.965 388.237 171.292 392.886 168.587 395.941L9.02517 576.12C6.31994 579.174 1.60666 579.478 -1.50222 576.798L-130.287 465.786C-133.396 463.106 -133.723 458.457 -131.018 455.402L28.5438 275.224Z" fill="white"/>
<path d="M31.7039 282.018C33.4918 279.999 36.6068 279.799 38.6614 281.57L160.382 386.493C162.437 388.264 162.653 391.337 160.865 393.355L134.873 422.707L5.7112 311.37L31.7039 282.018Z" fill="#AA4245"/>
<path d="M55.3257 479.56C32.3613 505.492 -7.64904 508.072 -34.04 485.323C-60.4309 462.574 -63.2087 423.111 -40.2443 397.179C-17.28 371.247 22.7304 368.667 49.1214 391.416C75.5123 414.165 78.2901 453.629 55.3257 479.56Z" fill="#D48F90"/>
<path d="M28.5438 275.224C31.249 272.169 35.9623 271.865 39.0712 274.545L167.856 385.557C170.965 388.237 171.292 392.886 168.587 395.941L9.02517 576.12C6.31994 579.174 1.60666 579.478 -1.50222 576.798L-130.287 465.786C-133.396 463.106 -133.723 458.457 -131.018 455.402L28.5438 275.224Z" fill="#244556" fill-opacity="0.3"/>
<rect x="121.205" y="489" width="190.757" height="265.109" rx="7.66759" transform="rotate(80.1545 121.205 489)" fill="white"/>
<path d="M111.709 497.843C114.467 497.364 117.09 499.211 117.569 501.969L145.919 665.326C146.398 668.084 144.55 670.707 141.793 671.186L101.704 678.143L71.6202 504.8L111.709 497.843Z" fill="#847AC2"/>
<circle cx="-10.4305" cy="608.65" r="65.0892" transform="rotate(80.1545 -10.4305 608.65)" fill="#CDC5FF"/>
<rect x="121.205" y="489" width="190.757" height="265.109" rx="7.66759" transform="rotate(80.1545 121.205 489)" fill="#244556" fill-opacity="0.2"/>
<rect x="435.799" y="-53.1777" width="187.48" height="260.556" rx="17.7288" transform="rotate(85.1001 435.799 -53.1777)" fill="white"/>
<path d="M419.041 -44.7477C425.488 -45.3005 431.163 -40.5219 431.716 -34.0745L444.484 114.858C445.036 121.305 440.258 126.98 433.81 127.533L400.679 130.373L385.909 -41.9075L419.041 -44.7477Z" fill="#DCB551"/>
<circle cx="296.768" cy="52.8256" r="63.9713" transform="rotate(85.1001 296.768 52.8256)" fill="#FFF1CE"/>
<rect x="435.799" y="-53.1777" width="187.48" height="260.556" rx="17.7288" transform="rotate(85.1001 435.799 -53.1777)" fill="#244556" fill-opacity="0.35"/>
<path opacity="0.7" d="M177.635 -344.065L367.507 224.668C367.798 225.54 367.535 226.501 366.841 227.104L303.166 282.392C302.421 283.039 301.345 283.132 300.501 282.622L-263.666 -58.2365C-265.104 -59.1049 -265.135 -61.1787 -263.725 -62.0905L174.246 -345.254C175.493 -346.06 177.165 -345.474 177.635 -344.065Z" fill="#0C2431"/>
<path d="M341.57 267.038C345.015 271.593 345.694 278.436 340.366 282.466C335.038 286.496 326.892 283.994 323.446 279.439C320 274.883 322.56 270.001 327.888 265.97C333.216 261.94 338.124 262.482 341.57 267.038Z" fill="#9A765C"/>
<path d="M374.236 239.265C377.682 243.82 378.361 250.663 373.033 254.693C367.704 258.724 359.558 256.221 356.112 251.666C352.667 247.111 355.227 242.228 360.555 238.197C365.883 234.167 370.791 234.709 374.236 239.265Z" fill="#9A765C"/>
<path d="M365.403 212.356C376.39 225.086 374.446 250.429 355.192 267.047C335.937 283.665 306.662 285.265 295.676 272.536C284.69 259.806 291.392 236.016 310.647 219.398C329.902 202.779 354.417 199.627 365.403 212.356Z" fill="#B18D71"/>
<path d="M292.809 275.459C292.734 271.988 298.527 267.158 299.086 266.806C301.115 264.748 313.661 266.326 314.443 271.052C315.576 277.904 320.68 282.066 309.699 283.98C304.208 284.937 292.971 282.952 292.809 275.459Z" fill="#9A765C"/>
<path d="M360.518 211.186L360.515 211.193C359.088 213.185 363.904 225.535 366.808 223.735C371.776 220.657 371.267 224.083 373.563 219.77C375.812 215.546 370.607 207.566 364.371 208.415C361.495 208.806 360.736 210.656 360.518 211.186Z" fill="#9A765C"/>
<path d="M353.129 198.408C366.905 219.499 361.182 232.352 342.927 249.139C320.974 266.709 298.288 262.572 285.96 248.902C273.167 227.984 274.615 212.642 295.05 196.287C317.003 178.717 341.461 183.829 353.129 198.408Z" fill="#C6A083"/>
<path d="M312.212 164.697C309.095 162.04 307.699 156.89 309.808 154.474C311.918 152.059 316.827 155.888 320.342 152.539C321.904 150.825 324.877 144.932 325.198 138.504C325.519 132.077 326.564 128.366 328.567 127.822C332.079 126.501 336.904 134.776 337.908 141.876C338.381 145.218 339.968 153.003 343.909 146.331C347.849 139.659 350.08 139.865 351.399 145.406C353.245 163.631 344.569 193.409 341.187 196.096C324.568 209.303 318.403 200.433 319.968 196.691C321.143 193.546 323.042 185.462 321.242 178.283C319.442 171.104 315.951 168.29 312.212 164.697Z" fill="#DABDA7"/>
<path d="M266.774 201.367C264.938 197.573 260.181 194.851 257.239 196.331C254.296 197.812 256.836 203.696 252.603 206.337C250.498 207.453 243.879 208.897 237.411 207.558C230.944 206.219 226.988 206.304 225.932 208.161C223.715 211.323 230.693 218.271 237.488 221.106C240.685 222.439 248.01 226.031 240.368 228.24C232.725 230.448 232.355 232.726 237.519 235.471C255.148 242.017 289.223 240.614 290.503 238.37C307.902 225.204 301.789 218.878 296.558 217.361C294.079 216.289 284.612 217.528 277.944 213.88C271.276 210.232 269.381 206.024 266.774 201.367Z" fill="#DABDA7"/>
<path d="M357.362 226.194C361.064 234.249 356.067 242.788 345.196 252.241C334.616 260.691 325.58 262.047 318.389 257.365C313.609 254.251 320.14 243.17 331.487 234.555C342.835 225.941 353.406 219.818 357.362 226.194Z" fill="#E8D5C7"/>
<path d="M335.988 241.17C333.746 241.769 333.177 241.266 332.73 240.223C332.384 239.418 334.48 239.168 335.411 239.15C335.601 238.196 336.531 236.276 337.146 236.713C338.01 237.327 338.99 238.629 337.096 240.543C336.793 240.849 336.404 241.059 335.988 241.17Z" fill="#3F3D3B"/>
<path d="M335.73 239.152C335.634 239.149 335.527 239.148 335.411 239.15M335.411 239.15C334.48 239.168 332.384 239.418 332.73 240.223C333.177 241.266 333.746 241.769 335.988 241.17C336.404 241.059 336.793 240.849 337.096 240.543C338.99 238.629 338.01 237.327 337.146 236.713C336.531 236.276 335.601 238.196 335.411 239.15Z" stroke="#3F3D3B" stroke-width="0.795521"/>
<line y1="-0.513613" x2="4.97892" y2="-0.513613" transform="matrix(0.673426 0.739255 -0.779932 0.625864 336.069 241.201)" stroke="#3F3D3B" stroke-width="1.02723"/>
<path d="M339.72 244.905L338.556 248.198" stroke="#3F3D3B" stroke-width="1.02723" stroke-linecap="round"/>
<path d="M340.068 244.362L344.034 244.101" stroke="#3F3D3B" stroke-width="1.02723" stroke-linecap="round"/>
<ellipse cx="2.30565" cy="1.96383" rx="2.30565" ry="1.96383" transform="matrix(0.728835 0.684689 -0.672305 0.740275 316.306 238.482)" fill="#3F3D3B"/>
<ellipse cx="2.30731" cy="2.07075" rx="2.30731" ry="2.07075" transform="matrix(0.545157 0.838334 -0.829047 0.559179 341.967 219.319)" fill="#3F3D3B"/>
<path d="M342.454 191.091C333.702 189.737 325.174 202.161 326.393 203.552C339.984 208.801 353.016 194.608 349.871 189.635C348.246 189.558 351.206 192.445 342.454 191.091Z" fill="#9A765C"/>
<path d="M341.904 190.447C333.127 189.302 323.95 202.32 326.393 203.552C339.405 206.597 352.48 193.435 350.02 189.462C348.395 189.424 350.682 191.592 341.904 190.447Z" fill="#C6A083"/>
<path d="M281.969 235.761C284.444 226.634 300.983 223.629 301.874 225.415C301.267 240.936 280.919 247.582 277.196 242.38C277.835 240.761 279.494 244.887 281.969 235.761Z" fill="#9A765C"/>
<path d="M281.551 234.948C284.251 225.886 301.688 222.501 301.875 225.415C299.257 239.426 279.951 246.555 276.953 242.451C277.632 240.848 278.851 244.01 281.551 234.948Z" fill="#C6A083"/>
<path d="M346.725 253.644C337.01 261.953 334.116 272.924 333.884 277.37C338.135 280.106 348.776 275.785 358.504 265.553C369.235 254.266 373.234 244.035 370.716 241.091C366.767 241.813 356.441 245.335 346.725 253.644Z" fill="#DDC4B2"/>
<rect x="1305.56" y="775.679" width="195.523" height="271.733" rx="8.44431" transform="rotate(154.749 1305.56 775.679)" fill="white"/>
<path d="M1294.07 768.354C1295.39 771.141 1294.19 774.467 1291.41 775.782L1138.4 847.946C1135.61 849.261 1132.29 848.067 1130.97 845.279L1113.35 807.908L1276.45 730.983L1294.07 768.354Z" fill="#558EAB"/>
<circle cx="1151.49" cy="678.18" r="66.7157" transform="rotate(154.749 1151.49 678.18)" fill="#BBD9ED"/>
<rect x="1305.56" y="775.679" width="195.523" height="271.733" rx="8.44431" transform="rotate(154.749 1305.56 775.679)" fill="#244556" fill-opacity="0.2"/>
<rect x="971.394" y="826.918" width="176.118" height="291.967" rx="9.24223" transform="rotate(-50.0597 971.394 826.918)" fill="white"/>
<path d="M1005.35 825.115L1008.03 821.92L1011.34 824.692L1008.66 827.887L1013.38 831.84L1010.49 835.295L1005.77 831.342L997.912 840.726L995.839 838.991L990.788 818.062L993.319 815.039L1005.35 825.115ZM998.265 833.579L1002.46 828.57L995.406 822.664L998.265 833.579Z" fill="#AA4245"/>
<path d="M1282.53 871.734L1285.21 868.539L1281.9 865.767L1279.22 868.962L1274.5 865.009L1271.61 868.464L1276.33 872.417L1268.47 881.801L1270.55 883.537L1292.04 884.833L1294.57 881.81L1282.53 871.734ZM1275.45 880.198L1279.64 875.189L1286.69 881.094L1275.45 880.198Z" fill="#AA4245"/>
<path d="M1060.41 813.19C1055.95 817.84 1059.38 823.556 1059.38 823.556C1059.38 823.556 1052.71 821.856 1049.36 826.389C1046.01 830.922 1046.91 836.165 1051.23 840.829C1061.68 852.11 1086.59 846.339 1086.59 846.339C1086.59 846.339 1087.53 820.778 1074.74 812.759C1069.82 809.677 1064.15 809.288 1060.41 813.19Z" fill="#AA4245"/>
<path d="M1097.46 768.94C1093.01 773.59 1096.44 779.306 1096.44 779.306C1096.44 779.306 1089.76 777.606 1086.41 782.139C1083.07 786.672 1083.97 791.915 1088.28 796.579C1098.73 807.86 1123.65 802.089 1123.65 802.089C1123.65 802.089 1124.58 776.528 1111.79 768.509C1106.87 765.427 1101.21 765.038 1097.46 768.94Z" fill="#AA4245"/>
<path d="M1222.48 896.5C1226.94 891.851 1223.51 886.135 1223.51 886.135C1223.51 886.135 1230.19 887.834 1233.54 883.301C1236.88 878.768 1235.98 873.525 1231.66 868.861C1221.22 857.58 1196.3 863.352 1196.3 863.352C1196.3 863.352 1195.37 888.912 1208.16 896.931C1213.08 900.013 1218.74 900.403 1222.48 896.5Z" fill="#AA4245"/>
<path d="M1185.43 940.75C1189.89 936.101 1186.46 930.385 1186.46 930.385C1186.46 930.385 1193.14 932.084 1196.48 927.551C1199.83 923.018 1198.93 917.775 1194.61 913.111C1184.17 901.83 1159.25 907.602 1159.25 907.602C1159.25 907.602 1158.31 933.162 1171.11 941.181C1176.03 944.263 1181.69 944.653 1185.43 940.75Z" fill="#AA4245"/>
<path d="M1020.33 839.896C1017.89 842.442 1019.83 845.633 1019.83 845.633C1019.83 845.633 1016.11 844.645 1014.27 847.134C1012.44 849.623 1012.98 852.535 1015.42 855.15C1021.31 861.474 1035.14 858.449 1035.14 858.449C1035.14 858.449 1035.48 844.29 1028.31 839.757C1025.55 838.014 1022.39 837.759 1020.33 839.896Z" fill="#AA4245"/>
<path d="M1268.13 861.132C1266.05 863.991 1262.57 862.633 1262.57 862.633C1262.57 862.633 1264.2 866.13 1262.07 868.371C1259.94 870.611 1256.98 870.594 1253.98 868.655C1246.72 863.964 1247.26 849.818 1247.26 849.818C1247.26 849.818 1261.14 846.991 1266.87 853.261C1269.07 855.671 1269.87 858.733 1268.13 861.132Z" fill="#AA4245"/>
<rect x="971.394" y="826.918" width="176.118" height="291.967" rx="9.24223" transform="rotate(-50.0597 971.394 826.918)" fill="#244556" fill-opacity="0.15"/>
<path d="M1389.82 1304.37L1120.46 687.511C1120.06 686.601 1120.3 685.538 1121.05 684.887L1162.52 648.826C1163.22 648.219 1164.21 648.096 1165.04 648.514L1777.86 959.442C1779.29 960.167 1779.54 962.104 1778.35 963.168L1393.42 1305.16C1392.26 1306.19 1390.44 1305.79 1389.82 1304.37Z" fill="#0B2635" fill-opacity="0.7"/>
<ellipse cx="8.30768" cy="7.52785" rx="8.30768" ry="7.52785" transform="matrix(0.513357 -0.858176 0.880601 0.473859 1115.47 668.383)" fill="#A3856C"/>
<ellipse cx="9.06872" cy="7.35328" rx="9.06872" ry="7.35328" transform="matrix(0.879761 -0.475416 0.502738 0.864439 1137.4 642.866)" fill="#A3856C"/>
<path d="M1158.8 640.974C1179.02 640.364 1178.84 648.621 1183.6 674.426C1180.95 695.198 1174.36 701.72 1154.26 704.051C1134.05 704.661 1117.88 703.397 1117.48 682.457C1117.08 661.518 1138.59 641.585 1158.8 640.974Z" fill="#C2A28A"/>
<path d="M1186.73 692.841C1184.62 709.564 1169.26 712.372 1162.06 709.896C1159.68 709.075 1154.62 706.471 1161.31 704.744C1168 703.016 1179.87 692.543 1181.72 688.836C1183.57 685.128 1187.1 689.629 1186.73 692.841Z" fill="#876B57"/>
<ellipse cx="26.0608" cy="32.5452" rx="26.0608" ry="32.5452" transform="matrix(-0.692022 -0.721877 0.751348 -0.659907 1150.76 720.682)" fill="#95383A"/>
<ellipse cx="20.1064" cy="25.1093" rx="20.1064" ry="25.1093" transform="matrix(-0.692022 -0.721877 0.751348 -0.659907 1152.91 715.093)" fill="#AA4245"/>
<path d="M1119.82 699.486C1123.06 702.634 1127.31 699.686 1128.51 698.217C1124.4 695.123 1124.26 691.967 1124.5 689.685C1121.31 687.371 1117.8 688.973 1117.16 690.756C1116.7 692.354 1116.59 696.337 1119.82 699.486Z" fill="#A3856C"/>
<path d="M1173.25 643.427C1168.61 643.321 1167.63 648.238 1167.81 650.078C1173.06 649.568 1175.45 651.723 1176.92 653.511C1180.93 653.051 1182.34 649.586 1181.51 647.895C1180.69 646.45 1177.9 643.533 1173.25 643.427Z" fill="#A3856C"/>
<path d="M1174.82 671.504C1173.35 673.836 1171.21 673.543 1170.33 673.105C1172.22 670.472 1171.89 666.649 1171.49 665.066C1173.22 666.24 1176.3 669.172 1174.82 671.504Z" fill="#C2A28A"/>
<path d="M1144.63 700.307C1141.79 700.361 1140.95 698.464 1140.89 697.509C1144.21 697.637 1147.44 695.313 1148.64 694.134C1148.48 696.169 1147.46 700.253 1144.63 700.307Z" fill="#C2A28A"/>
<path opacity="0.7" fill-rule="evenodd" clip-rule="evenodd" d="M1440.63 677.431L1449.44 675.625L1459.73 680.134C1461.12 680.745 1462.93 680.229 1463.88 678.944L1502.31 627.19C1503.43 625.688 1502.93 623.781 1501.25 623.144L1405.98 587.038L1405.98 587.039L1315.76 566.951C1314.38 566.645 1312.85 567.268 1312.06 568.454L1278.5 618.73C1277.39 620.389 1278.19 622.38 1280.13 622.776L1290.23 624.849L1282.47 631.284C1280.62 632.822 1281.04 635.424 1283.25 636.021L1437.85 677.881C1438.79 678.135 1439.81 677.941 1440.63 677.431Z" fill="#142E3D"/>
<path d="M1360.4 628.871L1353.02 638L1346.19 628.347L1356.29 611.641L1360.4 628.871Z" fill="#554F39"/>
<path d="M1281.58 630.674L1281.9 622.047C1281.92 621.514 1282.08 620.997 1282.37 620.548L1297.66 596.537C1298.46 595.281 1300.06 594.803 1301.41 595.415L1352.28 618.323C1353.39 618.824 1354.08 619.947 1354.04 621.165L1353.5 635.935C1353.43 637.634 1351.97 638.941 1350.27 638.811L1284.35 633.771C1282.74 633.649 1281.52 632.281 1281.58 630.674Z" fill="#69634E"/>
<path d="M1318 620.667L1324.2 555.428L1369.51 565.157C1371.04 565.484 1372.06 566.93 1371.85 568.477L1363.47 632.015C1363.22 633.88 1361.34 635.059 1359.56 634.466L1318 620.667Z" fill="#7C755D"/>
<path d="M1318 620.666L1324.2 555.427L1283.69 560.208C1282.31 560.372 1281.22 561.473 1281.07 562.863L1274.52 623.698C1274.31 625.659 1276.02 627.285 1277.97 626.978L1318 620.666Z" fill="#B3A36A"/>
<ellipse cx="1321.39" cy="586.247" rx="10.4298" ry="8.53345" transform="rotate(7.21369 1321.39 586.247)" fill="#69634E"/>
<ellipse cx="1321.63" cy="584.365" rx="10.4298" ry="8.53345" transform="rotate(7.21369 1321.63 584.365)" fill="#B6A671"/>
<path d="M-345.603 902.321L213.831 664.325C214.62 663.989 215.532 664.127 216.187 664.681L309.09 743.283C310.069 744.11 310.169 745.583 309.312 746.536L-189.246 1300.82C-190.378 1302.07 -192.438 1301.7 -193.052 1300.12L-346.831 905.236C-347.276 904.092 -346.733 902.802 -345.603 902.321Z" fill="#081D28" fill-opacity="0.7"/>
<path d="M302.551 688.452C308.018 685.983 315.79 688.221 319.804 697.111C323.819 706.002 320.201 715.626 314.733 718.095C309.266 720.563 304.02 714.942 300.005 706.051C295.991 697.16 297.084 690.92 302.551 688.452Z" fill="#876F5E"/>
<path d="M254.622 646.354C257.939 641.356 266.21 639.449 275.269 645.46C284.327 651.471 287.077 662.006 283.76 667.004C280.443 672.003 272.316 669.572 263.257 663.561C254.198 657.549 251.305 651.353 254.622 646.354Z" fill="#876F5E"/>
<path d="M314.58 757.958C309.84 758.721 304.783 758.89 304.143 758.348C309.985 750.699 310.967 732.094 310.696 726.978C320.15 728.035 323.022 738.323 322.821 740.505C321.51 746.091 319.319 757.194 314.58 757.958Z" fill="#876F5E"/>
<path d="M218.907 644.836C223.728 645.287 227.754 650.423 228.041 651.272C219.345 653.634 209.53 667.935 207.295 672.217C199.702 665.254 201.098 657.609 204.431 654.434C208.249 650.798 214.514 644.425 218.907 644.836Z" fill="#876F5E"/>
<path d="M207.214 664.712C220.202 643.254 254.612 637.658 283.632 662.017C312.652 686.377 325.293 731.467 312.305 752.925C299.317 774.384 265.263 772.032 236.243 747.673C207.222 723.313 194.226 686.171 207.214 664.712Z" fill="#A68B75"/>
<path d="M282.092 693.897C294.202 710.46 310.617 721.972 317.306 722.405C321.605 715.213 315.53 690.611 300.525 674.009C283.971 655.694 268.302 646.287 263.762 650.535C264.684 657.243 269.982 677.334 282.092 693.897Z" fill="#C2A28A"/>
<path d="M199.739 672.886C219.77 656.522 242.168 661.001 269.193 684.925C298.253 713.78 305.008 750.601 288.282 763.972C267.982 778.207 237.607 784.182 208.548 755.327C179.488 726.472 183.747 688.992 199.739 672.886Z" fill="#C2A28A"/>
<path d="M253.429 673.347C260.053 668.133 276.652 673.009 287.643 686.971C298.633 700.933 302.011 722.093 293.841 724.674C286.013 727.147 280.331 726.911 264.268 705.279C250.333 692.372 247.611 679.62 253.429 673.347Z" fill="#E8D5C7"/>
<ellipse cx="2.56707" cy="2.58893" rx="2.56707" ry="2.58893" transform="matrix(0.567959 -0.823057 0.759068 0.651011 267.902 728.031)" fill="#3F3D3B"/>
<ellipse cx="2.74269" cy="2.58893" rx="2.74269" ry="2.58893" transform="matrix(0.896306 -0.443435 0.347156 0.937808 236.217 687.686)" fill="#3F3D3B"/>
<path d="M181.925 700.836C184.017 684.844 197.119 683.585 203.409 684.954C198.927 701.396 202.415 712.854 204.72 716.528C196.25 717.961 179.834 716.829 181.925 700.836Z" fill="#DAB9A0"/>
<path d="M242.52 778.716C227.787 772.153 230.316 759.235 233.421 753.596C247.903 762.58 259.88 762.503 264.058 761.342C263.018 769.868 257.253 785.28 242.52 778.716Z" fill="#DAB9A0"/>
<path d="M189.898 699.261C191.019 692.318 198.604 689.076 202.452 689.132C199.755 701.34 202.109 709.736 202.768 712.085L202.78 712.129C198.74 712.324 187.663 713.11 189.898 699.261Z" fill="#3F3D3B"/>
<path d="M248.001 772.264C255.184 772.746 260.209 765.87 261.063 761.989C248.262 761.872 240.455 757.56 238.271 756.354L238.23 756.331C237.08 760.348 233.676 771.303 248.001 772.264Z" fill="#3F3D3B"/>
<path d="M268.856 702.372L278.189 693.176" stroke="#3F3D3B" stroke-width="1.67104"/>
<path d="M278.982 693.334L283.112 695.305" stroke="#3F3D3B" stroke-width="1.67104" stroke-linecap="round"/>
<path d="M278.306 692.793L278.104 687.307" stroke="#3F3D3B" stroke-width="1.67104" stroke-linecap="round"/>
<path d="M267.879 697.121C269.426 696.371 272.048 696.9 273.389 698.501C274.73 700.102 275.11 702.509 273.78 704.167C272.192 706.147 270.485 704.788 268.856 702.842C267.226 700.896 265.933 698.75 267.879 697.121Z" fill="#3F3D3B"/>
<rect x="344.577" y="749.765" width="180.53" height="299.978" rx="9.24223" transform="rotate(17.0604 344.577 749.765)" fill="white"/>
<path d="M349.964 785.025L360.122 788.142L358.877 792.198L341.361 786.823L342.451 783.269C347.693 781.932 357.032 779.143 358.827 773.292C359.521 771.031 358.88 769.027 356.403 768.267C353.244 767.298 351.413 769.681 350.512 772.233L346.376 770.61C347.786 766.015 352.189 762.418 357.752 764.125C362.347 765.535 364.666 769.625 363.234 774.291C361.505 779.926 355.086 783.691 349.964 785.025Z" fill="#AA4245"/>
<path d="M349.755 816.171L346.385 800.874L335.157 811.691L338.41 826.86L349.755 816.171Z" fill="#AA4245"/>
<path d="M423.941 845.092L417.958 819.494L398.247 837.208L404.672 862.788L423.941 845.092Z" fill="#AA4245"/>
<rect opacity="0.2" x="344.577" y="749.765" width="180.53" height="299.978" rx="9.24223" transform="rotate(17.0604 344.577 749.765)" fill="#244556"/>
<path opacity="0.8" fill-rule="evenodd" clip-rule="evenodd" d="M415.575 915.559L470.395 852.642C471.046 851.895 471.995 851.516 472.939 851.626L570.763 863.03C573.041 863.296 574.079 866.09 572.599 867.976L565.72 876.747L568.875 882.823C569.142 883.337 569.097 883.974 568.761 884.459L493.635 992.825C493.501 993.018 493.336 993.168 493.155 993.276L492.738 994.113C492.472 994.648 491.914 994.974 491.317 994.942L488.971 994.816L485.121 1001.76C484.537 1002.82 483.425 1003.43 482.28 1003.34L379.025 994.562C376.955 994.386 375.777 992.064 376.771 990.123L413.968 917.501L413.889 917.495L414.088 917.266L414.99 915.505L415.575 915.559Z" fill="#142E3D"/>
<path d="M568.69 878.266L569.318 867.847C569.38 866.821 568.414 866.039 567.424 866.313L530.425 876.532C530.108 876.619 529.828 876.809 529.63 877.071L501.858 913.766C501.664 914.023 501.557 914.335 501.554 914.657L501.488 922.176C501.477 923.387 502.834 924.109 503.833 923.425L568.042 879.412C568.423 879.151 568.663 878.728 568.69 878.266Z" fill="#8D514E"/>
<path d="M537.286 890.4L488.767 830.225L533.068 812.805C534.323 812.312 535.754 812.718 536.562 813.798L576.07 866.554C577.182 868.039 576.69 870.167 575.04 871.015L537.286 890.4Z" fill="#BD6F6F"/>
<path d="M497.54 925.632L537.287 890.401L489.849 829.268L450.59 866.821C449.475 867.888 449.353 869.629 450.309 870.841L493.2 925.245C494.267 926.598 496.251 926.775 497.54 925.632Z" fill="#9D5F5B"/>
<path d="M520.046 855.064C516.355 850.86 510.156 849.621 505.846 853.186C501.546 856.742 501.61 863.006 504.987 867.448C508.397 871.935 514.54 873.621 519.126 870.344C523.99 866.869 523.99 859.556 520.046 855.064Z" fill="#AE6763"/>
<path d="M520.167 853.027C516.476 848.823 510.277 847.584 505.967 851.149C501.667 854.705 501.731 860.969 505.108 865.411C508.518 869.898 514.661 871.584 519.247 868.307C524.111 864.832 524.111 857.519 520.167 853.027Z" fill="#CF7D7D"/>
<path opacity="0.7" fill-rule="evenodd" clip-rule="evenodd" d="M446.967 651.963L453.204 657.675C461.745 665.498 462.276 678.716 454.39 687.199L446.535 695.65L430.789 712.588L430.786 712.591L424.403 719.458C416.518 727.941 403.201 728.476 394.661 720.653L389.89 716.284L389.887 716.281L368.639 696.82L361.982 690.723C353.442 682.9 352.91 669.681 360.796 661.199L365.371 656.277L365.375 656.273L385.583 634.534L385.588 634.529L390.783 628.94C398.669 620.457 411.985 619.922 420.526 627.745L425.015 631.857L425.02 631.861L446.965 651.961L446.967 651.963Z" fill="#142E3D"/>
<g filter="url(#filter0_i_121_2667)">
<path d="M460.445 648.492L428.955 616.862C420.784 608.654 407.506 608.624 399.298 616.796L367.862 648.093C359.654 656.264 359.624 669.542 367.796 677.75L399.286 709.38C407.457 717.588 420.735 717.618 428.943 709.446L460.379 678.149C468.587 669.978 468.617 656.7 460.445 648.492Z" fill="#8BABC1"/>
<g filter="url(#filter1_i_121_2667)">
<path d="M454.417 642.437L433.308 621.234C430.378 618.291 426.331 616.74 422.185 616.972L403.281 618.027C399.719 618.226 396.354 619.727 393.826 622.244L372.682 643.293C369.659 646.303 368.109 650.488 368.442 654.741L370.034 675.081C370.304 678.526 371.791 681.763 374.229 684.212L394.665 704.739C397.749 707.837 402.062 709.384 406.411 708.953L426.823 706.932C430.16 706.601 433.28 705.129 435.656 702.763L452.132 686.36C454.534 683.969 456.026 680.813 456.35 677.438L458.59 654.094C459.004 649.781 457.474 645.508 454.417 642.437Z" fill="#B0CDE2"/>
</g>
<g filter="url(#filter2_i_121_2667)">
<ellipse cx="412.182" cy="641.782" rx="8.24523" ry="8.41961" transform="rotate(45.1273 412.182 641.782)" fill="#2F4554"/>
</g>
<g filter="url(#filter3_i_121_2667)">
<ellipse cx="414.567" cy="685.946" rx="8.24523" ry="8.41961" transform="rotate(45.1273 414.567 685.946)" fill="#2F4554"/>
</g>
</g>
<rect x="1395.55" y="478.405" width="182.748" height="300.323" rx="9.34173" transform="rotate(-126.441 1395.55 478.405)" fill="white"/>
<path d="M1398.88 453.743C1395.66 449.377 1396.76 444.224 1400.91 441.158C1405.31 437.912 1410.9 439.161 1414.03 443.404C1417.19 447.679 1416.76 453.421 1412.39 456.645C1411.02 457.659 1409.33 458.246 1407.54 458.385L1392.63 459.586L1389.52 455.373L1399.73 454.766C1399.43 454.423 1399.15 454.109 1398.88 453.743ZM1410.52 445.997C1408.88 443.768 1406.1 443.079 1403.66 444.883C1401.22 446.686 1401.06 449.539 1402.71 451.768C1404.37 454.027 1407.15 454.716 1409.59 452.912C1412.03 451.109 1412.19 448.256 1410.52 445.997Z" fill="#AA4245"/>
<path d="M1412.1 377.889L1401.58 402.285L1428.24 399.743L1438.4 375.096L1412.1 377.889Z" fill="#AA4245"/>
<path d="M1370.96 322.162L1360.43 346.558L1387.09 344.016L1397.25 319.369L1370.96 322.162Z" fill="#AA4245"/>
<rect x="1395.55" y="478.405" width="182.748" height="300.323" rx="9.34173" transform="rotate(-126.441 1395.55 478.405)" fill="#244556" fill-opacity="0.25"/>
<path fill-rule="evenodd" clip-rule="evenodd" d="M589.938 158.509C590.134 161.927 587.115 165.674 581.266 168.467C571.861 172.96 558.701 173.286 551.871 169.197C545.041 165.108 547.129 158.151 556.534 153.659C562.25 150.928 569.354 149.737 575.581 150.14L600.588 133.703C597.09 128.407 598.099 123.158 604.048 119.968L604.069 119.938L604.712 119.63L604.766 119.604L604.821 119.578L615.259 114.593C625.108 109.888 643.211 112.133 655.693 119.607C668.175 127.08 670.309 136.953 660.46 141.657L649.619 146.835L649.607 146.836C642.981 149.828 632.839 149.807 623.159 147.266L589.938 158.509Z" fill="#0C2432"/>
<path d="M666.459 129.345C666.509 137.682 654.756 144.511 640.208 144.598C625.66 144.685 613.826 137.998 613.776 129.661L613.719 120.19C617.443 114.46 628.752 114.476 640.027 114.409C650.676 114.345 662.22 114.985 666.404 120.17L666.459 129.345Z" fill="#94393B"/>
<ellipse cx="640.064" cy="120.623" rx="26.342" ry="15.0948" transform="rotate(-0.343397 640.064 120.623)" fill="#AA4245"/>
<path d="M656.051 121.414L647.825 82.3939L631.547 82.4915L624.086 121.606C624.086 121.606 630.624 126.006 640.391 125.948C650.158 125.889 656.051 121.414 656.051 121.414Z" fill="#94393B"/>
<circle cx="639.767" cy="71.137" r="14.4136" transform="rotate(-0.343397 639.767 71.137)" fill="#AA4245"/>
<path fill-rule="evenodd" clip-rule="evenodd" d="M506.977 127.115C483.84 131.641 471.283 138.889 478.93 143.305L487.346 148.164L487.361 148.166C492.679 151.005 505.42 151.886 520.102 150.828L550.539 162.243C546.872 164.8 546.909 167.89 551.45 170.512C558.752 174.728 574.934 176.138 587.594 173.661C600.254 171.185 604.597 165.759 597.295 161.543C592.857 158.981 585.139 157.455 576.924 157.208L561.997 142.605C571.68 138.926 575.667 134.884 571.399 131.955L571.404 131.93L570.909 131.645L570.86 131.616L570.811 131.588L562.716 126.914C555.069 122.499 530.114 122.588 506.977 127.115Z" fill="#0F2634"/>
<path d="M545.227 145.783C539.318 141.388 540.745 129.466 548.414 119.154C556.083 108.843 567.09 104.046 572.999 108.44L579.712 113.433C581.777 119.105 575.756 127.077 569.812 135.069C564.199 142.617 557.613 150.423 551.731 150.619L545.227 145.783Z" fill="#655C9C"/>
<ellipse cx="565.408" cy="131.793" rx="23.2687" ry="13.3338" transform="rotate(126.639 565.408 131.793)" fill="#847AC2"/>
<path d="M556.363 142.66L588.268 157.591L596.849 146.052L573.213 120.003C573.213 120.003 566.634 122.278 561.485 129.201C556.337 136.124 556.363 142.66 556.363 142.66Z" fill="#655C9C"/>
<circle cx="600.494" cy="157.885" r="12.732" transform="rotate(126.639 600.494 157.885)" fill="#847AC2"/>
<rect x="1023.3" y="182.023" width="187.763" height="311.01" rx="9.59813" transform="rotate(-133.946 1023.3 182.023)" fill="white"/>
<path d="M1024.36 170.142L1010.74 156.02L1012.54 154.288L1038.67 145.834L1042.41 149.709L1018.09 157.176L1027.58 167.03L1024.36 170.142Z" fill="#AA4245"/>
<path d="M1050.78 120.296L1046.24 135.798L1061.79 131.714L1066.38 116.385L1050.78 120.296Z" fill="#AA4245"/>
<path d="M1030.65 75.6105L1023.06 102.004L1050.02 95.706L1057.19 69.1073L1030.65 75.6105Z" fill="#AA4245"/>
<path d="M979.802 22.86L972.216 49.2537L999.171 42.9555L1006.35 16.3568L979.802 22.86Z" fill="#AA4245"/>
<path d="M1085.73 22.5138L1078.15 48.9075L1105.1 42.6093L1112.28 16.0106L1085.73 22.5138Z" fill="#AA4245"/>
<path d="M1036.72 18.3961L1029.13 44.7898L1056.09 38.4916L1063.26 11.8929L1036.72 18.3961Z" fill="#AA4245"/>
<rect opacity="0.35" x="1023.3" y="182.023" width="187.763" height="311.01" rx="9.59813" transform="rotate(-133.946 1023.3 182.023)" fill="#244556"/>
<rect x="1044.72" y="132.547" width="175.675" height="291.911" rx="9.35208" transform="rotate(-68.8842 1044.72 132.547)" fill="white"/>
<path d="M1084.91 130.516C1083.01 135.442 1078.67 138.655 1073.22 136.547L1074.6 132.234C1077.4 133.315 1079.76 131.742 1080.88 128.835C1081.85 126.319 1081.56 123.599 1078.72 122.504C1075.32 121.19 1073.93 124.481 1072.9 127.139L1069.53 125.839C1070.86 122.401 1070.1 120.681 1068.18 119.942C1065.99 119.093 1064.34 120.291 1063.58 122.276C1062.7 124.544 1063.44 126.539 1065.66 127.437L1063.76 131.51C1059.11 129.717 1057.83 125.026 1059.47 120.773C1061.06 116.662 1065.04 113.841 1069.3 115.484C1071.21 116.223 1072.75 117.714 1073.08 120.243C1075.14 117.658 1078.13 117.389 1080.82 118.429C1085.82 120.359 1086.77 125.696 1084.91 130.516Z" fill="#181930"/>
<path fill-rule="evenodd" clip-rule="evenodd" d="M1101.31 131.57C1101.88 131.789 1102.4 132.073 1102.86 132.406C1104.11 130.368 1107.02 129.562 1109.75 130.617C1112.77 131.783 1114.43 134.78 1113.45 137.312C1113.01 138.465 1112.09 139.323 1110.94 139.805L1110.96 139.811C1114.68 140.398 1115.97 140.032 1117.09 138.341L1117.56 138.522L1114.44 146.577L1113.98 146.396C1114.34 144.28 1113.41 143.071 1110.4 141.252L1110.38 141.245C1110.91 142.375 1111.01 143.625 1110.57 144.778C1109.59 147.31 1106.35 148.417 1103.33 147.251C1100.55 146.177 1098.92 143.546 1099.45 141.158C1098.89 141.092 1098.33 140.955 1097.77 140.739C1094.75 139.573 1093.09 136.575 1094.07 134.044C1095.05 131.512 1098.29 130.404 1101.31 131.57Z" fill="#181930"/>
<path fill-rule="evenodd" clip-rule="evenodd" d="M1118.47 56.1791C1119.6 56.6169 1120.64 57.184 1121.56 57.8498C1124.07 53.7748 1129.9 52.1636 1135.36 54.2728C1141.39 56.6044 1144.7 62.5994 1142.75 67.663C1141.86 69.9698 1140.03 71.6853 1137.73 72.6491L1137.76 72.662C1145.21 73.8362 1147.8 73.1037 1150.02 69.7214L1150.96 70.0832L1144.74 86.1936L1143.8 85.8317C1144.54 81.6008 1142.67 79.1819 1136.65 75.5436L1136.62 75.5309C1137.67 77.7894 1137.87 80.2888 1136.98 82.5951C1135.03 87.6587 1128.55 89.8734 1122.51 87.5418C1116.94 85.3926 1113.7 80.1305 1114.75 75.3545C1113.64 75.2237 1112.5 74.9479 1111.39 74.5161C1105.35 72.1845 1102.04 66.1895 1103.99 61.1258C1105.95 56.0622 1112.43 53.8475 1118.47 56.1791Z" fill="#181930"/>
<path fill-rule="evenodd" clip-rule="evenodd" d="M1205.74 89.8819C1206.87 90.3199 1207.91 90.887 1208.83 91.553C1211.34 87.4778 1217.16 85.8664 1222.63 87.9757C1228.66 90.3073 1231.97 96.3023 1230.02 101.366C1229.13 103.672 1227.3 105.387 1225 106.351L1225.03 106.364C1232.48 107.538 1235.07 106.806 1237.29 103.423L1238.23 103.785L1232.01 119.895L1231.07 119.534C1231.81 115.303 1229.94 112.884 1223.92 109.245L1223.89 109.233C1224.94 111.491 1225.14 113.991 1224.25 116.297C1222.3 121.361 1215.82 123.576 1209.78 121.244C1204.21 119.095 1200.97 113.833 1202.02 109.057C1200.91 108.927 1199.77 108.651 1198.65 108.219C1192.62 105.887 1189.31 99.8923 1191.26 94.8287C1193.22 89.7651 1199.7 87.5503 1205.74 89.8819Z" fill="#181930"/>
<path fill-rule="evenodd" clip-rule="evenodd" d="M1315.02 132.086C1313.89 131.648 1312.74 131.37 1311.61 131.242C1312.49 126.538 1309.26 121.432 1303.8 119.323C1297.76 116.991 1291.28 119.206 1289.33 124.269C1288.43 126.576 1288.64 129.075 1289.69 131.334L1289.66 131.32C1283.35 127.182 1281.93 124.904 1282.55 120.901L1281.62 120.539L1275.39 136.65L1276.33 137.012C1278.63 133.384 1281.64 132.848 1288.54 134.202L1288.58 134.215C1286.28 135.179 1284.45 136.895 1283.56 139.201C1281.6 144.265 1284.91 150.26 1290.95 152.591C1296.51 154.741 1302.46 153.027 1304.88 148.779C1305.8 149.433 1306.82 149.991 1307.94 150.423C1313.98 152.754 1320.46 150.54 1322.41 145.476C1324.37 140.412 1321.06 134.417 1315.02 132.086Z" fill="#181930"/>
<rect x="1045" y="132.879" width="175.675" height="291.911" rx="9.35208" transform="rotate(-68.8842 1045 132.879)" fill="#244556" fill-opacity="0.2"/>
</g>
<defs>
<filter id="filter0_i_121_2667" x="361.686" y="610.687" width="104.868" height="104.869" filterUnits="userSpaceOnUse" color-interpolation-filters="sRGB">
<feFlood flood-opacity="0" result="BackgroundImageFix"/>
<feBlend mode="normal" in="SourceGraphic" in2="BackgroundImageFix" result="shape"/>
<feColorMatrix in="SourceAlpha" type="matrix" values="0 0 0 0 0 0 0 0 0 0 0 0 0 0 0 0 0 0 127 0" result="hardAlpha"/>
<feOffset dx="2.99586" dy="-1.49793"/>
<feComposite in2="hardAlpha" operator="arithmetic" k2="-1" k3="1"/>
<feColorMatrix type="matrix" values="0 0 0 0 0.480262 0 0 0 0 0.583859 0 0 0 0 0.63387 0 0 0 1 0"/>
<feBlend mode="normal" in2="shape" result="effect1_innerShadow_121_2667"/>
</filter>
<filter id="filter1_i_121_2667" x="368.397" y="616.949" width="90.2595" height="92.0752" filterUnits="userSpaceOnUse" color-interpolation-filters="sRGB">
<feFlood flood-opacity="0" result="BackgroundImageFix"/>
<feBlend mode="normal" in="SourceGraphic" in2="BackgroundImageFix" result="shape"/>
<feColorMatrix in="SourceAlpha" type="matrix" values="0 0 0 0 0 0 0 0 0 0 0 0 0 0 0 0 0 0 127 0" result="hardAlpha"/>
<feOffset dx="-1.49793"/>
<feComposite in2="hardAlpha" operator="arithmetic" k2="-1" k3="1"/>
<feColorMatrix type="matrix" values="0 0 0 0 0.834637 0 0 0 0 0.922177 0 0 0 0 0.982423 0 0 0 1 0"/>
<feBlend mode="normal" in2="shape" result="effect1_innerShadow_121_2667"/>
</filter>
<filter id="filter2_i_121_2667" x="403.849" y="633.449" width="16.6665" height="16.665" filterUnits="userSpaceOnUse" color-interpolation-filters="sRGB">
<feFlood flood-opacity="0" result="BackgroundImageFix"/>
<feBlend mode="normal" in="SourceGraphic" in2="BackgroundImageFix" result="shape"/>
<feColorMatrix in="SourceAlpha" type="matrix" values="0 0 0 0 0 0 0 0 0 0 0 0 0 0 0 0 0 0 127 0" result="hardAlpha"/>
<feOffset dx="-1.49793" dy="0.748966"/>
<feComposite in2="hardAlpha" operator="arithmetic" k2="-1" k3="1"/>
<feColorMatrix type="matrix" values="0 0 0 0 0.845671 0 0 0 0 0.937087 0 0 0 0 1 0 0 0 1 0"/>
<feBlend mode="normal" in2="shape" result="effect1_innerShadow_121_2667"/>
</filter>
<filter id="filter3_i_121_2667" x="406.234" y="677.613" width="16.6665" height="16.665" filterUnits="userSpaceOnUse" color-interpolation-filters="sRGB">
<feFlood flood-opacity="0" result="BackgroundImageFix"/>
<feBlend mode="normal" in="SourceGraphic" in2="BackgroundImageFix" result="shape"/>
<feColorMatrix in="SourceAlpha" type="matrix" values="0 0 0 0 0 0 0 0 0 0 0 0 0 0 0 0 0 0 127 0" result="hardAlpha"/>
<feOffset dx="-1.49793" dy="0.748966"/>
<feComposite in2="hardAlpha" operator="arithmetic" k2="-1" k3="1"/>
<feColorMatrix type="matrix" values="0 0 0 0 0.845671 0 0 0 0 0.937087 0 0 0 0 1 0 0 0 1 0"/>
<feBlend mode="normal" in2="shape" result="effect1_innerShadow_121_2667"/>
</filter>
<clipPath id="clip0_121_2667">
<rect width="1440" height="900" fill="white"/>
</clipPath>
</defs>
</svg>
