<svg width="46" height="64" viewBox="0 0 46 64" fill="none" xmlns="http://www.w3.org/2000/svg">
<g clip-path="url(#clip0_2421_1110)">
<path d="M3.43949 57.3347C2.67586 57.3347 2.00769 57.602 1.60201 58.1483V57.4393H0.373047V63.1691H1.60201V60.7866C1.60201 59.5662 1.81678 58.3807 3.08154 58.3807C4.09573 58.3807 4.22698 59.1594 4.22698 59.8335V63.1691H5.45594V59.5313C5.45594 58.125 4.74004 57.3347 3.43949 57.3347Z" fill="#0DEFE1"/>
<path d="M9.70818 63.1691H10.8178L12.1184 59.1246L13.407 63.1691H14.5286L16.3064 57.4393H15.0058L13.8962 61.3328L12.6434 57.4393H11.5815L10.3167 61.3444L9.23091 57.4393H7.91843L9.70818 63.1691Z" fill="#0DEFE1"/>
<path d="M19.1645 63.1691H20.4293V59.7522H21.7656C23.5792 59.7522 24.5695 58.9154 24.5695 57.3812C24.5695 55.8703 23.5911 55.0684 21.7656 55.0684H19.1645V63.1691ZM20.4293 58.6016V56.219H21.6344C22.7798 56.219 23.2809 56.5793 23.2809 57.4045C23.2809 58.218 22.7679 58.6016 21.6344 58.6016H20.4293Z" fill="#0DEFE1"/>
<path d="M28.5576 63.2738C28.832 63.2738 29.1423 63.2156 29.4406 63.111V62.1348C29.2616 62.1929 29.0945 62.2161 28.9514 62.2161C28.6411 62.2161 28.486 62.065 28.486 61.7628V55.0684H27.2571V61.8442C27.2571 62.8205 27.794 63.2738 28.5576 63.2738Z" fill="#0DEFE1"/>
<path d="M35.8295 57.4393V59.7638C35.8295 60.9493 35.6386 62.2277 34.3619 62.2277C33.2642 62.2277 33.2045 61.2747 33.2045 60.6936V57.4393H31.9756V60.9958C31.9756 62.2858 32.5841 63.2738 34.0159 63.2738C34.7318 63.2738 35.4119 63.0181 35.8295 62.4486V63.1691H37.0585V57.4393H35.8295Z" fill="#0DEFE1"/>
<path d="M42.2769 63.2738C43.3985 63.2738 44.5081 62.6926 44.5081 61.4142C44.5081 59.2989 41.3224 59.9265 41.3224 58.8921C41.3224 58.5434 41.6684 58.2994 42.2172 58.2994C42.8973 58.2994 43.2672 58.6597 43.4939 59.0665L44.4484 58.5551C44.0189 57.7647 43.2553 57.3347 42.265 57.3347C41.1076 57.3347 40.153 57.9158 40.153 58.9851C40.153 61.0771 43.303 60.3333 43.303 61.4839C43.303 61.8907 42.9331 62.2626 42.2292 62.2626C41.3939 62.2626 41.0002 61.7512 40.8212 61.2747L39.8309 61.7047C40.1173 62.5997 41.0599 63.2738 42.2769 63.2738Z" fill="#0DEFE1"/>
<path fill-rule="evenodd" clip-rule="evenodd" d="M34.0303 6.1123L45.9993 6.1123V9.52792L34.0303 9.52792V6.1123Z" fill="url(#paint0_linear_2421_1110)"/>
<path fill-rule="evenodd" clip-rule="evenodd" d="M41.8848 0L41.8848 12.4041L38.1445 15.9995L38.1445 3.77515L41.8848 0Z" fill="url(#paint1_linear_2421_1110)"/>
<path fill-rule="evenodd" clip-rule="evenodd" d="M36.2764 21.2132L43.7807 14.0225L43.7807 44.351L36.2764 40.5758L36.2764 21.2132Z" fill="url(#paint2_linear_2421_1110)"/>
<path fill-rule="evenodd" clip-rule="evenodd" d="M0.369141 10.0671V0L43.7567 41.7064V51.7735L0.369141 10.0671Z" fill="url(#paint3_linear_2421_1110)"/>
<path fill-rule="evenodd" clip-rule="evenodd" d="M0.369141 0L7.84976 7.19077L7.84976 44.5828L0.369141 51.7735L0.369141 0Z" fill="url(#paint4_linear_2421_1110)"/>
<path fill-rule="evenodd" clip-rule="evenodd" d="M0.369212 51.7732L18.6967 34.5153L13.4603 29.4818L0.485661 41.2711L0.369212 51.7732Z" fill="url(#paint5_linear_2421_1110)"/>
</g>
<defs>
<filter id="filter0_d_2421_1110" x="-142" y="-48" width="1480" height="159" filterUnits="userSpaceOnUse" color-interpolation-filters="sRGB">
<feFlood flood-opacity="0" result="BackgroundImageFix"/>
<feColorMatrix in="SourceAlpha" type="matrix" values="0 0 0 0 0 0 0 0 0 0 0 0 0 0 0 0 0 0 127 0" result="hardAlpha"/>
<feOffset/>
<feGaussianBlur stdDeviation="10"/>
<feComposite in2="hardAlpha" operator="out"/>
<feColorMatrix type="matrix" values="0 0 0 0 0.0509804 0 0 0 0 0.937255 0 0 0 0 0.882353 0 0 0 0.5 0"/>
<feBlend mode="normal" in2="BackgroundImageFix" result="effect1_dropShadow_2421_1110"/>
<feBlend mode="normal" in="SourceGraphic" in2="effect1_dropShadow_2421_1110" result="shape"/>
</filter>
<linearGradient id="paint0_linear_2421_1110" x1="34.9172" y1="8.02175" x2="46.6266" y2="8.02175" gradientUnits="userSpaceOnUse">
<stop stop-color="#20FFAF"/>
<stop offset="1" stop-color="#01DACC"/>
</linearGradient>
<linearGradient id="paint1_linear_2421_1110" x1="41.6951" y1="2.12659" x2="38.1301" y2="2.12659" gradientUnits="userSpaceOnUse">
<stop stop-color="#20FFAF"/>
<stop offset="1" stop-color="#01DACC"/>
</linearGradient>
<linearGradient id="paint2_linear_2421_1110" x1="37.2738" y1="15.5605" x2="37.2738" y2="44.4677" gradientUnits="userSpaceOnUse">
<stop stop-color="#20FFAF"/>
<stop offset="1" stop-color="#01DACC"/>
</linearGradient>
<linearGradient id="paint3_linear_2421_1110" x1="6.13607" y1="2.62553" x2="6.13607" y2="51.9729" gradientUnits="userSpaceOnUse">
<stop stop-color="#20FFAF"/>
<stop offset="1" stop-color="#01DACC"/>
</linearGradient>
<linearGradient id="paint4_linear_2421_1110" x1="1.36344" y1="2.62553" x2="1.36344" y2="51.9729" gradientUnits="userSpaceOnUse">
<stop stop-color="#20FFAF"/>
<stop offset="1" stop-color="#01DACC"/>
</linearGradient>
<linearGradient id="paint5_linear_2421_1110" x1="3.37725" y1="30.2048" x2="2.43666" y2="51.9506" gradientUnits="userSpaceOnUse">
<stop stop-color="#20FFAF"/>
<stop offset="1" stop-color="#01DACC"/>
</linearGradient>
<clipPath id="clip0_2421_1110">
<rect width="1440" height="1024" fill="white" transform="translate(-122 -28)"/>
</clipPath>
</defs>
</svg>
