<svg width="107" height="55" viewBox="0 0 107 55" fill="none" xmlns="http://www.w3.org/2000/svg">
<path d="M4.64247 49.1107C5.31077 49.1107 6.09531 48.9654 6.87984 48.6748V45.8854C6.47304 46.0016 6.09531 46.0597 5.77568 46.0597C5.13643 46.0597 4.7587 45.7982 4.7587 45.159V28.5676H1.27189V45.3914C1.27189 47.9484 2.69567 49.1107 4.64247 49.1107ZM8.9501 31.7929H12.6112V28.5676H8.9501V31.7929ZM9.03727 48.8201H12.5241V34.4952H9.03727V48.8201ZM47.0876 41.4688C47.0876 37.488 44.9374 34.2046 40.4917 34.2046C35.7264 34.2046 33.6924 37.982 33.6924 41.7303C33.6924 45.5658 35.7845 49.1107 40.7241 49.1107C43.1358 49.1107 45.0245 48.2681 46.5936 46.5246L44.1819 44.4035C43.194 45.5367 42.0317 45.9435 40.7532 45.9435C38.4868 45.9435 37.3245 44.6941 37.1792 42.8054H47.0004C47.0585 42.3405 47.0876 41.9046 47.0876 41.4688ZM37.1502 40.045C37.3536 38.6212 38.3415 37.1103 40.4626 37.1103C42.2932 37.1103 43.6879 38.2144 43.746 40.045H37.1502ZM57.1262 34.2046C55.5862 34.2046 53.988 34.6986 53.0001 35.9189V34.4952H49.5133V54.7477H53.0001V47.3673C53.9009 48.4424 55.499 49.1107 57.1262 49.1107C60.642 49.1107 63.17 46.3503 63.17 41.6722C63.17 37.3718 61.0198 34.2046 57.1262 34.2046ZM56.2545 46.0597C53.7556 46.0597 52.6805 44.142 52.6805 41.6431C52.6805 39.0861 53.7556 37.2556 56.2835 37.2556C58.6081 37.2556 59.6832 38.8246 59.6832 41.6431C59.6832 44.4326 58.579 46.0597 56.2545 46.0597ZM77.8776 41.4688C77.8776 37.488 75.7274 34.2046 71.2818 34.2046C66.5165 34.2046 64.4825 37.982 64.4825 41.7303C64.4825 45.5658 66.5746 49.1107 71.5142 49.1107C73.9259 49.1107 75.8146 48.2681 77.3837 46.5246L74.972 44.4035C73.984 45.5367 72.8218 45.9435 71.5433 45.9435C69.2768 45.9435 68.1146 44.6941 67.9693 42.8054H77.7905C77.8486 42.3405 77.8776 41.9046 77.8776 41.4688ZM67.9402 40.045C68.1436 38.6212 69.1316 37.1103 71.2527 37.1103C73.0833 37.1103 74.478 38.2144 74.5361 40.045H67.9402ZM92.4782 41.4688C92.4782 37.488 90.328 34.2046 85.8823 34.2046C81.117 34.2046 79.083 37.982 79.083 41.7303C79.083 45.5658 81.1751 49.1107 86.1147 49.1107C88.5264 49.1107 90.4151 48.2681 91.9842 46.5246L89.5725 44.4035C88.5846 45.5367 87.4223 45.9435 86.1438 45.9435C83.8774 45.9435 82.7151 44.6941 82.5698 42.8054H92.391C92.4491 42.3405 92.4782 41.9046 92.4782 41.4688ZM82.5408 40.045C82.7442 38.6212 83.7321 37.1103 85.8532 37.1103C87.6838 37.1103 89.0785 38.2144 89.1366 40.045H82.5408ZM102.226 34.2046C100.599 34.2046 99.0009 35.1635 98.3907 36.9359V34.4952H94.8749V48.8201H98.3617V41.6141C98.3617 38.9118 99.4077 37.6042 101.529 37.6042C102.226 37.6042 102.778 37.7786 103.272 38.0982L104.958 35.0182C104.028 34.437 103.185 34.2046 102.226 34.2046Z" fill="white"/>
<path d="M6.63271 10.367C5.40664 10.367 4.20171 10.7898 3.48298 11.741V10.5784H1.30564V25.3124H3.48298V19.8162C4.13829 20.6618 5.32208 21.1903 6.63271 21.1903C9.33852 21.1903 11.0931 19.0975 11.0931 15.7998C11.0931 12.6289 9.4865 10.367 6.63271 10.367ZM6.12537 19.2877C4.18057 19.2877 3.27158 17.7868 3.27158 15.7786C3.27158 13.707 4.22285 12.2907 6.14651 12.2907C7.98562 12.2907 8.91574 13.5802 8.91574 15.7786C8.91574 17.9137 8.00676 19.2877 6.12537 19.2877ZM17.3817 21.1903C20.5103 21.1903 22.5185 18.7592 22.5185 15.7786C22.5185 12.7769 20.5103 10.3881 17.3817 10.3881C14.232 10.3881 12.2237 12.7769 12.2237 15.7786C12.2237 18.7592 14.232 21.1903 17.3817 21.1903ZM17.3817 19.2877C15.3523 19.2877 14.4011 17.7023 14.4011 15.7786C14.4011 13.855 15.3523 12.2907 17.3817 12.2907C19.3899 12.2907 20.3412 13.855 20.3412 15.7786C20.3412 17.6812 19.4111 19.2877 17.3817 19.2877ZM26.015 21H27.9809L30.2851 13.6436L32.5681 21H34.5552L37.7049 10.5784H35.4007L33.4348 17.66L31.2152 10.5784H29.3338L27.0931 17.6812L25.1694 10.5784H22.8441L26.015 21ZM47.6452 15.525C47.6452 12.798 46.1654 10.3881 42.9311 10.3881C39.6123 10.3881 38.0903 13.0517 38.0903 15.842C38.0903 18.6958 39.6546 21.1903 43.1002 21.1903C44.8125 21.1903 46.1231 20.6406 47.3069 19.3511L45.7849 18.0405C45.0028 18.9284 44.1361 19.2243 43.1214 19.2243C41.3457 19.2243 40.3522 18.1462 40.2676 16.4762H47.5818C47.624 16.1591 47.6452 15.842 47.6452 15.525ZM40.2676 14.7217C40.4156 13.4322 41.2611 12.2061 42.9311 12.2061C44.4743 12.2061 45.5101 13.1997 45.5524 14.6794V14.7217H40.2676ZM54.7024 10.3881C53.5609 10.3881 52.356 10.98 51.8275 12.2907V10.5784H49.629V21H51.8063V15.5672C51.8063 13.4956 52.7153 12.4598 54.2796 12.4598C54.7658 12.4598 55.1675 12.5866 55.5691 12.8191L56.6261 10.9166C55.9919 10.5361 55.3789 10.3881 54.7024 10.3881ZM65.8307 15.525C65.8307 12.798 64.351 10.3881 61.1167 10.3881C57.7979 10.3881 56.2758 13.0517 56.2758 15.842C56.2758 18.6958 57.8401 21.1903 61.2858 21.1903C62.9981 21.1903 64.3087 20.6406 65.4925 19.3511L63.9705 18.0405C63.1883 18.9284 62.3216 19.2243 61.307 19.2243C59.5313 19.2243 58.5377 18.1462 58.4532 16.4762H65.7673C65.8096 16.1591 65.8307 15.842 65.8307 15.525ZM58.4532 14.7217C58.6012 13.4322 59.4467 12.2061 61.1167 12.2061C62.6599 12.2061 63.6957 13.1997 63.738 14.6794V14.7217H58.4532ZM74.6214 6.26601V11.741C73.9661 10.8955 72.7612 10.367 71.4717 10.367C68.8081 10.367 67.0113 12.4175 67.0113 15.7786C67.0113 18.9072 68.5756 21.1903 71.4717 21.1903C72.7189 21.1903 73.9027 20.7675 74.6214 19.8373V21H76.7987V6.26601H74.6214ZM71.9579 19.2032C70.0976 19.2032 69.1886 17.8714 69.1886 15.7998C69.1886 13.6647 70.1399 12.3329 71.979 12.3329C73.8815 12.3329 74.8328 13.8127 74.8328 15.7998C74.8328 17.7446 73.9238 19.2032 71.9579 19.2032ZM89.9859 10.367C88.6964 10.367 87.4915 10.8955 86.8362 11.741V6.26601H84.6588V21H86.8362V19.8373C87.5549 20.7675 88.7387 21.1903 89.9859 21.1903C92.882 21.1903 94.4462 18.9072 94.4462 15.7786C94.4462 12.4175 92.6494 10.367 89.9859 10.367ZM89.4997 19.2032C87.5337 19.2032 86.6248 17.7446 86.6248 15.7998C86.6248 13.8127 87.576 12.3329 89.4785 12.3329C91.3177 12.3329 92.2689 13.6647 92.2689 15.7998C92.2689 17.8714 91.3599 19.2032 89.4997 19.2032ZM96.8355 25.3124H99.182L105.038 10.5784H102.649L99.8162 18.2519L96.8567 10.5784H94.4679L98.6535 20.7675L96.8355 25.3124Z" fill="white"/>
<rect x="23.1538" y="44.8895" width="2.88234" height="2.88234" fill="white"/>
<rect x="16.6685" y="34.0805" width="2.88234" height="2.88234" fill="white"/>
<rect x="23.1538" y="34.0806" width="2.88234" height="2.88234" fill="white"/>
<rect x="28.9185" y="34.0806" width="2.88234" height="2.88234" fill="white"/>
<rect x="26.0361" y="39.8453" width="2.88234" height="2.88234" fill="white"/>
<rect x="19.5508" y="39.8453" width="2.88234" height="2.88234" fill="white"/>
</svg>
