<svg width="19" height="17" viewBox="0 0 19 17" fill="none" xmlns="http://www.w3.org/2000/svg">
<path fill-rule="evenodd" clip-rule="evenodd" d="M3.6733 4.38152C2.93859 4.38152 2.34319 3.81947 2.34319 3.12881C2.34319 2.43732 2.93859 1.87611 3.6733 1.87611C4.40801 1.87611 5.0043 2.43732 5.0043 3.12881C5.0043 3.81947 4.40801 4.38152 3.6733 4.38152ZM8.55348 0.206299H0.568359V7.72253C0.568359 8.18353 0.768009 8.60026 1.08922 8.90425L9.07789 16.4188C9.39822 16.7211 9.84188 16.909 10.3326 16.909C10.8233 16.909 11.2669 16.722 11.5873 16.4205L17.7933 10.5787C18.1154 10.2764 18.315 9.85714 18.315 9.39614C18.315 8.93431 18.1172 8.51591 17.7942 8.21526L9.80994 0.694854C9.48695 0.394205 9.04417 0.206299 8.55348 0.206299Z"/>
</svg>
